<svg xmlns="http://www.w3.org/2000/svg" viewBox="0 0 793.75 529.17"><path fill="#fff" d="M0 0h793.75v529.17H0z"/><path fill="#00662f" d="M394.87 297.54a104.23 140.3 0 00-81.02 52.24 166.37 132.29 0 00-3.16-.12 166.37 132.29 0 00-137.94 58.41 165.36 128.28 0 00-7.38-.28A165.36 128.28 0 00.32 529.17H793.3A165.36 128.28 0 00628.4 407.8a165.36 128.28 0 00-7.38.28 166.37 132.29 0 00-137.94-58.41 166.37 132.29 0 00-3.16.12 104.23 140.3 0 00-81.03-52.24 104.23 140.3 0 00-2 .1 104.23 140.3 0 00-2-.1"/><path fill="#fff" d="M380.93 369.3v43.25h-43.25l15.88 15.87-15.88 15.88h43.25v43.24l15.88-15.87 15.87 15.87V444.3h43.25l-15.88-15.88 15.88-15.87h-43.25V369.3l-15.87 15.87z"/><path fill="#040303" d="M433.67 24.68a12 12 0 00-5.02 1.01 16.5 16.5 0 00-6.92 6.68l-1.13 2.02 4.27.48c4.63.52 8.62 1.77 8.62 2.7 0 .68.2.72-2.22-.2-1.13-.45-3.94-1-6.24-1.3-2.33-.27-4.39-.72-4.63-.96-.52-.64-7.45-.12-11.07.77-1.45.36-5.24 1.93-8.46 3.46a60 60 0 01-26.49 6.16c-5.55.08-5.11-.2-5.51 3.83-.25 2.13-.2 2.5.36 2.5.36 0 .64.15.64.35 0 .77 1.29 1.65 2.46 1.65.8 0 1.57-.36 2.21-1.08 1.09-1.17 1.61-1.05 1.17.24-.28.97-2.13 2.05-3.42 2.05-.49 0-1.37-.28-2.02-.6-1.53-.77-1.57-.36-.36 2.86.6 1.6 1.53 2.94 3.22 4.59 1.98 1.93 2.38 2.57 2.38 3.7 0 2.42 1.85 5.44 4.55 7.4 1.33 1.02 2.45 1.74 2.53 1.66s-.04-.77-.24-1.53c-.52-1.73-.52-6 0-6.8.65-1.05 1.73.08 3.02 3.14.69 1.57 1.33 2.9 1.45 2.9.16 0 .49-.49.73-1.1.28-.64.72-1.44 1.04-1.88.53-.73.65-.69 2.22.56 1.89 1.49 2.41 1.25 2.41-1.09 0-.72.16-1.33.33-1.33s.8 1.05 1.45 2.3l1.12 2.3 1.17-1.38 1.17-1.4 1 1.08c.53.65 1.17 1.13 1.41 1.13.2 0 .6-.8.89-1.81.6-2.18 1.17-2.3 3.42-.65 1.45 1.05 3.75 4.63 3.26 5.12-.12.08-1-.12-1.97-.49s-3.58-.72-5.8-.84c-3.46-.16-4.87-.04-10.06 1.05-9.75 2.05-12.28 2.45-15.7 2.45-6.17 0-11.44-1.4-13.1-3.54-1.64-2.06-.6-5.68 2.1-7.29l1.25-.8-1.09-.29c-1.45-.36-4.9.12-6.4.93-2.78 1.4-4.06 3.86-4.06 7.77-.04 5.44 2.57 8.74 8.33 10.55 2.46.76 3.78.92 8.74.88 3.22 0 6.32-.12 6.88-.28 1.05-.28 1.09-.2 1.33 2.06.2 1.73.12 2.65-.36 3.54-.8 1.57-.77 2.01.44 4.59 1.41 3.06 2.7 4.63 5.11 6.24 2.34 1.57 2.62 1.4 2.66-1.49.04-1.45.12-1.53 1.33-1.53 1.61 0 4.15 1.2 6.24 3.02.93.76 1.77 1.4 1.9 1.4s.23-1.08.23-2.37c0-2.17.09-2.37.77-2.17 1.05.28 3.95 2.78 4.55 3.86.24.49.68 1.7.93 2.7l.48 1.81.84-1.69c.49-.92.89-2.33.89-3.14v-1.4l1.05.64c3.46 2.3 2.57 7.77-1.73 10.75-3.35 2.33-8.78 3.02-12.04 1.53-1.98-.89-2.26-1.3-2.62-3.47l-.24-1.6-.65 1.48c-.96 2.1-.88 4.8.17 6.12.44.57.76 1.05.68 1.1-.08 0-1.37.31-2.9.72-4.35 1.12-6.2.28-7.25-3.27l-.52-1.73-.89 1.77c-.88 1.74-1 3.63-.28 5.88.2.65-.12.97-1.69 1.73-1.85.89-2.05.93-3.42.37a4.7 4.7 0 01-2.7-3.9c0-2.1-1.85.64-2.3 3.45-.2 1.3-.32 1.41-1.28 1.17a9.4 9.4 0 01-5.56-4.23c-.76-1.45-.92-2.25-.76-4.02.08-1.21.28-2.62.44-3.1.24-.77.16-.93-.6-.93-1.94 0-3.79 1.81-4.6 4.51-.24.85-1 .6-3.34-1.09-2.53-1.8-3.86-4.06-3.58-6.04.08-.88.32-2 .44-2.5.29-.88.25-.88-.96-.48-1.45.53-3.26 2.5-3.26 3.63 0 .4-.16.76-.37.76-.76 0-4.3-2.73-5.15-4.02-1.17-1.7-1.17-2.5.08-3.95.52-.64.89-1.25.77-1.37-.08-.12-.93-.08-1.86.08-1.73.33-3.54 1.9-3.54 3.06 0 1.01-.64.6-2.01-1.29-1.09-1.57-1.37-2.29-1.53-4.63l-.2-2.73-1.09.76a5.6 5.6 0 00-1.61 2.01c-.28.65-.64 1.21-.85 1.21-.64 0-2.94-3.58-3.86-5.96-1.09-2.77-1.25-7.93-.32-10.5.32-.97 1.57-3.1 2.77-4.8 3.59-5.15 4.84-7.93 4.8-10.75-.04-1.65.16-2.61.56-3.1 2.25-2.53 2.21-9.42-.12-13.44-1.57-2.74-2.01-2.54-2.3.88a19 19 0 01-.92 4.51l-.69 1.5-.44-3.03c-.56-3.66-1.73-6.2-3.9-8.41-1.41-1.45-3.19-2.74-3.19-2.38 0 .08.37 1.17.81 2.46 1.05 2.9 1.05 5.51.04 6.76l-.77.93-.44-2.18c-.88-4.3-3.5-8.53-6.12-9.9-1.37-.69-1.37-.73-.72 3.06.48 2.9.2 5.51-.65 6.68-.52.77-.56.73-.8-.04-1.57-4.91-2.46-6.56-4.47-8.57-2.62-2.54-3.18-2.66-2.82-.57.6 3.55.73 7.21.28 8.86-.28.93-.6 1.7-.76 1.7s-.77-.93-1.37-2.02c-1.17-2.1-4.27-4.51-6.44-5.03l-1.13-.29 1.25 2.42c.92 1.73 1.37 3.34 1.65 5.92l.4 3.5-1.45 1.41c-2.1 2.01-2.17 3.22-1.2 13.69.32 3.38-.09 5.23-2.14 10.35-3.66 9.22-3.1 17.07 1.73 23.63.8 1.13 3.46 3.58 5.96 5.48 8.78 6.8 8.82 6.88 7.81 7.2-.52.16-2.05.28-3.46.28-1.37-.04-2.5.08-2.5.29 0 .16 1.09 1.28 2.38 2.5 2.21 2.05 6.6 4.34 8.3 4.34.88 0 .72.73-.21 1-.8.25-4.43 4.07-4.43 4.68 0 .48.32.44 2.74-.08 1.93-.45 5-.24 6.04.4.4.24.08.72-1.13 1.93-.88.89-1.61 1.98-1.61 2.38 0 .68.32.76 2.54.8 1.97 0 2.98.28 4.63 1.17 3.1 1.7 3.26 2.01 1.8 3.54-.68.73-1.44 1.73-1.72 2.26-.49.92-.45.92.44.64 2.13-.64 6.2-.68 7.73-.08.8.36 1.49.8 1.49 1 0 .17-.52.85-1.2 1.5s-1.22 1.29-1.22 1.45c0 .2.69.44 1.53.6 2.3.4 2.9.89 3.79 2.86.72 1.61.84 1.73 1.45 1.2 1.97-1.72 4.47-2.45 11.15-3.3 1.09-.11 2.05-.32 2.14-.4s-.17-.96-.49-1.97a15 15 0 01-.64-3.98l.04-2.1.8 1.5c.97 1.88 2.58 2.73 5.08 2.73 1.8-.04 2-.16 3.22-1.77.72-.97 1.33-1.81 1.33-1.93s-.77-.09-1.7.12c-3.26.64-3.34.52-1.53-1.53a22 22 0 002.42-3.39c.4-.76 1.05-1.69 1.45-2 .64-.53.56-.57-.89-.77l-1.57-.2 2.54-2.02c3.26-2.58 7.2-5.03 8.66-5.31 1.53-.33 1.69-.77.72-1.98-.76-1-.8-1.77-.08-1.77.32 0 3.26 4.1 3.26 4.55 0 .16-.44.2-.96.04-1.53-.36-3.75.53-7.5 3.02l-3.41 2.26 2.73.12c2.94.12 3.55.64 1.25 1.08-2.54.45-3.42 1.13-5.23 3.79-.97 1.45-1.7 2.66-1.65 2.7s.96-.08 2.05-.29 2.05-.28 2.17-.2c.08.12-.68 1.3-1.69 2.62s-1.85 2.5-1.85 2.62c0 .32 4.63.28 6.56-.04 1.21-.16 1.5-.37 1.25-.89-.44-1.05-.68-4.75-.4-5.92l.28-1.04.97 1.08c1.65 1.73 3.38 2.22 8.13 2.22 6.92 0 13.2-1.93 17.55-5.32.93-.76 1.78-1.12 2.18-.96 1.9.76-7.25 5.8-12.4 6.84-1.65.32-5 .65-7.45.69-4.27.08-5.03-.08-7.9-1.57-.56-.29-.35 1.65.37 3.62.36 1.05.6 2.01.48 2.1-.12.11-2.86.4-6.12.6-5.43.36-8.9.2-10.83-.57-.84-.32-.92.16-.24 1.61a2.4 2.4 0 001.41 1.25c1.09.28 1.2.77.28 1.13-.36.12-2.78.52-5.43.88-5.2.65-7.41 1.3-9.26 2.62-.93.65-1.33.73-1.73.4-.4-.36-1.13-.32-2.82.04l-2.26.53 1.05 1.53c.56.84.93 1.65.84 1.77-.12.08-.92.28-1.8.4-1.21.16-2.46-.12-5.08-1.08-1.93-.73-3.58-1.21-3.74-1.1-.13.17.24 1.01.84 1.9.56.89 1.05 1.7 1.05 1.81 0 .4-3.1.2-5.4-.4-5.11-1.33-7.57-3.62-10.67-10.03-2.25-4.63-4.26-7.24-5.87-7.65-.73-.2-1.01-.52-1.01-1.28 0-1.37-3.46-4.8-5.48-5.4-2.13-.64-8.98-.97-10.22-.48-.97.36-.97.4.68.84 2.58.73 7.25 4.71 6.44 5.56-.12.08-.96-.2-1.89-.68-3.9-1.98-8.9-1.78-13.08.56-3.15 1.73-3.27 2.25-.53 2.25 3.46 0 7.97 1.37 7.97 2.42 0 .16-1.77.36-3.94.48-3.26.12-4.31.32-6.12 1.21-2.06 1-5.48 3.87-5.07 4.23.08.08 1-.04 2-.32 2.42-.6 6.45-.29 8.42.68.8.4 1.5.85 1.5 1 0 .13-1.38.37-3.03.45-3.54.24-7.24 1.85-9.46 4.15l-1.37 1.4 3.43-.24c3.38-.28 7.6.33 7.6 1.05 0 .16-.76.4-1.65.56a12.7 12.7 0 00-7.6 4.15c-2.22 2.42-2.5 3.18-1.1 2.78 2.38-.73 7.1-.77 9.15-.08 2.65.88 7.08 4.59 10.02 8.41 4.31 5.56 8.26 8.7 13.33 10.6 6.36 2.33 15.3 3.41 21.62 2.61 2.13-.24 3.94-.36 4.07-.24s0 .68-.29 1.29c-.28.64-.6 2.86-.68 4.95-.12 3.14-.08 3.54.28 2.21 1-4.06 1.61-5.75 2.3-6.36.76-.72 5.47-2.5 5.23-1.97-1.33 2.54-3.06 8.78-2.33 8.33.2-.12.88-1.16 1.53-2.33 1.6-2.78 3.05-4.07 5.71-5.08 3.1-1.16 3.3-1.12 2.58.6a9 9 0 00-.48 3.71l.12 2.3.96-1.81c1.65-3.18 2.9-4.47 5.2-5.52 1.2-.52 2.3-.89 2.37-.76.08.08-.12.72-.44 1.4-.64 1.17-.93 4.88-.36 4.88.12 0 1.2-1.05 2.33-2.3 1.45-1.6 2.7-2.54 3.99-3.02 2.05-.76 2.05-.72 1.37 1.85a5.2 5.2 0 00.04 3.43c.24.92.6 1.65.76 1.65s.65-.97 1.09-2.1a6.3 6.3 0 012.17-3.06c1.53-.96 3.14-1.53 3.55-1.12.12.12-.08 1.28-.45 2.57-.76 2.78-.8 4.83-.2 9.87.4 3.18.36 3.9-.16 5.23-.48 1.13-.88 1.49-1.57 1.49-.52 0-1.17-.2-1.45-.48-.24-.24-.6-.32-.76-.16-.2.16.2.76.8 1.28 3.02 2.58 8.62-.28 9.34-4.75.4-2.41 1.98-5.8 2.98-6.32 1-.56 1-.4.2 2.18-.48 1.45-.64 3.42-.64 6.96.04 6.36-.4 7.7-2.7 7.73-.8 0-.88.12-.52.49.72.72 4.5.56 6.04-.25 1.73-.88 2.33-2.3 2.61-6.12.29-3.62.77-5.19 1.98-6.48 1.29-1.37 1.53-1.17 1.53 1.21 0 1.13.2 2.82.44 3.7 1.17 3.99.36 9.14-1.7 11.32-1.2 1.33-.31 1.49 2.34.52 3.63-1.37 4.31-2.3 4.92-6.68.28-2.06.64-3.75.8-3.75s.48.77.73 1.73c.76 2.82 3.54 6.49 8.09 10.67 2.37 2.14 5.23 4.88 6.4 6.04 1.13 1.13 2.26 2.1 2.54 2.1 1.29 0 9.3 10.22 11.67 14.9 2.78 5.47 3.26 7.72 3.67 16.9.4 8.9.96 12.32 2.73 16.71 1.17 2.82 1.21 3.67.25 3.26-.29-.08-.65.08-.77.4s-1.37 1.1-2.74 1.74c-5.19 2.33-6.24 5.03-6.4 16.14-.08 8.78-.6 9.95-4.06 9.58-1.53-.16-1.86.49-.69 1.53.69.6 1.45.77 3.83.77 2.94 0 2.98-.04 4.59-1.61a6.3 6.3 0 002.05-4.03c.4-2.05 1.65-4.39 2.1-3.78.03.08 0 2.33-.13 5-.28 5.67-.96 7.6-3.1 8.49-.72.32-1.77.48-2.33.32-.6-.16-1.01-.08-1.01.2 0 .8 1.57 1.25 4.55 1.25 2.66 0 3.14-.12 4.63-1.21 1.81-1.29 3.22-3.46 4.35-6.76.68-2.02 2.25-4.11 3.02-4.11.52 0 .44.84-.24 2.17-.4.77-.6 2.42-.65 5.24-.04 5.2-.52 6.6-2.53 7.28-.81.29-1.61.65-1.78.77-.56.56 1.21 1.57 3.02 1.73 1.7.16 2.1.04 3.43-1.05 1.2-1.04 1.57-1.69 1.93-3.58 1.05-5.35 2.98-9.34 4.47-9.34.48 0 1.29.93 2.33 2.74 1.98 3.42 7.25 8.78 10.07 10.3 1.85 1.01 2.45 1.13 4.43.93 1.25-.12 3.58-.72 5.23-1.4 1.61-.65 3.26-1.1 3.66-1.01 1.21.32 4.15 3.46 5.44 5.8 1.05 1.89 1.2 2.53 1.17 5.19-.12 6.6-4.4 15.58-8.3 17.43-1.28.6-5.75 1.09-10.38 1.13-2.7.04-5.88 1.13-8.98 3.1-1.77 1.17-2.54 1.97-3.34 3.54-1.01 2.05-1.05 2.05-3.22 2.34-3.1.36-5.08 1.24-6.04 2.77-.8 1.3-2.58 5.6-2.58 6.33 0 .84 1.9.32 3.58-1.01s4.23-2.22 4.8-1.65c.28.28-.05.96-2.3 4.5-1.61 2.54-2.7 7.66-1.85 8.58.44.45.72.33 1.8-.88 2.34-2.7 6-4.6 6.97-3.67.16.16-.24.89-.88 1.61-1.65 1.86-2.58 6.57-1.7 8.78.29.69.41.65 1.26-.6 1.28-1.9 2.25-2.66 4.79-3.79 1.97-.92 4.06-1.33 4.06-.8 0 .12-.36.92-.8 1.8-.57 1.14-.8 2.38-.8 4.4 0 3.22.27 4.19 1.08 3.9.32-.12.72-.24.93-.24.16 0 .4-.4.56-.88.24-1.1 3.58-4.96 4.75-5.6.76-.4.8-.36.6.68a8.3 8.3 0 001.3 5.32l.68.96.96-1.36c.85-1.3 2.02-2.18 4.4-3.5 1.4-.77 2.85-2.1 2.85-2.66 0-.25 1.2-.69 2.7-1.01 4.43-.89 8.82-3.66 14.81-9.5 6.77-6.57 9.06-10.83 10.07-18.76.12-1.1.32-1.94.44-1.94.08 0 .77.65 1.45 1.45 1.7 1.9 3.1 2.58 5.48 2.58 2.21 0 3.7-.89 4.7-2.82.9-1.69.77-1.77-.8-.8-.96.6-1.89.8-3.1.72-2.17-.16-2.73-1.13-2.73-4.91v-2.74l1.6 1.45a10 10 0 002.62 1.7 7.3 7.3 0 005.76-1.34c2.1-1.69 2.05-2.05-.28-1.81-1.45.12-2.34 0-3.02-.48-1.05-.65-1.85-2.78-1.85-4.83 0-1.13.04-1.13.72-.53.4.4 1.09.69 1.53.69.85.04 8.17-3.26 8.21-3.67 0-.16-1.2-.56-2.7-.92-2.97-.77-3.9-1.3-3.46-2.02.45-.68.13-34.38-.32-36.47-.52-2.42-1.85-4.31-3.66-5.28-2.26-1.17-3.75-.96-6.8.89-5.64 3.38-12.57 3.78-15.39.88-2.9-3.06-2.93-6.04-.32-16.54a147 147 0 002.46-11.76c.56-4.39.28-11.07-.65-15.62-.32-1.65-.56-3.06-.48-3.14s.64.12 1.25.44c5.76 2.98 16.87 4.63 23.27 3.42 3.3-.6 6.89-2.57 8.98-4.87 2.98-3.34 4.63-6.8 6.48-13.8 1.17-4.28 1.77-5.28 3.62-5.93.77-.28 1.41-.64 1.41-.8 0-.57-2.85-1.21-4.14-.97-1.9.4-2.98 1.61-4.8 5.23-2 4.03-2.57 4.64-4.06 4.64h-1.2l1.88-2.02 1.86-1.97v-3.34c0-1.81-.29-5.08-.65-7.29-.76-4.39-.72-4.47 1.7-5.31l1.56-.53-1.12-.44a9.4 9.4 0 00-6.2.24c-1.98.93-2.54 2.5-2.54 7.25 0 3.46-.08 3.98-.89 4.83-.48.52-.96.93-1.12.93-.13 0-.25-2.06-.25-4.51-.04-5.64-.52-6.97-3.26-8.78-2.9-1.97-3.7-2.82-4.87-5.03-.88-1.7-1.09-2.54-1.09-5.28v-3.26l-.92 1.37c-.53.76-1.61 2.78-2.42 4.47-2.1 4.39-2.17 6.84-.48 11.6 1.97 5.35 1.97 6.15.2 9.7-1.93 3.78-3.42 5.11-5.48 4.83-2.81-.36-10.02-5.8-11.8-8.9-1.12-1.93-2.13-5.43-3.86-13.53-1.57-7.12-3.02-11.07-8.77-23.55-2.46-5.32-4.67-10.5-4.92-11.52-.44-1.69-.32-2.41.77-7 1.45-5.96 1.57-8.94.44-11.44-.44-.96-.8-1.8-.8-1.85 0-.08 1.32-.04 2.94.08 3.3.24 5.95-.32 7.2-1.57 1-1 .77-1.2-2.57-2.3-2.9-.96-5.56-3.3-5.56-4.86 0-.97-.04-.97 1.73-.2 3.66 1.52 7.97.12 8.9-2.86.24-.77.08-.89-1.37-1.1a7.6 7.6 0 01-5.6-3.98c-1.08-2.25-1.16-4.14-.12-3.74.36.16 2.18.4 3.99.52 2.66.12 3.54.04 4.35-.48.56-.36 1-.8 1-.97s-.96-.8-2.17-1.4c-3.87-2.02-6.28-5.08-6.89-8.62-.36-2.26-.04-2.7 1.45-1.9.69.33 2.46.73 3.9.85 4.16.32 8.99-1.77 5.73-2.5-1.7-.36-5.72-3.14-7-4.83-1.22-1.57-2.26-3.82-2.26-4.83 0-.56.16-.56 1.32.16a8.1 8.1 0 009.1-.6l1.25-1.05-2.33-1.53c-2.46-1.69-5.24-4.95-6.28-7.4-1.01-2.42-.93-2.5 1.89-2.34 2.74.16 5.63-.65 5.84-1.57q.1-.62-1.65-1.05c-2.26-.6-5.04-3.42-6.69-6.8a15 15 0 01-1.25-3.14q0-.55 2.18-.85c2.13-.24 4.87-1.6 4.75-2.37 0-.2-1.05-.69-2.26-1.1-4.7-1.44-7.08-3.5-8.5-7.4-1.32-3.7-3.13-6.68-5.27-8.62l-2.09-1.93 1.93-1.45c5.32-3.94 8.38-10.59 7.3-15.9a14.9 14.9 0 00-5.85-9.58c-1.53-1.13-1.77-1.17-5.84-1.17-3.78 0-4.54.12-6.88 1.13-3.95 1.73-3.82 1.73-3.95.08a9 9 0 00-2.57-5.32c-1.86-1.73-4.84-2.68-7.79-2.7M371.8 230.62c-4.9.01-8.1.86-12.72 3.19a36 36 0 00-11.23 8.85c-7.8 9.1-14.97 15.3-17.63 15.3-1.9 0-3.95-.96-6.04-2.86-2.46-2.25-2.46-1.89-.12 2.1 2.05 3.54 5.71 7.04 7.77 7.45 1.93.36 5.84-.08 7.69-.85.84-.32 1.57-.52 1.65-.44.12.12-.48 1.49-1.33 3.06-1.81 3.46-3.7 4.79-7.37 5.11-3.14.28-4.99-.08-6.48-1.37-2.05-1.73-1.85-.72.36 1.61 2.14 2.26 5.24 4.19 7.57 4.71 1.81.45 5.96-.16 8.34-1.16 1-.45 1.85-.69 1.85-.49 0 .16-1.09 1.33-2.38 2.58-2.3 2.21-2.5 2.3-4.55 2.3-1.16 0-2.82-.2-3.66-.45-2.22-.6-2.34-.12-.24.77 5.23 2.21 12.92 2.98 15.66 1.53 2.25-1.21 3.62-2.34 4.47-3.75.48-.72 1-1.25 1.2-1.09.2.13.37 1.53.37 3.19 0 1.89.48 5.07 1.25 8.53 1.6 7.17 1.53 10.95-.28 14.5-.97 1.93-1.53 2.5-3.39 3.46-2.01 1.04-2.5 1.13-5.03.96a52 52 0 01-7.85-1.69c-2.78-.84-6.4-1.85-8.05-2.3-3.83-.96-8.98-1-11.08-.15-1.4.6-1.73.6-3.1.04-2.05-.8-6.32-.77-8.45.08-2.7 1.04-5 2.78-6.4 4.79-.69 1-1.13 1.93-1 2.05s1.52-.16 3.13-.64c2.94-.85 7.73-1.17 8.13-.48.13.16-.88.64-2.25 1.04-3.14.97-5.68 2.66-7.17 4.83q-2.06 2.95-.48 2.46c2.86-.93 7.9-1.33 8.3-.73.12.2-.69.77-1.82 1.25-2.3 1.05-5.4 4.03-6.56 6.24-.44.8-.68 1.53-.6 1.61.08.12 1.12-.08 2.25-.36 2.94-.76 7.4-1.13 8.5-.72.88.32.84.4-.85 1.6-.97.7-2.25 1.9-2.86 2.66-1.04 1.33-2.9 5.52-2.45 5.52.08 0 1.53-.44 3.18-1 2.61-.9 6.68-1.37 6.68-.81 0 .12-.72.92-1.57 1.85a11.2 11.2 0 00-3.38 7.33c-.24 2.5.32 2.82.76.44.16-.76.65-1.65 1.13-1.97 1.57-1 7.33-1.93 10.43-1.65 8.94.76 10.47.76 12.88-.16a27 27 0 005.6-3.47c3.18-2.5 3.34-2.57 5.63-2.57 1.3 0 2.34.12 2.34.32 0 .16-.52.93-1.13 1.7a15 15 0 00-1.6 2.29c-.73 1.32-.61 5.23.2 6.6.8 1.33.88 1.25 1.93-1.25 1.08-2.62 2.37-3.82 5.19-4.87 1.85-.69 2.98-1.5 4.71-3.3l2.3-2.34-.25 3.63-.2 3.58 1.53 1.85c.85 1 1.65 1.85 1.85 1.85s.37-.96.37-2.1c.04-5.63 2.65-10.78 5.51-10.78.73 0 1.33.08 1.33.2 0 .08-.28 1.2-.6 2.5-.89 3.46-.8 5.83.32 6.84.48.44 1.25.97 1.73 1.09.77.24.89.08 1.09-1.93.44-4.35 2.78-7.13 7.77-9.3a13 13 0 005.51-3.91c3.02-3.26 5.44-7.33 6.4-10.71 1.25-4.5.9-5.84-2.29-9.42a15 15 0 01-3.62-9.78c0-2.54.16-3.1 1.57-5.64 4.06-7.29 11.92-11.64 20.97-11.6 3.95 0 7.21.6 9.63 1.81 1.49.77 1.53.77 1.25.05-.2-.4-.85-2.22-1.5-4.03-1.2-3.5-1.89-9.5-1.93-16.83 0-7.33-2.45-13.77-7.93-21.02a77 77 0 00-3.58-4.55c-.6-.56-.6-.48 0 .69l.6 1.25-1.89.88c-1.65.8-2.38.89-5.72.73-3.42-.17-4.7-.49-12.48-3.14-8.5-2.9-8.74-2.94-13.57-3.14q-1.16-.05-2.21-.05"/><path fill="#da0d10" d="M456.26 385.33a5 5 0 01.2-3.46c1.41-2.62-2.98-1.45-5.96 1.57a19 19 0 01-2.33 2.13c-.6 0 .2-5.35 1.04-6.92.57-1.09.53-1.13-1.89-1.13-2.17 0-6.16 1.41-6.8 2.38-.48.8-1 .44-1-.65 0-1.4 1.64-4.9 2.73-5.91 1.2-1.05.76-1.45-1.49-1.45s-4.35.76-5.43 1.97c-.97 1.09-1.3 1.05-1.57-.04-.33-1.2.84-3.67 2.93-6.32l1.74-2.18-.97-.76c-1.37-1.09-3.58-.73-7.29 1.2-.56.29-.32-.8.57-2.57 1-2.05 3.34-3.42 6.4-3.7 2.77-.25 3.34.32 3.06 3.02l-.24 2.13h1.36c1.82 0 3.14 2.05 2.94 4.5l-.12 1.7 1.93.04c2.34.04 3.39 1.09 3.59 3.62.08 1.21.28 1.57.72 1.45.32-.08 1.45-.16 2.5-.16 2.21-.04 3.54.89 3.54 2.46 0 .88.12.96 1.13.68 2.62-.64 3.66-.64 4.87-.04 1.73.93 1.73 2.46 0 3.38-.68.37-2.17 1.37-3.3 2.22-2.34 1.69-2.5 1.73-2.86.84m18.52-115.26c-.12-.2.32-.77.97-1.29 1.6-1.25 2.77-3.14 3.62-5.92.89-2.82 1.85-3.42 1.45-.88a17 17 0 01-2.74 6.16c-.88 1.24-2.98 2.45-3.3 1.93m-1.85-4.51c0-.24.44-.8.96-1.2 1.57-1.26 3.75-5.16 4.63-8.38.89-3.26 1.1-3.59 1.61-3.02.97 1-2.17 8.7-4.59 11.4-1.44 1.56-2.61 2.13-2.61 1.2m-.4-5.36c0-.28.24-.76.56-1 .88-.73 2.13-3.99 2.9-7.57.44-2.17.88-3.34 1.25-3.34.68 0 .68.4-.25 4.23-1.12 4.7-2.85 8.25-4.02 8.25-.24 0-.44-.24-.44-.57m-107.78-67.75c.24-3.38.52-4.55 1.17-4.55.28 0 .36.8.2 2.21-.12 1.21-.12 2.22 0 2.22s1.29-.97 2.57-2.18 3.35-2.65 4.6-3.26c4.06-1.93 11.47-3.34 11.47-2.21 0 .2-.6.52-1.29.72-1.49.36-3.95 3.26-3.95 4.55 0 .65.45.48 2.98-1.25 3.83-2.61 14.34-7.32 14.34-6.44 0 .16-.29.97-.6 1.73-.53 1.3-.9 5.12-.45 5.12.32 0 4.59-4.35 5.68-5.84l1.2-1.53.33 2.13c.28 2.1 1.6 4.83 2.33 4.83.65 0 3.99-4.55 5.4-7.4a31 31 0 003.34-12c.36-4.83 1.08-4.63 1.04.28-.08 6.28-3.3 14.01-7.8 18.8l-2.02 2.13-1.37-1.57a7.5 7.5 0 01-1.65-2.7c-.16-.64-.32-1.16-.4-1.16-.56 0-5.48 5.4-5.68 6.2-.64 2.66-1.57.28-1.57-4.07 0-1.6-.12-2.94-.24-2.94-.56 0-6.36 2.54-8.33 3.67-1.17.64-3.38 2.1-4.91 3.18a27 27 0 01-3.06 2.01c-.53 0 .16-3.62 1-5.23.44-.89.85-1.7.85-1.77s-.93.08-2.06.36c-3.82 1-6.48 2.62-9.78 5.92-1.73 1.73-3.26 3.14-3.38 3.14s-.08-1.41.04-3.1m-87.89-26.98c-1-.32-2.94-.56-4.3-.56-1.42.04-2.54-.12-2.54-.32 0-.6 2.78-2.5 4.55-3.06.92-.28 2.73-.65 4.02-.8 1.25-.17 2.3-.41 2.3-.61 0-.57-2.22-1.97-4.07-2.62a14 14 0 00-3.82-.6c-1.21 0-2.18-.16-2.18-.32 0-.2.93-.73 2.1-1.25 2.9-1.3 10.67-1.81 11.23-.77.76 1.41.4 3.18-.85 4.35-1.16 1.09-1.2 1.29-.96 3.18.24 1.77.16 2.1-.77 3.02-1.17 1.17-2.05 1.25-4.7.36m5.23-13.4c-1.1-1.37-5.04-2.82-7.53-2.82-1.94 0-1.53-.73.88-1.73 2.34-.97 7.9-1.13 10.39-.33 2.66.9 2.3 3.47-.77 5.24-1.8 1.09-1.8 1.09-2.97-.36m5.63-5.16c-.32-.12-1.4-1.04-2.41-2.09-1.73-1.77-2.86-2.34-6.12-3.02q-2.27-.4.28-1.37c3.06-1.09 9.14-.4 10.95 1.25 1.2 1.13 2.3.8 2.46-.73.08-1-.25-1.65-1.7-3.26a12 12 0 01-1.85-2.33c0-.48 4.07.2 5.64.88.76.37 2.01 1.21 2.74 1.9 2.57 2.41 1.16 4.67-2.94 4.67-1.53 0-1.9.16-2.18.92-.68 1.7-3.58 3.63-4.87 3.18m170.54-23.1c-.12-.29-.28-1.37-.4-2.46a12.4 12.4 0 00-3.14-6.56c-.8-.89-1.05-1.37-.72-1.57.68-.45 3.06 2.05 3.9 4.1.4.93.85 1.73 1.05 1.73.16 0 .28-1.29.28-2.86 0-2.09.12-2.81.52-2.7.89.33.8 4.96-.12 8.06-.84 2.74-1.08 3.18-1.37 2.25m-14.13-2c-.12-1.18-.6-3.47-1.04-5.08-.89-3.3-.93-3.7-.37-3.7.65 0 1.21 1.48 1.98 4.95l.72 3.3.85-1.7c.48-.92 1-2.7 1.12-3.9.2-1.6.45-2.25.89-2.25.48 0 .56.4.36 2.25-.28 2.54-1.77 6-3.26 7.37l-.97.92zm-13.24-.61c.16-.65.32-2.9.36-5.04.04-2.17.16-4.06.32-4.18.6-.6 1.17 2.21.97 4.95-.16 2.17-.08 2.86.28 2.7.72-.28 2.62-3.34 3.14-5.08.52-1.8 1.77-2.17 1.37-.4-.57 2.38-2.5 5.52-4.19 6.8-2.17 1.66-2.7 1.7-2.25.25M417.6 119c1.97-2.1 2.54-3.06 2.9-5.23.36-2.01 1.05-2.22 1.2-.36.09.92-.23 2.09-.88 3.34-1.13 2.1-.8 2.37 1.2 1 1.38-.96 2.99-3.38 2.99-4.5 0-.37.28-.65.6-.65 1 0 .69 1.81-.68 3.87a9.7 9.7 0 01-7.05 4.06l-1.93.2zm-9.5-3.54c0-.2.56-.56 1.2-.85 1.5-.64 3.63-2.97 3.63-4.02 0-.44.28-.8.6-.8.93 0 .73 1.68-.4 3.21-.56.77-1 1.41-1 1.45 0 .08.56-.08 1.2-.32.69-.2 1.81-1.13 2.58-1.97 1.45-1.7 1.85-1.9 1.85-.93 0 1.13-1.57 2.9-3.34 3.75s-6.32 1.2-6.32.48m16.99-7.77c-1-3.14-3.66-6-6.36-6.72-1.57-.4-1.73-1.25-.24-1.25 1.85 0 4.9 2.3 6.36 4.75l1.29 2.13.52-1.53c.68-2.1.6-7.53-.16-9.98-.53-1.53-.57-2.05-.16-2.3 1.29-.8 2.61 6.16 1.93 10.23-.4 2.5-1.9 6.36-2.46 6.36-.12 0-.44-.76-.72-1.69m11.43-4.03c-.12-.28-.28-1.04-.44-1.73-.76-3.5-4.35-8.65-6.04-8.65a.6.6 0 01-.6-.6c0-.81.76-.77 2.3.2 1.64.96 3.41 3.42 4.58 6.23.53 1.21 1.05 2.22 1.2 2.22s.53-1.05.81-2.3c.57-2.9.29-7.2-.76-10.3-.48-1.37-.64-2.42-.4-2.54.68-.44 1.08.36 1.93 3.62.97 3.83 1.05 7.37.16 10.35-.97 3.3-2.3 5-2.74 3.5m-135.83-.56q-3.7-.97-3.7-1.77c0-.77.72-.77 2.25 0 2.13 1.13 5.63 1.09 8.05-.08 1.05-.48 2.9-1.81 4.19-3.02 2.45-2.26 2.81-2.46 2.81-1.57 0 .92-4.3 4.67-6.52 5.64-2.86 1.28-4.55 1.44-7.08.8m143.44-11.2c-1.45-2.2-3.82-4.26-4.91-4.26-.28 0-.52-.28-.52-.6 0-1.53 3.14.04 5.43 2.73l1.41 1.65v-2.2c0-2.75-.84-5.93-2.17-8.18l-1-1.73.8-.89c.88-.93 2.21-1.05 4.34-.44.77.2 1.5.32 1.57.2.49-.48-2.25-3.62-3.62-4.19-1.45-.6-2.1-1.65-1-1.65 1.08.04 3.74 1.9 4.79 3.42 1.08 1.57 2.85 5.88 2.53 6.2-.12.08-.8-.4-1.57-1.08-1.65-1.45-4.15-2.3-5.64-1.94l-1 .25.96 1.45c1.41 2.05 1.86 3.82 2.1 8.2.16 2.95.08 4-.4 4.6-.53.72-.65.64-2.1-1.53m-63.81-4.43c-.72-.73-.32-5.27.4-5 .4.17 3.22 4.31 3.22 4.76 0 .48-3.18.68-3.62.24m10.27.2c-1.94-.24-2.02-.28-2.14-1.57l-.12-1.33 1.21.65c1.25.6 1.25.6 1.25-.37 0-1.4.52-1.57 1.4-.4.9 1.2 2.87 2.34 3.43 1.97.24-.12.4-.76.4-1.4 0-1.33.65-1.94 1.33-1.25.76.76 1.85.48 2.13-.57.29-1.12 1.37-1.33 2.26-.48.28.32.92.76 1.45 1.05 1.25.68 1.12 1.12-.6 2.01-1.38.68-8.42 2.17-9.55 1.97-.24 0-1.33-.16-2.45-.28m-5.8-1.9a11 11 0 01-1.65-2.17c0-.28 3.06-1.2 3.9-1.2.16 0 .24 1.16.2 2.61-.08 1.45-.28 2.62-.48 2.62s-1.09-.85-1.97-1.85"/><path fill="#da0d10" d="M393.05 83.9c-2.33-2.49-2.13-2.7 2.98-3.25 2.66-.29 3.26.08 2.66 1.53l-.48 1.2-1.1-1.16c-.56-.65-1.12-1.1-1.24-1.01-.08.12-.44 1.13-.76 2.21l-.57 2.02zm-4.35-.84c-.68-.93-.68-.97.33-1.2 1.28-.37 1.32-.29 1.08 1.08-.24 1.33-.52 1.33-1.4.12m14.77-.32c-1.41-.89-1.81-1.33-1.33-1.45.93-.2 4.83 1.53 4.63 2.1-.28.84-1.33.64-3.3-.65"/><path fill="#da0d10" d="M364.02 83.06c-1.08-.28-2.57-.64-3.3-.84-3.18-.77-6.16-4.84-6.16-8.38 0-4.43 1.86-7.25 5.12-7.77l1.69-.24-.8 1.53c-1.58 2.98-.37 6.48 2.77 8.13 2.62 1.37 5.96 1.9 11.96 1.85 4.99-.04 6.36-.24 12.28-1.57 8.77-2 14.49-2.33 18.32-.96 2.33.8 2.57 1 2.81 2.25.29 1.57-.08 3.95-.76 4.51-.28.24-1 .12-2.05-.36-.9-.44-2.58-.97-3.75-1.2-2.37-.53-8.86-.33-11.75.35-1.01.2-2.34.53-3.02.65-.65.16-1.57.44-2.06.68-.44.2-1.37.32-1.97.24-.93-.08-1.25-.4-1.49-1.4-.2-.73-.48-1.33-.68-1.33-.17 0-.69.8-1.17 1.77-.53 1-1.29 1.89-1.81 2.05-1.78.52-12.08.56-14.18.04m86.36-10.43a9 9 0 00-3.22-1.08c-2.45-.29-1.93-1.01.69-.97 2.05.04 2.05.04 1.49-.85a6 6 0 00-1.98-1.65c-1.45-.76-1.69-1.69-.4-1.45 1.33.25 3.38 2.14 4.23 3.95 1.25 2.54.96 3.18-.8 2.05"/><path fill="#da0d10" d="M379.12 70.78c-1.53-1.77-2.41-3.58-2.41-4.91s0-1.37 2.37-.44l1.81.68-.12 2.62c-.04 1.45-.24 2.74-.4 2.9s-.72-.2-1.25-.85m16.47-2.33c-.2-.65-.44-1.33-.57-1.61-.24-.77.97-.97 2.78-.49 2.38.65 3.47 1.21 3.47 1.85 0 .85-1.13 1.1-1.82.37-.88-.89-1.69-.8-2.21.16-.6 1.13-1.17 1-1.65-.28m-9.1.2c-.77-1-.97-2.06-.44-2.42.28-.16 1.73-.32 3.18-.32 2.9 0 3.26.24 2.9 2.1-.25 1.2-.93 1.12-2.46-.25-.93-.84-.97-.84-1.53-.08-.32.44-.56.93-.56 1.13 0 .48-.65.4-1.09-.16m6.72-2.58c0-.32.2-.48.4-.36.25.12.4.4.4.64 0 .2-.15.37-.4.37-.2 0-.4-.29-.4-.65m-66.02-3.46a8 8 0 01-1.25-2.22c-.36-1.16-.6-1.32-1.81-1.32-.8 0-1.81-.2-2.26-.45a10 10 0 01-2.82-2.78c-.08-.16-1.12-.16-2.33 0-2.38.33-4.19-.16-5.2-1.32-.48-.6-.64-.6-1.8.24-1.3.92-4.56 1.2-5.96.52-.57-.24-.81-.08-1.13.73-.32.88-.65 1.04-2.01 1.04-1.94 0-2.22-.48-2.54-4.43a50 50 0 00-.52-3.9c-.2-1.13-.13-1.33.52-1.33.48 0 1.25.77 2.17 2.25 2.34 3.83 2.42 3.91 3.47 3.19 1.12-.81 1.89-4.4 1.6-7.53-.28-3.3.37-3.47 2.1-.53.97 1.61 2.46 5.88 2.46 6.93 0 .88 1.16 1.09 2 .32 1.3-1.17 2.1-4.3 1.82-6.84-.16-1.21-.16-2.22-.04-2.22 1.53 0 4.67 6.64 4.67 9.78 0 1.66.48 1.86 1.97.85 1.25-.89 2.06-2.94 2.06-5.2s.44-2.09 1.89.73c.88 1.73 1.08 2.7 1.13 5.44.04 1.8.2 3.42.32 3.54.48.48 2.3-1.05 3.1-2.66.44-.84.8-2.21.8-2.98s.16-1.49.36-1.6c.73-.49 1.45 2.45 1.45 6 0 3.1-.12 3.78-.88 4.86-1.17 1.65-2.34 1.94-3.34.89m124.48-2.01c.2-.65 4.39-1.17 4.95-.65.69.6-.64 1.13-2.94 1.13-1.57 0-2.13-.16-2-.48m-45.78-8.34c-1.98-.88-3.39-3.46-2.62-4.87.64-1.25-.6-1.05-1.85.28-.93 1-1.01 1-1.78.32-1.04-.96-1-2.41.05-3.46.8-.8 1.12-.84 3.54-.52 4.14.48 10.18.4 11.27-.2.56-.32 1.09-.37 1.29-.16.68.68-.04 1.6-1.65 2.13-1.57.52-1.57.52-1.33 2.21.2 1.5.08 1.86-.97 3.02-.96 1.1-1.53 1.33-3.18 1.45-1.08.08-2.33 0-2.77-.2m3.98-3.34c1.13-1.61.85-1.93-1.77-1.93h-2.42l.45 1.08c.72 1.94 2.7 2.38 3.74.85m33.26-1.53c0-.2.28-.4.6-.4s1.73-.97 3.14-2.18c5.15-4.34 7.49-4.59 9.74-.92.8 1.25.28 1.49-.76.32-.97-1.09-2.86-1.77-3.99-1.49-.48.12-2.17 1.29-3.7 2.66-1.97 1.69-3.14 2.41-3.9 2.41-.65 0-1.13-.16-1.13-.4m-3.75-9.14c-.28-.44.48-1.37 2.26-2.7 1.12-.88 1.65-1.04 1.97-.72.28.28.4.52.28.56-.08.08-.89.69-1.77 1.37-2.17 1.65-2.54 1.85-2.74 1.5M314.2 338.58c-.57-.97 2.61-4.7 4.66-5.43 2.38-.89.6-1.7-3.74-1.7a22 22 0 00-4.3.33c-1.5.28-1.74.24-1.74-.33 0-.84 4.15-4.95 5.31-5.27.53-.12 1.3-.44 1.78-.64 1.08-.57 4.14.24 4.46 1.16.17.37.4.8.6.93.45.28.53 2.7.17 3.87-.24.76-.12.92.84 1.16.6.16 1.5.65 1.94 1.09.92.93 2.21 2.78 2.21 3.14 0 .12-1.97.36-4.35.48-2.57.12-5.03.49-5.91.85-1.74.72-1.7.72-1.94.36m1.09-14.65c-.2-.33-1.85-.4-5.44-.29-2.85.13-5.19.09-5.19-.08 0-.12.48-.8 1.05-1.53 1.29-1.57 3.7-2.98 6.52-3.9 4.07-1.33 1.93-2.86-3.82-2.74-3.43.08-3.7 0-3.39-.6.89-1.57 3.87-3.1 8.3-4.27 2.1-.52 2.5-.56 3.3-.04a3.5 3.5 0 011.65 3.54c-.08 1-.4 1.41-1.41 1.9-1.49.68-1.65 1.04-.56 1.4 1.69.53 3.02 4.47 2.09 6.2-.52.93-2.58 1.21-3.1.4m-1.37-15.45c-1.97-1.1-5.84-1.37-7.29-.57-.44.2-1.2.37-1.69.28-.84-.12-.84-.16.33-1.28.68-.6 2.17-1.57 3.38-2.14 1.85-.88 2.53-1 5.31-.84 3.54.2 4.8.92 4.8 2.7 0 1.44-1.1 2.85-2.14 2.81-.48 0-1.7-.44-2.7-.96m77.18-35.71a14 14 0 00-1.61-5.2c-1.05-2.01-1.25-2.78-.85-2.94 1.1-.4 3.35 4.51 3.67 8.14.2 2.05.12 2.5-.37 2.5-.44 0-.68-.65-.84-2.5m4.39-2.14a18 18 0 00-1.45-4.1c-1.09-2.14-1.2-2.94-.44-2.94.52 0 2.13 3.18 2.7 5.35.68 2.66.72 3.5 0 3.5-.37 0-.65-.64-.81-1.8m3.58-.5c-.2-.96-.64-2.33-2.1-6.63q-.18-.73.41-.73c.56 0 1.97 3.26 2.54 5.84.12.68.32 1.53.44 1.93q.17.68-.44.69c-.37 0-.73-.49-.85-1.1"/><path fill="#fdfdfd" d="M474.78 270.07c-.12-.2.32-.77.97-1.29 1.6-1.25 2.77-3.14 3.62-5.92.89-2.82 1.85-3.42 1.45-.88a17 17 0 01-2.74 6.16c-.88 1.24-2.98 2.45-3.3 1.93m-1.85-4.51c0-.24.44-.8.96-1.2 1.57-1.26 3.75-5.16 4.63-8.38.89-3.26 1.1-3.59 1.61-3.02.97 1-2.17 8.7-4.59 11.4-1.44 1.56-2.61 2.13-2.61 1.2m-.4-5.36c0-.28.24-.76.56-1 .88-.73 2.13-3.99 2.9-7.57.44-2.17.88-3.34 1.25-3.34.68 0 .68.4-.25 4.23-1.12 4.7-2.85 8.25-4.02 8.25-.24 0-.44-.24-.44-.57m-107.78-67.75c.24-3.38.52-4.55 1.17-4.55.28 0 .36.8.2 2.21-.12 1.21-.12 2.22 0 2.22s1.29-.97 2.57-2.18 3.35-2.65 4.6-3.26c4.06-1.93 11.47-3.34 11.47-2.21 0 .2-.6.52-1.29.72-1.49.36-3.95 3.26-3.95 4.55 0 .65.45.48 2.98-1.25 3.83-2.61 14.34-7.32 14.34-6.44 0 .16-.29.97-.6 1.73-.53 1.3-.9 5.12-.45 5.12.32 0 4.59-4.35 5.68-5.84l1.2-1.53.33 2.13c.28 2.1 1.6 4.83 2.33 4.83.65 0 3.99-4.55 5.4-7.4a31 31 0 003.34-12c.36-4.83 1.08-4.63 1.04.28-.08 6.28-3.3 14.01-7.8 18.8l-2.02 2.13-1.37-1.57a7.5 7.5 0 01-1.65-2.7c-.16-.64-.32-1.16-.4-1.16-.56 0-5.48 5.4-5.68 6.2-.64 2.66-1.57.28-1.57-4.07 0-1.6-.12-2.94-.24-2.94-.56 0-6.36 2.54-8.33 3.67-1.17.64-3.38 2.1-4.91 3.18a27 27 0 01-3.06 2.01c-.53 0 .16-3.62 1-5.23.44-.89.85-1.7.85-1.77s-.93.08-2.06.36c-3.82 1-6.48 2.62-9.78 5.92-1.73 1.73-3.26 3.14-3.38 3.14s-.08-1.41.04-3.1m93.52-68.65c-.12-.28-.28-1.36-.4-2.45a12.4 12.4 0 00-3.14-6.56c-.8-.89-1.05-1.37-.72-1.57.68-.45 3.06 2.05 3.9 4.1.4.93.85 1.73 1.05 1.73.16 0 .28-1.29.28-2.86 0-2.09.12-2.81.52-2.7.89.33.8 4.96-.12 8.06-.84 2.74-1.08 3.18-1.37 2.25m-14.13-2c-.12-1.18-.6-3.47-1.04-5.08-.89-3.3-.93-3.7-.37-3.7.65 0 1.21 1.48 1.98 4.95l.72 3.3.85-1.7c.48-.92 1-2.7 1.12-3.9.2-1.6.45-2.25.89-2.25.48 0 .56.4.36 2.25-.28 2.54-1.77 6-3.26 7.37l-.97.92zm-13.24-.61c.16-.65.32-2.9.36-5.04.04-2.17.16-4.06.32-4.18.6-.6 1.17 2.21.97 4.95-.16 2.17-.08 2.86.28 2.7.72-.28 2.62-3.34 3.14-5.08.52-1.8 1.77-2.17 1.37-.4-.57 2.38-2.5 5.52-4.19 6.8-2.17 1.66-2.7 1.7-2.25.25M417.6 119c1.97-2.1 2.54-3.06 2.9-5.23.36-2.01 1.05-2.22 1.2-.36.09.92-.23 2.09-.88 3.34-1.13 2.1-.8 2.37 1.2 1 1.38-.96 2.99-3.38 2.99-4.5 0-.37.28-.65.6-.65 1 0 .69 1.81-.68 3.87a9.7 9.7 0 01-7.05 4.06l-1.93.2zm-9.5-3.54c0-.2.56-.56 1.2-.85 1.5-.64 3.63-2.97 3.63-4.02 0-.44.28-.8.6-.8.93 0 .73 1.68-.4 3.21-.56.77-1 1.41-1 1.45 0 .08.56-.08 1.2-.32.69-.2 1.81-1.13 2.58-1.97 1.45-1.7 1.85-1.9 1.85-.93 0 1.13-1.57 2.9-3.34 3.75s-6.32 1.2-6.32.48m16.99-7.77c-1-3.14-3.66-6-6.36-6.72-1.57-.4-1.73-1.25-.24-1.25 1.85 0 4.9 2.3 6.36 4.75l1.29 2.13.52-1.53c.68-2.1.6-7.53-.16-9.98-.53-1.53-.57-2.05-.16-2.3 1.29-.8 2.61 6.16 1.93 10.23-.4 2.5-1.9 6.36-2.46 6.36-.12 0-.44-.76-.72-1.69m11.43-4.03c-.12-.28-.28-1.04-.44-1.73-.76-3.5-4.35-8.65-6.04-8.65a.6.6 0 01-.6-.6c0-.81.76-.77 2.3.2 1.64.96 3.41 3.42 4.58 6.23.53 1.21 1.05 2.22 1.2 2.22s.53-1.05.81-2.3c.57-2.9.29-7.2-.76-10.3-.48-1.37-.64-2.42-.4-2.54.68-.44 1.08.36 1.93 3.62.97 3.83 1.05 7.37.16 10.35-.97 3.3-2.3 5-2.74 3.5m-135.83-.56q-3.7-.97-3.7-1.77c0-.77.72-.77 2.25 0 2.13 1.13 5.63 1.09 8.05-.08 1.05-.48 2.9-1.81 4.19-3.02 2.45-2.26 2.81-2.46 2.81-1.57 0 .92-4.3 4.67-6.52 5.64-2.86 1.28-4.55 1.44-7.08.8m143.44-11.2c-1.45-2.2-3.82-4.26-4.91-4.26-.28 0-.52-.28-.52-.6 0-1.53 3.14.04 5.43 2.73l1.41 1.65v-2.2c0-2.75-.84-5.93-2.17-8.18l-1-1.73.8-.89c.88-.93 2.21-1.05 4.34-.44.77.2 1.5.32 1.57.2.49-.48-2.25-3.62-3.62-4.19-1.45-.6-2.1-1.65-1-1.65 1.08.04 3.74 1.9 4.79 3.42 1.08 1.57 2.85 5.88 2.53 6.2-.12.08-.8-.4-1.57-1.08-1.65-1.45-4.15-2.3-5.64-1.94l-1 .25.96 1.45c1.41 2.05 1.86 3.82 2.1 8.2.16 2.95.08 4-.4 4.6-.53.72-.65.64-2.1-1.53M384.8 85.8a11 11 0 01-1.65-2.18c0-.28 3.06-1.2 3.9-1.2.16 0 .24 1.16.2 2.61-.08 1.45-.28 2.62-.48 2.62s-1.09-.85-1.97-1.85m8.25-1.9c-2.33-2.49-2.13-2.7 2.98-3.25 2.66-.29 3.26.08 2.66 1.53l-.48 1.2-1.1-1.16c-.56-.65-1.12-1.1-1.24-1.01-.08.12-.44 1.13-.76 2.21l-.57 2.02zm-4.35-.84c-.68-.93-.68-.97.33-1.2 1.28-.37 1.32-.29 1.08 1.08-.24 1.33-.52 1.33-1.4.12m14.77-.32c-1.41-.89-1.81-1.33-1.33-1.45.93-.2 4.83 1.53 4.63 2.1-.28.84-1.33.64-3.3-.65m46.9-10.1a9 9 0 00-3.22-1.1c-2.45-.28-1.93-1 .69-.96 2.05.04 2.05.04 1.49-.85a6 6 0 00-1.98-1.65c-1.45-.76-1.69-1.69-.4-1.45 1.33.25 3.38 2.14 4.23 3.95 1.25 2.54.96 3.18-.8 2.05m-57.18-6.56c0-.32.2-.48.4-.36.25.12.4.4.4.64 0 .2-.15.37-.4.37-.2 0-.4-.29-.4-.65m58.46-5.47c.2-.65 4.39-1.17 4.95-.65.69.6-.64 1.13-2.94 1.13-1.57 0-2.13-.16-2-.48m-45.78-8.34c-1.98-.88-3.39-3.46-2.62-4.87.64-1.25-.6-1.05-1.85.28-.93 1-1.01 1-1.78.32-1.04-.96-1-2.41.05-3.46.8-.8 1.12-.84 3.54-.52 4.14.48 10.18.4 11.27-.2.56-.32 1.09-.37 1.29-.16.68.68-.04 1.6-1.65 2.13-1.57.52-1.57.52-1.33 2.21.2 1.5.08 1.86-.97 3.02-.96 1.1-1.53 1.33-3.18 1.45-1.08.08-2.33 0-2.77-.2m3.98-3.34c1.13-1.61.85-1.93-1.77-1.93h-2.42l.45 1.08c.72 1.94 2.7 2.38 3.74.85m33.26-1.53c0-.2.28-.4.6-.4s1.73-.97 3.14-2.18c5.15-4.34 7.49-4.59 9.74-.92.8 1.25.28 1.49-.76.32-.97-1.09-2.86-1.77-3.99-1.49-.48.12-2.17 1.29-3.7 2.66-1.97 1.69-3.14 2.41-3.9 2.41-.65 0-1.13-.16-1.13-.4m-3.75-9.14c-.28-.44.48-1.37 2.26-2.7 1.12-.88 1.65-1.04 1.97-.72.28.28.4.52.28.56-.08.08-.89.69-1.77 1.37-2.17 1.65-2.54 1.85-2.74 1.5m-48.31 234.5a14 14 0 00-1.61-5.19c-1.05-2.01-1.25-2.78-.85-2.94 1.1-.4 3.35 4.51 3.67 8.14.2 2.05.12 2.5-.37 2.5-.44 0-.68-.65-.84-2.5m4.39-2.14a18 18 0 00-1.45-4.1c-1.09-2.14-1.2-2.94-.44-2.94.52 0 2.13 3.18 2.7 5.35.68 2.66.72 3.5 0 3.5-.37 0-.65-.64-.81-1.8m3.58-.5c-.2-.96-.64-2.33-2.1-6.63q-.18-.73.41-.73c.56 0 1.97 3.26 2.54 5.84.12.68.32 1.53.44 1.93q.17.68-.44.69c-.37 0-.73-.49-.85-1.1"/></svg>