<svg xmlns="http://www.w3.org/2000/svg" xmlns:xlink="http://www.w3.org/1999/xlink" viewBox="0 0 647.62 432"><path fill="#00f" stroke="#000" stroke-width="3" d="M1.5 1.5v429h644.6V1.5z"/><path fill="#fff" fill-rule="evenodd" d="M384.76 197.36a60.6 60.6 0 11-121.14 0 60.6 60.6 0 11121.14 0"/><path fill="#00f" d="M309.1 239c-13.9.2-18.3-10.2-17.8-17.4.8-11.5 13.2-19.6 17.6-30.1 4.7 11.1 16.1 18 17.3 30.8.6 8-3.1 16.6-17.1 16.7"/><path fill="#00f" d="M320 239.7c4-.3 12.1-5.2 10.7-18.1-1.8-17.4-20.2-25.3-19.8-41.2.3-10.1 16.4-28.4 16.4-28.4-6.4 30.1 33.9 31.7 33.3 61.2-.7 28.9-33.1 26.8-40.6 26.5"/><path id="a" fill="#fff" fill-opacity="1" stroke="none" d="M273.8 275.8c-47.9-32.3-55.7-74.4-34.4-116.1 18.3-35.9-25-46.3-28.8-56.6-4 11.4-16.7 22.7-25.7 27l6 14.4c6.1-8.3 26.7-18.1 26.8 0 .1 26.5-44.5 34-45 83.9-.2 27.6 27.4 48.8 39.4 47.4z" display="inline"/><use xlink:href="#a" width="348" height="460" transform="matrix(-1 0 0 1 646 .1)"/><path fill="#fff" d="M324.4 351.3c-14.7 12.3-31.6 11.9-45.6 0-14.7 12.3-31.7 11.9-45.8 0-14.7 12.3-31.7 11.9-45.7 0-14.7 12.3-31.9 11.9-45.8 0-14.7 12.3-31.8 11.9-47.14 0-14.77 12.3-31.8 11.9-45.76 0-14.76 12.3-31.69 11.9-45.6 0v-10.7c17.99 8.1 35.35 6.4 53.41 0 18.03 8.1 35.41 6.4 54.79 0 18.2 8.1 35.5 6.4 53.5 0 18.1 8.1 35.5 6.4 53.5 0 18 8.1 35.4 6.4 53.5 0 18 8.1 34.7 6.4 52.7 0 18 8.1 35.4 6.4 53.5 0 18 8.1 35.3 6.4 53.4 0 18.1 8.1 35.4 6.4 53.4 0 18.2 8.1 35.5 6.4 53.5 0 18.1 8.1 35.5 6.4 53.5 0 18.1 8.1 34.7 6.4 52.9 0v10.7c-14.9 12.3-31.8 11.9-45.7 0-14.8 12.3-31.8 11.9-45.9 0-14.7 12.3-31.7 11.9-45.7 0-14.7 12.3-31.8 11.9-45.8 0-14.7 12.3-31.7 11.9-45.7 0-14.8 12.3-31.8 11.9-45.8 0-14.7 12.3-31.6 11.9-45.6 0"/></svg>