<svg xmlns="http://www.w3.org/2000/svg" viewBox="0 0 1290 860"><g fill="#0080ff"><path d="M0 0h1290v652.82c-5.81 3.29-12.58 5-17.57 9.61-3.87 3.05-8.88 4.19-12.71 7.28-4.46 3.9-10.3 5.54-15.17 8.81a104 104 0 01-24.39 9.8c-5.01 1.78-10.37 2.02-15.45 3.48-4.55 1.31-9.2 2.2-13.78 3.38-7.51 1.9-15.32.74-22.92 1.83-13.28 1.5-26.64 1.77-39.99 1.51-11.38-.02-22.64-1.96-34.01-2.14-7.98.22-15.64-2.29-23.33-3.99-14.35-3.93-28.74-7.88-42.49-13.62-9.22-4.5-18.81-8.22-27.88-13.04a50 50 0 00-10.2-4.8c-8.92-2.95-16.86-8.14-25.76-11.15-8.05-5.34-17-9.09-25.52-13.6a277 277 0 00-14.13-6.78c-7.06-3.86-14.14-7.74-21.73-10.44-4.01-1.22-6.9-4.48-10.69-6.14-8.37-4.7-18.33-5.51-26.53-10.53-4.55-2.29-9.61-3.4-14.1-5.84-7.76-3.15-15.82-5.48-23.71-8.23-8.23-2.77-16.72-4.9-24.57-8.69-6.6-2.89-13.68-4.5-20.11-7.78-13.39-4.53-27.09-8.12-40.52-12.55-4.68-1.62-9.74-.66-14.44-2.12-4.75-1.5-9.76-1.81-14.52-3.17-7.98-2.57-16.43-3.38-24.77-3.37-14.01-.32-28.02-.13-42.02-.85-12.67-.71-25.32.78-37.99.59-8.97.1-17.94.17-26.9.5a423 423 0 00-39.46 5.93c-10.18 1.01-19.8 4.83-29.91 6.2-4.22.55-8.25 1.98-12.42 2.8-7.95 1.53-14.89 6.01-22.69 8.02-6.79 1.68-12.86 5.31-19.45 7.54-2.75 1.07-5.86 1.7-7.92 4-3.98 4.25-10.08 4.79-15.19 6.95-10.83 6.12-23.27 8.45-34.65 13.27-5.35 2.01-9.35 6.5-14.9 8.03-7.03 2.66-13.63 6.28-20.21 9.88-10.7 4.76-20.97 10.4-31.51 15.49-3.13 1.41-5.67 3.82-8.8 5.19-9.62 3.38-18.28 8.94-28.05 11.94-8.92 4.43-17.69 9.21-26.97 12.9-16.71 8.47-34.98 13.13-52.95 18.07-6.3 1.22-12.49 3.38-18.98 3.35-12.39.04-24.67 2.23-37.06 2.2q-8.99.18-17.96-.13c-10.73.15-21.33-2.01-32.06-2.04-9.94.3-19.4-3.25-28.97-5.38a111 111 0 01-27.03-7.83c-7.38-3.02-14.03-7.48-21.21-10.91a53 53 0 00-11.76-7.16c-3.92-1.51-6.5-5.08-10.35-6.69-3.91-1.9-7.89-3.67-11.64-5.87zm848.59 40.67c-2.01 4.34-2.53 9.19-4.43 13.58-3.49 8.4-8 16.35-13.05 23.9-6.13 8.17-13.16 15.6-20.2 22.99q-2.94-.29-5.85-.71c-10.09 9.15-18.85 20.15-31.27 26.36-12.23 5.77-22.4 14.84-33.28 22.7-4.31 2.99-6.93 7.76-8.35 12.71-2.09 6.48-4.53 12.89-5.43 19.68-1.2 5.71.25 11.52 1.25 17.16.71 4.33 4.88 6.42 7.47 9.5 3.29 5.35 4.26 13.47-.81 18.07-3.31 3.65-9.06 2.93-13.05.88-9.17-4.53-19.34-6.49-28.74-10.36-2.88-2.9-3.31-7.44-4.81-11.14-5.55-15.26-11.88-30.43-21.24-43.8-6.62-9.29-12.5-19.25-20.74-27.25-4.08-3.94-8.01-8.05-12.51-11.52-1.16-1.1-3.18-2.27-2.41-4.17 1.51-2.21 3.42-4.11 5.02-6.26q-1.03-2.9-2.03-5.81c-2.27 1.18-4.35 3.16-7.05 3.15-3.36-.13-6.82-.17-10.02-1.35-8.75-3.22-17.45-6.59-26.21-9.81-6.7-2.13-14.01-4.4-21.01-2.34-2.94.73-4.83 3.26-6.53 5.56a8.6 8.6 0 01-6.32 1.55c-5.4-.61-11.07-1.14-16.25.89-5.05 2.95-7.67 9.11-7.34 14.83 2.46-.54 4.88-1.52 7.44-1.54a34 34 0 018.71 4.74c-2.97-.71-5.82-1.82-8.7-2.79.89 2.65 1.61 5.47 3.33 7.75 5.82 5.9 14.74 6.13 21.4 10.61 5.62 3.47 12.33 4.1 18.65 5.47 4.37.88 7.55 4.28 10.97 6.88 5.25 3.94 8.78 9.66 11.56 15.51 4.73 9.76 5.19 21.01 4.14 31.63-1.96 8.44-8.88 14.36-14.3 20.69-2.59 3.37-7.05 3.44-10.88 4.05-6.6.81-12.82 3.31-19.29 4.71-4.31 1.08-9.31 1.11-12.82-1.99-3.35-2.76-2.83-7.5-2.49-11.36.8-5.94 7.35-8.64 8.53-14.4 1.16-4.43 2.61-9.1 1.47-13.68-3.19-16.34-12.94-30.83-25.17-41.87-10.55-9.27-23.51-15.08-34.92-23.14-8.1-5.53-11.98-14.88-17.79-22.44-1.96 1.09-3.87 3.81-6.37 2.6-3.72-1.66-6.35-4.97-9.12-7.85-5.65-6.66-12.25-12.53-17.07-19.88-4.98-7.67-10.52-15.3-12.58-24.38-1.15-3.17-1.38-7.71-5.19-8.87-2.04.23-3.39 2.06-3.88 3.91a81 81 0 00-3.4 15.98c-.3 8.26 2.56 16.16 3.64 24.25-3.17-.96-6.24-2.22-9.41-3.15.58 4.96 2.37 9.65 3.55 14.48 1.97 6.62 3.67 13.34 6.18 19.79 1.85 4.78 5.56 8.63 6.88 13.64q-3.3-.29-6.56-.71c1.15 5.2 3.18 10.15 4.41 15.33a65 65 0 006.51 16.56c2.72 4.96 7.09 8.71 10.14 13.44-4.03.75-8.07 1.45-12.15 1.74 1.16 3.23 2.48 6.46 4.61 9.2 2.87 4.11 7.03 7.34 8.95 12.08-3.41.66-6.83 1.29-10.2 2.16 1.87 4.13 4.28 8.14 7.92 10.95 1.41.97 2.08 2.52 2.55 4.11-3.33 2.24-6.46 4.8-10.06 6.59-3.65 1.9-7.69 3.73-9.75 7.52 4.95 6.13 13.2 7.58 18.78 12.92-1.43 2.13-2.97 4.17-4.51 6.22 3.37 5.57 9.27 8.81 14.73 12 5.13 2.16 10.79 2.62 16.27 3.27-.11 4.25-1.7 8.27-1.96 12.5-.38 7.37-.8 14.77.31 22.1 2.95.46 5.94.66 8.93.7 2.28 7.18 4.07 14.64 3.56 22.23 5.18.28 9.93-1.96 14.8-3.33.75 5.11 1.17 10.24 1.35 15.4 6.39-.99 12.6-2.84 18.94-4.1 5.19-.32 10.37-.84 15.58-.91-2.28 4.18-6.11 7.4-7.67 12a58 58 0 00-3.33 16.05c.25 4.3 1.67 8.41 2.87 12.52 2.73 8.27 5.38 16.66 9.61 24.33 2.51 4.7 6.86 7.99 11.31 10.74a7.2 7.2 0 013.44 5.49c.45 3.87.59 7.84-.11 11.69-1.37 3.61-4.55 6.07-7.36 8.54-3.31 2.68-6.19 5.99-10.09 7.87-7.4 4-16.12 3.52-24.26 3.93-4.43.45-9.21.3-13.07 2.85-3.93 2.62-9.26 1.86-12.93 4.99-2.78 2.31-2.64 6.27-3.64 9.46-.71 3.89-4.63 6.44-4.63 10.57.16 3.23.91 7.58 4.72 8.26.65-2.5 1.14-5.09 2.39-7.38 1.27-.75 2.79-.87 4.21-1.22.63 5.09.96 10.2.88 15.33.9 3.93 5.36 6.24 9.2 6.16-.84-2.57-1.85-5.09-2.37-7.75 2.48-.91 5.32-1.4 7.17-3.46 2.41-2.5 4.61-5.2 7.29-7.42.67 1.71 1.27 3.47 2.26 5.05 2.36 2.73 6.57 3.33 8.42 6.58.13 2.9-1.53 5.99.64 8.53q5.16-5.31 10.2-10.73c-1.36-6.12-.79-12.49.58-18.56 5.9-3.4 12.87-4.57 19.33-6.66 5.26-1.19 8.93-5.83 14.28-6.78 4.06-1.26 9.36-1.05 11.9-5.05 2.79-5.05 1.96-10.98.75-16.34-1.45-6.39-.74-13.49 3.62-18.63 1.53 1.42 3.68 2.75 3.71 5.1 1.37 13.33-5.38 27.72 1.86 40.16-.77 9.42 1.87 18.73 5.69 27.25 1.88 4.55 6.86 6.72 8.77 11.22 2.18 4.6 4.48 9.29 8.15 12.92 3.52 3.61 8.03 6.01 12.14 8.84 2.22 2.92 4.24 6.02 6.94 8.55l1.19 1.5c5.02 3.93 8.06 9.58 12.23 14.28 3.08-2.89 6.62-5.7 8-9.86.95-2.79 2.27-5.48 4.47-7.52 2.75-2.62 4.05-6.61 7.56-8.42 5.23-2.97 9.1-7.81 11.97-13.01 1.64-2.64 2.8-5.85 5.67-7.43 5.07-3.11 9.98-7.07 12.25-12.75 5.39-13.5 5.79-28.41 4.43-42.7-.22-9.22-.99-18.44-2.99-27.45-.05-1.81-1.3-4.44.84-5.46a21 21 0 017.64-3.57c1.3 4.59 2.98 9.38 1.97 14.21-1.47 5.91-3.84 11.84-3.57 18 1.84 6.47 8.05 10.76 14.11 12.97 12.28 6.24 25.35 11.03 38.89 13.69-1.09 3.63-3.46 6.79-4.18 10.52.49 2.41 1.96 4.53 2.24 7-.73 2.13-2.71 3.46-4.21 5.02 3.88-.07 7.82.32 11.68-.29 3.01-2.41 5.68-5.61 9.32-7.03 2.02 1.38 3.53 3.36 5.46 4.86 2 1.34 4.33 2.05 6.54 2.99-.4 2.68-.98 5.32-1.43 7.99 3.69-1.04 8.41-1.89 9.98-5.94 1.4-4.62-1.56-9.04-1.78-13.63 2.45-.04 4.91.17 7.24 1.01q-.06 3.7-.07 7.4c3-2.18 6.32-4.01 8.94-6.67 2.11-5.08-.09-10.69-2.06-15.46-2.07-5.68-7.38-9.72-13.24-10.82-3.59-.53-5.58-3.94-8.79-5.2-10.52-3.18-22.24-.56-32.24-5.7-6.02-2.98-12.47-5.26-18.04-9.04-3.69-4.52-2.56-10.89-2.19-16.27 1.26-5.48 2.39-12.16 7.76-15.16a25 25 0 013.5 7.68l2.09.03c.97-3 1.33-6.28 3.14-8.93 4.86-6.71 7.23-14.81 9.39-22.71 2.69-11.26.25-23.24-4.83-33.47-1.57-6.74-7.8-11.26-8.72-18.19 7.6 2.56 14.19 7.41 21.61 10.43q.75-1.83 1.57-3.63c4.52 3.69 10.31 4.7 15.85 5.91.52-6.59 1.38-13.15 1.24-19.77 5.7 1.32 10.64 4.64 16.24 6.26 1.13-7.55.94-15.2 2.04-22.75 5.51.41 10.9 1.77 16.37 2.51-2.41-12.67-5.47-25.36-5.66-38.32 6.09-2.87 13.19-2.76 19.05-6.2 3.84-2.21 7.5-4.71 11.23-7.09-2.47-2.02-5.19-3.78-7.23-6.27 8.05-2.58 13.16-9.67 17.36-16.56-4.68-3.07-9.97-5.68-13.47-10.14.62-2.48 2.37-4.52 2.98-7.01a37 37 0 001.01-9.57q-4.1-.9-8.19-1.68c4.65-4.61 8.37-10.48 8.53-17.23q-3.3-.87-6.58-1.7c1.06-4.11 4.26-7.08 6.53-10.52 5.75-7.86 9.38-17.06 11.6-26.5.51-2.51 1.58-5.2.46-7.71-.88-2.76-4.41-2.33-6.63-3.04.12-1.47.09-3.02.94-4.31 3.72-6.34 7.27-12.79 10.82-19.23 3.74-6.8 4.32-14.7 5.64-22.2-2.76.45-5.54.81-8.32.94 1.35-9.62 5.98-18.99 4.25-28.88-.86-4.25-1.45-8.7-3.46-12.59-2.19-2.76-7.64-4.59-9.84-.93m38.81 247.67c-3.08 8.14-8.1 15.31-12.42 22.81-2.55-.11-5.11-.13-7.61-.6-8.39-1.75-16.83-3.2-25.25-4.7 2.36 10.21 5.43 20.31 6.54 30.77-4.33 3.75-9.17 6.86-13.87 10.13-3.68 2.63-8.17 3.94-11.57 6.99q12.45 8.05 24.77 16.27c1.62 1 .88 3.19.77 4.73-1.86 8.96-4.14 17.84-5.46 26.9 6.52-2.33 13.18-4.32 20.06-5.28 4.32-.3 9.93-1.63 13.16 2.11 5.01 7.38 8.02 16.2 14.55 22.5 5.93-8.93 10.93-18.8 19.2-25.88 2.5-.22 4.9.77 7.29 1.38 6.32 2.01 13.09 2.87 18.89 6.29 1.07.82 2.67.63 3.09-.8-1.48-8.44-4.77-16.43-6.74-24.75-.41-1.9-1.07-3.88-.61-5.82 3.42-4.11 8.14-6.76 12.62-9.55 4.79-3.16 10.71-5.39 13.31-10.93-7.26-3.27-14.62-6.4-21.34-10.7-1.79-1.25-4.28-2.56-3.97-5.14.15-10.83 4.43-21.03 6.6-31.54-9.01 2.8-18.28 4.57-27.52 6.33-2.18.19-5.1.92-6.33-1.47-5.31-7.63-9.91-15.73-14.71-23.68-1.35 1-2.93 1.93-3.45 3.63m-491.18-1.79c-5.35 9.09-10.38 18.38-15.57 27.56-11.25-1.6-21.95-5.84-33-8.36 2.02 11.85 7.42 23.04 7.59 35.21-6.03 2.95-11.49 6.92-17.6 9.71a24 24 0 00-7.62 5.5l.33 1.32c9.19 4.59 17.46 10.77 25.92 16.55-.64 10.43-4.55 20.3-6.75 30.45 8.59-1.42 16.89-4.19 25.51-5.45 2.46-.22 5.68-.73 7.32 1.62 2.64 3.83 4.56 8.1 6.77 12.18 2.35 4.36 4.29 9.24 8.36 12.34 6.03-9.04 11.83-18.22 17.86-27.26 10.89 1.71 21.67 4.35 32.32 7.25-3.5-8.55-6.1-17.44-8.38-26.39-.22-2.15-1.3-5.14.97-6.55 7.88-6.46 18.09-9.36 25.6-16.36a36 36 0 00-7.88-4.82c-5.58-2.61-10.9-5.74-16.3-8.7-1.15-.86-3.25-1.53-2.94-3.33.28-10.89 4.92-21.04 6.35-31.77-6.83 2.3-13.98 3.33-21.02 4.77-3.27.63-6.58 1.33-9.91 1.05-1.38-.17-1.75-1.79-2.54-2.69q-5.8-9.7-11.56-19.4a19 19 0 00-3.83-4.43"/><path d="M833.4 356.51c-1.85 1.93-2.98-2.81-.53-1.37zm-204.96 257c10.52-.54 21.08-.07 31.62-.21 25.16 1.37 49.74 7.87 73.4 16.3 13.3 3.99 25.24 11.44 36.39 19.55 14.21 10.8 27.19 24.25 33.88 41.06 1.98 4.29 2.7 9 4.5 13.36.39 5.36.16 10.77.13 16.15-2.83 10.98-6.03 22.1-11.65 32.05-6.12 8.69-13.51 16.43-21.07 23.88a136 136 0 01-45.84 29.3c-24.32 9.3-50.07 14.59-75.97 16.77-10.57.63-21.25 1.66-31.76-.11-13.44-2.22-27.02-3.76-40.2-7.32-18.22-4.72-36.35-10.83-52.45-20.74-8.39-5.02-14.97-12.32-21.87-19.11-7.34-7.54-14.48-15.62-18.71-25.38-6.75-13.98-8.04-30.09-4.98-45.2.93-8.25 5.32-15.46 9.73-22.28 4.84-7.31 10.23-14.32 16.71-20.28 7.24-6.92 15.06-13.39 24.02-17.99 8.66-4.46 17.6-8.34 26.47-12.35 8.68-3.98 17.99-6.23 27.14-8.82 13.34-3.58 26.73-7.23 40.51-8.63m11.51 11.48c-5.86 5.85-10.75 12.56-16.09 18.87a118 118 0 01-9.73-3.02c-7.45-2.85-15.33-4.23-23.02-6.22-4.28 9.61-7.02 20.1-6.23 30.69-7.09-.83-13.95-3-21.05-3.68-1.65 7.59-1.62 15.42-3.17 23.03-5.95-.7-11.87.05-17.58 1.77-.03 3.53.11 7.08.21 10.62.16 5.03 2.65 9.56 3.66 14.42-5.28.9-10.66.56-15.94 1.38.01 9.22 2.57 18.18 5.2 26.95 1.65 5.91 5.05 11.1 7.24 16.8 5.36 9.87 14.28 17.07 22.39 24.6a75.7 75.7 0 0039.15 18.89c12.88 2.1 25.95 3.49 39.02 2.96 5.37-.17 10.68 1.2 16.07.7 6.51-.64 13.12-.81 19.49-2.44a154 154 0 0023.6-8.08c6.72-2.84 12.45-7.46 18.43-11.56 7.33-5.07 12.19-12.71 16.99-20.02 2.28-4.9 6.23-8.81 8.13-13.89 2.31-5.84 3.99-11.91 6.34-17.73 2.82-7.09 5.61-14.47 5.35-22.23-4.01.03-8.01.36-12.02.55 2.06-8.63 5.89-17.02 4.96-26.11-7.66-.39-15.31-.77-22.98-.66a235 235 0 00-2.46-23.54c-7.72 1.01-15.32 2.78-23.03 3.82-1.37-5.68-1.82-11.51-2.67-17.27-1.37-5.51-2.1-11.14-2.86-16.75q-5.85 2.5-11.8 4.68c-8.2 3.51-15.87 8.13-23.79 12.22-4.82-7.49-8.57-16.1-15.81-21.66-2.07-1.7-4.43.6-6 1.91"/></g><g fill="#4a4e24"><path d="M848.59 40.67c2.2-3.66 7.65-1.83 9.84.93 2.01 3.89 2.6 8.34 3.46 12.59 1.73 9.89-2.9 19.26-4.25 28.88 2.78-.13 5.56-.49 8.32-.94-1.32 7.5-1.9 15.4-5.64 22.2-3.55 6.44-7.1 12.89-10.82 19.23-.85 1.29-.82 2.84-.94 4.31 2.22.71 5.75.28 6.63 3.04 1.12 2.51.05 5.2-.46 7.71-2.22 9.44-5.85 18.64-11.6 26.5-2.27 3.44-5.47 6.41-6.53 10.52q3.28.83 6.58 1.7c-.16 6.75-3.88 12.62-8.53 17.23q4.1.78 8.19 1.68c.07 3.22-.25 6.44-1.01 9.57-.61 2.49-2.36 4.53-2.98 7.01 3.5 4.46 8.79 7.07 13.47 10.14-4.2 6.89-9.31 13.98-17.36 16.56 2.04 2.49 4.76 4.25 7.23 6.27-3.73 2.38-7.39 4.88-11.23 7.09-5.86 3.44-12.96 3.33-19.05 6.2.19 12.96 3.25 25.65 5.66 38.32-5.47-.74-10.86-2.1-16.37-2.51-1.1 7.55-.91 15.2-2.04 22.75-5.6-1.62-10.54-4.94-16.24-6.26.14 6.62-.72 13.18-1.24 19.77-5.54-1.21-11.33-2.22-15.85-5.91q-.81 1.8-1.57 3.63c-7.42-3.02-14.01-7.87-21.61-10.43.92 6.93 7.15 11.45 8.72 18.19 5.08 10.23 7.52 22.21 4.83 33.47-2.16 7.9-4.53 16-9.39 22.71-1.81 2.65-2.17 5.93-3.14 8.93l-2.09-.03a25 25 0 00-3.5-7.68c-5.37 3-6.5 9.68-7.76 15.16-.37 5.38-1.5 11.75 2.19 16.27 5.57 3.78 12.02 6.06 18.04 9.04 10 5.14 21.72 2.52 32.24 5.7 3.21 1.26 5.2 4.67 8.79 5.2 5.86 1.1 11.17 5.14 13.24 10.82 1.97 4.77 4.17 10.38 2.06 15.46-2.62 2.66-5.94 4.49-8.94 6.67q.01-3.7.07-7.4a20 20 0 00-7.24-1.01c.22 4.59 3.18 9.01 1.78 13.63-1.57 4.05-6.29 4.9-9.98 5.94.45-2.67 1.03-5.31 1.43-7.99-2.21-.94-4.54-1.65-6.54-2.99-1.93-1.5-3.44-3.48-5.46-4.86-3.64 1.42-6.31 4.62-9.32 7.03-3.86.61-7.8.22-11.68.29 1.5-1.56 3.48-2.89 4.21-5.02-.28-2.47-1.75-4.59-2.24-7 .72-3.73 3.09-6.89 4.18-10.52-13.54-2.66-26.61-7.45-38.89-13.69-6.06-2.21-12.27-6.5-14.11-12.97-.27-6.16 2.1-12.09 3.57-18 1.01-4.83-.67-9.62-1.97-14.21a21 21 0 00-7.64 3.57c-2.14 1.02-.89 3.65-.84 5.46 2 9.01 2.77 18.23 2.99 27.45 1.36 14.29.96 29.2-4.43 42.7-2.27 5.68-7.18 9.64-12.25 12.75-2.87 1.58-4.03 4.79-5.67 7.43-2.87 5.2-6.74 10.04-11.97 13.01-3.51 1.81-4.81 5.8-7.56 8.42-2.2 2.04-3.52 4.73-4.47 7.52-1.38 4.16-4.92 6.97-8 9.86-4.17-4.7-7.21-10.35-12.23-14.28q2.04-.17 4.12-.29c-2.15-7.68-5.45-15.12-5.86-23.18-2.49-17.81.71-35.7.8-53.56-4.26 3.9-7.48 8.73-11.23 13.08-2.3 2.56-1.68 6.25-1.9 9.41-.48 12.66-.67 26.2 5.87 37.53 1.93 5.96 5.98 10.76 9.1 16.09l-2.09-.58c-2.7-2.53-4.72-5.63-6.94-8.55-4.11-2.83-8.62-5.23-12.14-8.84-3.67-3.63-5.97-8.32-8.15-12.92-1.91-4.5-6.89-6.67-8.77-11.22-3.82-8.52-6.46-17.83-5.69-27.25-7.24-12.44-.49-26.83-1.86-40.16-.03-2.35-2.18-3.68-3.71-5.1-4.36 5.14-5.07 12.24-3.62 18.63 1.21 5.36 2.04 11.29-.75 16.34-2.54 4-7.84 3.79-11.9 5.05-5.35.95-9.02 5.59-14.28 6.78-6.46 2.09-13.43 3.26-19.33 6.66-1.37 6.07-1.94 12.44-.58 18.56a688 688 0 01-10.2 10.73c-2.17-2.54-.51-5.63-.64-8.53-1.85-3.25-6.06-3.85-8.42-6.58-.99-1.58-1.59-3.34-2.26-5.05-2.68 2.22-4.88 4.92-7.29 7.42-1.85 2.06-4.69 2.55-7.17 3.46.52 2.66 1.53 5.18 2.37 7.75-3.84.08-8.3-2.23-9.2-6.16.08-5.13-.25-10.24-.88-15.33-1.42.35-2.94.47-4.21 1.22-1.25 2.29-1.74 4.88-2.39 7.38-3.81-.68-4.56-5.03-4.72-8.26 0-4.13 3.92-6.68 4.63-10.57 1-3.19.86-7.15 3.64-9.46 3.67-3.13 9-2.37 12.93-4.99 3.86-2.55 8.64-2.4 13.07-2.85 8.14-.41 16.86.07 24.26-3.93 3.9-1.88 6.78-5.19 10.09-7.87 2.81-2.47 5.99-4.93 7.36-8.54.7-3.85.56-7.82.11-11.69a7.2 7.2 0 00-3.44-5.49c-4.45-2.75-8.8-6.04-11.31-10.74-4.23-7.67-6.88-16.06-9.61-24.33-1.2-4.11-2.62-8.22-2.87-12.52a58 58 0 013.33-16.05c1.56-4.6 5.39-7.82 7.67-12-5.21.07-10.39.59-15.58.91-6.34 1.26-12.55 3.11-18.94 4.1-.18-5.16-.6-10.29-1.35-15.4-4.87 1.37-9.62 3.61-14.8 3.33.51-7.59-1.28-15.05-3.56-22.23a64 64 0 01-8.93-.7c-1.11-7.33-.69-14.73-.31-22.1.26-4.23 1.85-8.25 1.96-12.5-5.48-.65-11.14-1.11-16.27-3.27-5.46-3.19-11.36-6.43-14.73-12 1.54-2.05 3.08-4.09 4.51-6.22-5.58-5.34-13.83-6.79-18.78-12.92 2.06-3.79 6.1-5.62 9.75-7.52 3.6-1.79 6.73-4.35 10.06-6.59-.47-1.59-1.14-3.14-2.55-4.11-3.64-2.81-6.05-6.82-7.92-10.95 3.37-.87 6.79-1.5 10.2-2.16-1.92-4.74-6.08-7.97-8.95-12.08-2.13-2.74-3.45-5.97-4.61-9.2 4.08-.29 8.12-.99 12.15-1.74-3.05-4.73-7.42-8.48-10.14-13.44a65 65 0 01-6.51-16.56c-1.23-5.18-3.26-10.13-4.41-15.33q3.26.42 6.56.71c-1.32-5.01-5.03-8.86-6.88-13.64-2.51-6.45-4.21-13.17-6.18-19.79-1.18-4.83-2.97-9.52-3.55-14.48 3.17.93 6.24 2.19 9.41 3.15-1.08-8.09-3.94-15.99-3.64-24.25a81 81 0 013.4-15.98c.49-1.85 1.84-3.68 3.88-3.91 3.81 1.16 4.04 5.7 5.19 8.87 2.06 9.08 7.6 16.71 12.58 24.38 4.82 7.35 11.42 13.22 17.07 19.88 2.77 2.88 5.4 6.19 9.12 7.85 2.5 1.21 4.41-1.51 6.37-2.6 5.81 7.56 9.69 16.91 17.79 22.44 11.41 8.06 24.37 13.87 34.92 23.14 12.23 11.04 21.98 25.53 25.17 41.87 1.14 4.58-.31 9.25-1.47 13.68-1.18 5.76-7.73 8.46-8.53 14.4-.34 3.86-.86 8.6 2.49 11.36 3.51 3.1 8.51 3.07 12.82 1.99 6.47-1.4 12.69-3.9 19.29-4.71 3.83-.61 8.29-.68 10.88-4.05 5.42-6.33 12.34-12.25 14.3-20.69 1.05-10.62.59-21.87-4.14-31.63-2.78-5.85-6.31-11.57-11.56-15.51-3.42-2.6-6.6-6-10.97-6.88-6.32-1.37-13.03-2-18.65-5.47-6.66-4.48-15.58-4.71-21.4-10.61-1.72-2.28-2.44-5.1-3.33-7.75 2.88.97 5.73 2.08 8.7 2.79a34 34 0 00-8.71-4.74c-2.56.02-4.98 1-7.44 1.54-.33-5.72 2.29-11.88 7.34-14.83 5.18-2.03 10.85-1.5 16.25-.89a8.6 8.6 0 006.32-1.55c.2 2.34 1.54 4.68 3.99 5.21 3.3.02 6.36-1.54 9.63-1.78 8.03 1.6 15.56 5.13 23.65 6.52 6.21 1.09 12.48 1.94 18.65 3.29 4.41.64 10.03 1.5 13.2-2.45-5.37-.71-10.98-.27-16.05-2.52-9.06-3.8-18.43-6.8-27.62-10.26-5.78-1.58-12-3.39-17.93-1.54-2.71.69-5.11 2.18-7.52 3.53 1.7-2.3 3.59-4.83 6.53-5.56 7-2.06 14.31.21 21.01 2.34 8.76 3.22 17.46 6.59 26.21 9.81 3.2 1.18 6.66 1.22 10.02 1.35 2.7.01 4.78-1.97 7.05-3.15q1 2.91 2.03 5.81c-1.6 2.15-3.51 4.05-5.02 6.26-.77 1.9 1.25 3.07 2.41 4.17 4.5 3.47 8.43 7.58 12.51 11.52 8.24 8 14.12 17.96 20.74 27.25 9.36 13.37 15.69 28.54 21.24 43.8 1.5 3.7 1.93 8.24 4.81 11.14 9.4 3.87 19.57 5.83 28.74 10.36 3.99 2.05 9.74 2.77 13.05-.88 5.07-4.6 4.1-12.72.81-18.07-2.59-3.08-6.76-5.17-7.47-9.5-1-5.64-2.45-11.45-1.25-17.16.9-6.79 3.34-13.2 5.43-19.68 1.42-4.95 4.04-9.72 8.35-12.71 10.88-7.86 21.05-16.93 33.28-22.7 12.42-6.21 21.18-17.21 31.27-26.36q2.91.42 5.85.71c7.04-7.39 14.07-14.82 20.2-22.99 5.05-7.55 9.56-15.5 13.05-23.9 1.9-4.39 2.42-9.24 4.43-13.58m1.68 2.58c-1.61 12.46-8.79 23.25-15.46 33.56-3.83 3.98-5.94 9.28-10.17 12.88-2.28 1.83-3.15 4.74-5.13 6.8-2.9 3.1-6.46 5.67-8.38 9.55-1.27 2.99-4.37 4.4-6.25 6.91-6.28 7.73-13.09 15.03-19 23.05 3.24.71 6.6 1.28 9.93.72 6.22-.97 12.78-2.04 17.9-6 4.9-3.44 8.03-8.65 12.11-12.92 5.17-6.18 10.33-12.36 15.06-18.89 4.56-5.02 7.04-11.5 11.79-16.34 3.14-10.25 4.36-20.97 4.45-31.66.21-3.55-1.77-6.61-3.86-9.28zm-417.82 1.47c-.89 6.07-1.13 12.2-1.58 18.31-.36 4.81-.06 9.77 1.77 14.29 2.61 6.5 4.76 13.34 9.02 19.01 6.26 8.63 12.5 17.37 20.18 24.83 5.83 6.43 11.95 12.98 19.65 17.15 5.88.56 11.87.29 17.71 1.61-2.74-4.13-6.49-7.51-8.96-11.82 2.72.7 3.81 4.05 5.88 5.82 7.89 7.77 15.51 15.86 24.19 22.77 4.45 3.55 9.85 5.97 13.54 10.43 1.52 1.55 2.69 4 5.18 3.98 5.41.24 8.96 4.83 12.47 8.37 4.64 4.75 4.97 11.68 5.76 17.88.29-.26.87-.78 1.15-1.05.39-4.49-.44-9.06-1.22-13.48-2.6-14.51-12.29-26.45-22.55-36.49-5.95-4.87-12.5-8.99-19.21-12.71a12 12 0 00-3.76-1.4c.29-1.76-3.02-3.62-4.58-2.96-2.95-3.93-7.94-5.51-11.26-9.07a86 86 0 01-11.98-17.34l-2.75.21c.26 7.14 3.52 13.67 7.04 19.73.63 1.31 1.69 2.53 1.67 4.06-5.41-5.21-7.17-13.18-11.14-19.47-2.93-2.79-6.66-4.66-9.42-7.68-4.34-4.67-8.8-9.28-12.49-14.5-5.04-6.69-10.46-13.13-14.58-20.46-4.24-6.14-8.08-12.66-9.73-20.02m419.35 43.1c-5.46 5.91-9.72 12.83-15.13 18.8-8.25 10.94-17.03 21.72-28.02 30.03-4.51 4.53-6.21 10.97-10.03 16-4.04 5.23-7.76 10.73-12.65 15.24 4.92.41 9.87.91 14.82.62 4.96-.75 7.89-5.23 11.44-8.28 8.07-5.82 14.06-13.94 21.51-20.48 4.41-3.64 7.3-8.7 11.67-12.38 5.11-8.3 9.37-17.08 13.49-25.9 1.7-5.17 5.05-10.46 3.37-16.05-3.62-.26-7.31.67-10.47 2.4m-425.14-.15c.07 1.72.11 3.45.46 5.15 2.94 11.01 6.21 22.14 12.18 31.94 6.81 9.06 15.81 16.15 23.58 24.33 6.12 6.56 12.43 12.93 18.63 19.4 1.16 1.07 2.41 2.77 4.22 2.03 4.75-1.31 9.66-1.59 14.57-1.61-4-6.31-9.26-11.76-12.87-18.33-1.9-3.37-3.25-7.18-6.19-9.83-3.54-3.17-7.85-5.36-11.32-8.63-12.74-12.11-23.52-26.06-34.03-40.1-2.04-3-5.7-4.34-9.23-4.35m366.18 28.15c-2.01 1.3-4.22 2.38-5.84 4.18-5.13 6.55-12.95 10.04-19.86 14.33-8.52 5.3-17.14 10.54-24.77 17.08-4.94 4.97-7.09 11.83-9.8 18.11-1.7 5.53-3.62 11.23-2.99 17.1 4.14-3.57 6.99-8.33 11.05-11.99 7.79-8.34 17.83-14.06 25.85-22.16 10-8.32 18.52-18.24 26.56-28.46 4.94-4.43 9.06-9.67 12.9-15.07 1.12-1.44.78-3.35.91-5.05-5.94 2.13-8.86 8.56-14.01 11.93m-251.66-8.58c-3.76 1.69-4.87 5.93-6.15 9.46 4.74-1.34 9.92-1.32 14.49.68 2.83 1.35 4.94 3.79 7.66 5.33 2.49 1.39 5.12 2.53 7.49 4.13-5.97 3.07-12.26.17-18.2-1.23 4.11 7.09 13.46 5.42 19.74 9.12 5.2 3 11.29 4.01 17.24 3.82-2.57-4.89-6.7-8.66-9.63-13.27-2.71-5.51-6.31-10.5-9.2-15.9-1.61-3.05-5.58-2.98-8.56-3.33-4.96-.05-10.42-1.84-14.88 1.19m37.79.53q1.04 1.64 2.11 3.28c-1.45.93-2.91 1.82-4.3 2.81a32 32 0 009.88-3.09 26 26 0 00-7.69-3m-10.96 2.11c3.82 10.3 10.53 19.22 17.41 27.67 2.63 2.73 5.94 4.68 8.79 7.17 3.47 2.69 5.78 6.49 8.92 9.52 1.07-5.1.89-10.35 1.59-15.49 3.88 4.17 7.69 8.47 12.25 11.93 1.03-5.63 1.11-11.36 1.09-17.07a66 66 0 0013.97 1.8c4.05.05 7.75 2.21 11.83 1.89-1.74-3.21-5.01-5.09-7.6-7.54-4.23-3.88-9.03-7.11-13.02-11.23-2.86.19-5.66-.32-8.39-1.08-7.98-1.38-15.75-3.92-23.85-4.61-4.89-.43-9.21 2.62-14.01 2.72-3.69-.56-5.68-4.25-8.98-5.68m273.98 24.07c-5.53 3.76-9.3 9.39-13.98 14.06-7.37 6.24-13.9 13.46-21.7 19.19-8.68 5.46-13.21 15.12-20.41 22.13 1.39.88 2.79 1.74 4.17 2.67-2.32-.25-4.6-.78-6.92-.87-4.69 2.4-9.21 5.34-12.51 9.51-3.46 3.4-5.31 8.03-8.8 11.38 10.33 1.03 19.49-4.92 27.53-10.62 2.77-1.65 4.66-4.31 6.54-6.85a22 22 0 01-5.17-2.24c4.59-.56 9.59 2.19 13.72-.82 9.33-5.78 19.78-10.45 26.9-19.09 4.38-3.35 7.02-8.29 10.01-12.81 2.15-4.88 5.54-9.24 6.59-14.56.97-4.78 2.61-9.39 3.49-14.19a28 28 0 00-9.46 3.11m-407.05-.89c.14 5.5 2.36 10.62 4.37 15.65 2.6 6.02 5.49 12.1 9.86 17.06 3.53 3.11 6.43 6.92 10.27 9.66 8.87 5.24 15.94 13.03 24.8 18.22 6.03-.74 12.07-1.99 17.65-4.48-5.44-5.62-11.92-10.08-17.51-15.53-11.6-11.4-22.9-23.11-34.59-34.42-3.83-4.09-9.64-5-14.85-6.16m185.04 3.09c-.56 7.77-.04 16.04-3.65 23.19 2.59 2.35 3.28 6.02 5.81 8.45 2.48-5.03 4.29-10.42 4.61-16.06 4.18 4.23 6.97 9.6 11.11 13.87 4.2-5.91 2.28-13.37 2.91-20.08 6.2 3.22 10.83 9.53 18.03 10.66a67 67 0 00-14.38-19.04l.06 3.06c-7.78-3.28-16.25-3.26-24.5-4.05m174.05 2.3c-3.55.03-7.1-.11-10.64-.12-8.48 9.25-18.05 17.41-27.82 25.25-1.15 1.05-2.83 1.92-3.02 3.62-.77 4.58-.96 9.22-1.53 13.82 5.56-.94 10.86-3.11 16.52-3.48 11.1-6.38 21.95-14.06 29.18-24.83 3.01-5.43 6.69-10.56 8.63-16.51-3.78.74-7.43 2.29-11.32 2.25m-308.92 2.44c2.89 8.37 8.44 15.38 13.48 22.52 3.09 4.57 7.95 7.38 11.97 11.01a71 71 0 0014.33 9.85c.76-1.11.9-2.84 2.26-3.42 3.95-.29 7.88.48 11.79.94-.73-3.72-.91-8.08-3.98-10.75-4.47-3.9-8.85-7.93-13.8-11.23-6.07-4.14-10.58-10.15-16.59-14.36a223 223 0 00-19.46-4.56m120.9 3.93c-.1 4.01-.77 8.11-.15 12.09q3.2 7.57 6.55 15.08c1.31-5.69 1.09-11.77 3.82-17.08a133 133 0 00-10.22-10.09m36.89 5.54c-.77 5.23-1.28 10.49-2.84 15.57 5.23 6.44 7.33 14.61 10.93 21.96 2.15-3.24 4.28-6.57 5.54-10.27 1.37-4.55-.13-9.26-.35-13.85 3.92 8.07 5.77 16.95 8.53 25.45 2.93-2.11 3.59-5.91 4.37-9.2.49-2.92 1.41-6.21-.31-8.92-2.45-4.15-4.87-8.32-7.55-12.32-.65-1.17-2.1-1.08-3.21-1.38-5.7-.66-10.1-4.65-15.11-7.04m-14.49 5.62c-2.22 5.48-3.53 11.28-5.97 16.67l-7.08-7.63c-.4 4.07-2.08 7.92-2.32 11.99.55 5.73 1.16 11.47 1.64 17.22 4.04-3.44 5.59-8.65 8.69-12.79 1.7-2.21 2.14-5.02 2.86-7.64 4.75 4.61 6.06 11.29 8.73 17.09a52 52 0 006.16-14.92c.27-3.41-.45-8.16-4.57-8.71a33 33 0 00-8.14-11.28m154.88 13.37c-3.93 1.85-6.76 5.36-10.59 7.36-2.57 1.34-5.29 2.57-7.24 4.77-3.96 4.02-5.41 9.71-9.07 13.96a9.8 9.8 0 007.6 2.95c7.26.14 12.89-5.03 18.46-8.96 6.29-5.18 11.33-11.78 15.58-18.7-4.89-.72-9.85-.72-14.74-1.38m-297.13 3.51c4.9 4.78 10.52 8.75 15.43 13.53 4.39 4.44 9.84 7.6 15.07 10.94 3.92 2.6 8.67 2.65 13.2 2.58-2.23-4.09-3.09-8.74-4.8-13-8.31-4.32-15.4-10.46-22.75-16.15-5.3-2.13-11.17 0-16.15 2.1m245.98 16.4c-2.05 3.69-1.73 8.25-.47 12.12 2.29 2.39 4.89 4.56 6.36 7.61 2.21 4.11 5.71 8.61 4.24 13.54-2.49 3.08-4.56 6.46-7.03 9.56-2.43 1.24-5.23 2.63-8 1.68-4.47-1.62-8.44-4.39-13-5.8-6.32-2.03-12.84-4.38-19.59-3.81 2.07 7.26 5.36 14.19 6.6 21.7 1.05 5.71 4.16 10.73 5.77 16.26.62 3.65.43 7.52 1.89 10.99a39 39 0 007.9 9.26c2.94-6.34 1.57-13.34.31-19.89 5.58 2.96 9.87 8.83 16.59 9.35 2.32-5.16.61-11.14.32-16.6 2.73 2.98 6.54 4.33 10.13 5.94l.7 2.03c-2.55-.74-4.97-2.49-7.73-2.01l-.52 1.8c3.28 4.74 6.95 9.22 10.79 13.54 2.43 3.52 4.15 7.5 6.7 10.96-.07-7.8-.73-15.58-1.28-23.36-2.59-.64-6.32.39-7.83-2.33 2.04-.26 4.12-.36 6.19-.46-2.6-5.33-6.14-10.17-8.36-15.68 2.88.25 5.62 1.22 8.39 2.02 3.65 1.03 7.46.24 11.04-.73-3.68-5.81-9.11-10.49-11.7-16.98 5.97-2.58 12.95.46 18.57-3.37-2.87-5.35-8.93-7.53-13.05-11.69 3.86-4.7 7.84-9.33 11.14-14.46-4.78-.87-9.55-1.84-14.32-2.73 2.65-5.76 6.59-10.87 8.73-16.85-4.98 1.1-9.75 2.95-14.69 4.18.7-4.82 1.78-9.58 2.37-14.42-7.02 4.79-13.85 10.58-17.16 18.63M540.3 172.8c-.32 5.42 1.75 10.49 3.55 15.48q-1.86-1.23-3.66-2.5c-3.61-2.73-8.39-2.5-12.62-3.35-.19 3.11-.43 6.39.88 9.32 1.9 4.06 3.15 8.43 5.74 12.15-2.85-1.38-6.02-3-9.23-1.76-1.32 1.26-.29 3.26-.16 4.8.88 5.34 6.33 7.77 8.89 12.14a32 32 0 00-13.07 6.95c4.46 5.11 11.7 4.41 17.8 4.85-4.76 4.36-8.05 10.11-9.9 16.26 5.52.99 11-.62 16.5-.96-2.22 5.1-5.28 9.8-7.28 15a34 34 0 0015.3-6.37c-.23 5.08-1.05 10.14-.86 15.24 5.83-2.04 11.84-4.11 16.64-8.15-.02 5.46-.93 10.87-.87 16.33 4.22-1.48 8.36-3.49 11.64-6.58 1.59-1.41 1.64-3.68 1.72-5.64.12-7.64 1.82-15.14 3.17-22.63 1.16-6.7 5.12-12.36 7.66-18.55-10.64.16-20.07 5.9-30.28 8.13-5.22.59-11.35-1.16-13.86-6.16-1.38-2.65-3.09-5.47-2.82-8.56 1.29-5.3 4.48-9.92 8.29-13.74 2.5-2.09 1.32-5.72 1.59-8.56-.47-4.96-.29-11.01-4.56-14.45-3.36-2.94-6.52-6.15-10.2-8.69m-96.34 5.52c.41 5.21 5.11 8.17 7.44 12.45 2.56 4.51 7.79 6.11 11.66 9.18 5.07 4.05 11.21 6.6 15.91 11.14 6.48 2.36 12.9 5.43 19.89 5.86 3.63-1.54 7.12-3.42 10.67-5.14-7.13-5.26-15.56-8.41-22.76-13.58-8.18-6.16-16.49-12.15-24.52-18.51-3.41-3.29-8.5-2.04-12.74-3.07-2.08-.66-3.83.73-5.55 1.67m199.38-2.41c-3.06 6.37-4.1 14.26-10.01 18.81.2-6.1-2.17-11.95-6.04-16.58-3.67 5.44-6.69 11.29-10.48 16.65-2.01 2.79-3.42 5.93-4.86 9.03-2.05 4.5-6.55 7.15-9.04 11.33-.13 3.38.59 6.75 1.39 10.02 1.6-.52 3.19-1.24 4.24-2.63 5.79-6.85 9.37-15.16 13.68-22.94 2.2 4.58 2.46 9.72 3.07 14.68 3.33-4.38 5.09-9.74 8.76-13.9 3.89 5.72 6.23 12.29 9.77 18.21 3.39-6.93 3.95-15.43 9.78-21.02 3.5 7.38 4.08 16.06 9.12 22.69 2.56-7.56 2.11-15.55 2.08-23.4l3.14.38c.3 3.09.18 6.34 1.67 9.16 3.43 6.68 7.19 13.23 11.77 19.19 3.6-8.57 2.94-18.32-.34-26.87-2.74-7.05-4.7-14.6-9.31-20.72-1.79 5.44-2.84 12.05-8.27 15.16-1.31-5.32-1.79-10.93-4.4-15.85-3.02 4.97-4.48 10.97-8.78 15.08-2.14-5.56-3.47-11.52-6.94-16.48m183.35 4.9c-4.56 1.24-7.77 5.05-12.16 6.7-6.15 3.45-13.33 5.49-18.22 10.81-4.39 4.37-10.03 7.08-14.96 10.73 3.66 1.28 7.16 3.06 10.02 5.75 6.08-2.13 11.92-4.88 17.91-7.23 5.6-.92 9.54-5.22 14.2-8.05 2.88-1.74 5.13-4.29 7.82-6.29 4.88-3.58 6.53-9.75 8.61-15.13a74 74 0 00-13.22 2.71M487.72 196c6.17 5.25 13.57 8.72 20.64 12.57 4.77 2.83 10.48 1.39 15.7 1.18-1.06-2.79-1.93-5.7-3.53-8.23-3.2-2.71-7.4-3.8-10.62-6.45-2.05-1.52-4.2-3.41-6.9-3.37-5.38.08-10.4 2.3-15.29 4.3m341 2.68c-5.48 2.66-9.66 7.44-15.43 9.57-6.63 3.23-14.27 4.22-20.3 8.63-4.51-1.81-8.52-4.67-13.02-6.49-3.2.35-6.21 1.57-9.36 2.16-3.85.86-7.89.77-11.59 2.25 4.42 4.3 9.43 8.03 14.53 11.47 3.18.46 6.41-.63 9.57-1.07 5.71-.91 10.54-4.31 15.26-7.42l1.14 4.05a63 63 0 0023.08-6.23c4.16-1.5 8.73-2.78 11.63-6.37 2.67-3.38 6.08-7.03 5.5-11.69-3.69-.37-7.61-.59-11.01 1.14m-383.61 2.39c2.65 2.64 5.2 5.36 7.84 8.01 8.23 6.52 17.99 10.73 27.91 14.03 2.35.63 4.54 2.44 7.03 2.19 3.06-1.71 5.44-4.38 7.58-7.12-5.77-1.68-11.86-3-16.5-7.09a92 92 0 01-13.16-6.99c-2.22-1.34-3.98-3.47-6.48-4.29-4.76-.86-9.84-1.09-14.22 1.26m207.08-.44c-2.94 5.36-4.07 11.45-6.61 16.98-1.16 2.36-1.73 5.11-.83 7.66 1.71 5.08 4.26 9.83 6.08 14.87 1.76 4.69 2.36 9.82 4.98 14.17 3.74-7.72 5.22-16.25 7-24.58.57-1.95-.06-3.92-1.04-5.62-3.71-6.34-4.53-13.81-7.36-20.5-.52-1.15-1.45-2.03-2.22-2.98m-19.01 3.22c-2.04 3.73-3.77 7.64-6.29 11.07a15.5 15.5 0 00-3.1 12.09c1.68 9.28 3.93 18.52 7.34 27.33 2.34-3.99 4.02-8.32 5.6-12.65 1.5-4.01 1.37-8.48 3.58-12.25 3.91-9.06-.9-18.92-7.13-25.59m-25.44 21.88a10.5 10.5 0 01-5.36 3.7c-.11-3.21-.15-6.42-.57-9.6-2.79.35-4.51 2.7-6.13 4.74-3.57 5-5.83 10.8-7.38 16.72-.99 3.96-3.19 7.59-3.23 11.77l1.85-.2c4.55-6.34 11.71-10.18 16.37-16.44.74-1.78-.28-3.85-.27-5.73l2.37.44c1.06 8.75 1.61 17.69 4.02 26.19 2.17-5.03 5.31-9.57 7.27-14.69q2.3-5.72 4.57-11.46c2.39-5.79 2.01-12.18 2.65-18.29.32-2.85-.7-5.57-1.9-8.09-5.57 6.4-9.03 14.29-14.26 20.94m56.82-1.67c-.02 3.78-1.23 7.69.1 11.37 2.71 7.47 6.69 14.38 10.42 21.38 1.55-1.74 3.05-3.59 3.92-5.79a58 58 0 004.25-24.96q-1.57.48-3.1.97c-1.2-1.95-2.83-3.58-3.97-5.54-1.67-5.91-5.36-10.92-8.56-16.07-2.28 5.92-3.03 12.32-3.06 18.64m-163.74-6.2c-3.39 2.41-7.91 3.91-9.59 8.06 6.65 1.94 13.6 2.48 20.37 3.74 2.03.35.04 2.52-.55 3.34a56.6 56.6 0 00-11.74 22.57c6.68-.43 13.11-2.35 19.55-4.03-1.01 6.84-3.49 13.32-5 20.03 4.59-1.33 8.71-3.8 13.11-5.6 2.87-1.38 6.06-2.38 8.42-4.6 2.03-4.14 3.35-8.62 5.52-12.72-5.3-.16-10.58.46-15.86.83 1.08-6.12 5.18-10.94 7.4-16.61-5.55-.58-10.93-2.58-14.72-6.82 3.22-3.64 7.53-5.95 11.65-8.39-2.09-2.61-4.53-6.21-8.37-5.44-7.21-.58-14.18 1.78-20.19 5.64m319.12 1.01c-5.75 1.85-11.47 3.95-17.48 4.81 1.95.82 3.97 1.45 5.94 2.25-9.67-.61-19.73-1.69-29.05 1.65 5.42 2.46 10.99 4.72 16.81 6.03 4.54.33 8.91 1.51 13.26 2.77 6.14.85 12.4.03 18.58.08 6.8-1.8 14.77-3.35 18.67-9.9 2.31-2.54-1.06-4.8-2.93-6.25-6.74.3-12.93 3.86-19.73 3.74-3.82-.21-8.03 1.48-11.5-.68 9.63-.45 19.26-1.59 28.45-4.66-2.12-2.33-4.16-4.77-6.78-6.54-3.91 3.78-9.45 4.56-14.24 6.7m-371.15 1.6c10.54 2.85 21.5 8.11 32.58 4.93-4.25-2.93-9.54-3.42-14.12-5.62-2.7-1.22-5.07-3.03-7.72-4.33-4.24-2.49-7.93 2.41-10.74 5.02m235.42 5.31c.97 2.96-.14 6.5 2.02 9.05 3.24 4.48 7.61 8 12.08 11.21-1.71-7.06-5.14-13.52-8.37-19.97-1.45-3.6-1.45-7.78-3.98-10.91-1.29 3.32-2.9 7.03-1.75 10.62m-245.32 1.13c1.98 1.39 3.84 2.95 5.77 4.4 2.93 1.86 6.29 2.92 9.2 4.83 3.06 2.22 7.06 1.6 10.6 1.5 8.59-.74 17.36-.19 25.78-2.34 5.32-1.52 10.82-2.5 15.97-4.58-4.46-.95-8.95-1.66-13.42-2.53-6.57-1.35-13.2 1.37-19.78.06-7.89-1.67-16.02-2.66-23.47-5.92-3.98-2.17-8.85.9-10.65 4.58m324.15 4.18c-3.08.15-6.18-.15-9.2.6 2.45 4.83 5.76 9.14 9.4 13.12 1.23 1.09.8 2.77.89 4.21-5.37 1.3-10.83.68-16.26.32 1.72 4.49 3.37 9.42 7.4 12.42 5.16 3.8 10.73 7.07 15.81 11q-.85-10.04-.97-20.12c6.29.44 12.82.59 18.54-2.52-2.59-3.69-5.87-6.98-7.51-11.25-1.73-4.48-5-8.12-8.49-11.31-3.35.73-6.1 3.32-9.61 3.53m-126.67 15.28c-1.3 3.99-3.14 7.78-4.53 11.74-1.38 3.14.98 6.13 2.25 8.87 3.59 6.42 5.9 13.48 9.69 19.79 3.63-8.75 9.04-17.06 9.75-26.74.03-3.24-.01-6.54-.86-9.69-2.35-7.74-5.12-15.4-9.06-22.49-3.58 5.65-5 12.29-7.24 18.52m139.53-18.6c2.12 2.99 4.52 5.8 6.29 9.03 2.32 3.92 3.94 8.43 7.55 11.42 2.64 2.87 6.87 2.11 10.36 2.68 4.28.12 8.47 2.36 12.77 1.15 2.46-.96 4.73-2.38 7.25-3.24l.61 2.37c2.92-1.32 5.96-2.65 9.25-2.4 2.7.43 4.26-2.16 6.29-3.43-2.03-2.17-3.56-5.36-6.77-5.85-6.7-1.59-13.65-.79-20.43-1.63-4.18-.82-8.29-1.92-12.49-2.55-7.34-1.13-13.9-4.74-20.68-7.55m-153.49 4.86c-3.21 5.94-4.71 12.67-8.4 18.37-1.62 2.87-3.87 5.64-4.14 9.04.1 4.92 1.82 9.66 4.03 14.01 2.16 4.29 2.73 9.38 6.06 13.05 2.77-4.38 4.63-9.25 6.16-14.17 1.79-5.48 3.49-11.14 3.25-16.96-.11-3.98-1.53-7.74-2.72-11.48-1.32-3.99-2.28-8.12-4.24-11.86m-128.43 4.36c-8.97 1.32-18.1 1.22-27.01 3-3.55.73-7.16-.08-10.74.12-2.68 1.31-3.85 4.26-4.94 6.84 5.76 6.25 14.64 7.85 22.74 8.31 7.37.47 14.64-1.26 21.51-3.78 2.79-1.01 4.46-3.64 5.75-6.16 1.96-3.88 3.91-7.76 5.68-11.73-4.42.81-8.56 2.7-12.99 3.4m190.9-.14c-.5 8.39-5.26 15.44-8.68 22.84 4.83 6.31 10.07 12.54 13.02 20.02a82 82 0 003.09 7.33 28 28 0 013.14-6.57c1.24-3.14 2.15-6.42 3.29-9.6 1.91-5 1.56-10.49.8-15.67-.76-4.75-5.06-7.37-7.89-10.81a115 115 0 00-6.77-7.54m-96.51 21.54c-.69 8.32 2.29 16.37 5.63 23.85 3.97-5.51 6.96-11.68 11.34-16.9 2.57-2.81 2.32-6.79 1.58-10.24-1.25-6-1.39-12.14-2.59-18.14a77 77 0 00-15.96 21.43m74.88-19.37c-3.36 7.24-4.63 15.22-7.76 22.55-1.99 4 1.35 7.78 2.29 11.56 1.2 4.82 1.68 10.04 4.94 14.04 2.74-5.18 4.99-10.6 7.59-15.85 1.7-3.57 3.65-7.19 3.91-11.21-3.09-7.28-6.21-14.71-10.97-21.09m115.42 16.45c4.91 5.11 9.74 10.39 13.14 16.66 2.44 5.06 6.31 9.23 8.82 14.25 2.7 3.3 7.18 5.13 11.44 4.72.18-3.05-.48-6.02-1.38-8.9-1.63-5.16.04-10.66-1.11-15.88a37 37 0 00-5.27-10.69c-3.29-4.38-9.4-3.08-14.15-3.44-3.72 1.45-7.45 2.95-11.49 3.28m-293.99 4.22c-3.31 2.44-4.1 6.7-5.71 10.25-2.7 5.37.19 11.29-.45 16.94.21 1.87-.91 4.58.88 5.85 3.76-.09 8.6-1.55 9.53-5.72 3.13-10.09 5.7-20.88 13.08-28.88q-2.82-.01-5.61.03l.83-5.19c-4.86.65-8.85 3.73-12.55 6.72m20.36-1.62c-4.51 3.41-7.1 8.67-9.23 13.77-5.87 12.86-7.63 28.04-2.9 41.51 3.43-.53 6.23-2.66 9.24-4.21 1.7-1.07 4.13-2.06 4.21-4.41.38-3.27 1.03-6.5 1.45-9.76.68-6.06 3.18-11.69 4.62-17.58.87-2.53-1.91-4.87-.44-7.39a68 68 0 004.01-15.97c-3.66 1.32-7.57 2.07-10.96 4.04m266.98-3.23c.15 6.06.75 12.09.78 18.16 2.2 9.04 3.79 18.28 7.31 26.94 3.35 6.08 9.8 9.39 15.85 12.21 2.58-8 .69-16.58 1.56-24.81.64-4.01-2.97-6.91-4.65-10.18-5.16-8.87-11.35-17.71-20.85-22.32m-238.55 10.65c-1.06 6.21-1.32 12.54-2.37 18.76 7.48-1.76 13.36-7.48 17.67-13.58 2.7-3.36 1.54-7.83 1.68-11.77-5.65 2.22-11.35 4.36-16.98 6.59m52.79-2.93c-3.35 5.55-2.32 12.28-2.63 18.46a102 102 0 002.31 27.21c3.82-6.47 3.3-14.52 5.89-21.5 1.71-3.66-.66-7.25-1.84-10.66-1.89-4.32-2.01-9.14-3.73-13.51m8.04 23.72c1.41 6.98 4.24 13.66 7.37 20.06 2.08 4.42 3.55 9.14 6.07 13.36 3.25-4.96 5.58-10.42 8.37-15.62 1.62-3.07 3.09-6.43 2.73-9.98-1.74-10.91-7.73-20.51-10.31-31.18-5.74 7.1-10.22 15.2-14.23 23.36m72.6-4.34c-1.08 2.8-2.76 5.82-2.03 8.9 1.73 3.6 4.14 6.85 5.63 10.57a276 276 0 007.41 19.4c3.93-4.49 5.84-10.21 8.6-15.4 1.58-3.17 3.42-6.25 4.53-9.63 1.44-6.23-1.58-12.23-4.23-17.67-3.34-5.14-5.73-10.92-10.05-15.38-3.93 6.05-6.77 12.71-9.86 19.21m35.33-19.41c-.57 9.88-5.02 18.86-7.66 28.24 5.06 3.3 4.18 9.85 6.85 14.56a98 98 0 002.62-30.32c-.67-4.16.29-8.64-1.81-12.48m-75.06 11.82c-1.99 5.94-4.62 11.67-6.13 17.76-1.45 4.49 1.6 8.63 3.25 12.61 2.91 5.45 4.41 11.46 6.1 17.37 1.21-.98 2.59-1.91 3.2-3.42 2.9-6.36 4.74-13.15 7.5-19.57a16.9 16.9 0 00-.28-14.82c-3.36-6.91-6.31-14.05-10.32-20.63-1.44 3.46-2.09 7.17-3.32 10.7m128.17-10.49c1.05 8.35 2.11 16.89.92 25.28-.62 4.38 1.97 8.26 3.47 12.18 2.18 4.53 3 9.74 6.38 13.62 2.78 4.79 7.53 7.87 12.36 10.3.84-5.38.05-10.81.46-16.21.02-3.04.44-6.24-.85-9.1-1.84-4.15-2.4-8.71-4.11-12.91-1.63-4.1-1.52-8.94-4.64-12.37-3.86-4.49-8.95-7.77-13.99-10.79m-239.3 10.21c-2.61 4.94-3.52 10.59-5.11 15.91-2.12 6.75-1.58 13.93-3.13 20.78-1.52 5.4.49 10.88.64 16.32 4.02-.48 7.7-2.4 11.11-4.5 3.9-3.53 4.77-8.95 6.27-13.73 1.59-6.08 3.84-12 4.86-18.22.69-2.38-1.97-4.18-1.55-6.53.94-6.08 2.27-12.11 2.85-18.24-5.57 2.13-11.25 4.44-15.94 8.21m20.99 10.94c-5.83 5.57-6.38 14.06-8.66 21.34-1.16 5.47-3.94 10.57-4.11 16.23 3.54-.31 7.12-.71 10.52-1.82 2.28-.8 4.98-1.43 6.18-3.77 1.91-3.04 4.65-5.47 6.38-8.64 4.75-8.17 8.02-17.1 12.76-25.28 2.78-5.06 6.33-10.24 5.7-16.31-10.89 3.57-20.79 10.06-28.77 18.25m198.63-10.07q-4.18-1.28-8.43-2.19c1.62 6.59 3.63 13.07 5.45 19.61 1.27 5.16 5.12 9.05 7.1 13.89 1.34 4.02 5.39 5.95 8.58 8.31 4.05 2.52 7.84 5.56 12.34 7.32-.17-5.36.68-10.98-1.45-16.06-2.67-8.72-6.04-17.37-10.99-25.06-4.08-4.58-7.15-9.96-11.44-14.34a34 34 0 00-1.16 8.52m-82.12-7.07c-2.59 8.51-8.18 16.06-8.88 25.13.39 4.67 2.58 8.93 4.31 13.22.92 6.2 2.14 12.57 5.43 18.01 3.53-10.81 6.54-21.87 7.22-33.26.04-3.65-1.93-6.87-3.2-10.18-1.84-4.23-2.32-9-4.88-12.92m67.47.82c-.96 6.43-2.88 13.07-1.02 19.52 3.3 9.17 1.91 19.44 6.41 28.28 3 .37 6.01.72 9 1.22.54-3.58 2-6.95 2.55-10.51-1.16-3.04-3.34-5.53-4.68-8.48-3.34-7.9-5.54-16.22-7.52-24.56-.38-2.63-2.9-3.94-4.74-5.47m-150.75 11.76c-.57 3.28 2.37 5.94 3.5 8.86 1.57 3.76 4.52 6.62 8.01 8.64-1.14-8.04.17-16.17-.87-24.2-3.98 1.42-7.44 4-10.64 6.7m136.41-4.64c.33 8.47-.37 16.88-1.21 25.29 2.31-1.46 3.83-3.96 6.27-5.19-1.23 3.95-4.61 6.51-7.08 9.63-1 5.13-2.29 10.24-2.62 15.48 7.05-1.63 13.97-4.08 21.29-4.26.06-2.99-.51-5.92-1.13-8.82-1.47-6.51-1.05-13.53-4.31-19.55-2.04 2.04-3.36 4.86-5.74 6.51.74-3.44 4.1-6.09 4.01-9.76-2.06-3.93-4.92-8.18-9.48-9.33m-142.32 2.44c-6.02 9.78-9.9 20.66-15.46 30.68-1.41 4.23-1.78 11.03 3.22 13 3.94-.57 7.7-2.81 11.79-2.02 2.92.54 5.9.85 8.84.2-2.41-8.24-6.78-16.22-6.11-25.08-.02-4.84 2.05-9.92-.12-14.55-.45-1.03-.7-2.51-2.16-2.23m5.23 8.37c-1.12 7.69-2.26 15.74.32 23.29 1.33 3.72 2.25 8.1 5.61 10.59 2.85 1.58 6.09 2.28 9.19 3.24-.31-7.86-2.31-15.5-3.11-23.29-2.28-2.72-5.74-4.33-7.49-7.52-1.32-2.24-2.6-4.53-4.52-6.31m19.22 23.18c-1.13 7.47.91 14.88 1.59 22.28.23 5.83 3.68 10.8 4.72 16.46 3.07-5.01 2.98-11.3 6.08-16.29 3.02-3.17 7.11-7.6 4.86-12.27-4.13-10.73-9.84-20.81-13.13-31.88a198 198 0 00-4.12 21.7m74.33-18.87c-1.71 12.29-3.79 24.58-7.49 36.45-.69 1.43.06 2.9.49 4.28 2.78 7.6 5.63 15.18 8.27 22.83a12 12 0 002.36 4.08c1.99-5.31 2.76-10.96 4.46-16.36 1.63-6.42 4.09-12.66 5.2-19.19-.92-4.77-3.62-8.96-4.73-13.68-1.68-6.64-5.54-12.36-8.56-18.41m28.77 4.96c-2.93 5.58-5.25 11.47-8.14 17.06-4.08 6.52-6.56 13.82-8.77 21.14-3.14 7.63-3.4 16.06-6.47 23.72 5.38 4.43 8.31 11.66 15.24 14.23 1.74-5.64 2.78-11.46 3.93-17.23.75-10.53-2.43-20.93-7.19-30.22 2.33 1.3 3.82 3.51 5.18 5.74 1.1 1.87 3 3.15 3.98 5.11 1 3.14 1.15 6.48 1.92 9.69 1.15-6.77 5.2-12.67 5.72-19.58.64-6.52.66-13.09.47-19.63.05-4.27-1.82-8.17-3.22-12.09-1 .53-2.19.92-2.65 2.06m-57.76 26.21c-2.79 6.38.28 13.17 2.5 19.21 2.56 5.87 2.63 12.44 5.06 18.35 3.71-5.89 5.92-12.55 7.8-19.21 1.6-5.53 4.53-11.4 2.36-17.19-3.01-8.45-4.24-17.47-8.08-25.64-3.8 7.92-6.23 16.4-9.64 24.48m-14.04-22.41c-3.01 4.42-5 9.41-7.23 14.25-1.3 2.93-2.74 5.87-3.23 9.07.62 2.54 2.25 4.69 3.14 7.14 2.78 8.23 3.79 16.95 6.52 25.19 4.06-7.71 5.2-16.68 10.03-24.01 1.84-2.8.12-6.21-.42-9.17-2.32-7.68-4.12-15.8-8.81-22.47m105.64 20.6c1.74 3.49 4.51 6.41 5.92 10.07 1.38 4.95 1.99 10.08 3.2 15.08.95 3.56 3.53 6.34 5.04 9.65 1.07 2.92 1.44 6.04 2.26 9.04 2.95-3.66 4.27-8.34 7.37-11.88-.06 2.75-1.59 5.1-2.69 7.53-1.91 3.9-3.33 8.32-6.95 11.04-.8-6.75 1.28-14.98-4.53-20.06-1.84 5.01-3.18 10.24-5.59 15.03-3.01 5.71-4.37 12.08-7.05 17.94-1.66 3.19 1.03 6.37 1.82 9.44a57 57 0 0011.02-19.41c2.59 3.54-1.07 7.08-2.54 10.25-2.42 3.56-3.61 8.41-1.23 12.31 6.2-9.75 11.15-20.24 15.71-30.84 2.44-4.24 2.88-9.13 3.18-13.91l-2.03.75c.57-5.57 1.33-11.37-.19-16.84-2.35-2.98-4.29-6.32-6.92-9.05-5.01-2.63-9.95-5.93-15.8-6.14m-184.87 13.58c-4.31 8.03-.46 17.3 4.02 24.37a17 17 0 001.48-7.11 63 63 0 016.91-17.82c2.61-4.62 7.59-6.99 11.24-10.64-9.15-.5-17.87 4.34-23.65 11.2m16.25-.74c-3.09 8.03.5 16.67 4.31 23.8a29 29 0 006.16-8.27c.81-5.68-.47-11.52.92-17.14a97 97 0 001.62-8.27c-3.78 4.08-10.66 4.29-13.01 9.88m139.96 6.69c.83 2.6 2.99 4.41 4.61 6.51 3.12 3.72 4.7 8.4 6.05 13 .86 2.52 1.43 5.48 3.88 6.99a54 54 0 002.95-31.92c-.87-4.52-3.8-8.17-6.79-11.5-6.12 3.34-9.54 10.28-10.7 16.92m14.9-16.69c2.94 3.2 3.52 7.61 5.4 11.39.96 3.95-.29 8.09.19 12.11 1.6 3.18 4.42 5.55 6.12 8.68 2.01 3.38 1.64 7.65 3.98 10.89 2.8-5.09 4.38-10.75 5.94-16.3-.35-5.68-2.55-11.07-4.06-16.51-2.14-4.1-4.26-8.73-8.53-11.02-3.04-.12-6.02.6-9.04.76m-137.71 1.96c-2.48 1.9-3.56 5.03-4.13 7.99a61 61 0 00-.59 17.5c1.49 5.24 4.18 10.07 7.17 14.6 3.61-6.3 6.55-12.96 10.41-19.12 3.56-6.07.13-13.08-2.25-18.92-3.48-.91-6.96-2.27-10.61-2.05m33.3-.13c-5.13 8.31-7.1 17.95-10.41 26.98 3.24 6.84 3.68 14.9 8.43 21.1 3.85-3.94 8.19-7.51 11.38-12.04 1.73-2.43 1.07-5.49.07-8.05-1.93-5.21-2.42-10.78-3.87-16.11-1.33-4.18-2.18-8.81-5.6-11.88m13.32 31.98c-2.65 5.24.74 10.78.92 16.21-.16 3.57 3.16 5.55 4.44 8.56 1.75 3.2 1.92 6.95 3.35 10.29 2.83-4.18 3.35-9.29 5.55-13.74a234 234 0 014.29-10.81c1.29-3.07.18-6.37-.41-9.46-1.04-4.4-1.14-9.02-2.84-13.24-1.85-4.57-2.23-9.7-5.1-13.84-4.55 8.18-6.99 17.29-10.2 26.03m23.85.88c-2.24 4.91 1.48 9.59 3.42 13.9 3.25 5.75 4.28 12.32 6.13 18.57 4.5-8.19 7.04-17.25 9.96-26.08 1.71-3.99-.71-7.87-1.83-11.64-2.84-7.26-4.48-15.04-8.46-21.81-3.39 8.91-6.07 18.07-9.22 27.06m-93.35-17.33c-2.8 6.78-3.42 14.27-3.7 21.53 1.84 10.84 8.1 20.2 14.18 29.12 3.07 3.21-.6 7.29-.34 11 .52 5.67-.19 11.37-1.05 16.98-.59 5.98-5.9 9.68-10.24 13.09-5.69 3.15-11.28 6.6-17.37 8.92-5.22 2.16-10.98-.04-16.26 1.79-4.29 1.4-9.14.2-13.12 2.66-3.81 2.43-8.58 1.57-12.57 3.34a23.7 23.7 0 00-3.39 13.04c1.63 1.72 4.71 2.14 7.04 1.75 3.89-3.94 5.23-11.12 11.71-11.71-2.02 2.77-5.36 4.59-6.28 8.09-1.47 4.65-4.44 8.77-5.15 13.67 1.98 1.32 3.96 2.68 6.18 3.59 3.66-1.06 6.77-4.35 6.57-8.35-.21-5.34 3.9-11.08 9.48-11.38.48 2.1.87 4.23 1.06 6.39.31 2.91-1.14 5.71-.86 8.62 1.64 4.18 9.65 5.76 11.1.65 1.74-3.27-.13-6.79-.14-10.16.59-2.57 1.32-5.11 1.83-7.7a65 65 0 0018.27-4.09c2.1-.75 3.08-3.01 5.04-4.01 3.71-2.05 8.02-2.52 11.96-4.03 4.27-1.52 9.71-2.32 11.94-6.84 2.5-6.66-2.48-13.38-.95-20.12a61 61 0 015.16-14.45c-4.33-1.88-7.99-4.9-12.16-7.06q-1.79 3.46-3.53 6.95l-2.97-.93a37 37 0 014.86-9.73c-1.89-5.11-4.69-9.95-5.4-15.42-.76-4.59.03-9.32-1.14-13.84-1.13-4.48-4.17-8.2-5.13-12.72-.68-3.03-1.11-6.12-1.97-9.1zm141.2 8.68c-.81 4.6-2.39 9.09-2.72 13.74 2.97 5.11 6.41 10 8.82 15.43 1.89 4.83 1.77 10.87-1.44 15.12-.05-4.14.91-8.25.54-12.39-.28-2.52-2.13-4.43-3.4-6.49-1.91-2.69-3.11-6.05-6.12-7.74-1.82 5.52-1.1 11.5 1.12 16.79 2.02 4.72 2.94 9.79 4.63 14.63 3.21-.78 6.25-2.22 8.55-4.65 1.73-2.07 5.45-2.17 5.92-5.19 1.02-4.42 2.09-8.87 2.57-13.38-2.74-6.35-4.34-13.08-6.4-19.67-1.51-5.2-5.48-9.13-8.95-13.08-1.37 2.12-2.76 4.33-3.12 6.88m-159.39 11.8 2.2.14c-.48-5.5-.13-11.01-.36-16.52-2.48 5.13-1.96 10.87-1.84 16.38m48.42-2.34c-3.71 6.7-4.26 14.63-4.17 22.14.07 5.95 3.73 10.87 5.48 16.35a34 34 0 01-6.99-14.21c-1.18-4.91-.03-9.9.12-14.84a142 142 0 01-8.3-16.22c-1.49 2.16-3.37 4.2-4.02 6.81-1.54 11.28-.04 23.51 6.66 33 3.44 3.14 7.09 7.68 12.25 7.23 2.26-2.7 3.04-6.35 3.52-9.77.85-6.49 4.37-12.15 6.91-18.07.97-2.48 2.76-4.47 4.63-6.31a112 112 0 00-8.03-18.95c-3.53 3.69-5.7 8.37-8.06 12.84m170.6-10.26c-1.53.97.12 3.51 1.59 2.32 1.49-.99-.13-3.54-1.59-2.32m-214.95.33c-1.03 7.71 1.56 15.04 2.69 22.55 3.73 11.3 9.95 21.84 18.64 30.03.83-2.84 3.46-5.79 1.97-8.83-2.68-6.04-6.52-11.47-9.78-17.19-2.39-4.18-3.37-9.03-6.13-13-2.85-4.31-4.84-9.09-7.39-13.56m180.66 2.06c-2.01 4.52-1.94 9.64-4.09 14.12-2.83 5.93-.22 12.66-2.21 18.76-1.09 3.79-2.42 7.54-3.1 11.43l1.17 1.51c5.2-4.12 10.05-9.11 12.45-15.42 1.72-4.51 3.81-9.27 2.98-14.21-.82-5.89-2.21-12.36-7.2-16.19m34.74 2.52c-.5 6.31-3.3 12.06-5.51 17.88-2.13 5.89-7.55 11.29-5.17 18 1.39-.55 2.72-1.32 3.35-2.76 3.19-5.6 6.65-11.31 7.86-17.72.24-5.26 1.45-10.41 1.69-15.67zm-83.56 7.65c-.7 1.94-1.84 3.83-1.89 5.93 2.24 4.94 4.24 10.01 7.31 14.5 1.05 6.6 5 12.11 8.4 17.68 2.78 4.2 5.64 8.61 10.07 11.25-.23-3.87-1.03-7.65-1.68-11.45-1.11-9.01-6.83-16.41-11.06-24.16-1.4-2.85-5.13-3.7-6.17-6.79-1.05-2.74-2.18-5.61-4.98-6.96m-61.7 13.49c-4.71 8.65-8.17 17.9-12.02 26.96-.59 2.16-.75 4.42-1.04 6.64 5.67-2.93 10.01-7.59 14.76-11.7-2.39 10.2-5.48 20.29-7.15 30.64-.32 8.68-1.37 17.87 2.38 26.01 3.31-3.61 6.87-7.16 9.02-11.62 3.29-6.89 2.65-14.76 2.27-22.15-1.03-5.37-.19-10.83-.73-16.23-.55-5.79.43-11.59 1.89-17.17 1.09-4.27 3.32-8.29 3.4-12.78-.01-3.61-1.01-7.12-2.1-10.53-3.87 3.67-7.61 7.55-10.68 11.93m-72.2-8.83c.43 1.8 1.19 3.5 2.45 4.89q.18-3.25.16-6.51zm100.08 16.64c-1.27 3.49.05 7.1.92 10.5 3.08 9.75 4.87 19.85 8.21 29.52 2.6-4.4 3.8-9.42 5.71-14.13 1.59-4.56 4.07-9.14 3.31-14.13a68 68 0 00-10.89-29.14 94 94 0 00-7.26 17.38m-43.82-4.69c-1.76 4.35-3.99 8.68-4.11 13.48-.4 4.55 1.59 8.79 2.57 13.14.77-.54 2.11-.58 2.33-1.66 2.6-8.11 5.66-16.08 9.48-23.7 2.26-4.22-.79-8.69-3.08-12.15-3.7 2.59-5.45 6.9-7.19 10.89m73.94-10.7c-2.65 5.91-4.47 12.14-6.51 18.27-1.49 4.53 1.47 8.7 3.23 12.66 3.23 6.43 5.61 13.23 8.76 19.69 1.98-8.01 2.59-16.29 3.48-24.48.65-4.34-1.78-8.21-3.14-12.15-1.96-4.66-3.28-9.6-5.82-13.99m-126.59 6.56c-.07 5.4 2.59 10.22 4.86 14.95 1.49 3.3 4.28 5.72 6.95 8.07q1.11 1.11 2.57.33c-1.56-1.76-3.24-3.4-4.66-5.26-4.09-5.55-5.85-12.42-9.72-18.09m77.62 30.05c.54 5.31-.05 10.68.62 15.99 3.65-3.96 6.36-8.64 9.35-13.08 2.96-5.21 6.09-10.6 6.76-16.67-1.61 1.16-3.15 2.41-4.69 3.65-1.88-5.46-3.09-11.27-6.78-15.91-4.05 7.93-6.5 17.08-5.26 26.02m95.1-3.9c-1.49 4.54.27 9.48-.6 14.15-1.08 5.17-2.92 10.14-4.09 15.29 1.5 4.58 4.66 9.42 9.71 10.46 4.71 1.26 9.48 2.31 14.31 3.02q-1.57 1.59-3.11 3.22c4.61 1.61 8.87 4.1 13.52 5.6 5.85 1.11 11.88 1.26 17.66 2.87.8 2.39 2.13 5.07.92 7.57-1.34 2.76-3.55 5.55-2.41 8.81 2.3 2.2 5.78 2.48 8.8 2.16 3.57-4.07 4.62-9.82 3.86-15.12 1.64 1.77 3.34 3.52 4.66 5.57 1.66 2.9 1.07 6.56 2.69 9.48 1.93 2.8 5.63 1.54 8.48 2.12 1.58 1.69 2.52 3.88 4.09 5.6.33-3.61-3.63-6.23-2.33-9.83 1.68-5.1-.66-10.08-2.99-14.52 3.77.97 4.76 4.91 6.95 7.59 2.86.98 5.95-.14 8.92-.05 3.28-1.27 3.02-5.31 1.85-8.02-3.3-3.8-8.15-5.64-12.82-7.13-3.39-.95-5.21-4.67-8.75-5.24-3.48-.64-7.05-.54-10.47-1.49-4.93-1.51-10.15.81-15.06-.88-8.41-2.61-15.89-7.43-23.64-11.47-4.96-2.43-5.1-8.61-4.69-13.37-.08-7.01 4.06-14.23 1.09-21.06q-2.71 2.63-5.5 5.18a145 145 0 00-1.11-10.2c-4 2.42-6.93 6.2-9.94 9.69m-57.77 3.16c-1.71 5.61-.89 11.53-1.19 17.3-.45 5.89 1.82 11.44 3.27 17.04 1.12 4.43 3.7 8.26 5.95 12.18 1.12 2.09 3.08 3.47 5.11 4.61 2.65-7.31 2.3-15.18 3.19-22.79.3-4.46 1.53-9.24-.71-13.4-3.99-8.21-6.94-16.92-11.45-24.87-3.08 2.44-3.1 6.47-4.17 9.93m20.37 5.83c-1.17 5.8-.84 11.74-1.83 17.56-1.25 8.77 2.98 17.17 7.91 24.12 3.17-3.05 3.31-7.63 4.46-11.6.53-3.09 2.14-6.23 1.31-9.38-2.15-6.04-2.8-12.44-4.55-18.58-1.18-6.18.97-14.1-4.74-18.54-2.32 5.15-1.56 10.97-2.56 16.42m-39.91-13.85c-3.91 5.58-5.97 12.19-9.62 17.92-2.62 3.69-5.88 7.16-6.96 11.69-.53 5.61-.35 11.3.17 16.91.61 5.07 1.1 10.37 3.73 14.88 3.02-3.8 6.55-7.21 9.26-11.24 3.32-8.93 2.63-18.63 4.33-27.89.49-5.66 2.11-11.23 1.78-16.94 0-2.13-1.45-3.78-2.69-5.33m48.17 6.77c.83 7.84 2.49 15.56 4.12 23.26 2.17 8.55 4.98 17.33 10.82 24.14.59-11.87-.47-23.96-3.88-35.37a152 152 0 00-11.06-12.03m-86.63 10.31c-1.84 1.44-4.26 2.81-4.4 5.44-.54 4.29-1.6 8.51-1.97 12.81.45 5.41.38 10.88 1.4 16.23l1.92.57c1.96-2.77 3.95-5.54 5.59-8.52 2.06-3.54 1.77-7.76 2.29-11.68.53-7.87 4.14-15.13 4.67-23.01-3.61 2.19-6.13 5.68-9.5 8.16m41.49-2.46c-1.91 15.25-4.51 31.09.33 46.08.8 4.04 3.7 7.02 6.64 9.67 4.5-6.48 8.49-13.54 10.74-21.14 1.66-5.61-3-10.26-3.3-15.68-.82-4.46-.95-8.99-1.49-13.48-2.33 3.46-2.76 7.84-5.37 11.17-3.03-6.45-3.56-13.7-6.24-20.27-.56 1.17-1.14 2.35-1.31 3.65m49.97 26.39a100 100 0 00-3.02 12.41c-.12 4.98.84 9.95.43 14.95-.2 8.24-2.85 16.15-3.68 24.3 1.57-.37 3.22-.81 4.18-2.24 2.64-3.37 4.89-7.03 7.42-10.49 2.62-4.52 3.24-9.82 4.2-14.86.53-3.19 1.13-6.46.63-9.68-4.8-3.75-6.24-9.96-10.16-14.39m-15.86 3.05c-.57 3.85-.74 7.74-1.23 11.6-.73 4.5 1.21 8.92.55 13.45-.45 13.63-2.91 27.08-6.52 40.21l.88-.13c-3.04 2.33 2.88 2.49 1.47-.21 5.42-.32 7.82-5.85 9.81-10.1.18-2.86-.1-5.75.5-8.57a2483 2483 0 005.34-30.84c-4.92-4.15-7.17-10.3-10.8-15.41m-77.92 20.13c.89 6.99 2.23 14.03 5.38 20.4.97 2.11 2.68 3.72 4.45 5.18.28-5.02-.61-10.06.15-15.05.64-4.89 1.84-10.06-.06-14.82-1.96-4.75-2.59-9.87-3.73-14.84-3.15 5.88-7.61 12.09-6.19 19.13m21.99-18.38c-2.48 4.22-4.04 8.98-7.1 12.85-1.04 1.37-2.12 2.87-2.13 4.67-.51 6.33-.87 12.67-1 19.02-.36 4.49 1.68 8.66 3.27 12.73a16.5 16.5 0 004.52 9.45c1.85 4.19 6.07 6.99 10.13 8.84-.79-4.33-3.04-8.24-3.58-12.62-.85-6.13-2.3-12.23-2.25-18.45.62-6.96.87-13.95 1.4-20.92a62 62 0 00-3.26-15.57m29.34 28.21c-4.37-3.38-6.79-8.43-10.48-12.4-1.48 12.5-2.61 25.17-1.28 37.73.36 6.54 1.18 13.15 3.72 19.25 2.24 5.43 3.15 11.3 5.42 16.71 1.25 1.71 2.75 4.8 5.33 3.56 2.45-2.71 1.33-6.81 3.04-9.87 1.26-2.98 3.78-5.34 4.43-8.58 1.48-5.92 3.1-11.91 3.01-18.07 0-7.95-.19-15.91-.29-23.85-.8-9.19.83-18.43-.44-27.58-4.58 7.47-7.28 15.97-12.46 23.1m14.09-20.25c-.46 16.19.98 32.33.61 48.53.32 5.25-1.36 10.31-1.69 15.51 2.42-1.61 3.14-4.37 3.8-7.01 6.08-16.16 7.14-33.59 7.61-50.68-1.89-.47-3.81-.83-5.63-1.48-1.86-1.32-3.13-3.27-4.7-4.87m-176.26 17.53.7 3.15q2.37-1.7 4.7-3.42l-1.76-2.81q-1.8 1.56-3.64 3.08m43.08 12.11q1.41 1.62 2.88 3.23l.39-4.4q-1.65.56-3.27 1.17"/><path d="M810.25 224.06c3.02-1.46.01 3.34 0 0m77.15 64.28c.52-1.7 2.1-2.63 3.45-3.63 4.8 7.95 9.4 16.05 14.71 23.68 1.23 2.39 4.15 1.66 6.33 1.47 9.24-1.76 18.51-3.53 27.52-6.33-2.17 10.51-6.45 20.71-6.6 31.54-.31 2.58 2.18 3.89 3.97 5.14 6.72 4.3 14.08 7.43 21.34 10.7-2.6 5.54-8.52 7.77-13.31 10.93-4.48 2.79-9.2 5.44-12.62 9.55-.46 1.94.2 3.92.61 5.82 1.97 8.32 5.26 16.31 6.74 24.75-.42 1.43-2.02 1.62-3.09.8-5.8-3.42-12.57-4.28-18.89-6.29-2.39-.61-4.79-1.6-7.29-1.38-8.27 7.08-13.27 16.95-19.2 25.88-6.53-6.3-9.54-15.12-14.55-22.5-3.23-3.74-8.84-2.41-13.16-2.11-6.88.96-13.54 2.95-20.06 5.28 1.32-9.06 3.6-17.94 5.46-26.9.11-1.54.85-3.73-.77-4.73a2030 2030 0 00-24.77-16.27c3.4-3.05 7.89-4.36 11.57-6.99 4.7-3.27 9.54-6.38 13.87-10.13-1.11-10.46-4.18-20.56-6.54-30.77 8.42 1.5 16.86 2.95 25.25 4.7 2.5.47 5.06.49 7.61.6 4.32-7.5 9.34-14.67 12.42-22.81m3.88 2.65c-.14 17.82.32 35.64.82 53.45 3.96-9.01 7.2-18.32 10.96-27.42 1.8-3.15.01-6.72-1.55-9.57-3.67-5.33-6.53-11.15-10.23-16.46m-14.97 22.28c-1.4 1.59-.94 3.85-.16 5.61 4.15 9.54 8.08 19.2 12.72 28.52.04-18.53.02-37.07-.15-55.59-5.34 6.39-7.73 14.63-12.41 21.46m43.27 10.25c-8.56 9.19-17.46 18.06-25.69 27.55 11.29-4.16 22.09-9.56 33.16-14.26a5.1 5.1 0 003.54-4.9c.99-8.16 4.07-15.9 4.93-24.07-5.78 4.73-10.62 10.47-15.94 15.68m-12.05-9.86c-1.36.17-1.61 1.53-1.99 2.59-3.62 10.46-8.04 20.61-11.76 31.03 13.1-12.07 24.44-25.89 37.13-38.38a209 209 0 00-23.38 4.76m-59.52-3.72c7.14 8.83 15.92 16.12 23.73 24.33 4.87 4.71 9.33 9.87 14.65 14.1-3.29-9.59-7.89-18.66-11.87-27.98-1.15-2.33-2-5.6-5.06-5.9q-10.71-2.39-21.45-4.55m-2.04 1.86c1.48 8.83 5.14 17.1 7.42 25.74 10.42 3.9 20.59 8.46 31.07 12.22-3.06-3.99-6.82-7.35-10.38-10.87-6.7-6.29-13.26-12.72-19.81-19.16-2.75-2.66-5.21-5.64-8.3-7.93m-.63 30.58c-5.15 3.64-11.36 5.77-15.75 10.44 17.89.15 35.78-.02 53.67-.29-8.95-5.1-18.92-8.21-28.24-12.6-3.38-2.01-6.86.72-9.68 2.45m53.38 9.6c4.38.77 8.84.28 13.26.27 13.41-.36 26.82-.11 40.23-.6-3.81-2.17-7.89-3.84-11.57-6.24-4.06-2.3-8-5.2-12.64-6.15-9.84 4.02-19.73 8.06-29.28 12.72m-65.85 3.16c-2.45-1.44-1.32 3.3.53 1.37 1.6 2.11 4.16 3.21 6.28 4.74 4.1 2.48 7.81 5.81 12.45 7.25 3.7-.69 7.08-2.47 10.54-3.89 7.46-3.39 15.11-6.35 22.47-9.95-17.41.73-34.85.41-52.27.48m64.07-.31c9.88 4.88 20.24 8.75 30.49 12.78 3.47 1.48 6.63-1.08 9.41-2.84 4.59-3.65 10.02-6.16 14.2-10.33-18.02.64-36.09-.43-54.1.39m-1.92 2.16c8.44 8.55 16.93 17.06 25.38 25.61 4.95 4.64 9.24 10.1 14.81 14.02-.77-5.84-2.85-11.38-4.04-17.13-.76-2.72-1.07-5.68-2.62-8.08-3.04-2.16-6.65-3.32-10.01-4.86-7.86-3.14-15.56-6.69-23.52-9.56m-40.56 13.42c-3.12 2.68-3.06 7.27-4.17 10.95-.95 5.03-3.71 9.72-3.46 14.94 2.66-2.15 4.96-4.7 7.32-7.17 9.7-10.29 19.98-20.05 29.17-30.82-9.64 4-19.11 8.39-28.86 12.1m-3.41 25.11c6.41.89 12.59-1.82 18.87-2.7 2.69-.16 4.11-2.71 5.03-4.93a516 516 0 0011.61-29.07c-12.09 11.98-23.72 24.43-35.51 36.7m29.73-15.97c-1.38 3.95-3.3 7.7-4.66 11.65.22 3.79 2.67 7 4.57 10.15 3.12 4.53 4.75 10.12 9.11 13.74.14-18.8-.11-37.6-.28-56.4-4.16 6.37-5.94 13.87-8.74 20.86m13.36-19.81c3.62 10.65 9.13 20.51 13.31 30.93 7.92 2.74 15.92 5.91 24.34 6.63-7.02-7.35-14.42-14.35-21.43-21.71-5.35-5.34-10.28-11.16-16.22-15.85m-1.85 2.71q-.53 25.78-.16 51.57c3.61-3.84 5.97-8.61 9.06-12.84a50 50 0 004.42-7.46c-.98-4.67-3.38-8.89-5.04-13.33-2.72-6-4.92-12.26-8.28-17.94m-496.07-75.9a19 19 0 013.83 4.43l11.56 19.4c.79.9 1.16 2.52 2.54 2.69 3.33.28 6.64-.42 9.91-1.05 7.04-1.44 14.19-2.47 21.02-4.77-1.43 10.73-6.07 20.88-6.35 31.77-.31 1.8 1.79 2.47 2.94 3.33 5.4 2.96 10.72 6.09 16.3 8.7 2.8 1.3 5.5 2.84 7.88 4.82-7.51 7-17.72 9.9-25.6 16.36-2.27 1.41-1.19 4.4-.97 6.55 2.28 8.95 4.88 17.84 8.38 26.39-10.65-2.9-21.43-5.54-32.32-7.25-6.03 9.04-11.83 18.22-17.86 27.26-4.07-3.1-6.01-7.98-8.36-12.34-2.21-4.08-4.13-8.35-6.77-12.18-1.64-2.35-4.86-1.84-7.32-1.62-8.62 1.26-16.92 4.03-25.51 5.45 2.2-10.15 6.11-20.02 6.75-30.45-8.46-5.78-16.73-11.96-25.92-16.55l-.33-1.32a24 24 0 017.62-5.5c6.11-2.79 11.57-6.76 17.6-9.71-.17-12.17-5.57-23.36-7.59-35.21 11.05 2.52 21.75 6.76 33 8.36 5.19-9.18 10.22-18.47 15.57-27.56m-1.43 9.48c-1.47.44-1.77 2.18-2.52 3.32a97 97 0 01-7.7 13.11c-2.78 3.69-.73 8.45.79 12.23 3.65 7.8 6.63 15.92 10.49 23.62 1.17-7.38.74-14.87.81-22.31-.13-10.19-.22-20.39-.5-30.57 1.91-3.07-3.59-1.54-1.37.6m3.48-.8c.35 18.35-.07 36.71.2 55.06 2.75-5.12 4.54-10.67 6.79-16.01 2.49-6.5 5.89-12.91 6.17-20-1.96-4.68-5.79-8.26-7.88-12.88-1.09-2.58-3.13-4.48-5.28-6.17m-42.9 16.17c3.17 4.2 7.2 7.62 10.85 11.37 9.04 8.77 17.65 17.98 26.96 26.46-2.22-8.59-6.89-16.25-10.05-24.49-.75-1.84-1.29-3.79-2.4-5.45-4.03-2.54-8.84-3.3-13.38-4.46-4.08-.95-7.6-3.87-11.98-3.43m77.15 1.48c-5.34 1.35-11.04 1.35-16.1 3.64-2.88 1.21-3.55 4.59-4.75 7.15-3.47 9.41-7.47 18.63-10.69 28.13 8.9-9.71 18.77-18.46 27.68-28.16 3.12-3.52 7.22-6.05 10.01-9.87a7.1 7.1 0 00-6.15-.89m-79.51.78a117 117 0 006.77 24.59c1.13 1.63 3.18 2.23 4.88 3.1 9.28 3.93 18.43 8.16 27.94 11.52-8.91-10.55-19.69-19.3-28.88-29.58-3.27-3.52-6.31-7.46-10.71-9.63m76.27 12.63c-8.46 8.65-17.24 17.01-25.49 25.87 8.23-2.3 15.73-6.54 23.71-9.51 3.37-1.32 7.51-2.55 8.85-6.33 1.76-5.04 2.03-10.46 3.6-15.55.84-2.27 1.71-4.54 2.18-6.92-4.67 3.72-8.55 8.31-12.85 12.44m-81.22 20.86c-3.73 2.34-7.8 4.12-11.36 6.72 4.05.8 8.2.39 12.3.39 12.87-.23 25.77.38 38.62-.31-4.67-2.92-10.09-4.19-15.1-6.36a105 105 0 00-13.41-5.16c-4.14.05-7.54 2.86-11.05 4.72m75.4-.69c-5.89 2.59-12.06 4.55-17.75 7.58 9.75.48 19.53.09 29.29.22 7.81-.14 15.64.32 23.44-.33a479 479 0 00-19.49-10.75c-1.23-.48-2.5-1.45-3.88-1.04-4.06.85-7.78 2.78-11.61 4.32m-87.63 10.15c7.41 4 13.4 10.37 21.25 13.54 5.97.14 11.25-3.26 16.64-5.41 6.01-2.85 12.59-4.43 18.34-7.84-10.97-1.32-22.04-.78-33.06-.89-7.73.1-15.49-.35-23.17.6m64.83-.34c9.26 5.2 19.47 8.39 29.06 12.92 2.14.83 4.48 2.49 6.84 1.42 4.93-2.21 9.19-5.63 13.87-8.3a61 61 0 008.32-5.66c-4.87-.87-9.84-.31-14.75-.47-14.44 0-28.9-.21-43.34.09m-34.5 13.94c-2.33 1.07-5.6 1.68-6.02 4.71-2.2 8.01-5.35 15.79-6.9 23.96 5.88-4.26 10.41-10.03 15.58-15.05 7.92-7.9 16.22-15.46 23.3-24.15-8.84 3.04-17.26 7.13-25.96 10.53m37.43-9.45c7.65 8.54 16.28 16.16 24.28 24.38 4.42 4.07 8.19 8.88 13.14 12.35-.21-6.34-2.1-12.5-4.12-18.47-.88-2.45-1.59-5.46-4.39-6.35-9.5-4.28-19.1-8.4-28.91-11.91m-5.54.91c-.29 19.47-.26 38.96-.02 58.43 3.76-5.09 6.21-10.99 9.86-16.16 1.74-2.55 3.21-5.28 4.73-7.97-4.89-11.42-8.97-23.2-14.57-34.3m3 .19c2.97 8.51 6.57 16.78 9.95 25.13 1.03 2.23 1.82 4.67 3.5 6.53 2.57 1.51 5.7 1.41 8.51 2.27 4.88.89 9.65 2.23 14.51 3.23-1.56-2.85-3.95-5.07-6.25-7.3-10.16-9.86-19.79-20.29-30.22-29.86m-25.36 17.82c-6.88 7.21-14.06 14.15-20.82 21.47 5.99-1.67 12.53-1.74 18.18-4.39l1.66.29 5.85-1.29c4.12-11.09 9.3-21.8 12.75-33.13-6.38 5.14-11.77 11.35-17.62 17.05m10.85 6.78c-1.55 4.32-4.8 9.37-1.75 13.8 3.3 5.71 5.21 12.48 10.28 17 1.29-3.28.85-6.84.9-10.26-.16-14.15.22-28.31-.2-42.45-3.89 6.93-5.87 14.72-9.23 21.91m253.41 238.53c1.57-1.31 3.93-3.61 6-1.91 7.24 5.56 10.99 14.17 15.81 21.66 7.92-4.09 15.59-8.71 23.79-12.22q5.95-2.18 11.8-4.68c.76 5.61 1.49 11.24 2.86 16.75.85 5.76 1.3 11.59 2.67 17.27 7.71-1.04 15.31-2.81 23.03-3.82a235 235 0 012.46 23.54c7.67-.11 15.32.27 22.98.66.93 9.09-2.9 17.48-4.96 26.11 4.01-.19 8.01-.52 12.02-.55.26 7.76-2.53 15.14-5.35 22.23-2.35 5.82-4.03 11.89-6.34 17.73-1.9 5.08-5.85 8.99-8.13 13.89-4.8 7.31-9.66 14.95-16.99 20.02-5.98 4.1-11.71 8.72-18.43 11.56a154 154 0 01-23.6 8.08c-6.37 1.63-12.98 1.8-19.49 2.44-5.39.5-10.7-.87-16.07-.7-13.07.53-26.14-.86-39.02-2.96a75.7 75.7 0 01-39.15-18.89c-8.11-7.53-17.03-14.73-22.39-24.6-2.19-5.7-5.59-10.89-7.24-16.8-2.63-8.77-5.19-17.73-5.2-26.95 5.28-.82 10.66-.48 15.94-1.38-1.01-4.86-3.5-9.39-3.66-14.42-.1-3.54-.24-7.09-.21-10.62a43 43 0 0117.58-1.77c1.55-7.61 1.52-15.44 3.17-23.03 7.1.68 13.96 2.85 21.05 3.68-.79-10.59 1.95-21.08 6.23-30.69 7.69 1.99 15.57 3.37 23.02 6.22a118 118 0 009.73 3.02c5.34-6.31 10.23-13.02 16.09-18.87m-8.74 14.1c-5.05 7.05-10.54 13.98-13.74 22.13-2.13 5.02-4.87 9.82-6.51 15.04-.93 6.33-4.02 12.09-5.16 18.37-2.45 10.24-5.53 20.65-4.9 31.29 5.94 4.05 12.48 7.33 17.67 12.4 5.41 4.27 9.73 9.66 14.32 14.75 6.17 7.11 10.22 15.86 12.51 24.95-.61-1.94-.59-3.98.53-5.73 3.36-6.41 5.86-13.3 10.02-19.27 2.45-3.86 5.86-6.96 8.48-10.69 4.78-6.84 11.49-12.09 18.54-16.43 2.23-1.24 2.68-3.88 3.59-6.04-2.72-5.39-2.56-11.54-4.48-17.17-1.71-5.34-2.2-11.03-4.67-16.12-2.71-9.09-6.68-17.71-11.01-26.12-6.24-12.35-11.96-25.35-21.37-35.69-4.65 4.73-9.48 9.31-13.82 14.33m38.72 5.87c-1.96 1.69-5.9 3.28-4.44 6.53 2.29 5.17 5.13 10.1 8.17 14.87 1.93 3.13 2.25 7.04 4.41 10.03 4.25-.76 7.52-4.31 11.51-5.94 3.25-1.88 8.31-3.11 8.78-7.5.36-4.46 1.3-8.98.37-13.42-1.13-5.88-.8-12.13-3.49-17.64-8.46 4.31-18 6.76-25.31 13.07m-77.13-7.53c-3.35 9.8-3.26 20.26-1.54 30.37 5.98 1.39 11.05 4.81 16.58 7.27 1.97-3.53 3.37-7.32 5.02-11 2.89-5.54 6.77-10.64 8.4-16.76-9.05-4.29-18.39-8.8-28.46-9.88m105.36 30.88c-6.64 2.85-12.71 6.85-18.92 10.51 2.45 6.96 5.64 13.68 7.31 20.9 2.32 7.12 3.75 14.51 6.41 21.53 6.77-1.52 13.03-4.66 19.65-6.7 2.2-5.82 4.89-11.47 6.37-17.54 2.67-11.71 4.32-23.73 3.34-35.76-8 2.54-16.17 4.52-24.16 7.06m-132.95-4.07c-1.05 13.5.55 27.4 5.77 39.95 1.49 3.97 2.59 8.22 5.16 11.66 6.59 2.9 13.71 4.51 20.26 7.57a24 24 0 001.36-7.39c.34-8.29 2.7-16.28 4.63-24.3 1-4.33 3.23-8.27 4.25-12.59-3.17-5.83-10.8-6.54-16.21-9.45-8.26-2.42-16.85-3.47-25.22-5.45m161.01 22.96c-1.93.28-2.74 2.21-2.99 3.92-.88 7.44-3.73 14.37-6.07 21.42 7.72-1.15 15.54-1.14 23.29-2.02 2.93-8.62 6.98-17 7.36-26.26a99 99 0 00-21.59 2.94m-180.65 1.26c.87 6.27 1.89 12.59 4.51 18.41 1.06 2.13 1.7 5.11 4.43 5.67 5.7 1.43 11.62 1.57 17.41 2.52-2.02-2.75-4.09-5.52-5.33-8.72-2.59-5.6-2.84-11.84-4.38-17.74a59 59 0 00-8.45-2.39c-2.94-.55-5.55 1.29-8.19 2.25m164.2 30.5c-6.76 1.03-12.87 4.14-19.1 6.74-5.14 2.24-9.65 5.62-14.22 8.8-4.41 4.57-8.68 9.3-13 13.94-3.82 7.07-8.03 13.93-11.85 20.99-2.86 9.15-5.9 18.57-4.82 28.3 13.11.39 26.48.28 39.08-3.81 6.91-2.31 14.23-3.87 20.59-7.54 9.23-6.56 18.32-13.56 25.6-22.31 2.51-4.74 5.45-9.22 8.27-13.76 5.65-12.09 12.25-24.19 13.79-37.65-5.28.46-10.59.36-15.87.67-9.46 2.1-19.31 2.3-28.47 5.63m-175.72-3.6c2.09 9.22 3.1 18.75 7.1 27.43 4.12 8.51 8.43 17.13 14.72 24.31 8.77 8.69 17.92 17.4 29.11 22.92 11.94 5.48 25.02 7.85 38.03 9.11 6.62.6 13.18-1.06 19.81-.69-.13-6.71.97-13.66-1.2-20.15-3-8.24-6.93-16.12-11.16-23.78-5.78-7.73-12.06-15.5-20.46-20.51-5.15-3.25-10.21-6.75-15.91-8.98-9.08-3.19-18.31-6.04-27.84-7.52-10.57-2.39-21.44-2.28-32.2-2.14"/></g><g fill="#ff0"><path d="m850.27 43.25 2.99-1.62c2.09 2.67 4.07 5.73 3.86 9.28-.09 10.69-1.31 21.41-4.45 31.66-4.75 4.84-7.23 11.32-11.79 16.34-4.73 6.53-9.89 12.71-15.06 18.89-4.08 4.27-7.21 9.48-12.11 12.92-5.12 3.96-11.68 5.03-17.9 6-3.33.56-6.69-.01-9.93-.72 5.91-8.02 12.72-15.32 19-23.05 1.88-2.51 4.98-3.92 6.25-6.91 1.92-3.88 5.48-6.45 8.38-9.55 1.98-2.06 2.85-4.97 5.13-6.8 4.23-3.6 6.34-8.9 10.17-12.88 6.67-10.31 13.85-21.1 15.46-33.56m-417.82 1.47c1.65 7.36 5.49 13.88 9.73 20.02 4.12 7.33 9.54 13.77 14.58 20.46 3.69 5.22 8.15 9.83 12.49 14.5 2.76 3.02 6.49 4.89 9.42 7.68 3.97 6.29 5.73 14.26 11.14 19.47.02-1.53-1.04-2.75-1.67-4.06-3.52-6.06-6.78-12.59-7.04-19.73l2.75-.21a86 86 0 0011.98 17.34c3.32 3.56 8.31 5.14 11.26 9.07a5.8 5.8 0 004.58 2.96c1.32.22 2.58.73 3.76 1.4 6.71 3.72 13.26 7.84 19.21 12.71 10.26 10.04 19.95 21.98 22.55 36.49.78 4.42 1.61 8.99 1.22 13.48-.28.27-.86.79-1.15 1.05-.79-6.2-1.12-13.13-5.76-17.88-3.51-3.54-7.06-8.13-12.47-8.37-2.49.02-3.66-2.43-5.18-3.98-3.69-4.46-9.09-6.88-13.54-10.43-8.68-6.91-16.3-15-24.19-22.77-2.07-1.77-3.16-5.12-5.88-5.82 2.47 4.31 6.22 7.69 8.96 11.82-5.84-1.32-11.83-1.05-17.71-1.61-7.7-4.17-13.82-10.72-19.65-17.15-7.68-7.46-13.92-16.2-20.18-24.83-4.26-5.67-6.41-12.51-9.02-19.01-1.83-4.52-2.13-9.48-1.77-14.29.45-6.11.69-12.24 1.58-18.31"/><path d="M851.8 87.82a19 19 0 0110.47-2.4c1.68 5.59-1.67 10.88-3.37 16.05-4.12 8.82-8.38 17.6-13.49 25.9-4.37 3.68-7.26 8.74-11.67 12.38-7.45 6.54-13.44 14.66-21.51 20.48-3.55 3.05-6.48 7.53-11.44 8.28-4.95.29-9.9-.21-14.82-.62 4.89-4.51 8.61-10.01 12.65-15.24 3.82-5.03 5.52-11.47 10.03-16 10.99-8.31 19.77-19.09 28.02-30.03 5.41-5.97 9.67-12.89 15.13-18.8m-425.14-.15c3.53.01 7.19 1.35 9.23 4.35 10.51 14.04 21.29 27.99 34.03 40.1 3.47 3.27 7.78 5.46 11.32 8.63 2.94 2.65 4.29 6.46 6.19 9.83 3.61 6.57 8.87 12.02 12.87 18.33-4.91.02-9.82.3-14.57 1.61-1.81.74-3.06-.96-4.22-2.03-6.2-6.47-12.51-12.84-18.63-19.4-7.77-8.18-16.77-15.27-23.58-24.33-5.97-9.8-9.24-20.93-12.18-31.94-.35-1.7-.39-3.43-.46-5.15m144.17 11.19c5.93-1.85 12.15-.04 17.93 1.54 9.19 3.46 18.56 6.46 27.62 10.26 5.07 2.25 10.68 1.81 16.05 2.52-3.17 3.95-8.79 3.09-13.2 2.45-6.17-1.35-12.44-2.2-18.65-3.29-8.09-1.39-15.62-4.92-23.65-6.52-3.27.24-6.33 1.8-9.63 1.78-2.45-.53-3.79-2.87-3.99-5.21 2.41-1.35 4.81-2.84 7.52-3.53m222.01 16.96c5.15-3.37 8.07-9.8 14.01-11.93-.13 1.7.21 3.61-.91 5.05-3.84 5.4-7.96 10.64-12.9 15.07-8.04 10.22-16.56 20.14-26.56 28.46-8.02 8.1-18.06 13.82-25.85 22.16-4.06 3.66-6.91 8.42-11.05 11.99-.63-5.87 1.29-11.57 2.99-17.1 2.71-6.28 4.86-13.14 9.8-18.11 7.63-6.54 16.25-11.78 24.77-17.08 6.91-4.29 14.73-7.78 19.86-14.33 1.62-1.8 3.83-2.88 5.84-4.18m-251.66-8.58c4.46-3.03 9.92-1.24 14.88-1.19 2.98.35 6.95.28 8.56 3.33 2.89 5.4 6.49 10.39 9.2 15.9 2.93 4.61 7.06 8.38 9.63 13.27-5.95.19-12.04-.82-17.24-3.82-6.28-3.7-15.63-2.03-19.74-9.12 5.94 1.4 12.23 4.3 18.2 1.23-2.37-1.6-5-2.74-7.49-4.13-2.72-1.54-4.83-3.98-7.66-5.33-4.57-2-9.75-2.02-14.49-.68 1.28-3.53 2.39-7.77 6.15-9.46"/><path d="M578.97 107.77c2.68.66 5.34 1.52 7.69 3a32 32 0 01-9.88 3.09c1.39-.99 2.85-1.88 4.3-2.81q-1.07-1.64-2.11-3.28"/><path d="M568.01 109.88c3.3 1.43 5.29 5.12 8.98 5.68 4.8-.1 9.12-3.15 14.01-2.72 8.1.69 15.87 3.23 23.85 4.61 2.73.76 5.53 1.27 8.39 1.08 3.99 4.12 8.79 7.35 13.02 11.23 2.59 2.45 5.86 4.33 7.6 7.54-4.08.32-7.78-1.84-11.83-1.89a66 66 0 01-13.97-1.8c.02 5.71-.06 11.44-1.09 17.07-4.56-3.46-8.37-7.76-12.25-11.93-.7 5.14-.52 10.39-1.59 15.49-3.14-3.03-5.45-6.83-8.92-9.52-2.85-2.49-6.16-4.44-8.79-7.17-6.88-8.45-13.59-17.37-17.41-27.67m273.98 24.07a28 28 0 019.46-3.11c-.88 4.8-2.52 9.41-3.49 14.19-1.05 5.32-4.44 9.68-6.59 14.56-2.99 4.52-5.63 9.46-10.01 12.81-7.12 8.64-17.57 13.31-26.9 19.09-4.13 3.01-9.13.26-13.72.82a22 22 0 005.17 2.24c-1.88 2.54-3.77 5.2-6.54 6.85-8.04 5.7-17.2 11.65-27.53 10.62 3.49-3.35 5.34-7.98 8.8-11.38 3.3-4.17 7.82-7.11 12.51-9.51 2.32.09 4.6.62 6.92.87-1.38-.93-2.78-1.79-4.17-2.67 7.2-7.01 11.73-16.67 20.41-22.13 7.8-5.73 14.33-12.95 21.7-19.19 4.68-4.67 8.45-10.3 13.98-14.06m-407.05-.89c5.21 1.16 11.02 2.07 14.85 6.16 11.69 11.31 22.99 23.02 34.59 34.42 5.59 5.45 12.07 9.91 17.51 15.53-5.58 2.49-11.62 3.74-17.65 4.48-8.86-5.19-15.93-12.98-24.8-18.22-3.84-2.74-6.74-6.55-10.27-9.66-4.37-4.96-7.26-11.04-9.86-17.06-2.01-5.03-4.23-10.15-4.37-15.65"/><path d="M619.98 136.15c8.25.79 16.72.77 24.5 4.05l-.06-3.06a67 67 0 0114.38 19.04c-7.2-1.13-11.83-7.44-18.03-10.66-.63 6.71 1.29 14.17-2.91 20.08-4.14-4.27-6.93-9.64-11.11-13.87-.32 5.64-2.13 11.03-4.61 16.06-2.53-2.43-3.22-6.1-5.81-8.45 3.61-7.15 3.09-15.42 3.65-23.19m174.05 2.3c3.89.04 7.54-1.51 11.32-2.25-1.94 5.95-5.62 11.08-8.63 16.51-7.23 10.77-18.08 18.45-29.18 24.83-5.66.37-10.96 2.54-16.52 3.48.57-4.6.76-9.24 1.53-13.82.19-1.7 1.87-2.57 3.02-3.62 9.77-7.84 19.34-16 27.82-25.25 3.54.01 7.09.15 10.64.12m-308.92 2.44a223 223 0 0119.46 4.56c6.01 4.21 10.52 10.22 16.59 14.36 4.95 3.3 9.33 7.33 13.8 11.23 3.07 2.67 3.25 7.03 3.98 10.75-3.91-.46-7.84-1.23-11.79-.94-1.36.58-1.5 2.31-2.26 3.42a71 71 0 01-14.33-9.85c-4.02-3.63-8.88-6.44-11.97-11.01-5.04-7.14-10.59-14.15-13.48-22.52m120.9 3.93c3.6 3.16 6.98 6.56 10.22 10.09-2.73 5.31-2.51 11.39-3.82 17.08q-3.36-7.51-6.55-15.08c-.62-3.98.05-8.08.15-12.09"/><path d="M642.9 150.36c5.01 2.39 9.41 6.38 15.11 7.04 1.11.3 2.56.21 3.21 1.38 2.68 4 5.1 8.17 7.55 12.32 1.72 2.71.8 6 .31 8.92-.78 3.29-1.44 7.09-4.37 9.2-2.76-8.5-4.61-17.38-8.53-25.45.22 4.59 1.72 9.3.35 13.85-1.26 3.7-3.39 7.03-5.54 10.27-3.6-7.35-5.7-15.52-10.93-21.96 1.56-5.08 2.07-10.34 2.84-15.57m-14.49 5.62a33 33 0 018.14 11.28c4.12.55 4.84 5.3 4.57 8.71a52 52 0 01-6.16 14.92c-2.67-5.8-3.98-12.48-8.73-17.09-.72 2.62-1.16 5.43-2.86 7.64-3.1 4.14-4.65 9.35-8.69 12.79-.48-5.75-1.09-11.49-1.64-17.22.24-4.07 1.92-7.92 2.32-11.99l7.08 7.63c2.44-5.39 3.75-11.19 5.97-16.67m154.88 13.37c4.89.66 9.85.66 14.74 1.38-4.25 6.92-9.29 13.52-15.58 18.7-5.57 3.93-11.2 9.1-18.46 8.96a9.8 9.8 0 01-7.6-2.95c3.66-4.25 5.11-9.94 9.07-13.96 1.95-2.2 4.67-3.43 7.24-4.77 3.83-2 6.66-5.51 10.59-7.36m-297.13 3.51c4.98-2.1 10.85-4.23 16.15-2.1 7.35 5.69 14.44 11.83 22.75 16.15 1.71 4.26 2.57 8.91 4.8 13-4.53.07-9.28.02-13.2-2.58-5.23-3.34-10.68-6.5-15.07-10.94-4.91-4.78-10.53-8.75-15.43-13.53"/><path d="M732.14 189.26c3.31-8.05 10.14-13.84 17.16-18.63-.59 4.84-1.67 9.6-2.37 14.42 4.94-1.23 9.71-3.08 14.69-4.18-2.14 5.98-6.08 11.09-8.73 16.85 4.77.89 9.54 1.86 14.32 2.73-3.3 5.13-7.28 9.76-11.14 14.46 4.12 4.16 10.18 6.34 13.05 11.69-5.62 3.83-12.6.79-18.57 3.37 2.59 6.49 8.02 11.17 11.7 16.98-3.58.97-7.39 1.76-11.04.73-2.77-.8-5.51-1.77-8.39-2.02 2.22 5.51 5.76 10.35 8.36 15.68-2.07.1-4.15.2-6.19.46 1.51 2.72 5.24 1.69 7.83 2.33.55 7.78 1.21 15.56 1.28 23.36-2.55-3.46-4.27-7.44-6.7-10.96-3.84-4.32-7.51-8.8-10.79-13.54l.52-1.8c2.76-.48 5.18 1.27 7.73 2.01l-.7-2.03c-3.59-1.61-7.4-2.96-10.13-5.94.29 5.46 2 11.44-.32 16.6-6.72-.52-11.01-6.39-16.59-9.35 1.26 6.55 2.63 13.55-.31 19.89a39 39 0 01-7.9-9.26c-1.46-3.47-1.27-7.34-1.89-10.99-1.61-5.53-4.72-10.55-5.77-16.26-1.24-7.51-4.53-14.44-6.6-21.7 6.75-.57 13.27 1.78 19.59 3.81 4.56 1.41 8.53 4.18 13 5.8 2.77.95 5.57-.44 8-1.68a14.3 14.3 0 007.03-9.56c1.47-4.93-2.03-9.43-4.24-13.54-1.47-3.05-4.07-5.22-6.36-7.61-1.26-3.87-1.58-8.43.47-12.12M540.3 172.8c3.68 2.54 6.84 5.75 10.2 8.69 4.27 3.44 4.09 9.49 4.56 14.45-.27 2.84.91 6.47-1.59 8.56-3.81 3.82-7 8.44-8.29 13.74-.27 3.09 1.44 5.91 2.82 8.56 2.51 5 8.64 6.75 13.86 6.16 10.21-2.23 19.64-7.97 30.28-8.13-2.54 6.19-6.5 11.85-7.66 18.55-1.35 7.49-3.05 14.99-3.17 22.63-.08 1.96-.13 4.23-1.72 5.64-3.28 3.09-7.42 5.1-11.64 6.58-.06-5.46.85-10.87.87-16.33-4.8 4.04-10.81 6.11-16.64 8.15-.19-5.1.63-10.16.86-15.24a34 34 0 01-15.3 6.37c2-5.2 5.06-9.9 7.28-15-5.5.34-10.98 1.95-16.5.96 1.85-6.15 5.14-11.9 9.9-16.26-6.1-.44-13.34.26-17.8-4.85a32 32 0 0113.07-6.95c-2.56-4.37-8.01-6.8-8.89-12.14-.13-1.54-1.16-3.54.16-4.8 3.21-1.24 6.38.38 9.23 1.76-2.59-3.72-3.84-8.09-5.74-12.15-1.31-2.93-1.07-6.21-.88-9.32 4.23.85 9.01.62 12.62 3.35q1.8 1.27 3.66 2.5c-1.8-4.99-3.87-10.06-3.55-15.48m-96.34 5.52c1.72-.94 3.47-2.33 5.55-1.67 4.24 1.03 9.33-.22 12.74 3.07 8.03 6.36 16.34 12.35 24.52 18.51 7.2 5.17 15.63 8.32 22.76 13.58-3.55 1.72-7.04 3.6-10.67 5.14-6.99-.43-13.41-3.5-19.89-5.86-4.7-4.54-10.84-7.09-15.91-11.14-3.87-3.07-9.1-4.67-11.66-9.18-2.33-4.28-7.03-7.24-7.44-12.45m199.38-2.41c3.47 4.96 4.8 10.92 6.94 16.48 4.3-4.11 5.76-10.11 8.78-15.08 2.61 4.92 3.09 10.53 4.4 15.85 5.43-3.11 6.48-9.72 8.27-15.16 4.61 6.12 6.57 13.67 9.31 20.72 3.28 8.55 3.94 18.3.34 26.87-4.58-5.96-8.34-12.51-11.77-19.19-1.49-2.82-1.37-6.07-1.67-9.16l-3.14-.38c.03 7.85.48 15.84-2.08 23.4-5.04-6.63-5.62-15.31-9.12-22.69-5.83 5.59-6.39 14.09-9.78 21.02-3.54-5.92-5.88-12.49-9.77-18.21-3.67 4.16-5.43 9.52-8.76 13.9-.61-4.96-.87-10.1-3.07-14.68-4.31 7.78-7.89 16.09-13.68 22.94-1.05 1.39-2.64 2.11-4.24 2.63-.8-3.27-1.52-6.64-1.39-10.02 2.49-4.18 6.99-6.83 9.04-11.33 1.44-3.1 2.85-6.24 4.86-9.03 3.79-5.36 6.81-11.21 10.48-16.65 3.87 4.63 6.24 10.48 6.04 16.58 5.91-4.55 6.95-12.44 10.01-18.81m183.35 4.9a74 74 0 0113.22-2.71c-2.08 5.38-3.73 11.55-8.61 15.13-2.69 2-4.94 4.55-7.82 6.29-4.66 2.83-8.6 7.13-14.2 8.05-5.99 2.35-11.83 5.1-17.91 7.23-2.86-2.69-6.36-4.47-10.02-5.75 4.93-3.65 10.57-6.36 14.96-10.73 4.89-5.32 12.07-7.36 18.22-10.81 4.39-1.65 7.6-5.46 12.16-6.7"/><path d="M487.72 196c4.89-2 9.91-4.22 15.29-4.3 2.7-.04 4.85 1.85 6.9 3.37 3.22 2.65 7.42 3.74 10.62 6.45 1.6 2.53 2.47 5.44 3.53 8.23-5.22.21-10.93 1.65-15.7-1.18-7.07-3.85-14.47-7.32-20.64-12.57m341 2.68c3.4-1.73 7.32-1.51 11.01-1.14.58 4.66-2.83 8.31-5.5 11.69-2.9 3.59-7.47 4.87-11.63 6.37a63 63 0 01-23.08 6.23l-1.14-4.05c-4.72 3.11-9.55 6.51-15.26 7.42-3.16.44-6.39 1.53-9.57 1.07-5.1-3.44-10.11-7.17-14.53-11.47 3.7-1.48 7.74-1.39 11.59-2.25 3.15-.59 6.16-1.81 9.36-2.16 4.5 1.82 8.51 4.68 13.02 6.49 6.03-4.41 13.67-5.4 20.3-8.63 5.77-2.13 9.95-6.91 15.43-9.57m-383.61 2.39c4.38-2.35 9.46-2.12 14.22-1.26 2.5.82 4.26 2.95 6.48 4.29a92 92 0 0013.16 6.99c4.64 4.09 10.73 5.41 16.5 7.09-2.14 2.74-4.52 5.41-7.58 7.12-2.49.25-4.68-1.56-7.03-2.19-9.92-3.3-19.68-7.51-27.91-14.03-2.64-2.65-5.19-5.37-7.84-8.01m207.08-.44c.77.95 1.7 1.83 2.22 2.98 2.83 6.69 3.65 14.16 7.36 20.5.98 1.7 1.61 3.67 1.04 5.62-1.78 8.33-3.26 16.86-7 24.58-2.62-4.35-3.22-9.48-4.98-14.17-1.82-5.04-4.37-9.79-6.08-14.87-.9-2.55-.33-5.3.83-7.66 2.54-5.53 3.67-11.62 6.61-16.98m-19.01 3.22c6.23 6.67 11.04 16.53 7.13 25.59-2.21 3.77-2.08 8.24-3.58 12.25-1.58 4.33-3.26 8.66-5.6 12.65-3.41-8.81-5.66-18.05-7.34-27.33-.65-4.24.37-8.74 3.1-12.09 2.52-3.43 4.25-7.34 6.29-11.07m-25.44 21.88c5.23-6.65 8.69-14.54 14.26-20.94 1.2 2.52 2.22 5.24 1.9 8.09-.64 6.11-.26 12.5-2.65 18.29l-4.57 11.46c-1.96 5.12-5.1 9.66-7.27 14.69-2.41-8.5-2.96-17.44-4.02-26.19l-2.37-.44c-.01 1.88 1.01 3.95.27 5.73-4.66 6.26-11.82 10.1-16.37 16.44l-1.85.2c.04-4.18 2.24-7.81 3.23-11.77 1.55-5.92 3.81-11.72 7.38-16.72 1.62-2.04 3.34-4.39 6.13-4.74.42 3.18.46 6.39.57 9.6a10.5 10.5 0 005.36-3.7m56.82-1.67c.03-6.32.78-12.72 3.06-18.64 3.2 5.15 6.89 10.16 8.56 16.07 1.14 1.96 2.77 3.59 3.97 5.54q1.53-.5 3.1-.97a58 58 0 01-4.25 24.96c-.87 2.2-2.37 4.05-3.92 5.79-3.73-7-7.71-13.91-10.42-21.38-1.33-3.68-.12-7.59-.1-11.37m-163.74-6.2c6.01-3.86 12.98-6.22 20.19-5.64 3.84-.77 6.28 2.83 8.37 5.44-4.12 2.44-8.43 4.75-11.65 8.39 3.79 4.24 9.17 6.24 14.72 6.82-2.22 5.67-6.32 10.49-7.4 16.61 5.28-.37 10.56-.99 15.86-.83-2.17 4.1-3.49 8.58-5.52 12.72-2.36 2.22-5.55 3.22-8.42 4.6-4.4 1.8-8.52 4.27-13.11 5.6 1.51-6.71 3.99-13.19 5-20.03-6.44 1.68-12.87 3.6-19.55 4.03A56.6 56.6 0 01511.05 233c.59-.82 2.58-2.99.55-3.34-6.77-1.26-13.72-1.8-20.37-3.74 1.68-4.15 6.2-5.65 9.59-8.06"/><path d="M819.94 218.87c4.79-2.14 10.33-2.92 14.24-6.7 2.62 1.77 4.66 4.21 6.78 6.54-9.19 3.07-18.82 4.21-28.45 4.66 3.47 2.16 7.68.47 11.5.68 6.8.12 12.99-3.44 19.73-3.74 1.87 1.45 5.24 3.71 2.93 6.25-3.9 6.55-11.87 8.1-18.67 9.9-6.18-.05-12.44.77-18.58-.08-4.35-1.26-8.72-2.44-13.26-2.77-5.82-1.31-11.39-3.57-16.81-6.03 9.32-3.34 19.38-2.26 29.05-1.65-1.97-.8-3.99-1.43-5.94-2.25 6.01-.86 11.73-2.96 17.48-4.81m-9.69 5.19c.01 3.34 3.02-1.46 0 0m-361.46-3.59c2.81-2.61 6.5-7.51 10.74-5.02 2.65 1.3 5.02 3.11 7.72 4.33 4.58 2.2 9.87 2.69 14.12 5.62-11.08 3.18-22.04-2.08-32.58-4.93m235.42 5.31c-1.15-3.59.46-7.3 1.75-10.62 2.53 3.13 2.53 7.31 3.98 10.91 3.23 6.45 6.66 12.91 8.37 19.97-4.47-3.21-8.84-6.73-12.08-11.21-2.16-2.55-1.05-6.09-2.02-9.05"/><path d="M438.89 226.91c1.8-3.68 6.67-6.75 10.65-4.58 7.45 3.26 15.58 4.25 23.47 5.92 6.58 1.31 13.21-1.41 19.78-.06 4.47.87 8.96 1.58 13.42 2.53-5.15 2.08-10.65 3.06-15.97 4.58-8.42 2.15-17.19 1.6-25.78 2.34-3.54.1-7.54.72-10.6-1.5-2.91-1.91-6.27-2.97-9.2-4.83-1.93-1.45-3.79-3.01-5.77-4.4m324.15 4.18c3.51-.21 6.26-2.8 9.61-3.53 3.49 3.19 6.76 6.83 8.49 11.31 1.64 4.27 4.92 7.56 7.51 11.25-5.72 3.11-12.25 2.96-18.54 2.52q.12 10.08.97 20.12c-5.08-3.93-10.65-7.2-15.81-11-4.03-3-5.68-7.93-7.4-12.42 5.43.36 10.89.98 16.26-.32-.09-1.44.34-3.12-.89-4.21-3.64-3.98-6.95-8.29-9.4-13.12 3.02-.75 6.12-.45 9.2-.6m-126.67 15.28c2.24-6.23 3.66-12.87 7.24-18.52 3.94 7.09 6.71 14.75 9.06 22.49.85 3.15.89 6.45.86 9.69-.71 9.68-6.12 17.99-9.75 26.74-3.79-6.31-6.1-13.37-9.69-19.79-1.27-2.74-3.63-5.73-2.25-8.87 1.39-3.96 3.23-7.75 4.53-11.74m139.53-18.6c6.78 2.81 13.34 6.42 20.68 7.55 4.2.63 8.31 1.73 12.49 2.55 6.78.84 13.73.04 20.43 1.63 3.21.49 4.74 3.68 6.77 5.85-2.03 1.27-3.59 3.86-6.29 3.43-3.29-.25-6.33 1.08-9.25 2.4l-.61-2.37c-2.52.86-4.79 2.28-7.25 3.24-4.3 1.21-8.49-1.03-12.77-1.15-3.49-.57-7.72.19-10.36-2.68-3.61-2.99-5.23-7.5-7.55-11.42-1.77-3.23-4.17-6.04-6.29-9.03m-153.49 4.86c1.96 3.74 2.92 7.87 4.24 11.86 1.19 3.74 2.61 7.5 2.72 11.48.24 5.82-1.46 11.48-3.25 16.96-1.53 4.92-3.39 9.79-6.16 14.17-3.33-3.67-3.9-8.76-6.06-13.05-2.21-4.35-3.93-9.09-4.03-14.01.27-3.4 2.52-6.17 4.14-9.04 3.69-5.7 5.19-12.43 8.4-18.37"/><path d="M493.98 236.99c4.43-.7 8.57-2.59 12.99-3.4a269 269 0 01-5.68 11.73c-1.29 2.52-2.96 5.15-5.75 6.16-6.87 2.52-14.14 4.25-21.51 3.78-8.1-.46-16.98-2.06-22.74-8.31 1.09-2.58 2.26-5.53 4.94-6.84 3.58-.2 7.19.61 10.74-.12 8.91-1.78 18.04-1.68 27.01-3m190.9-.14c2.39 2.39 4.6 4.95 6.77 7.54 2.83 3.44 7.13 6.06 7.89 10.81.76 5.18 1.11 10.67-.8 15.67-1.14 3.18-2.05 6.46-3.29 9.6a28 28 0 00-3.14 6.57 82 82 0 01-3.09-7.33c-2.95-7.48-8.19-13.71-13.02-20.02 3.42-7.4 8.18-14.45 8.68-22.84m-96.51 21.54a77 77 0 0115.96-21.43c1.2 6 1.34 12.14 2.59 18.14.74 3.45.99 7.43-1.58 10.24-4.38 5.22-7.37 11.39-11.34 16.9-3.34-7.48-6.32-15.53-5.63-23.85m74.88-19.37c4.76 6.38 7.88 13.81 10.97 21.09-.26 4.02-2.21 7.64-3.91 11.21-2.6 5.25-4.85 10.67-7.59 15.85-3.26-4-3.74-9.22-4.94-14.04-.94-3.78-4.28-7.56-2.29-11.56 3.13-7.33 4.4-15.31 7.76-22.55m115.42 16.45c4.04-.33 7.77-1.83 11.49-3.28 4.75.36 10.86-.94 14.15 3.44a37 37 0 015.27 10.69c1.15 5.22-.52 10.72 1.11 15.88.9 2.88 1.56 5.85 1.38 8.9a13.4 13.4 0 01-11.44-4.72c-2.51-5.02-6.38-9.19-8.82-14.25-3.4-6.27-8.23-11.55-13.14-16.66m-293.99 4.22c3.7-2.99 7.69-6.07 12.55-6.72l-.83 5.19q2.79-.05 5.61-.03c-7.38 8-9.95 18.79-13.08 28.88-.93 4.17-5.77 5.63-9.53 5.72-1.79-1.27-.67-3.98-.88-5.85.64-5.65-2.25-11.57.45-16.94 1.61-3.55 2.4-7.81 5.71-10.25"/><path d="M505.04 258.07c3.39-1.97 7.3-2.72 10.96-4.04a68 68 0 01-4.01 15.97c-1.47 2.52 1.31 4.86.44 7.39-1.44 5.89-3.94 11.52-4.62 17.58-.42 3.26-1.07 6.49-1.45 9.76-.08 2.35-2.51 3.34-4.21 4.41-3.01 1.55-5.81 3.68-9.24 4.21-4.73-13.47-2.97-28.65 2.9-41.51 2.13-5.1 4.72-10.36 9.23-13.77m266.98-3.23c9.5 4.61 15.69 13.45 20.85 22.32 1.68 3.27 5.29 6.17 4.65 10.18-.87 8.23 1.02 16.81-1.56 24.81-6.05-2.82-12.5-6.13-15.85-12.21-3.52-8.66-5.11-17.9-7.31-26.94-.03-6.07-.63-12.1-.78-18.16m-238.55 10.65c5.63-2.23 11.33-4.37 16.98-6.59-.14 3.94 1.02 8.41-1.68 11.77-4.31 6.1-10.19 11.82-17.67 13.58 1.05-6.22 1.31-12.55 2.37-18.76m52.79-2.93c1.72 4.37 1.84 9.19 3.73 13.51 1.18 3.41 3.55 7 1.84 10.66-2.59 6.98-2.07 15.03-5.89 21.5a102 102 0 01-2.31-27.21c.31-6.18-.72-12.91 2.63-18.46m8.04 23.72c4.01-8.16 8.49-16.26 14.23-23.36 2.58 10.67 8.57 20.27 10.31 31.18.36 3.55-1.11 6.91-2.73 9.98-2.79 5.2-5.12 10.66-8.37 15.62-2.52-4.22-3.99-8.94-6.07-13.36-3.13-6.4-5.96-13.08-7.37-20.06m72.6-4.34c3.09-6.5 5.93-13.16 9.86-19.21 4.32 4.46 6.71 10.24 10.05 15.38 2.65 5.44 5.67 11.44 4.23 17.67-1.11 3.38-2.95 6.46-4.53 9.63-2.76 5.19-4.67 10.91-8.6 15.4a276 276 0 01-7.41-19.4c-1.49-3.72-3.9-6.97-5.63-10.57-.73-3.08.95-6.1 2.03-8.9m35.33-19.41c2.1 3.84 1.14 8.32 1.81 12.48a98 98 0 01-2.62 30.32c-2.67-4.71-1.79-11.26-6.85-14.56 2.64-9.38 7.09-18.36 7.66-28.24m-75.06 11.82c1.23-3.53 1.88-7.24 3.32-10.7 4.01 6.58 6.96 13.72 10.32 20.63a16.9 16.9 0 01.28 14.82c-2.76 6.42-4.6 13.21-7.5 19.57-.61 1.51-1.99 2.44-3.2 3.42-1.69-5.91-3.19-11.92-6.1-17.37-1.65-3.98-4.7-8.12-3.25-12.61 1.51-6.09 4.14-11.82 6.13-17.76m128.17-10.49c5.04 3.02 10.13 6.3 13.99 10.79 3.12 3.43 3.01 8.27 4.64 12.37 1.71 4.2 2.27 8.76 4.11 12.91 1.29 2.86.87 6.06.85 9.1-.41 5.4.38 10.83-.46 16.21-4.83-2.43-9.58-5.51-12.36-10.3-3.38-3.88-4.2-9.09-6.38-13.62-1.5-3.92-4.09-7.8-3.47-12.18 1.19-8.39.13-16.93-.92-25.28"/><path d="M516.04 274.07c4.69-3.77 10.37-6.08 15.94-8.21-.58 6.13-1.91 12.16-2.85 18.24-.42 2.35 2.24 4.15 1.55 6.53-1.02 6.22-3.27 12.14-4.86 18.22-1.5 4.78-2.37 10.2-6.27 13.73-3.41 2.1-7.09 4.02-11.11 4.5-.15-5.44-2.16-10.92-.64-16.32 1.55-6.85 1.01-14.03 3.13-20.78 1.59-5.32 2.5-10.97 5.11-15.91m20.99 10.94c7.98-8.19 17.88-14.68 28.77-18.25.63 6.07-2.92 11.25-5.7 16.31-4.74 8.18-8.01 17.11-12.76 25.28-1.73 3.17-4.47 5.6-6.38 8.64-1.2 2.34-3.9 2.97-6.18 3.77-3.4 1.11-6.98 1.51-10.52 1.82.17-5.66 2.95-10.76 4.11-16.23 2.28-7.28 2.83-15.77 8.66-21.34m198.63-10.07c.05-2.88.4-5.75 1.16-8.52 4.29 4.38 7.36 9.76 11.44 14.34 4.95 7.69 8.32 16.34 10.99 25.06 2.13 5.08 1.28 10.7 1.45 16.06-4.5-1.76-8.29-4.8-12.34-7.32-3.19-2.36-7.24-4.29-8.58-8.31-1.98-4.84-5.83-8.73-7.1-13.89-1.82-6.54-3.83-13.02-5.45-19.61q4.25.91 8.43 2.19m-82.12-7.07c2.56 3.92 3.04 8.69 4.88 12.92 1.27 3.31 3.24 6.53 3.2 10.18-.68 11.39-3.69 22.45-7.22 33.26-3.29-5.44-4.51-11.81-5.43-18.01-1.73-4.29-3.92-8.55-4.31-13.22.7-9.07 6.29-16.62 8.88-25.13"/><path d="M721.01 268.69c1.84 1.53 4.36 2.84 4.74 5.47 1.98 8.34 4.18 16.66 7.52 24.56 1.34 2.95 3.52 5.44 4.68 8.48-.55 3.56-2.01 6.93-2.55 10.51-2.99-.5-6-.85-9-1.22-4.5-8.84-3.11-19.11-6.41-28.28-1.86-6.45.06-13.09 1.02-19.52m-150.75 11.76c3.2-2.7 6.66-5.28 10.64-6.7 1.04 8.03-.27 16.16.87 24.2-3.49-2.02-6.44-4.88-8.01-8.64-1.13-2.92-4.07-5.58-3.5-8.86m136.41-4.64c4.56 1.15 7.42 5.4 9.48 9.33.09 3.67-3.27 6.32-4.01 9.76 2.38-1.65 3.7-4.47 5.74-6.51 3.26 6.02 2.84 13.04 4.31 19.55.62 2.9 1.19 5.83 1.13 8.82-7.32.18-14.24 2.63-21.29 4.26.33-5.24 1.62-10.35 2.62-15.48 2.47-3.12 5.85-5.68 7.08-9.63-2.44 1.23-3.96 3.73-6.27 5.19.84-8.41 1.54-16.82 1.21-25.29m-142.32 2.44c1.46-.28 1.71 1.2 2.16 2.23 2.17 4.63.1 9.71.12 14.55-.67 8.86 3.7 16.84 6.11 25.08-2.94.65-5.92.34-8.84-.2-4.09-.79-7.85 1.45-11.79 2.02-5-1.97-4.63-8.77-3.22-13 5.56-10.02 9.44-20.9 15.46-30.68"/><path d="M569.58 286.62c1.92 1.78 3.2 4.07 4.52 6.31 1.75 3.19 5.21 4.8 7.49 7.52.8 7.79 2.8 15.43 3.11 23.29-3.1-.96-6.34-1.66-9.19-3.24-3.36-2.49-4.28-6.87-5.61-10.59-2.58-7.55-1.44-15.6-.32-23.29m19.22 23.18c.94-7.3 2.37-14.55 4.12-21.7 3.29 11.07 9 21.15 13.13 31.88 2.25 4.67-1.84 9.1-4.86 12.27-3.1 4.99-3.01 11.28-6.08 16.29-1.04-5.66-4.49-10.63-4.72-16.46-.68-7.4-2.72-14.81-1.59-22.28m74.33-18.87c3.02 6.05 6.88 11.77 8.56 18.41 1.11 4.72 3.81 8.91 4.73 13.68-1.11 6.53-3.57 12.77-5.2 19.19-1.7 5.4-2.47 11.05-4.46 16.36a12 12 0 01-2.36-4.08c-2.64-7.65-5.49-15.23-8.27-22.83-.43-1.38-1.18-2.85-.49-4.28 3.7-11.87 5.78-24.16 7.49-36.45m28.77 4.96c.46-1.14 1.65-1.53 2.65-2.06 1.4 3.92 3.27 7.82 3.22 12.09.19 6.54.17 13.11-.47 19.63-.52 6.91-4.57 12.81-5.72 19.58-.77-3.21-.92-6.55-1.92-9.69-.98-1.96-2.88-3.24-3.98-5.11-1.36-2.23-2.85-4.44-5.18-5.74 4.76 9.29 7.94 19.69 7.19 30.22-1.15 5.77-2.19 11.59-3.93 17.23-6.93-2.57-9.86-9.8-15.24-14.23 3.07-7.66 3.33-16.09 6.47-23.72 2.21-7.32 4.69-14.62 8.77-21.14 2.89-5.59 5.21-11.48 8.14-17.06m-293.63-.66c2.15 1.69 4.19 3.59 5.28 6.17 2.09 4.62 5.92 8.2 7.88 12.88-.28 7.09-3.68 13.5-6.17 20-2.25 5.34-4.04 10.89-6.79 16.01-.27-18.35.15-36.71-.2-55.06m-3.48.8 1.37-.6c.28 10.18.37 20.38.5 30.57-.07 7.44.36 14.93-.81 22.31-3.86-7.7-6.84-15.82-10.49-23.62-1.52-3.78-3.57-8.54-.79-12.23a97 97 0 007.7-13.11c.75-1.14 1.05-2.88 2.52-3.32m239.35 26.07c3.41-8.08 5.84-16.56 9.64-24.48 3.84 8.17 5.07 17.19 8.08 25.64 2.17 5.79-.76 11.66-2.36 17.19-1.88 6.66-4.09 13.32-7.8 19.21-2.43-5.91-2.5-12.48-5.06-18.35-2.22-6.04-5.29-12.83-2.5-19.21m-14.04-22.41c4.69 6.67 6.49 14.79 8.81 22.47.54 2.96 2.26 6.37.42 9.17-4.83 7.33-5.97 16.3-10.03 24.01-2.73-8.24-3.74-16.96-6.52-25.19-.89-2.45-2.52-4.6-3.14-7.14.49-3.2 1.93-6.14 3.23-9.07 2.23-4.84 4.22-9.83 7.23-14.25M355.37 311.4c4.38-.44 7.9 2.48 11.98 3.43 4.54 1.16 9.35 1.92 13.38 4.46 1.11 1.66 1.65 3.61 2.4 5.45 3.16 8.24 7.83 15.9 10.05 24.49-9.31-8.48-17.92-17.69-26.96-26.46-3.65-3.75-7.68-7.17-10.85-11.37m77.15 1.48a7.1 7.1 0 016.15.89c-2.79 3.82-6.89 6.35-10.01 9.87-8.91 9.7-18.78 18.45-27.68 28.16 3.22-9.5 7.22-18.72 10.69-28.13 1.2-2.56 1.87-5.94 4.75-7.15 5.06-2.29 10.76-2.29 16.1-3.64m-79.51.78c4.4 2.17 7.44 6.11 10.71 9.63 9.19 10.28 19.97 19.03 28.88 29.58-9.51-3.36-18.66-7.59-27.94-11.52-1.7-.87-3.75-1.47-4.88-3.1a117 117 0 01-6.77-24.59m76.27 12.63c4.3-4.13 8.18-8.72 12.85-12.44-.47 2.38-1.34 4.65-2.18 6.92-1.57 5.09-1.84 10.51-3.6 15.55-1.34 3.78-5.48 5.01-8.85 6.33-7.98 2.97-15.48 7.21-23.71 9.51 8.25-8.86 17.03-17.22 25.49-25.87m296.46-6c5.85.21 10.79 3.51 15.8 6.14 2.63 2.73 4.57 6.07 6.92 9.05 1.52 5.47.76 11.27.19 16.84l2.03-.75c-.3 4.78-.74 9.67-3.18 13.91-4.56 10.6-9.51 21.09-15.71 30.84-2.38-3.9-1.19-8.75 1.23-12.31 1.47-3.17 5.13-6.71 2.54-10.25a57 57 0 01-11.02 19.41c-.79-3.07-3.48-6.25-1.82-9.44 2.68-5.86 4.04-12.23 7.05-17.94 2.41-4.79 3.75-10.02 5.59-15.03 5.81 5.08 3.73 13.31 4.53 20.06 3.62-2.72 5.04-7.14 6.95-11.04 1.1-2.43 2.63-4.78 2.69-7.53-3.1 3.54-4.42 8.22-7.37 11.88-.82-3-1.19-6.12-2.26-9.04-1.51-3.31-4.09-6.09-5.04-9.65-1.21-5-1.82-10.13-3.2-15.08-1.41-3.66-4.18-6.58-5.92-10.07m-184.87 13.58c5.78-6.86 14.5-11.7 23.65-11.2-3.65 3.65-8.63 6.02-11.24 10.64a63 63 0 00-6.91 17.82 17 17 0 01-1.48 7.11c-4.48-7.07-8.33-16.34-4.02-24.37"/><path d="M557.12 333.13c2.35-5.59 9.23-5.8 13.01-9.88a97 97 0 01-1.62 8.27c-1.39 5.62-.11 11.46-.92 17.14a29 29 0 01-6.16 8.27c-3.81-7.13-7.4-15.77-4.31-23.8m139.96 6.69c1.16-6.64 4.58-13.58 10.7-16.92 2.99 3.33 5.92 6.98 6.79 11.5a54 54 0 01-2.95 31.92c-2.45-1.51-3.02-4.47-3.88-6.99-1.35-4.6-2.93-9.28-6.05-13-1.62-2.1-3.78-3.91-4.61-6.51"/><path d="M711.98 323.13c3.02-.16 6-.88 9.04-.76 4.27 2.29 6.39 6.92 8.53 11.02 1.51 5.44 3.71 10.83 4.06 16.51-1.56 5.55-3.14 11.21-5.94 16.3-2.34-3.24-1.97-7.51-3.98-10.89-1.7-3.13-4.52-5.5-6.12-8.68-.48-4.02.77-8.16-.19-12.11-1.88-3.78-2.46-8.19-5.4-11.39m-137.71 1.96c3.65-.22 7.13 1.14 10.61 2.05 2.38 5.84 5.81 12.85 2.25 18.92-3.86 6.16-6.8 12.82-10.41 19.12-2.99-4.53-5.68-9.36-7.17-14.6-.7-5.8-.4-11.75.59-17.5.57-2.96 1.65-6.09 4.13-7.99m33.3-.13c3.42 3.07 4.27 7.7 5.6 11.88 1.45 5.33 1.94 10.9 3.87 16.11 1 2.56 1.66 5.62-.07 8.05-3.19 4.53-7.53 8.1-11.38 12.04-4.75-6.2-5.19-14.26-8.43-21.1 3.31-9.03 5.28-18.67 10.41-26.98m13.32 31.98c3.21-8.74 5.65-17.85 10.2-26.03 2.87 4.14 3.25 9.27 5.1 13.84 1.7 4.22 1.8 8.84 2.84 13.24.59 3.09 1.7 6.39.41 9.46a234 234 0 00-4.29 10.81c-2.2 4.45-2.72 9.56-5.55 13.74-1.43-3.34-1.6-7.09-3.35-10.29-1.28-3.01-4.6-4.99-4.44-8.56-.18-5.43-3.57-10.97-.92-16.21m23.85.88c3.15-8.99 5.83-18.15 9.22-27.06 3.98 6.77 5.62 14.55 8.46 21.81 1.12 3.77 3.54 7.65 1.83 11.64-2.92 8.83-5.46 17.89-9.96 26.08-1.85-6.25-2.88-12.82-6.13-18.57-1.94-4.31-5.66-8.99-3.42-13.9m-93.35-17.33 2.66-.46c.86 2.98 1.29 6.07 1.97 9.1.96 4.52 4 8.24 5.13 12.72 1.17 4.52.38 9.25 1.14 13.84.71 5.47 3.51 10.31 5.4 15.42a37 37 0 00-4.86 9.73l2.97.93q1.74-3.49 3.53-6.95c4.17 2.16 7.83 5.18 12.16 7.06a61 61 0 00-5.16 14.45c-1.53 6.74 3.45 13.46.95 20.12-2.23 4.52-7.67 5.32-11.94 6.84-3.94 1.51-8.25 1.98-11.96 4.03-1.96 1-2.94 3.26-5.04 4.01a65 65 0 01-18.27 4.09c-.51 2.59-1.24 5.13-1.83 7.7.01 3.37 1.88 6.89.14 10.16-1.45 5.11-9.46 3.53-11.1-.65-.28-2.91 1.17-5.71.86-8.62a47 47 0 00-1.06-6.39c-5.58.3-9.69 6.04-9.48 11.38.2 4-2.91 7.29-6.57 8.35-2.22-.91-4.2-2.27-6.18-3.59.71-4.9 3.68-9.02 5.15-13.67.92-3.5 4.26-5.32 6.28-8.09-6.48.59-7.82 7.77-11.71 11.71-2.33.39-5.41-.03-7.04-1.75a23.7 23.7 0 013.39-13.04c3.99-1.77 8.76-.91 12.57-3.34 3.98-2.46 8.83-1.26 13.12-2.66 5.28-1.83 11.04.37 16.26-1.79 6.09-2.32 11.68-5.77 17.37-8.92 4.34-3.41 9.65-7.11 10.24-13.09.86-5.61 1.57-11.31 1.05-16.98-.26-3.71 3.41-7.79.34-11-6.08-8.92-12.34-18.28-14.18-29.12.28-7.26.9-14.75 3.7-21.53m-203.33 6.66c3.51-1.86 6.91-4.67 11.05-4.72a105 105 0 0113.41 5.16c5.01 2.17 10.43 3.44 15.1 6.36-12.85.69-25.75.08-38.62.31-4.1 0-8.25.41-12.3-.39 3.56-2.6 7.63-4.38 11.36-6.72m75.4-.69c3.83-1.54 7.55-3.47 11.61-4.32 1.38-.41 2.65.56 3.88 1.04a479 479 0 0119.49 10.75c-7.8.65-15.63.19-23.44.33-9.76-.13-19.54.26-29.29-.22 5.69-3.03 11.86-4.99 17.75-7.58m269.13 2.71c.36-2.55 1.75-4.76 3.12-6.88 3.47 3.95 7.44 7.88 8.95 13.08 2.06 6.59 3.66 13.32 6.4 19.67-.48 4.51-1.55 8.96-2.57 13.38-.47 3.02-4.19 3.12-5.92 5.19-2.3 2.43-5.34 3.87-8.55 4.65-1.69-4.84-2.61-9.91-4.63-14.63-2.22-5.29-2.94-11.27-1.12-16.79 3.01 1.69 4.21 5.05 6.12 7.74 1.27 2.06 3.12 3.97 3.4 6.49.37 4.14-.59 8.25-.54 12.39 3.21-4.25 3.33-10.29 1.44-15.12-2.41-5.43-5.85-10.32-8.82-15.43.33-4.65 1.91-9.14 2.72-13.74m-159.39 11.8c-.12-5.51-.64-11.25 1.84-16.38.23 5.51-.12 11.02.36 16.52z"/><path d="M581.62 358.63c2.36-4.47 4.53-9.15 8.06-12.84 3.29 6.05 5.9 12.41 8.03 18.95-1.87 1.84-3.66 3.83-4.63 6.31-2.54 5.92-6.06 11.58-6.91 18.07-.48 3.42-1.26 7.07-3.52 9.77-5.16.45-8.81-4.09-12.25-7.23-6.7-9.49-8.2-21.72-6.66-33 .65-2.61 2.53-4.65 4.02-6.81a142 142 0 008.3 16.22c-.15 4.94-1.3 9.93-.12 14.84a34 34 0 006.99 14.21c-1.75-5.48-5.41-10.4-5.48-16.35-.09-7.51.46-15.44 4.17-22.14m170.6-10.26c1.46-1.22 3.08 1.33 1.59 2.32-1.47 1.19-3.12-1.35-1.59-2.32m-214.95.33c2.55 4.47 4.54 9.25 7.39 13.56 2.76 3.97 3.74 8.82 6.13 13 3.26 5.72 7.1 11.15 9.78 17.19 1.49 3.04-1.14 5.99-1.97 8.83-8.69-8.19-14.91-18.73-18.64-30.03-1.13-7.51-3.72-14.84-2.69-22.55m180.66 2.06c4.99 3.83 6.38 10.3 7.2 16.19.83 4.94-1.26 9.7-2.98 14.21-2.4 6.31-7.25 11.3-12.45 15.42l-1.17-1.51c.68-3.89 2.01-7.64 3.1-11.43 1.99-6.1-.62-12.83 2.21-18.76 2.15-4.48 2.08-9.6 4.09-14.12m34.74 2.52 2.22-.27c-.24 5.26-1.45 10.41-1.69 15.67-1.21 6.41-4.67 12.12-7.86 17.72-.63 1.44-1.96 2.21-3.35 2.76-2.38-6.71 3.04-12.11 5.17-18 2.21-5.82 5.01-11.57 5.51-17.88m-416.84 3.33c7.68-.95 15.44-.5 23.17-.6 11.02.11 22.09-.43 33.06.89-5.75 3.41-12.33 4.99-18.34 7.84-5.39 2.15-10.67 5.55-16.64 5.41-7.85-3.17-13.84-9.54-21.25-13.54m64.83-.34c14.44-.3 28.9-.09 43.34-.09 4.91.16 9.88-.4 14.75.47a61 61 0 01-8.32 5.66c-4.68 2.67-8.94 6.09-13.87 8.3-2.36 1.07-4.7-.59-6.84-1.42-9.59-4.53-19.8-7.72-29.06-12.92m-34.5 13.94c8.7-3.4 17.12-7.49 25.96-10.53-7.08 8.69-15.38 16.25-23.3 24.15-5.17 5.02-9.7 10.79-15.58 15.05 1.55-8.17 4.7-15.95 6.9-23.96.42-3.03 3.69-3.64 6.02-4.71m37.43-9.45a393 393 0 0128.91 11.91c2.8.89 3.51 3.9 4.39 6.35 2.02 5.97 3.91 12.13 4.12 18.47-4.95-3.47-8.72-8.28-13.14-12.35-8-8.22-16.63-15.84-24.28-24.38m265.52.17c2.8 1.35 3.93 4.22 4.98 6.96 1.04 3.09 4.77 3.94 6.17 6.79 4.23 7.75 9.95 15.15 11.06 24.16.65 3.8 1.45 7.58 1.68 11.45-4.43-2.64-7.29-7.05-10.07-11.25-3.4-5.57-7.35-11.08-8.4-17.68-3.07-4.49-5.07-9.56-7.31-14.5.05-2.1 1.19-3.99 1.89-5.93m-271.06.74c5.6 11.1 9.68 22.88 14.57 34.3-1.52 2.69-2.99 5.42-4.73 7.97-3.65 5.17-6.1 11.07-9.86 16.16-.24-19.47-.27-38.96.02-58.43m3 .19c10.43 9.57 20.06 20 30.22 29.86 2.3 2.23 4.69 4.45 6.25 7.3-4.86-1-9.63-2.34-14.51-3.23-2.81-.86-5.94-.76-8.51-2.27-1.68-1.86-2.47-4.3-3.5-6.53-3.38-8.35-6.98-16.62-9.95-25.13m-25.36 17.82c5.85-5.7 11.24-11.91 17.62-17.05-3.45 11.33-8.63 22.04-12.75 33.13l-5.85 1.29q-.2-2.21-1.66-.29c-5.65 2.65-12.19 2.72-18.18 4.39 6.76-7.32 13.94-14.26 20.82-21.47m231.72-5.26c3.07-4.38 6.81-8.26 10.68-11.93 1.09 3.41 2.09 6.92 2.1 10.53-.08 4.49-2.31 8.51-3.4 12.78-1.46 5.58-2.44 11.38-1.89 17.17.54 5.4-.3 10.86.73 16.23.38 7.39 1.02 15.26-2.27 22.15-2.15 4.46-5.71 8.01-9.02 11.62-3.75-8.14-2.7-17.33-2.38-26.01 1.67-10.35 4.76-20.44 7.15-30.64-4.75 4.11-9.09 8.77-14.76 11.7.29-2.22.45-4.48 1.04-6.64 3.85-9.06 7.31-18.31 12.02-26.96m-72.2-8.83 2.61-1.62q.02 3.25-.16 6.51a11 11 0 01-2.45-4.89m-148.67 20.87c3.36-7.19 5.34-14.98 9.23-21.91.42 14.14.04 28.3.2 42.45-.05 3.42.39 6.98-.9 10.26-5.07-4.52-6.98-11.29-10.28-17-3.05-4.43.2-9.48 1.75-13.8m248.75-4.23c1.85-6 4.25-11.87 7.26-17.38a68 68 0 0110.89 29.14c.76 4.99-1.72 9.57-3.31 14.13-1.91 4.71-3.11 9.73-5.71 14.13-3.34-9.67-5.13-19.77-8.21-29.52-.87-3.4-2.19-7.01-.92-10.5"/><path d="M591.47 377.54c1.74-3.99 3.49-8.3 7.19-10.89 2.29 3.46 5.34 7.93 3.08 12.15a165 165 0 00-9.48 23.7c-.22 1.08-1.56 1.12-2.33 1.66-.98-4.35-2.97-8.59-2.57-13.14.12-4.8 2.35-9.13 4.11-13.48m73.94-10.7c2.54 4.39 3.86 9.33 5.82 13.99 1.36 3.94 3.79 7.81 3.14 12.15-.89 8.19-1.5 16.47-3.48 24.48-3.15-6.46-5.53-13.26-8.76-19.69-1.76-3.96-4.72-8.13-3.23-12.66 2.04-6.13 3.86-12.36 6.51-18.27m-126.59 6.56c3.87 5.67 5.63 12.54 9.72 18.09 1.42 1.86 3.1 3.5 4.66 5.26q-1.46.78-2.57-.33c-2.67-2.35-5.46-4.77-6.95-8.07-2.27-4.73-4.93-9.55-4.86-14.95m77.62 30.05c-1.24-8.94 1.21-18.09 5.26-26.02 3.69 4.64 4.9 10.45 6.78 15.91 1.54-1.24 3.08-2.49 4.69-3.65-.67 6.07-3.8 11.46-6.76 16.67-2.99 4.44-5.7 9.12-9.35 13.08-.67-5.31-.08-10.68-.62-15.99m95.1-3.9c3.01-3.49 5.94-7.27 9.94-9.69q.73 5.07 1.11 10.2 2.79-2.55 5.5-5.18c2.97 6.83-1.17 14.05-1.09 21.06-.41 4.76-.27 10.94 4.69 13.37 7.75 4.04 15.23 8.86 23.64 11.47 4.91 1.69 10.13-.63 15.06.88 3.42.95 6.99.85 10.47 1.49 3.54.57 5.36 4.29 8.75 5.24 4.67 1.49 9.52 3.33 12.82 7.13 1.17 2.71 1.43 6.75-1.85 8.02-2.97-.09-6.06 1.03-8.92.05-2.19-2.68-3.18-6.62-6.95-7.59 2.33 4.44 4.67 9.42 2.99 14.52-1.3 3.6 2.66 6.22 2.33 9.83-1.57-1.72-2.51-3.91-4.09-5.6-2.85-.58-6.55.68-8.48-2.12-1.62-2.92-1.03-6.58-2.69-9.48-1.32-2.05-3.02-3.8-4.66-5.57.76 5.3-.29 11.05-3.86 15.12-3.02.32-6.5.04-8.8-2.16-1.14-3.26 1.07-6.05 2.41-8.81 1.21-2.5-.12-5.18-.92-7.57-5.78-1.61-11.81-1.76-17.66-2.87-4.65-1.5-8.91-3.99-13.52-5.6q1.54-1.63 3.11-3.22c-4.83-.71-9.6-1.76-14.31-3.02-5.05-1.04-8.21-5.88-9.71-10.46 1.17-5.15 3.01-10.12 4.09-15.29.87-4.67-.89-9.61.6-14.15m-57.77 3.16c1.07-3.46 1.09-7.49 4.17-9.93 4.51 7.95 7.46 16.66 11.45 24.87 2.24 4.16 1.01 8.94.71 13.4-.89 7.61-.54 15.48-3.19 22.79-2.03-1.14-3.99-2.52-5.11-4.61-2.25-3.92-4.83-7.75-5.95-12.18-1.45-5.6-3.72-11.15-3.27-17.04.3-5.77-.52-11.69 1.19-17.3m20.37 5.83c1-5.45.24-11.27 2.56-16.42 5.71 4.44 3.56 12.36 4.74 18.54 1.75 6.14 2.4 12.54 4.55 18.58.83 3.15-.78 6.29-1.31 9.38-1.15 3.97-1.29 8.55-4.46 11.6-4.93-6.95-9.16-15.35-7.91-24.12.99-5.82.66-11.76 1.83-17.56m-39.91-13.85c1.24 1.55 2.69 3.2 2.69 5.33.33 5.71-1.29 11.28-1.78 16.94-1.7 9.26-1.01 18.96-4.33 27.89-2.71 4.03-6.24 7.44-9.26 11.24-2.63-4.51-3.12-9.81-3.73-14.88-.52-5.61-.7-11.3-.17-16.91 1.08-4.53 4.34-8 6.96-11.69 3.65-5.73 5.71-12.34 9.62-17.92m48.17 6.77c3.9 3.8 7.6 7.84 11.06 12.03 3.41 11.41 4.47 23.5 3.88 35.37-5.84-6.81-8.65-15.59-10.82-24.14-1.63-7.7-3.29-15.42-4.12-23.26m-86.63 10.31c3.37-2.48 5.89-5.97 9.5-8.16-.53 7.88-4.14 15.14-4.67 23.01-.52 3.92-.23 8.14-2.29 11.68-1.64 2.98-3.63 5.75-5.59 8.52l-1.92-.57c-1.02-5.35-.95-10.82-1.4-16.23.37-4.3 1.43-8.52 1.97-12.81.14-2.63 2.56-4 4.4-5.44m41.49-2.46c.17-1.3.75-2.48 1.31-3.65 2.68 6.57 3.21 13.82 6.24 20.27 2.61-3.33 3.04-7.71 5.37-11.17.54 4.49.67 9.02 1.49 13.48.3 5.42 4.96 10.07 3.3 15.68-2.25 7.6-6.24 14.66-10.74 21.14-2.94-2.65-5.84-5.63-6.64-9.67-4.84-14.99-2.24-30.83-.33-46.08m49.97 26.39c3.92 4.43 5.36 10.64 10.16 14.39.5 3.22-.1 6.49-.63 9.68-.96 5.04-1.58 10.34-4.2 14.86-2.53 3.46-4.78 7.12-7.42 10.49-.96 1.43-2.61 1.87-4.18 2.24.83-8.15 3.48-16.06 3.68-24.3.41-5-.55-9.97-.43-14.95a100 100 0 013.02-12.41m-15.86 3.05c3.63 5.11 5.88 11.26 10.8 15.41a2483 2483 0 01-5.34 30.84c-.6 2.82-.32 5.71-.5 8.57-1.99 4.25-4.39 9.78-9.81 10.1l-1.47.21-.88.13c3.61-13.13 6.07-26.58 6.52-40.21.66-4.53-1.28-8.95-.55-13.45.49-3.86.66-7.75 1.23-11.6m-77.92 20.13c-1.42-7.04 3.04-13.25 6.19-19.13 1.14 4.97 1.77 10.09 3.73 14.84 1.9 4.76.7 9.93.06 14.82-.76 4.99.13 10.03-.15 15.05-1.77-1.46-3.48-3.07-4.45-5.18-3.15-6.37-4.49-13.41-5.38-20.4m21.99-18.38c1.79 5 2.8 10.29 3.26 15.57-.53 6.97-.78 13.96-1.4 20.92-.05 6.22 1.4 12.32 2.25 18.45.54 4.38 2.79 8.29 3.58 12.62-4.06-1.85-8.28-4.65-10.13-8.84a56 56 0 00-4.52-9.45c-1.59-4.07-3.63-8.24-3.27-12.73q.22-9.52 1-19.02c.01-1.8 1.09-3.3 2.13-4.67 3.06-3.87 4.62-8.63 7.1-12.85"/><path d="M644.78 468.71c5.18-7.13 7.88-15.63 12.46-23.1 1.27 9.15-.36 18.39.44 27.58.1 7.94.29 15.9.29 23.85.09 6.16-1.53 12.15-3.01 18.07-.65 3.24-3.17 5.6-4.43 8.58-1.71 3.06-.59 7.16-3.04 9.87-2.58 1.24-4.08-1.85-5.33-3.56-2.27-5.41-3.18-11.28-5.42-16.71-2.54-6.1-3.36-12.71-3.72-19.25-1.33-12.56-.2-25.23 1.28-37.73 3.69 3.97 6.11 9.02 10.48 12.4"/><path d="M621.51 459.53c3.75-4.35 6.97-9.18 11.23-13.08-.09 17.86-3.29 35.75-.8 53.56.41 8.06 3.71 15.5 5.86 23.18q-2.08.12-4.12.29l-1.19-1.5 2.09.58c-3.12-5.33-7.17-10.13-9.1-16.09-6.54-11.33-6.35-24.87-5.87-37.53.22-3.16-.4-6.85 1.9-9.41m37.36-11.07c1.57 1.6 2.84 3.55 4.7 4.87 1.82.65 3.74 1.01 5.63 1.48-.47 17.09-1.53 34.52-7.61 50.68-.66 2.64-1.38 5.4-3.8 7.01.33-5.2 2.01-10.26 1.69-15.51.37-16.2-1.07-32.34-.61-48.53m-176.26 17.53q1.84-1.52 3.64-3.08l1.76 2.81q-2.33 1.72-4.7 3.42zm43.08 12.11q1.62-.62 3.27-1.17l-.39 4.4q-1.47-1.6-2.88-3.23m16.95 78.61a423 423 0 0139.46-5.93c8.96-.33 17.93-.4 26.9-.5 12.67.19 25.32-1.3 37.99-.59 14 .72 28.01.53 42.02.85 8.34-.01 16.79.8 24.77 3.37 4.76 1.36 9.77 1.67 14.52 3.17 4.7 1.46 9.76.5 14.44 2.12 13.43 4.43 27.13 8.02 40.52 12.55 6.43 3.28 13.51 4.89 20.11 7.78 7.85 3.79 16.34 5.92 24.57 8.69 7.89 2.75 15.95 5.08 23.71 8.23 4.49 2.44 9.55 3.55 14.1 5.84 8.2 5.02 18.16 5.83 26.53 10.53 3.79 1.66 6.68 4.92 10.69 6.14 7.59 2.7 14.67 6.58 21.73 10.44 4.75 2.15 9.5 4.36 14.13 6.78 8.52 4.51 17.47 8.26 25.52 13.6 8.9 3.01 16.84 8.2 25.76 11.15a50 50 0 0110.2 4.8c9.07 4.82 18.66 8.54 27.88 13.04 13.75 5.74 28.14 9.69 42.49 13.62 7.69 1.7 15.35 4.21 23.33 3.99 11.37.18 22.63 2.12 34.01 2.14 13.35.26 26.71-.01 39.99-1.51 7.6-1.09 15.41.07 22.92-1.83 4.58-1.18 9.23-2.07 13.78-3.38 5.08-1.46 10.44-1.7 15.45-3.48a104 104 0 0024.39-9.8c4.87-3.27 10.71-4.91 15.17-8.81 3.83-3.09 8.84-4.23 12.71-7.28 4.99-4.61 11.76-6.32 17.57-9.61V860H0V646.53c3.75 2.2 7.73 3.97 11.64 5.87 3.85 1.61 6.43 5.18 10.35 6.69a53 53 0 0111.76 7.16c7.18 3.43 13.83 7.89 21.21 10.91a111 111 0 0027.03 7.83c9.57 2.13 19.03 5.68 28.97 5.38 10.73.03 21.33 2.19 32.06 2.04q8.97.3 17.96.13c12.39.03 24.67-2.16 37.06-2.2 6.49.03 12.68-2.13 18.98-3.35 17.97-4.94 36.24-9.6 52.95-18.07 9.28-3.69 18.05-8.47 26.97-12.9 9.77-3 18.43-8.56 28.05-11.94 3.13-1.37 5.67-3.78 8.8-5.19 10.54-5.09 20.81-10.73 31.51-15.49 6.58-3.6 13.18-7.22 20.21-9.88 5.55-1.53 9.55-6.02 14.9-8.03 11.38-4.82 23.82-7.15 34.65-13.27 5.11-2.16 11.21-2.7 15.19-6.95 2.06-2.3 5.17-2.93 7.92-4 6.59-2.23 12.66-5.86 19.45-7.54 7.8-2.01 14.74-6.49 22.69-8.02 4.17-.82 8.2-2.25 12.42-2.8 10.11-1.37 19.73-5.19 29.91-6.2m85.8 56.8c-13.78 1.4-27.17 5.05-40.51 8.63-9.15 2.59-18.46 4.84-27.14 8.82-8.87 4.01-17.81 7.89-26.47 12.35-8.96 4.6-16.78 11.07-24.02 17.99-6.48 5.96-11.87 12.97-16.71 20.28-4.41 6.82-8.8 14.03-9.73 22.28-3.06 15.11-1.77 31.22 4.98 45.2 4.23 9.76 11.37 17.84 18.71 25.38 6.9 6.79 13.48 14.09 21.87 19.11 16.1 9.91 34.23 16.02 52.45 20.74 13.18 3.56 26.76 5.1 40.2 7.32 10.51 1.77 21.19.74 31.76.11 25.9-2.18 51.65-7.47 75.97-16.77a136 136 0 0045.84-29.3c7.56-7.45 14.95-15.19 21.07-23.88 5.62-9.95 8.82-21.07 11.65-32.05.03-5.38.26-10.79-.13-16.15-1.8-4.36-2.52-9.07-4.5-13.36-6.69-16.81-19.67-30.26-33.88-41.06-11.15-8.11-23.09-15.56-36.39-19.55-23.66-8.43-48.24-14.93-73.4-16.3-10.54.14-21.1-.33-31.62.21"/></g><g fill="#fff"><path d="M507.09 129.26c1.56-.66 4.87 1.2 4.58 2.96a5.8 5.8 0 01-4.58-2.96m228.15 102.83c2.47-3.1 4.54-6.48 7.03-9.56a14.3 14.3 0 01-7.03 9.56m156.04 58.9c3.7 5.31 6.56 11.13 10.23 16.46 1.56 2.85 3.35 6.42 1.55 9.57-3.76 9.1-7 18.41-10.96 27.42-.5-17.81-.96-35.63-.82-53.45m-14.97 22.28c4.68-6.83 7.07-15.07 12.41-21.46.17 18.52.19 37.06.15 55.59-4.64-9.32-8.57-18.98-12.72-28.52-.78-1.76-1.24-4.02.16-5.61m-481.52-17.24c-2.22-2.14 3.28-3.67 1.37-.6zm524.79 27.49c5.32-5.21 10.16-10.95 15.94-15.68-.86 8.17-3.94 15.91-4.93 24.07a5.1 5.1 0 01-3.54 4.9c-11.07 4.7-21.87 10.1-33.16 14.26 8.23-9.49 17.13-18.36 25.69-27.55m-12.05-9.86a209 209 0 0123.38-4.76c-12.69 12.49-24.03 26.31-37.13 38.38 3.72-10.42 8.14-20.57 11.76-31.03.38-1.06.63-2.42 1.99-2.59m-59.52-3.72q10.74 2.16 21.45 4.55c3.06.3 3.91 3.57 5.06 5.9 3.98 9.32 8.58 18.39 11.87 27.98-5.32-4.23-9.78-9.39-14.65-14.1-7.81-8.21-16.59-15.5-23.73-24.33m-2.04 1.86c3.09 2.29 5.55 5.27 8.3 7.93 6.55 6.44 13.11 12.87 19.81 19.16 3.56 3.52 7.32 6.88 10.38 10.87-10.48-3.76-20.65-8.32-31.07-12.22-2.28-8.64-5.94-16.91-7.42-25.74m-.63 30.58c2.82-1.73 6.3-4.46 9.68-2.45 9.32 4.39 19.29 7.5 28.24 12.6-17.89.27-35.78.44-53.67.29 4.39-4.67 10.6-6.8 15.75-10.44m53.38 9.6c9.55-4.66 19.44-8.7 29.28-12.72 4.64.95 8.58 3.85 12.64 6.15 3.68 2.4 7.76 4.07 11.57 6.24-13.41.49-26.82.24-40.23.6-4.42.01-8.88.5-13.26-.27m-65.85 3.16c17.42-.07 34.86.25 52.27-.48-7.36 3.6-15.01 6.56-22.47 9.95-3.46 1.42-6.84 3.2-10.54 3.89-4.64-1.44-8.35-4.77-12.45-7.25-2.12-1.53-4.68-2.63-6.28-4.74zm64.07-.31c18.01-.82 36.08.25 54.1-.39-4.18 4.17-9.61 6.68-14.2 10.33-2.78 1.76-5.94 4.32-9.41 2.84-10.25-4.03-20.61-7.9-30.49-12.78m-1.92 2.16c7.96 2.87 15.66 6.42 23.52 9.56 3.36 1.54 6.97 2.7 10.01 4.86 1.55 2.4 1.86 5.36 2.62 8.08 1.19 5.75 3.27 11.29 4.04 17.13-5.57-3.92-9.86-9.38-14.81-14.02-8.45-8.55-16.94-17.06-25.38-25.61m-40.56 13.42c9.75-3.71 19.22-8.1 28.86-12.1-9.19 10.77-19.47 20.53-29.17 30.82-2.36 2.47-4.66 5.02-7.32 7.17-.25-5.22 2.51-9.91 3.46-14.94 1.11-3.68 1.05-8.27 4.17-10.95m-3.41 25.11c11.79-12.27 23.42-24.72 35.51-36.7a516 516 0 01-11.61 29.07c-.92 2.22-2.34 4.77-5.03 4.93-6.28.88-12.46 3.59-18.87 2.7m29.73-15.97c2.8-6.99 4.58-14.49 8.74-20.86.17 18.8.42 37.6.28 56.4-4.36-3.62-5.99-9.21-9.11-13.74-1.9-3.15-4.35-6.36-4.57-10.15 1.36-3.95 3.28-7.7 4.66-11.65m13.36-19.81c5.94 4.69 10.87 10.51 16.22 15.85 7.01 7.36 14.41 14.36 21.43 21.71-8.42-.72-16.42-3.89-24.34-6.63-4.18-10.42-9.69-20.28-13.31-30.93m-1.85 2.71c3.36 5.68 5.56 11.94 8.28 17.94 1.66 4.44 4.06 8.66 5.04 13.33a50 50 0 01-4.42 7.46c-3.09 4.23-5.45 9-9.06 12.84q-.37-25.8.16-51.57m-519.24 34.31q1.45-1.92 1.66.29zm235.43 93.01q2.7 4.5 4.52 9.45a16.5 16.5 0 01-4.52-9.45m56.57 14.11 1.47-.21c1.41 2.7-4.51 2.54-1.47.21m-33.84 135.21c4.34-5.02 9.17-9.6 13.82-14.33 9.41 10.34 15.13 23.34 21.37 35.69 4.33 8.41 8.3 17.03 11.01 26.12 2.47 5.09 2.96 10.78 4.67 16.12 1.92 5.63 1.76 11.78 4.48 17.17-.91 2.16-1.36 4.8-3.59 6.04-7.05 4.34-13.76 9.59-18.54 16.43-2.62 3.73-6.03 6.83-8.48 10.69-4.16 5.97-6.66 12.86-10.02 19.27-1.12 1.75-1.14 3.79-.53 5.73-2.29-9.09-6.34-17.84-12.51-24.95-4.59-5.09-8.91-10.48-14.32-14.75-5.19-5.07-11.73-8.35-17.67-12.4-.63-10.64 2.45-21.05 4.9-31.29 1.14-6.28 4.23-12.04 5.16-18.37 1.64-5.22 4.38-10.02 6.51-15.04 3.2-8.15 8.69-15.08 13.74-22.13m38.72 5.87c7.31-6.31 16.85-8.76 25.31-13.07 2.69 5.51 2.36 11.76 3.49 17.64.93 4.44-.01 8.96-.37 13.42-.47 4.39-5.53 5.62-8.78 7.5-3.99 1.63-7.26 5.18-11.51 5.94-2.16-2.99-2.48-6.9-4.41-10.03-3.04-4.77-5.88-9.7-8.17-14.87-1.46-3.25 2.48-4.84 4.44-6.53m-77.13-7.53c10.07 1.08 19.41 5.59 28.46 9.88-1.63 6.12-5.51 11.22-8.4 16.76-1.65 3.68-3.05 7.47-5.02 11-5.53-2.46-10.6-5.88-16.58-7.27-1.72-10.11-1.81-20.57 1.54-30.37m105.36 30.88c7.99-2.54 16.16-4.52 24.16-7.06.98 12.03-.67 24.05-3.34 35.76-1.48 6.07-4.17 11.72-6.37 17.54-6.62 2.04-12.88 5.18-19.65 6.7-2.66-7.02-4.09-14.41-6.41-21.53-1.67-7.22-4.86-13.94-7.31-20.9 6.21-3.66 12.28-7.66 18.92-10.51m-132.95-4.07c8.37 1.98 16.96 3.03 25.22 5.45 5.41 2.91 13.04 3.62 16.21 9.45-1.02 4.32-3.25 8.26-4.25 12.59-1.93 8.02-4.29 16.01-4.63 24.3a24 24 0 01-1.36 7.39c-6.55-3.06-13.67-4.67-20.26-7.57-2.57-3.44-3.67-7.69-5.16-11.66-5.22-12.55-6.82-26.45-5.77-39.95m161.01 22.96a99 99 0 0121.59-2.94c-.38 9.26-4.43 17.64-7.36 26.26-7.75.88-15.57.87-23.29 2.02 2.34-7.05 5.19-13.98 6.07-21.42.25-1.71 1.06-3.64 2.99-3.92m-180.65 1.26c2.64-.96 5.25-2.8 8.19-2.25a59 59 0 018.45 2.39c1.54 5.9 1.79 12.14 4.38 17.74 1.24 3.2 3.31 5.97 5.33 8.72-5.79-.95-11.71-1.09-17.41-2.52-2.73-.56-3.37-3.54-4.43-5.67-2.62-5.82-3.64-12.14-4.51-18.41"/><path d="M709.77 718.96c9.16-3.33 19.01-3.53 28.47-5.63 5.28-.31 10.59-.21 15.87-.67-1.54 13.46-8.14 25.56-13.79 37.65-2.82 4.54-5.76 9.02-8.27 13.76-7.28 8.75-16.37 15.75-25.6 22.31-6.36 3.67-13.68 5.23-20.59 7.54-12.6 4.09-25.97 4.2-39.08 3.81-1.08-9.73 1.96-19.15 4.82-28.3 3.82-7.06 8.03-13.92 11.85-20.99 4.32-4.64 8.59-9.37 13-13.94 4.57-3.18 9.08-6.56 14.22-8.8 6.23-2.6 12.34-5.71 19.1-6.74m-175.72-3.6c10.76-.14 21.63-.25 32.2 2.14 9.53 1.48 18.76 4.33 27.84 7.52 5.7 2.23 10.76 5.73 15.91 8.98 8.4 5.01 14.68 12.78 20.46 20.51 4.23 7.66 8.16 15.54 11.16 23.78 2.17 6.49 1.07 13.44 1.2 20.15-6.63-.37-13.19 1.29-19.81.69-13.01-1.26-26.09-3.63-38.03-9.11-11.19-5.52-20.34-14.23-29.11-22.92-6.29-7.18-10.6-15.8-14.72-24.31-4-8.68-5.01-18.21-7.1-27.43"/></g></svg>