<svg xmlns="http://www.w3.org/2000/svg" viewBox="0 0 596 394"><g fill="none" stroke-width="2"><path stroke="#08aa9a" d="M596 196.91q-98.53.42-130.24.16-1.94-.02-1.64-1.52" vector-effect="non-scaling-stroke"/><path stroke="#83d2a1" d="M464.12 195.55q1.89-3.5 2-6.3.38-9.97.15-10.81a.8.79 48.7 00-1.5-.1q-.61 1.46-4.09 3.46a5.59 5.45-83.4 00-1.35 1.1q-5.14 5.72-11.33 9.59-10.4 6.49-21.14 11.89-7.6 3.83-21.47 13.76-8.28 5.94-15.2 13.55-15.91 17.52-18.36 41.56c-.79 7.79.23 17.17 3.88 24.6q1.6 3.26 2.36 5.3a.2.2-22.6 01-.11.26v.01a.2.2-23.4 01-.27-.1c-1.61-3.28-3.9-6.41-4.79-9.7q-1.65-6.15-1.92-9.39-1.53-18.45 6.46-35.28c6.64-13.97 17.39-24.68 29.74-33.88q5.34-3.98 20.84-12.63 16.43-9.16 21.58-12.82 3.47-2.46 9.08-8.73a4.03 3.73 81.5 00.56-.82q6.54-12.89 6.83-24.79.24-10.05-5.84-20.27" vector-effect="non-scaling-stroke"/><path stroke="#328351" d="m460.23 135.01-3.31 1.48" vector-effect="non-scaling-stroke"/><path stroke="#83d2a1" d="M456.92 136.49q.14-10.53-2.18-16.71-3.65-9.74-11.03-17.1a.69.69 0 00-1.18.55q1.53 17.81-6.99 33.57-7.02 12.98-16.06 25.44c-10.23 14.08-28.02 36.72-39.74 55.98q-7.07 11.6-12.6 25.39c-2.15 5.34-3.47 11.33-4.56 17.46q-2.7 15.18 2.44 29.68.73 2.09 4.31 10.21a.26.25-28.4 01-.1.32q-.14.09-.49-.05a.35.33 6.1 01-.23-.27q-.26-1.94-.7-2.51-1.72-2.24-3.12-5.96-6.56-17.36-2.23-35.75 2.83-12.02 7.6-22.21 6.63-14.17 17.21-29.76c8.81-13 17.89-25.23 27.69-38.27a228 228 0 0018.61-28.94q2.91-5.4 5.55-13.44 1.38-4.19 1.51-7.86.6-17.31-8.72-31.67-6.42-9.9-19.28-15.5" vector-effect="non-scaling-stroke"/><path stroke="#328351" d="M412.63 69.09q-2.44-.65-4.25-.25" vector-effect="non-scaling-stroke"/><path stroke="#83d2a1" d="M408.38 68.84q-10.76-17.88-31.2-23.38" vector-effect="non-scaling-stroke"/><path stroke="#328351" d="M377.18 45.46q-.63.65-1.18.98a2.74 2.73-41.6 01-3.09-.18q-2.2-1.72-4.81-2.23" vector-effect="non-scaling-stroke"/><path stroke="#83d2a1" d="M368.1 44.03c-10.36-6.53-22.02-9.58-34.17-10.41a.49.49 0 00-.45.75l.43.67a.24.1 67.5 00.06.06q15.83 13.53 25.55 31.31c6.26 11.47 10.48 25.98 11.87 38.61q2.37 21.58-1.38 44.48-1.99 12.21-6.6 29.49c-1.75 6.6-4.45 13.07-7.05 19.52" vector-effect="non-scaling-stroke"/><path stroke="#08aa9a" d="M356.36 198.51q-.39-.36-.57-1.1a1.1 1.1 0 00-1.1-.86h-1.54a1.19 1.18 23.2 00-.81.32l-1.62 1.54" vector-effect="non-scaling-stroke"/><path stroke="#83d2a1" d="M350.72 198.41c3.8-12.27 8.02-24.71 9.97-37.18q1.33-8.47.56-18.48c-.98-12.69-9.24-26.43-22.39-29.12q-7.53-1.53-13.93 3.48c-9.53 7.47-11.36 26.74-1.41 34.77q1.81 1.47 3.58 2.67" vector-effect="non-scaling-stroke"/><path stroke="#328351" d="M327.1 154.55q.91 3.6 3.03 2.03" vector-effect="non-scaling-stroke"/><path stroke="#7fc138" d="M330.13 156.58q5.59 8.41 6.73 18.88.06.58.34.96a.39.39 0 00.68-.12q3.58-11.13.49-22.29-.23-.84-1.08-.58" vector-effect="non-scaling-stroke"/><path stroke="#328351" d="M337.29 153.43q.48-.36.28-1.14" vector-effect="non-scaling-stroke"/><path stroke="#83d2a1" d="M337.57 152.29q.75-.22.87-.8 1.19-5.7-1.39-11.62l-2.15-4.95c-2.11-5.97 4.87-8.56 8.6-5.15 6.9 6.31 7.98 15.89 7.12 24.99q-2.14 22.58-11.31 43.65" vector-effect="non-scaling-stroke"/><path stroke="#08aa9a" d="M339.31 198.41q-.49.26-1.11-1.17a.8.8 0 00-.68-.44l-78.01.39" vector-effect="non-scaling-stroke"/><path stroke="#83d2a1" d="M259.51 197.19q-7.17-17.62-9.38-31.57-1.62-10.22-1.24-19.78c.22-5.57 3.56-17.09 10.56-17.52 6.56-.4 6.31 5.41 3.73 9.59q-3.57 5.76-2.29 13.76" vector-effect="non-scaling-stroke"/><path stroke="#328351" d="M260.89 151.67q-.23.82-.09 1.36" vector-effect="non-scaling-stroke"/><path stroke="#7fc138" d="M260.8 153.03q-.31.27-.31.47.07 4.35-.01 8.7-.08 4.37.11 6.47.31 3.44.53 6.49a.62.61 47.7 001.22.06q1.67-10.3 6.68-17.37" vector-effect="non-scaling-stroke"/><path stroke="#328351" d="M269.02 157.85q4.03-1.92 5.88-3.44.56-.46.05-1.4" vector-effect="non-scaling-stroke"/><path stroke="#83d2a1" d="M274.95 153.01q8-7.26 7.66-18.26-.32-10.79-8.06-17.78-2.27-2.05-7.46-3.3c-10.7-2.57-22.63 8.18-26.09 17.36q-4.74 12.53-2.66 26.69 2.43 16.47 8.35 33.65 1.04 3 1.85 6.23" vector-effect="non-scaling-stroke"/><path stroke="#08aa9a" d="M248.54 197.6q-2.59-1.21-5.77.05" vector-effect="non-scaling-stroke"/><path stroke="#83d2a1" d="M242.77 197.65q-5.11-10.88-7.81-22.34-3.77-15.96-4.62-20.55-4.76-25.65-2.39-48 4.67-44.14 38.35-72.48a.51.51 0 00-.38-.89c-12.44 1.27-24.14 4.09-34.82 10.9" vector-effect="non-scaling-stroke"/><path stroke="#328351" d="M231.1 44.29c-2.52.6-5.65 2.66-8.06.83a1.4 1.39 65.4 00-.74-.28q-1.53-.14-1.95 1.01" vector-effect="non-scaling-stroke"/><path stroke="#83d2a1" d="M220.35 45.85q-18.61 6.1-28.84 22.33" vector-effect="non-scaling-stroke"/><path stroke="#328351" d="m191.51 68.18-6.01 1.25" vector-effect="non-scaling-stroke"/><path stroke="#83d2a1" d="M185.5 69.43q-19.8 10.32-25.21 31.56" vector-effect="non-scaling-stroke"/><path stroke="#328351" d="m160.29 100.99-3.76 1.22" vector-effect="non-scaling-stroke"/><path stroke="#83d2a1" d="M156.53 102.21q-12.76 11.6-13.86 28.58" vector-effect="non-scaling-stroke"/><path stroke="#328351" d="m142.67 130.79-4.88 6.16" vector-effect="non-scaling-stroke"/><path stroke="#83d2a1" d="M137.79 136.95q-8.51 19.2.02 38.02 1.92 4.25 2.27 4.78c2.6 3.98 7.39 8.41 11.18 10.82q9.24 5.87 27.74 16.1c15.23 8.41 32.71 22.69 40.87 37.89 5.14 9.6 8.66 20.76 8.7 31.84q.03 7.89-.22 9.32-1.46 8.39-3.01 11.09-1.96 3.4-3.59 6.73a.2.2 24.3 01-.23.08.2.2 0 01-.1-.26l4.16-9.83a1.79 1.38 71.3 00.11-.32l1.84-7.87a2.37 2.03 56.5 00.07-.56q.15-10.57-.06-12.78-.64-6.77-3.89-16.34-2.3-6.78-5.43-11.82-4.4-7.09-7.68-10.64-7.9-8.58-13.94-13.29-11.89-9.27-28.91-18.16-5.67-2.96-8.38-4.63c-4.34-2.68-11.65-6.65-16.31-11.34-3.26-3.27-6.14-5.1-9.25-8.11a.39.39 0 00-.66.28l.13 11.68a1.21 1.03 40.3 00.06.36q.99 2.77 2.44 6.94" vector-effect="non-scaling-stroke"/><path stroke="#08aa9a" d="M135.72 196.93 0 196.95" vector-effect="non-scaling-stroke"/><path stroke="#7dd0f0" d="M242.77 197.65q5.17 13.2 9.39 26.88c6.1 19.75 7.37 39.87-.84 59.05q-.94 2.18-4.87 7.81" vector-effect="non-scaling-stroke"/><path stroke="#c9c9c9" d="M246.45 291.39q-2.32 3.76-6.07 6.18a.3.3 0 00-.09.31l.1.26a.34.34 0 00.48.16q4.71-2.8 10.38-7.37c2.53-2.04 4.31-5.25 6.77-7.91q1.68-1.81 3.79-8.65" vector-effect="non-scaling-stroke"/><path stroke="#7dd0f0" d="M261.81 274.37q6.49-14.2 2.92-29.62-3.42-14.76-9.51-29.61c-2.56-6.25-4.5-11.69-6.68-17.54" vector-effect="non-scaling-stroke"/><path stroke="#a7a8a7" d="m274.95 153.01-3.63 1.91a1.04 1.04 0 01-1.44-.5q-1.91-4.27 1.01-6.57a1.68 1.67-21.2 00.64-1.43l-.61-9.93v-.02l-.03-.03a.4.4 0 00-.43.33c-.33 2.2-.41 4.05-2.36 5.92-3.06 2.94-.46 10.04-7.21 8.98" vector-effect="non-scaling-stroke"/><path stroke="#7dd0f0" d="M259.51 197.19q7.16 14.79 14.44 28.97 5.44 10.58 8 17.45c5.4 14.51 9.6 30.13 10.81 44.15 1.7 19.54-4.67 41.01-18.34 54.64-11.45 11.42-27.22 16.95-43.17 18.06q-8.01.57-18.3-.03c-20.12-1.17-37.25-11.15-49.72-26.9q-8.82-11.13-12.09-25.08" vector-effect="non-scaling-stroke"/><path stroke="#c9c9c9" d="M151.14 308.45q.04-.54.29-.95a.48.48 0 01.76-.08q2.37 2.58 5.84 4.3a.59.59 0 01-.1 1.09q-1.24.35-2.4.28a.6.6 0 00-.56.88l4.7 8.56q2.47 4.49 9.05 10.25 6.48 5.68 22.01 12.65 1.42.64 2.98.7a.55.55 0 00.56-.67l-1.38-6.3a1.45 1.44 11.7 00-.56-.85q-.44-.33-.66-.7a.23.23 0 01.31-.32c13.78 7.23 31.33 11.56 46.96 8.95a.2.2 0 00.14-.19v-.01a.2.2 0 00-.23-.2q-10.99.55-16.09-.17-16.96-2.38-32-10.9a.78.78 0 00-1.11.98l3.4 8.08a.96.96 0 01-.75 1.32l-.26-.01a1.02.93-29.2 01-.34-.08q-9.76-4.52-18.24-9.97-11.14-7.16-15.25-19.19a1.77 1.77 0 011.86-2.33l3.72.39a.34.33 58.3 00.15-.65c-5.78-2.24-11.62-6.66-13.53-12.84" vector-effect="non-scaling-stroke"/><path stroke="#7dd0f0" d="M150.41 300.47q-.63-2.14-.53-4.46a.49.48 20.9 01.79-.35c5.19 4.19 10.26 3.68 17.58 2.5q9.15-1.48 19.25.33 5.57 1 7.68 6.07a.35.35 68 00.44.19h.02a.32.31 69.8 00.18-.4c-2.12-5.91-7.27-6.65-12.8-7.88a3.55 3.48 66.8 01-1.07-.44c-5.95-3.85-5.85-8.48-8.1-13.84q-.25-.61-.17-.93.13-.46.54-.81" vector-effect="non-scaling-stroke"/><path stroke="#a7a8a7" d="M174.22 280.45q.88-.47 1.53-.47 10.5-.09 19.18 5.31c6.28 3.91 8.33 9.88 7.11 16.91a.1.1 7.6 00.07.08l.25.03a.26.25 9.2 00.27-.19q2.73-12.88-8.64-18.62-5.97-3.01-7.92-3.34-4.48-.75-8.34-3.06" vector-effect="non-scaling-stroke"/><path stroke="#7dd0f0" d="M177.73 277.1q-3.93-2.93-5.91-5.67-4.78-6.63-10.21-10.53-.7-.51-.28-1.21" vector-effect="non-scaling-stroke"/><path stroke="#a7a8a7" d="M161.33 259.69q14.47 1.01 30.22 8.78c11.38 5.61 20.05 16.81 17.62 29.78q-.91 4.85-.8 5.04a.31.31 0 00.58-.08c.12-.48-.15-1.17.15-2.08q3.03-9.31-.46-17.41c-6.54-15.14-27.74-22.21-42.54-24.56q-1.05-.17-4.87-1.88" vector-effect="non-scaling-stroke"/><path stroke="#7dd0f0" d="M161.23 257.28q-6.79-3.12-11.18-9.04c-1.71-2.32-2.6-5.19-4.38-7.49a.9.9 0 01-.09-1q.5-.98 1.42-.66" vector-effect="non-scaling-stroke"/><path stroke="#a7a8a7" d="M147 239.09q11.5.84 24.98 4.47 16.51 4.45 27.88 13.6c15.17 12.19 17.5 28.19 12.23 46.54a.3.3 0 00.2.39l.02.01a.33.33 0 00.42-.17q2.27-5.04 2.86-11.05c1.76-17.63-5.32-30.88-19.82-40.27-12.67-8.19-29.24-12.87-43.94-14.51a3.53 3.51 68.9 01-1.9-.85l-2.52-2.23" vector-effect="non-scaling-stroke"/><path stroke="#7dd0f0" d="m147.41 235.02-3.09-3.86c-3.54-4.43-5.13-9.01-6.39-15.3q-.49-2.47-1.93-5.35a.51.51 0 01.64-.7l5.15 2.05" vector-effect="non-scaling-stroke"/><path stroke="#a7a8a7" d="M141.79 211.86c2.33.58 4.48.98 6.8 1.78q13.33 4.63 17.45 6.35 14.99 6.27 26.81 14.43c9.47 6.55 16.47 13.37 22.12 23.27 6.76 11.88 7.87 25.89 4.43 39q-1 3.81-2.06 6.9a.2.2 0 00.11.23h.01a.2.2-66.6 00.22-.09q3.64-7.71 4.4-15.09.2-2.01.08-9.58c-.2-11.88-5.68-22.67-12.73-31.49q-2.42-3.04-9.04-8.98-4.65-4.19-10.23-7.6c-11.97-7.33-24.06-12.62-37.54-17.02a6.12 5.78 69.8 01-1.47-.73l-3.17-2.15" vector-effect="non-scaling-stroke"/><path stroke="#7dd0f0" d="M147.98 211.09q-5.67-5.09-7.59-7.23-2.57-2.87-4.67-6.93" vector-effect="non-scaling-stroke"/><path stroke="#a7a8a7" d="M137.79 136.95q.66-1.24 1.38-.91a.37.35 10.6 01.21.29l.62 5.84a.78.71-60.9 00.05.21q4.01 12.05 12.02 20.6c7.89 8.42 17.52 15.79 26.87 23.55a274 274 0 0131.6 30.68 83 83 0 0111.12 16.35q5.6 11.16 9.11 25.39.72 2.9.82 4.63c.25 4.18 1.22 7.58 1.02 11.71q-.53 10.96-3.26 18.33-.59 1.6-3.95 8.75a.2.2 26.6 00.08.23.1.09 33.6 00.13-.02q4.4-6.17 6.11-13.04 2.48-9.94 1.53-20.02-2-21.31-12.53-39.78-5.35-9.38-15.13-19.74-10.43-11.04-17.89-17.59-7-6.14-16.64-13.91c-9.59-7.74-18.27-15.03-24.14-24.95-3.91-6.6-4.89-15.53-4.25-22.76" vector-effect="non-scaling-stroke"/><path stroke="#a7a8a7" d="M156.53 102.21q.13 2.91.11 5.7-.04 3.8.29 5.65c.61 3.55.55 7.4 1.78 10.88q3 8.51 5.39 12.99 5.83 10.96 14.37 22.63l25.75 35.2q10.78 14.75 15.65 23.36c7.67 13.54 13.64 25.02 16.13 38.59 1.51 8.22 2.53 14.4 1.28 21.75q-.73 4.26-2.42 10.55c-1.04 3.85-3.79 8.48-5.17 11.93a.34.34 0 00.43.45q.28-.1.36-1.02a1.74 1.69-25 01.34-.89q2.82-3.74 4.59-9.04c3.38-10.1 4.2-18.8 2.46-29.64q-2.31-14.39-8.64-27.32-6.59-13.46-14.06-24.89-1.68-2.57-8.15-12.05c-3.58-5.23-8.4-11.17-12.27-17.04-.88-1.35-2.46-2.87-3.17-3.84q-14.38-19.65-20.59-29.65c-5.06-8.15-10.86-19.07-11.93-28.28q-.93-7.98 1.23-17.24" vector-effect="non-scaling-stroke"/><path stroke="#a7a8a7" d="M185.5 69.43q2.02-.55.6 2.48-1.08 2.33-1.35 3.32c-3.71 13.57-4.87 27.56-2.04 41.63q2.06 10.23 4.99 18.26 4.99 13.73 13.59 28.64 8 13.87 18.29 30.87 8.82 14.57 13.3 24.96c4.53 10.52 8.05 20.92 9.6 32.79q2.31 17.71-3.8 37.26-1.06 3.37-3.05 6.08c-1.31 1.78-1.49 3.9-3.5 5.2a.22.22 0 00.12.41q.96 0 1.72-1.1 2.05-2.98 4.04-6.44 1.69-2.94 2.88-7 6.03-20.56 1.67-41.22-3.71-17.61-12.28-34.41-6.65-13.04-9.86-18.01-11.36-17.58-18.35-30.36-2.73-4.99-7.22-14.39-6.46-13.5-9.47-26.85c-2.36-10.49-3.04-22.22-1.78-31.98q1.4-10.81 7.91-21.39" vector-effect="non-scaling-stroke"/><path stroke="#a7a8a7" d="m220.35 45.85 1.4-.18a.62.62 0 01.58.97c-3.52 4.94-6.88 10.18-9.31 15.68q-15.41 34.85-5.41 72.56 3.91 14.74 9.68 28.08 7.25 16.78 12.62 27.88c3.44 7.14 6.37 14.81 9.68 22.78 9.87 23.81 13.55 51.36 3.55 75.45q-2.03 4.87-7.26 10.64a.18.18 0 00.18.29q1.49-.39 2.59-1.87c3.22-4.33 5.9-8.64 7.52-14.36q3.63-12.8 4.06-20.79.53-9.94-1.37-20.96-2.96-17.14-10.44-34.46-.96-2.22-3.97-9.51-1.61-3.9-4.25-9.4-7.55-15.75-14-31.85c-7.19-17.93-12.08-39.15-10.45-58.28q1.65-19.38 8.45-35.07 5.08-11.72 16.9-19.16" vector-effect="non-scaling-stroke"/><path stroke="#c9c9c9" d="M217.58 120.7q-.74-21.82 4.64-41.96 3.47-12.98 12.83-26.36c2.65-3.79 5.66-6.23 9.56-9.92a.5.5 0 00-.55-.82q-5.55 2.49-10.61 6.48a4.26 4.2 89.6 00-.76.78q-7.09 9.65-10.16 19.61-7.69 24.96-5.3 52.15a.2.19 84.1 00.21.18h.01a.14.13-4.2 00.13-.14m-15.17 25.99.01-.01a.25.24-24.3 00.13-.32c-11.62-24.59-10.44-55.76.58-80.93a.32.32 0 00-.54-.35q-3.14 3.52-4.86 7.89-8.14 20.56-5.31 41.88 2.11 15.95 9.68 31.73a.24.24 0 00.31.11m-15.88 10.11a.05.05 0 00.08-.05q-3.63-6-5.08-8.7-13.12-24.55-10.11-52.56.57-5.39 1.85-9.66a.32.32 0 00-.55-.31c-7.67 8.6-7.18 23.56-4.51 33.97q5.34 20.77 18.32 37.31m-.71 27.52a.23.23 0 00-.03-.32q-12.19-10.34-20.14-21.66c-7.82-11.12-14.17-25.47-15.81-39.17a.31.31 0 00-.61.01l-1.07 10.2a3.71 3.59-49.8 00.08 1.2q2.68 10.79 6.67 16.89 6.1 9.33 9.32 12.86 1.83 1.99 8.38 8.75c4.08 4.21 8.32 7.5 12.85 11.28a.25.25 0 00.35-.03l.01-.01m17.86-36.1q0-.06-.24-.41a.24.24 0 00-.42.21q.14.39.27.45a.27.27 0 00.39-.25m-28.26 49.89h.01a.25.24-57.4 00-.07-.32c-6.41-4.47-12.9-7.92-18.44-13.64q-9.16-9.48-14.87-19.87a5.22 5.15 21.7 01-.35-.79l-1.48-4.31a.39.38-55.9 00-.74.15c.16 4.08.13 6.51 1.33 9.36 4.68 11.11 14.02 19.72 24.83 24.66q4.56 2.09 9.57 4.81a.15.15 0 00.21-.05m16.11 26.95c-3.02-2.15-5.53-4.66-9.03-6.68-10.57-6.09-16.81-9.06-30.07-15.29q-2.99-1.4-6.2-3.46-2.57-1.65-5.72-4.34a.43.43 0 00-.68.48c2.1 5.51 3.76 7.23 9.35 9.69 10.7 4.74 20.81 8.46 30.95 12.94q4.29 1.89 11.17 7.13a.19.18 37.2 00.26-.03l.03-.05a.27.27 0 00-.06-.39m-2.26 17.62a.15.15 0 00.15-.26q-8.04-5.21-14.24-7.31-15.75-5.35-18.33-6.27-7.13-2.56-12.45-6.85a.57.57 0 00-.87.67q1.86 4.28 4.56 7.67c.85 1.07 3.7 2 5.27 2.27q16.56 2.82 19.42 3.52 5.92 1.41 16.49 6.56m4.19 20.11v-.01a.2.2 0 00-.05-.28q-4.03-2.77-7.91-4.25-5.59-2.14-15.06-4.71a46 46 0 01-12.72-5.59.4.39 29.8 00-.56.15q-.12.24 0 .39 3.25 4.2 7.83 7.1a4.63 4.6-25 001.96.71c9.73 1.19 18.28 1.26 26.32 6.53a.14.14 0 00.19-.04" vector-effect="non-scaling-stroke"/><path stroke="#a7a8a7" d="M198.07 283.55a.26.26 0 00.37-.01v-.01a.16.15-46.8 000-.22q-7.48-7.41-18.05-9.6c-1.57-.32-3.2-1.44-4.67-1.68a.31.31 0 00-.26.54c2.06 1.77 3.69 2.74 6.5 3.23q9.26 1.61 16.11 7.75m-4.85 12.36a.16.15 35.3 00-.04-.21q-5.13-3.84-11.48-4.9a.89.86-16.4 01-.46-.24l-1.96-1.96a.37.36 12.2 00-.6.38q1.04 2.64 3 3.51a2.24 2.2 56.8 00.92.2q5.48-.05 10.25 3.3a.26.25-55.1 00.36-.07l.01-.01M368.1 44.03q12.07 7.62 17.28 19.8 13.3 31.11 6.13 65.9c-3.96 19.22-11.8 36.8-20.22 54.8q-4.77 10.2-11.31 25.94-7.52 18.09-10.07 36.7-2.37 17.26 3.73 37.55c1.32 4.4 4.02 8.71 6.27 12.27q1.14 1.81 3.37 2.91a.1.09-8 00.12-.15 41.6 41.6 0 01-9.32-16.51 89 89 0 01-2.76-39.38q2.4-15.95 9.26-32.56 6.74-16.32 12.06-27.3a448 448 0 0013.02-29.86q4.42-11.43 7.44-25.23 8.05-36.74-8.62-70.63-.63-1.28-3.85-6.27-2.03-3.13-3.45-6.55" vector-effect="non-scaling-stroke"/><path stroke="#a7a8a7" d="m408.38 68.84 1.96 3.44a29.64 29.38 21.4 012.46 5.57q2.15 6.65 2.54 8.79c6.48 36.17-13.69 70.88-31.98 99.78q-5.78 9.13-9.55 16.17-6.27 11.7-8.39 16.78-3.28 7.87-5.78 15.76c-5.37 16.94-6.18 34.5-1.03 51.33q1.56 5.1 2.67 6.85 2.32 3.67 3.8 6.55.38.74 2.19 1.29a.08.08 0 00.07-.14l-1.21-1.05a3.27 3.25 7.2 01-.82-1.05c-2.22-4.37-3.76-6.67-5.1-10.94q-8.34-26.56.59-53.52 3.29-9.95 4.78-13.15 7.51-16.19 15.64-29.22 4.88-7.83 7.29-11.86c4.82-8.08 9.03-14.63 12.68-21.95l5.08-10.22q5.03-10.41 8.54-22.99 6.75-24.23.18-48.36-.22-.8-1.31-3.75-.71-1.92-1.05-3.86" vector-effect="non-scaling-stroke"/><path stroke="#a7a8a7" d="M456.92 136.49q-.2 8.45-2.5 13.66-.96 2.19-4.97 8.12-2.5 3.71-6.22 7.23-6.86 6.5-9.41 8.56c-16.01 12.94-29.34 24.13-42.69 38.95q-9.2 10.23-13.99 19.8c-8.54 17.03-13.42 35.8-9.94 54.19q1.65 8.71 6.69 15.46a.2.2 54.3 00.28.05v-.01a.16.15-33.7 00.05-.22c-14.13-23.18-5.67-54.6 7.76-75.93 3.88-6.17 9.53-12.29 13.94-16.93q14.11-14.82 31.03-28.22 11.57-9.15 20.49-18.26 2.46-2.5 6.88-9.35 5.27-8.16 5.91-18.58" vector-effect="non-scaling-stroke"/><path stroke="#7dd0f0" d="M464.12 195.55c-3.06 7.59-8.66 12.37-15.2 16.91" vector-effect="non-scaling-stroke"/><path stroke="#a7a8a7" d="M448.92 212.46q-2.06 1.36-3.64 1.86-14.63 4.56-29.04 12.43-14.89 8.14-24.89 19.36c-8.14 9.14-14.34 21.67-14.32 33.97q.01 7.09.3 9.17.9 6.59 4.3 14.57a.3.3 0 00.44.15l.12-.07a.3.3-27.1 00.12-.36q-5.89-14.41-3.81-28.12 2.59-17.06 15.27-30.19 7.51-7.77 16.21-13 12.32-7.41 24.64-12.45c5-2.04 10.4-3.77 15.6-5.72" vector-effect="non-scaling-stroke"/><path stroke="#7dd0f0" d="m450.22 214.06 12.38-4.11a.6.6 0 01.74.8q-1.25 3.03-2.05 6.29c-1.93 7.82-4.74 13.82-10.79 19.38" vector-effect="non-scaling-stroke"/><path stroke="#a7a8a7" d="M450.5 236.42q-1.07 1.34-1.87 1.43-17.29 1.99-32.27 8.07-13.78 5.59-22.62 15.06c-10.79 11.56-12.84 28.25-7.14 42.94a.35.35-20.9 00.44.19l.08-.03a.34.33-18.5 00.21-.41c-4.17-13.84-3.88-27.28 4.87-39.15 6.34-8.6 17.8-14.95 28.21-18.55q15.3-5.31 31.36-6.76" vector-effect="non-scaling-stroke"/><path stroke="#7dd0f0" d="M451.77 239.21q1.8-.42 2.14.6a.68.67-36.3 01-.1.63q-1.16 1.49-2.85 5.26c-2.57 5.71-9.45 10.21-15.56 12.84a5.4 5.31-60.2 01-1.39.39q-15.38 2.09-29.23 10.04c-9.12 5.24-15.86 14.31-15.88 25.1 0 2.45 1.16 5.56 1.73 8.29q-.05-1.83-.59-5.63a24 24 0 013.14-15.1c5.36-8.73 13.06-13.07 23.14-16.92q10.15-3.87 21.02-4.94a.64.64 0 01.4 1.19c-4.63 2.86-6.68 6.03-11.07 11.7q-1.52 1.96-5.63 4.74" vector-effect="non-scaling-stroke"/><path stroke="#a7a8a7" d="M421.04 277.4q-2.61 1.66-7.02 2.66-7.35 1.67-13.5 7.2c-4.67 4.19-4.21 8.57-3.74 14.93a.2.2 0 00.2.18h.01a.19.18 88.4 00.17-.19q-.23-6.41.52-8.53c3.13-8.89 13.15-12.39 22.04-13.63" vector-effect="non-scaling-stroke"/><path stroke="#7dd0f0" d="m419.72 280.02 4.79.26a1.1 1.1 0 011 1.42q-.6 2.01-2.3 7.47-.76 2.44-4.79 6.4a2.93 2.91-74.8 01-1.21.7c-4.09 1.16-13.87 2.6-13.08 8.6v.01c1.58-7.8 14.09-7.57 21.06-7.38q2.54.07 7.1.88c6.03 1.08 10.8.96 16.02-2.46a1.06 1.06 0 011.6 1.18l-1.47 5.15" vector-effect="non-scaling-stroke"/><path stroke="#c9c9c9" d="M448.44 302.25q-2.03 4.45-4.09 5.61-2.98 1.68-4.9 3.68a1.86 1.82 15.2 01-.95.53q-2.06.43-2.99.77a.44.44 0 00.15.86h4.11a1.52 1.52 0 011.46 1.92q-1.79 6.52-6.19 11.13-5.72 5.98-8.63 7.92-8.83 5.88-19.1 10.25a.73.73 0 01-.96-.95l3.73-8.8a.64.64 0 00-.92-.79q-13.57 8.01-29.24 10.74-9.06 1.58-20.14.57a.16.15-80.2 00-.17.13v.01a.2.2 0 00.16.21q6.25 1.12 11.74.91 17.9-.7 35.42-9.19a.32.32 0 01.43.41l-2.92 6.89a.99.99 0 001.26 1.31q6.67-2.56 11.57-4.83 18.99-8.79 27.08-27.43a.54.54 0 00-.56-.75q-1.06.14-1.95-.15a.93.92-50.6 01-.16-1.68l3.89-2.21c.96-.55 1.15-1.55 1.71-2.2a.47.47 0 01.77.08q.49.89.18 2.26" vector-effect="non-scaling-stroke"/><path stroke="#7dd0f0" d="M448.23 309.46c-3.75 14.49-12.53 27.01-24.19 36.58q-2.27 1.87-4.38 3.05c-3.79 2.13-7.53 4.87-11.66 6.48-12.38 4.81-25.2 5.66-37.93 5.03-11.2-.55-25.33-3.72-34.72-10.06q-11.34-7.66-17.42-16.98-12.73-19.54-11.29-45.59.06-1.08.99-8.15.61-4.68 1.45-8.06 4.03-16.25 10.21-32.46 1.69-4.42 4.38-9.6 8.11-15.62 15.64-31.29" vector-effect="non-scaling-stroke"/><path stroke="#a7a8a7" d="M337.57 152.29q-2.69-.79-3.87-2.99c-1.17-2.18.19-3.87-2.07-6.17q-2.82-2.88-2.72-6.6a.32.32 0 00-.33-.33h-.01a.2.2-1.8 00-.17.17l-.19 10.06a2.14 2.13 22.8 00.65 1.58q2.81 2.75.44 6.88a.78.77 20.8 01-.84.37q-.64-.14-1.36-.71" vector-effect="non-scaling-stroke"/><path stroke="#7dd0f0" d="M350.72 198.41q-7.11 17.9-13.47 36.34-1.04 3.02-2.51 10.45" vector-effect="non-scaling-stroke"/><path stroke="#c9c9c9" d="M334.74 245.2q-3.31 15.09 2.68 29.2 2.45 5.76 5.16 10.02 3.23 5.09 8.59 8.12" vector-effect="non-scaling-stroke"/><path stroke="#7dd0f0" d="M351.17 292.54q2.78 2.97 6.95 5.32a.16.16 0 00.19-.25l-3.84-3.84a.04.03-89.4 00-.05.05q.62.69-4.03-6.25-2.01-3-3.33-6.43-5.84-15.25-4.51-32.14c1.36-17.31 7.34-34.22 13.81-50.49" vector-effect="non-scaling-stroke"/><path stroke="#c9c9c9" d="M355.28 41.5a.5.49 80.6 00-.57.8c4.41 3.92 8.09 7.39 10.97 11.78q8.19 12.47 11.47 24.28 4.6 16.6 5.25 39.03a.2.2 0 00.21.2l.04.01a.3.3 1 00.29-.27q.91-23.38-5.16-45.99c-2.13-7.95-6.59-16.32-10.83-22.55a4.81 4.79-1.8 00-1.55-1.45l-10.12-5.84m41.91 104.95a.24.24 0 00.31-.12q7.52-15.9 9.56-31.95 2.73-21.45-5.57-42.08-1.75-4.38-4.93-7.9a.33.33 0 00-.54.35c11.22 25.25 12.57 56.58 1.03 81.37a.25.24 24 00.13.32l.01.01m15.26 10.89q13.19-16.53 18.73-37.37c2.77-10.45 3.39-25.49-4.26-34.2a.32.32 0 00-.55.3q1.25 4.31 1.78 9.73 2.8 28.2-10.6 52.78-1.48 2.7-5.18 8.71a.05.05 0 00.08.05m1.21 26.91.01.01a.25.25 0 00.35.03c4.52-3.75 8.75-7.02 12.82-11.2q6.53-6.72 8.36-8.7 3.21-3.51 9.31-12.78 3.98-6.07 6.67-16.81a3.69 3.57 49.9 00.08-1.19l-1.04-10.16a.31.3 45.9 00-.61-.01c-1.66 13.64-8.01 27.91-15.82 38.97q-7.94 11.25-20.1 21.52a.23.23 0 00-.03.32m8.7 14.85a.16.16 0 00.22.06q5.27-2.83 10.07-4.99c11.38-5.12 21.24-14.1 26.22-25.73 1.28-2.99 1.26-5.54 1.46-9.82a.4.4 0 00-.78-.16l-1.58 4.51a5.48 5.4-21.4 01-.37.83q-6.06 10.87-15.74 20.76c-5.85 5.97-12.68 9.55-19.44 14.21a.26.25 57.8 00-.07.33h.01m-11.31-40.09-1.06 1.21a.16.15-46.4 000 .21q.05.08.29.16.11.03.35-.25.37-.45.6-1.23a.11.11 0 00-.18-.1m-1.63 65.48a.16.16 0 00.22.02q5.92-4.41 11.68-6.94 6.7-2.95 25.32-10.45c6.66-2.68 10.58-4.11 12.7-10.72q.23-.73.06-1.22a.26.26 0 00-.43-.11q-3.65 3.38-8.44 6.2-3.07 1.81-19.43 9.36-7.17 3.3-18.12 10.34-.52.33-3.75 3.19a.1.1 46.8 000 .15l.19.18m.07 18.43q10.74-5.21 16.75-6.64 2.91-.7 19.73-3.54c1.59-.27 4.49-1.21 5.35-2.3q2.75-3.44 4.65-7.78a.58.58 0 00-.89-.68q-5.4 4.35-12.65 6.93-2.62.93-18.62 6.34-6.3 2.13-14.47 7.4a.15.15 0 00.15.27m-3.56 19.94a.14.14 0 00.19.04c8.15-5.36 16.83-5.45 26.7-6.67a4.7 4.67 24.9 001.99-.72q4.65-2.96 7.94-7.22.12-.16 0-.4a.4.4-29.8 00-.57-.15 46 46 0 01-12.9 5.69q-9.61 2.63-15.28 4.81-3.93 1.51-8.02 4.32a.2.2 0 00-.05.29v.01" vector-effect="non-scaling-stroke"/><path stroke="#a7a8a7" d="M400.47 284.19q7.16-6.52 16.89-8.3c2.95-.54 4.66-1.57 6.81-3.45a.33.33 0 00-.27-.57c-1.55.26-3.25 1.46-4.9 1.81q-11.11 2.39-18.92 10.26a.17.16 46.3 000 .23v.01a.3.3 0 00.39.01m6.41 11.27.01.01a.24.24 0 00.34.08q4.54-3.05 9.69-2.89a2.1 2.07-55.5 00.86-.17q1.86-.78 2.89-3.23a.34.34 0 00-.55-.37l-1.88 1.8a.84.8 17.6 01-.44.21q-5.98.87-10.88 4.37a.15.15-34.1 00-.04.19" vector-effect="non-scaling-stroke"/><path stroke="#a3983e" d="m337.29 153.43-3.78.76a1.78 1.74-68.8 00-.66.3l-2.72 2.09" vector-effect="non-scaling-stroke"/><path stroke="#a7a8a7" d="M330.06 144.63a1.25.83-112.1 00-.3 1.47 1.25.83-112.1 001.24.85 1.25.83-112.1 00.3-1.47 1.25.83-112.1 00-1.24-.85" vector-effect="non-scaling-stroke"/><path stroke="#a3983e" d="M269.02 157.85q1.15-1.2-1.89-3.37a1.43 1.41 68.1 00-.55-.24l-5.78-1.21" vector-effect="non-scaling-stroke"/><path stroke="#a7a8a7" d="M269.95 145.1a1.13.77-45.2 00-1.35.27 1.13.77-45.2 00-.25 1.34 1.13.77-45.2 001.35-.26 1.13.77-45.2 00.25-1.34" vector-effect="non-scaling-stroke"/><path stroke="#2c81a0" d="M147.98 211.09q-3.07 1.02-6.19.77m5.62 23.16-.41 4.07m14.23 18.19q-.25 1.26.1 2.41m16.4 17.41q-.45 2.2-3.22 2.81-.15.03-.29.54" vector-effect="non-scaling-stroke"/><path stroke="#4fa1c2" d="m150.41 300.47.73 7.98m297.09 1.01.21-7.21" vector-effect="non-scaling-stroke"/><path stroke="#2c81a0" d="M419.72 280.02q2.03-1.95 1.32-2.62m30.73-38.19.31-1.73a.76.75-69.2 00-.35-.79q-.5-.3-1.23-.27m-.28-22.36-1.3-1.6" vector-effect="non-scaling-stroke"/><path stroke="#4fa1c2" d="M351.17 292.54q-1.27-4.97-4.52-7.94-5.04-4.62-7.56-9.16c-1.66-2.97-2.26-5.88-3.56-8.91-1-2.35-1.25-6.37-1.1-8.97q.36-6.13.31-12.36m-72.93 29.17-5.04 6.76" vector-effect="non-scaling-stroke"/><path stroke="#7dd0f0" d="M256.77 281.13q-3.21 1.55-4.42 4.98-.31.85-2.46 3.1" vector-effect="non-scaling-stroke"/><path stroke="#4fa1c2" d="m249.89 289.21-2.29 2.59a.53.53 0 01-.79 0l-.36-.41" vector-effect="non-scaling-stroke"/><path stroke="#c9c9c9" d="M249.89 289.21v.54a.36.35 62.7 00.64.21l6.24-8.83" vector-effect="non-scaling-stroke"/></g><path fill="#0eac4b" d="M596 0v196.91q-98.53.42-130.24.16-1.94-.02-1.64-1.52 1.89-3.5 2-6.3.38-9.97.15-10.81a.8.79 48.7 00-1.5-.1q-.61 1.46-4.09 3.46a5.59 5.45-83.4 00-1.35 1.1q-5.14 5.72-11.33 9.59-10.4 6.49-21.14 11.89-7.6 3.83-21.47 13.76-8.28 5.94-15.2 13.55-15.91 17.52-18.36 41.56c-.79 7.79.23 17.17 3.88 24.6q1.6 3.26 2.36 5.3a.2.2-22.6 01-.11.26v.01a.2.2-23.4 01-.27-.1c-1.61-3.28-3.9-6.41-4.79-9.7q-1.65-6.15-1.92-9.39-1.53-18.45 6.46-35.28c6.64-13.97 17.39-24.68 29.74-33.88q5.34-3.98 20.84-12.63 16.43-9.16 21.58-12.82 3.47-2.46 9.08-8.73a4.03 3.73 81.5 00.56-.82q6.54-12.89 6.83-24.79.24-10.05-5.84-20.27l-3.31 1.48q.14-10.53-2.18-16.71-3.65-9.74-11.03-17.1a.69.69 0 00-1.18.55q1.53 17.81-6.99 33.57-7.02 12.98-16.06 25.44c-10.23 14.08-28.02 36.72-39.74 55.98q-7.07 11.6-12.6 25.39c-2.15 5.34-3.47 11.33-4.56 17.46q-2.7 15.18 2.44 29.68.73 2.09 4.31 10.21a.26.25-28.4 01-.1.32q-.14.09-.49-.05a.35.33 6.1 01-.23-.27q-.26-1.94-.7-2.51-1.72-2.24-3.12-5.96-6.56-17.36-2.23-35.75 2.83-12.02 7.6-22.21 6.63-14.17 17.21-29.76c8.81-13 17.89-25.23 27.69-38.27a228 228 0 0018.61-28.94q2.91-5.4 5.55-13.44 1.38-4.19 1.51-7.86.6-17.31-8.72-31.67-6.42-9.9-19.28-15.5-2.44-.65-4.25-.25-10.76-17.88-31.2-23.38-.63.65-1.18.98a2.74 2.73-41.6 01-3.09-.18q-2.2-1.72-4.81-2.23c-10.36-6.53-22.02-9.58-34.17-10.41a.49.49 0 00-.45.75l.43.67a.24.1 67.5 00.06.06q15.83 13.53 25.55 31.31c6.26 11.47 10.48 25.98 11.87 38.61q2.37 21.58-1.38 44.48-1.99 12.21-6.6 29.49c-1.75 6.6-4.45 13.07-7.05 19.52q-.39-.36-.57-1.1a1.1 1.1 0 00-1.1-.86h-1.54a1.19 1.18 23.2 00-.81.32l-1.62 1.54c3.8-12.27 8.02-24.71 9.97-37.18q1.33-8.47.56-18.48c-.98-12.69-9.24-26.43-22.39-29.12q-7.53-1.53-13.93 3.48c-9.53 7.47-11.36 26.74-1.41 34.77q1.81 1.47 3.58 2.67.91 3.6 3.03 2.03 5.59 8.41 6.73 18.88.06.58.34.96a.39.39 0 00.68-.12q3.58-11.13.49-22.29-.23-.84-1.08-.58.48-.36.28-1.14.75-.22.87-.8 1.19-5.7-1.39-11.62l-2.15-4.95c-2.11-5.97 4.87-8.56 8.6-5.15 6.9 6.31 7.98 15.89 7.12 24.99q-2.14 22.58-11.31 43.65-.49.26-1.11-1.17a.8.8 0 00-.68-.44l-78.01.39q-7.17-17.62-9.38-31.57-1.62-10.22-1.24-19.78c.22-5.57 3.56-17.09 10.56-17.52 6.56-.4 6.31 5.41 3.73 9.59q-3.57 5.76-2.29 13.76-.23.82-.09 1.36-.31.27-.31.47.07 4.35-.01 8.7-.08 4.37.11 6.47.31 3.44.53 6.49a.62.61 47.7 001.22.06q1.67-10.3 6.68-17.37 4.03-1.92 5.88-3.44.56-.46.05-1.4 8-7.26 7.66-18.26-.32-10.79-8.06-17.78-2.27-2.05-7.46-3.3c-10.7-2.57-22.63 8.18-26.09 17.36q-4.74 12.53-2.66 26.69 2.43 16.47 8.35 33.65 1.04 3 1.85 6.23-2.59-1.21-5.77.05-5.11-10.88-7.81-22.34-3.77-15.96-4.62-20.55-4.76-25.65-2.39-48 4.67-44.14 38.35-72.48a.51.51 0 00-.38-.89c-12.44 1.27-24.14 4.09-34.82 10.9-2.52.6-5.65 2.66-8.06.83a1.4 1.39 65.4 00-.74-.28q-1.53-.14-1.95 1.01-18.61 6.1-28.84 22.33l-6.01 1.25q-19.8 10.32-25.21 31.56l-3.76 1.22q-12.76 11.6-13.86 28.58l-4.88 6.16q-8.51 19.2.02 38.02 1.92 4.25 2.27 4.78c2.6 3.98 7.39 8.41 11.18 10.82q9.24 5.87 27.74 16.1c15.23 8.41 32.71 22.69 40.87 37.89 5.14 9.6 8.66 20.76 8.7 31.84q.03 7.89-.22 9.32-1.46 8.39-3.01 11.09-1.96 3.4-3.59 6.73a.2.2 24.3 01-.23.08.2.2 0 01-.1-.26l4.16-9.83a1.79 1.38 71.3 00.11-.32l1.84-7.87a2.37 2.03 56.5 00.07-.56q.15-10.57-.06-12.78-.64-6.77-3.89-16.34-2.3-6.78-5.43-11.82-4.4-7.09-7.68-10.64-7.9-8.58-13.94-13.29-11.89-9.27-28.91-18.16-5.67-2.96-8.38-4.63c-4.34-2.68-11.65-6.65-16.31-11.34-3.26-3.27-6.14-5.1-9.25-8.11a.39.39 0 00-.66.28l.13 11.68a1.21 1.03 40.3 00.06.36q.99 2.77 2.44 6.94L0 196.95V0z"/><path fill="#f7f7f7" d="M242.77 197.65q5.17 13.2 9.39 26.88c6.1 19.75 7.37 39.87-.84 59.05q-.94 2.18-4.87 7.81-2.32 3.76-6.07 6.18a.3.3 0 00-.09.31l.1.26a.34.34 0 00.48.16q4.71-2.8 10.38-7.37c2.53-2.04 4.31-5.25 6.77-7.91q1.68-1.81 3.79-8.65 6.49-14.2 2.92-29.62-3.42-14.76-9.51-29.61c-2.56-6.25-4.5-11.69-6.68-17.54q-.81-3.23-1.85-6.23-5.92-17.18-8.35-33.65-2.08-14.16 2.66-26.69c3.46-9.18 15.39-19.93 26.09-17.36q5.19 1.25 7.46 3.3 7.74 6.99 8.06 17.78.34 11-7.66 18.26l-3.63 1.91a1.04 1.04 0 01-1.44-.5q-1.91-4.27 1.01-6.57a1.68 1.67-21.2 00.64-1.43l-.61-9.93v-.02l-.03-.03a.4.4 0 00-.43.33c-.33 2.2-.41 4.05-2.36 5.92-3.06 2.94-.46 10.04-7.21 8.98q-1.28-8 2.29-13.76c2.58-4.18 2.83-9.99-3.73-9.59-7 .43-10.34 11.95-10.56 17.52q-.38 9.56 1.24 19.78 2.21 13.95 9.38 31.57 7.16 14.79 14.44 28.97 5.44 10.58 8 17.45c5.4 14.51 9.6 30.13 10.81 44.15 1.7 19.54-4.67 41.01-18.34 54.64-11.45 11.42-27.22 16.95-43.17 18.06q-8.01.57-18.3-.03c-20.12-1.17-37.25-11.15-49.72-26.9q-8.82-11.13-12.09-25.08.04-.54.29-.95a.48.48 0 01.76-.08q2.37 2.58 5.84 4.3a.59.59 0 01-.1 1.09q-1.24.35-2.4.28a.6.6 0 00-.56.88l4.7 8.56q2.47 4.49 9.05 10.25 6.48 5.68 22.01 12.65 1.42.64 2.98.7a.55.55 0 00.56-.67l-1.38-6.3a1.45 1.44 11.7 00-.56-.85q-.44-.33-.66-.7a.23.23 0 01.31-.32c13.78 7.23 31.33 11.56 46.96 8.95a.2.2 0 00.14-.19v-.01a.2.2 0 00-.23-.2q-10.99.55-16.09-.17-16.96-2.38-32-10.9a.78.78 0 00-1.11.98l3.4 8.08a.96.96 0 01-.75 1.32l-.26-.01a1.02.93-29.2 01-.34-.08q-9.76-4.52-18.24-9.97-11.14-7.16-15.25-19.19a1.77 1.77 0 011.86-2.33l3.72.39a.34.33 58.3 00.15-.65c-5.78-2.24-11.62-6.66-13.53-12.84q-.63-2.14-.53-4.46a.49.48 20.9 01.79-.35c5.19 4.19 10.26 3.68 17.58 2.5q9.15-1.48 19.25.33 5.57 1 7.68 6.07a.35.35 68 00.44.19h.02a.32.31 69.8 00.18-.4c-2.12-5.91-7.27-6.65-12.8-7.88a3.55 3.48 66.8 01-1.07-.44c-5.95-3.85-5.85-8.48-8.1-13.84q-.25-.61-.17-.93.13-.46.54-.81.88-.47 1.53-.47 10.5-.09 19.18 5.31c6.28 3.91 8.33 9.88 7.11 16.91a.1.1 7.6 00.07.08l.25.03a.26.25 9.2 00.27-.19q2.73-12.88-8.64-18.62-5.97-3.01-7.92-3.34-4.48-.75-8.34-3.06-3.93-2.93-5.91-5.67-4.78-6.63-10.21-10.53-.7-.51-.28-1.21 14.47 1.01 30.22 8.78c11.38 5.61 20.05 16.81 17.62 29.78q-.91 4.85-.8 5.04a.31.31 0 00.58-.08c.12-.48-.15-1.17.15-2.08q3.03-9.31-.46-17.41c-6.54-15.14-27.74-22.21-42.54-24.56q-1.05-.17-4.87-1.88-6.79-3.12-11.18-9.04c-1.71-2.32-2.6-5.19-4.38-7.49a.9.9 0 01-.09-1q.5-.98 1.42-.66 11.5.84 24.98 4.47 16.51 4.45 27.88 13.6c15.17 12.19 17.5 28.19 12.23 46.54a.3.3 0 00.2.39l.02.01a.33.33 0 00.42-.17q2.27-5.04 2.86-11.05c1.76-17.63-5.32-30.88-19.82-40.27-12.67-8.19-29.24-12.87-43.94-14.51a3.53 3.51 68.9 01-1.9-.85l-2.52-2.23-3.09-3.86c-3.54-4.43-5.13-9.01-6.39-15.3q-.49-2.47-1.93-5.35a.51.51 0 01.64-.7l5.15 2.05c2.33.58 4.48.98 6.8 1.78q13.33 4.63 17.45 6.35 14.99 6.27 26.81 14.43c9.47 6.55 16.47 13.37 22.12 23.27 6.76 11.88 7.87 25.89 4.43 39q-1 3.81-2.06 6.9a.2.2 0 00.11.23h.01a.2.2-66.6 00.22-.09q3.64-7.71 4.4-15.09.2-2.01.08-9.58c-.2-11.88-5.68-22.67-12.73-31.49q-2.42-3.04-9.04-8.98-4.65-4.19-10.23-7.6c-11.97-7.33-24.06-12.62-37.54-17.02a6.12 5.78 69.8 01-1.47-.73l-3.17-2.15q-5.67-5.09-7.59-7.23-2.57-2.87-4.67-6.93-1.45-4.17-2.44-6.94a1.21 1.03 40.3 01-.06-.36l-.13-11.68a.39.39 0 01.66-.28c3.11 3.01 5.99 4.84 9.25 8.11 4.66 4.69 11.97 8.66 16.31 11.34q2.71 1.67 8.38 4.63 17.02 8.89 28.91 18.16 6.04 4.71 13.94 13.29 3.28 3.55 7.68 10.64 3.13 5.04 5.43 11.82 3.25 9.57 3.89 16.34.21 2.21.06 12.78a2.37 2.03 56.5 01-.07.56l-1.84 7.87a1.79 1.38 71.3 01-.11.32l-4.16 9.83a.2.2 0 00.1.26.2.2 24.3 00.23-.08q1.63-3.33 3.59-6.73 1.55-2.7 3.01-11.09.25-1.43.22-9.32c-.04-11.08-3.56-22.24-8.7-31.84-8.16-15.2-25.64-29.48-40.87-37.89q-18.5-10.23-27.74-16.1c-3.79-2.41-8.58-6.84-11.18-10.82q-.35-.53-2.27-4.78-8.53-18.82-.02-38.02.66-1.24 1.38-.91a.37.35 10.6 01.21.29l.62 5.84a.78.71-60.9 00.05.21q4.01 12.05 12.02 20.6c7.89 8.42 17.52 15.79 26.87 23.55a274 274 0 0131.6 30.68 83 83 0 0111.12 16.35q5.6 11.16 9.11 25.39.72 2.9.82 4.63c.25 4.18 1.22 7.58 1.02 11.71q-.53 10.96-3.26 18.33-.59 1.6-3.95 8.75a.2.2 26.6 00.08.23.1.09 33.6 00.13-.02q4.4-6.17 6.11-13.04 2.48-9.94 1.53-20.02-2-21.31-12.53-39.78-5.35-9.38-15.13-19.74-10.43-11.04-17.89-17.59-7-6.14-16.64-13.91c-9.59-7.74-18.27-15.03-24.14-24.95-3.91-6.6-4.89-15.53-4.25-22.76q1.1-16.98 13.86-28.58.13 2.91.11 5.7-.04 3.8.29 5.65c.61 3.55.55 7.4 1.78 10.88q3 8.51 5.39 12.99 5.83 10.96 14.37 22.63l25.75 35.2q10.78 14.75 15.65 23.36c7.67 13.54 13.64 25.02 16.13 38.59 1.51 8.22 2.53 14.4 1.28 21.75q-.73 4.26-2.42 10.55c-1.04 3.85-3.79 8.48-5.17 11.93a.34.34 0 00.43.45q.28-.1.36-1.02a1.74 1.69-25 01.34-.89q2.82-3.74 4.59-9.04c3.38-10.1 4.2-18.8 2.46-29.64q-2.31-14.39-8.64-27.32-6.59-13.46-14.06-24.89-1.68-2.57-8.15-12.05c-3.58-5.23-8.4-11.17-12.27-17.04-.88-1.35-2.46-2.87-3.17-3.84q-14.38-19.65-20.59-29.65c-5.06-8.15-10.86-19.07-11.93-28.28q-.93-7.98 1.23-17.24 5.41-21.24 25.21-31.56 2.02-.55.6 2.48-1.08 2.33-1.35 3.32c-3.71 13.57-4.87 27.56-2.04 41.63q2.06 10.23 4.99 18.26 4.99 13.73 13.59 28.64 8 13.87 18.29 30.87 8.82 14.57 13.3 24.96c4.53 10.52 8.05 20.92 9.6 32.79q2.31 17.71-3.8 37.26-1.06 3.37-3.05 6.08c-1.31 1.78-1.49 3.9-3.5 5.2a.22.22 0 00.12.41q.96 0 1.72-1.1 2.05-2.98 4.04-6.44 1.69-2.94 2.88-7 6.03-20.56 1.67-41.22-3.71-17.61-12.28-34.41-6.65-13.04-9.86-18.01-11.36-17.58-18.35-30.36-2.73-4.99-7.22-14.39-6.46-13.5-9.47-26.85c-2.36-10.49-3.04-22.22-1.78-31.98q1.4-10.81 7.91-21.39 10.23-16.23 28.84-22.33l1.4-.18a.62.62 0 01.58.97c-3.52 4.94-6.88 10.18-9.31 15.68q-15.41 34.85-5.41 72.56 3.91 14.74 9.68 28.08 7.25 16.78 12.62 27.88c3.44 7.14 6.37 14.81 9.68 22.78 9.87 23.81 13.55 51.36 3.55 75.45q-2.03 4.87-7.26 10.64a.18.18 0 00.18.29q1.49-.39 2.59-1.87c3.22-4.33 5.9-8.64 7.52-14.36q3.63-12.8 4.06-20.79.53-9.94-1.37-20.96-2.96-17.14-10.44-34.46-.96-2.22-3.97-9.51-1.61-3.9-4.25-9.4-7.55-15.75-14-31.85c-7.19-17.93-12.08-39.15-10.45-58.28q1.65-19.38 8.45-35.07 5.08-11.72 16.9-19.16c10.68-6.81 22.38-9.63 34.82-10.9a.51.51 0 01.38.89q-33.68 28.34-38.35 72.48-2.37 22.35 2.39 48 .85 4.59 4.62 20.55 2.7 11.46 7.81 22.34m-25.19-76.95q-.74-21.82 4.64-41.96 3.47-12.98 12.83-26.36c2.65-3.79 5.66-6.23 9.56-9.92a.5.5 0 00-.55-.82q-5.55 2.49-10.61 6.48a4.26 4.2 89.6 00-.76.78q-7.09 9.65-10.16 19.61-7.69 24.96-5.3 52.15a.2.19 84.1 00.21.18h.01a.14.13-4.2 00.13-.14m-15.17 25.99a.25.24-24.3 00.13-.32c-11.62-24.59-10.44-55.76.58-80.93a.32.32 0 00-.54-.35q-3.14 3.52-4.86 7.89-8.14 20.56-5.31 41.88 2.11 15.95 9.68 31.73a.24.24 0 00.31.11m-15.88 10.11a.05.05 0 00.08-.05q-3.63-6-5.08-8.7-13.12-24.55-10.11-52.56.57-5.39 1.85-9.66a.32.32 0 00-.55-.31c-7.67 8.6-7.18 23.56-4.51 33.97q5.34 20.77 18.32 37.31m-.71 27.52a.23.23 0 00-.03-.32q-12.19-10.34-20.14-21.66c-7.82-11.12-14.17-25.47-15.81-39.17a.31.31 0 00-.61.01l-1.07 10.2a3.71 3.59-49.8 00.08 1.2q2.68 10.79 6.67 16.89 6.1 9.33 9.32 12.86 1.83 1.99 8.38 8.75c4.08 4.21 8.32 7.5 12.85 11.28a.25.25 0 00.35-.03zm17.86-36.1q0-.06-.24-.41a.24.24 0 00-.42.21q.14.39.27.45a.27.27 0 00.39-.25m-28.26 49.89h.01a.25.24-57.4 00-.07-.32c-6.41-4.47-12.9-7.92-18.44-13.64q-9.16-9.48-14.87-19.87a5.22 5.15 21.7 01-.35-.79l-1.48-4.31a.39.38-55.9 00-.74.15c.16 4.08.13 6.51 1.33 9.36 4.68 11.11 14.02 19.72 24.83 24.66q4.56 2.09 9.57 4.81a.15.15 0 00.21-.05m16.11 26.95c-3.02-2.15-5.53-4.66-9.03-6.68-10.57-6.09-16.81-9.06-30.07-15.29q-2.99-1.4-6.2-3.46-2.57-1.65-5.72-4.34a.43.43 0 00-.68.48c2.1 5.51 3.76 7.23 9.35 9.69 10.7 4.74 20.81 8.46 30.95 12.94q4.29 1.89 11.17 7.13a.19.18 37.2 00.26-.03l.03-.05a.27.27 0 00-.06-.39m-2.26 17.62a.15.15 0 00.15-.26q-8.04-5.21-14.24-7.31-15.75-5.35-18.33-6.27-7.13-2.56-12.45-6.85a.57.57 0 00-.87.67q1.86 4.28 4.56 7.67c.85 1.07 3.7 2 5.27 2.27q16.56 2.82 19.42 3.52 5.92 1.41 16.49 6.56m4.19 20.11a.2.2 0 00-.05-.28q-4.03-2.77-7.91-4.25-5.59-2.14-15.06-4.71a46 46 0 01-12.72-5.59.4.39 29.8 00-.56.15q-.12.24 0 .39 3.25 4.2 7.83 7.1a4.63 4.6-25 001.96.71c9.73 1.19 18.28 1.26 26.32 6.53a.14.14 0 00.19-.04m4.61 20.76a.26.26 0 00.37-.01v-.01a.16.15-46.8 000-.22q-7.48-7.41-18.05-9.6c-1.57-.32-3.2-1.44-4.67-1.68a.31.31 0 00-.26.54c2.06 1.77 3.69 2.74 6.5 3.23q9.26 1.61 16.11 7.75m-4.85 12.36a.16.15 35.3 00-.04-.21q-5.13-3.84-11.48-4.9a.89.86-16.4 01-.46-.24l-1.96-1.96a.37.36 12.2 00-.6.38q1.04 2.64 3 3.51a2.24 2.2 56.8 00.92.2q5.48-.05 10.25 3.3a.26.25-55.1 00.36-.07zM368.1 44.03q12.07 7.62 17.28 19.8 13.3 31.11 6.13 65.9c-3.96 19.22-11.8 36.8-20.22 54.8q-4.77 10.2-11.31 25.94-7.52 18.09-10.07 36.7-2.37 17.26 3.73 37.55c1.32 4.4 4.02 8.71 6.27 12.27q1.14 1.81 3.37 2.91a.1.09-8 00.12-.15 41.6 41.6 0 01-9.32-16.51 89 89 0 01-2.76-39.38q2.4-15.95 9.26-32.56 6.74-16.32 12.06-27.3a448 448 0 0013.02-29.86q4.42-11.43 7.44-25.23 8.05-36.74-8.62-70.63-.63-1.28-3.85-6.27-2.03-3.13-3.45-6.55 20.44 5.5 31.2 23.38l1.96 3.44a29.64 29.38 21.4 012.46 5.57q2.15 6.65 2.54 8.79c6.48 36.17-13.69 70.88-31.98 99.78q-5.78 9.13-9.55 16.17-6.27 11.7-8.39 16.78-3.28 7.87-5.78 15.76c-5.37 16.94-6.18 34.5-1.03 51.33q1.56 5.1 2.67 6.85 2.32 3.67 3.8 6.55.38.74 2.19 1.29a.08.08 0 00.07-.14l-1.21-1.05a3.27 3.25 7.2 01-.82-1.05c-2.22-4.37-3.76-6.67-5.1-10.94q-8.34-26.56.59-53.52 3.29-9.95 4.78-13.15 7.51-16.19 15.64-29.22 4.88-7.83 7.29-11.86c4.82-8.08 9.03-14.63 12.68-21.95l5.08-10.22q5.03-10.41 8.54-22.99 6.75-24.23.18-48.36-.22-.8-1.31-3.75-.71-1.92-1.05-3.86 12.86 5.6 19.28 15.5 9.32 14.36 8.72 31.67-.13 3.67-1.51 7.86-2.64 8.04-5.55 13.44a228 228 0 01-18.61 28.94c-9.8 13.04-18.88 25.27-27.69 38.27q-10.58 15.59-17.21 29.76-4.77 10.19-7.6 22.21-4.33 18.39 2.23 35.75 1.4 3.72 3.12 5.96.44.57.7 2.51a.35.33 6.1 00.23.27q.35.14.49.05a.26.25-28.4 00.1-.32q-3.58-8.12-4.31-10.21-5.14-14.5-2.44-29.68c1.09-6.13 2.41-12.12 4.56-17.46q5.53-13.79 12.6-25.39c11.72-19.26 29.51-41.9 39.74-55.98q9.04-12.46 16.06-25.44 8.52-15.76 6.99-33.57a.69.69 0 011.18-.55q7.38 7.36 11.03 17.1 2.32 6.18 2.18 16.71-.2 8.45-2.5 13.66-.96 2.19-4.97 8.12-2.5 3.71-6.22 7.23-6.86 6.5-9.41 8.56c-16.01 12.94-29.34 24.13-42.69 38.95q-9.2 10.23-13.99 19.8c-8.54 17.03-13.42 35.8-9.94 54.19q1.65 8.71 6.69 15.46a.2.2 54.3 00.28.05v-.01a.16.15-33.7 00.05-.22c-14.13-23.18-5.67-54.6 7.76-75.93 3.88-6.17 9.53-12.29 13.94-16.93q14.11-14.82 31.03-28.22 11.57-9.15 20.49-18.26 2.46-2.5 6.88-9.35 5.27-8.16 5.91-18.58 6.08 10.22 5.84 20.27-.29 11.9-6.83 24.79a4.03 3.73 81.5 01-.56.82q-5.61 6.27-9.08 8.73-5.15 3.66-21.58 12.82-15.5 8.65-20.84 12.63c-12.35 9.2-23.1 19.91-29.74 33.88q-7.99 16.83-6.46 35.28.27 3.24 1.92 9.39c.89 3.29 3.18 6.42 4.79 9.7a.2.2-23.4 00.27.1v-.01a.2.2-22.6 00.11-.26q-.76-2.04-2.36-5.3c-3.65-7.43-4.67-16.81-3.88-24.6q2.45-24.04 18.36-41.56 6.92-7.61 15.2-13.55 13.87-9.93 21.47-13.76 10.74-5.4 21.14-11.89 6.19-3.87 11.33-9.59a5.59 5.45-83.4 011.35-1.1q3.48-2 4.09-3.46a.8.79 48.7 011.5.1q.23.84-.15 10.81-.11 2.8-2 6.3c-3.06 7.59-8.66 12.37-15.2 16.91q-2.06 1.36-3.64 1.86-14.63 4.56-29.04 12.43-14.89 8.14-24.89 19.36c-8.14 9.14-14.34 21.67-14.32 33.97q.01 7.09.3 9.17.9 6.59 4.3 14.57a.3.3 0 00.44.15l.12-.07a.3.3-27.1 00.12-.36q-5.89-14.41-3.81-28.12 2.59-17.06 15.27-30.19 7.51-7.77 16.21-13 12.32-7.41 24.64-12.45c5-2.04 10.4-3.77 15.6-5.72l12.38-4.11a.6.6 0 01.74.8q-1.25 3.03-2.05 6.29c-1.93 7.82-4.74 13.82-10.79 19.38q-1.07 1.34-1.87 1.43-17.29 1.99-32.27 8.07-13.78 5.59-22.62 15.06c-10.79 11.56-12.84 28.25-7.14 42.94a.35.35-20.9 00.44.19l.08-.03a.34.33-18.5 00.21-.41c-4.17-13.84-3.88-27.28 4.87-39.15 6.34-8.6 17.8-14.95 28.21-18.55q15.3-5.31 31.36-6.76 1.8-.42 2.14.6a.68.67-36.3 01-.1.63q-1.16 1.49-2.85 5.26c-2.57 5.71-9.45 10.21-15.56 12.84a5.4 5.31-60.2 01-1.39.39q-15.38 2.09-29.23 10.04c-9.12 5.24-15.86 14.31-15.88 25.1 0 2.45 1.16 5.56 1.73 8.29q-.05-1.83-.59-5.63a24 24 0 013.14-15.1c5.36-8.73 13.06-13.07 23.14-16.92q10.15-3.87 21.02-4.94a.64.64 0 01.4 1.19c-4.63 2.86-6.68 6.03-11.07 11.7q-1.52 1.96-5.63 4.74-2.61 1.66-7.02 2.66-7.35 1.67-13.5 7.2c-4.67 4.19-4.21 8.57-3.74 14.93a.2.2 0 00.2.18h.01a.19.18 88.4 00.17-.19q-.23-6.41.52-8.53c3.13-8.89 13.15-12.39 22.04-13.63l4.79.26a1.1 1.1 0 011 1.42q-.6 2.01-2.3 7.47-.76 2.44-4.79 6.4a2.93 2.91-74.8 01-1.21.7c-4.09 1.16-13.87 2.6-13.08 8.6v.01c1.58-7.8 14.09-7.57 21.06-7.38q2.54.07 7.1.88c6.03 1.08 10.8.96 16.02-2.46a1.06 1.06 0 011.6 1.18l-1.47 5.15q-2.03 4.45-4.09 5.61-2.98 1.68-4.9 3.68a1.86 1.82 15.2 01-.95.53q-2.06.43-2.99.77a.44.44 0 00.15.86h4.11a1.52 1.52 0 011.46 1.92q-1.79 6.52-6.19 11.13-5.72 5.98-8.63 7.92-8.83 5.88-19.1 10.25a.73.73 0 01-.96-.95l3.73-8.8a.64.64 0 00-.92-.79q-13.57 8.01-29.24 10.74-9.06 1.58-20.14.57a.16.15-80.2 00-.17.13v.01a.2.2 0 00.16.21q6.25 1.12 11.74.91 17.9-.7 35.42-9.19a.32.32 0 01.43.41l-2.92 6.89a.99.99 0 001.26 1.31q6.67-2.56 11.57-4.83 18.99-8.79 27.08-27.43a.54.54 0 00-.56-.75q-1.06.14-1.95-.15a.93.92-50.6 01-.16-1.68l3.89-2.21c.96-.55 1.15-1.55 1.71-2.2a.47.47 0 01.77.08q.49.89.18 2.26c-3.75 14.49-12.53 27.01-24.19 36.58q-2.27 1.87-4.38 3.05c-3.79 2.13-7.53 4.87-11.66 6.48-12.38 4.81-25.2 5.66-37.93 5.03-11.2-.55-25.33-3.72-34.72-10.06q-11.34-7.66-17.42-16.98-12.73-19.54-11.29-45.59.06-1.08.99-8.15.61-4.68 1.45-8.06 4.03-16.25 10.21-32.46 1.69-4.42 4.38-9.6 8.11-15.62 15.64-31.29 9.17-21.07 11.31-43.65c.86-9.1-.22-18.68-7.12-24.99-3.73-3.41-10.71-.82-8.6 5.15l2.15 4.95q2.58 5.92 1.39 11.62-.12.58-.87.8-2.69-.79-3.87-2.99c-1.17-2.18.19-3.87-2.07-6.17q-2.82-2.88-2.72-6.6a.32.32 0 00-.33-.33h-.01a.2.2-1.8 00-.17.17l-.19 10.06a2.14 2.13 22.8 00.65 1.58q2.81 2.75.44 6.88a.78.77 20.8 01-.84.37q-.64-.14-1.36-.71-1.77-1.2-3.58-2.67c-9.95-8.03-8.12-27.3 1.41-34.77q6.4-5.01 13.93-3.48c13.15 2.69 21.41 16.43 22.39 29.12q.77 10.01-.56 18.48c-1.95 12.47-6.17 24.91-9.97 37.18q-7.11 17.9-13.47 36.34-1.04 3.02-2.51 10.45-3.31 15.09 2.68 29.2 2.45 5.76 5.16 10.02 3.23 5.09 8.59 8.12 2.78 2.97 6.95 5.32a.16.16 0 00.19-.25l-3.84-3.84a.04.03-89.4 00-.05.05q.62.69-4.03-6.25-2.01-3-3.33-6.43-5.84-15.25-4.51-32.14c1.36-17.31 7.34-34.22 13.81-50.49 2.6-6.45 5.3-12.92 7.05-19.52q4.61-17.28 6.6-29.49 3.75-22.9 1.38-44.48c-1.39-12.63-5.61-27.14-11.87-38.61q-9.72-17.78-25.55-31.31a.24.1 67.5 01-.06-.06l-.43-.67a.49.49 0 01.45-.75c12.15.83 23.81 3.88 34.17 10.41m-12.82-2.53a.5.49 80.6 00-.57.8c4.41 3.92 8.09 7.39 10.97 11.78q8.19 12.47 11.47 24.28 4.6 16.6 5.25 39.03a.2.2 0 00.21.2l.04.01a.3.3 1 00.29-.27q.91-23.38-5.16-45.99c-2.13-7.95-6.59-16.32-10.83-22.55a4.81 4.79-1.8 00-1.55-1.45zm41.91 104.95a.24.24 0 00.31-.12q7.52-15.9 9.56-31.95 2.73-21.45-5.57-42.08-1.75-4.38-4.93-7.9a.33.33 0 00-.54.35c11.22 25.25 12.57 56.58 1.03 81.37a.25.24 24 00.13.32zm15.26 10.89q13.19-16.53 18.73-37.37c2.77-10.45 3.39-25.49-4.26-34.2a.32.32 0 00-.55.3q1.25 4.31 1.78 9.73 2.8 28.2-10.6 52.78-1.48 2.7-5.18 8.71a.05.05 0 00.08.05m1.21 26.91a.25.25 0 00.35.03c4.52-3.75 8.75-7.02 12.82-11.2q6.53-6.72 8.36-8.7 3.21-3.51 9.31-12.78 3.98-6.07 6.67-16.81a3.69 3.57 49.9 00.08-1.19l-1.04-10.16a.31.3 45.9 00-.61-.01c-1.66 13.64-8.01 27.91-15.82 38.97q-7.94 11.25-20.1 21.52a.23.23 0 00-.03.32m8.7 14.85a.16.16 0 00.22.06q5.27-2.83 10.07-4.99c11.38-5.12 21.24-14.1 26.22-25.73 1.28-2.99 1.26-5.54 1.46-9.82a.4.4 0 00-.78-.16l-1.58 4.51a5.48 5.4-21.4 01-.37.83q-6.06 10.87-15.74 20.76c-5.85 5.97-12.68 9.55-19.44 14.21a.26.25 57.8 00-.07.33zM411.04 159l-1.06 1.21a.16.15-46.4 000 .21q.05.08.29.16.11.03.35-.25.37-.45.6-1.23a.11.11 0 00-.18-.1m-1.63 65.48a.16.16 0 00.22.02q5.92-4.41 11.68-6.94 6.7-2.95 25.32-10.45c6.66-2.68 10.58-4.11 12.7-10.72q.23-.73.06-1.22a.26.26 0 00-.43-.11q-3.65 3.38-8.44 6.2-3.07 1.81-19.43 9.36-7.17 3.3-18.12 10.34-.52.33-3.75 3.19a.1.1 46.8 000 .15zm.07 18.43q10.74-5.21 16.75-6.64 2.91-.7 19.73-3.54c1.59-.27 4.49-1.21 5.35-2.3q2.75-3.44 4.65-7.78a.58.58 0 00-.89-.68q-5.4 4.35-12.65 6.93-2.62.93-18.62 6.34-6.3 2.13-14.47 7.4a.15.15 0 00.15.27m-3.56 19.94a.14.14 0 00.19.04c8.15-5.36 16.83-5.45 26.7-6.67a4.7 4.67 24.9 001.99-.72q4.65-2.96 7.94-7.22.12-.16 0-.4a.4.4-29.8 00-.57-.15 46 46 0 01-12.9 5.69q-9.61 2.63-15.28 4.81-3.93 1.51-8.02 4.32a.2.2 0 00-.05.29zm-5.46 21.33q7.16-6.52 16.89-8.3c2.95-.54 4.66-1.57 6.81-3.45a.33.33 0 00-.27-.57c-1.55.26-3.25 1.46-4.9 1.81q-11.11 2.39-18.92 10.26a.17.16 46.3 000 .23v.01a.3.3 0 00.39.01m6.41 11.27.01.01a.24.24 0 00.34.08q4.54-3.05 9.69-2.89a2.1 2.07-55.5 00.86-.17q1.86-.78 2.89-3.23a.34.34 0 00-.55-.37l-1.88 1.8a.84.8 17.6 01-.44.21q-5.98.87-10.88 4.37a.15.15-34.1 00-.04.19"/><path fill="#9b9a9b" d="m355.28 41.5 10.12 5.84a4.81 4.79-1.8 011.55 1.45c4.24 6.23 8.7 14.6 10.83 22.55q6.07 22.61 5.16 45.99a.3.3 1 01-.29.27l-.04-.01a.2.2 0 01-.21-.2q-.65-22.43-5.25-39.03-3.28-11.81-11.47-24.28c-2.88-4.39-6.56-7.86-10.97-11.78a.5.49 80.6 01.57-.8m-137.7 79.2a.14.13-4.2 01-.13.14h-.01a.2.19 84.1 01-.21-.18q-2.39-27.19 5.3-52.15 3.07-9.96 10.16-19.61a4.26 4.2 89.6 01.76-.78q5.06-3.99 10.61-6.48a.5.5 0 01.55.82c-3.9 3.69-6.91 6.13-9.56 9.92q-9.36 13.38-12.83 26.36-5.38 20.14-4.64 41.96"/><path fill="#565957" d="M377.18 45.46q1.42 3.42 3.45 6.55 3.22 4.99 3.85 6.27 16.67 33.89 8.62 70.63-3.02 13.8-7.44 25.23A448 448 0 01372.64 184q-5.32 10.98-12.06 27.3-6.86 16.61-9.26 32.56a89 89 0 002.76 39.38 41.6 41.6 0 009.32 16.51.1.09-8 01-.12.15q-2.23-1.1-3.37-2.91c-2.25-3.56-4.95-7.87-6.27-12.27q-6.1-20.29-3.73-37.55 2.55-18.61 10.07-36.7 6.54-15.74 11.31-25.94c8.42-18 16.26-35.58 20.22-54.8q7.17-34.79-6.13-65.9-5.21-12.18-17.28-19.8 2.61.51 4.81 2.23a2.74 2.73-41.6 003.09.18q.55-.33 1.18-.98M231.1 44.29q-11.82 7.44-16.9 19.16-6.8 15.69-8.45 35.07c-1.63 19.13 3.26 40.35 10.45 58.28q6.45 16.1 14 31.85 2.64 5.5 4.25 9.4 3.01 7.29 3.97 9.51 7.48 17.32 10.44 34.46 1.9 11.02 1.37 20.96-.43 7.99-4.06 20.79c-1.62 5.72-4.3 10.03-7.52 14.36q-1.1 1.48-2.59 1.87a.18.18 0 01-.18-.29q5.23-5.77 7.26-10.64c10-24.09 6.32-51.64-3.55-75.45-3.31-7.97-6.24-15.64-9.68-22.78q-5.37-11.1-12.62-27.88-5.77-13.34-9.68-28.08-10-37.71 5.41-72.56c2.43-5.5 5.79-10.74 9.31-15.68a.62.62 0 00-.58-.97l-1.4.18q.42-1.15 1.95-1.01a1.4 1.39 65.4 01.74.28c2.41 1.83 5.54-.23 8.06-.83"/><path fill="#9b9a9b" d="M397.05 146.12c11.54-24.79 10.19-56.12-1.03-81.37a.33.33 0 01.54-.35q3.18 3.52 4.93 7.9 8.3 20.63 5.57 42.08-2.04 16.05-9.56 31.95a.24.24 0 01-.31.12l-.01-.01a.25.24 24 01-.13-.32m-194.64.57a.24.24 0 01-.31-.11q-7.57-15.78-9.68-31.73-2.83-21.32 5.31-41.88 1.72-4.37 4.86-7.89a.32.32 0 01.54.35c-11.02 25.17-12.2 56.34-.58 80.93a.25.24-24.3 01-.13.32z"/><path fill="#565957" d="M191.51 68.18Q185 78.76 183.6 89.57c-1.26 9.76-.58 21.49 1.78 31.98q3.01 13.35 9.47 26.85 4.49 9.4 7.22 14.39 6.99 12.78 18.35 30.36 3.21 4.97 9.86 18.01 8.57 16.8 12.28 34.41 4.36 20.66-1.67 41.22-1.19 4.06-2.88 7-1.99 3.46-4.04 6.44-.76 1.1-1.72 1.1a.22.22 0 01-.12-.41c2.01-1.3 2.19-3.42 3.5-5.2q1.99-2.71 3.05-6.08 6.11-19.55 3.8-37.26c-1.55-11.87-5.07-22.27-9.6-32.79q-4.48-10.39-13.3-24.96-10.29-17-18.29-30.87-8.6-14.91-13.59-28.64-2.93-8.03-4.99-18.26c-2.83-14.07-1.67-28.06 2.04-41.63q.27-.99 1.35-3.32 1.42-3.03-.6-2.48zm221.12.91q.34 1.94 1.05 3.86 1.09 2.95 1.31 3.75 6.57 24.13-.18 48.36-3.51 12.58-8.54 22.99l-5.08 10.22c-3.65 7.32-7.86 13.87-12.68 21.95q-2.41 4.03-7.29 11.86-8.13 13.03-15.64 29.22-1.49 3.2-4.78 13.15-8.93 26.96-.59 53.52c1.34 4.27 2.88 6.57 5.1 10.94a3.27 3.25 7.2 00.82 1.05l1.21 1.05a.08.08 0 01-.07.14q-1.81-.55-2.19-1.29-1.48-2.88-3.8-6.55-1.11-1.75-2.67-6.85c-5.15-16.83-4.34-34.39 1.03-51.33q2.5-7.89 5.78-15.76 2.12-5.08 8.39-16.78 3.77-7.04 9.55-16.17c18.29-28.9 38.46-63.61 31.98-99.78q-.39-2.14-2.54-8.79a29.64 29.38 21.4 00-2.46-5.57l-1.96-3.44q1.81-.4 4.25.25"/><path fill="#9b9a9b" d="M186.53 156.8q-12.98-16.54-18.32-37.31c-2.67-10.41-3.16-25.37 4.51-33.97a.32.32 0 01.55.31q-1.28 4.27-1.85 9.66-3.01 28.01 10.11 52.56 1.45 2.7 5.08 8.7a.05.05 0 01-.08.05m225.84.49q3.7-6.01 5.18-8.71 13.4-24.58 10.6-52.78-.53-5.42-1.78-9.73a.32.32 0 01.55-.3c7.65 8.71 7.03 23.75 4.26 34.2q-5.54 20.84-18.73 37.37a.05.05 0 01-.08-.05"/><path fill="#565957" d="M160.29 100.99q-2.16 9.26-1.23 17.24c1.07 9.21 6.87 20.13 11.93 28.28q6.21 10 20.59 29.65c.71.97 2.29 2.49 3.17 3.84 3.87 5.87 8.69 11.81 12.27 17.04q6.47 9.48 8.15 12.05 7.47 11.43 14.06 24.89 6.33 12.93 8.64 27.32c1.74 10.84.92 19.54-2.46 29.64q-1.77 5.3-4.59 9.04a1.74 1.69-25 00-.34.89q-.08.92-.36 1.02a.34.34 0 01-.43-.45c1.38-3.45 4.13-8.08 5.17-11.93q1.69-6.29 2.42-10.55c1.25-7.35.23-13.53-1.28-21.75-2.49-13.57-8.46-25.05-16.13-38.59q-4.87-8.61-15.65-23.36l-25.75-35.2q-8.54-11.67-14.37-22.63-2.39-4.48-5.39-12.99c-1.23-3.48-1.17-7.33-1.78-10.88q-.33-1.85-.29-5.65.02-2.79-.11-5.7z"/><path fill="#9b9a9b" d="M185.46 184.36c-4.53-3.78-8.77-7.07-12.85-11.28q-6.55-6.76-8.38-8.75-3.22-3.53-9.32-12.86-3.99-6.1-6.67-16.89a3.71 3.59-49.8 01-.08-1.2l1.07-10.2a.31.31 0 01.61-.01c1.64 13.7 7.99 28.05 15.81 39.17q7.95 11.32 20.14 21.66a.23.23 0 01.03.32l-.01.01a.25.25 0 01-.35.03m228.2-.11a.23.23 0 01.03-.32q12.16-10.27 20.1-21.52c7.81-11.06 14.16-25.33 15.82-38.97a.31.3 45.9 01.61.01l1.04 10.16a3.69 3.57 49.9 01-.08 1.19q-2.69 10.74-6.67 16.81-6.1 9.27-9.31 12.78-1.83 1.98-8.36 8.7c-4.07 4.18-8.3 7.45-12.82 11.2a.25.25 0 01-.35-.03z"/><path fill="#565957" d="M142.67 130.79c-.64 7.23.34 16.16 4.25 22.76 5.87 9.92 14.55 17.21 24.14 24.95q9.64 7.77 16.64 13.91 7.46 6.55 17.89 17.59 9.78 10.36 15.13 19.74 10.53 18.47 12.53 39.78.95 10.08-1.53 20.02-1.71 6.87-6.11 13.04a.1.09 33.6 01-.13.02.2.2 26.6 01-.08-.23q3.36-7.15 3.95-8.75 2.73-7.37 3.26-18.33c.2-4.13-.77-7.53-1.02-11.71q-.1-1.73-.82-4.63-3.51-14.23-9.11-25.39a83 83 0 00-11.12-16.35 274 274 0 00-31.6-30.68c-9.35-7.76-18.98-15.13-26.87-23.55q-8.01-8.55-12.02-20.6a.78.71-60.9 01-.05-.21l-.62-5.84a.37.35 10.6 00-.21-.29q-.72-.33-1.38.91zm317.56 4.22q-.64 10.42-5.91 18.58-4.42 6.85-6.88 9.35-8.92 9.11-20.49 18.26-16.92 13.4-31.03 28.22c-4.41 4.64-10.06 10.76-13.94 16.93-13.43 21.33-21.89 52.75-7.76 75.93a.16.15-33.7 01-.05.22v.01a.2.2 54.3 01-.28-.05q-5.04-6.75-6.69-15.46c-3.48-18.39 1.4-37.16 9.94-54.19q4.79-9.57 13.99-19.8c13.35-14.82 26.68-26.01 42.69-38.95q2.55-2.06 9.41-8.56 3.72-3.52 6.22-7.23 4.01-5.93 4.97-8.12 2.3-5.21 2.5-13.66zm-122.66 17.28q.2.78-.28 1.14l-3.78.76a1.78 1.74-68.8 00-.66.3l-2.72 2.09q-2.12 1.57-3.03-2.03.72.57 1.36.71a.78.77 20.8 00.84-.37q2.37-4.13-.44-6.88a2.14 2.13 22.8 01-.65-1.58l.19-10.06a.2.2-1.8 01.17-.17h.01a.32.32 0 01.33.33q-.1 3.72 2.72 6.6c2.26 2.3.9 3.99 2.07 6.17q1.18 2.2 3.87 2.99m-7.51-7.66a1.25.83-112.1 00-.3 1.47 1.25.83-112.1 001.24.85 1.25.83-112.1 00.3-1.47 1.25.83-112.1 00-1.24-.85m-55.11 8.38q.51.94-.05 1.4-1.85 1.52-5.88 3.44 1.15-1.2-1.89-3.37a1.43 1.41 68.1 00-.55-.24l-5.78-1.21q-.14-.54.09-1.36c6.75 1.06 4.15-6.04 7.21-8.98 1.95-1.87 2.03-3.72 2.36-5.92a.4.4 0 01.43-.33l.03.03v.02l.61 9.93a1.68 1.67-21.2 01-.64 1.43q-2.92 2.3-1.01 6.57a1.04 1.04 0 001.44.5zm-5-7.9a1.13.77-45.2 00-1.35.26 1.13.77-45.2 00-.25 1.34 1.13.77-45.2 001.35-.26 1.13.77-45.2 00.25-1.34"/><ellipse fill="#f7f7f7" rx="1.25" ry=".83" transform="rotate(247.9 214.34 -38.37)"/><ellipse fill="#f7f7f7" rx="1.13" ry=".77" transform="rotate(-45.2 309.84 -250.34)"/><path fill="#9b9a9b" d="M203.29 148.47q-.13-.06-.27-.45a.24.24 0 01.42-.21q.24.35.24.41a.27.27 0 01-.39.25"/><path fill="#f0d625" d="M269.02 157.85q-5.01 7.07-6.68 17.37a.62.61 47.7 01-1.22-.06q-.22-3.05-.53-6.49-.19-2.1-.11-6.47.08-4.35.01-8.7 0-.2.31-.47l5.78 1.21a1.43 1.41 68.1 01.55.24q3.04 2.17 1.89 3.37m68.27-4.42q.85-.26 1.08.58 3.09 11.16-.49 22.29a.39.39 0 01-.68.12q-.28-.38-.34-.96-1.14-10.47-6.73-18.88l2.72-2.09a1.78 1.74-68.8 01.66-.3z"/><path fill="#9b9a9b" d="M422.42 198.77c6.76-4.66 13.59-8.24 19.44-14.21q9.68-9.89 15.74-20.76a5.48 5.4-21.4 00.37-.83l1.58-4.51a.4.4 0 01.78.16c-.2 4.28-.18 6.83-1.46 9.82-4.98 11.63-14.84 20.61-26.22 25.73q-4.8 2.16-10.07 4.99a.16.16 0 01-.22-.06h-.01a.26.25 57.8 01.07-.33m-247-.66a.15.15 0 01-.21.05q-5.01-2.72-9.57-4.81c-10.81-4.94-20.15-13.55-24.83-24.66-1.2-2.85-1.17-5.28-1.33-9.36a.39.38-55.9 01.74-.15l1.48 4.31a5.22 5.15 21.7 00.35.79q5.71 10.39 14.87 19.87c5.54 5.72 12.03 9.17 18.44 13.64a.25.24-57.4 01.07.32zm235.81-39q-.23.78-.6 1.23-.24.28-.35.25-.24-.08-.29-.16a.16.15-46.4 010-.21l1.06-1.21a.11.11 0 01.18.1m-2 65.05q3.23-2.86 3.75-3.19 10.95-7.04 18.12-10.34 16.36-7.55 19.43-9.36 4.79-2.82 8.44-6.2a.26.26 0 01.43.11q.17.49-.06 1.22c-2.12 6.61-6.04 8.04-12.7 10.72q-18.62 7.5-25.32 10.45-5.76 2.53-11.68 6.94a.16.16 0 01-.22-.02l-.19-.18a.1.1 46.8 010-.15m-217.7.9a.27.27 0 01.06.39l-.03.05a.19.18 37.2 01-.26.03q-6.88-5.24-11.17-7.13c-10.14-4.48-20.25-8.2-30.95-12.94-5.59-2.46-7.25-4.18-9.35-9.69a.43.43 0 01.68-.48q3.15 2.69 5.72 4.34 3.21 2.06 6.2 3.46c13.26 6.23 19.5 9.2 30.07 15.29 3.5 2.02 6.01 4.53 9.03 6.68"/><path fill="#02a8e8" d="M464.12 195.55q-.3 1.5 1.64 1.52 31.71.26 130.24-.16V394H0V196.95l135.72-.02q2.1 4.06 4.67 6.93 1.92 2.14 7.59 7.23-3.07 1.02-6.19.77l-5.15-2.05a.51.51 0 00-.64.7q1.44 2.88 1.93 5.35c1.26 6.29 2.85 10.87 6.39 15.3l3.09 3.86-.41 4.07q-.92-.32-1.42.66a.9.9 0 00.09 1c1.78 2.3 2.67 5.17 4.38 7.49q4.39 5.92 11.18 9.04-.25 1.26.1 2.41-.42.7.28 1.21 5.43 3.9 10.21 10.53 1.98 2.74 5.91 5.67-.45 2.2-3.22 2.81-.15.03-.29.54-.41.35-.54.81-.08.32.17.93c2.25 5.36 2.15 9.99 8.1 13.84a3.55 3.48 66.8 001.07.44c5.53 1.23 10.68 1.97 12.8 7.88a.32.31 69.8 01-.18.4h-.02a.35.35 68 01-.44-.19q-2.11-5.07-7.68-6.07-10.1-1.81-19.25-.33c-7.32 1.18-12.39 1.69-17.58-2.5a.49.48 20.9 00-.79.35q-.1 2.32.53 4.46l.73 7.98q3.27 13.95 12.09 25.08c12.47 15.75 29.6 25.73 49.72 26.9q10.29.6 18.3.03c15.95-1.11 31.72-6.64 43.17-18.06 13.67-13.63 20.04-35.1 18.34-54.64-1.21-14.02-5.41-29.64-10.81-44.15q-2.56-6.87-8-17.45-7.28-14.18-14.44-28.97l78.01-.39a.8.8 0 01.68.44q.62 1.43 1.11 1.17-7.53 15.67-15.64 31.29-2.69 5.18-4.38 9.6-6.18 16.21-10.21 32.46-.84 3.38-1.45 8.06-.93 7.07-.99 8.15-1.44 26.05 11.29 45.59 6.08 9.32 17.42 16.98c9.39 6.34 23.52 9.51 34.72 10.06 12.73.63 25.55-.22 37.93-5.03 4.13-1.61 7.87-4.35 11.66-6.48q2.11-1.18 4.38-3.05c11.66-9.57 20.44-22.09 24.19-36.58l.21-7.21 1.47-5.15a1.06 1.06 0 00-1.6-1.18c-5.22 3.42-9.99 3.54-16.02 2.46q-4.56-.81-7.1-.88c-6.97-.19-19.48-.42-21.06 7.38v-.01c-.79-6 8.99-7.44 13.08-8.6a2.93 2.91-74.8 001.21-.7q4.03-3.96 4.79-6.4 1.7-5.46 2.3-7.47a1.1 1.1 0 00-1-1.42l-4.79-.26q2.03-1.95 1.32-2.62 4.11-2.78 5.63-4.74c4.39-5.67 6.44-8.84 11.07-11.7a.64.64 0 00-.4-1.19q-10.87 1.07-21.02 4.94c-10.08 3.85-17.78 8.19-23.14 16.92a24 24 0 00-3.14 15.1q.54 3.8.59 5.63c-.57-2.73-1.73-5.84-1.73-8.29.02-10.79 6.76-19.86 15.88-25.1q13.85-7.95 29.23-10.04a5.4 5.31-60.2 001.39-.39c6.11-2.63 12.99-7.13 15.56-12.84q1.69-3.77 2.85-5.26a.68.67-36.3 00.1-.63q-.34-1.02-2.14-.6l.31-1.73a.76.75-69.2 00-.35-.79q-.5-.3-1.23-.27c6.05-5.56 8.86-11.56 10.79-19.38q.8-3.26 2.05-6.29a.6.6 0 00-.74-.8l-12.38 4.11-1.3-1.6c6.54-4.54 12.14-9.32 15.2-16.91"/><path fill="#02a8e8" d="M356.36 198.51c-6.47 16.27-12.45 33.18-13.81 50.49q-1.33 16.89 4.51 32.14 1.32 3.43 3.33 6.43 4.65 6.94 4.03 6.25a.04.03-89.4 01.05-.05l3.84 3.84a.16.16 0 01-.19.25q-4.17-2.35-6.95-5.32-1.27-4.97-4.52-7.94-5.04-4.62-7.56-9.16c-1.66-2.97-2.26-5.88-3.56-8.91-1-2.35-1.25-6.37-1.1-8.97q.36-6.13.31-12.36 1.47-7.43 2.51-10.45 6.36-18.44 13.47-36.34l1.62-1.54a1.19 1.18 23.2 01.81-.32h1.54a1.1 1.1 0 011.1.86q.18.74.57 1.1m-107.82-.91c2.18 5.85 4.12 11.29 6.68 17.54q6.09 14.85 9.51 29.61 3.57 15.42-2.92 29.62l-5.04 6.76q-3.21 1.55-4.42 4.98-.31.85-2.46 3.1l-2.29 2.59a.53.53 0 01-.79 0l-.36-.41q3.93-5.63 4.87-7.81c8.21-19.18 6.94-39.3.84-59.05q-4.22-13.68-9.39-26.88 3.18-1.26 5.77-.05"/><path fill="#565957" d="m147.98 211.09 3.17 2.15a6.12 5.78 69.8 001.47.73c13.48 4.4 25.57 9.69 37.54 17.02q5.58 3.41 10.23 7.6 6.62 5.94 9.04 8.98c7.05 8.82 12.53 19.61 12.73 31.49q.12 7.57-.08 9.58-.76 7.38-4.4 15.09a.2.2-66.6 01-.22.09h-.01a.2.2 0 01-.11-.23q1.06-3.09 2.06-6.9c3.44-13.11 2.33-27.12-4.43-39-5.65-9.9-12.65-16.72-22.12-23.27q-11.82-8.16-26.81-14.43-4.12-1.72-17.45-6.35c-2.32-.8-4.47-1.2-6.8-1.78q3.12.25 6.19-.77m300.94 1.37 1.3 1.6c-5.2 1.95-10.6 3.68-15.6 5.72q-12.32 5.04-24.64 12.45-8.7 5.23-16.21 13-12.68 13.13-15.27 30.19-2.08 13.71 3.81 28.12a.3.3-27.1 01-.12.36l-.12.07a.3.3 0 01-.44-.15q-3.4-7.98-4.3-14.57-.29-2.08-.3-9.17c-.02-12.3 6.18-24.83 14.32-33.97q10-11.22 24.89-19.36 14.41-7.87 29.04-12.43 1.58-.5 3.64-1.86"/><path fill="#9b9a9b" d="M189.27 242.68q-10.57-5.15-16.49-6.56-2.86-.7-19.42-3.52c-1.57-.27-4.42-1.2-5.27-2.27q-2.7-3.39-4.56-7.67a.57.57 0 01.87-.67q5.32 4.29 12.45 6.85 2.58.92 18.33 6.27 6.2 2.1 14.24 7.31a.15.15 0 01-.15.26m220.07-.03q8.17-5.27 14.47-7.4 16-5.41 18.62-6.34 7.25-2.58 12.65-6.93a.58.58 0 01.89.68q-1.9 4.34-4.65 7.78c-.86 1.09-3.76 2.03-5.35 2.3q-16.82 2.84-19.73 3.54-6.01 1.43-16.75 6.64a.15.15 0 01-.15-.27"/><path fill="#565957" d="m147.41 235.02 2.52 2.23a3.53 3.51 68.9 001.9.85c14.7 1.64 31.27 6.32 43.94 14.51 14.5 9.39 21.58 22.64 19.82 40.27q-.59 6.01-2.86 11.05a.33.33 0 01-.42.17l-.02-.01a.3.3 0 01-.2-.39c5.27-18.35 2.94-34.35-12.23-46.54q-11.37-9.15-27.88-13.6-13.48-3.63-24.98-4.47zm303.09 1.4q.73-.03 1.23.27a.76.75-69.2 01.35.79l-.31 1.73q-16.06 1.45-31.36 6.76c-10.41 3.6-21.87 9.95-28.21 18.55-8.75 11.87-9.04 25.31-4.87 39.15a.34.33-18.5 01-.21.41l-.08.03a.35.35-20.9 01-.44-.19c-5.7-14.69-3.65-31.38 7.14-42.94q8.84-9.47 22.62-15.06 14.98-6.08 32.27-8.07.8-.09 1.87-1.43"/><path fill="#9b9a9b" d="M334.74 245.2q.05 6.23-.31 12.36c-.15 2.6.1 6.62 1.1 8.97 1.3 3.03 1.9 5.94 3.56 8.91q2.52 4.54 7.56 9.16 3.25 2.97 4.52 7.94-5.36-3.03-8.59-8.12-2.71-4.26-5.16-10.02-5.99-14.11-2.68-29.2m-141.28 17.59a.14.14 0 01-.19.04c-8.04-5.27-16.59-5.34-26.32-6.53a4.63 4.6-25 01-1.96-.71q-4.58-2.9-7.83-7.1-.12-.15 0-.39a.4.39 29.8 01.56-.15 46 46 0 0012.72 5.59q9.47 2.57 15.06 4.71 3.88 1.48 7.91 4.25a.2.2 0 01.05.28zm212.52-.23q4.09-2.81 8.02-4.32 5.67-2.18 15.28-4.81a46 46 0 0012.9-5.69.4.4-29.8 01.57.15q.12.24 0 .4-3.29 4.26-7.94 7.22a4.7 4.67 24.9 01-1.99.72c-9.87 1.22-18.55 1.31-26.7 6.67a.14.14 0 01-.19-.04v-.01a.2.2 0 01.05-.29"/><path fill="#565957" d="M161.33 259.69q-.35-1.15-.1-2.41 3.82 1.71 4.87 1.88c14.8 2.35 36 9.42 42.54 24.56q3.49 8.1.46 17.41c-.3.91-.03 1.6-.15 2.08a.31.31 0 01-.58.08q-.11-.19.8-5.04c2.43-12.97-6.24-24.17-17.62-29.78q-15.75-7.77-30.22-8.78m239.14 24.5a.3.3 0 01-.39-.01v-.01a.17.16 46.3 010-.23q7.81-7.87 18.92-10.26c1.65-.35 3.35-1.55 4.9-1.81a.33.33 0 01.27.57c-2.15 1.88-3.86 2.91-6.81 3.45q-9.73 1.78-16.89 8.3"/><path fill="#565957" d="M198.07 283.55q-6.85-6.14-16.11-7.75c-2.81-.49-4.44-1.46-6.5-3.23a.31.31 0 01.26-.54c1.47.24 3.1 1.36 4.67 1.68q10.57 2.19 18.05 9.6a.16.15-46.8 010 .22v.01a.26.26 0 01-.37.01"/><path fill="#9b9a9b" d="M261.81 274.37q-2.11 6.84-3.79 8.65c-2.46 2.66-4.24 5.87-6.77 7.91q-5.67 4.57-10.38 7.37a.34.34 0 01-.48-.16l-.1-.26a.3.3 0 01.09-.31q3.75-2.42 6.07-6.18l.36.41a.53.53 0 00.79 0l2.29-2.59v.54a.36.35 62.7 00.64.21l6.24-8.83z"/><path fill="#565957" d="M177.73 277.1q3.86 2.31 8.34 3.06 1.95.33 7.92 3.34 11.37 5.74 8.64 18.62a.26.25 9.2 01-.27.19l-.25-.03a.1.1 7.6 01-.07-.08c1.22-7.03-.83-13-7.11-16.91q-8.68-5.4-19.18-5.31-.65 0-1.53.47.14-.51.29-.54 2.77-.61 3.22-2.81m243.31.3q.71.67-1.32 2.62c-8.89 1.24-18.91 4.74-22.04 13.63q-.75 2.12-.52 8.53a.19.18 88.4 01-.17.19h-.01a.2.2 0 01-.2-.18c-.47-6.36-.93-10.74 3.74-14.93q6.15-5.53 13.5-7.2 4.41-1 7.02-2.66"/><path fill="#f7f7f7" d="m256.77 281.13-6.24 8.83a.36.35 62.7 01-.64-.21v-.54q2.15-2.25 2.46-3.1 1.21-3.43 4.42-4.98"/><path fill="#565957" d="M192.85 295.99q-4.77-3.35-10.25-3.3a2.24 2.2 56.8 01-.92-.2q-1.96-.87-3-3.51a.37.36 12.2 01.6-.38l1.96 1.96a.89.86-16.4 00.46.24q6.35 1.06 11.48 4.9a.16.15 35.3 01.04.21l-.01.01a.26.25-55.1 01-.36.07m214.03-.53a.15.15-34.1 01.04-.19q4.9-3.5 10.88-4.37a.84.8 17.6 00.44-.21l1.88-1.8a.34.34 0 01.55.37q-1.03 2.45-2.89 3.23a2.1 2.07-55.5 01-.86.17q-5.15-.16-9.69 2.89a.24.24 0 01-.34-.08z"/><path fill="#9b9a9b" d="m151.14 308.45-.73-7.98c1.91 6.18 7.75 10.6 13.53 12.84a.34.33 58.3 01-.15.65l-3.72-.39a1.77 1.77 0 00-1.86 2.33q4.11 12.03 15.25 19.19 8.48 5.45 18.24 9.97a1.02.93-29.2 00.34.08l.26.01a.96.96 0 00.75-1.32l-3.4-8.08a.78.78 0 011.11-.98q15.04 8.52 32 10.9 5.1.72 16.09.17a.2.2 0 01.23.2v.01a.2.2 0 01-.14.19c-15.63 2.61-33.18-1.72-46.96-8.95a.23.23 0 00-.31.32q.22.37.66.7a1.45 1.44 11.7 01.56.85l1.38 6.3a.55.55 0 01-.56.67q-1.56-.06-2.98-.7-15.53-6.97-22.01-12.65-6.58-5.76-9.05-10.25l-4.7-8.56a.6.6 0 01.56-.88q1.16.07 2.4-.28a.59.59 0 00.1-1.09q-3.47-1.72-5.84-4.3a.48.48 0 00-.76.08q-.25.41-.29.95m297.3-6.2-.21 7.21q.31-1.37-.18-2.26a.47.47 0 00-.77-.08c-.56.65-.75 1.65-1.71 2.2l-3.89 2.21a.93.92-50.6 00.16 1.68q.89.29 1.95.15a.54.54 0 01.56.75q-8.09 18.64-27.08 27.43-4.9 2.27-11.57 4.83a.99.99 0 01-1.26-1.31l2.92-6.89a.32.32 0 00-.43-.41q-17.52 8.49-35.42 9.19-5.49.21-11.74-.91a.2.2 0 01-.16-.21v-.01a.16.15-80.2 01.17-.13q11.08 1.01 20.14-.57 15.67-2.73 29.24-10.74a.64.64 0 01.92.79l-3.73 8.8a.73.73 0 00.96.95q10.27-4.37 19.1-10.25 2.91-1.94 8.63-7.92 4.4-4.61 6.19-11.13a1.52 1.52 0 00-1.46-1.92h-4.11a.44.44 0 01-.15-.86q.93-.34 2.99-.77a1.86 1.82 15.2 00.95-.53q1.92-2 4.9-3.68 2.06-1.16 4.09-5.61"/></svg>