<svg xmlns="http://www.w3.org/2000/svg" xmlns:xlink="http://www.w3.org/1999/xlink" viewBox="0 0 211.67 141.02"><defs><path id="a" fill="#007cc2" stroke="#000" d="M1937.14 80.71a71.75 71.75 0 00-71.75 71.75 71.75 71.75 0 0071.75 71.75 71.75 71.75 0 0071.75-71.75 71.75 71.75 0 00-71.75-71.75zm-.02 17.15h.02a54.6 54.6 0 0154.61 54.6 54.6 54.6 0 01-54.6 54.61 54.6 54.6 0 01-54.61-54.6 54.6 54.6 0 0154.58-54.61z"/><path id="b" fill="#007cc2" stroke="#000" d="M1937.14 121.65s-2.8 3.97-6.9 5.07c-4.09 1.1-8.5-.94-8.5-.94s-.45 4.84-3.45 7.84-7.83 3.44-7.83 3.44 2.03 4.41.93 8.5-5.06 6.9-5.06 6.9 3.97 2.81 5.06 6.9c1.1 4.1-.93 8.5-.93 8.5s4.84.46 7.83 3.45 3.45 7.84 3.45 7.84 4.41-2.04 8.5-.94 6.9 5.07 6.9 5.07 2.81-3.97 6.9-5.07 8.5.94 8.5.94.46-4.84 3.45-7.84 7.84-3.44 7.84-3.44-2.04-4.42-.94-8.5c1.1-4.1 5.07-6.9 5.07-6.9s-3.97-2.81-5.07-6.9.94-8.51.94-8.51-4.84-.45-7.84-3.44c-3-3-3.44-7.84-3.44-7.84s-4.42 2.03-8.5.94c-4.1-1.1-6.9-5.07-6.9-5.07z"/><path id="c" fill="#007cc2" stroke="#000" d="M512.54 33.79s-.6.84-1.47 1.07-1.81-.2-1.81-.2-.1 1.03-.73 1.67c-.64.64-1.67.73-1.67.73s.43.94.2 1.81-1.08 1.47-1.08 1.47.85.6 1.08 1.47-.2 1.8-.2 1.8 1.03.1 1.67.74.73 1.66.73 1.66.94-.43 1.8-.2a3 3 0 011.48 1.08s.6-.84 1.46-1.07c.87-.24 1.81.2 1.81.2s.1-1.03.73-1.67c.64-.64 1.67-.73 1.67-.73s-.43-.94-.2-1.81 1.08-1.47 1.08-1.47-.85-.6-1.08-1.47.2-1.8.2-1.8-1.03-.1-1.67-.74a3 3 0 01-.73-1.67s-.94.44-1.8.2c-.88-.23-1.47-1.07-1.47-1.07z"/><path id="d" fill="#007cc2" stroke="#000" d="M496.86 39.72h31.35v1.24h-31.35z"/><path id="e" fill="#007cc2" stroke="#000" d="M24.66-513.16h31.36v1.24H24.66Z"/><path id="f" fill="#007cc2" stroke="#000" d="M275.53-424.32h31.35v1.24h-31.35z"/><path id="g" fill="#007cc2" stroke="#000" d="M-439.38-291.82h31.36v1.24h-31.36z"/><path id="h" fill="#007cc2" stroke="#000" d="M-237.01-464.66h31.35v1.24H-237z"/><path id="i" fill="#007cc2" stroke="#000" d="M-479.72 220.71h31.36v1.24h-31.36z"/><path id="j" fill="#007cc2" stroke="#000" d="M528.63 40.76c0-9.12-7.4-16.51-16.51-16.51l-1.67.08 18.1 18.1z"/><path id="k" fill="#007cc2" stroke="#000" d="M1937.14 84.69a67.8 67.8 0 00-67.77 67.77 67.8 67.8 0 0067.77 67.78 67.8 67.8 0 0067.78-67.78 67.8 67.8 0 00-67.78-67.77zm-.2 8.93h.2a58.85 58.85 0 0158.85 58.84 58.85 58.85 0 01-58.85 58.85 58.85 58.85 0 01-58.85-58.85 58.85 58.85 0 0158.66-58.84z"/></defs><path fill="#f6d500" d="M572.86 163.64V22.62h211.67v141.02z" style="font-variation-settings:normal" transform="translate(-572.86 -22.62)"/><path fill="#007cc2" d="M784.53 55.24H572.86v108.4z" style="font-variation-settings:normal" transform="translate(-572.86 -22.62)"/><g fill="#007cc2" stroke-width=".98"><use xlink:href="#a" stroke-width="1.47" transform="matrix(.18414 0 0 .18415 -264.09 -11.27)"/><use xlink:href="#b" transform="matrix(.18414 0 0 .18415 -264.09 -11.27)"/><use xlink:href="#c" stroke-width=".26" transform="matrix(.69597 0 0 .696 -264.09 -11.27)"/><use xlink:href="#d" stroke-width=".26" transform="matrix(.69597 0 0 .696 -264.09 -11.27)"/><use xlink:href="#e" stroke-width=".26" transform="matrix(0 .696 -.69597 0 -264.09 -11.27)"/><use xlink:href="#f" stroke-width=".26" transform="rotate(60 -122.28 -234.34)scale(.696 .69598)"/><use xlink:href="#g" stroke-width=".26" transform="rotate(150 -130.53 -41.02)scale(.69598 .696)"/><use xlink:href="#h" stroke-width=".26" transform="rotate(120 -128.8 -81.87)scale(.696 .69598)"/><use xlink:href="#i" stroke-width=".26" transform="rotate(210 -133.55 29.74)scale(.69598 .696)"/><g stroke="#000" stroke-width=".26" transform="matrix(.69597 0 0 .696 -264.09 -11.27)"><circle cx="512.54" cy="40.34" r="4.9"/><circle cx="512.54" cy="40.34" r="3.76"/><circle cx="512.54" cy="40.34" r=".62"/></g><use xlink:href="#j" stroke-width=".26" transform="matrix(.69597 0 0 .696 -264.09 -11.27)"/><use xlink:href="#k" transform="matrix(.18414 0 0 .18415 -264.09 -11.27)"/><use xlink:href="#a" stroke-width="1.47" transform="matrix(.18414 0 0 .18415 -290.51 -11.27)"/><use xlink:href="#b" transform="matrix(.18414 0 0 .18415 -290.51 -11.27)"/><use xlink:href="#c" stroke-width=".26" transform="matrix(.69597 0 0 .696 -290.51 -11.27)"/><use xlink:href="#d" stroke-width=".26" transform="matrix(.69597 0 0 .696 -290.51 -11.27)"/><use xlink:href="#e" stroke-width=".26" transform="matrix(0 .696 -.69597 0 -290.51 -11.27)"/><use xlink:href="#f" stroke-width=".26" transform="rotate(60 -135.5 -257.22)scale(.696 .69598)"/><use xlink:href="#g" stroke-width=".26" transform="rotate(150 -143.75 -44.56)scale(.69598 .696)"/><use xlink:href="#h" stroke-width=".26" transform="rotate(120 -142 -89.5)scale(.696 .69598)"/><use xlink:href="#i" stroke-width=".26" transform="rotate(210 -146.77 33.28)scale(.69598 .696)"/><g stroke="#000" stroke-width=".26" transform="matrix(.69597 0 0 .696 -290.51 -11.27)"><circle cx="512.54" cy="40.34" r="4.9"/><circle cx="512.54" cy="40.34" r="3.76"/><circle cx="512.54" cy="40.34" r=".62"/></g><use xlink:href="#j" stroke-width=".26" transform="matrix(.69597 0 0 .696 -290.51 -11.27)"/><use xlink:href="#k" transform="matrix(.18414 0 0 .18415 -290.51 -11.27)"/><use xlink:href="#a" stroke-width="1.47" transform="matrix(.18414 0 0 .18415 -316.94 -11.27)"/><use xlink:href="#b" transform="matrix(.18414 0 0 .18415 -316.94 -11.27)"/><use xlink:href="#c" stroke-width=".26" transform="matrix(.69597 0 0 .696 -316.94 -11.27)"/><use xlink:href="#d" stroke-width=".26" transform="matrix(.69597 0 0 .696 -316.94 -11.27)"/><use xlink:href="#e" stroke-width=".26" transform="matrix(0 .696 -.69597 0 -316.94 -11.27)"/><use xlink:href="#f" stroke-width=".26" transform="rotate(60 -148.7 -280.1)scale(.696 .69598)"/><use xlink:href="#g" stroke-width=".26" transform="rotate(150 -156.96 -48.1)scale(.69598 .696)"/><use xlink:href="#h" stroke-width=".26" transform="rotate(120 -155.22 -97.13)scale(.696 .69598)"/><use xlink:href="#i" stroke-width=".26" transform="rotate(210 -159.98 36.82)scale(.69598 .696)"/><g stroke="#000" stroke-width=".26" transform="matrix(.69597 0 0 .696 -316.94 -11.27)"><circle cx="512.54" cy="40.34" r="4.9"/><circle cx="512.54" cy="40.34" r="3.76"/><circle cx="512.54" cy="40.34" r=".62"/></g><use xlink:href="#j" stroke-width=".26" transform="matrix(.69597 0 0 .696 -316.94 -11.27)"/><use xlink:href="#k" transform="matrix(.18414 0 0 .18415 -316.94 -11.27)"/><use xlink:href="#a" stroke-width="1.47" transform="matrix(.18414 0 0 .18415 -211.24 -11.27)"/><use xlink:href="#b" transform="matrix(.18414 0 0 .18415 -211.24 -11.27)"/><use xlink:href="#c" stroke-width=".26" transform="matrix(.69597 0 0 .696 -211.24 -11.27)"/><use xlink:href="#d" stroke-width=".26" transform="matrix(.69597 0 0 .696 -211.24 -11.27)"/><use xlink:href="#e" stroke-width=".26" transform="matrix(0 .696 -.69597 0 -211.24 -11.27)"/><use xlink:href="#f" stroke-width=".26" transform="rotate(60 -95.86 -188.57)scale(.696 .69598)"/><use xlink:href="#g" stroke-width=".26" transform="rotate(150 -104.11 -33.94)scale(.69598 .696)"/><use xlink:href="#h" stroke-width=".26" transform="rotate(120 -102.37 -66.62)scale(.696 .69598)"/><use xlink:href="#i" stroke-width=".26" transform="rotate(210 -107.13 22.66)scale(.69598 .696)"/><g stroke="#000" stroke-width=".26" transform="matrix(.69597 0 0 .696 -211.24 -11.27)"><circle cx="512.54" cy="40.34" r="4.9"/><circle cx="512.54" cy="40.34" r="3.76"/><circle cx="512.54" cy="40.34" r=".62"/></g><use xlink:href="#j" stroke-width=".26" transform="matrix(.69597 0 0 .696 -211.24 -11.27)"/><use xlink:href="#k" transform="matrix(.18414 0 0 .18415 -211.24 -11.27)"/><use xlink:href="#a" stroke-width="1.47" transform="matrix(.18414 0 0 .18415 -237.67 -11.27)"/><use xlink:href="#b" transform="matrix(.18414 0 0 .18415 -237.67 -11.27)"/><use xlink:href="#c" stroke-width=".26" transform="matrix(.69597 0 0 .696 -237.67 -11.27)"/><use xlink:href="#d" stroke-width=".26" transform="matrix(.69597 0 0 .696 -237.67 -11.27)"/><use xlink:href="#e" stroke-width=".26" transform="matrix(0 .696 -.69597 0 -237.67 -11.27)"/><use xlink:href="#f" stroke-width=".26" transform="rotate(60 -109.07 -211.46)scale(.696 .69598)"/><use xlink:href="#g" stroke-width=".26" transform="rotate(150 -117.32 -37.48)scale(.69598 .696)"/><use xlink:href="#h" stroke-width=".26" transform="rotate(120 -115.58 -74.24)scale(.696 .69598)"/><use xlink:href="#i" stroke-width=".26" transform="rotate(210 -120.34 26.2)scale(.69598 .696)"/><g stroke="#000" stroke-width=".26" transform="matrix(.69597 0 0 .696 -237.67 -11.27)"><circle cx="512.54" cy="40.34" r="4.9"/><circle cx="512.54" cy="40.34" r="3.76"/><circle cx="512.54" cy="40.34" r=".62"/></g><use xlink:href="#j" stroke-width=".26" transform="matrix(.69597 0 0 .696 -237.67 -11.27)"/><use xlink:href="#k" transform="matrix(.18414 0 0 .18415 -237.67 -11.27)"/><use xlink:href="#a" stroke-width="1.47" transform="matrix(.18414 0 0 .18415 -343.36 -11.27)"/><use xlink:href="#b" transform="matrix(.18414 0 0 .18415 -343.36 -11.27)"/><use xlink:href="#c" stroke-width=".26" transform="matrix(.69597 0 0 .696 -343.36 -11.27)"/><use xlink:href="#d" stroke-width=".26" transform="matrix(.69597 0 0 .696 -343.36 -11.27)"/><use xlink:href="#e" stroke-width=".26" transform="matrix(0 .696 -.69597 0 -343.36 -11.27)"/><use xlink:href="#f" stroke-width=".26" transform="rotate(60 -161.92 -303)scale(.696 .69598)"/><use xlink:href="#g" stroke-width=".26" transform="rotate(150 -170.17 -51.64)scale(.69598 .696)"/><use xlink:href="#h" stroke-width=".26" transform="rotate(120 -168.43 -104.76)scale(.696 .69598)"/><use xlink:href="#i" stroke-width=".26" transform="rotate(210 -173.2 40.36)scale(.69598 .696)"/><g stroke="#000" stroke-width=".26" transform="matrix(.69597 0 0 .696 -343.36 -11.27)"><circle cx="512.54" cy="40.34" r="4.9"/><circle cx="512.54" cy="40.34" r="3.76"/><circle cx="512.54" cy="40.34" r=".62"/></g><use xlink:href="#j" stroke-width=".26" transform="matrix(.69597 0 0 .696 -343.36 -11.27)"/><use xlink:href="#k" transform="matrix(.18414 0 0 .18415 -343.36 -11.27)"/><use xlink:href="#a" stroke-width="1.47" transform="matrix(.18414 0 0 .18415 -158.4 -11.27)"/><use xlink:href="#b" transform="matrix(.18414 0 0 .18415 -158.4 -11.27)"/><use xlink:href="#c" stroke-width=".26" transform="matrix(.69597 0 0 .696 -158.4 -11.27)"/><use xlink:href="#d" stroke-width=".26" transform="matrix(.69597 0 0 .696 -158.4 -11.27)"/><use xlink:href="#e" stroke-width=".26" transform="matrix(0 .696 -.69597 0 -158.4 -11.27)"/><use xlink:href="#f" stroke-width=".26" transform="rotate(60 -69.44 -142.8)scale(.696 .69598)"/><use xlink:href="#g" stroke-width=".26" transform="rotate(150 -77.69 -26.86)scale(.69598 .696)"/><use xlink:href="#h" stroke-width=".26" transform="rotate(120 -75.94 -51.36)scale(.696 .69598)"/><use xlink:href="#i" stroke-width=".26" transform="rotate(210 -80.7 15.58)scale(.69598 .696)"/><g stroke="#000" stroke-width=".26" transform="matrix(.69597 0 0 .696 -158.4 -11.27)"><circle cx="512.54" cy="40.34" r="4.9"/><circle cx="512.54" cy="40.34" r="3.76"/><circle cx="512.54" cy="40.34" r=".62"/></g><use xlink:href="#j" stroke-width=".26" transform="matrix(.69597 0 0 .696 -158.4 -11.27)"/><use xlink:href="#k" transform="matrix(.18414 0 0 .18415 -158.4 -11.27)"/><use xlink:href="#a" stroke-width="1.47" transform="matrix(.18414 0 0 .18415 -184.82 -11.27)"/><use xlink:href="#b" transform="matrix(.18414 0 0 .18415 -184.82 -11.27)"/><use xlink:href="#c" stroke-width=".26" transform="matrix(.69597 0 0 .696 -184.82 -11.27)"/><use xlink:href="#d" stroke-width=".26" transform="matrix(.69597 0 0 .696 -184.82 -11.27)"/><use xlink:href="#e" stroke-width=".26" transform="matrix(0 .696 -.69597 0 -184.82 -11.27)"/><use xlink:href="#f" stroke-width=".26" transform="rotate(60 -82.65 -165.7)scale(.696 .69598)"/><use xlink:href="#g" stroke-width=".26" transform="rotate(150 -90.9 -30.4)scale(.69598 .696)"/><use xlink:href="#h" stroke-width=".26" transform="rotate(120 -89.15 -58.99)scale(.696 .69598)"/><use xlink:href="#i" stroke-width=".26" transform="rotate(210 -93.92 19.12)scale(.69598 .696)"/><g stroke="#000" stroke-width=".26" transform="matrix(.69597 0 0 .696 -184.82 -11.27)"><circle cx="512.54" cy="40.34" r="4.9"/><circle cx="512.54" cy="40.34" r="3.76"/><circle cx="512.54" cy="40.34" r=".62"/></g><use xlink:href="#j" stroke-width=".26" transform="matrix(.69597 0 0 .696 -184.82 -11.27)"/><use xlink:href="#k" transform="matrix(.18414 0 0 .18415 -184.82 -11.27)"/></g><g stroke-width=".97"><path fill="#f6d500" stroke="#000" stroke-miterlimit="6" stroke-width=".26" d="M476.9 130.57a1 1 0 01-.8-.1l.2-.39c-1 .43-1.86.4-2.41-.21-1.19.17-1.41-.52-1.41-.52-2.34.26-2.25-.78-2.25-.78s-2.88.15-3.52-2.63c.93.35 1.85.07 2.18-.72.34-.8.58-1.2.95-1.74 0 0-1.71.73-3.6-.1-1.9-.84-2.68-2.18-2.23-3.09 0 0 1.06.87 1.88.23.82-.63.25-1.63 1.38-2.64-1.23.42-3.15.65-4.74-.75-1.13-1-1.04-2.06-.91-3.22 0 0 .54 1.16 1.73 1.06 1.2-.1.6-1.33 1.3-2.3 0 0-2.14-.2-3.4-2.02-1.24-1.8-.84-2.86-.84-2.86s.93.89 2.22.89c-1.27-.6-1.88-1.59-2.6-2.7-.71-1.13-.5-2.18-.5-2.18.57.7 2.04 1.76 2.77.24-1.22-1.24-2.12-1.68-2.88-2.93s-.6-3.22.06-4.08c.67-.86 1.08-2.5.52-2.83-.62-.37-1.84 1.62-3.27.9-1.43-.7-.62-3.83-.62-3.83-1.59-.73-2.44 1.19-2.76 1.95 0 0-.16-2.44 1.23-3.7s2.42.21 2.42.21c1.17-1.92 2.58-2.45 3.52-1.25.95 1.2 1.72.72 1.72.72 0-2.15-1.53-1.32-1.95-3.1s.47-2.8.47-2.8c-1.07-1.24-1.8-.4-2.9 1.23-.06-1.5.28-2.58 1.88-3.19 1.61-.61 2.59 1.04 2.59 1.04 2-.6 2.75-.17 3.12.84s.74 1.29 1.29 1.13c-.22-1.86 1.84-2.04 1.84-2.04-.8-2.23-3-.77-3-.77s.23-2.09 2.46-1.82 2.22 2.11 2.22 2.11c3.52.11 3.68 2.44 2.78 3.84-.89 1.4.64 1.34-.05 2.21-.75.96-1.27.55-1.27 2.33 0 1.32.17 3.35.33 4.47.16 1.13-.56 1.57-.25 3.45.3 1.87.91 3.82 2.8 5.4 1.9 1.6 4.52 2.19 5.68 4.89 1.15 2.7 1.68 3.27 2.7 4.14l7.17 17.21z" style="font-variation-settings:normal" transform="translate(-252.6 -15.56)scale(.70021)"/><path fill="#f6d500" stroke="#000" stroke-miterlimit="6" stroke-width=".68" d="M1014.49 172.3c-4.44-.01-6.86 2.77-6.4 5.93 1.62-1.45 4.67-1.85 5.45.2.77 2.07-.18 3.68-4.68 3.68s-5.34 2.13-5.34 2.13-5.98-3.17-10.91-2.57-6.49 3.58-7.8 6.62c0 0-9.07.24-13.9 1.47s-5.75 2.32-6.27 4.1c-.53 1.8-.5 7.73-.5 7.73-1.49 3.35-2.58 6.58-.3 10.63a26 26 0 0010.27 10.24c4.56 2.44 5.85 1.42 10.12.5s6.67 1.44 5.9 5.5c-.78 4.07.86 5.5 4.17 6.2 3.3.7 2.36 6.5-4.49 9.81-5.01-1.8-6.06-3.64-11.12-3.92-5.26-.28-10.74 2-10.97 5.42-.22 3.42 2.96 3.74 5.8 5.11 2.8 1.37.86 4.02-2.18 2.57 0 0-.32 1.89 2.68 1.9 3.33 3.62 8.1.83 10.39-3.08.39 2.72-.75 4.32-2.5 5.35.63.25 1.76.73 2.55.8 0 0-1.34 4.74-7.2 5.09-5.5.32-4.11-4.35-8.89-7.7-4.77-3.33-11.96-3.33-14.8 1.87 3.8-.74 4.82.93 5.28 2.34.47 1.4 1.05 2.96 2.28 6.3-3.02-.84-3.78-1.04-7.22-4.8-3.3-3.64-6.73-3.2-10.44-2.47-3.24.62-6.77-.2-7.98-2.37 0 0-2.36 4.54 2.42 6.33 3.78 1.42 4.53 2.82 5.11 6.22-2.7-2.66-8.67-5-13.75-2.05-5.08 2.94-6 5.85-10.44 5.46 0 0-.34-1.92-3.26-1.92s-5.59 3.24-5.37 7.45a5.9 5.9 0 003.56 5.39c-4 4-3.1 13.15 2.92 15.66 6 2.5 11.55-.99 11.55-.99-1.08 2.98-1.13 9.2-7.04 8.09 1.46-1.47 2.27-3.98-.4-4.84s-5.88 1.26-5.08 5.93 8.3 6 8.3 6-2.23 1.82-8.79 1.38-10.87 2.23-13.82 4.04c-2.94 1.8-4.99 2.15-12.06 3.66s-8.33 4.94-12.35 9.67-7.83 4.01-12.9 7.85c-5.07 3.85-7.2 4.98-12.22 3.97-5.01-1-5.64 1.25-10.6 1.02-4.96-.24-2.6-7.05-9.45-6.1-6.84.94-7.08-3.46-12.73-3.46s-7.18 3.72-7.18 3.72c-2.12-.71-5.76-.72-6.87 4-1.1 4.7 1.2 7.86 1.2 7.86.16-5.11 2.73-8.15 4.86-6.97a15 15 0 001.05 6.08s-4.06.55-5.04 4.1c-1 3.55 1.4 8.33 1.4 8.33s-1.62 3.14-.5 7.62 6.79 5.48 6.79 5.48c-4.37-4.23-2.2-8.65-2.2-8.65 4.36 1.08 7.3.62 7.3.62s-1.32 1.48-.7 5.98c.6 4.5 5.28 7.13 5.28 7.13-1.21 4.38 3.95 9.25 9.08 10.7-5.04-4.73-3.03-9.21-3.03-9.21s3.02.83 5.89-2.14c2.65-2.75.53-6.43.53-6.43s3.15.01 7.21 2.34c4.07 2.32 8.9 1.89 13.39-2.13s6.13-1.15 6.13-1.15c.47 2.13-3.34 6.02-3.34 6.02a15 15 0 0012.25-9.21c1.18 2.68.56 5-2.77 7.85 5.87.65 10.62-4.6 12.28-10.56 2.1 1.57-.23 7.52-1.48 9.4 6.66-2.36 10.93-5.82 11.85-13.08.8 3.63.21 7.34-3.4 11.6 5.44.23 10.48-4.04 12.57-8.92 2.1-4.87 3.49-6.33 6.14-7.55-2.9 5.89.33 8.03-4.49 10.62 0 0 3.9 1.97 8.35-.36 4.47-2.34 6.05-5.87 7.33-9.5-.13 4.82 3.1 6.19-1.72 9.63 6.48 3.14 13.08-2.53 16.68-12.16-.15 4.8-1.03 7.54-3.6 9.63l3.08.14c1.85 4.72 10.64 6.71 14.59 4.62-2.13 4.72-8.68 3.84-8.68 3.84a21 21 0 006.95 3.26c7.85 1.96 13.1-2.5 13.1-2.5a3 3 0 01.18 2.38l46.6-19.9 20.24-14.33a31 31 0 01-4.61-3.69c-2.63-2.66-6.03-8.93-8.4-14.31-1.71-3.99-3.03-7.9-3.54-10.62 2.74-1.45 5.31-3.32 5.13-7.86 3.62.04 13.71.8 14.34-12.72 2.44-.7 9.32-2.54 7.96-11.68 4.4.01 15.77-3.68 11.28-11.19 3.7-1.73 9.25-5.39 8.83-10.48-.4-5.1-3.4-6.39-6.18-5.4s-3.4 3.88-.47 5c.38-3.57 4.42-2.23 2.33 1.08s-9.57.06-5.25-7.13c0 0 7.7-.82 11.79-7.06 4.1-6.25 3.75-13.8-.7-17.26s-11.39.21-8.03 3.75c.7-3.23 5.3-2.36 3.74 1.23s-5.83 2.66-6.5.33c-.67-2.32 1.45-3.23.42-7.96 0 0 6.39-.61 9.07-8.93 2.63-8.14-2.08-12.28-5.42-12.15a3.56 3.56 0 01-3.71 5.25c1.77-2.64 2.76-8.36-1.27-9.69.58-2.14 1.48-7.44-1.2-12.08 0 0-.82 2.54-3.95 2.5.11-4.29-2.05-7.45-5.96-9.04-.08 2.8-.85 3.98-3.14 5.11 0 0 1.96-3-.2-8.18-2.18-5.17-5.84-6.36-9.18-5.99 1.63 1.62 3.5 7.13-.8 9.06 1.02-2.39 1.66-9.17-4.9-10.94a13 13 0 00-3.38-.48zm166.26 41.3c-4.13-.1-7.44.9-7.97 6.86-.54 5.96-5.13 6.42-4.87 11.37 0 0-8.44-.58-9.22 10.53s-5.4 12.67-13.66 15.03c2.04-1.89 5.05-6.98 2.34-14.98s-8.06-8.4-11.35-6.53-2.88 7.47.6 6.65c-1.1-.77-1.72-2.54.75-2.49 2.34.05 4.29 5.1-2.28 10.05-6.16 4.66-13.13 8.57-13.86 17.55-.72 8.77 6.94 13.51 8.85 23.1l5.53-1.24 5.27-4.3q.52-2.09 1.62-4.37c5.78-11.94 19.76-6.39 30.45-16.74 10.68-10.36 12.8-22.7 8.11-31.72-4.68-9-3.85-12.1-.74-13.63 3.1-1.54 4.48 1.53 3.78 3.05s-1.53.91-2.6-.2c-.94 1.24-1.03 3.83 2.34 3.7 3.37-.14 3.96-3.46 3.6-5.97a6.8 6.8 0 00-6.7-5.72zm-86.17 92.65a4.3 4.3 0 01-1.44 3.4l1.87-.34.8-1.03a7 7 0 00-1.23-2.03zm-4.26 4.85c-1.7.52-3.83.97-7.08 1.4-9.1 1.23-19.13 3.15-27.5 10.55a52 52 0 00-8.95 10.34l23.34-9.63z" style="font-variation-settings:normal" transform="translate(-157.17 -8.54)scale(.26458)"/><path fill="#007cc2" stroke="#000" stroke-miterlimit="6" stroke-width=".68" d="m1140.88 285.2-10.8 5.53c.18.9.38 1.77.44 2.76.76 11.57-3.12 19.2-11.16 23.6s-17.39 3.65-17.39 3.65 2.1-5.82-2.46-9.83c0 0-1 5.96-3.37 7.85 1.03-3.51.94-7.63-.32-10.48l-2.68 1.37a7 7 0 01-2.82 1.45l-43.53 22.29a40.5 40.5 0 00-6.7 17.68c-3.27-1.43-9-4.06-13.7-7.23l-66.84 34.23c-.8 2.5-4.33 4.44-4.81 4.76 10.19 3.85 16.16-4.14 16.16-4.14.17 2.99-2.34 5.3-4.54 6.13 6.7 1.75 11.74-2.05 13.89-3.96-.66 3.2-2.34 4.78-4.82 5.68 0 0 2.46 1.66 9.1-.18s8.75-3.22 17.3-2.21c5.43 11.66-2.18 20.46-16.1 18.23s-8.84-10.56-19.65-9.8c-10.8.78-12.25 1.25-16.44 7.84s-6.29 3.26-9.5 8.4c-3.09 4.95-1.33 10.04-5.28 12.34-3.94 2.3-6.25-.52-5.84-3.5 0 0-5.24 6.24.48 11.04 5.71 4.8 11.91.39 11.91.39-3.86 11.17-11.4 9.98-12.84 5.6-.66 11.2 12.94 10.74 16.78 6.43-.67 4.16-5.27 6.9-11.67 4.86.99 5.6 6.58 6.12 11.92 5.15-1.27 3.81-4.02 6.36-6.7 13.65-2.66 7.26-4.52 11.44-7.1 15.47-2.6 4.02-6.14 4.52-8.4 4.2s-2.88-1.55-4.8-1.14c-1.95-5.94-2.04-5.82-7.88-5.32s-5.48-3.89-9.42-4.26c-3.95-.37-7.03 4.33-7.03 4.33s-3.1-1-5.03 2.2c-1.92 3.2-.81 8.01-.81 8.01-2.38 3.21-.31 7.71-.31 7.71s-2.86.75-2.52 5.1c.33 4.33 3.64 7.84 3.64 7.84-.68-5.63.17-6.83 2.39-8.6 1.79 1.62 4.1 1.32 4.1 1.32-3.79 3.3-1.49 8.79-1.49 8.79s-3.23 1.66-1.59 6.85a15 15 0 005.74 7.7c-2.52-5.82-1-8.37.23-9.95 0 0 2.4 1.99 5.35 1.01a4.6 4.6 0 003.26-3.74c2.66 1.81 5.28 1.6 8.2-.63 0 0 .95 6.92 15.63 5.45s15.83-11.7 15.83-11.7c5.42-1.35 9.23-2.94 15.06-9.9 5.82-6.95 7.08-13.45 7.08-13.45 3.3 2.22 2.65 6.57 2.17 8.41 8.03-3.3 5.22-13.29 5.22-13.29 4.72 1.9 4.67 7.62 4.67 7.62 4.55-4.77 5.7-9.63 2.82-14.79 13.22 1.9 14.77-10.1 14.77-10.1-7.32 1.18-10.2-1.77-10.2-1.77 12.76 1.41 13.19-11.34 13.19-11.34-7 1.82-9.9-.98-9.28-5.48.61-4.5 6.39-7.58 14.43-6.93s12.73-2.98 12.73-2.98c-2.75 4.1 0 6.83.2 10.67s-1.01 5.85-1.27 10.66c-.34 6.2 2.74 9.52 5.2 11.75-2.45 3.33-3.42 4.15-1.52 9.59 1.9 5.48-3.27 6.8-4.84 3.39-1.11 1.6-.08 5.8 4.3 6.49 4.36.7 8.85-2.43 8.85-2.43 1.8 3.87.32 6.9-5.47 7 0 0 2.46 3.07 6.95 3.07s6.82-2.87 6.82-2.87c4.99 2.12 8.97.88 12.48-1.14 3.75 4.58 11.05 3.06 13.91-2.26 1.53 5.33 7.7 7.78 10.7 5.3-3.07-1.17-3.41-5.26.24-6.6 3.6-1.33 4.9.48 10.53-3.16 5.65-3.65 13.78-4.9 20.17-.86 6.38 4.04 5.82 8.16 12.02 12.73 6.28 4.63 7.57 9.04 3.25 12.55s-5.12-.68-9.24-.27c-4.25.42-1.1 6.37-6.69 4.6-5.56-1.77-7.43 2.29-7.94 7.25-4.66 1.89-1.01 8.28.9 10.1.29 3.06 1.22 4.89 4.33 6.06-.73 3.98 2.51 7.4 6.2 9.55-1.89-3.07-.86-7.45-.86-7.45 3.55.95 5.35-.4 5.35-.4a26 26 0 003 2.38c-1.44 3.99 3.62 8.88 6.07 9.23a7 7 0 01-.82-7.62c5.44.84 7.21-1.2 7.47-5.52 7.14.85 9-4.29 9.79-6.23 0 0 8.54-.05 14.02-8.57 5.47-8.52-1.61-23.48-1.61-23.48 1.6-8.24-.5-13.88-5.78-23.96s-7.28-8.29-10.41-18.11c-3.14-9.83-8.8-12.35-8.8-12.35.82-5.2-.96-7.5-3.3-9.36.77 3.07-1.21 4.6-2.94 5.53 2.52-4.34.05-12.45-2.72-13.71.13 4.43-3.1 5.23-5.4 7.1 2.87-8.5-1.34-12.15-1.34-12.15-1.33 3.65-2.13 5.36-4.12 5.8s-2.88 1.42-4.39 3.66c.18-7.52-3.96-7.84-3.96-7.84.5 2.51 1.43 5.1-3.78 8.15s-5.72 9.96-4.26 11.43c-9.62 2.54-16.86-.99-20.27-6.12s-3.04-14-.47-32.82-7.72-34.78-16.91-41.08c.93-6.51.69-20.66 11.34-27.29 11.32-7.04 14.83-5.54 22.01 1.66 7.13 7.15 13.69 6.14 16.36 3.13 1.3.65 6.67.11 9.1-4.95 0 0 15.07-.58 23.66-16.21 7.48-13.63 2.73-20.73 5.22-30.24z" style="font-variation-settings:normal" transform="translate(-157.17 -8.54)scale(.26458)"/><path fill="#f11e0f" stroke="#000" stroke-width=".26" d="M512.07 101.55s-2.47-3.14-5.7-4.17c-3.25-1.02-4.88.26-6.65 1.1a3.5 3.5 0 01-4.32-1.25c-.7-1.1-.03-2.3 1.04-2.58 1.08-.27 1.89.05 2.23 1.24.23-.45.4-2.96-2.08-3.62a4 4 0 00-5.11 3.53c-.33 2.64 1.14 4.56 3.32 5.6 2.19 1.04 4.47.6 6.65-.5 2.18-1.09 4.27-1.43 6-.5a6.5 6.5 0 012.44 2.14l.69.4z" style="font-variation-settings:normal" transform="translate(-252.6 -15.56)scale(.70021)"/><path fill="#f11e0f" stroke="#000" d="M1899.56 349.69s-2.06 11.06 5.44 15.37c0 0-.94-6 2.25-10.31zm4.92 25.55c-1.46 3.05.55 8.37.55 8.37l3.51-.93c-1.37-2.31-2-3.95-4.06-7.44z" style="font-variation-settings:normal" transform="matrix(.18527 0 0 .18526 -252.6 -15.56)"/><path fill="#f11e0f" stroke="#000" stroke-miterlimit="8" stroke-width=".26" d="M512.67 86.91c-2-.5-1.66-1.9-1.86-2.3s-1.09-.24-1.09-.24l.33-.72c2.1.28 1.6-1.17 3.54-.08 1.33.74 1.72.96 2.23 1.17-.39 1-1.15 2.67-3.15 2.17z" style="font-variation-settings:normal" transform="translate(-252.6 -15.56)scale(.70021)"/><path d="M106.46 42.98c.53 0 1.16.52 1.16 1.05 0 .52-.38 1.01-.88.96-.52-.07-1.07-.4-.9-1.3h.2c.08.64 1.3.17.42-.7"/><path fill="none" stroke="#000" stroke-width=".26" d="M456.1 91.27s.35-.82.9-1.54m3.76-6.42s.49-.55 1.57-.93m6.25-.07s.35-.3 1.68-.48m-3.52 2.52s.7.44.37 2.21c-.32 1.78.4 2.42.4 2.42m-5.27.22s2.1-.38 2.62 1.76M460 94.2s.58 1.15 2.44.63m-5.8-2.34s-.25 1.45 1 1.49 2.06-.97 2.06-.97m-2.14-.48s.65.8 1.65-.08m2.74-8.47s-1 1.13-.72 2.22 1.05 1.41 1.05 1.41m.48-.4s-.8-1.13-.2-2.1m.89.69s-.49.64.28 1.17m4.31-.57s.28-.93 1.13-.8m-1.97.12s.16-1.42 2.3-1.78m-2.5.77s.11-2.06 3.06-2.02m.74 16.68s1.37-2.45.63-4.4m-8.73 3.66s-.57.9.69 1.65m-1.6-3.02s-1.37 2.73 1.54 4.44m-2.34-5.3s-1.08 1.54-.57 3.54 2.97 2.9 2.97 2.9m-.76 5.84s1.21.32 2.3-.36m-.29 4.35s.63-.93 2-.6m6.78-7.57s2.68-.23 3.93 1.37m-6.5 1.14s.4-.8 1.54-.63m-1.76 2.5s.4-1.53 1.88-1.53m-1.6 3.13s-.05-1.3 1.54-1.82m-.68 2.8s-.12-1.2 1.08-1.72m-.17 2.8s-.11-1.26 1.03-1.71m-.06 2.67s-.06-1.2.63-1.88m.8.74s-.58 1.2.22 1.94m1.03-1.14s-.34 1.14.51 1.6m-7.18 1.37s1.25 1.02 3.02.8c0 0-1.14 1.53-3.7.57 0 0 .62 2.62 4.61 2.05 0 0-.34 1.08-3.02.97 0 0 .91 1.88 4.39 1.14 0 0-.63 1.7-3.2 2.16 0 0 1.83 1.26 5.48-.68 0 0-.06 2.05-3.93 3.48 2.3.42 4.24-.02 6.15-1.2-.17.63-.08 1.95-2.8 3.26 0 0 2.58.67 4.57-.92m-11 .81s2.15 0 3.48-1.25m-1.23 2.03s2.2-.14 3.7-2.07m-2.3 2.59s2-.13 3.22-2.07m-.8 2.28c.15-.1.92-.47 1.2-.99" style="font-variation-settings:normal" transform="translate(-252.6 -15.56)scale(.70021)"/><path fill="none" stroke="#000" stroke-miterlimit="8" stroke-width=".26" d="M529.3 142.68a41 41 0 014.96 3.03m-12.71 27.33c.39-1.15 1.21-1.58 2.65-3.38s1.62-5.01-.54-9.15c-2.16-4.13-5.71-4.96-8.81-5.33m.76-18.1s2.16-.9 2.33-2.96m-1.14 3.48s1.37-.51 1.71-2.22m-.45 2.73s1.03-.34 1.08-1.54m.06 2.06s.8-.4.85-1.09m.18 1.77s.57-.51.57-1.03m12.54 6s.62-3.77 1.65-6.4c1.03-2.62 4.05-4.04 4.05-4.04m-6.44 9.92s.34-5.08 2.33-7.53m14.77-1.2s1.32 1.85 3.34 2.18m-6.13-6.56c1.18.8 2.48 1.25 3.58-.18m2.52 3.6a5 5 0 003.47 1.27m-8.6-.59s1.08 2.17 2.9 1.94m-5.47-3.14s1.25.97 2.56 2.4c1.32 1.42 2.91 1.6 3.82 1.2m-3.3-6.68s1.2.4 1.54-.85.11-2.05.11-2.05m-1.77 2.45s1.26.06 1.14-1.6m5.15 5.34s.4 1.03 3.25.29 4.45-1.77 5.93-3.77 2.28-4.84 2.45-6.38m-.85-13.23s-.51-2.22 3.62-3.39m-4.48 1.57s1.66-.63 2.68-3.88m.57 2.74s1.14-1.37 1.37-4.4c.23-3.01-1.2-3.75-2.45-3.41m-.63 8.95s2.62-2.4 2.28-6.67m8.9 2.45c.11-.11 1.76-1.37 1.42-3.36-.34-2-1-1.76-1.01-3.65m-2.18 5.93s-.23-2.91 1.37-3.42m-2.11 3.59s-.23-4.56 2.34-5.13m3.99 4.1s1.08-1.42.28-3.13m-1.03 3.42s1.49-2.97-.96-4.8m-.12 5.2s1.18-2.04-.06-3.88c-1.23-1.84-.62-2.96.35-3.6.97-.62.97-2.33.9-2.9m-12.82 19.38s.57-1.3 3.94-1.93c3.36-.63 4.38-1.89 5.01-2.97m-10.37 8.04s.68-3.2 4.44-4.1c3.77-.92 7.02-.75 8.5-4.62m-12.83 12.88s-.4-3.65 2.45-5.81c2.85-2.17 4.93-2.1 7.87-3.08s4.39-4.5 4.39-4.5m-82.78 43.34s2.23-.23 3.14-2.57m-1.37 3.14s2-.51 2.56-2.68m-1.25 3.2s2.05-.7 2.5-2.69m-.62 2.8s1.48-.4 1.94-2.28m-.34 2.33s1.6-.34 1.82-2.05m-.17 2.28s1.31-.63 1.6-2m-.06 1.94s1.2-.4 1.31-1.65m.06 1.83s1.25-.46 1.37-1.37m.22 1.6s.97-.3 1.09-1.2m.05 1.42s.92 0 .92-1.02m.17 1.25s.85.06.85-.8m7.45 8.76s1.31 1.37 1.37 3.2m-2.05-2.29s1.54 1.32 1.54 3.48m-2.4-2.5s1.71.96 1.71 3.41m-2.79-2.85s1.94 1.66 2 3.94m-2.97-3.02s2.11 1.65 2.11 3.7m-3.08-2.85s1.77 1.14 2.28 3.6m-3.25-3.14s1.71 1.25 2 3.76m-3.02-3.3s1.65 1.3 1.88 3.64m-2.97-3.42s1.71 1.71 1.83 4m-2.57-3.89s1.54 1.72 1.37 4.17m-2.4-4s1.49 1.72 1.37 4.22m-11.68-7.63s-4.56-1.37-6.79 3.07c0 0 1.2-.62 2.97-.4 0 0-4.05 1.09-3.7 5.25 0 0 .5-1.88 2.84-1.77 0 0-2.33.97-1.65 4.85 0 0 .8-2.23 2.74-2.4 0 0-2.46 1.09-1.03 3.48 0 0 0-1.77 1.88-2.05 0 0-1.31.68-.63 2.96 0 0 .46-.97 1.2-1.3 0 0-.85 1.13.51 2.22 0 0-.34-1.09.29-1.66m-6.82 2.36s.66-.99.55-2.24m-.46 6.02s2.62-.6 2.68-3.34m8.95 4.04s2.9 0 3.48-1.76m.46 2.22s1.67 1.77 3.64-.51m-2.73.05s.97.74 1.76-.11m-7.18 1.25s2.62.29 4-1.54m-4.51 2.8s2.5-.12 4.1-1.43m-4.39 2.45s2.57.06 3.77-1.25m-3.65 2.74s2 .17 3.08-1.43m1.42 1.03s1.26.74 2.11-.29m-3.2.86s2.23 1.42 4.45-.46m-9.52 2.17s2.06.11 3.08-1.03m.69 1.65s.9.57.9 1.66m-.33-2.85s2.22 1.82.57 4.22m-4-2.11s2.48.65 1.26 3.25m-1.31-2c.06.11 1.08.34.74 1.77m-8.32-1.2s1.88 1.37 3.65 1.43c1.76.05 2.16-.4 2.16-.4m-6.38.34s1.79 1.01 3.53 1.14c1.75.13 2.23-.4 2.23-.4m-6.56.23s1.77 1.31 3.48 1.25c1.7-.05 2.1-.51 2.1-.51m-6.55.34s1.6 1.08 3.42 1.08 2.28-.45 2.28-.45m-6.56.4s2.11 1.02 3.37 1.08a5 5 0 002.22-.46m-6.55.35s2 1.08 3.42 1.08a4 4 0 002.05-.4m-6.39.29s2.06 1.2 3.48 1.14c1.43-.06 2-.46 2-.46m-11.4 5.3s1.2 1.09 3.53.86 4.05-2.28 4.05-2.28m-5.3.97s2.28.85 3.53-.97m-8.2 1.08s1.07-.86.96-2m-1.54.63s-.63.63-1.37.69-.68-.52-.68-.52m-5.38.72s.15.84 1.65 1.74m-3.97-7.2s-.14.6 1.33 1.65m1.55.5s.43-.37 1.23-.54.28-.86.68-1.48c.4-.63 2.5.17 4.28-1.37m-4.05 7.98s1.94-.17.74-2.57m-3.36-2.85s2.16-.4 1.42-2.73m-1.77 1.82s.92-.23.57-1.54m3.08-.51s.74.91 1.94.17m-7.52-1.44c.11.01.57-1.24 2.56-1.07s2.05.17 2.68-.74 1.6-.4 1.88.23c.29.62.69.74 1.14.8m.86-.97s1.54-.19 2.28-.12m-9.2-1.99c.02 0-.84 1.08-.5 2.79m62.56-31.9s2.85-2.17 2.28-7.13m-3.07 9.86s3.36-1.6 3.7-6.44m-3.7 8.66s2.96-2.22 3.76-5.87m-4.05 8.44s2.74-2.4 3.7-5.7m-3.19 8.2s.8-2.73 2.63-4.72m-2 6.9s.51-3.43 1.77-5.2m-.63 7.13s-.46-2.28.63-4.84m.74 5.93s-.68-1.49-.34-4.1m1.37 3.98s-.69-.63-.46-2.05m11.47-.33s1.85-1.13 1.33-4.12m-1.41 3.1s.76-.88.72-1.68m2.9.72s1.01-.28 1.17-1.33m-1.2 2.46s2.17-.73 2.01-3.1m1.41 4.03s.85-.37.6-1.74m-.11 2.62s1.73-.72.76-3.22m.77 4.72s.72-.2.48-1.05m.57 2.62s1.06-.38 1.3-1.83m-1.9 1.1s1.12-.6 1-2.5m-3.06 1.3s.9-.5 1.6-1.34m-7.29-2.13s.43-.83.5-1.39m2.89 2.31s.5-.53.83-1.3m2.47 8.6s.24-2.22-1.05-2.1m1.7 3.03s.97-2.34-.6-2.87m1.65 3.31s.84-2.26-.49-2.94m1.5 3.46s.88-2.17-.73-3.02m1.45 3.91s1.33-1.57-.2-2.98m-.16 10.24s2.9-2.3 3.22-5.4m-1.65 5.68s2.1-2.1 2.38-4.64m-1.37 5.16s1.69-1.45 2.1-4.15m-1.14 4.56s1.66-1.25 1.7-3.51m-.45 3.79s1.25-1.05 1.25-2.58m-.12 3.1s.89-.88.85-2.1m1.44 7.76s.87-.73 1.12-1.8m-3.74 8.07s1.93-.57 1.76-2.68m-1.6 3.82s3.54-.97 2.86-4.9m-3.08 6.27s2.45-.34 3.53-2.85a6.8 6.8 0 000-5.82m-12.92 14.04s.9.6 1.98.6m-7.16-2.14s.59.52 2.02.8m2.02-.16s-1.1-1.74.04-2.99 1.37-.51 1.77-1.88 1.14-.8 2.05-1.14 1.08-.86 1.08-.86m-2.56 7.64s1.54.34 2.28-.62c.74-.97.28-2.4.28-2.4m-1.94 2s.92-.06.92-1.43m-9.6-1.25s-.15-1.66 1.61-2.17c1.77-.51 2.23 0 2.68-1.65.46-1.66.97-1.26 2.28-1.37 1.32-.12 1.6-.34 1.89-1.03m-8.8 2.4c-.04.23.13 1.6 1.5 1.88m-6.4-20.16s.5 3.19-1.72 4.33m2.97-4.79s.4 3.36-1.83 4.45m2.97-4.8s.57 2.92-1.71 4.45m2.9-4.78s.46 3.13-1.7 4.33m2.79-4.33c0 .11.46 2.45-1.43 3.59m2.51-1.88s-.45 1.25-1.37 1.76m2.34-1.08s-.23.86-1.08 1.14m-26.33 2.54s2.38-1.29 1.19-3.9m-3.08 3.3s1.7-.23 1.37-2.57m-2.4 3.42c2.08-.01 4.2-1.59 3.14-4.21m1.37 5.75s1.48-.62.97-2.5m-1.77 3.64s1.94-.34 2.45-1.88.34-2.73.34-2.73m-.44 4.4s2.32-2.18 1.24-5.15m.85 4s1.54-.4 1.49-1.77m-2.11 2.45s1.88.11 2.8-.97c.9-1.08.5-2.57.5-2.57m-.06 3.58s1.89-1.47 1.2-3.46m.97 2.68s1.09.06.92-1.54m-1.14 2.4s1.53.1 2.05-1.15.28-2 .28-2m.98 2.22c0 .01.4-1.41-.24-2.5m1.43.4s-1.03 2.62 1.42 3.54m-.1-3.14s-.92.91-.18 2.05m-15.05-16.47s-1.83 1.54-1.71 4.5c.11 2.97 2 4.56 2 4.56s-.58-2.22 1.13-3.53c0 0-1.14 3.65 2.23 5.47 0 0-.86-2 .57-3.6 0 0-.74 1.72 1.82 3.89 0 0-.57-1.94.91-3.42 0 0-.34 2.16 1.89 3.42 0 0-.75-1.66-.12-3.03 0 0 .29 2.74 2.9 3.2 0 0-1.3-.97-.9-2.57 0 0 .45 2.22 2.62 2.57 0 0-1.03-.57-1.03-1.71m-52.93-58.52a7 7 0 003.1-.44 5.8 5.8 0 002.78-2.63m-2.78 2.63s-1.14 3.06.6 5.03c1.75 1.97 4.23 1.77 4.9.36.67-1.4-.76-3.22-1.48-1.83m.79-.05c-.14.63-.86.6-1.17.1s-.13-3.18 2.78-3.94c2.92-.76 5.84-.5 5.74-5.14m-19.13-5.37c1.06-.91 2.15-.82 2.85-.08s.13 1.99-.95 1.95c-1.07-.03-1.08-.98-.61-1.35s1.3-.05.68.63m-.58 1.11c1.38.8 2.6-.16 3.14-1.63.55-1.48 2.14-3.5 6.3-2.8m-5.36 7.71c.69-1.14 1.42-4.18 6.19-3.27m-9.74-6.4c.15.47-.13 1.85-1.07 1.59-.94-.27-.5-1.35.28-1m-1.4.47c.08 1.96 2.08 1.87 3.52 1.31 1.43-.55 2.43-2.87 5.04-2.86m2.77-.8c1.17 3.54 4.53 3.8 7.1 2.74m-10.54 30.24c.07-2.34.45-2.46 1.2-2.9m37.85-24.96c-2.99.02-5.88-.86-6.01-4.5m-20.63 17.11c-1.73.91-2.98.32-4.2 1.66s-.41 2.17.34 2.42 1.48-.42 1.19-.88-.74.04-.88.39c-.52-.98 1.14-1.75 1.51-.28.4 1.56-.32 2.69-2.75 3.13-2.43.45-3.75-1.62-3.75-1.62m29.16-13.36c-1.5.37-1.35 2.52-.08 2.46s.84-1.45 0-1.22m-.75 1.68c-1.8.04-2.98-.28-3.48-1.95m1.9 4.17s-5.32-.46-5.05-5.04m2.12-.1s-.05 2.57 2.03 3.32c2.09.74 2.98.2 3.28 0m-6.25-4.76s-1.2 3.86 2.23 5.2 5.01.2 5.95-1.78m-5.1-7.99c-.11.54-.54 3.88 1.98 5.36s4.23.99 4.23.99m1.82-2.13s-1.58 2.43-4.76.8c-3.18-1.65-2.33-4.92-1.89-5.76m.7.84c-.21.42-.55 2.26 1.24 3.62 1.81 1.4 2.97.7 2.97.7m-3.42-3.33s.4 2.33 2.48 2.43m-.56-8.31c-.2.59-1.43 5.28 3.03 5.8 4.5.53 5.1-1.34 5.2-2.53m-7.39-1.69s-.82 3.11 2.63 3.53c3.46.41 3.57-1.15 3.57-1.15m-13.9-3.75c-.49-.54-1.03.46-.14.78.88.32 1.68-.93.7-1.82-.99-.88-3.35-.15-2.96 2.28.4 2.44 2.4 2.5 3.65 2.5s3.5-.52 4.52-2.42 1.44-3.62 0-6.45m-7.4 6.06c.21.62 1.01 2.84 4.12 1.73 3.04-1.08 4.22-4.71 2.38-7.59m-5.2 6.4s.89 1.3 2.77.25a4.3 4.3 0 002.34-4.17m-3.78 3.72s1.8-.24 2.49-2.13m4.11-3.87s-.2 4.66 1.74 6.1c1.93 1.44 4.44 1.38 6.21.92m-6.86-4.94s.3 3.29 2.48 4.07c2.2.79 4.2.72 5.96-1.19m-7.44-2.68s.1 2.68 2.08 3.33 3.52-.05 3.52-.05m-4.51-1.99s.9 1.84 3.52 1.44m-6.07-9.56s.44 5.47 7.04 5.17m-6.34-7s-.2 5.06 4.06 5.75 8.04-1.88 6.5-6.74m-9.62 1.53s.05 3.97 3.52 4.37 4.76-1.34 5.26-2.43m-7.69-1.74s.1 4.86 5.75 2.68m-4.86-2.68s.25 2.48 2.43 2.23m-5.16-7.64s2.48 2.26 6.43 1.48m-5.88-1.97s2.63 2.38 6.05.9c3.43-1.5 2.63-4.27 2.63-4.27m-8.04 3.07s2.19 1.3 4.22.65c2.04-.65 2.38-2.19 2.38-2.19m-5.8 1.34s2.33.7 4.02-.6m-6.75-3.17s2.26 1.32 4.27.5 2.4-3.9 2.4-3.9m-3.7 4.7s3.33.14 3.83-2.84M528 91.78s3.47.31 4.46-1.63m-9.47-7.7s.9 1.3 2.53.5c1.64-.8 2.79-.02 4.52-.09m.59 1.62c-.9 1.1-1.1 1.05-3.57 1-2.48-.05-2.3 2.6-2.3 2.6s1.04-.03 1.81 1.55m-1.71-2.35s1.4.28 2.31 1.93m-2.1-2.56s1.89.45 2.9 2.14M525.5 86s2.24.39 3.3 2.6m-2.46-3.05s2.03.52 3.02 2.42m-1.62-2.5s1.23.4 2.1 1.9m-.73-1.9s.53.11.95.74m-.14-1.01s.28.14.45.42m-30.14 32.86c-2.4 3.26-6.9 2.42-7.68-.1-.79-2.51 1.2-3.16 1.84-3.18s1.2.46 1.3 1.36c.1.84-1.13.89-1.03 0m-13.75-1.3s.39 1.33 2.35 1.3c1.97-.04 3.05-1.2 4.28-2.18s2.42-1.08 3.86-.63m-6.35 3.83s.98-2.43 3.72-2.7m-3.5 6.03c.45-.04 1.78.17 3.11-1.65 1.34-1.83 3.48-1.47 4.1-1.02m-9.64 2.39s.8 1.19 2.56 1.15a4.7 4.7 0 002.95-1.19m-6.74-1.12s-.03 2.46 2.28 2.88c2.32.42 3.72-.6 3.72-.6m1.8 6.25s-.96 2.79.07 4.58c1.02 1.8 4.04 2.38 4.27-.36m-1.36-6.88s-2.14 1.42-2.46 4.04.32 4.15 2.3 3.83m-1.61-2.9c.4-2.98 1.78-4.01 4.19-5.2m-1.78 6.04s-.44-1.9 1.98-2.62m-1.37 2.7s.28-2.7 4.27-3.18m-2.98 5.36s-.8-1.3-.24-2.46a4 4 0 011.73-1.74m-2.34 4.28s.8 1.65 3.1 1.13m-3.58-.57s1.5 2.46 4.31.93m-13.53-9.14s-.9.29-.98-.33c-.08-.63.8-.81.89-.49m-.85 1.7s1.13 1.2 3.43.76 2.7-2.98 3.79-4.11 2.13-1.09 2.74-.97m-5.8 5.65c.07-.08 1.36-.4 2.37-1.86 1-1.45 1.57-2.01 2.22-2.3m-7.1 2.95s1.82.44 3.07-1.58c1.25-2.01 2.01-3.26 3.42-3.42m-4.6 3.83s.98-.97 1.54-2.42m4.49-5.64s.48 1.93 2.42 2.13c1.93.2 3.46-.76 4.23-1.57m-5.56-.28s.52 1.09 1.9 1.13c1.36.04 2.7-1.13 2.7-1.13m.44 3.1s2.53.32 1.97-2.38m-2.3 3.19s1.56.07 2.42-.6c.87-.69.65-2.7.65-2.7m-6.41 5.35s.44-.8 1.05-.04c.6.77-.73 1.78-1.62.49-.88-1.3.33-2.22 1.45-2.1 1.13.12 2.06.89 4.12.48 2.05-.4 2.45-2.21 2.13-3.14m-10.65-10.32s1.18-.3 1.81 2.1c.62 2.38 3.06 3.14 5.32 2.37m-4.55-2.86s.56 2.54 3.26 1.98m1.68-2.09s.46 1.24 1.59 1.85c1.13.6 2.58.28 3.02 0m-3.02 0c-2.42-.97-3.15.68-3.15.68s1.09-.1 1.81 1.3c.73 1.42.7 3.26 3.47 3.94s4.96-1.37 5-3.26m-8.1-1.7c.53.61 1.06 1.4 1.45 2.58.48 1.43 2.42 2.06 4 1.25 1.56-.8 2.05-2.54 2.05-2.54m-5.4.77c.7.79 1.52 1.67 3.5.73 1.56-.75 1.21-3.55 1.21-3.55m-3.5 2.66s1.49.52 2.21-.53c.73-1.04.2-1.97.2-1.97m-.68.52s.32-.68 1.93-.76c1.62-.08 2.9-.16 3.95-.85s1.3-2.26.85-3.5m-3.47 3.7s1.5.04 2.34-1.13c.85-1.17.4-2.46.4-2.46m-2.58 2.87s2.38-.29 1.66-3.23m-1.9 2.46s1.3-.4.97-1.7m-9.75-.27s-.05 1.45 1.12 2.62c1.17 1.16 2.83.92 2.83.92m-2.99-2.46s.45 2.1 2.66 1.78m-1.69-1.53s.4.96 1.61.92m8.19 3.07s-.33 3.22 2.45 4.07m-2.54-5.52s-1.37 1.39-.84 3.18 2.18 3.3 3.95 3.1m-4.15-6.45s-1.19 1.36-.73 3.27a5.3 5.3 0 003.59 3.87c1.65.44 2.9-.62 3.47-1.61.56-1-.35-2.05-1.21-2.02-.87.03-.97 1.25-.29 1.41.69.16.77-.24.53-.56m-6.98 2.74s1.7-.32 1.25-2.86m-2.01 4.03s2.46.12 2.74-2.74m-3.47 3.58s1.86.49 3.1-.72c1.23-1.19.9-2.38.9-2.38m-6.42 5.32s-.88.24-.6-.52c.28-.77 1.61-.37 1.2.68-.4 1.05-2 .85-2.2-.24s.92-2.14 2.7-1.45c1.77.68 2.65.56 4.27.08a2.74 2.74 0 001.89-3.22m-.4-12.88c-.4 2.33-3.17 1.68-3.17 1.68s1.34-.77.94-2.8m.29 2.85s.94-.5.65-2.36m.57 1.94s.4-.6.17-1.46m-5.98.76s1.45.12 1.49-2.22m-.69 2.42s1.21.12 1.58-1.94m4.91 2.99s1.58-.37 2.02-2.62c0 0 .6 1.17.56 2.21 0 0 1.21-1.29.6-3.22 0 0 1.06.64 1.06 2.46 0 0 1.25-1.21.64-3.63 0 0 1.5 1.09 1.45 2.86 0 0 1.53-1.61.45-4.63 0 0 1.65.92 1.77 2.98 0 0 1.57-1.77.56-4.6 0 0 1.13.4 2.42 2.79.06-1.72-.06-5.45-1.85-6.45 0 0 1.49 0 2.38 1 0 0-1.25-5.64-4.92-5.68m-6.1 10.74s1.35-.9.74-2.65c-.62-1.76-1.58-1.33-2.1-2.14-.52-.8.28-.8-.04-2.46-.32-1.65-1.25-1.69-1.25-1.69m1.7.73s.6.84.28 1.77c-.33.93-.08 1.33 1.08 2.01 1.17.69 1.42 1.66 1.21 3.03m-11.12-8.27s1.09 1.82 3.9 1.25m-2.65-1.45s1.4 1.57 4.88.73m-3.63-.85s1.97.8 3.83 0m-2.7-.6s1.29.4 2.54-.16m-1.94-.57s1.53 0 2.06-.44m-1.9-.4s1.09.16 1.74-.37m-1.62-.64s.89 0 1.33-.4m-1.57-.45s.57.04 1.09-.28m-7.58 2.54s-1.2-.97-.68-2.78m-.25-1.4s2.18-2.76 6.9-3m-6.37-.56s1.7.04 1.85 1.77m.6-.93s.97-.64 2.87-.72m-4.6 2.34s-1.05-.53-.32-1.05.97.68.97.68m5.91-3.56s-.61 2.02 1.63 2.48m5.77 1.09a5 5 0 001.04.28m-8.95 2.25s.6-.08.85-.28m6.73-7.35s.56 2.11 4.03 2.76m-4.31 7.25s.44.8 1.4.89m-.48-1.45s.45 1.25 2.74 1.05m-2.1-1.33s1.38.92 3.23.32m-2.33-.85s1.73.4 2.98-.24m-2.14-.52c.12 0 1.65.16 2.54-.6m-1.93-.37s1.29.36 2.21-1.05m-1.53.04s.8 0 1-.8m-5.4 7.99s1.22-1.17 3.07-.85m-2.22 1.1s1.86-.86 3.19.35m-2.66.17s1.77-.29 2.62 1.08m-2.42-.44s1.45 0 2.22 1.65m-1.98-.84s1.41.52 1.57 2.33m-1.57-1.49s1.09.73 1.05 2.58m-1.21-1.6s.73.68.6 2.33m-.84-1.45s.68.88.28 2.05m-.44-1s.4.8-.12 1.4m-9.36 30.56s.8 2.36 3.22 3.02 5.37.17 5.7-1.96-.93-2.02-1.93-1.81-1.2.97-.48 1.5c.72.52 1.49-.45.48-.77m-3.9-3.91s.78 1.97 2.81 2.62c2.04.64 3.82.18 4.8-.22m-9.43 1.63s.48 1.4 2.21 1.97c1.74.57 2.99.2 2.99.2m-4.07-2.13s.84 1.65 3.5 1.4m-4.2-9.71c1.3.86 1.94 3.45 1.03 5.6s-2.94 2.2-3.96 3.39c-1.01 1.2-.7 2.02.06 2.2.75.2 1.25-1.1.1-.93.25-.52.83-.53 1.15-.16.3.36.7 1.22-.1 2.07-.82.84-3.59 1.38-4.97.42a3.76 3.76 0 01-.59-5.52s1.53-.86 2.25-1.95a5.2 5.2 0 00.65-3.22m.96.32s.17 2.62-1.53 4.03-2.74 2.7-2.1 4.48c.65 1.77 2.83 1.65 3.84 1.16m-1.54-1.24s-.64-.33-.48-1.25c.16-.93.89-1.62.89-1.62m-.29 3.67s-2.17-.16-1.45-2.1c.73-1.93 1.9-2.41 2.9-3.62 1.01-1.21.7-2.38.7-2.38m4.59-2.14s-.8 2.86 1.37 4.52a4.8 4.8 0 006.45-.65m-6.86-2.98s-.68 2.74 2.1 3.55 3.95-.73 3.95-.73m-5.12-2.22s.2 2.83 3.5 2.42m1.02-.97c-.37.17-.96.18-1.1-.36-.13-.53.15-.99.81-.95m3.87-44.8s1.19-.07 1.79-1.08m3.01 2.65s.53-.2.83-.72m-6.07-2.18s.85-.57.89-1.37-.73-1.25-.73-1.25m-.97-.8s1.5-.29 2.22.96.08 2.66-.89 2.94m2.62 1.21s.93-.4 1.01-1.4m-.48 2s.85-.32 1.17-1.45-.12-1.6-.12-1.6m-.37 3.54s1.21-.6 1.17-2.42-.92-2.5-.92-2.5m2.62 5.56s.26-.17.23-.57m.51.72s.37-.6.03-1.34m.14-.71s.94.74.69 2.08m-17 52.98s2.34-.12 3.59-1.6 1.08-2.96 1.08-2.96m-2.56 5.24s2.62-.91 3.08-3.7M441.8 147.1s.19.75 1.55 1.68m4.49 5.19s.69.53 2.28.56m-7.34-14.43s-.11-1.04.3-1.85m.1 4.15s1.19-.4 2.27 0 1.25-.68 2.22-.85 2.11 1.48 4.4 1.37m-5.97 6.1s.43-.68 1.23-1.08.28-1.37.8-2c.51-.62 1.2-.45 2.22-.34s1.77-.4 1.77-.4m.43 6.09s-.6-.62.02-1.36c.63-.74 2.17-.74 2.17-.74m-5.64 2.91s1.3.06.9-1.03m-1.59 1.54s1.26.69 2.23-.11 0-1.88 0-1.88m-2.06 2.8s1.66.68 2.74-.3c1.08-.96.06-2.67.06-2.67m-8.5-4.62s.8 2.62 3.6 1.94m-2.34-1.94s1.02 1.65 2.85.97m-1.37-.97s.68.51 1.42.06m-2.56-3.65s-.97-1.2 0-2.63m11.23 11.98s2.17.74 3.82-.4 2-3.25 2-3.25m-4.68 2.73s3.14.35 3.36-2.33m-3.02 1.37s1.66.1 2-1.2m15 1.14s1.19-.74 1.25-2.05m-1.83 3.36s2.74-1.48 2.9-3.93m3.37.9s1.2-.45 1.2-1.82m-1.83 2.85s2.57-.4 3.03-3.13m1.26-.07s.05-2.04 1.99-2.15m-.23 3.19s.8-.4.97-1.37m-1.14 2.34s2.05-.69 1.88-2.74m-2.57 3.88s3.6-1.09 3.65-4.5m-19.32-7.93s-.52 1.14-.18 1.94m1.03-1.37s-.28 1.03.11 2.17m.8-1.83s-.4 1.43.29 2.45m.74-2s.06 1.49.91 1.89m.51-2.11s-.11 1.31 1.09 1.88m-.06-2.1s.51 1.13 1.43 1.3m-.29-2.22s.8 1.08 1.82.85m-1.2-1.65s1.2.46 2.06.29m-1.43-1.43a3 3 0 001.66.11M489 148.5s3.02.79 5.65-1.04c2.62-1.82 2.62-4.73.57-6.67m-5.36 6.96s2.5.17 4.45-1.37c1.93-1.54 1.14-3.6.5-4.45m-3.87 4.85s4.4-.57 3.37-3.93m-2.8 2.79c.12-.06 2.05-.34 1.88-2.22m1.03 5.01s3.3-.91 3.82-3.08m-2.68 3.48s3.02-.97 3.82-2.96m-2.62 3.36s2.73-.63 3.47-2.74m-5.81-10.03s.17 3.53-3.88 4.73c0 0 1.14-2.34-.4-3.93 0 0 .06 3.87-3.87 4.67 0 0 1.7-1.42.28-3.87 0 0-.45 3.07-3.08 3.47 0 0 .97-1.14.52-3.13 0 0-.63 2.22-3.65 2.56 0 0 1.37-.74 1.3-2.16 0 0-1 1.9-3.74 2.02 0 0 1.47-.6 1.75-1.68" style="font-variation-settings:normal" transform="translate(-252.6 -15.56)scale(.70021)"/></g></svg>