<svg xmlns="http://www.w3.org/2000/svg" viewBox="0 0 1523 1032"><g fill="none" stroke-width="2"><path stroke="#013e69" d="M741.3 0q4.61 9.29 9.88 16.56c7.55 10.43 14.62 19.68 19.49 30.15 4.89 10.52 9.38 21.94 11.46 33.44q1.98 10.98 2.43 16.85 1.37 17.89-1.29 38.35-.64 4.98-2.05 10.17c-1.45 5.4-2.36 11.59-4.73 16.79q-.79 1.75-2.74 6.57a.41.41 0 01-.78-.1L757.16 47.89a.3.3 0 00-.54-.13q-.19.27-.24.7-9.93 86.16-13.99 125.53-.54 5.2-2.74 27.11c-.46 4.55.2 7.33 1.85 11.18a1.8 1.8 0 01-.08 1.64q-5.78 10.47-7.86 24.06a1.8 1.8 0 01-1.2 1.4c-9.01 2.86-15.9 8.09-23.65 14.59q-4.12 3.45-8.27 9.48-11.49 16.73-11.93 36.11-.1 4.27.72 9.45 1.03 6.65 1.83 9.25 2.04 6.7 6.73 14.82 4.27 7.39 9.4 12.12 7.46 6.86 11.83 9.84 5.35 3.64 15 7.5c10.97 4.39 23.98 5.2 34.94 3.64q1.03-.14 2.22-.52a1.43 1.42-20.5 011.74.79q1.63 3.78 4.82 12.45 1.78 4.82 3.22 12.94 2.14 12.09 2.31 14.17 2.08 25.95-8.74 50.06-2.8 6.24-6.32 13a.24.24 0 01-.46-.11c0-2.39.83-4.95.93-7.62q.18-4.49.87-10.34 3.16-26.45 7.14-54.01.33-2.31-.47-4.94-3.41-11.16-14.71-13.8-4.64-1.08-7.97-.24c-5.97 1.52-11.94 5.73-13.99 11.71q-1.11 3.24-.64 7.99c3.33 33.56 7.27 66.22 11.03 99.18a1.6 1.6 58.5 01-.25 1.05q-4.21 6.32-8.19 13.83-13.37 25.26-10.56 53.6c1.94 19.59 9.7 39.03 22.94 54.57 3.83 4.49 7.49 8.39 10.72 13.48a118 118 0 0117.43 46.26q1.07 7.25 1.53 10.69a1.21 1.19 64.7 01-.35 1l-25.19 24.76a.9.9 0 01-1.26 0L598.9 560.95a.56.55 46.1 00-.77-.02l-8.44 7.73a.4.4 0 01-.51 0l-14.28-13.09a.74.74 0 00-1.04.04q-10.8 11.49-26.59 11.79-15.24.28-25.1-8.84c-9.71-8.99-13.23-21.57-8.56-34.42q1.74-4.79 5.59-8.91c6.86-7.34 15.66-11.99 25.57-12.2 7.88-.17 15.92 1.44 22.58 6.35q5.36 3.95 6.56 5.5c3.36 4.35 7.44 11.76 7.63 17.75q.08 2.41.13 5.75a.75.74-81 00.5.69l13.24 4.65a1.2 1.2 0 001.6-1.01c2.01-17.19-3.71-32.46-16.85-43.32q-4.81-3.97-6.3-4.88-3.65-2.22-10.57-4.48-25.65-8.35-47.76 6.58c-12.3 8.3-20.74 23.49-20.4 38.3q.51 22.48 17.77 36.44c12.77 10.33 25.25 12.88 41 11.35q9.13-.89 18.25-5.75a1.37 1.36-35.1 011.65.28l3.13 3.42a.57.57 0 01-.02.8l-9.76 9.6a.67.65 44.4 00.02.96l163.25 149.63a1 1 0 01.02 1.48l-137.55 135.2a.16.08-63.4 01-.04.03q-2.02 1.68-8.27 5.22c-5.64 3.19-10.95 5.68-16.83 5.32q-10.29-.62-16.23-10.29-3.66-5.96-4.34-11.56-.66-5.49.81-12.38 1.8-8.47 8.83-14.22a.64.63-43.1 01.83.02l14.17 12.99a.66.66 0 001.07-.27q2.7-7.57 8.35-15.69a86 86 0 0137.61-30.65q7.88-3.3 12.98-5.39a.53.53 0 00.07-.95c-4.64-2.77-7.15-2.72-13.37-2.76q-10.86-.07-19.16.89c-4.81.56-9.39 2.13-13.64 2.82q-3.79.61-9.94 2.97-1.97.76-9.78 3.56-2.69.97-10.72 5.45c-5.92 3.31-10.43 7.21-16.68 12.11a.3.29 47.3 00-.01.45l7.58 6.95a.7.7 0 01-.02 1.04q-9.95 8.61-14.75 20.92-1.81 4.64-3.47 10.48a.3.3 0 01-.57.03q-10.45-25.51-1.2-51.58a.79.78-58.9 011.27-.32l7.77 7.12a.57.57 0 00.93-.23q1.06-2.92 2.62-5.65 9.16-16.07 23.92-27.06c9.79-7.29 19.15-11.32 30.44-15.8q1.7-.68 3.86-1.04a.39.39 0 00.13-.72l-4.54-2.62a3.86 3.82 59.6 00-1.91-.51q-3.16 0-14.68.4c-11.51.4-22.22 3.28-32.61 6.45q-5.05 1.54-9.82 3.91-7.62 3.8-9.41 4.91-9.12 5.69-19.45 14.92a.57.57 0 00.09.92l8.54 4.93a1.02 1.01 30.7 01.36 1.4q-2.64 4.37-4.12 9.2-9.33 30.37 2.86 59.56 2.34 5.61 4.32 8.38c4 5.57 8.61 11.99 14.42 16.47 13.56 10.46 28.48 16.04 45.76 11.36a.54.54 0 01.67.6c-1.33 9.21-1.53 19.04 2.24 27.93 6.07 14.33 17.13 25.4 30.66 32.76q17.82 9.68 35.27 10.97 11.07.81 14.49.52 16.16-1.38 32.12-8.04a.6.6 0 01.7.2l6.33 9.13a.45.44 51.7 00.67.08c8.91-8.26 17.51-17.95 22.37-29q8.75-19.92 8.95-41.73c.05-5.31-.43-12.74-3.03-17.2a.62.62 0 00-1.09.05c-3.35 7.04-5.9 12.54-9.97 18.16-4.4 6.07-7.28 11-11.62 15.88Q693.22 944.1 677 954.06a.54.54 0 00-.11.82l5.97 6.53a.6.6 0 01-.23.95q-12.24 4.53-24.88 4.63c-11.95.09-23.1-.63-33.56-5.31a.41.41 0 01.08-.77c13.35-2.74 26.91-8.79 36.83-18.24a.52.51-41.1 01.76.05l7.2 8.9a.59.58 48.1 00.87.05q4.39-4.32 6.41-6.53 9.34-10.22 13.37-20.92c2.11-5.6 3.9-9.65 5.16-15.18q3.56-15.61 2.61-32.05-.33-5.88-2.27-11.6a.66.66 0 00-1.21-.09c-4.6 9.05-8.84 18.5-14.99 26.23q-14.77 18.59-36.65 27.13a.52.51 58.2 00-.19.83L652.71 931a1 1 0 01-.01 1.38c-6.99 7.46-17.12 10.81-26.84 11.73q-7.42.69-14.46-2.82-9.54-4.77-8.23-15.52.92-7.54 4.02-14.46c2.61-5.8 7.1-13.31 11.54-17.58q8.51-8.18 46.46-42.8c18.94-17.28 37.11-34.18 57.31-52.68q16.87-15.45 20.39-18.87.26-.26.52-.29a.38.38 0 01.39.55c-17.38 35.09-18.57 76.18-.44 111.52q3.38 6.58 11.06 17.72a102 102 0 0110.61 19.57q13.09 31.87 14 66.3.51 19.6-3.62 37.25" vector-effect="non-scaling-stroke"/><path stroke="#013e69" d="M656.02 63.53a.31.31 0 00-.57.24q19.13 68.17 32.88 115.73l2.91 10.59q1.83 6.67 8.93 11.83c8.17 5.93 21.3 2.11 25.99-6.78q3.68-6.98 1.92-14.18-.6-2.45-7.11-12.77-13.78-21.85-14.99-23.65c-2.66-3.95-4.64-8.57-7.45-12.49q-2.72-3.8-5.93-9.15-9.65-16.05-26.65-43.08-5.09-8.09-9.93-16.29m-88.86 53.83q.11.33.47.76 49.7 60.17 92.49 110.55 1.88 2.21 7.36 8.86 5.89 7.14 7.41 8.43 10.68 9.01 22.62 1.89 5.93-3.54 8.79-11.89a4.02 3.77-35.6 00.21-1.06q.4-6.4-2.86-11.86-1.78-2.99-8.91-8.21-12.39-9.07-19.17-14.69c-7.9-6.55-16.3-12.49-26.07-20.11q-11.45-8.94-19.48-15.03-26.09-19.78-62.44-47.93a.27.27 0 00-.42.29m-64.42 80.81a.38.38 0 00-.28.71c8.44 4.36 12.21 6.04 19.48 10.53q5.64 3.49 16.96 9.32c3.55 1.83 7.76 4.7 10.62 6.03q5.76 2.67 12.57 6.52c8.09 4.57 21.3 11.46 27.8 15.04q10.17 5.59 15.36 8.21 10.25 5.18 22.21 12.25 4.09 2.42 6.3 2.51 5.96.25 8.14.13a6.81 6.68-53.7 001.36-.22c5.72-1.6 12.36-6.88 13.09-13.04 1.09-9.17-.81-16.88-10.03-20.77q-6.95-2.93-14.12-4.11c-3.73-.61-8.82-2.42-11.38-3.1q-13.97-3.68-83.56-21.4c-10.97-2.79-23.07-5.45-34.52-8.61m-22.37 98.35q-.01.39.64.46 16.49 1.81 33.01 3.84 26.18 3.23 127.53 14.33 7.87.86 13.45 1.42c6.83.69 11.25-.01 16.01-4.08 4.19-3.58 5.86-8.07 5.93-13.46s-1.48-9.91-5.59-13.61c-4.65-4.18-9.05-5-15.89-4.48q-5.6.42-13.49 1.07-101.6 8.51-127.85 11.07-16.57 1.61-33.1 2.99-.65.06-.65.45m24.47 104.03q.3.23.62.15c5.04-1.26 8.52-1.77 12.37-3.02q6.75-2.2 14.98-4.04c10.72-2.4 17.98-5.18 27.99-7.11q4.38-.84 12.95-3.29 28.06-7.99 56.98-15.27 1.48-.37 9.45-2.93 6.22-2 8.6-4.06c5.78-5.01 8.05-13.18 5.54-20.28-2.72-7.73-11.71-11.7-19.57-11.73q-3.6-.02-6.45 1.6-29.96 16.97-56.75 31.8-7.18 3.97-9.55 5.42-5.54 3.4-9.68 5.21c-5.26 2.31-9.45 5.9-14.99 8.59-7.28 3.53-13.68 8.19-20.1 11.5q-.98.5-12.36 7.1a.22.22 0 00-.03.36m62.52 79.38q.08.01.32-.03a.1.08-52 00.04-.01c7.08-5.5 14.19-10.57 20.12-15.08q48.13-36.62 91.49-69.24 10.44-7.84 16.18-11.77 8-5.45 9.78-14.42.84-4.24-.72-7.99c-5.13-12.3-18.55-17.25-29.65-9.44a4.82 4.31-84.2 00-.82.75c-5.09 6.06-11.26 12.68-17.45 20.18q-1.7 2.06-8.06 9.45-30.24 35.11-40.36 47.63-3.66 4.53-11.95 14.06-3.57 4.11-23.27 28.57c-1.93 2.39-4.24 4.61-5.87 6.82a.33.33 0 00.22.52m89.23 53.87q21.74-32.16 38.64-58.98c2.68-4.26 6.18-8.61 9-13.49q2.56-4.42 6.48-10.31 5.58-8.39 13.62-20.86 2.92-4.52 3.43-7.27c2.73-14.81-9.8-25.06-23.75-21.63q-10.3 2.52-13.26 12.45a6055 6055 0 00-34.48 119.94.18.18 0 00.32.15" vector-effect="non-scaling-stroke"/><path stroke="#710101" d="M747.76 0q5.67 9.37 18.9 28.1 16.06 22.72 21.96 52.75a147 147 0 012.4 41.22q-1.04 11.88-1.92 16.04l-2.33 10.61c-2.36 10.72-6.63 21.34-11.75 30.81a5.15 5.1-36 00-.55 3.34q1.08 6.28 1.81 14.25.94 10.26-.82 14.13c-2.8 6.16-8.56 10.29-15.55 10.33-5.52.03-9.09-.4-13.06-3.37a.89.88 28.2 00-1.37.41c-2.09 5.83-4.63 11.37-6.21 17.42a.7.7.4 00.83.83q25.9-6.42 49.51 4.26 7.52 3.39 12.47 7.54c5.99 5.02 11.43 9.64 15.51 16.37 3.52 5.81 6.4 10.23 7.76 15.34 1.56 5.89 3.38 12.89 3.35 18.95-.08 15.57-5.87 31.58-16.28 43.11-8.74 9.7-20.03 17.84-33.56 21.21a1.12 1.11-21.4 00-.71 1.62c2.84 5.11 4 8.67 5.88 14.95q5.69 18.91 5.01 38.51-.24 6.82-1.86 14.44-2.47 11.69-3.27 14.23-4.7 15.09-14.55 30.07c-.77 1.18-3.36 4.21-3.58 6.04q-1.79 15.28-4.76 35.74-1.5 10.39-3.64 30.22a.35.35 0 01-.69.01q-2.75-22.93-4.93-37.98-.29-1.98-.16-4.39.03-.61-.57-.56-.25.02-.42.29-21.28 34.33-11.07 73.38a93 93 0 0019.75 37.13c4.04 4.56 6.81 7.56 9.76 12.1 11.2 17.19 17.4 35.97 19.64 56a.45.44-25.5 00.75.26l128.8-126.6a.3.29-43.6 01.42 0l7.43 7.55a.74.74 0 001 .06l14.79-11.95a.62.61 49.1 01.85.07q9.55 10.58 23.77 11.87 12.64 1.15 23.39-5.15c4.79-2.81 8.4-7.34 11.09-11.73q7.24-11.81 2.63-24.5-3.5-9.64-10.45-15.05-12.2-9.48-28.95-7.46c-6 .72-11.84 3.83-16.59 7.06-4.61 3.15-7.54 8.03-10.12 13.04-2.13 4.14-2.59 8.4-2.58 12.78a.9.89 80.1 01-.6.86l-12.85 4.53a1.06 1.06 0 01-1.41-.86c-1.81-13.21 2.76-26.57 11.76-36.19q14.32-15.33 35.93-17.08 5.77-.46 13.53 1.01 13.82 2.61 23.87 11.39 14.83 12.97 16.48 32.41.96 11.27-3.91 21.36c-1.24 2.59-2.58 6.06-4.92 8.92-7 8.55-13.39 13.86-24.18 17.94-6.18 2.33-15.07 2.67-21.35 2.4q-12.66-.55-23.68-6.91a.85.84-52 00-1.01.13l-3.03 2.98a.64.64 0 00-.01.9l10.03 10.21a.6.6 0 01-.02.89L784.21 742.01a.77.76-44.2 00-.02 1.11q22.85 22.32 61.4 59.79 27.1 26.33 70.32 69.32c4.38 4.36 8.18 9.18 13.39 12.54 9.1 5.88 19.45 10.45 29.85 4.43q4.87-2.82 8.25-9.33 7.23-13.92-.08-29.23-2.58-5.39-7.65-8.88a1.04 1.03-48.6 00-1.3.09l-12.77 11.7a.4.4-33.4 01-.64-.13c-3.41-7.41-7.76-15.43-13.21-21.81q-9.89-11.54-23.39-18.69-10.47-5.55-21.73-9.97a.3.3 0 01-.06-.52q4.16-2.93 9.45-3.09 6.65-.19 19.72.13 2.22.05 18.6 3.11c5.12.96 8.77 2.67 14.58 4.64 7.98 2.71 13.62 6.32 21.31 11.18 2.96 1.87 5.92 4.91 8.83 6.72a.8.8 0 01.04 1.35l-8.43 5.84a.64.64 0 00-.06 1c9.88 8.96 16.42 21.89 18.67 34.92a.31.31 0 00.59.07c4.6-10 5.9-22.45 5.45-32.69a65 65 0 00-4.99-21.89.74.74 0 00-1.15-.3l-8.32 6.73a.57.57 0 01-.88-.23q-4.27-10.32-11.74-18.13c-3.12-3.25-8.28-9.21-13.88-13.06q-16.28-11.22-34.8-17.67a.38.38 0 01-.04-.71q4.45-2.07 8.98-2.25 10.81-.41 19.5.27c5.69.45 12.3 2.37 16.92 3.37q6.1 1.31 12.33 3.85 14.45 5.89 26.6 15.29 3.95 3.06 7 6.39a.6.6 0 01-.1.92l-8.66 6a1 .98 56.8 00-.27 1.33c3.41 5.55 4.42 9.81 6.46 17.09 2.88 10.28 2.49 23.5 1.06 32.83q-3.14 20.49-17.11 37.46-3.25 3.95-6.66 6.47c-5.03 3.71-9.68 7.43-15.03 9.4-4.91 1.8-10.76 3.33-16.49 3.41q-8.33.11-14.95-1.13a.54.54 0 00-.64.6c1.29 9.75.74 19.99-3.46 29.1q-6.49 14.05-17.24 22.55-23.98 18.95-56.23 19.58c-11.73.23-26.2-2.8-36.87-7.76a.9.9 0 00-1.08.21l-6 6.55a.56.56 0 01-.78.04q-8.31-7.37-14.78-15.92-4.26-5.64-6.15-9.84-4.62-10.25-7.73-22.23-2.2-8.49-2.77-23.04c-.2-5.12.94-9.65 2.99-14.12a.67.67 0 011.22.01q4.67 10.55 8.28 17.09 1.34 2.42 9.31 13.3 4.35 5.92 10.75 11.89 10.97 10.23 20.86 17.28a.59.58 40.8 01.07.89l-4.16 4.09a.84.84 0 00.32 1.39c11.32 3.82 21.52 5.22 32.98 4.31 8.8-.7 16.36-1.02 23.35-3.97q.43-.18.62-.47a.52.52 0 00-.32-.8q-13.68-2.94-26.45-9.49-5.71-2.93-10.06-7.05a.79.78 42.7 00-1.11.04l-6.15 6.71a.5.5 0 01-.72-.02c-2.07-2.44-4.7-4.42-6.76-6.7q-7.8-8.61-11.81-17.32-5.35-11.64-6.2-14.83-5.17-19.31-3.02-38.71c.45-4.03 1.34-6.57 2.59-10.47a.52.52 0 01.98-.03q3.43 8.55 8.66 18.89 3.35 6.62 7.24 11.23 4.67 5.55 8.96 10c3.76 3.9 8.37 6.71 12.44 8.98q6.89 3.85 14.31 7.11a.27.27 0 01.1.43l-10.99 11.99a.97.97 0 00.08 1.4q6.76 5.78 14.37 8.25c7.77 2.51 14.56 3.63 21.92.13q9.5-4.52 9.42-14.03c-.09-9.75-3.56-18.97-8.21-27.75q-2.74-5.18-4.85-7.14c-5.55-5.16-9.61-9.15-15.25-14.1q-1.35-1.18-10.02-9.14l-77.75-71.39q-11.06-10.16-14.2-12.93c-4.17-3.68-8.32-8.16-12.88-11.73q-1.31-1.03-7.89-7.22a.98.97 39.8 00-1.45.13l-1.79 2.4a1.84 1.68 76.2 00-.24.44c-2.3 6.21-7.59 15.1-10.25 22.82q-3.84 11.16-4.35 13.14-7.93 30.98.39 61.15c3.87 14.02 9.86 25.4 18.01 37.31q10.8 15.81 17.16 34.81 5.04 15.09 7.02 26.93 3.2 19.1 2.64 39.73-.29 10.66-3.26 26.25" vector-effect="non-scaling-stroke"/><path stroke="#7d6501" d="M758.3 218.02c9.21-.08 15.44-7.38 14.36-16.54-3.93-33.17-10.06-79.81-15.29-123.57q-.06-.43-.32-.43-.24.01-.29.44c-4.46 43.84-9.77 90.58-13.11 123.81-.93 9.18 5.43 16.37 14.65 16.29m63.6 81.68a63.4 59.98-.7 00-64.13-59.2 63.4 59.98-.7 00-62.67 60.74 63.4 59.98-.7 0064.13 59.2 63.4 59.98-.7 0062.67-60.74m-64.29 82.09c-9.12-.05-15.38 7.08-14.44 16.16 3.42 32.85 8.83 79.06 13.39 122.4q.05.43.29.43.26 0 .31-.43c5.03-43.29 10.93-89.43 14.7-122.25 1.04-9.06-5.14-16.26-14.25-16.31" vector-effect="non-scaling-stroke"/><path stroke="#666564" d="M930.39 532.16q.07-1.02.92-4.62c5.28-22.25 27.92-33.02 49.16-28.2q8.69 1.98 16.67 8.66c11.69 9.79 15.36 24.4 10.47 38.52-3.31 9.59-12.32 18.29-21.76 21.84q-15.12 5.68-30.2.24-7.8-2.81-13.49-8.11a.8.8 45.3 00-1.1-.01l-10.01 9.18a.92.91 45.2 000 1.35l4.53 4.15a.84.84 0 001.17-.03l4.9-4.98a.85.85 0 011.06-.12q16.76 10.7 34.43 8.27 17.12-2.35 28.55-14.15 11.19-11.55 11.74-29.49c.12-3.98-.55-9.12-1.87-12.61q-8.18-21.69-28.88-28.54c-17.43-5.76-35.91-1.72-49.2 10.73-7.7 7.22-13.88 19.57-13.46 30.32a.9.9 0 001.24.81l3.9-1.54a2 2 0 001.23-1.67m-337.49 6.03q.64-8-1.94-15.66-6.1-18.16-23.91-26.59c-20.37-9.64-43.45-4.11-57.98 12.74q-9.02 10.46-9.39 24.99c-.5 20.02 12.67 37.55 32.03 43.13q21.94 6.32 41.4-5.22a.85.83 51.5 011.02.13l5.56 5.46a1.1 1.1 0 001.55 0l4.25-4.17a.95.94-45.2 000-1.35l-10.19-10.02a.72.7 46.8 00-.96-.04q-12.17 10.26-27.85 10.49c-16.66.25-33.93-10.64-38.38-27.18-2.49-9.23-1.86-17.38 2.74-25.88 8.22-15.22 24.86-22.35 41.78-20.06q18.12 2.46 28.83 19.34 4.02 6.33 4.72 17.45a.4.39 8.3 00.26.34l6.29 2.2a.12.12 0 00.17-.1m-6.04 232.79q-.98-.31-2.37-.28c-20.82.34-40.8 5.56-58.38 16.42q-8.56 5.29-14.52 9.92a.58.58 0 00.02.93l6.53 4.53a.64.64 0 01.18.85q-4.98 8.42-7.11 18.53c-4.82 22.92-.52 48.03 14.78 66.04 10.53 12.4 26.23 20.33 42.49 18.86q6.73-.62 14.06-3.4a.46.46 0 01.6.55c-1.61 5.98-3.24 13.27-2.36 19.84q1.45 10.7 5.63 18.36c7.22 13.22 21.37 23.4 36.02 29.48q9.46 3.93 21.85 5.48 25.61 3.2 49.64-6.78a1.06 1.05 61 011.27.37l4.21 6.09a.9.9 0 001.4.11c9.98-10.31 17.12-20.57 21.4-34.19q5.89-18.76 4.74-36.58a.7.7 0 00-1.33-.25q-14.34 30.45-42.13 49.37a.53.52-38.4 00-.1.8l6.53 7.14a.72.72 0 01-.28 1.17q-20.41 7.44-42.86 6.64-4.88-.18-13.51-2.39c-7.95-2.04-13.88-3.56-19.28-7.72a.92.92 0 01.13-1.55q.67-.35 1.6-.56l12.15-2.8q19.75-4.71 34.09-18.33a1 1 0 011.49.15l5.22 7.54a.7.7 0 001.08.08c9.39-10.19 16.44-22.3 19.77-36.08 2.1-8.7 3.73-16.71 3.6-25.08q-.07-4.67.17-8.48.03-.45-.24-.63a.39.38 28.2 00-.57.17q-12.64 30.92-42.92 45.77a.37.37 0 00-.1.58l7.71 8.42a.6.6 0 01.12.63c-2.89 7.43-8.56 10.69-15.97 13.69-9.14 3.7-17.04 5.09-26.21 2.97-7.48-1.73-15.97-7.34-17.02-15.42-.59-4.51.04-8.97 1.5-14.61q3.24-12.5 11.1-23.05 2.39-3.2 18.43-17.8c37.42-34.09 70.55-64.9 109.78-100.58q13.48-12.26 26.39-24.12Q905.36 623.05 906.9 621.65q13.02-11.75 33.83-31.26a.37.35 46.1 000-.52l-22.7-22.32a.4.4 0 00-.54 0q-66.41 65.79-125.27 123.26-1.9 1.86-3.26 3.05c-2.82 2.45-5.39 5.52-7.9 7.95q-16.64 16.05-32.8 31.95-24.72 24.32-26.23 25.84c-6.34 6.34-13.45 12.76-19.51 19.17-2.58 2.72-5.4 5.14-8.65 8.35q-43.91 43.24-85.3 83.71c-8.21 8.02-14.66 15.33-25.08 19.35-3.93 1.51-8.24 3.37-11.99 3.8-12.84 1.47-24.09-8.86-27.13-20.77q-5.56-21.84 12.92-36.78a1.5 1.5 0 011.97.06l9.51 8.72a.6.6 0 00.92-.16c10.79-20.54 29.95-35.33 51.54-42.81q.78-.27 1.04-.58a.26.26 0 00-.21-.43c-6.89.14-12.89.18-20.05 1.52q-9.37 1.75-10.97 2.07-18.14 3.62-34.26 13.72-4.96 3.11-10.94 7.32a.35.35 0 00-.03.54l6.67 6.11a.47.47 0 01-.03.72q-11.14 8.8-16.95 21.22c-3.01 6.41-4.63 14.82-5.62 21.75a.54.53 30.8 01-.96.24q-6.4-8.62-9.08-19.02-6.63-25.71 4.57-49.54a.95.95 0 011.51-.3l5.98 5.47a.51.5 36 00.78-.12c11.34-20.17 32.55-34.46 54.18-41.57a.2.2 0 000-.38" vector-effect="non-scaling-stroke"/><path stroke="#666564" d="M576.44 591.09a.85.85 0 00.03 1.22l158.46 145.25a.85.85 0 001.17-.02l16.64-16.36a.85.85 0 000-1.22L599.27 569.09a.85.85 0 00-1.21.01l-21.62 21.99M930.4 772.44q20.94 6.97 37.36 21.75 8.78 7.9 14.51 18.15a.9.9 0 001.31.3l7.03-4.87a.7.7 0 011.03.24c10.34 18.75 10.16 42.19 1.99 61.97q-1.89 4.6-4.68 8.11a1.3 1.3 0 01-2.31-.73q-.54-8.73-3.1-17.16-2.19-7.23-8.63-16.58c-2.85-4.14-6.14-6.7-10.36-10.79a.73.73 0 01.09-1.13l7.42-5.14a.62.61-43.5 00.03-.99c-13.36-10.45-29.66-17.26-46.34-20.27-10.84-1.95-19.93-2.91-29.36-2.05a.39.39 0 00-.08.76c20.69 6.83 41.3 21.53 51.3 41.35a.53.53 0 00.83.15l8.82-8.07a.99.98 44.8 011.33 0c2.1 1.92 4.62 3.59 6.59 5.65q9.74 10.16 9.5 24.33c-.22 12.99-7.5 25.76-20.54 29.08-10.25 2.61-26.46-4.78-33.76-12-35.53-35.12-71.02-70.28-106.46-104.55q-18.21-17.61-33.76-33.21a.71.7-43.5 00-.97-.02l-16.64 15.25a.7.69-45.3 000 1.03c28.55 25.55 65.45 59.84 128.76 118.15q9.7 8.94 12.98 13.85c7.22 10.82 12.14 26.19 9.46 39.59-1.95 9.73-13.68 14.59-22.76 14.12q-9.09-.47-17.59-3.68c-6.53-2.47-10.02-5.59-14.4-11.15a1.42 1.41-43 01.07-1.83l8.02-8.75a.75.74-56.7 00-.24-1.18q-17.19-7.91-29.53-22.98-8.86-10.82-13.1-22.88a.3.3 0 00-.58.09q-.01.33.11 11.95c.1 8.61 2.01 15.92 4.28 24.15q1.71 6.19 4.69 11.72 6.49 12.1 14.68 21a.66.65-44.7 00.97 0l4.85-5.29a.59.58-47.4 01.83-.04c9.04 8.33 21.9 14.62 32.93 17.15q10.37 2.39 16.27 2.86a.58.58 0 01.33 1.03 27 27 0 01-9 5.01q-32.97 11.19-65.84-1.3a.63.62-58.1 01-.23-1.01l4.58-5a.53.52-49.6 00-.06-.77q-4.75-3.69-11.51-9.41c-7.93-6.71-14.59-14.96-20.29-22.49-3.88-5.13-6.21-10.64-9.39-16.63-.51-.95-.63-2.28-1.71-3.17a.43.43 0 00-.7.31q-.28 7.38.97 15.38 1.82 11.62 4.81 20.54 3.85 11.47 12.41 23.31 2.22 3.07 9.87 10.07a.5.49-47 00.7-.03l4.42-4.82a.8.8 0 01.89-.18q20.09 9.12 41.77 7.59a96 96 0 0037.71-10.3q4.7-2.36 10.98-7.28 11.7-9.17 17.28-22.05c4.95-11.4 5.08-21.74 1.64-33.46a.53.53 0 01.72-.64q11.3 4.95 23.67 3.31c15.81-2.11 27.77-11 36.33-24 15.84-24.06 16.64-54.82 3.49-80a.9.9 0 01.28-1.13l7.54-5.22a.5.5 0 00.03-.8q-14.81-11.92-32.77-18.35-20.15-7.22-41.67-6.6a.35.35 0 00-.1.68" vector-effect="non-scaling-stroke"/><path stroke="#713e69" d="M1522.23 0q.32.34.77.5m0 1031.13q-.6.09-.98.37" vector-effect="non-scaling-stroke"/><path stroke="#710101" d="M862.15 64.03q-.4.21-.7.69-24.09 39.03-45.37 75.09c-1.65 2.79-3.92 5.68-5.24 8.11q-3.68 6.73-8.37 13.87c-2.94 4.47-5.78 10.48-8.94 14.75q-3.06 4.16-3.47 7.05c-2.16 15.3 12.99 26.42 27.03 19.92 3.52-1.63 7.96-6.29 9.31-9.57q1.8-4.36 4.03-13.35c5.61-22.57 12.97-46.22 19.17-69.9q5.9-22.55 12.85-46.41a.21.21 0 00-.3-.25m87.39 53.4a.3.3 0 00-.44-.02c-10.57 8.76-21.38 16.34-32.75 25.17q-43.71 33.97-65.97 51.1-15.39 11.84-16.22 12.45-7.21 5.29-14.34 10.76-5.5 4.21-7.01 7.24c-3.1 6.2-3.1 13.86 1.82 19.3 6.89 7.64 16.37 9.65 25.52 4.27a6.05 5.86-82.8 001.2-.96q4.64-4.9 7.38-8.45 3.4-4.42 7.63-9.03 5.43-5.93 14.36-17.38c1.7-2.18 4.06-4.44 5.49-6.18q12.56-15.32 33.85-41.15c3.67-4.45 7.05-7.83 9.51-11.5 1.8-2.69 5.03-5.6 7-7.97q20.01-24.04 22.98-27.22a.3.3 0 000-.42l-.01-.01m62.36 83.25q-26.87 6.43-47.23 11.43-71.79 17.65-72.87 17.7-.64.03-6.24 1.77-3.23 1-10.83 2.62-14.82 3.15-15.47 18.85-.28 6.82 5.08 11.71 4.56 4.15 8.96 4.92c3.42.6 9.23.61 12.72-1.15q4.4-2.21 13.53-7.77c3.86-2.34 8.4-4.02 12.3-6.11q25.91-13.89 50.28-27 10.84-5.83 18.86-10.68c2.09-1.26 6.1-2.63 8.61-4.06q7.49-4.29 22.41-11.93a.16.16 0 00-.11-.3m-171.82 98.13q.02 4.77 1.36 7.33c4.91 9.33 12.78 11.3 22.54 10 6.53-.87 11.32-.96 18.53-1.98q4.45-.63 14.51-1.62 11.97-1.16 71.78-7.81c11.32-1.26 26.62-2.53 39.77-4.28q4.73-.63 10.9-1.1 10.86-.83 10.86-1.28t-10.87-1.2q-6.17-.42-10.91-1.01c-13.16-1.65-28.47-2.8-39.8-3.97q-59.86-6.18-71.84-7.25-10.07-.91-14.52-1.51c-7.22-.96-12.01-1.01-18.55-1.83-9.77-1.22-17.62.81-22.46 10.18q-1.32 2.56-1.3 7.33m169.71 100.25q-5.59-3.23-18.07-10.72-4.05-2.43-6.42-3.62c-5.63-2.83-11.15-6.69-15.91-9.07-5.78-2.88-10.53-6.13-16.61-9.41q-10.52-5.66-19.27-10.66l-33.82-19.32q-5.74-3.48-11.67-6.68a3.94 3.76-25.4 00-1.24-.41q-7.55-1.12-13.38 1.03-14.13 5.22-10.99 21.13 1.15 5.81 7.56 10.25c2.48 1.72 6.82 2.26 9 3 7.34 2.49 13.96 3.83 23.01 6.29q30.45 8.31 45.2 12.02c5.61 1.41 10.85 3.22 16.41 4.38q4.31.89 12.29 3.15 16.74 4.74 33.8 8.92a.15.15 0 00.11-.28M947.8 477.6a.3.3-42.7 00.02-.39q-16.41-20-34.37-40.93c-2.8-3.27-5.73-7.31-8.58-10.31q-2.48-2.6-6.47-7.69-2.98-3.8-9.47-11.45l-17.31-20.4c-5.67-6.67-12.2-13.65-17.4-20.36q-1.45-1.88-8.5-9.85c-4.91-5.56-9.6-8.28-16.55-7.51-9.67 1.09-18.07 8.78-17.73 19.07.19 5.89 2.62 9.57 7.63 13.69 6.28 5.16 13.19 9.47 18.5 13.66q5.52 4.35 8.84 6.78 20.72 15.12 46.56 34.31 2.63 1.95 5.17 3.98c4.87 3.89 9.75 6.9 13.95 10.43 6.7 5.64 14.11 10.55 20.31 15.71 4.26 3.56 10.25 7.14 14.97 11.28a.3.3 0 00.42-.01l.01-.01m-86.72 55.04c-.41-1.83-1.29-3.47-1.78-5.45q-4.67-18.61-7.86-30.04c-2.47-8.83-4.52-18.11-6.73-25.42-3.6-11.98-5.68-22.17-9.41-34.41q-.15-.51-3.03-11.59-1.28-4.93-3.23-11.59-1.49-5.08-3.42-7.3c-4.73-5.45-12-8.43-19.14-6.93q-3.46.73-8.13 4.17c-6.09 4.49-7.66 11.47-6.35 18.5q.48 2.57 5.33 9.95 8.43 12.84 9.2 13.94c3.9 5.56 6.86 11.52 11.12 17.81q4.01 5.91 8.46 13.23 14.49 23.79 34.43 55.35a.3.29 22.6 00.54-.22" vector-effect="non-scaling-stroke"/><path stroke="#7d6501" d="M715.76 199.48c6.95-3.07 10.11-10.77 8.12-18.21a3.58 3.44 23.1 00-.39-.91q-7.67-12.61-18.46-29.93-31.6-50.69-37.42-60.64-.18-.3-.42-.19t-.14.44q3.44 11 19.66 68.49 5.54 19.64 9.71 33.8a3.58 3.44-70.8 00.41.9c4.16 6.48 11.98 9.32 18.93 6.25m135.38-108.8a.33.32 68.5 00-.59-.26q-33.79 55.84-52.29 85.84-1.92 3.1-3.09 5.67c-2.91 6.37-.02 14.32 6.15 17.47 8.44 4.31 17.23 1.31 21.62-7.23a2.98 2.73-26.5 00.23-.6l27.97-100.89M592.63 142c1.05 2.26 3.24 3.75 5.29 6.21q53.31 63.87 63.22 75.4 12.66 14.73 13.3 15.73c2.95 4.59 7.39 7.29 12.33 7.13 6.22-.18 12.37-3.15 14.62-9.13 1.66-4.39.95-12.02-3.13-14.88q-3.39-2.38-8.69-6.6c-7.99-6.36-17.83-13.5-24.05-18.33q-33.52-26.04-72.73-55.66a.11.11 0 00-.16.13m330.05 1.08a.4.39 47.7 00-.54-.03c-8.44 7.01-17.12 13.2-26 20.07q-55.17 42.67-62.37 48.13-6.56 4.97-12.17 9.34c-4.31 3.36-7.14 6.46-6.68 11.8 1.18 13.54 13.86 17.74 24.84 10.98a3.08 2.93 1.4 00.83-.75q3.37-4.5 4.58-5.95 36.12-43.32 58.44-70.55 13.88-16.93 19.08-22.4a.45.45 0 000-.62l-.01-.02m-392.24 66.37q-.09.23.23.4 48.59 26.13 98.75 53.07 4.82 2.58 6.88 2.84c6.46.78 13.29-2.83 15.63-8.83s-.22-13.28-5.5-17.08q-1.69-1.21-6.99-2.58-55.13-14.21-108.56-27.95-.36-.09-.44.13m452.86 2.1q-.14-.03-.52.07c-16.45 4.28-38.13 9.17-53.39 13.23-5.47 1.46-10.24 2.14-15.37 3.65q-4.1 1.2-11.46 2.97-19.43 4.65-25.49 6.15-5.81 1.42-8.06 3.36c-4.03 3.49-7.57 9.72-5.21 15.31 2.91 6.87 8.02 10.55 15.3 9.96q4.08-.33 9.52-3.61c4.98-3.01 9.5-4.75 15.63-8.11q15.47-8.48 42.31-22.61c12.04-6.33 24.45-13.68 36.83-19.65a.38.38 0 00-.09-.72M517.12 297q0 .51 20.23 2.46 11.05 1.06 20.3 2.18c35.65 4.3 71.74 7.84 92.61 10.49 2.37.3 8.08 1.17 11.03.66a14.5 14.5 0 0011.84-13.85 14.5 14.5 0 00-11.5-14.15c-2.93-.58-8.66.15-11.03.39-20.93 2.13-57.1 4.77-92.85 8.18q-9.27.89-20.35 1.68-20.27 1.44-20.28 1.96m326.76 1.78c.02 5.92 4.57 11.42 9.59 13.28q2.93 1.09 10.64.25c42.18-4.57 83.98-9.34 125.91-13.68q1.12-.12 1.12-.38t-1.12-.37c-41.96-4.04-83.8-8.51-126.01-12.77q-7.71-.79-10.63.32c-5.01 1.9-9.52 7.44-9.5 13.35m139.74 89.82a.23.23 0 00.17-.42l-96.68-54.61a5.88 5.61-22.1 00-1.47-.58c-13.38-3.28-26.89 10-16.16 22.53q2.87 3.35 5.65 4.11 37.44 10.32 59.9 16.07 9.53 2.45 12.37 3.28c9.39 2.76 15.92 3.85 24.3 6.46q1.23.39 11.92 3.16m-452.13.98q.09.22.56.07c7.01-2.29 13.85-3.39 20.92-5.65 5.13-1.64 10.97-2.53 16.43-4.16q3.86-1.15 8.82-2.46 52.87-13.88 61.82-16.52c8.22-2.43 13.36-11.15 10.07-19.29-3.3-8.15-13.06-10.83-20.65-6.86q-8.27 4.33-55.91 31.13-4.48 2.51-8.05 4.37c-5.06 2.62-9.87 6.05-14.7 8.44-6.65 3.29-12.33 7.26-18.96 10.49q-.44.21-.35.44m60.26 67.3c4.54-4.3 9.26-6.87 14.44-11.13q6.38-5.24 14.7-10.96c2.5-1.72 4.99-4.04 7.62-6.03q27.47-20.81 46.54-34.96 2.45-1.81 18.68-14.19 5.02-3.83 6.28-6.44c3.16-6.53.37-15.67-6.23-18.7q-7.42-3.41-14.89.14-2.47 1.17-7.28 7.28-4.12 5.22-10.95 12.27c-3.55 3.67-8.16 10.48-12.51 14.87-4.37 4.42-7.96 9.59-12.28 14.57-13.19 15.21-29.28 35.02-44.59 52.9a.27.26-47.5 00.01.36l.02.01a.32.31 45.7 00.44.01m331.11-3.3.01-.03-.01-.07q-1.97-2.3-23.74-28.12-10.78-12.8-21.9-26.21c-4.87-5.88-9.5-10.67-13.12-15.23-6.98-8.8-14.78-17.06-20.91-24.78q-3.04-3.84-5.57-4.96c-13.13-5.83-27.1 6.48-20.26 20.04q1.07 2.13 2.43 3.06c8.72 6.05 16.65 12.9 24.91 18.42 6.06 4.04 14.14 10.61 22.47 16.73q29.03 21.28 55.46 41.21a.15.15 0 00.23-.06m-118.08-48.92c-7.96 3.5-11.76 13.09-6.9 20.8q11.59 18.36 28.95 46.01c3.6 5.75 7.35 10.82 10.31 15.94q1.98 3.42 12.74 20.62a.4.21 68.4 00.24.21q.08 0 .15-.03.08-.03.13-.1a.4.21 64.2 00.01-.31q-5.39-19.56-6.57-23.33c-1.77-5.65-2.97-11.84-4.77-18.38q-8.62-31.49-14.3-52.45c-2.38-8.79-12.03-12.48-19.99-8.98m-137.89 105.7a.29.29 0 00.52.24c7.35-11.34 12.05-19.14 19.21-29.8q4.69-6.99 13.31-20.72c1.55-2.47 3.85-5.37 5.16-7.48q6.45-10.46 13.15-20.59c3.77-5.69 6.56-9.22 5.81-15.12q-.44-3.43-2.82-6.52c-6.15-8-16.36-7.8-23.44-1.04q-1.79 1.72-3.54 7.33-5.21 16.75-9.58 32.4-2.6 9.29-5.29 18.68-4.02 14.01-12.49 42.62" vector-effect="non-scaling-stroke"/><path stroke="#666564" d="M559.08 778.24a.36.36 0 00-.44-.23q-19.63 5-34.2 18.7a.6.6 0 00.13.96q2.57 1.31 4.32 3.5a.62.62 0 001.03-.1q.74-1.38 1.78-2.63 11.23-13.54 27.4-19.75a.14.14 0 00.08-.17l-.1-.28m34.92 30.2q-7.37 1.26-14.96 5.12-8.62 4.4-17.69 13.4a.81.8-46.2 00.02 1.17l3.22 2.96a.7.7 0 001.06-.14c6.83-10.33 17.17-17.05 28.48-22.1a.22.22 0 00-.13-.41m92.84 91.43a.45.45 0 00-.79-.41c-1.07 1.4-2.28 4.72-3.33 6.46q-6.91 11.51-18.07 19.13a.2.2 0 00-.03.33l3.59 3.54a.25.25 0 00.35-.01q7.22-7.63 13.02-17.07 2.95-4.8 5.26-11.97m33.07 31.49c-2.08 3.2-4.34 7.75-7.23 11.26q-7.41 9.01-16.68 15.2a.6.6 0 00-.11.91l3.31 3.62a.57.57 0 00.8.04c8.91-7.99 16.97-19.1 20.41-30.79a.28.28 0 00-.5-.24m237.1-151.83q14.9 5.36 25.65 18.6a.26.25 50.8 00.35.04l4.12-3.33a.23.22 48.2 00.01-.33q-11.94-11.83-29.7-15.81a.3.29 28.9 00-.26.07l-.27.21a.32.32 0 00.1.55m-33.55 30.85a.4.4 16.6 00.27.49q17.39 5.62 28.11 20.43a.42.41 44.7 00.67 0q1.55-2.13 3.78-3.55a.43.43 0 00.07-.67q-13.14-13.14-32.56-17.13a.24.24 13.7 00-.27.16l-.07.27m-93.05 89.87a.49.48-22.6 00-.26.61q6.57 17 18.15 31.02a.88.87 46.6 001.32.04l2.99-3.27a1 .99-52.2 00-.19-1.51c-9.16-5.92-16.75-16.83-21.41-26.68a.45.44-24 00-.59-.22l-.01.01m-33.71 31.23q4.41 13.28 12.84 24.22c2.14 2.79 6.04 6.24 8.81 9.49a.3.3 0 00.44.02l3.44-3.51a.17.17 0 00-.02-.26q-16.6-11.91-25.02-30.2a.24.24 68 00-.3-.13l-.02.01a.3.3-20.1 00-.17.36" vector-effect="non-scaling-stroke"/></g><path fill="#017ad1" d="M741.3 0q4.61 9.29 9.88 16.56c7.55 10.43 14.62 19.68 19.49 30.15 4.89 10.52 9.38 21.94 11.46 33.44q1.98 10.98 2.43 16.85 1.37 17.89-1.29 38.35-.64 4.98-2.05 10.17c-1.45 5.4-2.36 11.59-4.73 16.79q-.79 1.75-2.74 6.57a.41.41 0 01-.78-.1L757.16 47.89a.3.3 0 00-.54-.13q-.19.27-.24.7-9.93 86.16-13.99 125.53-.54 5.2-2.74 27.11c-.46 4.55.2 7.33 1.85 11.18a1.8 1.8 0 01-.08 1.64q-5.78 10.47-7.86 24.06a1.8 1.8 0 01-1.2 1.4c-9.01 2.86-15.9 8.09-23.65 14.59q-4.12 3.45-8.27 9.48-11.49 16.73-11.93 36.11-.1 4.27.72 9.45 1.03 6.65 1.83 9.25 2.04 6.7 6.73 14.82 4.27 7.39 9.4 12.12 7.46 6.86 11.83 9.84 5.35 3.64 15 7.5c10.97 4.39 23.98 5.2 34.94 3.64q1.03-.14 2.22-.52a1.43 1.42-20.5 011.74.79q1.63 3.78 4.82 12.45 1.78 4.82 3.22 12.94 2.14 12.09 2.31 14.17 2.08 25.95-8.74 50.06-2.8 6.24-6.32 13a.24.24 0 01-.46-.11c0-2.39.83-4.95.93-7.62q.18-4.49.87-10.34 3.16-26.45 7.14-54.01.33-2.31-.47-4.94-3.41-11.16-14.71-13.8-4.64-1.08-7.97-.24c-5.97 1.52-11.94 5.73-13.99 11.71q-1.11 3.24-.64 7.99c3.33 33.56 7.27 66.22 11.03 99.18a1.6 1.6 58.5 01-.25 1.05q-4.21 6.32-8.19 13.83-13.37 25.26-10.56 53.6c1.94 19.59 9.7 39.03 22.94 54.57 3.83 4.49 7.49 8.39 10.72 13.48a118 118 0 0117.43 46.26q1.07 7.25 1.53 10.69a1.21 1.19 64.7 01-.35 1l-25.19 24.76a.9.9 0 01-1.26 0L598.9 560.95a.56.55 46.1 00-.77-.02l-8.44 7.73a.4.4 0 01-.51 0l-14.28-13.09a.74.74 0 00-1.04.04q-10.8 11.49-26.59 11.79-15.24.28-25.1-8.84c-9.71-8.99-13.23-21.57-8.56-34.42q1.74-4.79 5.59-8.91c6.86-7.34 15.66-11.99 25.57-12.2 7.88-.17 15.92 1.44 22.58 6.35q5.36 3.95 6.56 5.5c3.36 4.35 7.44 11.76 7.63 17.75q.08 2.41.13 5.75a.75.74-81 00.5.69l13.24 4.65a1.2 1.2 0 001.6-1.01c2.01-17.19-3.71-32.46-16.85-43.32q-4.81-3.97-6.3-4.88-3.65-2.22-10.57-4.48-25.65-8.35-47.76 6.58c-12.3 8.3-20.74 23.49-20.4 38.3q.51 22.48 17.77 36.44c12.77 10.33 25.25 12.88 41 11.35q9.13-.89 18.25-5.75a1.37 1.36-35.1 011.65.28l3.13 3.42a.57.57 0 01-.02.8l-9.76 9.6a.67.65 44.4 00.02.96l163.25 149.63a1 1 0 01.02 1.48l-137.55 135.2a.16.08-63.4 01-.04.03q-2.02 1.68-8.27 5.22c-5.64 3.19-10.95 5.68-16.83 5.32q-10.29-.62-16.23-10.29-3.66-5.96-4.34-11.56-.66-5.49.81-12.38 1.8-8.47 8.83-14.22a.64.63-43.1 01.83.02l14.17 12.99a.66.66 0 001.07-.27q2.7-7.57 8.35-15.69a86 86 0 0137.61-30.65q7.88-3.3 12.98-5.39a.53.53 0 00.07-.95c-4.64-2.77-7.15-2.72-13.37-2.76q-10.86-.07-19.16.89c-4.81.56-9.39 2.13-13.64 2.82q-3.79.61-9.94 2.97-1.97.76-9.78 3.56-2.69.97-10.72 5.45c-5.92 3.31-10.43 7.21-16.68 12.11a.3.29 47.3 00-.01.45l7.58 6.95a.7.7 0 01-.02 1.04q-9.95 8.61-14.75 20.92-1.81 4.64-3.47 10.48a.3.3 0 01-.57.03q-10.45-25.51-1.2-51.58a.79.78-58.9 011.27-.32l7.77 7.12a.57.57 0 00.93-.23q1.06-2.92 2.62-5.65 9.16-16.07 23.92-27.06c9.79-7.29 19.15-11.32 30.44-15.8q1.7-.68 3.86-1.04a.39.39 0 00.13-.72l-4.54-2.62a3.86 3.82 59.6 00-1.91-.51q-3.16 0-14.68.4c-11.51.4-22.22 3.28-32.61 6.45q-5.05 1.54-9.82 3.91-7.62 3.8-9.41 4.91-9.12 5.69-19.45 14.92a.57.57 0 00.09.92l8.54 4.93a1.02 1.01 30.7 01.36 1.4q-2.64 4.37-4.12 9.2-9.33 30.37 2.86 59.56 2.34 5.61 4.32 8.38c4 5.57 8.61 11.99 14.42 16.47 13.56 10.46 28.48 16.04 45.76 11.36a.54.54 0 01.67.6c-1.33 9.21-1.53 19.04 2.24 27.93 6.07 14.33 17.13 25.4 30.66 32.76q17.82 9.68 35.27 10.97 11.07.81 14.49.52 16.16-1.38 32.12-8.04a.6.6 0 01.7.2l6.33 9.13a.45.44 51.7 00.67.08c8.91-8.26 17.51-17.95 22.37-29q8.75-19.92 8.95-41.73c.05-5.31-.43-12.74-3.03-17.2a.62.62 0 00-1.09.05c-3.35 7.04-5.9 12.54-9.97 18.16-4.4 6.07-7.28 11-11.62 15.88Q693.22 944.1 677 954.06a.54.54 0 00-.11.82l5.97 6.53a.6.6 0 01-.23.95q-12.24 4.53-24.88 4.63c-11.95.09-23.1-.63-33.56-5.31a.41.41 0 01.08-.77c13.35-2.74 26.91-8.79 36.83-18.24a.52.51-41.1 01.76.05l7.2 8.9a.59.58 48.1 00.87.05q4.39-4.32 6.41-6.53 9.34-10.22 13.37-20.92c2.11-5.6 3.9-9.65 5.16-15.18q3.56-15.61 2.61-32.05-.33-5.88-2.27-11.6a.66.66 0 00-1.21-.09c-4.6 9.05-8.84 18.5-14.99 26.23q-14.77 18.59-36.65 27.13a.52.51 58.2 00-.19.83L652.71 931a1 1 0 01-.01 1.38c-6.99 7.46-17.12 10.81-26.84 11.73q-7.42.69-14.46-2.82-9.54-4.77-8.23-15.52.92-7.54 4.02-14.46c2.61-5.8 7.1-13.31 11.54-17.58q8.51-8.18 46.46-42.8c18.94-17.28 37.11-34.18 57.31-52.68q16.87-15.45 20.39-18.87.26-.26.52-.29a.38.38 0 01.39.55c-17.38 35.09-18.57 76.18-.44 111.52q3.38 6.58 11.06 17.72a102 102 0 0110.61 19.57q13.09 31.87 14 66.3.51 19.6-3.62 37.25H0V0zm-85.28 63.53a.31.31 0 00-.57.24q19.13 68.17 32.88 115.73l2.91 10.59q1.83 6.67 8.93 11.83c8.17 5.93 21.3 2.11 25.99-6.78q3.68-6.98 1.92-14.18-.6-2.45-7.11-12.77-13.78-21.85-14.99-23.65c-2.66-3.95-4.64-8.57-7.45-12.49q-2.72-3.8-5.93-9.15-9.65-16.05-26.65-43.08-5.09-8.09-9.93-16.29m-88.86 53.83q.11.33.47.76 49.7 60.17 92.49 110.55 1.88 2.21 7.36 8.86 5.89 7.14 7.41 8.43 10.68 9.01 22.62 1.89 5.93-3.54 8.79-11.89a4.02 3.77-35.6 00.21-1.06q.4-6.4-2.86-11.86-1.78-2.99-8.91-8.21-12.39-9.07-19.17-14.69c-7.9-6.55-16.3-12.49-26.07-20.11q-11.45-8.94-19.48-15.03-26.09-19.78-62.44-47.93a.27.27 0 00-.42.29m-64.42 80.81a.38.38 0 00-.28.71c8.44 4.36 12.21 6.04 19.48 10.53q5.64 3.49 16.96 9.32c3.55 1.83 7.76 4.7 10.62 6.03q5.76 2.67 12.57 6.52c8.09 4.57 21.3 11.46 27.8 15.04q10.17 5.59 15.36 8.21 10.25 5.18 22.21 12.25 4.09 2.42 6.3 2.51 5.96.25 8.14.13a6.81 6.68-53.7 001.36-.22c5.72-1.6 12.36-6.88 13.09-13.04 1.09-9.17-.81-16.88-10.03-20.77q-6.95-2.93-14.12-4.11c-3.73-.61-8.82-2.42-11.38-3.1q-13.97-3.68-83.56-21.4c-10.97-2.79-23.07-5.45-34.52-8.61m-22.37 98.35q-.01.39.64.46 16.49 1.81 33.01 3.84 26.18 3.23 127.53 14.33 7.87.86 13.45 1.42c6.83.69 11.25-.01 16.01-4.08 4.19-3.58 5.86-8.07 5.93-13.46s-1.48-9.91-5.59-13.61c-4.65-4.18-9.05-5-15.89-4.48q-5.6.42-13.49 1.07-101.6 8.51-127.85 11.07-16.57 1.61-33.1 2.99-.65.06-.65.45m24.47 104.03q.3.23.62.15c5.04-1.26 8.52-1.77 12.37-3.02q6.75-2.2 14.98-4.04c10.72-2.4 17.98-5.18 27.99-7.11q4.38-.84 12.95-3.29 28.06-7.99 56.98-15.27 1.48-.37 9.45-2.93 6.22-2 8.6-4.06c5.78-5.01 8.05-13.18 5.54-20.28-2.72-7.73-11.71-11.7-19.57-11.73q-3.6-.02-6.45 1.6-29.96 16.97-56.75 31.8-7.18 3.97-9.55 5.42-5.54 3.4-9.68 5.21c-5.26 2.31-9.45 5.9-14.99 8.59-7.28 3.53-13.68 8.19-20.1 11.5q-.98.5-12.36 7.1a.22.22 0 00-.03.36m62.52 79.38q.08.01.32-.03a.1.08-52 00.04-.01c7.08-5.5 14.19-10.57 20.12-15.08q48.13-36.62 91.49-69.24 10.44-7.84 16.18-11.77 8-5.45 9.78-14.42.84-4.24-.72-7.99c-5.13-12.3-18.55-17.25-29.65-9.44a4.82 4.31-84.2 00-.82.75c-5.09 6.06-11.26 12.68-17.45 20.18q-1.7 2.06-8.06 9.45-30.24 35.11-40.36 47.63-3.66 4.53-11.95 14.06-3.57 4.11-23.27 28.57c-1.93 2.39-4.24 4.61-5.87 6.82a.33.33 0 00.22.52m89.23 53.87q21.74-32.16 38.64-58.98c2.68-4.26 6.18-8.61 9-13.49q2.56-4.42 6.48-10.31 5.58-8.39 13.62-20.86 2.92-4.52 3.43-7.27c2.73-14.81-9.8-25.06-23.75-21.63q-10.3 2.52-13.26 12.45a6055 6055 0 00-34.48 119.94.18.18 0 00.32.15"/><path fill="#010101" d="M747.76 0q5.67 9.37 18.9 28.1 16.06 22.72 21.96 52.75a147 147 0 012.4 41.22q-1.04 11.88-1.92 16.04l-2.33 10.61c-2.36 10.72-6.63 21.34-11.75 30.81a5.15 5.1-36 00-.55 3.34q1.08 6.28 1.81 14.25.94 10.26-.82 14.13c-2.8 6.16-8.56 10.29-15.55 10.33-5.52.03-9.09-.4-13.06-3.37a.89.88 28.2 00-1.37.41c-2.09 5.83-4.63 11.37-6.21 17.42a.7.7.4 00.83.83q25.9-6.42 49.51 4.26 7.52 3.39 12.47 7.54c5.99 5.02 11.43 9.64 15.51 16.37 3.52 5.81 6.4 10.23 7.76 15.34 1.56 5.89 3.38 12.89 3.35 18.95-.08 15.57-5.87 31.58-16.28 43.11-8.74 9.7-20.03 17.84-33.56 21.21a1.12 1.11-21.4 00-.71 1.62c2.84 5.11 4 8.67 5.88 14.95q5.69 18.91 5.01 38.51-.24 6.82-1.86 14.44-2.47 11.69-3.27 14.23-4.7 15.09-14.55 30.07c-.77 1.18-3.36 4.21-3.58 6.04q-1.79 15.28-4.76 35.74-1.5 10.39-3.64 30.22a.35.35 0 01-.69.01q-2.75-22.93-4.93-37.98-.29-1.98-.16-4.39.03-.61-.57-.56-.25.02-.42.29-21.28 34.33-11.07 73.38a93 93 0 0019.75 37.13c4.04 4.56 6.81 7.56 9.76 12.1 11.2 17.19 17.4 35.97 19.64 56a.45.44-25.5 00.75.26l128.8-126.6a.3.29-43.6 01.42 0l7.43 7.55a.74.74 0 001 .06l14.79-11.95a.62.61 49.1 01.85.07q9.55 10.58 23.77 11.87 12.64 1.15 23.39-5.15c4.79-2.81 8.4-7.34 11.09-11.73q7.24-11.81 2.63-24.5-3.5-9.64-10.45-15.05-12.2-9.48-28.95-7.46c-6 .72-11.84 3.83-16.59 7.06-4.61 3.15-7.54 8.03-10.12 13.04-2.13 4.14-2.59 8.4-2.58 12.78a.9.89 80.1 01-.6.86l-12.85 4.53a1.06 1.06 0 01-1.41-.86c-1.81-13.21 2.76-26.57 11.76-36.19q14.32-15.33 35.93-17.08 5.77-.46 13.53 1.01 13.82 2.61 23.87 11.39 14.83 12.97 16.48 32.41.96 11.27-3.91 21.36c-1.24 2.59-2.58 6.06-4.92 8.92-7 8.55-13.39 13.86-24.18 17.94-6.18 2.33-15.07 2.67-21.35 2.4q-12.66-.55-23.68-6.91a.85.84-52 00-1.01.13l-3.03 2.98a.64.64 0 00-.01.9l10.03 10.21a.6.6 0 01-.02.89L784.21 742.01a.77.76-44.2 00-.02 1.11q22.85 22.32 61.4 59.79 27.1 26.33 70.32 69.32c4.38 4.36 8.18 9.18 13.39 12.54 9.1 5.88 19.45 10.45 29.85 4.43q4.87-2.82 8.25-9.33 7.23-13.92-.08-29.23-2.58-5.39-7.65-8.88a1.04 1.03-48.6 00-1.3.09l-12.77 11.7a.4.4-33.4 01-.64-.13c-3.41-7.41-7.76-15.43-13.21-21.81q-9.89-11.54-23.39-18.69-10.47-5.55-21.73-9.97a.3.3 0 01-.06-.52q4.16-2.93 9.45-3.09 6.65-.19 19.72.13 2.22.05 18.6 3.11c5.12.96 8.77 2.67 14.58 4.64 7.98 2.71 13.62 6.32 21.31 11.18 2.96 1.87 5.92 4.91 8.83 6.72a.8.8 0 01.04 1.35l-8.43 5.84a.64.64 0 00-.06 1c9.88 8.96 16.42 21.89 18.67 34.92a.31.31 0 00.59.07c4.6-10 5.9-22.45 5.45-32.69a65 65 0 00-4.99-21.89.74.74 0 00-1.15-.3l-8.32 6.73a.57.57 0 01-.88-.23q-4.27-10.32-11.74-18.13c-3.12-3.25-8.28-9.21-13.88-13.06q-16.28-11.22-34.8-17.67a.38.38 0 01-.04-.71q4.45-2.07 8.98-2.25 10.81-.41 19.5.27c5.69.45 12.3 2.37 16.92 3.37q6.1 1.31 12.33 3.85 14.45 5.89 26.6 15.29 3.95 3.06 7 6.39a.6.6 0 01-.1.92l-8.66 6a1 .98 56.8 00-.27 1.33c3.41 5.55 4.42 9.81 6.46 17.09 2.88 10.28 2.49 23.5 1.06 32.83q-3.14 20.49-17.11 37.46-3.25 3.95-6.66 6.47c-5.03 3.71-9.68 7.43-15.03 9.4-4.91 1.8-10.76 3.33-16.49 3.41q-8.33.11-14.95-1.13a.54.54 0 00-.64.6c1.29 9.75.74 19.99-3.46 29.1q-6.49 14.05-17.24 22.55-23.98 18.95-56.23 19.58c-11.73.23-26.2-2.8-36.87-7.76a.9.9 0 00-1.08.21l-6 6.55a.56.56 0 01-.78.04q-8.31-7.37-14.78-15.92-4.26-5.64-6.15-9.84-4.62-10.25-7.73-22.23-2.2-8.49-2.77-23.04c-.2-5.12.94-9.65 2.99-14.12a.67.67 0 011.22.01q4.67 10.55 8.28 17.09 1.34 2.42 9.31 13.3 4.35 5.92 10.75 11.89 10.97 10.23 20.86 17.28a.59.58 40.8 01.07.89l-4.16 4.09a.84.84 0 00.32 1.39c11.32 3.82 21.52 5.22 32.98 4.31 8.8-.7 16.36-1.02 23.35-3.97q.43-.18.62-.47a.52.52 0 00-.32-.8q-13.68-2.94-26.45-9.49-5.71-2.93-10.06-7.05a.79.78 42.7 00-1.11.04l-6.15 6.71a.5.5 0 01-.72-.02c-2.07-2.44-4.7-4.42-6.76-6.7q-7.8-8.61-11.81-17.32-5.35-11.64-6.2-14.83-5.17-19.31-3.02-38.71c.45-4.03 1.34-6.57 2.59-10.47a.52.52 0 01.98-.03q3.43 8.55 8.66 18.89 3.35 6.62 7.24 11.23 4.67 5.55 8.96 10c3.76 3.9 8.37 6.71 12.44 8.98q6.89 3.85 14.31 7.11a.27.27 0 01.1.43l-10.99 11.99a.97.97 0 00.08 1.4q6.76 5.78 14.37 8.25c7.77 2.51 14.56 3.63 21.92.13q9.5-4.52 9.42-14.03c-.09-9.75-3.56-18.97-8.21-27.75q-2.74-5.18-4.85-7.14c-5.55-5.16-9.61-9.15-15.25-14.1q-1.35-1.18-10.02-9.14l-77.75-71.39q-11.06-10.16-14.2-12.93c-4.17-3.68-8.32-8.16-12.88-11.73q-1.31-1.03-7.89-7.22a.98.97 39.8 00-1.45.13l-1.79 2.4a1.84 1.68 76.2 00-.24.44c-2.3 6.21-7.59 15.1-10.25 22.82q-3.84 11.16-4.35 13.14-7.93 30.98.39 61.15c3.87 14.02 9.86 25.4 18.01 37.31q10.8 15.81 17.16 34.81 5.04 15.09 7.02 26.93 3.2 19.1 2.64 39.73-.29 10.66-3.26 26.25h-6.86q4.13-17.65 3.62-37.25-.91-34.43-14-66.3a102 102 0 00-10.61-19.57q-7.68-11.14-11.06-17.72c-18.13-35.34-16.94-76.43.44-111.52a.38.38 0 00-.39-.55q-.26.03-.52.29-3.52 3.42-20.39 18.87c-20.2 18.5-38.37 35.4-57.31 52.68q-37.95 34.62-46.46 42.8c-4.44 4.27-8.93 11.78-11.54 17.58q-3.1 6.92-4.02 14.46-1.31 10.75 8.23 15.52 7.04 3.51 14.46 2.82c9.72-.92 19.85-4.27 26.84-11.73a1 1 0 00.01-1.38l-10.54-11.51a.52.51 58.2 01.19-.83q21.88-8.54 36.65-27.13c6.15-7.73 10.39-17.18 14.99-26.23a.66.66 0 011.21.09q1.94 5.72 2.27 11.6.95 16.44-2.61 32.05c-1.26 5.53-3.05 9.58-5.16 15.18q-4.03 10.7-13.37 20.92-2.02 2.21-6.41 6.53a.59.58 48.1 01-.87-.05l-7.2-8.9a.52.51-41.1 00-.76-.05c-9.92 9.45-23.48 15.5-36.83 18.24a.41.41 0 00-.08.77c10.46 4.68 21.61 5.4 33.56 5.31q12.64-.1 24.88-4.63a.6.6 0 00.23-.95l-5.97-6.53a.54.54 0 01.11-.82q16.22-9.96 28.68-23.94c4.34-4.88 7.22-9.81 11.62-15.88 4.07-5.62 6.62-11.12 9.97-18.16a.62.62 0 011.09-.05c2.6 4.46 3.08 11.89 3.03 17.2q-.2 21.81-8.95 41.73c-4.86 11.05-13.46 20.74-22.37 29a.45.44 51.7 01-.67-.08l-6.33-9.13a.6.6 0 00-.7-.2q-15.96 6.66-32.12 8.04-3.42.29-14.49-.52-17.45-1.29-35.27-10.97c-13.53-7.36-24.59-18.43-30.66-32.76-3.77-8.89-3.57-18.72-2.24-27.93a.54.54 0 00-.67-.6c-17.28 4.68-32.2-.9-45.76-11.36-5.81-4.48-10.42-10.9-14.42-16.47q-1.98-2.77-4.32-8.38-12.19-29.19-2.86-59.56 1.48-4.83 4.12-9.2a1.02 1.01 30.7 00-.36-1.4l-8.54-4.93a.57.57 0 01-.09-.92q10.33-9.23 19.45-14.92 1.79-1.11 9.41-4.91 4.77-2.37 9.82-3.91c10.39-3.17 21.1-6.05 32.61-6.45q11.52-.4 14.68-.4a3.86 3.82 59.6 011.91.51l4.54 2.62a.39.39 0 01-.13.72q-2.16.36-3.86 1.04c-11.29 4.48-20.65 8.51-30.44 15.8q-14.76 10.99-23.92 27.06-1.56 2.73-2.62 5.65a.57.57 0 01-.93.23l-7.77-7.12a.79.78-58.9 00-1.27.32q-9.25 26.07 1.2 51.58a.3.3 0 00.57-.03q1.66-5.84 3.47-10.48 4.8-12.31 14.75-20.92a.7.7 0 00.02-1.04l-7.58-6.95a.3.29 47.3 01.01-.45c6.25-4.9 10.76-8.8 16.68-12.11q8.03-4.48 10.72-5.45 7.81-2.8 9.78-3.56 6.15-2.36 9.94-2.97c4.25-.69 8.83-2.26 13.64-2.82q8.3-.96 19.16-.89c6.22.04 8.73-.01 13.37 2.76a.53.53 0 01-.07.95q-5.1 2.09-12.98 5.39a86 86 0 00-37.61 30.65q-5.65 8.12-8.35 15.69a.66.66 0 01-1.07.27l-14.17-12.99a.64.63-43.1 00-.83-.02q-7.03 5.75-8.83 14.22-1.47 6.89-.81 12.38.68 5.6 4.34 11.56 5.94 9.67 16.23 10.29c5.88.36 11.19-2.13 16.83-5.32q6.25-3.54 8.27-5.22a.16.08-63.4 00.04-.03l137.55-135.2a1 1 0 00-.02-1.48L567.17 592.01a.67.65 44.4 01-.02-.96l9.76-9.6a.57.57 0 00.02-.8l-3.13-3.42a1.37 1.36-35.1 00-1.65-.28q-9.12 4.86-18.25 5.75c-15.75 1.53-28.23-1.02-41-11.35q-17.26-13.96-17.77-36.44c-.34-14.81 8.1-30 20.4-38.3q22.11-14.93 47.76-6.58 6.92 2.26 10.57 4.48 1.49.91 6.3 4.88c13.14 10.86 18.86 26.13 16.85 43.32a1.2 1.2 0 01-1.6 1.01l-13.24-4.65a.75.74-81 01-.5-.69q-.05-3.34-.13-5.75c-.19-5.99-4.27-13.4-7.63-17.75q-1.2-1.55-6.56-5.5c-6.66-4.91-14.7-6.52-22.58-6.35-9.91.21-18.71 4.86-25.57 12.2q-3.85 4.12-5.59 8.91c-4.67 12.85-1.15 25.43 8.56 34.42q9.86 9.12 25.1 8.84 15.79-.3 26.59-11.79a.74.74 0 011.04-.04l14.28 13.09a.4.4 0 00.51 0l8.44-7.73a.56.55 46.1 01.77.02l157.86 155.18a.9.9 0 001.26 0l25.19-24.76a1.21 1.19 64.7 00.35-1q-.46-3.44-1.53-10.69a118 118 0 00-17.43-46.26c-3.23-5.09-6.89-8.99-10.72-13.48-13.24-15.54-21-34.98-22.94-54.57q-2.81-28.34 10.56-53.6 3.98-7.51 8.19-13.83a1.6 1.6 58.5 00.25-1.05c-3.76-32.96-7.7-65.62-11.03-99.18q-.47-4.75.64-7.99c2.05-5.98 8.02-10.19 13.99-11.71q3.33-.84 7.97.24 11.3 2.64 14.71 13.8.8 2.63.47 4.94-3.98 27.56-7.14 54.01-.69 5.85-.87 10.34c-.1 2.67-.93 5.23-.93 7.62a.24.24 0 00.46.11q3.52-6.76 6.32-13 10.82-24.11 8.74-50.06-.17-2.08-2.31-14.17-1.44-8.12-3.22-12.94-3.19-8.67-4.82-12.45a1.43 1.42-20.5 00-1.74-.79q-1.19.38-2.22.52c-10.96 1.56-23.97.75-34.94-3.64q-9.65-3.86-15-7.5-4.37-2.98-11.83-9.84-5.13-4.73-9.4-12.12-4.69-8.12-6.73-14.82-.8-2.6-1.83-9.25-.82-5.18-.72-9.45.44-19.38 11.93-36.11 4.15-6.03 8.27-9.48c7.75-6.5 14.64-11.73 23.65-14.59a1.8 1.8 0 001.2-1.4q2.08-13.59 7.86-24.06a1.8 1.8 0 00.08-1.64c-1.65-3.85-2.31-6.63-1.85-11.18q2.2-21.91 2.74-27.11 4.06-39.37 13.99-125.53.05-.43.24-.7a.3.3 0 01.54.13l15.81 120.89a.41.41 0 00.78.1q1.95-4.82 2.74-6.57c2.37-5.2 3.28-11.39 4.73-16.79q1.41-5.19 2.05-10.17 2.66-20.46 1.29-38.35-.45-5.87-2.43-16.85c-2.08-11.5-6.57-22.92-11.46-33.44-4.87-10.47-11.94-19.72-19.49-30.15Q745.91 9.29 741.3 0zm10.54 218.02c9.21-.08 15.44-7.38 14.36-16.54-3.93-33.17-10.06-79.81-15.29-123.57q-.06-.43-.32-.43-.24.01-.29.44c-4.46 43.84-9.77 90.58-13.11 123.81-.93 9.18 5.43 16.37 14.65 16.29m63.6 81.68a63.4 59.98-.7 00-64.13-59.2 63.4 59.98-.7 00-62.67 60.74 63.4 59.98-.7 0064.13 59.2 63.4 59.98-.7 0062.67-60.74m-64.29 82.09c-9.12-.05-15.38 7.08-14.44 16.16 3.42 32.85 8.83 79.06 13.39 122.4q.05.43.29.43.26 0 .31-.43c5.03-43.29 10.93-89.43 14.7-122.25 1.04-9.06-5.14-16.26-14.25-16.31m172.78 150.37q.07-1.02.92-4.62c5.28-22.25 27.92-33.02 49.16-28.2q8.69 1.98 16.67 8.66c11.69 9.79 15.36 24.4 10.47 38.52-3.31 9.59-12.32 18.29-21.76 21.84q-15.12 5.68-30.2.24-7.8-2.81-13.49-8.11a.8.8 45.3 00-1.1-.01l-10.01 9.18a.92.91 45.2 000 1.35l4.53 4.15a.84.84 0 001.17-.03l4.9-4.98a.85.85 0 011.06-.12q16.76 10.7 34.43 8.27 17.12-2.35 28.55-14.15 11.19-11.55 11.74-29.49c.12-3.98-.55-9.12-1.87-12.61q-8.18-21.69-28.88-28.54c-17.43-5.76-35.91-1.72-49.2 10.73-7.7 7.22-13.88 19.57-13.46 30.32a.9.9 0 001.24.81l3.9-1.54a2 2 0 001.23-1.67m-337.49 6.03q.64-8-1.94-15.66-6.1-18.16-23.91-26.59c-20.37-9.64-43.45-4.11-57.98 12.74q-9.02 10.46-9.39 24.99c-.5 20.02 12.67 37.55 32.03 43.13q21.94 6.32 41.4-5.22a.85.83 51.5 011.02.13l5.56 5.46a1.1 1.1 0 001.55 0l4.25-4.17a.95.94-45.2 000-1.35l-10.19-10.02a.72.7 46.8 00-.96-.04q-12.17 10.26-27.85 10.49c-16.66.25-33.93-10.64-38.38-27.18-2.49-9.23-1.86-17.38 2.74-25.88 8.22-15.22 24.86-22.35 41.78-20.06q18.12 2.46 28.83 19.34 4.02 6.33 4.72 17.45a.4.39 8.3 00.26.34l6.29 2.2a.12.12 0 00.17-.1m-6.04 232.79q-.98-.31-2.37-.28c-20.82.34-40.8 5.56-58.38 16.42q-8.56 5.29-14.52 9.92a.58.58 0 00.02.93l6.53 4.53a.64.64 0 01.18.85q-4.98 8.42-7.11 18.53c-4.82 22.92-.52 48.03 14.78 66.04 10.53 12.4 26.23 20.33 42.49 18.86q6.73-.62 14.06-3.4a.46.46 0 01.6.55c-1.61 5.98-3.24 13.27-2.36 19.84q1.45 10.7 5.63 18.36c7.22 13.22 21.37 23.4 36.02 29.48q9.46 3.93 21.85 5.48 25.61 3.2 49.64-6.78a1.06 1.05 61 011.27.37l4.21 6.09a.9.9 0 001.4.11c9.98-10.31 17.12-20.57 21.4-34.19q5.89-18.76 4.74-36.58a.7.7 0 00-1.33-.25q-14.34 30.45-42.13 49.37a.53.52-38.4 00-.1.8l6.53 7.14a.72.72 0 01-.28 1.17q-20.41 7.44-42.86 6.64-4.88-.18-13.51-2.39c-7.95-2.04-13.88-3.56-19.28-7.72a.92.92 0 01.13-1.55q.67-.35 1.6-.56l12.15-2.8q19.75-4.71 34.09-18.33a1 1 0 011.49.15l5.22 7.54a.7.7 0 001.08.08c9.39-10.19 16.44-22.3 19.77-36.08 2.1-8.7 3.73-16.71 3.6-25.08q-.07-4.67.17-8.48.03-.45-.24-.63a.39.38 28.2 00-.57.17q-12.64 30.92-42.92 45.77a.37.37 0 00-.1.58l7.71 8.42a.6.6 0 01.12.63c-2.89 7.43-8.56 10.69-15.97 13.69-9.14 3.7-17.04 5.09-26.21 2.97-7.48-1.73-15.97-7.34-17.02-15.42-.59-4.51.04-8.97 1.5-14.61q3.24-12.5 11.1-23.05 2.39-3.2 18.43-17.8c37.42-34.09 70.55-64.9 109.78-100.58q13.48-12.26 26.39-24.12Q905.36 623.05 906.9 621.65q13.02-11.75 33.83-31.26a.37.35 46.1 000-.52l-22.7-22.32a.4.4 0 00-.54 0q-66.41 65.79-125.27 123.26-1.9 1.86-3.26 3.05c-2.82 2.45-5.39 5.52-7.9 7.95q-16.64 16.05-32.8 31.95-24.72 24.32-26.23 25.84c-6.34 6.34-13.45 12.76-19.51 19.17-2.58 2.72-5.4 5.14-8.65 8.35q-43.91 43.24-85.3 83.71c-8.21 8.02-14.66 15.33-25.08 19.35-3.93 1.51-8.24 3.37-11.99 3.8-12.84 1.47-24.09-8.86-27.13-20.77q-5.56-21.84 12.92-36.78a1.5 1.5 0 011.97.06l9.51 8.72a.6.6 0 00.92-.16c10.79-20.54 29.95-35.33 51.54-42.81q.78-.27 1.04-.58a.26.26 0 00-.21-.43c-6.89.14-12.89.18-20.05 1.52q-9.37 1.75-10.97 2.07-18.14 3.62-34.26 13.72-4.96 3.11-10.94 7.32a.35.35 0 00-.03.54l6.67 6.11a.47.47 0 01-.03.72q-11.14 8.8-16.95 21.22c-3.01 6.41-4.63 14.82-5.62 21.75a.54.53 30.8 01-.96.24q-6.4-8.62-9.08-19.02-6.63-25.71 4.57-49.54a.95.95 0 011.51-.3l5.98 5.47a.51.5 36 00.78-.12c11.34-20.17 32.55-34.46 54.18-41.57a.2.2 0 000-.38m-10.42-179.89a.85.85 0 00.03 1.22l158.46 145.25a.85.85 0 001.17-.02l16.64-16.36a.85.85 0 000-1.22L599.27 569.09a.85.85 0 00-1.21.01zM930.4 772.44q20.94 6.97 37.36 21.75 8.78 7.9 14.51 18.15a.9.9 0 001.31.3l7.03-4.87a.7.7 0 011.03.24c10.34 18.75 10.16 42.19 1.99 61.97q-1.89 4.6-4.68 8.11a1.3 1.3 0 01-2.31-.73q-.54-8.73-3.1-17.16-2.19-7.23-8.63-16.58c-2.85-4.14-6.14-6.7-10.36-10.79a.73.73 0 01.09-1.13l7.42-5.14a.62.61-43.5 00.03-.99c-13.36-10.45-29.66-17.26-46.34-20.27-10.84-1.95-19.93-2.91-29.36-2.05a.39.39 0 00-.08.76c20.69 6.83 41.3 21.53 51.3 41.35a.53.53 0 00.83.15l8.82-8.07a.99.98 44.8 011.33 0c2.1 1.92 4.62 3.59 6.59 5.65q9.74 10.16 9.5 24.33c-.22 12.99-7.5 25.76-20.54 29.08-10.25 2.61-26.46-4.78-33.76-12-35.53-35.12-71.02-70.28-106.46-104.55q-18.21-17.61-33.76-33.21a.71.7-43.5 00-.97-.02l-16.64 15.25a.7.69-45.3 000 1.03c28.55 25.55 65.45 59.84 128.76 118.15q9.7 8.94 12.98 13.85c7.22 10.82 12.14 26.19 9.46 39.59-1.95 9.73-13.68 14.59-22.76 14.12q-9.09-.47-17.59-3.68c-6.53-2.47-10.02-5.59-14.4-11.15a1.42 1.41-43 01.07-1.83l8.02-8.75a.75.74-56.7 00-.24-1.18q-17.19-7.91-29.53-22.98-8.86-10.82-13.1-22.88a.3.3 0 00-.58.09q-.01.33.11 11.95c.1 8.61 2.01 15.92 4.28 24.15q1.71 6.19 4.69 11.72 6.49 12.1 14.68 21a.66.65-44.7 00.97 0l4.85-5.29a.59.58-47.4 01.83-.04c9.04 8.33 21.9 14.62 32.93 17.15q10.37 2.39 16.27 2.86a.58.58 0 01.33 1.03 27 27 0 01-9 5.01q-32.97 11.19-65.84-1.3a.63.62-58.1 01-.23-1.01l4.58-5a.53.52-49.6 00-.06-.77q-4.75-3.69-11.51-9.41c-7.93-6.71-14.59-14.96-20.29-22.49-3.88-5.13-6.21-10.64-9.39-16.63-.51-.95-.63-2.28-1.71-3.17a.43.43 0 00-.7.31q-.28 7.38.97 15.38 1.82 11.62 4.81 20.54 3.85 11.47 12.41 23.31 2.22 3.07 9.87 10.07a.5.49-47 00.7-.03l4.42-4.82a.8.8 0 01.89-.18q20.09 9.12 41.77 7.59a96 96 0 0037.71-10.3q4.7-2.36 10.98-7.28 11.7-9.17 17.28-22.05c4.95-11.4 5.08-21.74 1.64-33.46a.53.53 0 01.72-.64q11.3 4.95 23.67 3.31c15.81-2.11 27.77-11 36.33-24 15.84-24.06 16.64-54.82 3.49-80a.9.9 0 01.28-1.13l7.54-5.22a.5.5 0 00.03-.8q-14.81-11.92-32.77-18.35-20.15-7.22-41.67-6.6a.35.35 0 00-.1.68"/><path fill="#e00101" d="M1522.23 0q.32.34.77.5v1031.13q-.6.09-.98.37H782.27q2.97-15.59 3.26-26.25.56-20.63-2.64-39.73-1.98-11.84-7.02-26.93-6.36-19-17.16-34.81c-8.15-11.91-14.14-23.29-18.01-37.31q-8.32-30.17-.39-61.15.51-1.98 4.35-13.14c2.66-7.72 7.95-16.61 10.25-22.82a1.84 1.68 76.2 01.24-.44l1.79-2.4a.98.97 39.8 011.45-.13q6.58 6.19 7.89 7.22c4.56 3.57 8.71 8.05 12.88 11.73q3.14 2.77 14.2 12.93l77.75 71.39q8.67 7.96 10.02 9.14c5.64 4.95 9.7 8.94 15.25 14.1q2.11 1.96 4.85 7.14c4.65 8.78 8.12 18 8.21 27.75q.08 9.51-9.42 14.03c-7.36 3.5-14.15 2.38-21.92-.13q-7.61-2.47-14.37-8.25a.97.97 0 01-.08-1.4l10.99-11.99a.27.27 0 00-.1-.43q-7.42-3.26-14.31-7.11c-4.07-2.27-8.68-5.08-12.44-8.98q-4.29-4.45-8.96-10-3.89-4.61-7.24-11.23-5.23-10.34-8.66-18.89a.52.52 0 00-.98.03c-1.25 3.9-2.14 6.44-2.59 10.47q-2.15 19.4 3.02 38.71.85 3.19 6.2 14.83 4.01 8.71 11.81 17.32c2.06 2.28 4.69 4.26 6.76 6.7a.5.5 0 00.72.02l6.15-6.71a.79.78 42.7 011.11-.04q4.35 4.12 10.06 7.05 12.77 6.55 26.45 9.49a.52.52 0 01.32.8q-.19.29-.62.47c-6.99 2.95-14.55 3.27-23.35 3.97-11.46.91-21.66-.49-32.98-4.31a.84.84 0 01-.32-1.39l4.16-4.09a.59.58 40.8 00-.07-.89q-9.89-7.05-20.86-17.28-6.4-5.97-10.75-11.89-7.97-10.88-9.31-13.3-3.61-6.54-8.28-17.09a.67.67 0 00-1.22-.01c-2.05 4.47-3.19 9-2.99 14.12q.57 14.55 2.77 23.04 3.11 11.98 7.73 22.23 1.89 4.2 6.15 9.84 6.47 8.55 14.78 15.92a.56.56 0 00.78-.04l6-6.55a.9.9 0 011.08-.21c10.67 4.96 25.14 7.99 36.87 7.76q32.25-.63 56.23-19.58 10.75-8.5 17.24-22.55c4.2-9.11 4.75-19.35 3.46-29.1a.54.54 0 01.64-.6q6.62 1.24 14.95 1.13c5.73-.08 11.58-1.61 16.49-3.41 5.35-1.97 10-5.69 15.03-9.4q3.41-2.52 6.66-6.47 13.97-16.97 17.11-37.46c1.43-9.33 1.82-22.55-1.06-32.83-2.04-7.28-3.05-11.54-6.46-17.09a1 .98 56.8 01.27-1.33l8.66-6a.6.6 0 00.1-.92q-3.05-3.33-7-6.39-12.15-9.4-26.6-15.29-6.23-2.54-12.33-3.85c-4.62-1-11.23-2.92-16.92-3.37q-8.69-.68-19.5-.27-4.53.18-8.98 2.25a.38.38 0 00.04.71q18.52 6.45 34.8 17.67c5.6 3.85 10.76 9.81 13.88 13.06q7.47 7.81 11.74 18.13a.57.57 0 00.88.23l8.32-6.73a.74.74 0 011.15.3 65 65 0 014.99 21.89c.45 10.24-.85 22.69-5.45 32.69a.31.31 0 01-.59-.07c-2.25-13.03-8.79-25.96-18.67-34.92a.64.64 0 01.06-1l8.43-5.84a.8.8 0 00-.04-1.35c-2.91-1.81-5.87-4.85-8.83-6.72-7.69-4.86-13.33-8.47-21.31-11.18-5.81-1.97-9.46-3.68-14.58-4.64q-16.38-3.06-18.6-3.11-13.07-.32-19.72-.13-5.29.16-9.45 3.09a.3.3 0 00.06.52q11.26 4.42 21.73 9.97 13.5 7.15 23.39 18.69c5.45 6.38 9.8 14.4 13.21 21.81a.4.4-33.4 00.64.13l12.77-11.7a1.04 1.03-48.6 011.3-.09q5.07 3.49 7.65 8.88 7.31 15.31.08 29.23-3.38 6.51-8.25 9.33c-10.4 6.02-20.75 1.45-29.85-4.43-5.21-3.36-9.01-8.18-13.39-12.54q-43.22-42.99-70.32-69.32-38.55-37.47-61.4-59.79a.77.76-44.2 01.02-1.11l165.34-151.42a.6.6 0 00.02-.89l-10.03-10.21a.64.64 0 01.01-.9l3.03-2.98a.85.84-52 011.01-.13q11.02 6.36 23.68 6.91c6.28.27 15.17-.07 21.35-2.4 10.79-4.08 17.18-9.39 24.18-17.94 2.34-2.86 3.68-6.33 4.92-8.92q4.87-10.09 3.91-21.36-1.65-19.44-16.48-32.41-10.05-8.78-23.87-11.39-7.76-1.47-13.53-1.01-21.61 1.75-35.93 17.08c-9 9.62-13.57 22.98-11.76 36.19a1.06 1.06 0 001.41.86l12.85-4.53a.9.89 80.1 00.6-.86c-.01-4.38.45-8.64 2.58-12.78 2.58-5.01 5.51-9.89 10.12-13.04 4.75-3.23 10.59-6.34 16.59-7.06q16.75-2.02 28.95 7.46 6.95 5.41 10.45 15.05 4.61 12.69-2.63 24.5c-2.69 4.39-6.3 8.92-11.09 11.73q-10.75 6.3-23.39 5.15-14.22-1.29-23.77-11.87a.62.61 49.1 00-.85-.07l-14.79 11.95a.74.74 0 01-1-.06l-7.43-7.55a.3.29-43.6 00-.42 0l-128.8 126.6a.45.44-25.5 01-.75-.26c-2.24-20.03-8.44-38.81-19.64-56-2.95-4.54-5.72-7.54-9.76-12.1a93 93 0 01-19.75-37.13q-10.21-39.05 11.07-73.38.17-.27.42-.29.6-.05.57.56-.13 2.41.16 4.39 2.18 15.05 4.93 37.98a.35.35 0 00.69-.01q2.14-19.83 3.64-30.22 2.97-20.46 4.76-35.74c.22-1.83 2.81-4.86 3.58-6.04q9.85-14.98 14.55-30.07.8-2.54 3.27-14.23 1.62-7.62 1.86-14.44.68-19.6-5.01-38.51c-1.88-6.28-3.04-9.84-5.88-14.95a1.12 1.11-21.4 01.71-1.62c13.53-3.37 24.82-11.51 33.56-21.21 10.41-11.53 16.2-27.54 16.28-43.11.03-6.06-1.79-13.06-3.35-18.95-1.36-5.11-4.24-9.53-7.76-15.34-4.08-6.73-9.52-11.35-15.51-16.37q-4.95-4.15-12.47-7.54-23.61-10.68-49.51-4.26a.7.7.4 01-.83-.83c1.58-6.05 4.12-11.59 6.21-17.42a.89.88 28.2 011.37-.41c3.97 2.97 7.54 3.4 13.06 3.37 6.99-.04 12.75-4.17 15.55-10.33q1.76-3.87.82-14.13-.73-7.97-1.81-14.25a5.15 5.1-36 01.55-3.34c5.12-9.47 9.39-20.09 11.75-30.81l2.33-10.61q.88-4.16 1.92-16.04c1.24-14.15.19-28.02-2.4-41.22q-5.9-30.03-21.96-52.75Q753.43 9.37 747.76 0zM862.15 64.03q-.4.21-.7.69-24.09 39.03-45.37 75.09c-1.65 2.79-3.92 5.68-5.24 8.11q-3.68 6.73-8.37 13.87c-2.94 4.47-5.78 10.48-8.94 14.75q-3.06 4.16-3.47 7.05c-2.16 15.3 12.99 26.42 27.03 19.92 3.52-1.63 7.96-6.29 9.31-9.57q1.8-4.36 4.03-13.35c5.61-22.57 12.97-46.22 19.17-69.9q5.9-22.55 12.85-46.41a.21.21 0 00-.3-.25m87.39 53.4a.3.3 0 00-.44-.02c-10.57 8.76-21.38 16.34-32.75 25.17q-43.71 33.97-65.97 51.1-15.39 11.84-16.22 12.45-7.21 5.29-14.34 10.76-5.5 4.21-7.01 7.24c-3.1 6.2-3.1 13.86 1.82 19.3 6.89 7.64 16.37 9.65 25.52 4.27a6.05 5.86-82.8 001.2-.96q4.64-4.9 7.38-8.45 3.4-4.42 7.63-9.03 5.43-5.93 14.36-17.38c1.7-2.18 4.06-4.44 5.49-6.18q12.56-15.32 33.85-41.15c3.67-4.45 7.05-7.83 9.51-11.5 1.8-2.69 5.03-5.6 7-7.97q20.01-24.04 22.98-27.22a.3.3 0 000-.42zm62.36 83.25q-26.87 6.43-47.23 11.43-71.79 17.65-72.87 17.7-.64.03-6.24 1.77-3.23 1-10.83 2.62-14.82 3.15-15.47 18.85-.28 6.82 5.08 11.71 4.56 4.15 8.96 4.92c3.42.6 9.23.61 12.72-1.15q4.4-2.21 13.53-7.77c3.86-2.34 8.4-4.02 12.3-6.11q25.91-13.89 50.28-27 10.84-5.83 18.86-10.68c2.09-1.26 6.1-2.63 8.61-4.06q7.49-4.29 22.41-11.93a.16.16 0 00-.11-.3m-171.82 98.13q.02 4.77 1.36 7.33c4.91 9.33 12.78 11.3 22.54 10 6.53-.87 11.32-.96 18.53-1.98q4.45-.63 14.51-1.62 11.97-1.16 71.78-7.81c11.32-1.26 26.62-2.53 39.77-4.28q4.73-.63 10.9-1.1 10.86-.83 10.86-1.28t-10.87-1.2q-6.17-.42-10.91-1.01c-13.16-1.65-28.47-2.8-39.8-3.97q-59.86-6.18-71.84-7.25-10.07-.91-14.52-1.51c-7.22-.96-12.01-1.01-18.55-1.83-9.77-1.22-17.62.81-22.46 10.18q-1.32 2.56-1.3 7.33m169.71 100.25q-5.59-3.23-18.07-10.72-4.05-2.43-6.42-3.62c-5.63-2.83-11.15-6.69-15.91-9.07-5.78-2.88-10.53-6.13-16.61-9.41q-10.52-5.66-19.27-10.66l-33.82-19.32q-5.74-3.48-11.67-6.68a3.94 3.76-25.4 00-1.24-.41q-7.55-1.12-13.38 1.03-14.13 5.22-10.99 21.13 1.15 5.81 7.56 10.25c2.48 1.72 6.82 2.26 9 3 7.34 2.49 13.96 3.83 23.01 6.29q30.45 8.31 45.2 12.02c5.61 1.41 10.85 3.22 16.41 4.38q4.31.89 12.29 3.15 16.74 4.74 33.8 8.92a.15.15 0 00.11-.28M947.8 477.6a.3.3-42.7 00.02-.39q-16.41-20-34.37-40.93c-2.8-3.27-5.73-7.31-8.58-10.31q-2.48-2.6-6.47-7.69-2.98-3.8-9.47-11.45l-17.31-20.4c-5.67-6.67-12.2-13.65-17.4-20.36q-1.45-1.88-8.5-9.85c-4.91-5.56-9.6-8.28-16.55-7.51-9.67 1.09-18.07 8.78-17.73 19.07.19 5.89 2.62 9.57 7.63 13.69 6.28 5.16 13.19 9.47 18.5 13.66q5.52 4.35 8.84 6.78 20.72 15.12 46.56 34.31 2.63 1.95 5.17 3.98c4.87 3.89 9.75 6.9 13.95 10.43 6.7 5.64 14.11 10.55 20.31 15.71 4.26 3.56 10.25 7.14 14.97 11.28a.3.3 0 00.42-.01zm-86.72 55.04c-.41-1.83-1.29-3.47-1.78-5.45q-4.67-18.61-7.86-30.04c-2.47-8.83-4.52-18.11-6.73-25.42-3.6-11.98-5.68-22.17-9.41-34.41q-.15-.51-3.03-11.59-1.28-4.93-3.23-11.59-1.49-5.08-3.42-7.3c-4.73-5.45-12-8.43-19.14-6.93q-3.46.73-8.13 4.17c-6.09 4.49-7.66 11.47-6.35 18.5q.48 2.57 5.33 9.95 8.43 12.84 9.2 13.94c3.9 5.56 6.86 11.52 11.12 17.81q4.01 5.91 8.46 13.23 14.49 23.79 34.43 55.35a.3.29 22.6 00.54-.22"/><path fill="#017ad1" d="M1523 0v.5q-.45-.16-.77-.5z"/><path fill="#010101" d="M656.02 63.53q4.84 8.2 9.93 16.29 17 27.03 26.65 43.08 3.21 5.35 5.93 9.15c2.81 3.92 4.79 8.54 7.45 12.49q1.21 1.8 14.99 23.65 6.51 10.32 7.11 12.77 1.76 7.2-1.92 14.18c-4.69 8.89-17.82 12.71-25.99 6.78q-7.1-5.16-8.93-11.83l-2.91-10.59q-13.75-47.56-32.88-115.73a.31.31 0 01.57-.24m59.74 135.95c6.95-3.07 10.11-10.77 8.12-18.21a3.58 3.44 23.1 00-.39-.91q-7.67-12.61-18.46-29.93-31.6-50.69-37.42-60.64-.18-.3-.42-.19t-.14.44q3.44 11 19.66 68.49 5.54 19.64 9.71 33.8a3.58 3.44-70.8 00.41.9c4.16 6.48 11.98 9.32 18.93 6.25M862.15 64.03a.21.21 0 01.3.25q-6.95 23.86-12.85 46.41c-6.2 23.68-13.56 47.33-19.17 69.9q-2.23 8.99-4.03 13.35c-1.35 3.28-5.79 7.94-9.31 9.57-14.04 6.5-29.19-4.62-27.03-19.92q.41-2.89 3.47-7.05c3.16-4.27 6-10.28 8.94-14.75q4.69-7.14 8.37-13.87c1.32-2.43 3.59-5.32 5.24-8.11q21.28-36.06 45.37-75.09.3-.48.7-.69m-11.01 26.65a.33.32 68.5 00-.59-.26q-33.79 55.84-52.29 85.84-1.92 3.1-3.09 5.67c-2.91 6.37-.02 14.32 6.15 17.47 8.44 4.31 17.23 1.31 21.62-7.23a2.98 2.73-26.5 00.23-.6z"/><path fill="#f8c800" d="M757.05 77.48q.26 0 .32.43c5.23 43.76 11.36 90.4 15.29 123.57 1.08 9.16-5.15 16.46-14.36 16.54-9.22.08-15.58-7.11-14.65-16.29 3.34-33.23 8.65-79.97 13.11-123.81q.05-.43.29-.44M667.19 89.6q.24-.11.42.19 5.82 9.95 37.42 60.64 10.79 17.32 18.46 29.93a3.58 3.44 23.1 01.39.91c1.99 7.44-1.17 15.14-8.12 18.21s-14.77.23-18.93-6.25a3.58 3.44-70.8 01-.41-.9q-4.17-14.16-9.71-33.8-16.22-57.49-19.66-68.49-.1-.34.14-.44m183.95 1.08-27.97 100.89a2.98 2.73-26.5 01-.23.6c-4.39 8.54-13.18 11.54-21.62 7.23-6.17-3.15-9.06-11.1-6.15-17.47q1.17-2.57 3.09-5.67 18.5-30 52.29-85.84a.33.32 68.5 01.59.26"/><path fill="#010101" d="M567.16 117.36a.27.27 0 01.42-.29q36.35 28.15 62.44 47.93 8.03 6.09 19.48 15.03c9.77 7.62 18.17 13.56 26.07 20.11q6.78 5.62 19.17 14.69 7.13 5.22 8.91 8.21 3.26 5.46 2.86 11.86a4.02 3.77-35.6 01-.21 1.06q-2.86 8.35-8.79 11.89-11.94 7.12-22.62-1.89-1.52-1.29-7.41-8.43-5.48-6.65-7.36-8.86-42.79-50.38-92.49-110.55-.36-.43-.47-.76M592.63 142c1.05 2.26 3.24 3.75 5.29 6.21q53.31 63.87 63.22 75.4 12.66 14.73 13.3 15.73c2.95 4.59 7.39 7.29 12.33 7.13 6.22-.18 12.37-3.15 14.62-9.13 1.66-4.39.95-12.02-3.13-14.88q-3.39-2.38-8.69-6.6c-7.99-6.36-17.83-13.5-24.05-18.33q-33.52-26.04-72.73-55.66a.11.11 0 00-.16.13m356.91-24.57a.3.3 0 010 .42q-2.97 3.18-22.98 27.22c-1.97 2.37-5.2 5.28-7 7.97-2.46 3.67-5.84 7.05-9.51 11.5q-21.29 25.83-33.85 41.15c-1.43 1.74-3.79 4-5.49 6.18q-8.93 11.45-14.36 17.38-4.23 4.61-7.63 9.03-2.74 3.55-7.38 8.45a6.05 5.86-82.8 01-1.2.96c-9.15 5.38-18.63 3.37-25.52-4.27-4.92-5.44-4.92-13.1-1.82-19.3q1.51-3.03 7.01-7.24 7.13-5.47 14.34-10.76.83-.61 16.22-12.45 22.26-17.13 65.97-51.1c11.37-8.83 22.18-16.41 32.75-25.17a.3.3 0 01.44.02m-26.86 25.65a.4.39 47.7 00-.54-.03c-8.44 7.01-17.12 13.2-26 20.07q-55.17 42.67-62.37 48.13-6.56 4.97-12.17 9.34c-4.31 3.36-7.14 6.46-6.68 11.8 1.18 13.54 13.86 17.74 24.84 10.98a3.08 2.93 1.4 00.83-.75q3.37-4.5 4.58-5.95 36.12-43.32 58.44-70.55 13.88-16.93 19.08-22.4a.45.45 0 000-.62z"/><path fill="#f8c800" d="M592.63 142a.11.11 0 01.16-.13q39.21 29.62 72.73 55.66c6.22 4.83 16.06 11.97 24.05 18.33q5.3 4.22 8.69 6.6c4.08 2.86 4.79 10.49 3.13 14.88-2.25 5.98-8.4 8.95-14.62 9.13-4.94.16-9.38-2.54-12.33-7.13q-.64-1-13.3-15.73-9.91-11.53-63.22-75.4c-2.05-2.46-4.24-3.95-5.29-6.21m330.05 1.08.01.02a.45.45 0 010 .62q-5.2 5.47-19.08 22.4-22.32 27.23-58.44 70.55-1.21 1.45-4.58 5.95a3.08 2.93 1.4 01-.83.75c-10.98 6.76-23.66 2.56-24.84-10.98-.46-5.34 2.37-8.44 6.68-11.8q5.61-4.37 12.17-9.34 7.2-5.46 62.37-48.13c8.88-6.87 17.56-13.06 26-20.07a.4.39 47.7 01.54.03"/><path fill="#010101" d="M502.74 198.17c11.45 3.16 23.55 5.82 34.52 8.61q69.59 17.72 83.56 21.4c2.56.68 7.65 2.49 11.38 3.1q7.17 1.18 14.12 4.11c9.22 3.89 11.12 11.6 10.03 20.77-.73 6.16-7.37 11.44-13.09 13.04a6.81 6.68-53.7 01-1.36.22q-2.18.12-8.14-.13-2.21-.09-6.3-2.51-11.96-7.07-22.21-12.25-5.19-2.62-15.36-8.21c-6.5-3.58-19.71-10.47-27.8-15.04q-6.81-3.85-12.57-6.52c-2.86-1.33-7.07-4.2-10.62-6.03q-11.32-5.83-16.96-9.32c-7.27-4.49-11.04-6.17-19.48-10.53a.38.38 0 01.28-.71m27.7 11.28q-.09.23.23.4 48.59 26.13 98.75 53.07 4.82 2.58 6.88 2.84c6.46.78 13.29-2.83 15.63-8.83s-.22-13.28-5.5-17.08q-1.69-1.21-6.99-2.58-55.13-14.21-108.56-27.95-.36-.09-.44.13m481.46-8.77a.16.16 0 01.11.3q-14.92 7.64-22.41 11.93c-2.51 1.43-6.52 2.8-8.61 4.06q-8.02 4.85-18.86 10.68-24.37 13.11-50.28 27c-3.9 2.09-8.44 3.77-12.3 6.11q-9.13 5.56-13.53 7.77c-3.49 1.76-9.3 1.75-12.72 1.15q-4.4-.77-8.96-4.92-5.36-4.89-5.08-11.71.65-15.7 15.47-18.85 7.6-1.62 10.83-2.62 5.6-1.74 6.24-1.77 1.08-.05 72.87-17.7 20.36-5 47.23-11.43m-28.6 10.87q-.14-.03-.52.07c-16.45 4.28-38.13 9.17-53.39 13.23-5.47 1.46-10.24 2.14-15.37 3.65q-4.1 1.2-11.46 2.97-19.43 4.65-25.49 6.15-5.81 1.42-8.06 3.36c-4.03 3.49-7.57 9.72-5.21 15.31 2.91 6.87 8.02 10.55 15.3 9.96q4.08-.33 9.52-3.61c4.98-3.01 9.5-4.75 15.63-8.11q15.47-8.48 42.31-22.61c12.04-6.33 24.45-13.68 36.83-19.65a.38.38 0 00-.09-.72"/><path fill="#f8c800" d="M651.93 256.93c-2.34 6-9.17 9.61-15.63 8.83q-2.06-.26-6.88-2.84-50.16-26.94-98.75-53.07-.32-.17-.23-.4.08-.22.44-.13 53.43 13.74 108.56 27.95 5.3 1.37 6.99 2.58c5.28 3.8 7.85 11.09 5.5 17.08m331.37-45.38a.38.38 0 01.09.72c-12.38 5.97-24.79 13.32-36.83 19.65q-26.84 14.13-42.31 22.61c-6.13 3.36-10.65 5.1-15.63 8.11q-5.44 3.28-9.52 3.61c-7.28.59-12.39-3.09-15.3-9.96-2.36-5.59 1.18-11.82 5.21-15.31q2.25-1.94 8.06-3.36 6.06-1.5 25.49-6.15 7.36-1.77 11.46-2.97c5.13-1.51 9.9-2.19 15.37-3.65 15.26-4.06 36.94-8.95 53.39-13.23q.38-.1.52-.07"/><ellipse fill="#f8c800" rx="63.4" ry="59.98" transform="rotate(-.7 24972.75 -61933.06)"/><path fill="#010101" d="M676.94 299.03c-.07 5.39-1.74 9.88-5.93 13.46-4.76 4.07-9.18 4.77-16.01 4.08q-5.58-.56-13.45-1.42-101.35-11.1-127.53-14.33-16.52-2.03-33.01-3.84-.65-.07-.64-.46 0-.39.65-.45 16.53-1.38 33.1-2.99 26.25-2.56 127.85-11.07 7.89-.65 13.49-1.07c6.84-.52 11.24.3 15.89 4.48 4.11 3.7 5.66 8.22 5.59 13.61M517.12 297q0 .51 20.23 2.46 11.05 1.06 20.3 2.18c35.65 4.3 71.74 7.84 92.61 10.49 2.37.3 8.08 1.17 11.03.66a14.5 14.5 0 0011.84-13.85 14.5 14.5 0 00-11.5-14.15c-2.93-.58-8.66.15-11.03.39-20.93 2.13-57.1 4.77-92.85 8.18q-9.27.89-20.35 1.68-20.27 1.44-20.28 1.96m513.21 1.07q0 .45-10.86 1.28-6.17.47-10.9 1.1c-13.15 1.75-28.45 3.02-39.77 4.28q-59.81 6.65-71.78 7.81-10.06.99-14.51 1.62c-7.21 1.02-12 1.11-18.53 1.98-9.76 1.3-17.63-.67-22.54-10q-1.34-2.56-1.36-7.33t1.3-7.33c4.84-9.37 12.69-11.4 22.46-10.18 6.54.82 11.33.87 18.55 1.83q4.45.6 14.52 1.51 11.98 1.07 71.84 7.25c11.33 1.17 26.64 2.32 39.8 3.97q4.74.59 10.91 1.01 10.87.75 10.87 1.2m-186.45.71c.02 5.92 4.57 11.42 9.59 13.28q2.93 1.09 10.64.25c42.18-4.57 83.98-9.34 125.91-13.68q1.12-.12 1.12-.38t-1.12-.37c-41.96-4.04-83.8-8.51-126.01-12.77q-7.71-.79-10.63.32c-5.01 1.9-9.52 7.44-9.5 13.35"/><path fill="#f8c800" d="M673.13 298.94a14.5 14.5 0 01-11.84 13.85c-2.95.51-8.66-.36-11.03-.66-20.87-2.65-56.96-6.19-92.61-10.49q-9.25-1.12-20.3-2.18-20.23-1.95-20.23-2.46.01-.52 20.28-1.96 11.08-.79 20.35-1.68c35.75-3.41 71.92-6.05 92.85-8.18 2.37-.24 8.1-.97 11.03-.39a14.5 14.5 0 0111.5 14.15m318.01-.69q0 .26-1.12.38c-41.93 4.34-83.73 9.11-125.91 13.68q-7.71.84-10.64-.25c-5.02-1.86-9.57-7.36-9.59-13.28s4.49-11.45 9.5-13.35q2.92-1.11 10.63-.32c42.21 4.26 84.05 8.73 126.01 12.77q1.12.11 1.12.37"/><path fill="#010101" d="M1009.79 399.06a.15.15 0 01-.11.28q-17.06-4.18-33.8-8.92-7.98-2.26-12.29-3.15c-5.56-1.16-10.8-2.97-16.41-4.38q-14.75-3.71-45.2-12.02c-9.05-2.46-15.67-3.8-23.01-6.29-2.18-.74-6.52-1.28-9-3q-6.41-4.44-7.56-10.25-3.14-15.91 10.99-21.13 5.83-2.15 13.38-1.03a3.94 3.76-25.4 011.24.41q5.93 3.2 11.67 6.68l33.82 19.32q8.75 5 19.27 10.66c6.08 3.28 10.83 6.53 16.61 9.41 4.76 2.38 10.28 6.24 15.91 9.07q2.37 1.19 6.42 3.62 12.48 7.49 18.07 10.72m-26.17-10.46a.23.23 0 00.17-.42l-96.68-54.61a5.88 5.61-22.1 00-1.47-.58c-13.38-3.28-26.89 10-16.16 22.53q2.87 3.35 5.65 4.11 37.44 10.32 59.9 16.07 9.53 2.45 12.37 3.28c9.39 2.76 15.92 3.85 24.3 6.46q1.23.39 11.92 3.16m-478.78 11.95a.22.22 0 01.03-.36q11.38-6.6 12.36-7.1c6.42-3.31 12.82-7.97 20.1-11.5 5.54-2.69 9.73-6.28 14.99-8.59q4.14-1.81 9.68-5.21 2.37-1.45 9.55-5.42 26.79-14.83 56.75-31.8 2.85-1.62 6.45-1.6c7.86.03 16.85 4 19.57 11.73 2.51 7.1.24 15.27-5.54 20.28q-2.38 2.06-8.6 4.06-7.97 2.56-9.45 2.93-28.92 7.28-56.98 15.27-8.57 2.45-12.95 3.29c-10.01 1.93-17.27 4.71-27.99 7.11q-8.23 1.84-14.98 4.04c-3.85 1.25-7.33 1.76-12.37 3.02q-.32.08-.62-.15m26.65-10.97q.09.22.56.07c7.01-2.29 13.85-3.39 20.92-5.65 5.13-1.64 10.97-2.53 16.43-4.16q3.86-1.15 8.82-2.46 52.87-13.88 61.82-16.52c8.22-2.43 13.36-11.15 10.07-19.29-3.3-8.15-13.06-10.83-20.65-6.86q-8.27 4.33-55.91 31.13-4.48 2.51-8.05 4.37c-5.06 2.62-9.87 6.05-14.7 8.44-6.65 3.29-12.33 7.26-18.96 10.49q-.44.21-.35.44"/><path fill="#f8c800" d="M983.62 388.6q-10.69-2.77-11.92-3.16c-8.38-2.61-14.91-3.7-24.3-6.46q-2.84-.83-12.37-3.28-22.46-5.75-59.9-16.07-2.78-.76-5.65-4.11c-10.73-12.53 2.78-25.81 16.16-22.53a5.88 5.61-22.1 011.47.58l96.68 54.61a.23.23 0 01-.17.42m-333.51-47.03c3.29 8.14-1.85 16.86-10.07 19.29q-8.95 2.64-61.82 16.52-4.96 1.31-8.82 2.46c-5.46 1.63-11.3 2.52-16.43 4.16-7.07 2.26-13.91 3.36-20.92 5.65q-.47.15-.56-.07-.09-.23.35-.44c6.63-3.23 12.31-7.2 18.96-10.49 4.83-2.39 9.64-5.82 14.7-8.44q3.57-1.86 8.05-4.37 47.64-26.8 55.91-31.13c7.59-3.97 17.35-1.29 20.65 6.86"/><path fill="#010101" d="M567.36 479.93a.33.33 0 01-.22-.52c1.63-2.21 3.94-4.43 5.87-6.82q19.7-24.46 23.27-28.57 8.29-9.53 11.95-14.06 10.12-12.52 40.36-47.63 6.36-7.39 8.06-9.45c6.19-7.5 12.36-14.12 17.45-20.18a4.82 4.31-84.2 01.82-.75c11.1-7.81 24.52-2.86 29.65 9.44q1.56 3.75.72 7.99-1.78 8.97-9.78 14.42-5.74 3.93-16.18 11.77-43.36 32.62-91.49 69.24c-5.93 4.51-13.04 9.58-20.12 15.08a.1.08-52 01-.04.01q-.24.04-.32.03m24.39-23.05c4.54-4.3 9.26-6.87 14.44-11.13q6.38-5.24 14.7-10.96c2.5-1.72 4.99-4.04 7.62-6.03q27.47-20.81 46.54-34.96 2.45-1.81 18.68-14.19 5.02-3.83 6.28-6.44c3.16-6.53.37-15.67-6.23-18.7q-7.42-3.41-14.89.14-2.47 1.17-7.28 7.28-4.12 5.22-10.95 12.27c-3.55 3.67-8.16 10.48-12.51 14.87-4.37 4.42-7.96 9.59-12.28 14.57-13.19 15.21-29.28 35.02-44.59 52.9a.27.26-47.5 00.01.36l.02.01a.32.31 45.7 00.44.01M947.8 477.6a.3.3 0 01-.42.01c-4.72-4.14-10.71-7.72-14.97-11.28-6.2-5.16-13.61-10.07-20.31-15.71-4.2-3.53-9.08-6.54-13.95-10.43q-2.54-2.03-5.17-3.98-25.84-19.19-46.56-34.31-3.32-2.43-8.84-6.78c-5.31-4.19-12.22-8.5-18.5-13.66-5.01-4.12-7.44-7.8-7.63-13.69-.34-10.29 8.06-17.98 17.73-19.07 6.95-.77 11.64 1.95 16.55 7.51q7.05 7.97 8.5 9.85c5.2 6.71 11.73 13.69 17.4 20.36l17.31 20.4q6.49 7.65 9.47 11.45 3.99 5.09 6.47 7.69c2.85 3 5.78 7.04 8.58 10.31q17.96 20.93 34.37 40.93a.3.3-42.7 01-.02.39m-24.94-24.02.01-.03-.01-.07q-1.97-2.3-23.74-28.12-10.78-12.8-21.9-26.21c-4.87-5.88-9.5-10.67-13.12-15.23-6.98-8.8-14.78-17.06-20.91-24.78q-3.04-3.84-5.57-4.96c-13.13-5.83-27.1 6.48-20.26 20.04q1.07 2.13 2.43 3.06c8.72 6.05 16.65 12.9 24.91 18.42 6.06 4.04 14.14 10.61 22.47 16.73q29.03 21.28 55.46 41.21a.15.15 0 00.23-.06"/><path fill="#f8c800" d="M591.75 456.88a.32.31 45.7 01-.44-.01l-.02-.01a.27.26-47.5 01-.01-.36c15.31-17.88 31.4-37.69 44.59-52.9 4.32-4.98 7.91-10.15 12.28-14.57 4.35-4.39 8.96-11.2 12.51-14.87q6.83-7.05 10.95-12.27 4.81-6.11 7.28-7.28 7.47-3.55 14.89-.14c6.6 3.03 9.39 12.17 6.23 18.7q-1.26 2.61-6.28 6.44-16.23 12.38-18.68 14.19-19.07 14.15-46.54 34.96c-2.63 1.99-5.12 4.31-7.62 6.03q-8.32 5.72-14.7 10.96c-5.18 4.26-9.9 6.83-14.44 11.13m331.11-3.3a.15.15 0 01-.23.06q-26.43-19.93-55.46-41.21c-8.33-6.12-16.41-12.69-22.47-16.73-8.26-5.52-16.19-12.37-24.91-18.42q-1.36-.93-2.43-3.06c-6.84-13.56 7.13-25.87 20.26-20.04q2.53 1.12 5.57 4.96c6.13 7.72 13.93 15.98 20.91 24.78 3.62 4.56 8.25 9.35 13.12 15.23q11.12 13.41 21.9 26.21 21.77 25.82 23.74 28.12l.01.07zm-165.25-71.79c9.11.05 15.29 7.25 14.25 16.31-3.77 32.82-9.67 78.96-14.7 122.25q-.05.43-.31.43-.24 0-.29-.43c-4.56-43.34-9.97-89.55-13.39-122.4-.94-9.08 5.32-16.21 14.44-16.16"/><path fill="#010101" d="M861.08 532.64a.3.29 22.6 01-.54.22q-19.94-31.56-34.43-55.35-4.45-7.32-8.46-13.23c-4.26-6.29-7.22-12.25-11.12-17.81q-.77-1.1-9.2-13.94-4.85-7.38-5.33-9.95c-1.31-7.03.26-14.01 6.35-18.5q4.67-3.44 8.13-4.17c7.14-1.5 14.41 1.48 19.14 6.93q1.93 2.22 3.42 7.3 1.95 6.66 3.23 11.59 2.88 11.08 3.03 11.59c3.73 12.24 5.81 22.43 9.41 34.41 2.21 7.31 4.26 16.59 6.73 25.42q3.19 11.43 7.86 30.04c.49 1.98 1.37 3.62 1.78 5.45m-56.3-127.98c-7.96 3.5-11.76 13.09-6.9 20.8q11.59 18.36 28.95 46.01c3.6 5.75 7.35 10.82 10.31 15.94q1.98 3.42 12.74 20.62a.4.21 68.4 00.24.21q.08 0 .15-.03.08-.03.13-.1a.4.21 64.2 00.01-.31q-5.39-19.56-6.57-23.33c-1.77-5.65-2.97-11.84-4.77-18.38q-8.62-31.49-14.3-52.45c-2.38-8.79-12.03-12.48-19.99-8.98M656.59 533.8a.18.18 0 01-.32-.15 6055 6055 0 0134.48-119.94q2.96-9.93 13.26-12.45c13.95-3.43 26.48 6.82 23.75 21.63q-.51 2.75-3.43 7.27-8.04 12.47-13.62 20.86-3.92 5.89-6.48 10.31c-2.82 4.88-6.32 9.23-9 13.49q-16.9 26.82-38.64 58.98m10.3-23.44a.29.29 0 00.52.24c7.35-11.34 12.05-19.14 19.21-29.8q4.69-6.99 13.31-20.72c1.55-2.47 3.85-5.37 5.16-7.48q6.45-10.46 13.15-20.59c3.77-5.69 6.56-9.22 5.81-15.12q-.44-3.43-2.82-6.52c-6.15-8-16.36-7.8-23.44-1.04q-1.79 1.72-3.54 7.33-5.21 16.75-9.58 32.4-2.6 9.29-5.29 18.68-4.02 14.01-12.49 42.62"/><path fill="#f8c800" d="M850.27 508.21q-.07.03-.15.03a.4.21 68.4 01-.24-.21q-10.76-17.2-12.74-20.62c-2.96-5.12-6.71-10.19-10.31-15.94q-17.36-27.65-28.95-46.01c-4.86-7.71-1.06-17.3 6.9-20.8s17.61.19 19.99 8.98q5.68 20.96 14.3 52.45c1.8 6.54 3 12.73 4.77 18.38q1.18 3.77 6.57 23.33a.4.21 64.2 01-.01.31q-.05.07-.13.1m-183.38 2.15q8.47-28.61 12.49-42.62 2.69-9.39 5.29-18.68 4.37-15.65 9.58-32.4 1.75-5.61 3.54-7.33c7.08-6.76 17.29-6.96 23.44 1.04q2.38 3.09 2.82 6.52c.75 5.9-2.04 9.43-5.81 15.12q-6.7 10.13-13.15 20.59c-1.31 2.11-3.61 5.01-5.16 7.48q-8.62 13.73-13.31 20.72c-7.16 10.66-11.86 18.46-19.21 29.8a.29.29 0 01-.52-.24"/><path fill="#cac8c7" d="M930.39 532.16a2 2 0 01-1.23 1.67l-3.9 1.54a.9.9 0 01-1.24-.81c-.42-10.75 5.76-23.1 13.46-30.32 13.29-12.45 31.77-16.49 49.2-10.73q20.7 6.85 28.88 28.54c1.32 3.49 1.99 8.63 1.87 12.61q-.55 17.94-11.74 29.49-11.43 11.8-28.55 14.15-17.67 2.43-34.43-8.27a.85.85 0 00-1.06.12l-4.9 4.98a.84.84 0 01-1.17.03l-4.53-4.15a.92.91 45.2 010-1.35l10.01-9.18a.8.8 45.3 011.1.01q5.69 5.3 13.49 8.11 15.08 5.44 30.2-.24c9.44-3.55 18.45-12.25 21.76-21.84 4.89-14.12 1.22-28.73-10.47-38.52q-7.98-6.68-16.67-8.66c-21.24-4.82-43.88 5.95-49.16 28.2q-.85 3.6-.92 4.62m-337.49 6.03a.12.12 0 01-.17.1l-6.29-2.2a.4.39 8.3 01-.26-.34q-.7-11.12-4.72-17.45-10.71-16.88-28.83-19.34c-16.92-2.29-33.56 4.84-41.78 20.06-4.6 8.5-5.23 16.65-2.74 25.88 4.45 16.54 21.72 27.43 38.38 27.18q15.68-.23 27.85-10.49a.72.7 46.8 01.96.04l10.19 10.02a.95.94-45.2 010 1.35l-4.25 4.17a1.1 1.1 0 01-1.55 0l-5.56-5.46a.85.83 51.5 00-1.02-.13q-19.46 11.54-41.4 5.22c-19.36-5.58-32.53-23.11-32.03-43.13q.37-14.53 9.39-24.99c14.53-16.85 37.61-22.38 57.98-12.74q17.81 8.43 23.91 26.59 2.58 7.66 1.94 15.66m-6.04 232.79a.2.2 0 010 .38c-21.63 7.11-42.84 21.4-54.18 41.57a.51.5 36 01-.78.12l-5.98-5.47a.95.95 0 00-1.51.3q-11.2 23.83-4.57 49.54 2.68 10.4 9.08 19.02a.54.53 30.8 00.96-.24c.99-6.93 2.61-15.34 5.62-21.75q5.81-12.42 16.95-21.22a.47.47 0 00.03-.72l-6.67-6.11a.35.35 0 01.03-.54q5.98-4.21 10.94-7.32 16.12-10.1 34.26-13.72 1.6-.32 10.97-2.07c7.16-1.34 13.16-1.38 20.05-1.52a.26.26 0 01.21.43q-.26.31-1.04.58c-21.59 7.48-40.75 22.27-51.54 42.81a.6.6 0 01-.92.16l-9.51-8.72a1.5 1.5 0 00-1.97-.06q-18.48 14.94-12.92 36.78c3.04 11.91 14.29 22.24 27.13 20.77 3.75-.43 8.06-2.29 11.99-3.8 10.42-4.02 16.87-11.33 25.08-19.35q41.39-40.47 85.3-83.71c3.25-3.21 6.07-5.63 8.65-8.35 6.06-6.41 13.17-12.83 19.51-19.17q1.51-1.52 26.23-25.84 16.16-15.9 32.8-31.95c2.51-2.43 5.08-5.5 7.9-7.95q1.36-1.19 3.26-3.05 58.86-57.47 125.27-123.26a.4.4 0 01.54 0l22.7 22.32a.37.35 46.1 010 .52q-20.81 19.51-33.83 31.26-1.54 1.4-141.62 130.13-12.91 11.86-26.39 24.12c-39.23 35.68-72.36 66.49-109.78 100.58q-16.04 14.6-18.43 17.8-7.86 10.55-11.1 23.05c-1.46 5.64-2.09 10.1-1.5 14.61 1.05 8.08 9.54 13.69 17.02 15.42 9.17 2.12 17.07.73 26.21-2.97 7.41-3 13.08-6.26 15.97-13.69a.6.6 0 00-.12-.63l-7.71-8.42a.37.37 0 01.1-.58q30.28-14.85 42.92-45.77a.39.38 28.2 01.57-.17q.27.18.24.63-.24 3.81-.17 8.48c.13 8.37-1.5 16.38-3.6 25.08-3.33 13.78-10.38 25.89-19.77 36.08a.7.7 0 01-1.08-.08l-5.22-7.54a1 1 0 00-1.49-.15q-14.34 13.62-34.09 18.33l-12.15 2.8q-.93.21-1.6.56a.92.92 0 00-.13 1.55c5.4 4.16 11.33 5.68 19.28 7.72q8.63 2.21 13.51 2.39 22.45.8 42.86-6.64a.72.72 0 00.28-1.17l-6.53-7.14a.53.52-38.4 01.1-.8q27.79-18.92 42.13-49.37a.7.7 0 011.33.25q1.15 17.82-4.74 36.58c-4.28 13.62-11.42 23.88-21.4 34.19a.9.9 0 01-1.4-.11l-4.21-6.09a1.06 1.05 61 00-1.27-.37q-24.03 9.98-49.64 6.78-12.39-1.55-21.85-5.48c-14.65-6.08-28.8-16.26-36.02-29.48q-4.18-7.66-5.63-18.36c-.88-6.57.75-13.86 2.36-19.84a.46.46 0 00-.6-.55q-7.33 2.78-14.06 3.4c-16.26 1.47-31.96-6.46-42.49-18.86-15.3-18.01-19.6-43.12-14.78-66.04q2.13-10.11 7.11-18.53a.64.64 0 00-.18-.85l-6.53-4.53a.58.58 0 01-.02-.93q5.96-4.63 14.52-9.92c17.58-10.86 37.56-16.08 58.38-16.42q1.39-.03 2.37.28m-27.78 7.26a.36.36 0 00-.44-.23q-19.63 5-34.2 18.7a.6.6 0 00.13.96q2.57 1.31 4.32 3.5a.62.62 0 001.03-.1q.74-1.38 1.78-2.63 11.23-13.54 27.4-19.75a.14.14 0 00.08-.17zm34.92 30.2q-7.37 1.26-14.96 5.12-8.62 4.4-17.69 13.4a.81.8-46.2 00.02 1.17l3.22 2.96a.7.7 0 001.06-.14c6.83-10.33 17.17-17.05 28.48-22.1a.22.22 0 00-.13-.41m92.84 91.43a.45.45 0 00-.79-.41c-1.07 1.4-2.28 4.72-3.33 6.46q-6.91 11.51-18.07 19.13a.2.2 0 00-.03.33l3.59 3.54a.25.25 0 00.35-.01q7.22-7.63 13.02-17.07 2.95-4.8 5.26-11.97m33.07 31.49c-2.08 3.2-4.34 7.75-7.23 11.26q-7.41 9.01-16.68 15.2a.6.6 0 00-.11.91l3.31 3.62a.57.57 0 00.8.04c8.91-7.99 16.97-19.1 20.41-30.79a.28.28 0 00-.5-.24"/><path fill="#cac8c7" d="m576.44 591.09 21.62-21.99a.85.85 0 011.21-.01l153.47 150.87a.85.85 0 010 1.22l-16.64 16.36a.85.85 0 01-1.17.02L576.47 592.31a.85.85 0 01-.03-1.22M930.4 772.44a.35.35 0 01.1-.68q21.52-.62 41.67 6.6 17.96 6.43 32.77 18.35a.5.5 0 01-.03.8l-7.54 5.22a.9.9 0 00-.28 1.13c13.15 25.18 12.35 55.94-3.49 80-8.56 13-20.52 21.89-36.33 24q-12.37 1.64-23.67-3.31a.53.53 0 00-.72.64c3.44 11.72 3.31 22.06-1.64 33.46q-5.58 12.88-17.28 22.05-6.28 4.92-10.98 7.28a96 96 0 01-37.71 10.3q-21.68 1.53-41.77-7.59a.8.8 0 00-.89.18l-4.42 4.82a.5.49-47 01-.7.03q-7.65-7-9.87-10.07-8.56-11.84-12.41-23.31-2.99-8.92-4.81-20.54-1.25-8-.97-15.38a.43.43 0 01.7-.31c1.08.89 1.2 2.22 1.71 3.17 3.18 5.99 5.51 11.5 9.39 16.63 5.7 7.53 12.36 15.78 20.29 22.49q6.76 5.72 11.51 9.41a.53.52-49.6 01.06.77l-4.58 5a.63.62-58.1 00.23 1.01q32.87 12.49 65.84 1.3a27 27 0 009-5.01.58.58 0 00-.33-1.03q-5.9-.47-16.27-2.86c-11.03-2.53-23.89-8.82-32.93-17.15a.59.58-47.4 00-.83.04l-4.85 5.29a.66.65-44.7 01-.97 0q-8.19-8.9-14.68-21-2.98-5.53-4.69-11.72c-2.27-8.23-4.18-15.54-4.28-24.15q-.12-11.62-.11-11.95a.3.3 0 01.58-.09q4.24 12.06 13.1 22.88 12.34 15.07 29.53 22.98a.75.74-56.7 01.24 1.18l-8.02 8.75a1.42 1.41-43 00-.07 1.83c4.38 5.56 7.87 8.68 14.4 11.15q8.5 3.21 17.59 3.68c9.08.47 20.81-4.39 22.76-14.12 2.68-13.4-2.24-28.77-9.46-39.59q-3.28-4.91-12.98-13.85C828 822.84 791.1 788.55 762.55 763a.7.69-45.3 010-1.03l16.64-15.25a.71.7-43.5 01.97.02q15.55 15.6 33.76 33.21c35.44 34.27 70.93 69.43 106.46 104.55 7.3 7.22 23.51 14.61 33.76 12 13.04-3.32 20.32-16.09 20.54-29.08q.24-14.17-9.5-24.33c-1.97-2.06-4.49-3.73-6.59-5.65a.99.98 44.8 00-1.33 0l-8.82 8.07a.53.53 0 01-.83-.15c-10-19.82-30.61-34.52-51.3-41.35a.39.39 0 01.08-.76c9.43-.86 18.52.1 29.36 2.05 16.68 3.01 32.98 9.82 46.34 20.27a.62.61-43.5 01-.03.99l-7.42 5.14a.73.73 0 00-.09 1.13c4.22 4.09 7.51 6.65 10.36 10.79q6.44 9.35 8.63 16.58 2.56 8.43 3.1 17.16a1.3 1.3 0 002.31.73q2.79-3.51 4.68-8.11c8.17-19.78 8.35-43.22-1.99-61.97a.7.7 0 00-1.03-.24l-7.03 4.87a.9.9 0 01-1.31-.3q-5.73-10.25-14.51-18.15-16.42-14.78-37.36-21.75m26.61 7.09q14.9 5.36 25.65 18.6a.26.25 50.8 00.35.04l4.12-3.33a.23.22 48.2 00.01-.33q-11.94-11.83-29.7-15.81a.3.29 28.9 00-.26.07l-.27.21a.32.32 0 00.1.55m-33.55 30.85a.4.4 16.6 00.27.49q17.39 5.62 28.11 20.43a.42.41 44.7 00.67 0q1.55-2.13 3.78-3.55a.43.43 0 00.07-.67q-13.14-13.14-32.56-17.13a.24.24 13.7 00-.27.16zm-93.05 89.87a.49.48-22.6 00-.26.61q6.57 17 18.15 31.02a.88.87 46.6 001.32.04l2.99-3.27a1 .99-52.2 00-.19-1.51c-9.16-5.92-16.75-16.83-21.41-26.68a.45.44-24 00-.59-.22zm-33.71 31.23q4.41 13.28 12.84 24.22c2.14 2.79 6.04 6.24 8.81 9.49a.3.3 0 00.44.02l3.44-3.51a.17.17 0 00-.02-.26q-16.6-11.91-25.02-30.2a.24.24 68 00-.3-.13l-.02.01a.3.3-20.1 00-.17.36"/><path fill="#010101" d="m559.08 778.24.1.28a.14.14 0 01-.08.17q-16.17 6.21-27.4 19.75-1.04 1.25-1.78 2.63a.62.62 0 01-1.03.1q-1.75-2.19-4.32-3.5a.6.6 0 01-.13-.96q14.57-13.7 34.2-18.7a.36.36 0 01.44.23m397.93 1.29a.32.32 0 01-.1-.55l.27-.21a.3.29 28.9 01.26-.07q17.76 3.98 29.7 15.81a.23.22 48.2 01-.01.33l-4.12 3.33a.26.25 50.8 01-.35-.04q-10.75-13.24-25.65-18.6M594 808.44a.22.22 0 01.13.41c-11.31 5.05-21.65 11.77-28.48 22.1a.7.7 0 01-1.06.14l-3.22-2.96a.81.8-46.2 01-.02-1.17q9.07-9 17.69-13.4 7.59-3.86 14.96-5.12m329.46 1.94.07-.27a.24.24 13.7 01.27-.16q19.42 3.99 32.56 17.13a.43.43 0 01-.07.67q-2.23 1.42-3.78 3.55a.42.41 44.7 01-.67 0q-10.72-14.81-28.11-20.43a.4.4 16.6 01-.27-.49m-236.62 89.49q-2.31 7.17-5.26 11.97-5.8 9.44-13.02 17.07a.25.25 0 01-.35.01l-3.59-3.54a.2.2 0 01.03-.33q11.16-7.62 18.07-19.13c1.05-1.74 2.26-5.06 3.33-6.46a.45.45 0 01.79.41m143.57.38a.45.44-24 01.59.22c4.66 9.85 12.25 20.76 21.41 26.68a1 .99-52.2 01.19 1.51l-2.99 3.27a.88.87 46.6 01-1.32-.04q-11.58-14.02-18.15-31.02a.49.48-22.6 01.26-.61m-33.7 31.22a.3.3-20.1 01.17-.36l.02-.01a.24.24 68 01.3.13q8.42 18.29 25.02 30.2a.17.17 0 01.02.26l-3.44 3.51a.3.3 0 01-.44-.02c-2.77-3.25-6.67-6.7-8.81-9.49q-8.43-10.94-12.84-24.22m-76.79-.12a.28.28 0 01.5.24c-3.44 11.69-11.5 22.8-20.41 30.79a.57.57 0 01-.8-.04l-3.31-3.62a.6.6 0 01.11-.91q9.27-6.19 16.68-15.2c2.89-3.51 5.15-8.06 7.23-11.26"/><path fill="#017ad1" d="M1523 1031.63v.37h-.98q.38-.28.98-.37"/></svg>