<svg xmlns="http://www.w3.org/2000/svg" xml:space="preserve" fill-rule="evenodd" clip-rule="evenodd" image-rendering="optimizeQuality" shape-rendering="geometricPrecision" text-rendering="geometricPrecision" viewBox="0 0 900 600" xmlns:xlink="http://www.w3.org/1999/xlink"><defs><style>.str0,.str1{stroke:#1f1a17;stroke-width:.9}.str1{stroke:#000}.fil3{fill:#dededd}.fil0,.fil7{fill:#fff}.fil1{fill:#0033ab}.fil2{fill:#d42e12}.fil5{fill:#1f1a17;fill-rule:nonzero}</style></defs><g id="Слой_x0020_1"><path d="M0 0h900v600H0z" class="fil0"/><path d="M0 386.8c60 30 122.43 30.18 182.43.18q90 45 180 0 90 45 180 0 90 45 180 0c60 30 117.57 30.13 177.57.13V600H0z" class="fil1"/><path d="M0 477.1c60 30 122.43 29.88 182.43-.12q90 45 180 0 90 45 180 0 90 45 180 0c60 30 117.57 30.13 177.57.13V600H0z" class="fil0"/><path d="M0 486.86c60 30 122.43 30.12 182.43.12q90 45 180 0 90 45 180 0 90 45 180 0c60 30 117.57 30.12 177.57.13V600H0z" class="fil2"/><path d="M350 105.1h200l-.94 228.49c.35 42.52-88.28-7.97-98.98 34-14-41.72-100.08 7.67-100.08-34z" class="fil1"/><g id="_43201824"><path id="_93782648" d="M350 86.3h199.53v130.87H350z" class="fil2 str0"/><path id="_93395640" d="M497.67 142.63c-2.3 1.84-2.19.48-3.19 1.05-2.37 1.34-4.4 3.7-5.97 5.88-2.05 3.98-2.1 7.41.58 8.8s7.12-2.81 9.18-6.8c.29-.56.63-2.33 1.34-3.83.38-.8 1.07-1.59 1.64-2.3l30.67-39.14 1.32-4.8-4.88 1.98z" class="fil3 str0"/><path id="_93754120" d="M499.77 148c.38 1.85 1.15 3.3.7 5.44-1.13 2.8-4.7 4.4-5.03 6.9-.37 2.77-.51 5.2-.88 7.97-.76 5.74-1.36 13.42 2.3 18.2a540 540 0 0117-.16c.03.9 3.7 1.77 3.7 2.68-.05 3.63 1.18 7.97.35 11.72-.28 1.26-3.82 1.8-3.68 3.1-8.42-.31-15.73-.29-23.89-2.35-6.27-3.3-8.74-6.98-9.66-11.33-1.15-5.43.31-11.9 2.13-20a46 46 0 014.13-10.16c-.47-1.86-.92-2.42-.48-3.88 4.38-3.19 8.93-4.95 13.31-8.13z" class="fil3 str0"/><path id="_93403488" d="m507.23 145.87-10.42-9.33-3.2 3.48 10.42 9.33z" class="fil3 str0"/><path id="_93499480" d="M496.24 149.36c-.34-1.2-2.01-4.36-3.32-4.34-2.3.04-3.11 1.76-2.24 3.02 2 .79 3.5 2.74 4.1 3.84 1.5 1.2 1.72-1.6 1.46-2.52z" class="fil3 str0"/><path id="_42175680" d="M494.45 153.05c.7-1.48-2.44-5.24-4.1-5.06-2.45.28-2.62 1.92-1.72 2.92a8.3 8.3 0 014.54 2.75c.58.32.95.1 1.28-.6z" class="fil3 str0"/><path id="_93863704" d="M492.44 153.49c-.38-1.06-2.1-3.05-3.45-2.94-2.52.43-2.03 2.05-1.37 3.1 2.1.56 2.94 1.14 3.6 2.08 1.58.97 1.42-1.67 1.22-2.24z" class="fil3 str0"/><path id="_93403176" d="M489.96 154.98c-.53-.76-1.88-1.98-2.88-1.6-.88.37-1.65 2.4-.46 2.82 1.38.14 2.13.86 2.76 1.4 1.26.39.92-2.13.58-2.62z" class="fil3 str0"/><path id="_93395664" d="M493.9 142.98c.95-.25 1.28.38 2.66 1.07 1.35.67 3.97 3.42 3.67 4.96-.44 2.18-1.98 2.65-3.66 1.31-.49-2.53-2.7-4.84-3.86-5.8-.38-.7.25-1.3 1.18-1.54z" class="fil3 str0"/><path id="_43199616" d="M485.18 162.48h10.42q.47 1.4-.08 2.7a84 84 0 00-11.05.01c-.31-.92.21-2.08.71-2.71z" class="fil3 str0"/><path id="_42892776" d="M481.79 172.14h12.46a3.5 3.5 0 010 3.06 113 113 0 00-12.82 0 4.2 4.2 0 01.36-3.06z" class="fil3 str0"/><path id="_43192560" d="M495.4 182.17c-5.66 1.07-10.02 1.97-15.68 3.04a6 6 0 000 3.12 209 209 0 0116.4-3.12c.14-1.58-.31-2.25-.73-3.04z" class="fil3 str0"/><path id="_43388344" d="m515.45 185.89.85.13.73.33.56.43.44.48.35.5.29.53.25.54.2.58.2.6.15.64.14.66.1.7.1.71.06.74.04.77.01.78-.01.79-.04.77-.06.74-.1.71-.1.7-.14.66-.16.63-.18.6-.21.59-.25.54-.29.53-.35.5-.44.48-.56.43-.73.33-.85.13-.85-.13-.73-.33-.57-.43-.44-.48-.35-.5-.29-.53-.24-.55-.21-.57-.19-.6-.16-.64-.13-.66-.11-.7-.1-.71-.06-.75-.03-.76-.02-.79.02-.78.03-.76.07-.75.09-.72.1-.69.14-.66.16-.64.19-.6.2-.57.25-.55.3-.53.34-.5.44-.48.57-.43.72-.33zm0 2.17c1.12 0 1.52 2.38 1.6 5.55q.04 1.65-.02 3.3c-.1 2.93-.52 5.06-1.58 5.06-1.1 0-1.5-2.3-1.6-5.38q-.04-1.4 0-2.8c.06-3.26.45-5.73 1.6-5.73z" class="fil3 str0"/><path id="_42978024" d="M503.71 204.06c-.68-3.33-3.43-8.25.17-17.76a5.3 5.3 0 013.05 0c-2.07 7.19-2.65 10.77-.16 17.76q-.98.72-3.06 0z" class="fil3 str0"/><path id="_93918752" d="M495.99 203.2c-1.2-4.94-2.39-10.19.88-16.68a6.5 6.5 0 013.05 0c-3.71 6.28-2.38 10.55-.88 16.68q-1.32.63-3.05 0z" class="fil3 str0"/><path id="_93857288" d="M402.33 143c2.3 1.84 2.19.48 3.19 1.05 2.37 1.34 4.4 3.7 5.97 5.88 2.05 3.98 2.1 7.41-.58 8.8s-7.12-2.81-9.18-6.8c-.29-.56-.63-2.33-1.34-3.83-.37-.8-1.07-1.6-1.64-2.3l-30.67-39.14-1.32-4.8 4.88 1.98z" class="fil3 str0"/><path id="_42961824" d="M400.23 148.37c-.38 1.85-1.15 3.3-.7 5.44 1.13 2.8 4.7 4.4 5.03 6.9.37 2.77.51 5.2.88 7.97.76 5.74 1.36 13.42-2.3 18.2-5.57-.12-10.07-.2-17-.16-2.15 1.42-4.58 2.57-4.75 4.37-.26 2.88-.5 6.44.83 9.62.56 1.35 2.09 2.32 3.55 3.5 8.42-.3 15.73-.28 23.9-2.34 6.26-3.3 8.73-6.98 9.65-11.33 1.15-5.43-.31-11.9-2.13-20a46 46 0 00-4.13-10.16c.47-1.86.92-2.42.48-3.88-4.38-3.19-8.93-4.95-13.31-8.13z" class="fil3 str0"/><path id="_43199176" d="m392.78 146.24 10.4-9.33 3.2 3.48-10.41 9.33z" class="fil3 str0"/><path id="_43021200" d="M403.76 149.73c.34-1.2 2.01-4.36 3.32-4.34 2.3.04 3.11 1.76 2.24 3.02-2 .79-3.5 2.74-4.1 3.84-1.5 1.2-1.72-1.6-1.46-2.52z" class="fil3 str0"/><path id="_93653864" d="M405.55 153.42c-.7-1.48 2.44-5.24 4.1-5.06 2.45.28 2.62 1.92 1.72 2.92a8.3 8.3 0 00-4.55 2.75c-.57.32-.94.1-1.27-.6z" class="fil3 str0"/><path id="_93896064" d="M407.56 153.86c.38-1.06 2.1-3.05 3.45-2.94 2.52.43 2.03 2.05 1.37 3.1-2.1.56-2.94 1.14-3.6 2.08-1.58.97-1.42-1.67-1.22-2.24z" class="fil3 str0"/><path id="_43225016" d="M410.04 155.35c.53-.76 1.88-1.98 2.88-1.6.88.37 1.65 2.4.46 2.82-1.37.14-2.13.86-2.76 1.4-1.26.39-.91-2.13-.58-2.62z" class="fil3 str0"/><path id="_43204264" d="M406.11 143.35c-.96-.25-1.29.38-2.67 1.07-1.35.67-3.97 3.42-3.67 4.96.44 2.18 1.98 2.65 3.66 1.31.49-2.53 2.7-4.84 3.87-5.8.37-.7-.26-1.3-1.19-1.54z" class="fil3 str0"/><path id="_42962464" d="M414.82 162.85H404.4a3.7 3.7 0 00.08 2.7c4.05-.25 6.85-.23 11.05.01.31-.92-.2-2.08-.7-2.71z" class="fil3 str0"/><path id="_43214480" d="M418.21 172.51h-12.46a3.5 3.5 0 000 3.06c4.67-.24 7.99-.24 12.82 0 .3-1.04.08-2.3-.36-3.06z" class="fil3 str0"/><path id="_43051448" d="M404.61 182.54c5.65 1.07 10.01 1.97 15.67 3.04a6.3 6.3 0 010 3.11 209 209 0 00-16.4-3.11c-.14-1.58.31-2.25.73-3.04z" class="fil3 str0"/><path id="_42962440" d="m384.55 186.26-.85.13-.73.33-.56.43-.44.48-.35.5-.29.53-.24.54-.22.58-.18.6-.16.64-.14.66-.1.7-.1.71-.06.74-.04.77-.01.78.01.79.04.76.06.74.1.72.1.7.14.66.16.63.18.6.21.58.25.55.29.53.35.5.44.48.56.43.73.33.85.13.85-.13.73-.33.57-.43.44-.48.35-.5.29-.53.24-.55.21-.57.19-.6.16-.64.13-.66.11-.7.1-.72.06-.74.04-.76v-1.57l-.04-.77-.07-.74-.09-.72-.1-.69-.14-.66-.16-.64-.19-.6-.2-.57-.25-.55-.3-.53-.34-.5-.44-.48-.57-.43-.72-.33zm0 2.16c-1.12 0-1.52 2.39-1.6 5.56q-.04 1.65.02 3.3c.1 2.92.52 5.06 1.58 5.06 1.11 0 1.5-2.3 1.6-5.39q.04-1.4 0-2.8c-.06-3.25-.45-5.73-1.6-5.73z" class="fil3 str0"/><path id="_93913216" d="M396.29 204.43c.68-3.33 3.43-8.26-.17-17.76a5.3 5.3 0 00-3.05 0c2.07 7.19 2.65 10.77.16 17.76q.98.7 3.06 0z" class="fil3 str0"/><path id="_93905240" d="M404.01 203.57c1.2-4.94 2.39-10.2-.88-16.69a6.5 6.5 0 00-3.05 0c3.71 6.29 2.38 10.56.88 16.7q1.32.6 3.05 0z" class="fil3 str0"/></g><g id="_93396408"><path id="_42061128" fill="#f8c300" d="M478.67 306.84c-5.21 0-9.44 3.92-9.44 8.75s4.23 8.74 9.44 8.74c1.84-1.12 5.74-1.3 7.48-2.82 2.02-1.76.55-4.73.74-5.8 0-2.57-1.43-4.88-3.33-6.48-1.68-1.4-2.45-2.39-4.89-2.39"/><path id="_43210344" d="M455.18 298.38c-.38 3.4-.85 7.1-2.65 11.49-.62 1.5-.3 1.1 1.3 1.84 3.7-.12 7.48.41 11.06.28.99-.04 1.93-.23 1.8 1.05-.14 1.25.06 2.9.62 4.26.92.73 2.56 3.53 3.4 3-.53-1.54-1.46-3.7-1.95-4.1-.14-2.65-.36-3.14 1.3-5.62.93.4 2.32.8 3.36 1.7.7.6 1.6 1.63 2.07 2.13.73-.19 1.01-.17 1.61-.39-.84-.71-1.9-1.55-2.91-2.35s-1.68-1.26-2.53-1.97c1.43-1.15 1.83-1.65 2.68-2 .86-.34 2.17-.54 3.97-1.1.12-.1 1.62.22 1.67-.08q.08-.56-.25-.85c-.98-.96-5.55.16-6.11.26-.65.11-1.81 0-2.3.25-.81.4-2.17 1.3-6.62 3.66-2.64-.19-7.06-.02-9.7-.21a29.4 29.4 0 003.85-12.37l1.63-.55c13.89-6.63 20.14-18.22 11.02-35.34-1.8-2.5-4.12-5.27-6.07-7.84a6 6 0 01-1.19-2.16 23.4 23.4 0 01-.7-11.1c1.6-6.67 3.54-7.26 9.93-8.65l2.41-2.73c-1.67-2.63-4.3-5.14-6.92-4.99-1.65.1-3.5 1.11-4.69 2.18-2.93 2.64-5.04 7.38-5.9 9.97-1.82 5.55-1.03 14.03-1.24 19.88-.16 4.77-.07 8.73-3.87 11.9-2.54 1.53-4.54 2.69-6.55 4.85-9.4 10.1-18.44 20.2-27.84 30.3 8.96-.27 17.17-.77 25.63-2.24-3.35 5-5.08 7.85-6.9 13.4-.4 1.2.3 1.54.99 2.58 3.25 5.54 4.88 11.14 6.69 17.67-1.82 1.72-2.55 3.43-4.37 5.15 1.5 0 1.56-.36 3.06-.36.44-1.13 2.83-3.64 4.12-3.52.2.01.43.24.97.63 1.96 1.4 3.56 2.43 5.51 3.82.63-.03.97-.05 1.7-.14-1.53-1.27-3.77-3.26-5.3-4.53 0 0 4.94.17 5.41.17.67.12 1.54.33 2.8.93.75.35 1.5 1.08 2.16 1.36.54-.26 1.42-.16 1.96-.41-1.99-.88-3.36-2.68-5.76-3.24-2.79-.67-5.3-.35-8.8-.45a79 79 0 01-6.8-18.07c-.16-.69-.3-.99-.07-1.65 1.57-4.46 3.03-7.01 6-10.89l2.83-3.67c1.7-.4 2.83-.67 4.48-1.14" class="fil3"/><path id="_432103441" d="m452.82 309.99-.58-.24.16-.4.15-.4.15-.4.15-.4.13-.4.13-.38.12-.38.12-.38.1-.38.11-.37.1-.37.1-.37.08-.36.08-.36.08-.36.08-.35.07-.35.07-.35.06-.35.06-.34.05-.34.06-.34.05-.34.05-.33.04-.33.05-.33.04-.33.04-.33.04-.32.04-.32.03-.33.04-.32.62.07-.03.32-.04.33-.04.32-.04.33-.04.33-.04.33-.04.33-.05.33-.05.34-.05.34-.06.35-.05.34-.06.35-.07.35-.07.36-.07.35-.07.36-.08.37-.09.36-.09.37-.1.38-.1.37-.1.38-.11.39-.12.38-.12.4-.13.39-.14.4-.15.4-.15.4-.16.41zm-.58-.24.58.24v.01l-.02.02v.01l-.01.01-.01.02h-.01l-.01.02-.01.01-.01.01-.02.01-.02.02h-.01l-.01.01-.02.01h-.01l-.02.01h-.01l-.02.01h-.03l-.01.01h-.11l-.01-.01h-.02l-.01-.01h-.02l-.01-.01-.02-.01v-.01l-.02-.01-.01-.01-.01-.01-.02-.01v-.01l-.02-.01v-.02h-.01l-.01-.02-.01-.01V310l-.01-.01v-.01l-.01-.02v-.01l-.01-.02v-.15l.01-.02zm1.59 1.65.02.62-.14-.02-.15-.07-.13-.06-.13-.05-.12-.05-.11-.04-.11-.04-.1-.04-.1-.04-.1-.03-.07-.03-.08-.03-.08-.04-.08-.03-.07-.04-.07-.05-.07-.05-.06-.06-.06-.08-.05-.08-.03-.1-.01-.09v-.27l.02-.09.03-.1.03-.09.03-.1.04-.12.05-.11.05-.13.06-.14.58.24-.06.13-.04.12-.05.11-.03.1-.03.09-.03.08-.01.06-.02.06v.09l.02.02.03.02.04.02.04.02.06.03.07.02.08.03.09.04.1.03.1.04.1.04.13.05.13.05.13.05.15.07.15.06zm-.12.6.26-.58.01.01.02.01h.01l.01.02h.02v.02h.02v.02h.02v.02l.02.01v.02l.01.01.01.01v.02l.01.01v.02l.01.01v.04l.01.02v.09l-.01.02v.01l-.01.02v.01l-.01.02-.01.01-.01.01v.02h-.02v.02l-.02.01-.01.01-.01.01-.01.01-.02.01-.02.02h-.02l-.01.01h-.03l-.01.01h-.02l-.01.01h-.14l-.01-.01h-.02zm11.17-.33.02.63-.34.01h-.34l-.34.01h-1.03l-.35-.01-.34-.01-.35-.01-.34-.02-.35-.01-.34-.02-.35-.02-.35-.01-.35-.02-.34-.02-.35-.02-.35-.02-.35-.02-.35-.01-.34-.02-.35-.02-.35-.01-.34-.01-.35-.01-.35-.01h-.34l-.35-.01h-1.03l-.34.01-.02-.62.35-.01h.35l.35-.01h1.05l.34.02h.35l.35.02.35.02.35.01.35.02.35.01.35.02.35.02.35.02.35.02.34.02.35.02.34.01.35.02.34.01.34.02h.35l.34.02h.34l.34.01h1.34zm2.12 1.4-.63-.07.01-.1v-.24l-.01-.06-.02-.05-.01-.04-.02-.04-.01-.02-.02-.03-.02-.02-.02-.02-.03-.01-.03-.02-.04-.02-.04-.01-.04-.01-.05-.02h-.06l-.06-.01h-.14l-.07-.01h-.33l-.09.01h-.1l-.08.01h-.1l-.1.01-.01-.63h.18l.09-.01h.09l.1-.01h.62l.08.01.09.02.09.02.08.02.09.03.08.04.08.04.08.06.07.06.07.07.06.08.05.09.04.09.03.1.03.1.02.1v.12l.01.11v.13zm-.63-.07.63.07v.03l-.01.01v.02l-.01.01v.02l-.01.01-.01.02v.01l-.02.01v.01l-.01.02h-.01l-.01.02h-.02v.02h-.02l-.01.02h-.02v.01h-.02l-.02.01v.01h-.04l-.01.01h-.16l-.02-.01h-.01l-.01-.01-.02-.01h-.01l-.01-.02h-.02v-.01l-.02-.01-.01-.01-.01-.02h-.01l-.01-.02v-.01l-.02-.02-.01-.02v-.02h-.01v-.02l-.01-.02v-.05l-.01-.01zm1.13 4.05-.39.49-.1-.13-.05-.13-.05-.14-.05-.13-.04-.14-.05-.14-.04-.14-.04-.14-.04-.14-.03-.14-.03-.15-.04-.14-.03-.14-.02-.14-.03-.15-.02-.14-.02-.14-.02-.15-.02-.14-.01-.14-.02-.14v-.14l-.02-.14v-1.07l.02-.12.01-.13.63.07-.01.11-.01.12-.01.11v.24l-.01.13v.38l.01.13.01.13.01.13.01.13.02.13.01.14.02.13.02.13.02.14.02.13.03.14.03.13.03.14.03.13.03.13.04.13.03.13.04.14.04.12.05.13.04.13.05.12.05.13zm-.48.36.58-.23v.03l.01.01v.03l.01.02v.1l-.01.02v.01l-.01.02-.01.01v.01l-.01.02-.01.01-.01.01-.01.02h-.01l-.01.02h-.01l-.01.02h-.02v.02h-.02l-.02.01-.01.01h-.02l-.01.01h-.02l-.01.01h-.17l-.01-.01h-.02l-.01-.01h-.01l-.02-.02-.02-.01-.01-.01-.01-.01-.02-.01v-.01l-.02-.02-.02-.02v-.01l-.01-.02v-.01zm3.4 2.99.6-.2-.14.36-.14.07-.15.04h-.14l-.15-.01-.14-.04-.13-.06-.13-.07-.12-.08-.13-.09-.12-.1-.12-.1-.12-.12-.13-.12-.12-.13-.12-.14-.12-.13-.12-.14-.12-.15-.12-.14-.12-.14-.11-.15-.12-.14-.11-.14-.11-.13-.11-.13-.1-.13-.1-.11-.1-.11-.1-.1-.1-.09-.07-.08-.08-.06.4-.5.1.1.1.09.1.1.1.11.1.12.12.12.1.13.12.14.11.13.12.14.11.15.12.14.11.14.12.14.12.14.12.13.11.13.11.13.12.12.1.1.12.11.1.1.1.08.1.07.08.05.08.05.07.03.06.01h.09l.03-.01zm.46.16-.33-.53.01-.01h.01l.02-.01.01-.01h.02l.01-.01h.05l.01-.01h.09l.02.01h.03l.01.02h.02l.02.02h.01l.02.01.01.01.01.01.01.01.01.02h.01l.01.02.01.01v.02l.02.01v.02l.01.01v.03l.01.02v.03l.01.01v.09l-.01.02v.01l-.01.02v.01l-.01.01v.02l-.02.01v.01l-.02.02-.01.02-.02.01v.01l-.02.01-.01.01zm-2.43-4.34.63-.03-.12-.23.07.06.06.07.07.08.06.08.06.09.06.09.07.1.06.11.07.11.06.12.07.13.06.13.07.13.07.14.07.14.07.15.07.15.06.16.07.15.07.16.07.16.06.16.07.16.06.16.07.16.06.16.06.16.06.15.06.16.06.15.05.15.05.15-.6.2-.04-.14-.05-.14-.06-.15-.06-.16-.05-.15-.07-.16-.06-.15-.06-.16-.06-.16-.07-.15-.06-.16-.07-.16-.06-.15-.07-.15-.07-.15-.06-.14-.07-.15-.07-.13-.06-.14-.07-.13-.06-.12-.06-.12-.06-.11-.06-.1-.06-.1-.06-.09-.05-.08-.05-.07-.04-.06-.05-.05-.03-.04-.03-.02zm.51-.26-.4.49v-.01l-.02-.01-.01-.02h-.01l-.01-.02v-.01l-.02-.02v-.01l-.01-.01v-.02l-.01-.01v-.02l-.01-.01v-.04l-.01-.02v-.09l.01-.02v-.01l.01-.01v-.02l.02-.01v-.02h.01l.01-.02.01-.02h.01l.01-.02.01-.01.02-.01v-.01h.02l.01-.02h.02l.01-.01h.01l.02-.01h.01l.02-.01h.18l.01.01.02.01h.01l.01.02h.02zm1.21-5.67-.24.58.38-.12-.14.23-.14.2-.13.21-.11.2-.11.17-.1.18-.09.17-.07.16-.07.15-.07.15-.05.14-.05.14-.04.13-.04.13-.03.14-.03.13-.02.13-.01.13-.01.14-.01.14v.8l.01.18.01.18.01.2.02.21.01.22.01.23.02.25-.63.03-.01-.24-.02-.23-.01-.22-.01-.2-.02-.21v-.2l-.01-.18-.01-.18v-.82l.02-.16.02-.15.02-.16.03-.15.04-.16.04-.15.05-.16.06-.16.06-.16.07-.17.08-.17.09-.17.09-.18.1-.18.12-.2.12-.2.13-.2.14-.23.15-.23zm.14.46-.52-.35.01-.01.01-.01.01-.02h.01l.01-.02h.02v-.02h.02l.01-.01.02-.01.02-.01h.02l.01-.01h.02l.01-.01h.15l.02.01h.01l.02.01.01.01h.01l.02.02h.01l.01.02h.02v.02h.02v.02l.02.01v.02h.01l.01.02v.01l.01.02v.01l.01.02v.01l.01.02v.15l-.01.01v.02l-.01.01-.01.02zm3.31 1.28-.4.48-.1-.08-.1-.07-.09-.07-.1-.07-.1-.07-.1-.07-.1-.06-.1-.06-.1-.06-.11-.06-.1-.06-.12-.05-.1-.05-.11-.05-.1-.05-.12-.05-.1-.05-.12-.05-.1-.04-.11-.05-.1-.04-.11-.04-.11-.04-.1-.04-.1-.04-.11-.04-.1-.04-.1-.04-.1-.04-.1-.04-.09-.04-.09-.03.24-.58.1.03.08.04.1.04.09.03.1.04.1.04.1.04.1.04.1.04.11.04.11.05.11.04.12.05.1.04.12.05.11.05.12.05.11.06.12.05.12.06.11.06.12.06.11.06.11.06.12.07.11.07.11.07.11.08.11.08.11.08.1.09zm1.8 2.07.15.61-.3-.09-.05-.05-.05-.05-.05-.05-.05-.06-.06-.06-.06-.06-.06-.06-.05-.07-.07-.07-.06-.06-.06-.07-.07-.07-.06-.08-.07-.07-.07-.07-.07-.08-.07-.07-.07-.07-.07-.08-.07-.07-.07-.07-.07-.08-.07-.07-.07-.07-.07-.07-.06-.06-.07-.07-.07-.06-.07-.07-.07-.06-.06-.06-.07-.05.41-.48.07.06.07.07.07.06.08.07.07.06.07.07.07.08.08.07.07.07.07.08.07.07.08.08.07.07.07.08.07.07.07.08.07.07.07.07.07.08.06.07.07.07.06.07.07.07.06.07.06.06.06.07.05.06.05.05.06.06.05.05.04.05.05.05zm-.15.52.45-.43.01.01.01.01.01.02.02.02v.02l.01.01v.01l.01.02v.03l.01.01v.15l-.01.02v.01l-.01.01-.01.02-.01.01v.02h-.02v.02l-.02.01-.01.01-.01.01-.01.01-.02.01v.01l-.02.01h-.02l-.01.01-.01.01h-.03l-.02.01h-.03l-.01.01h-.09l-.02-.01h-.03l-.01-.02h-.02l-.02-.02h-.02v-.01l-.02-.01-.01-.01zm1.63-.36.4-.48-.09.53-.06.03-.05.01-.06.02-.05.02-.06.02-.05.01-.05.02-.05.01-.05.01-.05.02h-.05l-.04.02h-.05l-.04.02h-.05l-.05.02h-.04l-.04.01-.06.01-.04.01h-.04l-.05.02h-.05l-.05.02h-.05l-.05.02-.06.01-.06.01-.05.02-.06.01-.07.01-.06.02-.15-.6.07-.02.06-.02.07-.02h.06l.06-.02.06-.02h.05l.06-.02h.05l.05-.02h.05l.04-.02h.06l.04-.01.04-.01.05-.01h.04l.04-.02h.04l.05-.02h.04l.04-.01.04-.01.04-.02h.04l.05-.02.04-.01.05-.02.05-.01.04-.02.05-.02.06-.02zm.31.05-.21-.59h.04l.02-.01h.13l.02.01h.01l.02.01.01.01h.01l.02.02.02.01.01.01.01.01.02.01v.02h.02v.02l.01.01.01.02v.01l.01.02.01.01v.02l.01.01v.18l-.01.02v.01l-.02.01v.02l-.01.01-.01.01v.02h-.02v.02l-.02.01-.01.01-.01.01h-.02v.02h-.02l-.02.01h-.01zm-3.21-2.4.39-.5.1.08.09.08.1.07.09.08.1.08.1.07.09.08.1.07.09.08.1.08.09.07.1.08.09.07.1.08.09.08.09.07.1.07.09.08.09.07.09.08.1.07.08.07.09.08.09.07.09.07.08.07.09.07.08.07.09.07.08.07.08.07.08.07-.4.48-.09-.07-.08-.07-.08-.06-.08-.07-.09-.07-.08-.07-.09-.07-.08-.07-.09-.08-.09-.07-.09-.07-.09-.07-.09-.08-.09-.07-.09-.08-.1-.07-.09-.08-.09-.07-.1-.08-.09-.07-.1-.08-.09-.07-.1-.08-.09-.07-.1-.08-.1-.08-.09-.07-.1-.08-.09-.07-.1-.08-.09-.07zm.39-.5-.4.5v-.01l-.02-.01-.01-.01-.01-.01-.01-.02h-.01v-.02l-.01-.01-.01-.02v-.01l-.01-.02v-.01l-.01-.01v-.03l-.01-.02v-.12l.01-.01v-.02l.01-.01v-.02l.02-.01v-.01l.01-.02.01-.01.01-.01.01-.01.02-.02.02-.02h.01l.01-.01.02-.01h.01l.02-.01.01-.01h.03l.01-.01h.05l.01-.01h.08l.01.01h.02l.01.01h.02l.01.01.01.01h.02l.01.02zm-2.92-1.96.4.5v-.5l.07.07.08.07.08.06.07.06.07.06.08.06.07.06.08.06.07.06.07.05.07.06.08.05.07.06.07.06.07.05.08.06.08.06.07.05.08.06.07.06.08.05.08.07.08.06.08.06.09.06.08.07.09.06.08.07.1.07.09.07.09.07.1.08-.4.5-.09-.08-.09-.08-.09-.07-.09-.06-.08-.07-.09-.06-.08-.07-.09-.06-.08-.06-.08-.06-.07-.06-.08-.06-.08-.06-.08-.06-.07-.06-.08-.05-.07-.06-.08-.05-.07-.06-.08-.06-.07-.06-.08-.05-.07-.06-.07-.06-.08-.06-.08-.06-.07-.06-.08-.06-.07-.07-.08-.06-.08-.07-.08-.06zm.4 0-.4.49-.02-.01-.01-.01-.01-.02h-.01l-.01-.02-.01-.01v-.02h-.02v-.04l-.01-.01v-.02l-.01-.01v-.06l-.01-.02v-.06l.01-.01v-.02l.01-.01v-.02h.01v-.02l.02-.02v-.01l.01-.01.01-.02h.01l.02-.02v-.01h.02l.01-.02h.01l.02-.02h.03v-.02h.05l.02-.01h.15l.01.01h.02l.01.02h.02v.01h.02l.01.02zm2.36-2.04.23.59-.07.03-.07.03-.07.03-.06.03-.07.04-.07.03-.06.04-.06.04-.06.04-.06.04-.07.04-.06.05-.07.04-.06.05-.07.06-.07.05-.07.06-.07.06-.08.06-.08.07-.08.07-.08.07-.1.08-.08.08-.1.08-.1.09-.1.08-.12.1-.11.1-.12.1-.13.1-.13.1-.4-.49.13-.1.13-.1.12-.1.11-.1.11-.09.1-.08.1-.09.1-.08.09-.08.09-.08.09-.07.08-.07.08-.06.08-.07.07-.06.08-.07.07-.05.07-.06.08-.06.07-.05.07-.05.07-.05.08-.05.07-.05.07-.04.08-.05.07-.04.08-.04.08-.04.08-.04.08-.03zm.23.59-.23-.59h.03l.01-.01h.03l.02-.01h.1l.02.01h.01l.02.01.01.01h.01l.02.01.01.01.01.01.01.01.02.01v.01l.02.01v.01l.02.02.01.02.01.02.01.01v.02l.01.01v.02l.01.01v.17l-.01.01v.02l-.01.01-.01.01v.02l-.02.01v.01l-.01.01-.01.02h-.01l-.01.02h-.02l-.01.02h-.01l-.02.01v.01l-.02.01zm3.67-1.66.37.5-.1.05-.17.06-.16.05-.17.04-.16.05-.16.05-.15.04-.15.04-.15.04-.14.04-.15.04-.14.03-.14.04-.13.03-.13.03-.13.03-.12.04-.13.03-.12.03-.11.02-.11.03-.11.03-.1.03-.11.03-.1.03-.1.02-.1.03-.09.03-.09.03-.08.03-.08.03-.08.02-.08.04-.23-.59.08-.03.1-.04.08-.03.1-.03.1-.03.1-.03.1-.03.1-.03.1-.03.1-.03.12-.03.11-.02.11-.03.12-.03.12-.03.13-.03.12-.04.13-.03.13-.03.13-.03.14-.04.13-.03.15-.04.14-.04.15-.04.14-.04.16-.04.15-.04.16-.05.16-.05.16-.04.17-.06zm.27.55-.18-.6h.06l.02-.01h.09l.01.01h.02l.01.01h.01l.02.02h.01l.01.01.02.01.02.02h.01l.01.02.01.01.01.01.01.02.02.02v.02l.01.01v.02l.01.01v.03l.01.02v.13l-.01.02v.01l-.01.02-.01.01v.01l-.02.02-.01.02-.01.01-.01.01-.02.01v.01l-.02.01-.01.01-.01.01h-.02l-.01.02h-.03zm1.27-.43.62.1-.04.13-.07.1-.07.06-.08.04-.07.02-.08.03h-.06l-.07.02h-.52l-.08-.01h-.08l-.07-.01-.07-.01h-.08l-.07-.01-.06-.01h-.13l-.05-.01h-.14l.02-.01.08-.04-.37-.51.1-.05.07-.02h.4l.07.01.07.01h.07l.07.01h.07l.07.01.08.01h.07l.07.01h.41l.02-.01h-.01l-.03.03-.04.05zm.62.1-.62-.1v-.03l.01-.01v-.02l.01-.01.01-.01v-.02l.02-.01v-.01l.01-.02h.01l.01-.02.01-.01.01-.01.02-.01.02-.02h.01l.02-.01h.01l.01-.02h.03l.02-.01h.17l.01.01h.02l.01.01.01.01h.02l.01.02h.01l.01.02h.01l.02.02.02.02v.01l.01.01.01.02.01.02.01.02v.01l.01.02v.03l.01.01zm-.77-.67.43-.45.03.02.02.03.03.03.02.03.02.02.03.03.01.03.03.03.02.04.01.03.02.03.02.03.01.03.01.04.02.04.01.04v.03l.02.04v.03l.01.04.01.04v.04l.01.04v.28l-.01.04v.04l-.63-.1v-.05l.01-.03v-.21l-.01-.02v-.02l-.01-.02v-.01l-.01-.01v-.02l-.02-.02v-.01l-.01-.02-.01-.01V306l-.02-.02v-.01l-.01-.01-.02-.02v-.01l-.02-.01v-.01zm-5.85.35-.1-.62.05-.01.09-.02.1-.02.13-.03.14-.03.17-.03.18-.04.19-.04.2-.04.21-.04.23-.04.23-.04.24-.04.25-.04.25-.04.25-.03.26-.03.25-.03.26-.02.25-.02.25-.01.24-.01h.47l.22.02.22.03.2.03.2.05.18.06.17.07.16.1.14.11-.43.45-.07-.05-.08-.05-.1-.05-.14-.04-.15-.03-.17-.03-.18-.02-.2-.01-.21-.01h-.45l-.23.02-.24.02-.25.02-.24.02-.25.03-.25.04-.24.03-.24.04-.23.04-.23.04-.22.04-.21.04-.2.04-.2.04-.17.03-.16.04-.14.03-.13.02-.1.03-.1.01zm-.1-.62.1.62h-.12l-.01-.01h-.02l-.01-.01h-.02l-.01-.01h-.01l-.02-.02-.02-.01-.01-.01-.01-.01-.01-.01-.01-.01-.01-.02h-.01l-.01-.02-.01-.01v-.02l-.01-.01-.01-.01v-.02l-.01-.02v-.03l-.01-.01v-.11l.01-.02v-.02l.02-.02v-.02l.02-.02v-.01l.01-.01.01-.01.01-.02h.01l.01-.02h.02v-.02h.02l.01-.01.02-.01h.01l.01-.01h.02l.01-.01h.02zm-2.1.83-.29-.56.07-.03.07-.02.07-.03.06-.02.08-.01.07-.02.08-.01.07-.01.08-.01.08-.01.08-.01h.08l.08-.01h.08l.09-.01h.24l.08-.01h.25l.08-.01h.15l.07-.01h.07l.07-.01h.06l.07-.02h.05l.06-.01.1.62-.07.01-.07.01h-.07l-.08.02h-.15l-.09.01H473l-.08.01h-.25l-.08.01h-.24l-.07.01h-.08l-.08.01h-.07l-.07.01-.07.01-.06.01h-.07l-.05.02h-.06l-.05.02-.04.02h-.04l-.04.02zm-6.79 3.7.04-.62-.16.03.4-.21.4-.21.37-.2.35-.2.34-.18.33-.17.3-.17.3-.17.28-.15.26-.15.26-.14.23-.13.23-.13.21-.12.2-.12.2-.1.18-.1.17-.1.16-.1.16-.09.14-.08.13-.08.13-.08.12-.06.12-.07.1-.06.1-.06.1-.05.1-.05.09-.05.08-.04.08-.05.28.56-.07.04-.08.04-.08.05-.1.05-.09.05-.1.06-.1.06-.12.06-.12.07-.12.07-.14.08-.14.09-.15.08-.16.1-.18.1-.18.1-.2.1-.2.12-.21.13-.23.13-.24.13-.25.14-.27.15-.28.16-.3.16-.3.17-.33.17-.34.19-.36.2-.37.2-.4.2-.4.22zm-.12-.59.29.56h-.02l-.01.01h-.01l-.02.01h-.03l-.02.01h-.12l-.01-.01h-.01l-.02-.01h-.01l-.02-.01v-.01h-.02l-.01-.02h-.02v-.02h-.02l-.01-.02-.01-.01-.01-.01V310h-.02v-.02l-.01-.02v-.01l-.01-.02v-.01l-.01-.02v-.04l-.01-.02v-.09l.01-.01v-.02l.01-.01.01-.01v-.02l.01-.01.01-.01.01-.02h.01l.01-.02.01-.01.01-.01.01-.01.02-.01v-.01h.02zm-9.83-.1.54.33-.24-.48.24.02.26.01.27.02h.28l.29.02h.29l.3.01h.3l.32.01h.31l.32.01h1.64l.33.01h1.31l.33.01h.62l.32.01.3.01.3.01.29.01.28.01.27.01.27.02.25.02-.04.62-.25-.01-.26-.02-.27-.01-.27-.01-.29-.01-.3-.01h-.3l-.3-.01h-.31l-.32-.01h-.97l-.33-.01h-1.98l-.32-.01h-.64l-.31-.01h-.31l-.3-.02h-.3l-.3-.01-.27-.02h-.28l-.26-.02-.26-.02zm.3-.15-.05.63h-.05l-.01-.01h-.02l-.01-.01h-.02l-.01-.01-.01-.01h-.02v-.02h-.02l-.01-.02h-.01l-.01-.02h-.01l-.01-.02-.01-.01-.01-.01-.01-.02v-.01l-.01-.01-.01-.02v-.03l-.01-.01v-.03l-.01-.02v-.09l.01-.02v-.01l.01-.02v-.01l.01-.02v-.01l.02-.01v-.02h.02v-.02l.02-.01v-.01l.02-.01v-.01l.02-.01h.01l.02-.02h.01l.01-.01h.02l.01-.01h.02l.01-.01h.06l.02-.01zm3.72-12.35.2.6.21-.27-.04.4-.04.41-.05.4-.05.42-.06.4-.07.4-.07.41-.07.41-.08.4-.09.4-.09.41-.1.4-.1.4-.1.4-.12.4-.12.4-.12.4-.13.39-.13.39-.14.39-.15.39-.15.38-.16.38-.16.38-.17.38-.17.37-.18.38-.18.37-.2.36-.19.36-.2.36-.2.36-.55-.32.2-.35.2-.35.2-.35.18-.36.18-.36.17-.36.17-.37.17-.37.15-.37.16-.37.15-.38.14-.38.13-.38.14-.38.12-.39.12-.38.12-.4.11-.38.1-.4.1-.39.1-.39.09-.4.08-.4.08-.39.07-.4.07-.4.06-.4.06-.39.06-.4.04-.4.05-.4.03-.4zm.41.33-.63-.06v-.03l.01-.01v-.02l.01-.01v-.02l.01-.01v-.01l.02-.02v-.01l.01-.01.01-.02h.01l.01-.02h.01l.01-.02h.02V297h.02l.02-.01v-.01h.02l.02-.01h.01l.02-.01h.03l.01-.01h.13l.01.01.02.01h.01l.01.01.02.01h.01l.01.02h.01l.02.02.02.02.02.02v.01l.01.02h.01l.01.02v.02l.01.01v.01l.01.02v.03l.01.02zm1.18-.87.27.57-.03.01-.05.02-.05.02-.05.02-.05.01-.05.02-.06.02-.05.02-.04.01-.06.02-.05.02-.05.02-.05.01-.05.02-.05.02-.05.02-.05.01-.06.02-.05.02-.05.02-.05.01-.05.02-.05.02-.05.02-.06.01-.05.02-.05.02-.05.02-.05.01-.05.02-.05.02-.05.01-.05.02-.2-.6.05-.01.05-.02.05-.02.05-.01.06-.02.05-.02.05-.02.05-.01.05-.02.05-.02.05-.01.05-.02.05-.02.06-.02.05-.01.04-.02.05-.02.06-.02.05-.01.05-.02.05-.02.05-.01.05-.02.05-.02.05-.02.05-.01.05-.02.05-.02.05-.02.05-.02.05-.01.05-.02zm.24.58-.2-.6h.19l.02.01.02.01h.02v.02h.02l.01.01.02.01v.01l.02.01.01.01.01.01v.02l.02.01v.01l.02.02v.03l.01.01v.02l.01.01v.03l.01.02v.1l-.01.02v.01l-.01.02v.01l-.02.01v.02l-.01.01-.01.01v.01l-.02.02-.02.02h-.01l-.01.02h-.02v.01l-.02.01-.02.01h-.01zm10.66-35.45.51-.36.02.03.82 1.6.73 1.57.64 1.54.55 1.5.47 1.47.38 1.45.3 1.4.23 1.4.14 1.34.07 1.32-.02 1.29-.09 1.26-.16 1.22-.23 1.2-.31 1.17-.38 1.13-.44 1.1-.52 1.07-.57 1.04-.65 1.01-.7.98-.76.94-.83.92-.88.88-.94.85-.99.83-1.04.79-1.1.76-1.15.73-1.2.7-1.24.67-1.29.64-.27-.57 1.27-.63 1.23-.66 1.17-.69 1.13-.72 1.08-.74 1.02-.78.97-.8.92-.83.86-.86.8-.9.74-.91.68-.95.63-.98.56-1 .5-1.04.42-1.07.37-1.1.3-1.12.22-1.16.16-1.18.09-1.22v-1.26l-.06-1.28-.13-1.32-.22-1.34-.3-1.39-.37-1.4-.47-1.46-.54-1.47-.63-1.52-.72-1.54-.8-1.58zm.53-.33-.55.3v-.01l-.01-.02v-.01l-.01-.02v-.01l-.01-.02v-.14l.01-.02v-.02l.01-.01.01-.01v-.02l.02-.01v-.01l.01-.02h.01l.01-.02h.01l.02-.02.02-.02h.01l.02-.01.01-.01h.02l.01-.01h.02l.01-.01h.03l.02-.01h.1l.02.01h.01l.02.01h.01l.01.02h.02v.01h.02l.01.02h.02v.02l.02.01v.01l.02.01v.02l.01.01zm-6.59-7.5.5-.38.19.24.18.24.19.24.19.25.19.24.19.25.2.24.18.25.2.25.2.25.2.25.19.24.2.25.2.25.2.25.19.25.2.25.19.25.2.25.19.24.2.25.18.25.2.25.18.24.2.25.18.24.18.24.18.24.18.24.18.24.17.24.17.24-.51.36-.17-.23-.17-.24-.18-.23-.17-.24-.18-.24-.18-.24-.19-.24-.18-.25-.2-.24-.18-.25-.2-.24-.19-.25-.19-.24-.2-.25-.19-.25-.2-.25-.2-.25-.19-.25-.2-.25-.2-.25-.2-.24-.19-.25-.2-.25-.19-.25-.2-.25-.19-.25-.19-.24-.19-.25-.19-.25-.19-.24-.18-.24zm.5-.38-.5.37v-.01l-.01-.01-.01-.02-.01-.01v-.02h-.01v-.02l-.01-.02v-.18l.01-.01v-.02l.01-.01.01-.01.01-.02.02-.02v-.01l.02-.01.01-.02h.01l.01-.02h.02l.01-.01.01-.01h.02l.01-.01.02-.01h.03l.01-.01h.17v.01h.02l.02.02h.01l.01.01h.02v.02h.02l.01.02.01.01.01.01zm-1.74-1.89.6-.17.03.08.02.08.03.07.02.08.03.07.02.07.03.06.03.07.02.06.03.07.03.05.03.07.03.06.04.06.03.06.03.05.04.06.03.06.04.06.04.06.04.05.04.07.04.05.04.06.04.06.05.07.04.06.05.06.05.07.05.07.05.07.05.07-.5.37-.05-.07-.05-.07-.05-.07-.05-.06-.05-.07-.05-.07-.05-.06-.04-.06-.05-.07-.04-.06-.05-.06-.04-.07-.04-.06-.04-.07-.04-.06-.04-.07-.04-.07-.04-.06-.03-.07-.04-.07-.03-.07-.04-.07-.03-.07-.03-.08-.03-.07-.03-.08-.03-.08-.03-.07-.03-.09-.03-.08-.02-.09zm.6-.17-.6.17v-.06l-.01-.01v-.08l.01-.01v-.02l.01-.01v-.02l.01-.01.01-.01v-.02l.02-.01v-.01l.02-.01v-.02h.02v-.02h.02l.01-.02h.01l.02-.01.01-.01h.01l.02-.01h.01l.02-.01h.01l.02-.01h.14l.01.01h.02l.01.01h.01l.02.01.01.01.01.01.02.01v.01l.02.01.01.01.01.01.01.01v.02h.02v.02l.01.01.01.02v.01l.01.02zm-1.3-11.09.6.14.01-.02-.05.35-.05.34-.04.33-.04.34-.04.33-.03.33-.03.32-.03.33-.02.32-.01.32-.01.32v1.28l.02.32.02.33.02.33.03.33.04.33.04.34.05.34.05.34.06.36.07.35.07.37.08.37.09.37.09.39.1.39.1.4.12.4-.6.17-.12-.4-.11-.42-.1-.4-.1-.39-.08-.38-.08-.38-.08-.37-.07-.36-.06-.36-.05-.36-.05-.35-.05-.35-.03-.34-.03-.34-.03-.34-.02-.34-.01-.33-.01-.33v-.99l.01-.33.02-.33.02-.33.02-.33.03-.33.03-.34.04-.33.04-.34.05-.35.05-.35.05-.35zm.61.12-.62-.1v-.03l.01-.01v-.02l.01-.01v-.02h.02v-.02l.01-.02h.01l.01-.02.01-.01.01-.01.01-.01.01-.01.02-.01.02-.02h.01l.02-.01h.01l.02-.01h.01l.01-.01h.03l.02-.01h.11l.01.01h.02l.01.01.02.01h.01l.01.01.02.01v.01l.02.01.01.01.01.01.01.01.01.02h.01l.01.02.01.01v.02l.01.01.01.01v.02l.01.01v.03l.01.02zm9.39-8.9.47.42-.17.1-.58.13-.56.12-.54.12-.5.12-.5.12-.46.13-.43.12-.42.13-.4.13-.38.14-.35.15-.34.15-.32.17-.3.17-.28.18-.27.2-.26.22-.25.22-.23.25-.22.26-.21.29-.2.3-.2.33-.2.36-.17.38-.17.4-.17.45-.17.46-.16.5-.15.54-.16.56-.15.6-.6-.14.15-.61.15-.58.16-.55.17-.51.17-.49.17-.46.19-.43.19-.4.2-.38.21-.36.22-.33.24-.32.24-.29.26-.27.27-.26.29-.23.3-.22.31-.2.33-.2.35-.17.36-.17.38-.15.4-.15.4-.14.44-.13.45-.13.47-.12.5-.13.51-.12.54-.12.56-.13.59-.13zm.3.52-.13-.62h.14l.01.01h.02l.01.01h.02v.01l.02.01h.01l.02.02.02.02h.01l.01.02h.01l.01.02.01.01.01.01v.02l.02.01v.03l.01.02v.01l.01.02v.16l-.01.02-.01.01v.02h-.01l-.01.02-.01.02h-.01v.02l-.02.01-.01.01-.01.01-.01.01-.02.01-.02.02h-.01l-.02.01h-.01l-.02.01h-.03m2.08-2.87.53-.34-.03.38-.09.1-.08.1-.09.09-.08.1-.08.08-.07.09-.08.08-.07.09-.08.08-.07.08-.07.08-.07.08-.07.08-.07.08-.07.08-.06.07-.07.08-.07.08-.07.08-.07.08-.07.08-.07.08-.07.08-.08.08-.07.09-.08.08-.07.09-.08.09-.08.09-.09.1-.08.1-.09.09-.47-.42.09-.1.08-.1.08-.09.09-.09.07-.09.08-.09.08-.08.07-.08.08-.09.07-.08.07-.08.07-.08.07-.08.07-.07.06-.08.07-.08.07-.08.07-.08.07-.08.07-.07.07-.08.07-.08.07-.08.08-.09.07-.08.08-.09.07-.09.08-.08.08-.1.09-.09.08-.1.09-.1zm.5.04-.47-.42h.01l.01-.02.01-.01h.01l.02-.02h.01l.02-.01v-.01h.02l.02-.01h.01l.02-.01h.03l.01-.01h.1l.02.01h.01l.02.01h.01l.02.01.01.01h.01l.02.02h.01l.01.02h.01l.01.02.01.01.01.01.01.02h.01v.02l.02.02v.02l.01.02v.01l.01.02v.16l-.01.02-.01.01v.01l-.01.02-.01.01-.01.01zm-7.14-4.88-.04-.63h.53l.26.02.27.05.26.05.25.07.26.08.26.1.25.1.25.12.25.13.24.14.24.15.24.16.24.17.23.18.23.18.22.2.23.2.22.2.21.22.21.21.2.23.21.22.2.24.2.23.18.25.19.24.17.24.18.25.17.25.16.25-.53.34-.16-.24-.16-.24-.17-.24-.17-.24-.18-.23-.18-.23-.18-.23-.2-.22-.19-.22-.2-.22-.2-.2-.2-.2-.2-.2-.22-.2-.21-.17-.22-.18-.22-.16-.22-.16-.22-.15-.22-.14-.23-.13-.22-.12-.23-.1-.23-.1-.22-.08-.23-.08-.23-.06-.23-.05-.22-.03-.23-.02-.23-.01zm-.04-.63.04.63h-.07l-.01-.01h-.03l-.02-.01h-.01l-.02-.01-.01-.01h-.01l-.02-.02-.02-.01-.01-.01-.01-.02h-.01l-.01-.02h-.01l-.01-.02-.01-.01v-.02l-.01-.01-.01-.01V224l-.01-.01v-.02l-.01-.01v-.16l.01-.01v-.02l.01-.01.01-.02.02-.02v-.01l.01-.02h.01l.01-.02.02-.01v-.01h.02l.01-.02h.01l.02-.01.01-.01h.01l.02-.01h.01l.02-.01h.03l.01-.01zm-4.45 2.73-.43-.47.12-.1.12-.1.13-.11.13-.1.13-.1.14-.1.13-.1.14-.1.14-.1.15-.09.15-.09.15-.09.15-.08.15-.09.16-.08.16-.08.16-.07.16-.08.16-.07.16-.06.17-.07.16-.05.16-.06.17-.05.17-.05.16-.04.17-.04.17-.03.16-.03.17-.02.16-.02.17-.01.04.63h-.15l-.15.02-.14.02-.15.03-.15.03-.15.03-.15.04-.15.04-.15.05-.15.05-.16.06-.15.05-.15.06-.15.07-.15.07-.15.07-.14.07-.15.08-.14.08-.15.08-.14.08-.14.09-.13.08-.14.1-.13.08-.13.1-.12.09-.13.1-.12.09-.11.1-.12.09zm-.43-.47.43.47h-.02l-.01.02h-.01l-.02.01-.01.01h-.01l-.02.01h-.01l-.02.01h-.01l-.02.01h-.15l-.01-.01h-.01l-.02-.01-.01-.01h-.02v-.02h-.02l-.01-.02h-.02v-.02h-.02l-.01-.02v-.01l-.02-.02-.01-.02-.01-.02v-.01l-.01-.02v-.01l-.01-.02v-.17l.01-.02.01-.01v-.02h.01l.01-.02.01-.02h.01l.01-.02zm-5.38 10.3-.6-.2.09-.25.09-.26.1-.28.1-.28.12-.3.12-.3.13-.31.13-.32.14-.33.15-.33.15-.33.16-.34.17-.35.18-.34.18-.35.18-.35.2-.34.2-.35.2-.35.21-.35.22-.34.22-.33.23-.34.23-.33.24-.32.25-.32.25-.3.26-.3.26-.3.27-.28.27-.27.28-.26.43.47-.27.24-.26.26-.26.27-.25.28-.25.29-.24.3-.24.3-.23.31-.23.32-.22.33-.21.32-.22.34-.2.33-.2.34-.2.34-.19.34-.18.34-.18.35-.16.33-.17.34-.16.33-.15.33-.14.33-.14.31-.13.32-.13.3-.12.3-.1.29-.11.28-.1.27-.09.25zm-.6-.2.6.2v.02l-.01.01v.01l-.02.02v.01l-.01.01-.01.02h-.01l-.01.02-.01.01-.01.01-.02.01-.02.02h-.01l-.02.01h-.01l-.02.01-.01.01h-.03l-.01.01h-.16l-.01-.01-.02-.01h-.01l-.02-.01v-.01l-.02-.01-.01-.01-.02-.01v-.01l-.02-.01v-.01l-.02-.01v-.02h-.01l-.01-.02-.01-.02-.01-.02v-.02l-.01-.01v-.03l-.01-.02v-.12zm-.63 19.99-.63-.02.02-.56v-.56l.02-.58v-1.82l-.01-.63v-.63l-.01-.65v-.64l-.01-.66v-3.32l.02-.67.02-.66.02-.66.03-.66.04-.65.05-.65.05-.65.07-.63.08-.63.08-.61.1-.6.11-.6.13-.58.13-.57.15-.56.17-.54.6.2-.16.52-.15.53-.13.55-.12.57-.11.58-.1.6-.08.6-.07.6-.07.63-.05.64-.05.64-.04.64-.03.65-.03.66-.01.66-.02.66v.66l-.01.67v1.98l.01.65v.65l.01.64v.64l.01.63v2.4l-.01.58zm-.63-.02.63.02v.06l-.01.01v.02l-.01.01v.02l-.02.01v.01l-.01.02-.01.01v.01l-.02.01v.01l-.02.01-.01.02h-.01l-.02.01v.01l-.02.01h-.01l-.02.01-.01.01h-.03l-.02.01h-.03l-.01.01h-.1l-.01-.01h-.02l-.01-.01H457l-.02-.01-.01-.01-.01-.01h-.02l-.01-.02h-.01l-.01-.02h-.01l-.01-.02-.01-.01-.01-.01-.01-.02-.01-.02-.01-.02v-.01l-.01-.01V256l-.01-.01zm-3.4 12.18-.32-.54-.04.03.33-.3.32-.29.3-.3.26-.3.26-.3.23-.32.22-.32.2-.31.18-.33.17-.33.15-.33.14-.34.13-.35.11-.35.1-.35.1-.36.08-.37.07-.37.06-.38.06-.38.04-.38.05-.4.03-.4.03-.4.03-.4.02-.42.02-.42.01-.42.02-.43.01-.44.02-.44.01-.44.63.02-.02.44-.01.44-.01.44-.02.43-.02.43-.01.42-.03.42-.02.41-.03.42-.04.4-.04.4-.05.4-.06.4-.06.4-.08.38-.08.38-.1.38-.1.38-.13.36-.13.37-.15.37-.17.35-.18.36-.2.34-.2.35-.24.34-.25.33-.27.33-.3.32-.3.32-.34.32-.35.3zm-.36-.51.4.48-.01.01-.02.01-.02.02h-.03l-.01.02h-.06l-.02.01h-.1l-.02-.01h-.03l-.01-.02h-.02v-.01h-.02l-.01-.02h-.02v-.01l-.02-.02h-.01l-.01-.02-.01-.01-.01-.02-.02-.02v-.02l-.01-.01v-.01l-.01-.02v-.03l-.01-.01v-.14l.01-.01v-.02l.01-.01.01-.01v-.02l.02-.01v-.01l.01-.02h.01l.01-.02.02-.01zm-6.12 5.3-.46-.43.2-.2.19-.2.19-.19.19-.19.2-.18.19-.18.19-.17.2-.17.19-.16.2-.16.19-.16.2-.15.2-.15.2-.15.2-.15.2-.14.2-.14.2-.14.21-.14.2-.14.22-.14.21-.13.22-.14.21-.13.22-.13.22-.14.22-.13.23-.14.23-.14.23-.14.23-.14.24-.14.32.54-.24.14-.23.14-.23.14-.23.14-.22.13-.22.14-.22.13-.22.13-.21.14-.21.13-.21.13-.2.14-.21.13-.2.14-.2.13-.2.14-.2.14-.2.14-.19.15-.19.14-.2.15-.18.16-.2.15-.18.16-.19.16-.18.17-.19.17-.18.18-.2.18-.18.18-.18.2zm-.46-.43.46.43v.01l-.02.01-.01.01-.01.01-.02.01-.01.01h-.01l-.02.01h-.01l-.02.01h-.01l-.01.01h-.05l-.02.01h-.08l-.02-.01h-.01l-.02-.01h-.01l-.02-.02h-.01l-.01-.01-.02-.01v-.01l-.02-.01-.01-.01-.01-.01-.01-.02-.01-.01-.01-.01-.01-.02v-.01l-.01-.01v-.02l-.01-.01v-.02l-.01-.01v-.05l-.01-.01v-.08l.01-.01v-.03l.01-.01.01-.02v-.01l.01-.02h.01l.01-.02.01-.01zm-27.61 30.2.01.63-.24-.53.88-.95.88-.94.88-.95.87-.95.87-.94.88-.95.87-.95.87-.94.86-.95.87-.95.87-.94.86-.95.87-.94.86-.95.87-.95.86-.95.87-.94.86-.95.87-.95.86-.94.87-.95.86-.95.87-.94.87-.95.87-.95.87-.95.87-.94.87-.95.88-.94.87-.95.88-.95.88-.95.46.43-.88.95-.88.94-.87.95-.87.95-.88.94-.87.95-.87.95-.87.94-.87.95-.86.95-.87.94-.87.95-.86.95-.86.94-.87.95-.86.95-.87.94-.86.95-.87.95-.86.94-.87.95-.87.95-.86.94-.87.95-.87.95-.87.95-.87.94-.87.95-.88.95-.88.95-.88.94-.88.95zm-.23.1.46.43v.01l-.02.01-.01.01-.01.01h-.02v.02h-.02l-.02.01-.02.01-.02.01h-.17l-.01-.01h-.02l-.01-.01h-.02v-.02h-.02l-.01-.01-.02-.01v-.01l-.02-.02h-.01l-.01-.02-.01-.01-.01-.02-.02-.02v-.02l-.01-.02v-.02l-.01-.01v-.18l.02-.02v-.03h.02v-.02l.01-.01.01-.02zm26.12-1.85-.52-.35.31.49-.8.13-.78.13-.8.13-.79.12-.79.11-.79.11-.79.1-.79.1-.79.1-.78.09-.8.08-.78.09-.8.07-.79.08-.79.07-.8.06-.79.06-.8.06-.8.06-.8.05-.8.05-.8.05-.8.04-.82.04-.81.04-.82.04-.82.03-.82.04-.83.03-.83.03-.83.02-.84.03-.01-.63.83-.03.84-.02.82-.03.83-.03.82-.04.82-.03.81-.04.81-.04.8-.04.81-.04.8-.05.8-.05.8-.05.8-.05.8-.06.79-.07.79-.06.79-.07.79-.07.78-.08.8-.08.78-.09.78-.09.79-.1.78-.09.79-.1.79-.11.78-.11.79-.12.79-.13.79-.12.79-.14zm-.2.14-.11-.62h.14l.01.01h.01l.02.01.01.01h.02v.01l.02.01.01.01.02.01v.01l.02.01v.01l.02.02.01.02.01.01.01.02v.01l.01.01v.02l.01.02v.03l.01.01v.13h-.01v.02l-.01.02-.01.01v.01l-.02.02v.01l-.01.01-.01.01-.01.02h-.01l-.01.02h-.02v.02h-.02l-.01.01h-.02l-.01.02h-.03l-.02.01zm-6.67 13.18-.6-.2.18-.51.17-.5.17-.49.17-.47.17-.46.18-.45.17-.44.18-.43.18-.42.18-.41.19-.4.18-.4.2-.4.19-.4.2-.38.2-.39.2-.38.21-.38.22-.38.22-.39.23-.38.23-.39.24-.39.25-.4.25-.4.26-.4.27-.42.27-.42.29-.43.29-.44.3-.45.3-.47.53.35-.3.47-.3.45-.3.44-.28.42-.28.42-.26.42-.26.4-.25.4-.24.4-.24.38-.23.38-.23.38-.21.38-.22.37-.2.38-.2.38-.2.38-.2.38-.19.38-.19.4-.18.38-.18.4-.18.41-.18.41-.17.43-.17.43-.18.44-.17.46-.17.46-.17.48-.17.5zm-.6-.2.6.2v.03l-.01.01-.01.02-.02.02v.02h-.02v.02h-.02l-.01.02h-.01l-.01.02h-.02v.01l-.02.01h-.02l-.01.01h-.01l-.02.01h-.01l-.02.01h-.14l-.01-.01h-.02l-.01-.01h-.02l-.01-.02h-.01l-.02-.01-.01-.01-.01-.01-.01-.01-.01-.01-.01-.01-.01-.02h-.01l-.01-.02v-.01l-.01-.02-.01-.01v-.02h-.01v-.02l-.01-.02zm1.57 2.53-.54.32v.01l-.05-.09-.07-.08-.06-.09-.06-.08-.06-.08-.06-.08-.06-.07-.06-.08-.06-.07-.06-.08-.05-.06-.06-.08-.06-.08-.04-.07-.05-.07-.05-.08-.05-.08-.04-.09-.03-.08-.04-.09-.03-.09-.02-.1-.02-.09-.01-.1v-.32l.01-.1.02-.12.03-.11.03-.12.04-.13.6.2-.04.1-.02.1-.02.08-.01.08-.01.08v.26l.01.06.02.06.02.06.02.05.02.06.03.06.03.05.04.06.04.06.04.07.04.06.05.06.06.07.05.07.06.07.06.07.06.08.06.08.07.09.07.09.06.09.07.1zm-.53.33.52-.35v.02l.02.01v.01l.01.02v.01l.01.02v.03l.01.01v.14l-.01.01-.01.02v.01l-.01.01-.01.02v.01l-.02.01v.02h-.02v.02l-.02.01-.01.01-.01.01h-.02l-.01.02h-.01l-.02.01h-.01l-.02.01h-.01l-.02.01h-.03l-.01.01h-.11l-.01-.01h-.02l-.01-.01h-.01l-.02-.01-.01-.01-.01-.01h-.02v-.02h-.02l-.01-.02h-.01l-.01-.02-.01-.01zm7.16 17.73-.43-.46-.09.31-.16-.6-.17-.6-.17-.6-.17-.6-.17-.59-.16-.58-.17-.58-.17-.58-.18-.57-.17-.57-.18-.56-.17-.55-.19-.56-.18-.55-.19-.55-.2-.54-.19-.54-.2-.54-.2-.54-.21-.53-.22-.53-.22-.53-.23-.53-.23-.52-.24-.53-.25-.52-.26-.52-.26-.52-.27-.51-.28-.52-.3-.52-.3-.51.55-.32.3.52.3.53.28.52.28.53.26.52.26.53.25.53.25.53.24.53.23.53.22.54.22.54.21.54.21.54.2.54.2.55.2.55.18.55.2.55.17.56.18.56.18.57.17.57.18.57.17.58.17.58.17.59.17.59.16.6.17.6.17.6.17.6zm-.52-.15.6-.16.01.01v.03l.01.02v.09l-.01.02v.01l-.01.01v.02l-.01.01-.01.02-.02.02v.01l-.01.02h-.02v.02h-.02v.02h-.02l-.01.01-.02.01-.01.01h-.01l-.02.01h-.01l-.02.01h-.01l-.02.01h-.14l-.01-.01h-.02l-.01-.01h-.01l-.02-.02h-.01l-.01-.01-.02-.01v-.01l-.02-.01v-.01l-.02-.01v-.01l-.02-.02-.01-.02-.01-.02v-.01l-.01-.01-.01-.02zm-4.06 4.75v.63l-.21-.54.16-.16.16-.15.15-.16.15-.16.14-.15.14-.16.13-.16.13-.16.13-.16.13-.15.12-.16.12-.16.12-.16.13-.16.11-.16.12-.16.12-.16.12-.16.13-.17.12-.16.12-.16.13-.16.13-.17.13-.16.14-.17.14-.16.14-.16.15-.17.16-.16.16-.17.16-.16.17-.17.43.46-.16.16-.16.15-.15.16-.14.16-.15.15-.14.16-.13.16-.13.16-.13.16-.13.16-.12.15-.12.16-.12.16-.12.16-.12.16-.12.16-.12.16-.12.16-.12.17-.13.16-.12.16-.13.17-.13.16-.13.16-.14.17-.14.16-.14.16-.15.17-.16.16-.15.17-.17.16-.17.17zm-.21.1.43.45h-.01l-.01.02h-.02l-.01.02h-.01l-.02.01h-.01l-.02.01-.02.01h-.03l-.02.01h-.12l-.01-.01h-.02l-.01-.01h-.02l-.01-.02h-.01l-.02-.01v-.01l-.02-.01-.01-.01-.01-.01-.01-.02h-.02v-.02l-.01-.01-.01-.02v-.01l-.01-.02-.01-.01v-.01l-.01-.02v-.06l-.01-.01v-.08l.01-.01v-.02l.01-.01v-.02l.01-.01.01-.01v-.02l.02-.01v-.01l.02-.01v-.02zm2.97-.25.59.23-.3.2h-.36l-.11.01-.1.01h-.1l-.1.02-.08.01-.08.01-.08.01-.07.02-.08.01-.07.02-.08.01-.07.02-.07.02-.07.01-.08.02-.08.02-.08.01-.08.02-.08.02-.1.01-.09.02h-.1l-.1.02-.1.01h-.12l-.12.02h-.4v-.63h.37l.11-.01h.1l.1-.02h.1l.08-.02h.08l.08-.02.08-.02.07-.01.08-.02.07-.01.07-.02.07-.01.07-.02.08-.02.08-.02.08-.01.08-.02.08-.01.1-.02.09-.01.1-.02h.1l.1-.02h.12l.12-.01h.12l.14-.01h.14zm.3.43v-.63h.08l.01.01h.02l.01.01h.01l.02.02h.01l.01.01.02.01.02.02.01.01.01.01.01.01.01.01v.02l.02.01v.01l.01.02v.01l.01.01v.02l.01.01v.03l.01.02v.11l-.01.02v.01l-.01.02v.01l-.02.01v.02h-.01l-.01.02-.01.01-.01.01-.01.02h-.01l-.01.02h-.01l-.02.01-.01.01-.01.01h-.02l-.01.01h-.01l-.02.01h-.01l-.02.01h-.06m4.14-4.16-.05.63h-.19l-.1.03-.12.03-.12.04-.13.06-.14.06-.14.08-.15.09-.14.1-.15.1-.15.11-.15.12-.16.13-.15.13-.14.13-.15.14-.15.14-.13.15-.14.14-.13.15-.13.14-.12.15-.12.14-.1.14-.1.14-.1.13-.07.13-.08.12-.06.11-.05.1-.04.1-.59-.23.06-.13.06-.13.08-.14.08-.14.1-.14.1-.14.1-.15.12-.16.12-.15.13-.15.14-.16.14-.15.14-.16.15-.15.15-.15.16-.15.16-.14.16-.14.16-.14.16-.13.17-.12.16-.12.17-.1.17-.1.16-.1.17-.07.16-.07.16-.06.17-.05.16-.03.16-.01zm-.05.63.05-.63h.05l.02.01h.01l.02.01.01.01h.01l.02.01v.01l.02.01.01.01.02.01v.01l.02.01v.01l.02.01v.02h.01l.01.02v.02l.01.01.01.01v.02l.01.01v.03l.01.02v.11l-.01.02v.01l-.01.02-.01.02-.01.02h-.01v.02l-.02.01v.02h-.02l-.01.02h-.01l-.01.02h-.01l-.02.01-.01.01h-.01l-.02.01-.01.01h-.02l-.01.01h-.05l-.01.01zm1.18.06-.36.51-.06-.03-.04-.04-.05-.03-.05-.04-.04-.03-.04-.03-.04-.03-.04-.03-.04-.03-.03-.03-.04-.02-.03-.03-.03-.02-.03-.02-.03-.02-.03-.02-.02-.02-.02-.01-.03-.02-.02-.02h-.02l-.01-.02h-.01l-.02-.01h-.02v-.01h-.02v-.01h-.01l.05-.63h.04l.04.01.04.01.03.01.03.01.04.02.03.01.03.02.03.01.03.02.04.02.02.02.03.01.03.02.03.03.03.02.03.02.03.02.03.03.04.02.03.03.03.02.04.03.04.03.03.02.04.04.04.02.05.04.04.03.04.03.05.03zm-.36.51.36-.51h.01l.01.02.02.01v.01l.02.01v.02h.02v.02l.01.01v.02l.02.01v.03l.01.01v.05l.01.01v.11l-.01.01v.02l-.01.01-.01.02v.01l-.02.01v.02l-.02.01v.01l-.02.01v.01l-.02.02h-.01l-.01.01-.02.01-.01.01h-.01l-.02.01-.01.01h-.03l-.02.01h-.04l-.02.01H449l-.02-.01h-.01l-.01-.01h-.02l-.01-.01-.02-.01h-.01zm5.68 3.26.03.63-.2-.06-.18-.13-.18-.13-.18-.12-.17-.13-.18-.12-.17-.12-.18-.12-.17-.12-.17-.12-.17-.11-.16-.12-.17-.11-.17-.12-.17-.11-.16-.12-.17-.11-.17-.11-.16-.12-.17-.11-.17-.12-.17-.12-.17-.11-.17-.12-.17-.11-.17-.12-.17-.12-.18-.13-.17-.12-.18-.12-.18-.13-.18-.13-.18-.13.36-.51.18.13.18.13.18.12.18.13.17.12.18.12.17.12.17.12.17.11.17.12.17.12.16.11.17.12.17.11.17.12.16.1.17.12.17.12.16.11.17.12.17.11.17.12.17.12.17.11.17.12.18.12.17.12.17.13.18.12.18.13.18.13.19.13zm-.17.57.37-.51.02.02h.01l.01.02h.01l.01.02.01.01.01.02v.01l.01.01.01.02v.01l.01.02v.01l.01.01v.17l-.01.01v.02l-.02.01v.02l-.01.01-.01.01-.01.02h-.01l-.01.02-.01.01-.01.01-.02.01v.01h-.02l-.01.02h-.02l-.01.01h-.02l-.01.01h-.02l-.02.01h-.15l-.02-.01-.01-.01h-.02l-.01-.01-.02-.01zm1.68-.16.4-.48-.16.55h-.07l-.07.02h-.06l-.06.01-.06.01h-.06l-.06.01h-.05l-.06.01-.05.01h-.05l-.06.01h-.09l-.05.01h-.05l-.05.01h-.09l-.06.01h-.09l-.05.01h-.1l-.05.01h-.16l-.06.01h-.11l-.03-.62h.11l.06-.01h.15l.05-.01h.1l.05-.01h.09l.05-.01h.09l.05-.01h.09l.05-.01h.05l.05-.01h.05l.05-.01h.05l.06-.01h.05l.06-.02h.06l.05-.01h.07l.06-.02h.07zm.24.07-.08-.62h.12l.02.01.02.01h.02l.01.02h.01l.02.01v.01l.02.01h.01l.01.02.01.01.01.01.01.02.02.02v.01l.01.02v.01l.01.02v.01l.01.02v.04l.01.02v.08l-.01.01v.02l-.01.01v.02h-.01l-.01.02v.02h-.02v.02l-.02.01v.01l-.02.01v.01l-.02.01-.01.01-.01.01-.02.01h-.01l-.01.01-.02.01h-.01l-.02.01h-.03zm-5.33-5.15-.01.62.2-.55.15.12.15.13.15.13.16.13.16.13.16.14.17.14.16.15.17.14.18.15.17.15.17.15.18.15.17.15.18.15.18.16.17.15.18.15.17.15.18.15.17.15.18.15.16.15.17.14.17.15.17.14.16.14.16.13.15.13.15.13.15.13.15.12-.4.48-.15-.12-.15-.13-.15-.13-.16-.13-.16-.13-.16-.14-.17-.15-.16-.14-.17-.14-.18-.15-.17-.15-.17-.15-.18-.15-.17-.15-.18-.16-.18-.15-.17-.15-.18-.15-.17-.16-.18-.15-.17-.15-.18-.14-.16-.15-.17-.15-.17-.14-.17-.14-.16-.14-.16-.13-.15-.13-.15-.13-.15-.13-.15-.12zm.2.07-.4.48-.02-.01-.01-.01-.01-.01-.01-.01v-.02h-.02v-.02l-.01-.02-.01-.01v-.01l-.01-.02v-.01l-.01-.02v-.18l.02-.01v-.03l.02-.01v-.01l.01-.02.01-.01.01-.01.01-.01.02-.02.02-.01.01-.01.02-.01h.01l.01-.01.02-.01h.01l.02-.01h.03l.01-.01h.12l.02.01h.01l.01.01h.02l.01.01.02.01v.01h.02zm5.26.1-.11.61.05.01h-.37l-.15-.01h-.16l-.18-.01h-.2l-.2-.01h-.21l-.23-.02h-.23l-.23-.01h-.24l-.25-.02h-.24l-.24-.01H453l-.23-.02h-.23l-.22-.01h-.2l-.2-.01-.19-.01h-.17l-.15-.01h-.24l-.1-.01h-.11l.01-.63h.33l.13.01h.15l.17.01h.19l.2.01.2.01h.22l.23.02h.23l.24.01.24.01h.24l.24.01.24.01h.24l.23.02h.23l.21.01h.2l.2.01h.17l.17.01h.27l.1.01h.19m-.06.62v-.63h.07l.01.01h.02l.01.01h.02l.01.01h.01l.02.02.02.01.01.01.01.01.02.01v.01l.02.02.01.02.01.01.01.02.01.02v.02l.01.01v.02l.01.01v.16l-.01.02-.01.02-.01.02-.02.02v.02h-.01l-.01.02-.01.01h-.02v.02h-.02l-.01.02h-.01l-.02.01-.01.01h-.01l-.02.01h-.01l-.02.01h-.03l-.02.01zm2.93.33-.27.57-.11-.05-.11-.05-.11-.05-.11-.05-.1-.05-.1-.04-.11-.04-.1-.04-.1-.04-.1-.03-.08-.04-.1-.03-.08-.03-.1-.03-.08-.03-.08-.02-.08-.03-.08-.02-.08-.03-.08-.02-.08-.02-.07-.02-.08-.02-.07-.01-.07-.02-.06-.02-.07-.01-.07-.02h-.06l-.07-.02-.06-.01-.06-.02.1-.61.08.01.06.01.07.02.07.01.07.02.07.01.07.02.08.02.08.01.07.02.08.02.08.03.09.02.08.02.09.03.08.03.1.02.09.03.09.04.1.03.09.03.1.04.1.04.1.04.1.04.11.04.1.05.12.04.11.05.11.05.12.06zm-.27.57.27-.57.01.01h.02l.01.02h.02v.01l.02.01.01.02h.01l.01.02.01.01v.01l.02.02.01.02v.02l.01.01v.01l.01.02v.04l.01.02v.09l-.01.02v.01l-.01.02v.01l-.02.02v.01l-.01.01-.01.02h-.01l-.01.02-.01.01-.01.01-.02.01v.01h-.02l-.01.02h-.02v.01h-.02l-.02.01h-.01l-.02.01h-.03l-.01.01h-.11l-.01-.01h-.02l-.01-.01zm2.17.8.27.56h-.26l-.07-.03-.07-.03-.07-.04-.07-.03-.07-.04-.07-.04-.07-.05-.07-.04-.06-.04-.07-.05-.07-.05-.07-.04-.07-.05-.07-.05-.07-.05-.07-.05-.07-.05-.06-.05-.07-.04-.07-.05-.07-.05-.07-.05-.06-.04-.07-.05-.07-.04-.06-.04-.07-.04-.07-.04-.06-.04-.07-.04-.06-.03-.07-.03.27-.57.08.04.08.04.07.04.08.04.07.05.07.04.08.05.07.05.07.04.08.05.07.05.07.05.07.05.07.05.07.05.07.05.06.05.07.05.07.04.07.05.06.04.07.05.06.04.06.04.07.04.06.04.06.04.06.03.05.03.06.03.06.02.05.03zm.01.57.25-.58h.01l.02.01.01.01h.01l.02.02.02.02h.01l.01.02.01.01.01.01v.02h.02v.04h.02v.05l.01.02v.15l-.01.01v.02l-.01.01-.01.02v.01l-.02.01v.02l-.02.01v.01l-.02.01v.01l-.02.01-.01.01-.01.01h-.02l-.01.02h-.03l-.01.01h-.02l-.01.01h-.03l-.02.01h-.1l-.02-.01h-.01zm1.95-.41.26-.58v.57l-.06.03-.07.03-.06.02-.07.02-.06.02-.07.02-.07.01-.07.01-.07.01-.07.02h-.07l-.07.02h-.06l-.07.01h-.07l-.06.02h-.07l-.07.01h-.06l-.07.02h-.06l-.06.01-.06.01h-.06l-.05.02-.05.01-.05.01-.05.02-.05.01-.04.02-.04.01-.04.02-.27-.57.06-.03.07-.02.06-.02.07-.02.07-.02.07-.02.07-.02h.06l.07-.02.07-.01.07-.01.07-.01h.07l.06-.02h.07l.07-.01h.06l.07-.01.07-.01.06-.01h.06l.06-.02h.06l.06-.01.05-.02h.06l.04-.02.06-.01.04-.02.04-.01.05-.02.03-.01zm.26 0-.27-.57.02-.01h.01l.02-.01h.03l.01-.01h.14l.01.01h.02l.01.01.01.01h.02l.01.02h.01l.02.01v.01l.02.01v.02h.02v.02l.02.01v.01l.01.02.01.01v.02l.01.01v.02l.01.01v.03l.01.02v.1l-.01.02v.01l-.01.02v.01l-.01.02h-.01l-.01.02v.01l-.02.02-.02.02-.02.02h-.01l-.01.02h-.02l-.01.02zm-5.96-3.23.14-.61.24.06.22.07.23.07.21.08.2.08.21.1.2.09.2.1.2.1.18.11.18.11.18.11.18.12.17.12.18.11.17.12.17.12.16.12.17.12.16.12.16.12.17.11.16.12.16.1.17.12.16.1.17.1.17.1.17.1.17.1.17.08.18.08-.26.58-.2-.1-.18-.09-.19-.1-.18-.1-.18-.1-.17-.11-.18-.11-.17-.12-.17-.12-.16-.11-.17-.12-.17-.12-.16-.12-.17-.12-.16-.12-.17-.11-.16-.12-.17-.11-.16-.12-.17-.1-.18-.11-.17-.1-.17-.1-.18-.1-.18-.1-.19-.08-.18-.09-.2-.08-.2-.07-.2-.06-.2-.07zm-9.01-.61.55-.29-.27-.17.33.01h.31l.32.01h4.24l.26.02h.27l.26.02.26.01.26.02.26.03.26.02.26.03.26.04.27.04.26.04.26.05.27.06.26.06-.14.61-.25-.06-.26-.05-.25-.05-.25-.04-.25-.04-.25-.03-.25-.03-.26-.03-.25-.02-.25-.02-.26-.01-.25-.02h-.26l-.25-.01-.26-.01h-4.3l-.32-.01-.32-.01zm.28-.46-.01.63h-.07l-.01-.01h-.02l-.01-.01h-.01l-.02-.01-.01-.01-.01-.01h-.02l-.01-.02h-.01l-.01-.02h-.01l-.01-.02-.01-.01-.01-.01-.01-.02-.02-.02v-.03l-.01-.01v-.02l-.01-.01v-.05l-.01-.02v-.08l.01-.01v-.01l.01-.02v-.01l.01-.02.01-.01v-.01l.02-.02.02-.02v-.01l.02-.01v-.01l.02-.01.01-.01h.02v-.02h.02l.02-.01.02-.01h.02l.01-.01zm-7.1-17.68.61-.14.15.6.15.6.16.59.16.59.16.58.17.58.17.58.17.58.18.57.18.57.19.56.19.57.2.56.2.55.2.56.2.56.21.55.22.55.22.55.22.55.23.55.23.55.24.55.24.55.25.54.26.55.25.55.26.55.27.55.27.55.28.55.28.55-.55.29-.29-.56-.28-.55-.27-.56-.27-.55-.27-.55-.26-.55-.25-.56-.25-.55-.24-.55-.24-.55-.24-.55-.23-.56-.23-.55-.22-.56-.21-.55-.22-.56-.2-.56-.21-.56-.2-.57-.2-.56-.19-.57-.18-.57-.19-.57-.18-.58-.17-.58-.17-.58-.17-.59-.17-.59-.16-.59-.16-.6-.15-.6zm.61-.14-.6.14-.01-.01v-.15l.01-.02v-.01l.02-.02v-.02l.02-.02.02-.02v-.01l.02-.01v-.01l.02-.01.01-.01.01-.01h.02l.01-.02h.01l.02-.01h.03l.01-.01h.02l.01-.01h.13l.01.01h.02l.01.01.01.01h.02v.01l.02.01.02.01v.01l.02.01v.01l.02.01v.01l.02.02.02.02v.01l.01.02v.01l.01.02v.01zm-.68-1.69.6.21-.02.06-.02.05-.01.05-.02.05v.04l-.01.05-.01.04v.04l-.01.04v.3l.01.04v.04l.01.04.01.04.01.05.01.05.02.04v.05l.02.05.01.06.02.05.01.06.02.06.02.06.01.07-.6.14-.02-.06-.02-.06-.01-.05-.02-.06-.01-.06-.02-.05-.01-.06-.01-.05-.02-.06v-.05l-.02-.04-.01-.06-.01-.05-.01-.06v-.05l-.01-.05v-.05l-.01-.06v-.34l.02-.06v-.06l.02-.06.01-.06.02-.07.02-.06.02-.07zm.6.21-.6-.2.01-.02v-.01l.01-.02.01-.01.01-.02.02-.02v-.01l.02-.01v-.01l.02-.01.01-.01.01-.01.02-.01h.01l.01-.01.02-.01h.01l.02-.01h.03l.01-.01h.14l.01.01h.02l.01.01.02.01h.01l.01.02h.02v.02h.02l.01.02h.01l.01.02.01.01.01.01v.02h.02v.04l.01.01v.01l.01.02v.01l.01.02v.14zm5.46-11.18.5.38-.28.36-.27.35-.25.34-.25.34-.24.34-.23.32-.23.33-.22.32-.2.31-.22.32-.2.3-.19.32-.19.3-.18.32-.18.3-.18.32-.17.31-.17.32-.16.31-.16.33-.16.32-.15.33-.16.34-.15.34-.15.34-.15.36-.14.36-.15.37-.14.38-.15.4-.15.4-.14.4-.6-.2.15-.42.15-.4.15-.4.15-.38.14-.38.15-.37.15-.36.16-.35.15-.35.16-.34.15-.34.17-.33.16-.33.17-.32.17-.33.17-.32.18-.31.19-.32.18-.32.2-.31.2-.32.2-.32.2-.32.22-.32.23-.32.22-.33.24-.33.24-.34.25-.34.26-.34.27-.36zm.5.38-.5-.38v.02l.02-.01v-.01l.02-.02h.01l.01-.01.02-.01v-.01h.02l.02-.01.01-.01h.01l.02-.01h.04l.02-.01h.1l.02.01h.01l.02.01h.01l.02.02.02.01.02.01v.01l.02.01.01.01.01.01.01.02h.01v.02l.02.02.01.02v.02l.01.01v.01l.01.02v.16l-.01.02v.01l-.01.02-.01.01v.02zm2.5-4.17.32.5-2.83 3.67-.5-.38 2.83-3.67zm.32.5-.5-.38.01-.02h.01l.01-.02.01-.01.02-.01v-.01h.02l.01-.02h.03l.02-.02h.04l.01-.01h.15l.02.01h.01l.02.01v.01l.02.01h.02v.02h.02l.01.02h.01l.02.02v.01l.01.01.01.02.01.01v.01l.01.02.01.01v.03l.01.01v.03l.01.02v.1l-.01.02v.01l-.01.02-.01.01v.02l-.01.01-.01.01zm4.54-1.3-.62-.07.4.34-.16.05-.15.04-.15.04-.14.04-.15.04-.14.04-.14.04-.14.04-.13.03-.14.04-.13.03-.14.04-.13.03-.13.04-.13.03-.14.04-.13.03-.13.03-.14.03-.13.03-.13.04-.14.03-.14.03-.14.04-.14.03-.14.03-.14.04-.15.03-.15.03-.15.04-.16.04-.15.03-.14-.61.16-.04.15-.03.15-.04.15-.03.15-.04.14-.03.14-.03.14-.03.14-.04.13-.03.14-.03.13-.03.14-.04.13-.03.13-.03.13-.03.13-.04.13-.03.13-.03.13-.04.14-.03.13-.04.13-.03.14-.04.14-.04.14-.04.14-.03.14-.04.14-.04.15-.05.15-.04.16-.04zm-.22.27-.17-.6h.01l.02-.01h.13l.02.01h.01l.02.01h.01l.01.02h.02l.01.01.01.01h.01l.02.02.02.02v.01l.02.01v.02l.01.01.01.01v.02l.01.01v.02l.01.01v.02l.01.01v.14l-.01.02v.01l-.01.01v.02l-.01.01-.01.01-.01.02-.02.02v.01l-.02.01v.01l-.02.01-.01.01-.02.01v.01h-.02l-.02.01-.01.01h-.02z" class="fil5"/><path d="M411.57 295.89c9.85-7.88 19.78-15.43 30.12-21.5 2.58-1.52 4.59-2.8 7.6-3.15 8-.94 16.42 1.2 15.6 8.12-.3 1.95-.95 2.82-2.38 4.03-14.82 12.63-27.38 18.28-49.76 19.73-.61-1.07-.24-1.48-.1-2.4-.36-.58-1.03-.26-1.99-.34-1.27-.12-1.56-.41-.24-1.31 1.25-.86 1.77-1.06 3.46-2.1z" class="fil3"/><path d="M411.4 295.62a392 392 0 0114.86-11.41 190 190 0 0115.27-10.1l.51-.3c2.37-1.4 4.34-2.55 7.2-2.89 2.23-.26 4.49-.28 6.58-.03 2.44.29 4.65.95 6.32 2.03a6.4 6.4 0 013.07 6.47v.03a6 6 0 01-.82 2.4c-.4.64-.94 1.18-1.68 1.81-7.43 6.34-14.3 10.92-22.13 14.1-7.82 3.2-16.58 4.97-27.82 5.7a.3.3 0 01-.3-.17c-.51-.92-.4-1.4-.23-2.04l.1-.41c-.17-.15-.46-.14-.82-.12q-.39.03-.87 0c-.77-.07-1.25-.23-1.37-.57-.11-.35.18-.77.97-1.31.77-.52 1.26-.8 1.9-1.17l1.08-.63-1.78-.84a.32.32 0 01-.04-.55m15.23-10.9a396 396 0 00-14.47 11.1l1.86.87q.08.05.13.12a.3.3 0 01-.1.43c-.7.43-1.19.71-1.6.95-.63.36-1.12.64-1.85 1.14q-.78.52-.73.59a6 6 0 001.61.14c.63-.03 1.1-.05 1.44.5q.06.09.05.21l-.13.6c-.12.46-.2.82.09 1.42 11.06-.73 19.7-2.5 27.42-5.63 7.75-3.16 14.57-7.72 21.95-14a7 7 0 001.55-1.67c.36-.57.58-1.24.73-2.16v-.01q.1-.86.01-1.62a5.8 5.8 0 00-2.8-4.25 14 14 0 00-6.04-1.94 28 28 0 00-6.43.04c-2.74.32-4.65 1.45-6.96 2.81l-.51.3a190 190 0 00-15.22 10.06" class="fil5"/><path fill="none" d="M448.95 276.16c-19.42 16.89-32.14 17.69-35.6 18.31" class="str1"/><path d="m449.04 276.26-.07.06c-17.94 15.57-30.16 17.45-34.65 18.13l-.95.16-.05-.27.96-.16c4.47-.68 16.64-2.54 34.51-18.07l.07-.06z" class="fil5 str1"/><path d="m452.03 280.14-.07.06c-18.67 14.69-32.75 16.32-37.28 16.8l-.95.1-.03-.27q.42-.06.96-.1c4.5-.47 18.53-2.1 37.13-16.75l.07-.05z" class="fil5 str1"/><path d="m455.8 284.06-.08.05c-22.93 15.31-36.7 16.57-41.96 16.71l-1.12.04-.02-.32 1.13-.03c5.25-.14 18.95-1.4 41.79-16.66l.08-.06z" class="fil5 str1"/><path d="m475.88 228.9-2.4 2.72 14.35 6.96z" class="fil7"/><path id="1" d="m473.34 231.9-.1-.49 2.4-2.73.48.42-2.41 2.73zm-.1-.49.47.42-.01.01-.01.01-.02.01v.01l-.02.01-.01.01h-.02l-.01.01-.01.01h-.02l-.01.01h-.02l-.01.01h-.15l-.02-.01h-.01l-.01-.01h-.02l-.01-.02h-.02v-.01l-.02-.01-.01-.01-.02-.01v-.01l-.02-.02-.02-.02v-.01l-.01-.02v-.01l-.01-.02-.01-.01v-.01l-.01-.02v-.18l.01-.01v-.02l.01-.01.01-.01.01-.02v-.01l.02-.01zm14.8 6.92-.34.53-14.36-6.95.27-.57 14.36 6.95zm-.34.53.27-.57h.01l.02.02h.01l.01.02h.02v.02h.02v.02l.02.01v.01l.02.01v.02l.01.01v.01l.01.02.01.01v.03l.01.02v.15l-.01.01v.02l-.01.01-.01.02v.01l-.02.01v.02h-.02v.02l-.02.01v.01l-.02.01-.01.01H488v.02h-.02l-.02.01h-.01l-.01.01h-.02l-.01.01h-.05l-.01.01h-.08l-.01-.01h-.03zm-12.05-10.18.43-.03 11.95 9.68-.4.49-11.94-9.68zm.43-.03-.4.49v-.02h-.02v-.02l-.02-.01v-.01l-.02-.01v-.02l-.01-.01-.01-.01V229l-.01-.01v-.02l-.01-.01v-.05l-.01-.01v-.09l.01-.02v-.01l.01-.02.02-.02v-.02l.01-.01.01-.01.01-.02h.01l.01-.02.01-.01.02-.01v-.01h.02l.01-.02h.02l.01-.01h.01l.02-.01h.01l.02-.01h.03l.01-.01h.11l.01.01h.02l.01.01h.01l.02.01.01.01.02.01z" class="fil5"/><path fill="#1f1a17" d="M471.98 227.17c.62 0 1.13.47 1.13 1.06 0 .58-.5 1.05-1.13 1.05s-1.14-.47-1.14-1.05.5-1.06 1.14-1.06"/><path d="M472.48 227.79a.47.47 0 100 .94.47.47 0 000-.94" class="fil7"/></g></g></svg>