<svg xmlns="http://www.w3.org/2000/svg" viewBox="0 0 1200 800"><g fill="none" stroke-width="2"><path stroke="#23706d" d="M.27 0v2.16" vector-effect="non-scaling-stroke"/><path stroke="#80b599" d="M.27 2.16.32 140.9" vector-effect="non-scaling-stroke"/><path stroke="#23706d" d="M.32 140.9q.09 1.21-.32.99M60.78 0q.07.33 1.32.3" vector-effect="non-scaling-stroke"/><path stroke="#a3bad3" d="m62.1.3 76.13 55.81a.63.63 0 001.01-.51V21.32a2.19 2.17-72.1 00-.89-1.76L112.2.35" vector-effect="non-scaling-stroke"/><path stroke="#23706d" d="M112.2.35q1.96.03 2.42-.35m5.92 0q.48.31 1.42.33" vector-effect="non-scaling-stroke"/><path stroke="#a3bad3" d="m121.96.33 60.29 44.19a.72.71 18.2 001.14-.57V9.86a2.1 2.06 19.3 00-.81-1.64L172.41.36" vector-effect="non-scaling-stroke"/><path stroke="#23706d" d="M172.41.36q1.93-.07 1.73-.36m6.66 0q.08.3 1.1.37" vector-effect="non-scaling-stroke"/><path stroke="#a3bad3" d="m181.9.37 73.57 53.93a.33.33 0 00.52-.27V18.41a.71.7-72.2 00-.29-.57L231.96.39" vector-effect="non-scaling-stroke"/><path stroke="#23706d" d="M231.96.39Q233.92.37 234 0m365.88 0 .13 262.04a1.71 1.67 27.4 00.33 1q1.18 1.57 3.19 2.39a2.1 1.98 73.3 01.52.3q3.75 2.87 15.79 11.7 35.82 26.28 35.94 26.48.15.24 4.56 3.18 3.1 2.06 4.98 3.86a3.44 3.18-6 00.67.5q3.38 1.87 5.33 3.99a1.24 1.21 24.8 01.31.81v41.56a2.4 2.4 18.1 00.99 1.94q7.28 5.35 14.1 10.66c1.93 1.49 3.9 2.22 5.69 3.98q.6.59 4.11 3.05 8.16 5.71 24.13 17.74.58.44 2.65 2.22 1.79 1.54 3.03 1.55 18.78.1 27.07.04a.61.6-90 00.6-.61v-21.61a.55.55 0 01.87-.44l27.11 19.83a1.42 1.32 87 01.33.32q1.94 2.51 3.96 2.51L1200 399m0 309.53q-.32.11-.33 1.79" vector-effect="non-scaling-stroke"/><path stroke="#a3bad3" d="m1199.67 710.32-29.76-21.81a.51.5-72.1 00-.8.41v34.95a1.37 1.36 18.2 00.56 1.1l30.02 22" vector-effect="non-scaling-stroke"/><path stroke="#23706d" d="M1199.69 746.97q.02 1.29.31 1.14m0 4.54q-.38-.14-.36 1.56" vector-effect="non-scaling-stroke"/><path stroke="#a3bad3" d="m1199.64 754.21-74.24-54.39a.17.17 0 00-.27.14v35.7a1 1 0 00.42.83l74.14 54.36" vector-effect="non-scaling-stroke"/><path stroke="#23706d" d="M1199.69 790.85q-.07 1.31.31 1.24" vector-effect="non-scaling-stroke"/><path stroke="#a3bad3" d="m1200 798.93-.37-.63a1.96 1.86 3.7 00-.52-.56l-29.32-21.52a.47.47 0 00-.75.38l-.02 23.08" vector-effect="non-scaling-stroke"/><path stroke="#23706d" d="M1169.02 799.68q-.99-.17-.79.32m-84.05 0q.01-.39-.98-.34" vector-effect="non-scaling-stroke"/><path stroke="#a3bad3" d="M1083.2 799.66.27 2.16m188.65 47.02a.4.4 0 00.17.34l110.32 80.92a.42.42 0 00.67-.34V94.63a.4.4 0 00-.17-.34L189.59 13.36a.42.42 0 00-.67.34v35.48m67.31 57.17a.4.4 0 00-.18-.35L145.6 24.97a.44.44 0 00-.7.36v35.43a.4.4 0 00.18.35l110.45 81.03a.44.44 0 00.7-.36v-35.43m268.85-35.72q4.69 0 7.58-.12a1.03 1.03 0 00.96-1.24q-2.48-11.76-8.13-22.81-.1-.19-.37-.19-.3 0-.4.19-5.67 11.04-8.18 22.79a1.03 1.03 0 00.96 1.24q2.88.13 7.58.14m.12 63.18q.32 0 .51-.36 14.5-29.1 8.63-61.26a.65.65 0 00-.84-.5q-4.16 1.37-8.39 1.37-4.23.01-8.4-1.35a.65.65 0 00-.83.5q-5.81 32.17 8.76 61.24.18.36.56.36m-64.46 34.79a.4.4 0 00-.18-.35L350.31 87.36a.44.44 0 00-.7.36v35.43a.4.4 0 00.18.35l110.25 80.89a.44.44 0 00.7-.36V168.6m-72.95-9.53a.6.6 0 00-.25-.49l-80.82-59.3a.61.61 0 00-.97.49v35.01a.6.6 0 00.25.49l80.82 59.31a.61.61 0 00.97-.49v-35.02m-125.91-12.45a.3.3 0 00.14.27l81.35 59.68a.34.34 0 00.54-.27v-35.67a.3.3 0 00-.14-.27l-81.35-59.68a.34.34 0 00-.54.27v35.67m263.27 5.53q6.85 0 10.24.07a.4.4 0 00.31-.67q-6-6.62-10.17-13.73-.07-.12-.33-.12-.32 0-.4.12-4.18 7.1-10.19 13.71a.4.4 0 00.3.67q3.4-.06 10.24-.05m-131.63 47.1a.4.4 0 00.17.34l110.34 80.95a.42.42 0 00.67-.34v-35.49a.4.4 0 00-.17-.34l-110.34-80.95a.42.42 0 00-.67.34v35.49m-43.91 11.7a.4.4 0 00.14.28l110.42 81.02a.35.35 0 00.56-.28v-35.66a.4.4 0 00-.14-.28l-110.42-81.01a.35.35 0 00-.56.28v35.65m205 62.55a.5.5 0 00.18.36L665 354.72a.45.45 0 00.72-.36v-35.4a.5.5 0 00-.18-.36l-110.21-80.86a.45.45 0 00-.72.36v35.4m-44.01 11.56a.6.6 0 00.24.46l80.77 59.26a.58.58 0 00.92-.46v-35.1a.6.6 0 00-.24-.46l-80.77-59.26a.58.58 0 00-.92.46v35.1m38.11 35.88a.5.5 0 00-.21-.42l-81.04-59.44a.52.52 0 00-.83.42v35.23a.5.5 0 00.21.42l81.04 59.44a.52.52 0 00.83-.42v-35.23m49.61 28.5a.5.5 0 00.2.4l110.33 80.94a.49.49 0 00.78-.4v-35.3a.5.5 0 00-.2-.4L599.1 313.74a.49.49 0 00-.78.4v35.3m66.78 56.6-109.97-80.68a.28.28 0 00-.45.23v35.31a1.29 1.27-72.4 00.53 1.04l109.56 80.38a.86.85-72.5 001.36-.71l-.82-35.17a.5.5 0 00-.21-.4m94.2 17.59a.5.5 0 00.21.42l110.17 80.81a.52.52 0 00.83-.42V469.2a.5.5 0 00-.21-.42l-110.17-80.81a.52.52 0 00-.83.42v35.24m38.16 35.8a.4.4 0 00-.16-.32l-81.24-59.6a.39.39 0 00-.62.31v35.57a.4.4 0 00.16.32l81.24 59.6a.39.39 0 00.62-.31v-35.57m-125.93-12.39a.5.5 0 00.19.37l81.12 59.51a.46.46 0 00.73-.37v-35.39a.5.5 0 00-.19-.37l-81.12-59.5a.46.46 0 00-.73.37v35.38m449.36 20.41q4.7.01 7.59-.11a1.03 1.03 0 00.96-1.24q-2.47-11.77-8.12-22.84-.1-.19-.37-.19-.29 0-.39.19-5.7 11.04-8.22 22.81a1.03 1.03 0 00.96 1.24q2.89.13 7.59.14M803.4 499.93a.4.4 0 00.16.3l110.33 80.95a.38.38 0 00.6-.31v-35.58a.4.4 0 00-.16-.3L804 464.03a.38.38 0 00-.6.31v35.59m317.61 30.75q.38 0 .56-.36 14.51-29.13 8.61-61.32a.65.65 0 00-.84-.5q-4.17 1.37-8.4 1.38t-8.4-1.35a.65.65 0 00-.84.5q-5.79 32.21 8.81 61.29.18.36.5.36m-361.7-19.23a.4.4 0 00.16.32l110.42 81a.39.39 0 00.62-.31v-35.55a.4.4 0 00-.16-.32l-110.42-81a.39.39 0 00-.62.31v35.55m361.65 37.49q6.87.03 10.28.1a.4.4 0 00.3-.67q-6-6.66-10.16-13.81-.07-.12-.33-.12-.32 0-.4.12-4.22 7.11-10.27 13.73a.4.4 0 00.3.67q3.41-.05 10.28-.02m-156.98 24.9a.4.4 0 00.15.3l110.75 81.25a.37.37 0 00.59-.3v-35.61a.4.4 0 00-.15-.3l-110.75-81.25a.37.37 0 00-.59.3v35.61m-43.89 11.69a.4.4 0 00.14.28l81.44 59.75a.35.35 0 00.56-.28v-35.65a.4.4 0 00-.14-.28l-81.44-59.75a.35.35 0 00-.56.28v35.65m38.29 35.82a.4.4 0 00-.14-.28l-81.26-59.61a.35.35 0 00-.56.28v35.64a.4.4 0 00.14.28l81.26 59.62a.35.35 0 00.56-.28v-35.65m49.54 28.54a.5.5 0 00.22.43l110.36 80.96a.54.54 0 00.86-.44v-35.19a.5.5 0 00-.22-.43l-110.36-80.96a.54.54 0 00-.86.44v35.19m-44.01 11.67a.4.4 0 00.14.28l110.81 81.3a.35.35 0 00.56-.28v-35.67a.4.4 0 00-.14-.28l-110.81-81.3a.35.35 0 00-.56.28v35.67m117.23 85.99a.4.4 0 00.16.32l70.5 51.71a.4.4 0 00.23.08h10.58a.4.4 0 00.39-.39v-27.8a.4.4 0 00-.16-.32l-81.08-59.48a.39.39 0 00-.62.31v35.57" vector-effect="non-scaling-stroke"/><path stroke="#80b599" d="M112.2.35 62.1.3m110.31.06L121.96.33m110 .06L181.9.37" vector-effect="non-scaling-stroke"/><path stroke="#23706d" d="M943.79 85.21q1.77-9.31 1.91-18.87" vector-effect="non-scaling-stroke"/><path stroke="#809f5c" d="M945.7 66.34q.26-1.35-.17-2.33a.34.34 0 00-.59-.07l-1.58 2.14a.16.08-26.6 01-.03.04L929.1 83.28a.63.63 0 01-1.09-.21L908.29 19.2a.41.41 0 00-.79 0l-19.72 63.71a.72.71-56.4 01-1.23.25l-15.5-18.72a.51.51 0 00-.9.37l1.32 16.14a1.31.97 68.5 00.03.18q.98 3.79.41 6.47a1.94 1.86 43.7 00.04.9l.26.82a.48.47 5.8 01-.68.55q-5.36-2.86-35.51-18.65-.12-.06-.81-.77a.97.95-8.7 00-.25-.18l-12.5-6.18a.23.23 0 00-.32.3q.27.61 1.8 2.18c9.12 9.34 21.41 21.17 32.59 32.86q4.5 4.71 9.74 9.6a.59.58-40.6 00.73.05q19.35-13.58 40.3-13.87 23.34-.33 42.38 13.09a.42.41 40.4 00.54-.04l43.16-43.16a.58.58 0 00-.34-.98q-.3-.02-1.17.52-2.44 1.51-10.12 5.59-8.83 4.69-35.15 18.44c-.78.41-1.43 1.05-2.19 1.51a.43.43 0 01-.64-.3q-.38-2.38.02-4.67" vector-effect="non-scaling-stroke"/><path stroke="#a3a396" d="M945.7 66.34q-1.85 9.35-1.91 18.87" vector-effect="non-scaling-stroke"/><path stroke="#23706d" d="M989.15 222.47q5.05-6.22 7.62-13.89" vector-effect="non-scaling-stroke"/><path stroke="#809f5c" d="M996.77 208.58q4.88-10.5 8.61-21.77 3.36-10.19 3.79-21.06c.12-3.12-.27-7.35-.74-9.95q-2.5-13.72-14.31-19.85c-1.34-.69-3.61-1.24-4.96-2.12a1.44 1.41-31.6 00-.97-.22q-1.65.23-3.56-.7a4 4 57.2 00-1.75-.38l-11.73.27a3.03 2.99 32.6 00-1.13.24q-1.75.71-4.03.71a1.24.69-34.4 00-.21.02q-13.92 2.98-27.15 8.78-1.1.49-4.62 2.4-2.95 1.6-4.74 2.15a2.62 2.46 15.8 00-.83.43q-1.54 1.21-3.85 2.1-.3.12-1.23.98a2.08 2.07 16.1 01-.8.44q-2.22.62-4.21 2.5a1.04.9 4.3 01-.23.17l-4.5 2.59a1.87 1.67 3.3 00-.39.31q-2.07 2.17-4.26 2.74a1.58 1.57-36.2 01-1.2-.18q-5.81-3.58-8.01-5.26-3.46-2.65-8.11-5.01-2.71-1.38-9.54-4.9-7.28-3.75-23.99-8.97a2.27 2.2 55.3 00-.51-.1q-2.42-.25-4.86-1.14a2.94 2.84-33.9 00-.89-.16q-3.22-.08-4.61-.31-7.43-1.19-11.51-.46-5.06.91-6.72 1.09-.24.03-2.93.96-1.86.65-5.4 2.58a6 6-78.8 00-.94.63q-9.58 7.83-10.9 19.92-1.37 12.59 2.74 26.64 4.57 15.65 12.32 29.75 5.82 10.58 11.18 18a1.01 1 45.9 01-.01 1.2q-7.33 9.76-12.9 21.26-.99 2.03-5.95 12.77-3.62 7.84-6.76 21.71-.53 2.35-.68 5.9-.08 1.85-.3 5.95c-.5 9.4 2.56 19.79 10.05 25.81 7.26 5.83 18.44 7.42 27.47 6.19q14.13-1.92 28.11-7.55 4.69-1.89 7.87-3.6c4.63-2.51 9.38-4.6 14.31-7.76q3.08-1.99 7.06-4.26a.82.79 29.5 01.39-.1q.92-.03 1.6-1.02.33-.49 2.88-1.9a.95.91 39.1 01.74-.06c2.35.84 4.81 3.32 7.46 4.82q12.83 7.24 16.1 8.89 14.67 7.41 29.8 10.94 8.28 1.93 16.35 1.9 9.99-.03 17.47-4.54 5.64-3.4 8.45-8.5a.51.5-81.7 01.33-.25q.3-.05.41-.25c1.7-3.15 3.6-8.15 3.43-11.9-.12-2.69.65-5.2.39-8.34q-.95-11.89-4.03-21.22-3.83-11.61-9.02-22.25-1.78-3.64-3.94-7.28-5.99-10.07-9.64-15.41a.96.95-44.7 01.01-1.1l4.47-6.25a1.56 1.26 85.9 00.11-.17l2.03-3.6" vector-effect="non-scaling-stroke"/><path stroke="#a3a396" d="m996.77 208.58-7.62 13.89" vector-effect="non-scaling-stroke"/><path stroke="#809f5c" d="M911.5 135.68q-5.24.22-7.18.21-1.87-.01-5.19 2.73a4.12 4.03 10.1 01-.69.47q-2.65 1.41-4.27 4.1a.58.57-59.6 00.2.78l14.08 8.46a.93.91-47.2 001.04-.05q5.18-3.96 11.28-6.71a1.2 1.18-.9 00.59-.6q.38-.87 1.34-.86a.9.8 68.3 00.53-1.46q-4.48-5.37-11.02-7a2.34 2.32 50.4 00-.71-.07m-92.11 112.27 8.15-13.54a2.1 2.1 45.4 00.01-2.17l-8.72-15.11a.8.8 0 00-1.14-.25q-3.7 2.61-5.94 6.35-2.3 3.84-2.32 8.38-.06 10.7 9.34 16.49a.45.44 31.1 00.62-.15m170-15.11q-.01.63.08.77 4.9 7.06 8.52 14.2a.7.7 0 001.02.26q7.09-4.88 8.32-13.56.08-.59.09-1.47.01-.89-.06-1.48-1.04-8.7-8.03-13.73a.7.7 0 00-1.02.24q-3.77 7.06-8.82 14.01-.1.14-.1.76m-80.63 99.54c6.25-.02 12.13-3.75 15.43-8.75a.7.7 32 00-.23-.97q-8.85-5.06-14.82-8.88-.2-.13-.42-.13t-.42.14q-5.95 3.84-14.78 8.93a.7.7-32.2 00-.23.97c3.32 4.98 9.21 8.7 15.47 8.69" vector-effect="non-scaling-stroke"/><path stroke="#80b599" d="m1083.2 799.66-188.11-.01" vector-effect="non-scaling-stroke"/><path stroke="#a3bad3" d="M895.09 799.65q-1.06-1.31-4.56-4.43-4.6-4.1-14.41-17.48c-6.2-8.46-11.39-20.18-16.85-28.64q-25.46-39.45-71.19-51.14c-7.58-1.94-19.47-3.72-28.53-6.52q-44.28-13.65-68.19-53.56c-3.93-6.56-8.03-15.01-12.09-21.32q-27.69-43.04-79.26-53.05" vector-effect="non-scaling-stroke"/><path stroke="#80b599" d="M600.01 563.51q-9.8-1.68-16.29-3.46-48.5-13.28-73.47-56.55c-3.59-6.22-6.91-12.88-10.52-18.6q-25.15-39.81-70.58-51.97-5.36-1.43-15.11-3.29c-21.44-4.09-40.85-12.52-57.36-26.71q-2.78-2.38-5.23-4" vector-effect="non-scaling-stroke"/><path stroke="#a3bad3" d="M351.45 398.93q-3.33-4.01-6.41-7.51c-8.39-9.53-14.35-19.25-20.99-31.52q-26.27-48.6-79.76-60.88-3.31-.77-10.76-2.19c-38.74-7.4-68.86-29.89-86.92-64.78q-1.5-2.91-3.81-7.02-23.43-41.68-68.41-56.04-4.86-1.55-12.71-3.26-7.68-1.68-12.82-2.78-26.7-5.72-48.54-22.05m526.35-76.88a1.56 1.56 0 00-1.56-1.56 1.56 1.56 0 00-1.56 1.56 1.56 1.56 0 001.56 1.56 1.56 1.56 0 001.56-1.56" vector-effect="non-scaling-stroke"/><path stroke="#809f5c" d="M868.7 193.1q6.95-6.95 9.17-8.96 13.46-12.14 26.33-21.28a.48.47 44.6 00-.01-.78q-6.33-4.26-13.56-8.48c-17.39-10.12-53.33-26.44-70.61-9.14s-.93 53.22 9.21 70.6q4.22 7.23 8.48 13.55a.48.47 45.4 00.78.01q9.14-12.88 21.26-26.34 2.01-2.23 8.95-9.18m47.71-33.38q-1.08 1.16-2.39 1.66a1.06 1.06 0 00-.15 1.92l2.66 1.5a.74.72 85.6 01.25.22q.94 1.17 2.5 1.78a3 3-13.7 01.99.6q2.08 1.83 10.97 9.36 26.97 22.87 46.96 50.54.48.66.6.99a.73.72-37.4 001.28.17q.92-1.32 10.05-16.84 2.04-3.48 5.06-10.23a7.56 6.93-18 01.65-1.15q2.26-3.34 2.91-7.49a2.4 2.4-21.4 01.5-1.13q.6-.74 1.48-3.42c3.68-11.22 6.39-24.39 2.4-35.12q-4.23-11.39-16.37-14.6l-3.5-.93a6 6 0 00-2.05-.4l-9.2-.15a1.77 1.56-48.7 00-.54.07q-3.73 1.04-8.69 1.27a4 4 32.5 00-1.5.33q-1.48.63-2.4.67a3.62 3.53 33.2 00-1.12.22q-6.69 2.46-15.64 6.28-11.17 4.77-12.38 6.04a.96.8 84.8 00-.09.13q-.19.31-.13.3h.01l-12.85 7.19a1.25 1.2-83 00-.27.22" vector-effect="non-scaling-stroke"/><path stroke="#809f5c" d="M872.15 196.42q-.97.96-3.48 3.51-1.7 1.7-8.43 9.07-4.09 4.47-13.34 15.9-2.99 3.69-5.19 7.11a1.83 1.81 44.4 00.03 2.01q4.16 6.07 9.32 12.42 25.13 30.9 57.33 54.29a.8.79 45.3 00.92.01q19.35-13.88 36.09-30.83l.14-.14.14-.14q16.95-16.75 30.81-36.11a.8.79 44.7 00-.01-.92q-23.4-32.19-54.32-57.3-6.35-5.16-12.42-9.31a1.83 1.81 45.6 00-2.01-.03q-3.42 2.2-7.11 5.19-11.43 9.26-15.89 13.35-7.37 6.73-9.07 8.43l-3.51 3.49" vector-effect="non-scaling-stroke"/><path stroke="#809f5c" d="M868.74 273.23q-6.95-6.96-8.95-9.19-12.13-13.48-21.26-26.37a.48.47-45.3 00-.78.01q-4.27 6.33-8.49 13.55c-10.16 17.38-26.53 53.31-9.26 70.63s53.25 1.01 70.65-9.11q7.23-4.21 13.57-8.47a.48.47-44.5 00.01-.78q-12.87-9.15-26.33-21.31-2.22-2.01-9.16-8.96m80.15-.03q-6.96 6.95-9.19 8.95-13.47 12.14-26.36 21.28a.48.47 44.6 00.01.78q6.33 4.27 13.56 8.49c17.39 10.15 53.34 26.51 70.65 9.22s.99-53.26-9.15-70.66q-4.21-7.24-8.47-13.57a.48.47 45.4 00-.78-.01q-9.16 12.88-21.31 26.34-2.01 2.23-8.96 9.18" vector-effect="non-scaling-stroke"/><path stroke="#23706d" d="M884.92 156.74q-9.22-5.89-19.89-9.24" vector-effect="non-scaling-stroke"/><path stroke="#809f5c" d="M865.03 147.5q-11.15-3.77-17.65-4.78-5.95-.93-15.04.83a.43.3-55.3 00-.08.03l-4.94 2.3a1.65 1.37-68.7 00-.27.15q-6.61 4.68-8.13 12.23c-2.42 12.03 1.81 25.91 6.74 37.12q5.2 11.81 12.31 23.05a.58.58 0 00.97.02c5.55-7.97 12.05-15.01 19.65-23.57a2.78 2.65-85.1 01.44-.39q.66-.45 1.2-1.01 16.04-16.73 33.88-30.36a.52.51 42.5 00-.04-.85l-9.15-5.53" vector-effect="non-scaling-stroke"/><path stroke="#a3a396" d="m865.03 147.5 12.46 5.65a.67.53-6.3 01.11.07q3.39 2.19 7.32 3.52" vector-effect="non-scaling-stroke"/><path stroke="#809f5c" d="M963.58 144q-.6.7-2.34.95-1.78.26-6.02 1.8a3.77 3.76-57.2 01-1.01.22q-1.33.08-2.7 1a.76.72-54.9 01-.53.11q-.4-.07-2.07.7-10.47 4.83-22.43 11.51a.69.64-86.8 00-.23.22q-.39.57-1.1.56a.5.5 0 00-.37.16l-1.35 1.35a.36.36 0 00.03.54q31.29 23.91 55.25 55.19a.73.73 0 001.2-.07q3.73-6.29 6.62-12.02.35-.7.95-1.33a2.19 2-14.1 00.43-.65q3.37-7.71 5.11-11.52 1.25-2.72 2.19-6.11 1.37-4.93 2.19-6.15a1.55 1.53 60.5 00.26-.95q-.03-.4.87-5.04c1.98-10.24 1.34-21.52-7.67-28.33a.94.89-12.9 00-.22-.13l-4.84-2.08a.09.09 0 01.04-.17l.26.01a.07.07 0 00.01-.14l-4.58-1.15a2.57 2.55-45.2 00-1.28.01q-.7.15-9.82.12a2.36 2.15 31.3 00-.87.17q-2.81 1.13-5.27.93a.8.8 0 00-.71.29" vector-effect="non-scaling-stroke"/><path stroke="#23706d" d="M351.45 398.93 0 398.96" vector-effect="non-scaling-stroke"/><path stroke="#a3bad3" d="M87.83 272.94q4.69.01 7.57-.11a1.03 1.03 0 00.97-1.24q-2.47-11.74-8.11-22.78-.1-.2-.37-.2-.29 0-.39.19-5.68 11.02-8.2 22.76a1.03 1.03 0 00.96 1.25q2.88.12 7.57.13m.11 63.55q.38 0 .56-.36 14.58-29.23 8.68-61.54a.65.65 0 00-.84-.5q-4.18 1.37-8.43 1.37-4.24.01-8.43-1.36a.65.65 0 00-.84.51q-5.84 32.32 8.8 61.52.18.36.5.36m-.03 17.99q6.83 0 10.22.06a.4.4 0 00.3-.66q-6-6.61-10.17-13.69-.07-.12-.32-.12-.33 0-.4.12-4.16 7.09-10.15 13.69a.4.4 0 00.3.67q3.39-.06 10.22-.07" vector-effect="non-scaling-stroke"/><path stroke="#809f5c" d="M908.64 261.65c2.2 0 5.13-.65 7.62-1.24q3.03-.72 6.47-2.74 11.4-6.7 14.1-19.46a28.5 28.5 0 00-4.04-21c-4.05-6.18-11.45-11.72-19.16-12.72-1.79-.23-3.48-.77-5.01-.77-1.54 0-3.23.54-5.01.78-7.71 1-15.11 6.55-19.16 12.73a28.5 28.5 0 00-4.02 21q2.71 12.76 14.11 19.45 3.45 2.02 6.48 2.74c2.49.59 5.42 1.23 7.62 1.23m-84.56 56.24c8.83 8.8 25.37 6.12 36.19 2.45q17.68-6 33.72-16.45a.55.55 0 00.04-.9q-15.51-11.89-29.43-25.76t-25.87-29.34a.55.55 0 00-.9.04q-10.39 16.08-16.32 33.78c-3.64 10.84-6.25 27.38 2.57 36.18m169.39.02c8.81-8.8 6.17-25.33 2.53-36.15q-5.96-17.67-16.36-33.72a.55.55 0 00-.9-.04q-11.91 15.47-25.8 29.35-13.89 13.87-29.37 25.77a.55.55 0 00.04.9q16.04 10.42 33.71 16.39c10.82 3.65 27.34 6.3 36.15-2.5" vector-effect="non-scaling-stroke"/><path stroke="#a3bad3" d="M89.52 266.45a1.66 1.66 0 00-1.66-1.66 1.66 1.66 0 00-1.66 1.66 1.66 1.66 0 001.66 1.66 1.66 1.66 0 001.66-1.66" vector-effect="non-scaling-stroke"/><path stroke="#23706d" d="m600.01 563.51.01 236.49" vector-effect="non-scaling-stroke"/><path stroke="#809f5c" d="m267.69 512.55 3.73.03a.54.54 0 00.54-.58l-3.99-60.41a.06.04 1.9 00-.06-.04h-.08a.06.04-1.6 00-.06.04l-4.34 60.39a.54.54 0 00.54.58l3.72-.01m6.47 6.26a.9.9 0 00-.76-.43h-11.32a.9.9 0 00-.76.43l-17.79 29.58a.9.9 0 00.04.98l8.79 12.34a.9.9 0 00.73.37h29.86a.9.9 0 00.72-.36l8.64-11.79a.9.9 0 00.04-.99l-18.19-30.13m32.68 43.33q5.71-.02 15.15-.13a.54.54 0 00.44-.85q-6.51-9.28-15.17-21.49-.21-.29-.46-.29-.33 0-.54.29-8.57 12.28-15.02 21.6a.54.54 0 00.44.85q9.45.04 15.16.02m-77.45.21q5.75 0 15.27-.1a.55.54 72.6 00.44-.85q-6.54-9.36-15.23-21.69-.21-.29-.55-.29-.25 0-.46.29-8.66 12.35-15.18 21.72a.55.54-72.7 00.44.85q9.51.08 15.27.07m-.02 18.9q-3.5 0-3.62-.03a.6.6 0 01-.46-.56l.02-11.77a.7.7 0 00-.7-.7l-13.88-.03a.53.53 0 00-.53.53l-.15 59.06a.62.61.3 00.61.62l18.66.02 18.65.02a.62.61-.2 00.62-.62l-.02-59.06a.53.53 0 00-.53-.53h-13.89a.7.7 0 00-.69.7l-.01 11.77a.6.6 0 01-.47.56q-.12.02-3.61.02m77.3-.06q-3.5.01-3.62-.02a.6.6 0 01-.47-.56l-.01-11.78a.7.7 0 00-.7-.7h-13.9a.53.53 0 00-.53.53v59.14a.62.61.2 00.61.61l18.68-.02 18.68-.03a.62.61-.3 00.62-.61l-.17-59.14a.53.53 0 00-.53-.53l-13.9.04a.7.7 0 00-.7.7l.02 11.78a.6.6 0 01-.46.56q-.12.03-3.62.03m-52.36 29.47a.35.35-38.1 00.68.08c1.77-7.12 5.59-14.22 12.47-17.18a1.12 1.1 45.6 01.92.02q6.18 3.03 9.61 9.7 2.92 5.67 2.79 7.9a.38.38 0 00.6.33q.37-.27.36-1.77-.04-23.56.03-40.93a.5.5 0 00-.51-.51h-26.37a.58.57 0 00-.58.57v41.79" vector-effect="non-scaling-stroke"/><path stroke="#809f5c" d="M267.9 756.9q.29 0 .75-.27 82.55-47.7 136.37-78.74a1.8 1.78-15.3 00.89-1.54v-62.48a.6.6 0 00-.6-.6h-40.35a.62.61-90 00-.61.62v38.9a1 1 0 01-.51.88l-95.11 54.91a.7.7 0 01-.49.08q-.18-.03-.34-.03t-.34.03a.7.7 0 01-.49-.08l-95.12-54.89a1 1 0 01-.51-.88l-.01-38.9a.62.61 90 00-.61-.62h-40.35a.6.6 0 00-.6.6l.01 62.48a1.8 1.78 15.3 00.89 1.54q53.83 31.03 136.39 78.72.45.27.74.27" vector-effect="non-scaling-stroke"/><path stroke="#a3bad3" d="M1122.54 460.74a1.65 1.65 0 00-1.65-1.65 1.65 1.65 0 00-1.65 1.65 1.65 1.65 0 001.65 1.65 1.65 1.65 0 001.65-1.65" vector-effect="non-scaling-stroke"/><path stroke="#23706d" d="M895.09 799.65q-1.19.05-.84.35" vector-effect="non-scaling-stroke"/><path stroke="#a3bad3" d="M689.53 682.92q4.7.01 7.58-.1a1.03 1.03 0 00.96-1.24q-2.45-11.76-8.08-22.81-.1-.19-.37-.19-.29-.01-.39.19-5.7 11.01-8.23 22.76a1.03 1.03 0 00.96 1.24q2.88.13 7.57.15m.19 63.26q.32 0 .51-.36 14.49-29.11 8.6-61.28a.65.65 0 00-.83-.5q-4.17 1.37-8.4 1.38-4.22.01-8.39-1.35a.65.65 0 00-.84.5q-5.79 32.19 8.79 61.25.18.37.56.36m-.04 18.36q6.89.01 10.31.08a.4.4 0 00.3-.67q-6.03-6.67-10.22-13.82-.07-.12-.33-.12-.33 0-.4.12-4.21 7.14-10.26 13.79a.4.4 0 00.3.67q3.42-.06 10.3-.05" vector-effect="non-scaling-stroke"/><path stroke="#a3bad3" d="M691.13 676.41a1.6 1.6 0 00-1.62-1.62 1.6 1.6 0 00-1.62 1.62 1.6 1.6 0 001.62 1.62 1.6 1.6 0 001.62-1.62" vector-effect="non-scaling-stroke"/><path stroke="#80b599" d="m1199.67 710.32.02 36.65m-.05 7.24.05 36.64m.31 8.82-30.98.01" vector-effect="non-scaling-stroke"/></g><path fill="#006b33" d="M.27 0v2.16L.32 140.9q.09 1.21-.32.99V0z"/><path fill="#4674a6" d="M60.78 0q.07.33 1.32.3l76.13 55.81a.63.63 0 001.01-.51V21.32a2.19 2.17-72.1 00-.89-1.76L112.2.35q1.96.03 2.42-.35h5.92q.48.31 1.42.33l60.29 44.19a.72.71 18.2 001.14-.57V9.86a2.1 2.06 19.3 00-.81-1.64L172.41.36q1.93-.07 1.73-.36h6.66q.08.3 1.1.37l73.57 53.93a.33.33 0 00.52-.27V18.41a.71.7-72.2 00-.29-.57L231.96.39Q233.92.37 234 0h365.88l.13 262.04a1.71 1.67 27.4 00.33 1q1.18 1.57 3.19 2.39a2.1 1.98 73.3 01.52.3q3.75 2.87 15.79 11.7 35.82 26.28 35.94 26.48.15.24 4.56 3.18 3.1 2.06 4.98 3.86a3.44 3.18-6 00.67.5q3.38 1.87 5.33 3.99a1.24 1.21 24.8 01.31.81v41.56a2.4 2.4 18.1 00.99 1.94q7.28 5.35 14.1 10.66c1.93 1.49 3.9 2.22 5.69 3.98q.6.59 4.11 3.05 8.16 5.71 24.13 17.74.58.44 2.65 2.22 1.79 1.54 3.03 1.55 18.78.1 27.07.04a.61.6-90 00.6-.61v-21.61a.55.55 0 01.87-.44l27.11 19.83a1.42 1.32 87 01.33.32q1.94 2.51 3.96 2.51L1200 399v309.53q-.32.11-.33 1.79l-29.76-21.81a.51.5-72.1 00-.8.41v34.95a1.37 1.36 18.2 00.56 1.1l30.02 22q.02 1.29.31 1.14v4.54q-.38-.14-.36 1.56l-74.24-54.39a.17.17 0 00-.27.14v35.7a1 1 0 00.42.83l74.14 54.36q-.07 1.31.31 1.24v6.84l-.37-.63a1.96 1.86 3.7 00-.52-.56l-29.32-21.52a.47.47 0 00-.75.38l-.02 23.08q-.99-.17-.79.32h-84.05q.01-.39-.98-.34L.27 2.16V0zm128.14 49.18a.4.4 0 00.17.34l110.32 80.92a.42.42 0 00.67-.34V94.63a.4.4 0 00-.17-.34L189.59 13.36a.42.42 0 00-.67.34zm67.31 57.17a.4.4 0 00-.18-.35L145.6 24.97a.44.44 0 00-.7.36v35.43a.4.4 0 00.18.35l110.45 81.03a.44.44 0 00.7-.36zm268.85-35.72q4.69 0 7.58-.12a1.03 1.03 0 00.96-1.24q-2.48-11.76-8.13-22.81-.1-.19-.37-.19-.3 0-.4.19-5.67 11.04-8.18 22.79a1.03 1.03 0 00.96 1.24q2.88.13 7.58.14m.12 63.18q.32 0 .51-.36 14.5-29.1 8.63-61.26a.65.65 0 00-.84-.5q-4.16 1.37-8.39 1.37-4.23.01-8.4-1.35a.65.65 0 00-.83.5q-5.81 32.17 8.76 61.24.18.36.56.36m-64.46 34.79a.4.4 0 00-.18-.35L350.31 87.36a.44.44 0 00-.7.36v35.43a.4.4 0 00.18.35l110.25 80.89a.44.44 0 00.7-.36zm-72.95-9.53a.6.6 0 00-.25-.49l-80.82-59.3a.61.61 0 00-.97.49v35.01a.6.6 0 00.25.49l80.82 59.31a.61.61 0 00.97-.49zm-125.91-12.45a.3.3 0 00.14.27l81.35 59.68a.34.34 0 00.54-.27v-35.67a.3.3 0 00-.14-.27l-81.35-59.68a.34.34 0 00-.54.27zm263.27 5.53q6.85 0 10.24.07a.4.4 0 00.31-.67q-6-6.62-10.17-13.73-.07-.12-.33-.12-.32 0-.4.12-4.18 7.1-10.19 13.71a.4.4 0 00.3.67q3.4-.06 10.24-.05m-131.63 47.1a.4.4 0 00.17.34l110.34 80.95a.42.42 0 00.67-.34v-35.49a.4.4 0 00-.17-.34l-110.34-80.95a.42.42 0 00-.67.34zm-43.91 11.7a.4.4 0 00.14.28l110.42 81.02a.35.35 0 00.56-.28v-35.66a.4.4 0 00-.14-.28l-110.42-81.01a.35.35 0 00-.56.28zm205 62.55a.5.5 0 00.18.36L665 354.72a.45.45 0 00.72-.36v-35.4a.5.5 0 00-.18-.36l-110.21-80.86a.45.45 0 00-.72.36zm-44.01 11.56a.6.6 0 00.24.46l80.77 59.26a.58.58 0 00.92-.46v-35.1a.6.6 0 00-.24-.46l-80.77-59.26a.58.58 0 00-.92.46zm38.11 35.88a.5.5 0 00-.21-.42l-81.04-59.44a.52.52 0 00-.83.42v35.23a.5.5 0 00.21.42l81.04 59.44a.52.52 0 00.83-.42zm49.61 28.5a.5.5 0 00.2.4l110.33 80.94a.49.49 0 00.78-.4v-35.3a.5.5 0 00-.2-.4L599.1 313.74a.49.49 0 00-.78.4zm66.78 56.6-109.97-80.68a.28.28 0 00-.45.23v35.31a1.29 1.27-72.4 00.53 1.04l109.56 80.38a.86.85-72.5 001.36-.71l-.82-35.17a.5.5 0 00-.21-.4m94.2 17.59a.5.5 0 00.21.42l110.17 80.81a.52.52 0 00.83-.42V469.2a.5.5 0 00-.21-.42l-110.17-80.81a.52.52 0 00-.83.42zm38.16 35.8a.4.4 0 00-.16-.32l-81.24-59.6a.39.39 0 00-.62.31v35.57a.4.4 0 00.16.32l81.24 59.6a.39.39 0 00.62-.31zm-125.93-12.39a.5.5 0 00.19.37l81.12 59.51a.46.46 0 00.73-.37v-35.39a.5.5 0 00-.19-.37l-81.12-59.5a.46.46 0 00-.73.37zm449.36 20.41q4.7.01 7.59-.11a1.03 1.03 0 00.96-1.24q-2.47-11.77-8.12-22.84-.1-.19-.37-.19-.29 0-.39.19-5.7 11.04-8.22 22.81a1.03 1.03 0 00.96 1.24q2.89.13 7.59.14M803.4 499.93a.4.4 0 00.16.3l110.33 80.95a.38.38 0 00.6-.31v-35.58a.4.4 0 00-.16-.3L804 464.03a.38.38 0 00-.6.31zm317.61 30.75q.38 0 .56-.36 14.51-29.13 8.61-61.32a.65.65 0 00-.84-.5q-4.17 1.37-8.4 1.38t-8.4-1.35a.65.65 0 00-.84.5q-5.79 32.21 8.81 61.29.18.36.5.36m-361.7-19.23a.4.4 0 00.16.32l110.42 81a.39.39 0 00.62-.31v-35.55a.4.4 0 00-.16-.32l-110.42-81a.39.39 0 00-.62.31zm361.65 37.49q6.87.03 10.28.1a.4.4 0 00.3-.67q-6-6.66-10.16-13.81-.07-.12-.33-.12-.32 0-.4.12-4.22 7.11-10.27 13.73a.4.4 0 00.3.67q3.41-.05 10.28-.02m-156.98 24.9a.4.4 0 00.15.3l110.75 81.25a.37.37 0 00.59-.3v-35.61a.4.4 0 00-.15-.3l-110.75-81.25a.37.37 0 00-.59.3zm-43.89 11.69a.4.4 0 00.14.28l81.44 59.75a.35.35 0 00.56-.28v-35.65a.4.4 0 00-.14-.28l-81.44-59.75a.35.35 0 00-.56.28zm38.29 35.82a.4.4 0 00-.14-.28l-81.26-59.61a.35.35 0 00-.56.28v35.64a.4.4 0 00.14.28l81.26 59.62a.35.35 0 00.56-.28zm49.54 28.54a.5.5 0 00.22.43l110.36 80.96a.54.54 0 00.86-.44v-35.19a.5.5 0 00-.22-.43l-110.36-80.96a.54.54 0 00-.86.44zm-44.01 11.67a.4.4 0 00.14.28l110.81 81.3a.35.35 0 00.56-.28v-35.67a.4.4 0 00-.14-.28l-110.81-81.3a.35.35 0 00-.56.28zm117.23 85.99a.4.4 0 00.16.32l70.5 51.71a.4.4 0 00.23.08h10.58a.4.4 0 00.39-.39v-27.8a.4.4 0 00-.16-.32l-81.08-59.48a.39.39 0 00-.62.31z"/><path fill="#006b33" d="M114.62 0q-.46.38-2.42.35L62.1.3q-1.25.03-1.32-.3zm59.52 0q.2.29-1.73.36L121.96.33q-.94-.02-1.42-.33zM234 0q-.08.37-2.04.39L181.9.37Q180.88.3 180.8 0zm966 0v399l-413.73-.01q-2.02 0-3.96-2.51a1.42 1.32 87 00-.33-.32l-27.11-19.83a.55.55 0 00-.87.44v21.61a.61.6-90 01-.6.61q-8.29.06-27.07-.04-1.24-.01-3.03-1.55-2.07-1.78-2.65-2.22-15.97-12.03-24.13-17.74-3.51-2.46-4.11-3.05c-1.79-1.76-3.76-2.49-5.69-3.98q-6.82-5.31-14.1-10.66a2.4 2.4 18.1 01-.99-1.94v-41.56a1.24 1.21 24.8 00-.31-.81q-1.95-2.12-5.33-3.99a3.44 3.18-6 01-.67-.5q-1.88-1.8-4.98-3.86-4.41-2.94-4.56-3.18-.12-.2-35.94-26.48-12.04-8.83-15.79-11.7a2.1 1.98 73.3 00-.52-.3q-2.01-.82-3.19-2.39a1.71 1.67 27.4 01-.33-1L599.88 0zM943.79 85.21q1.77-9.31 1.91-18.87.26-1.35-.17-2.33a.34.34 0 00-.59-.07l-1.58 2.14a.16.08-26.6 01-.03.04L929.1 83.28a.63.63 0 01-1.09-.21L908.29 19.2a.41.41 0 00-.79 0l-19.72 63.71a.72.71-56.4 01-1.23.25l-15.5-18.72a.51.51 0 00-.9.37l1.32 16.14a1.31.97 68.5 00.03.18q.98 3.79.41 6.47a1.94 1.86 43.7 00.04.9l.26.82a.48.47 5.8 01-.68.55q-5.36-2.86-35.51-18.65-.12-.06-.81-.77a.97.95-8.7 00-.25-.18l-12.5-6.18a.23.23 0 00-.32.3q.27.61 1.8 2.18c9.12 9.34 21.41 21.17 32.59 32.86q4.5 4.71 9.74 9.6a.59.58-40.6 00.73.05q19.35-13.58 40.3-13.87 23.34-.33 42.38 13.09a.42.41 40.4 00.54-.04l43.16-43.16a.58.58 0 00-.34-.98q-.3-.02-1.17.52-2.44 1.51-10.12 5.59-8.83 4.69-35.15 18.44c-.78.41-1.43 1.05-2.19 1.51a.43.43 0 01-.64-.3q-.38-2.38.02-4.67m45.36 137.26q5.05-6.22 7.62-13.89 4.88-10.5 8.61-21.77 3.36-10.19 3.79-21.06c.12-3.12-.27-7.35-.74-9.95q-2.5-13.72-14.31-19.85c-1.34-.69-3.61-1.24-4.96-2.12a1.44 1.41-31.6 00-.97-.22q-1.65.23-3.56-.7a4 4 57.2 00-1.75-.38l-11.73.27a3.03 2.99 32.6 00-1.13.24q-1.75.71-4.03.71a1.24.69-34.4 00-.21.02q-13.92 2.98-27.15 8.78-1.1.49-4.62 2.4-2.95 1.6-4.74 2.15a2.62 2.46 15.8 00-.83.43q-1.54 1.21-3.85 2.1-.3.12-1.23.98a2.08 2.07 16.1 01-.8.44q-2.22.62-4.21 2.5a1.04.9 4.3 01-.23.17l-4.5 2.59a1.87 1.67 3.3 00-.39.31q-2.07 2.17-4.26 2.74a1.58 1.57-36.2 01-1.2-.18q-5.81-3.58-8.01-5.26-3.46-2.65-8.11-5.01-2.71-1.38-9.54-4.9-7.28-3.75-23.99-8.97a2.27 2.2 55.3 00-.51-.1q-2.42-.25-4.86-1.14a2.94 2.84-33.9 00-.89-.16q-3.22-.08-4.61-.31-7.43-1.19-11.51-.46-5.06.91-6.72 1.09-.24.03-2.93.96-1.86.65-5.4 2.58a6 6-78.8 00-.94.63q-9.58 7.83-10.9 19.92-1.37 12.59 2.74 26.64 4.57 15.65 12.32 29.75 5.82 10.58 11.18 18a1.01 1 45.9 01-.01 1.2q-7.33 9.76-12.9 21.26-.99 2.03-5.95 12.77-3.62 7.84-6.76 21.71-.53 2.35-.68 5.9-.08 1.85-.3 5.95c-.5 9.4 2.56 19.79 10.05 25.81 7.26 5.83 18.44 7.42 27.47 6.19q14.13-1.92 28.11-7.55 4.69-1.89 7.87-3.6c4.63-2.51 9.38-4.6 14.31-7.76q3.08-1.99 7.06-4.26a.82.79 29.5 01.39-.1q.92-.03 1.6-1.02.33-.49 2.88-1.9a.95.91 39.1 01.74-.06c2.35.84 4.81 3.32 7.46 4.82q12.83 7.24 16.1 8.89 14.67 7.41 29.8 10.94 8.28 1.93 16.35 1.9 9.99-.03 17.47-4.54 5.64-3.4 8.45-8.5a.51.5-81.7 01.33-.25q.3-.05.41-.25c1.7-3.15 3.6-8.15 3.43-11.9-.12-2.69.65-5.2.39-8.34q-.95-11.89-4.03-21.22-3.83-11.61-9.02-22.25-1.78-3.64-3.94-7.28-5.99-10.07-9.64-15.41a.96.95-44.7 01.01-1.1l4.47-6.25a1.56 1.26 85.9 00.11-.17zm-77.65-86.79q-5.24.22-7.18.21-1.87-.01-5.19 2.73a4.12 4.03 10.1 01-.69.47q-2.65 1.41-4.27 4.1a.58.57-59.6 00.2.78l14.08 8.46a.93.91-47.2 001.04-.05q5.18-3.96 11.28-6.71a1.2 1.18-.9 00.59-.6q.38-.87 1.34-.86a.9.8 68.3 00.53-1.46q-4.48-5.37-11.02-7a2.34 2.32 50.4 00-.71-.07m-92.11 112.27 8.15-13.54a2.1 2.1 45.4 00.01-2.17l-8.72-15.11a.8.8 0 00-1.14-.25q-3.7 2.61-5.94 6.35-2.3 3.84-2.32 8.38-.06 10.7 9.34 16.49a.45.44 31.1 00.62-.15m170-15.11q-.01.63.08.77 4.9 7.06 8.52 14.2a.7.7 0 001.02.26q7.09-4.88 8.32-13.56.08-.59.09-1.47.01-.89-.06-1.48-1.04-8.7-8.03-13.73a.7.7 0 00-1.02.24q-3.77 7.06-8.82 14.01-.1.14-.1.76m-80.63 99.54c6.25-.02 12.13-3.75 15.43-8.75a.7.7 32 00-.23-.97q-8.85-5.06-14.82-8.88-.2-.13-.42-.13t-.42.14q-5.95 3.84-14.78 8.93a.7.7-32.2 00-.23.97c3.32 4.98 9.21 8.7 15.47 8.69"/><path fill="#fff" d="m112.2.35 26.15 19.21a2.19 2.17-72.1 01.89 1.76V55.6a.63.63 0 01-1.01.51L62.1.3zm60.21.01 10.17 7.86a2.1 2.06 19.3 01.81 1.64v34.09a.72.71 18.2 01-1.14.57L121.96.33zm59.55.03 23.74 17.45a.71.7-72.2 01.29.57v35.62a.33.33 0 01-.52.27L181.9.37zm851.24 799.27-188.11-.01q-1.06-1.31-4.56-4.43-4.6-4.1-14.41-17.48c-6.2-8.46-11.39-20.18-16.85-28.64q-25.46-39.45-71.19-51.14c-7.58-1.94-19.47-3.72-28.53-6.52q-44.28-13.65-68.19-53.56c-3.93-6.56-8.03-15.01-12.09-21.32q-27.69-43.04-79.26-53.05-9.8-1.68-16.29-3.46-48.5-13.28-73.47-56.55c-3.59-6.22-6.91-12.88-10.52-18.6q-25.15-39.81-70.58-51.97-5.36-1.43-15.11-3.29c-21.44-4.09-40.85-12.52-57.36-26.71q-2.78-2.38-5.23-4-3.33-4.01-6.41-7.51c-8.39-9.53-14.35-19.25-20.99-31.52q-26.27-48.6-79.76-60.88-3.31-.77-10.76-2.19c-38.74-7.4-68.86-29.89-86.92-64.78q-1.5-2.91-3.81-7.02-23.43-41.68-68.41-56.04-4.86-1.55-12.71-3.26-7.68-1.68-12.82-2.78-26.7-5.72-48.54-22.05L.27 2.16zM188.92 49.18V13.7a.42.42 0 01.67-.34l110.32 80.93a.4.4 0 01.17.34v35.47a.42.42 0 01-.67.34L189.09 49.52a.4.4 0 01-.17-.34"/><path fill="#ffd285" d="M945.7 66.34q-1.85 9.35-1.91 18.87-.4 2.29-.02 4.67a.43.43 0 00.64.3c.76-.46 1.41-1.1 2.19-1.51q26.32-13.75 35.15-18.44 7.68-4.08 10.12-5.59.87-.54 1.17-.52a.58.58 0 01.34.98l-43.16 43.16a.42.41 40.4 01-.54.04q-19.04-13.42-42.38-13.09-20.95.29-40.3 13.87a.59.58-40.6 01-.73-.05q-5.24-4.89-9.74-9.6c-11.18-11.69-23.47-23.52-32.59-32.86q-1.53-1.57-1.8-2.18a.23.23 0 01.32-.3l12.5 6.18a.97.95-8.7 01.25.18q.69.71.81.77 30.15 15.79 35.51 18.65a.48.47 5.8 00.68-.55l-.26-.82a1.94 1.86 43.7 01-.04-.9q.57-2.68-.41-6.47a1.31.97 68.5 01-.03-.18l-1.32-16.14a.51.51 0 01.9-.37l15.5 18.72a.72.71-56.4 001.23-.25L907.5 19.2a.41.41 0 01.79 0l19.72 63.87a.63.63 0 001.09.21l14.23-17.16a.16.08-26.6 00.03-.04l1.58-2.14a.34.34 0 01.59.07q.43.98.17 2.33"/><path fill="#fff" d="M256.23 106.35v35.43a.44.44 0 01-.7.36L145.08 61.11a.4.4 0 01-.18-.35V25.33a.44.44 0 01.7-.36L256.05 106a.4.4 0 01.18.35m268.89-60.08q.27 0 .37.19 5.65 11.05 8.13 22.81a1.03 1.03 0 01-.96 1.24q-2.89.12-7.58.12-4.7-.01-7.58-.14a1.03 1.03 0 01-.96-1.24q2.51-11.75 8.18-22.79.1-.19.4-.19m1.55 17.75a1.56 1.56 0 00-1.56-1.56 1.56 1.56 0 00-1.56 1.56 1.56 1.56 0 001.56 1.56 1.56 1.56 0 001.56-1.56"/><circle cx="525.11" cy="64.02" r="1.56" fill="#4674a6"/><path fill="#4674a6" d="M945.7 66.34q-.14 9.56-1.91 18.87.06-9.52 1.91-18.87"/><path fill="#fff" d="M525.2 133.81q-.38 0-.56-.36-14.57-29.07-8.76-61.24a.65.65 0 01.83-.5q4.17 1.36 8.4 1.35 4.23 0 8.39-1.37a.65.65 0 01.84.5q5.87 32.16-8.63 61.26-.19.36-.51.36m-64.46 34.79v35.43a.44.44 0 01-.7.36L349.79 123.5a.4.4 0 01-.18-.35V87.72a.44.44 0 01.7-.36l110.25 80.89a.4.4 0 01.18.35m-72.95-9.53v35.02a.61.61 0 01-.97.49L306 135.27a.6.6 0 01-.25-.49V99.77a.61.61 0 01.97-.49l80.82 59.3a.6.6 0 01.25.49m-125.91-12.45v-35.67a.34.34 0 01.54-.27l81.35 59.68a.3.3 0 01.14.27v35.67a.34.34 0 01-.54.27l-81.35-59.68a.3.3 0 01-.14-.27"/><path fill="#ffd285" d="m996.77 208.58-7.62 13.89-2.03 3.6a1.56 1.26 85.9 01-.11.17l-4.47 6.25a.96.95-44.7 00-.01 1.1q3.65 5.34 9.64 15.41 2.16 3.64 3.94 7.28 5.19 10.64 9.02 22.25 3.08 9.33 4.03 21.22c.26 3.14-.51 5.65-.39 8.34.17 3.75-1.73 8.75-3.43 11.9q-.11.2-.41.25a.51.5-81.7 00-.33.25q-2.81 5.1-8.45 8.5-7.48 4.51-17.47 4.54-8.07.03-16.35-1.9-15.13-3.53-29.8-10.94-3.27-1.65-16.1-8.89c-2.65-1.5-5.11-3.98-7.46-4.82a.95.91 39.1 00-.74.06q-2.55 1.41-2.88 1.9-.68.99-1.6 1.02a.82.79 29.5 00-.39.1q-3.98 2.27-7.06 4.26c-4.93 3.16-9.68 5.25-14.31 7.76q-3.18 1.71-7.87 3.6-13.98 5.63-28.11 7.55c-9.03 1.23-20.21-.36-27.47-6.19-7.49-6.02-10.55-16.41-10.05-25.81q.22-4.1.3-5.95.15-3.55.68-5.9 3.14-13.87 6.76-21.71 4.96-10.74 5.95-12.77 5.57-11.5 12.9-21.26a1.01 1 45.9 00.01-1.2q-5.36-7.42-11.18-18-7.75-14.1-12.32-29.75-4.11-14.05-2.74-26.64 1.32-12.09 10.9-19.92a6 6-78.8 01.94-.63q3.54-1.93 5.4-2.58 2.69-.93 2.93-.96 1.66-.18 6.72-1.09 4.08-.73 11.51.46 1.39.23 4.61.31a2.94 2.84-33.9 01.89.16q2.44.89 4.86 1.14a2.27 2.2 55.3 01.51.1q16.71 5.22 23.99 8.97 6.83 3.52 9.54 4.9 4.65 2.36 8.11 5.01 2.2 1.68 8.01 5.26a1.58 1.57-36.2 001.2.18q2.19-.57 4.26-2.74a1.87 1.67 3.3 01.39-.31l4.5-2.59a1.04.9 4.3 00.23-.17q1.99-1.88 4.21-2.5a2.08 2.07 16.1 00.8-.44q.93-.86 1.23-.98 2.31-.89 3.85-2.1a2.62 2.46 15.8 01.83-.43q1.79-.55 4.74-2.15 3.52-1.91 4.62-2.4 13.23-5.8 27.15-8.78a1.24.69-34.4 01.21-.02q2.28 0 4.03-.71a3.03 2.99 32.6 011.13-.24l11.73-.27a4 4 57.2 011.75.38q1.91.93 3.56.7a1.44 1.41-31.6 01.97.22c1.35.88 3.62 1.43 4.96 2.12q11.81 6.13 14.31 19.85c.47 2.6.86 6.83.74 9.95q-.43 10.87-3.79 21.06-3.73 11.27-8.61 21.77M868.7 193.1q6.95-6.95 9.17-8.96 13.46-12.14 26.33-21.28a.48.47 44.6 00-.01-.78q-6.33-4.26-13.56-8.48c-17.39-10.12-53.33-26.44-70.61-9.14s-.93 53.22 9.21 70.6q4.22 7.23 8.48 13.55a.48.47 45.4 00.78.01q9.14-12.88 21.26-26.34 2.01-2.23 8.95-9.18m47.71-33.38q-1.08 1.16-2.39 1.66a1.06 1.06 0 00-.15 1.92l2.66 1.5a.74.72 85.6 01.25.22q.94 1.17 2.5 1.78a3 3-13.7 01.99.6q2.08 1.83 10.97 9.36 26.97 22.87 46.96 50.54.48.66.6.99a.73.72-37.4 001.28.17q.92-1.32 10.05-16.84 2.04-3.48 5.06-10.23a7.56 6.93-18 01.65-1.15q2.26-3.34 2.91-7.49a2.4 2.4-21.4 01.5-1.13q.6-.74 1.48-3.42c3.68-11.22 6.39-24.39 2.4-35.12q-4.23-11.39-16.37-14.6l-3.5-.93a6 6 0 00-2.05-.4l-9.2-.15a1.77 1.56-48.7 00-.54.07q-3.73 1.04-8.69 1.27a4 4 32.5 00-1.5.33q-1.48.63-2.4.67a3.62 3.53 33.2 00-1.12.22q-6.69 2.46-15.64 6.28-11.17 4.77-12.38 6.04a.96.8 84.8 00-.09.13q-.19.31-.13.3h.01l-12.85 7.19a1.25 1.2-83 00-.27.22m-44.26 36.7q-.97.96-3.48 3.51-1.7 1.7-8.43 9.07-4.09 4.47-13.34 15.9-2.99 3.69-5.19 7.11a1.83 1.81 44.4 00.03 2.01q4.16 6.07 9.32 12.42 25.13 30.9 57.33 54.29a.8.79 45.3 00.92.01q19.35-13.88 36.09-30.83l.14-.14.14-.14q16.95-16.75 30.81-36.11a.8.79 44.7 00-.01-.92q-23.4-32.19-54.32-57.3-6.35-5.16-12.42-9.31a1.83 1.81 45.6 00-2.01-.03q-3.42 2.2-7.11 5.19-11.43 9.26-15.89 13.35-7.37 6.73-9.07 8.43zm-3.41 76.81q-6.95-6.96-8.95-9.19-12.13-13.48-21.26-26.37a.48.47-45.3 00-.78.01q-4.27 6.33-8.49 13.55c-10.16 17.38-26.53 53.31-9.26 70.63s53.25 1.01 70.65-9.11q7.23-4.21 13.57-8.47a.48.47-44.5 00.01-.78q-12.87-9.15-26.33-21.31-2.22-2.01-9.16-8.96m80.15-.03q-6.96 6.95-9.19 8.95-13.47 12.14-26.36 21.28a.48.47 44.6 00.01.78q6.33 4.27 13.56 8.49c17.39 10.15 53.34 26.51 70.65 9.22s.99-53.26-9.15-70.66q-4.21-7.24-8.47-13.57a.48.47 45.4 00-.78-.01q-9.16 12.88-21.31 26.34-2.01 2.23-8.96 9.18"/><path fill="#ffd285" d="M912.21 135.75q6.54 1.63 11.02 7a.9.8 68.3 01-.53 1.46q-.96-.01-1.34.86a1.2 1.18-.9 01-.59.6q-6.1 2.75-11.28 6.71a.93.91-47.2 01-1.04.05l-14.08-8.46a.58.57-59.6 01-.2-.78q1.62-2.69 4.27-4.1a4.12 4.03 10.1 00.69-.47q3.32-2.74 5.19-2.73 1.94.01 7.18-.21a2.34 2.32 50.4 01.71.07"/><path fill="#006b33" d="M868.7 193.1q-6.94 6.95-8.95 9.18-12.12 13.46-21.26 26.34a.48.47 45.4 01-.78-.01q-4.26-6.32-8.48-13.55c-10.14-17.38-26.49-53.3-9.21-70.6s53.22-.98 70.61 9.14q7.23 4.22 13.56 8.48a.48.47 44.6 01.01.78q-12.87 9.14-26.33 21.28-2.22 2.01-9.17 8.96m16.22-36.36q-9.22-5.89-19.89-9.24-11.15-3.77-17.65-4.78-5.95-.93-15.04.83a.43.3-55.3 00-.08.03l-4.94 2.3a1.65 1.37-68.7 00-.27.15q-6.61 4.68-8.13 12.23c-2.42 12.03 1.81 25.91 6.74 37.12q5.2 11.81 12.31 23.05a.58.58 0 00.97.02c5.55-7.97 12.05-15.01 19.65-23.57a2.78 2.65-85.1 01.44-.39q.66-.45 1.2-1.01 16.04-16.73 33.88-30.36a.52.51 42.5 00-.04-.85zm31.76 2.76 12.85-7.19h-.01q-.06.01.13-.3a.96.8 84.8 01.09-.13q1.21-1.27 12.38-6.04 8.95-3.82 15.64-6.28a3.62 3.53 33.2 011.12-.22q.92-.04 2.4-.67a4 4 32.5 011.5-.33q4.96-.23 8.69-1.27a1.77 1.56-48.7 01.54-.07l9.2.15a6 6 0 012.05.4l3.5.93q12.14 3.21 16.37 14.6c3.99 10.73 1.28 23.9-2.4 35.12q-.88 2.68-1.48 3.42a2.4 2.4-21.4 00-.5 1.13q-.65 4.15-2.91 7.49a7.56 6.93-18 00-.65 1.15q-3.02 6.75-5.06 10.23-9.13 15.52-10.05 16.84a.73.72-37.4 01-1.28-.17q-.12-.33-.6-.99-19.99-27.67-46.96-50.54-8.89-7.53-10.97-9.36a3 3-13.7 00-.99-.6q-1.56-.61-2.5-1.78a.74.72 85.6 00-.25-.22l-2.66-1.5a1.06 1.06 0 01.15-1.92q1.31-.5 2.39-1.66a1.25 1.2-83 01.27-.22m46.9-15.5q-.6.7-2.34.95-1.78.26-6.02 1.8a3.77 3.76-57.2 01-1.01.22q-1.33.08-2.7 1a.76.72-54.9 01-.53.11q-.4-.07-2.07.7-10.47 4.83-22.43 11.51a.69.64-86.8 00-.23.22q-.39.57-1.1.56a.5.5 0 00-.37.16l-1.35 1.35a.36.36 0 00.03.54q31.29 23.91 55.25 55.19a.73.73 0 001.2-.07q3.73-6.29 6.62-12.02.35-.7.95-1.33a2.19 2-14.1 00.43-.65q3.37-7.71 5.11-11.52 1.25-2.72 2.19-6.11 1.37-4.93 2.19-6.15a1.55 1.53 60.5 00.26-.95q-.03-.4.87-5.04c1.98-10.24 1.34-21.52-7.67-28.33a.94.89-12.9 00-.22-.13l-4.84-2.08a.09.09 0 01.04-.17l.26.01a.07.07 0 00.01-.14l-4.58-1.15a2.57 2.55-45.2 00-1.28.01q-.7.15-9.82.12a2.36 2.15 31.3 00-.87.17q-2.81 1.13-5.27.93a.8.8 0 00-.71.29"/><path fill="#fff" d="M525.15 152.15q-6.84-.01-10.24.05a.4.4 0 01-.3-.67q6.01-6.61 10.19-13.71.08-.12.4-.12.26 0 .33.12 4.17 7.11 10.17 13.73a.4.4 0 01-.31.67q-3.39-.07-10.24-.07"/><path fill="#4674a6" d="M351.45 398.93 0 398.96V141.89q.41.22.32-.99 21.84 16.33 48.54 22.05 5.14 1.1 12.82 2.78 7.85 1.71 12.71 3.26 44.98 14.36 68.41 56.04 2.31 4.11 3.81 7.02c18.06 34.89 48.18 57.38 86.92 64.78q7.45 1.42 10.76 2.19 53.49 12.28 79.76 60.88c6.64 12.27 12.6 21.99 20.99 31.52q3.08 3.5 6.41 7.51M87.83 272.94q4.69.01 7.57-.11a1.03 1.03 0 00.97-1.24q-2.47-11.74-8.11-22.78-.1-.2-.37-.2-.29 0-.39.19-5.68 11.02-8.2 22.76a1.03 1.03 0 00.96 1.25q2.88.12 7.57.13m.11 63.55q.38 0 .56-.36 14.58-29.23 8.68-61.54a.65.65 0 00-.84-.5q-4.18 1.37-8.43 1.37-4.24.01-8.43-1.36a.65.65 0 00-.84.51q-5.84 32.32 8.8 61.52.18.36.5.36m-.03 17.99q6.83 0 10.22.06a.4.4 0 00.3-.66q-6-6.61-10.17-13.69-.07-.12-.32-.12-.33 0-.4.12-4.16 7.09-10.15 13.69a.4.4 0 00.3.67q3.39-.06 10.22-.07"/><path fill="#ffd285" d="M964.29 143.71q2.46.2 5.27-.93a2.36 2.15 31.3 01.87-.17q9.12.03 9.82-.12a2.57 2.55-45.2 011.28-.01l4.58 1.15a.07.07 0 01-.01.14l-.26-.01a.09.09 0 00-.04.17l4.84 2.08a.94.89-12.9 01.22.13c9.01 6.81 9.65 18.09 7.67 28.33q-.9 4.64-.87 5.04a1.55 1.53 60.5 01-.26.95q-.82 1.22-2.19 6.15-.94 3.39-2.19 6.11-1.74 3.81-5.11 11.52a2.19 2-14.1 01-.43.65q-.6.63-.95 1.33-2.89 5.73-6.62 12.02a.73.73 0 01-1.2.07q-23.96-31.28-55.25-55.19a.36.36 0 01-.03-.54l1.35-1.35a.5.5 0 01.37-.16q.71.01 1.1-.56a.69.64-86.8 01.23-.22q11.96-6.68 22.43-11.51 1.67-.77 2.07-.7a.76.72-54.9 00.53-.11q1.37-.92 2.7-1a3.77 3.76-57.2 001.01-.22q4.24-1.54 6.02-1.8 1.74-.25 2.34-.95a.8.8 0 01.71-.29m-99.26 3.79 12.46 5.65a.67.53-6.3 01.11.07q3.39 2.19 7.32 3.52l9.15 5.53a.52.51 42.5 01.04.85q-17.84 13.63-33.88 30.36-.54.56-1.2 1.01a2.78 2.65-85.1 00-.44.39c-7.6 8.56-14.1 15.6-19.65 23.57a.58.58 0 01-.97-.02q-7.11-11.24-12.31-23.05c-4.93-11.21-9.16-25.09-6.74-37.12q1.52-7.55 8.13-12.23a1.65 1.37-68.7 01.27-.15l4.94-2.3a.43.3-55.3 01.08-.03q9.09-1.76 15.04-.83 6.5 1.01 17.65 4.78"/><path fill="#4674a6" d="M884.92 156.74q-3.93-1.33-7.32-3.52a.67.53-6.3 00-.11-.07l-12.46-5.65q10.67 3.35 19.89 9.24"/><path fill="#fff" d="M393.52 199.25v-35.49a.42.42 0 01.67-.34l110.34 80.95a.4.4 0 01.17.34v35.49a.42.42 0 01-.67.34l-110.34-80.95a.4.4 0 01-.17-.34"/><path fill="#006b33" d="m945.54 269.77-.14.14q-16.74 16.95-36.09 30.83a.8.79 45.3 01-.92-.01q-32.2-23.39-57.33-54.29-5.16-6.35-9.32-12.42a1.83 1.81 44.4 01-.03-2.01q2.2-3.42 5.19-7.11 9.25-11.43 13.34-15.9 6.73-7.37 8.43-9.07 2.51-2.55 3.48-3.51l3.51-3.49q1.7-1.7 9.07-8.43 4.46-4.09 15.89-13.35 3.69-2.99 7.11-5.19a1.83 1.81 45.6 012.01.03q6.07 4.15 12.42 9.31 30.92 25.11 54.32 57.3a.8.79 44.7 01.01.92q-13.86 19.36-30.81 36.11zm-36.9-8.12c2.2 0 5.13-.65 7.62-1.24q3.03-.72 6.47-2.74 11.4-6.7 14.1-19.46a28.5 28.5 0 00-4.04-21c-4.05-6.18-11.45-11.72-19.16-12.72-1.79-.23-3.48-.77-5.01-.77-1.54 0-3.23.54-5.01.78-7.71 1-15.11 6.55-19.16 12.73a28.5 28.5 0 00-4.02 21q2.71 12.76 14.11 19.45 3.45 2.02 6.48 2.74c2.49.59 5.42 1.23 7.62 1.23"/><path fill="#fff" d="M349.61 210.95V175.3a.35.35 0 01.56-.28l110.42 81.01a.4.4 0 01.14.28v35.66a.35.35 0 01-.56.28l-110.42-81.02a.4.4 0 01-.14-.28"/><path fill="#ffd285" d="M908.62 203.72c1.53 0 3.22.54 5.01.77 7.71 1 15.11 6.54 19.16 12.72a28.5 28.5 0 014.04 21q-2.7 12.76-14.1 19.46-3.44 2.02-6.47 2.74c-2.49.59-5.42 1.24-7.62 1.24s-5.13-.64-7.62-1.23q-3.03-.72-6.48-2.74-11.4-6.69-14.11-19.45a28.5 28.5 0 014.02-21c4.05-6.18 11.45-11.73 19.16-12.73 1.78-.24 3.47-.78 5.01-.78"/><path fill="#4674a6" d="M996.77 208.58q-2.57 7.67-7.62 13.89z"/><path fill="#ffd285" d="M818.77 248.1q-9.4-5.79-9.34-16.49.02-4.54 2.32-8.38 2.24-3.74 5.94-6.35a.8.8 0 011.14.25l8.72 15.11a2.1 2.1 45.4 01-.01 2.17l-8.15 13.54a.45.44 31.1 01-.62.15m188.65-15.06q-.01.88-.09 1.47-1.23 8.68-8.32 13.56a.7.7 0 01-1.02-.26q-3.62-7.14-8.52-14.2-.09-.14-.08-.77 0-.62.1-.76 5.05-6.95 8.82-14.01a.7.7 0 011.02-.24q6.99 5.03 8.03 13.73.07.59.06 1.48"/><path fill="#006b33" d="M868.74 273.23q6.94 6.95 9.16 8.96 13.46 12.16 26.33 21.31a.48.47-44.5 01-.01.78q-6.34 4.26-13.57 8.47c-17.4 10.12-53.37 26.42-70.65 9.11-17.27-17.32-.9-53.25 9.26-70.63q4.22-7.22 8.49-13.55a.48.47-45.3 01.78-.01q9.13 12.89 21.26 26.37 2 2.23 8.95 9.19m-44.66 44.66c8.83 8.8 25.37 6.12 36.19 2.45q17.68-6 33.72-16.45a.55.55 0 00.04-.9q-15.51-11.89-29.43-25.76t-25.87-29.34a.55.55 0 00-.9.04q-10.39 16.08-16.32 33.78c-3.64 10.84-6.25 27.38 2.57 36.18"/><path fill="#fff" d="M554.61 273.5v-35.4a.45.45 0 01.72-.36l110.21 80.86a.5.5 0 01.18.36v35.4a.45.45 0 01-.72.36l-110.21-80.86a.5.5 0 01-.18-.36"/><path fill="#006b33" d="M997.56 321.92c-17.31 17.29-53.26.93-70.65-9.22q-7.23-4.22-13.56-8.49a.48.47 44.6 01-.01-.78q12.89-9.14 26.36-21.28 2.23-2 9.19-8.95t8.96-9.18q12.15-13.46 21.31-26.34a.48.47 45.4 01.78.01q4.26 6.33 8.47 13.57c10.14 17.4 26.46 53.37 9.15 70.66m-4.09-4.01c8.81-8.8 6.17-25.33 2.53-36.15q-5.96-17.67-16.36-33.72a.55.55 0 00-.9-.04q-11.91 15.47-25.8 29.35-13.89 13.87-29.37 25.77a.55.55 0 00.04.9q16.04 10.42 33.71 16.39c10.82 3.65 27.34 6.3 36.15-2.5"/><path fill="#ffd285" d="M864.6 277.23q13.92 13.87 29.43 25.76a.55.55 0 01-.04.9q-16.04 10.45-33.72 16.45c-10.82 3.67-27.36 6.35-36.19-2.45s-6.21-25.34-2.57-36.18q5.93-17.7 16.32-33.78a.55.55 0 01.9-.04q11.94 15.47 25.87 29.34m128.87 40.68c-8.81 8.8-25.33 6.15-36.15 2.5q-17.67-5.97-33.71-16.39a.55.55 0 01-.04-.9q15.48-11.9 29.37-25.77 13.89-13.88 25.8-29.35a.55.55 0 01.9.04q10.4 16.05 16.36 33.72c3.64 10.82 6.28 27.35-2.53 36.15"/><path fill="#fff" d="M87.83 272.94q-4.69-.01-7.57-.13a1.03 1.03 0 01-.96-1.25q2.52-11.74 8.2-22.76.1-.19.39-.19.27 0 .37.2 5.64 11.04 8.11 22.78a1.03 1.03 0 01-.97 1.24q-2.88.12-7.57.11m1.69-6.49a1.66 1.66 0 00-1.66-1.66 1.66 1.66 0 00-1.66 1.66 1.66 1.66 0 001.66 1.66 1.66 1.66 0 001.66-1.66m421.08 18.61v-35.1a.58.58 0 01.92-.46l80.77 59.26a.6.6 0 01.24.46v35.1a.58.58 0 01-.92.46l-80.77-59.26a.6.6 0 01-.24-.46m38.11 35.88v35.23a.52.52 0 01-.83.42l-81.04-59.44a.5.5 0 01-.21-.42V261.5a.52.52 0 01.83-.42l81.04 59.44a.5.5 0 01.21.42"/><circle cx="87.86" cy="266.45" r="1.66" fill="#4674a6"/><path fill="#fff" d="M87.91 275.46q4.25 0 8.43-1.37a.65.65 0 01.84.5q5.9 32.31-8.68 61.54-.18.36-.56.36-.32 0-.5-.36-14.64-29.2-8.8-61.52a.65.65 0 01.84-.51q4.19 1.37 8.43 1.36m510.41 73.98v-35.3a.49.49 0 01.78-.4l110.33 80.94a.5.5 0 01.2.4v35.3a.49.49 0 01-.78.4l-110.33-80.94a.5.5 0 01-.2-.4"/><path fill="#ffd285" d="M908.76 332.38c-6.26.01-12.15-3.71-15.47-8.69a.7.7-32.2 01.23-.97q8.83-5.09 14.78-8.93.2-.14.42-.14t.42.13q5.97 3.82 14.82 8.88a.7.7 32 01.23.97c-3.3 5-9.18 8.73-15.43 8.75"/><path fill="#fff" d="m665.31 406.44.82 35.17a.86.85-72.5 01-1.36.71l-109.56-80.38a1.29 1.27-72.4 01-.53-1.04v-35.31a.28.28 0 01.45-.23l109.97 80.68a.5.5 0 01.21.4m-577.4-51.96q-6.83.01-10.22.07a.4.4 0 01-.3-.67q5.99-6.6 10.15-13.69.07-.12.4-.12.25 0 .32.12 4.17 7.08 10.17 13.69a.4.4 0 01-.3.66q-3.39-.06-10.22-.06m671.39 69.15v-35.24a.52.52 0 01.83-.42l110.17 80.81a.5.5 0 01.21.42v35.24a.52.52 0 01-.83.42l-110.17-80.81a.5.5 0 01-.21-.42"/><path fill="#006b33" d="M351.45 398.93q2.45 1.62 5.23 4c16.51 14.19 35.92 22.62 57.36 26.71q9.75 1.86 15.11 3.29 45.43 12.16 70.58 51.97c3.61 5.72 6.93 12.38 10.52 18.6q24.97 43.27 73.47 56.55 6.49 1.78 16.29 3.46l.01 236.49H0V398.96zm-83.76 113.62 3.73.03a.54.54 0 00.54-.58l-3.99-60.41a.06.04 1.9 00-.06-.04h-.08a.06.04-1.6 00-.06.04l-4.34 60.39a.54.54 0 00.54.58zm6.47 6.26a.9.9 0 00-.76-.43h-11.32a.9.9 0 00-.76.43l-17.79 29.58a.9.9 0 00.04.98l8.79 12.34a.9.9 0 00.73.37h29.86a.9.9 0 00.72-.36l8.64-11.79a.9.9 0 00.04-.99zm32.68 43.33q5.71-.02 15.15-.13a.54.54 0 00.44-.85q-6.51-9.28-15.17-21.49-.21-.29-.46-.29-.33 0-.54.29-8.57 12.28-15.02 21.6a.54.54 0 00.44.85q9.45.04 15.16.02m-77.45.21q5.75 0 15.27-.1a.55.54 72.6 00.44-.85q-6.54-9.36-15.23-21.69-.21-.29-.55-.29-.25 0-.46.29-8.66 12.35-15.18 21.72a.55.54-72.7 00.44.85q9.51.08 15.27.07m-.02 18.9q-3.5 0-3.62-.03a.6.6 0 01-.46-.56l.02-11.77a.7.7 0 00-.7-.7l-13.88-.03a.53.53 0 00-.53.53l-.15 59.06a.62.61.3 00.61.62l18.66.02 18.65.02a.62.61-.2 00.62-.62l-.02-59.06a.53.53 0 00-.53-.53h-13.89a.7.7 0 00-.69.7l-.01 11.77a.6.6 0 01-.47.56q-.12.02-3.61.02m77.3-.06q-3.5.01-3.62-.02a.6.6 0 01-.47-.56l-.01-11.78a.7.7 0 00-.7-.7h-13.9a.53.53 0 00-.53.53v59.14a.62.61.2 00.61.61l18.68-.02 18.68-.03a.62.61-.3 00.62-.61l-.17-59.14a.53.53 0 00-.53-.53l-13.9.04a.7.7 0 00-.7.7l.02 11.78a.6.6 0 01-.46.56q-.12.03-3.62.03m-52.36 29.47a.35.35-38.1 00.68.08c1.77-7.12 5.59-14.22 12.47-17.18a1.12 1.1 45.6 01.92.02q6.18 3.03 9.61 9.7 2.92 5.67 2.79 7.9a.38.38 0 00.6.33q.37-.27.36-1.77-.04-23.56.03-40.93a.5.5 0 00-.51-.51h-26.37a.58.57 0 00-.58.57zM267.9 756.9q.29 0 .75-.27 82.55-47.7 136.37-78.74a1.8 1.78-15.3 00.89-1.54v-62.48a.6.6 0 00-.6-.6h-40.35a.62.61-90 00-.61.62v38.9a1 1 0 01-.51.88l-95.11 54.91a.7.7 0 01-.49.08q-.18-.03-.34-.03t-.34.03a.7.7 0 01-.49-.08l-95.12-54.89a1 1 0 01-.51-.88l-.01-38.9a.62.61 90 00-.61-.62h-40.35a.6.6 0 00-.6.6l.01 62.48a1.8 1.78 15.3 00.89 1.54q53.83 31.03 136.39 78.72.45.27.74.27"/><path fill="#fff" d="M797.46 459.43V495a.39.39 0 01-.62.31l-81.24-59.6a.4.4 0 01-.16-.32v-35.57a.39.39 0 01.62-.31l81.24 59.6a.4.4 0 01.16.32m-125.93-12.39v-35.38a.46.46 0 01.73-.37l81.12 59.5a.5.5 0 01.19.37v35.39a.46.46 0 01-.73.37l-81.12-59.51a.5.5 0 01-.19-.37m449.36 20.41q-4.7-.01-7.59-.14a1.03 1.03 0 01-.96-1.24q2.52-11.77 8.22-22.81.1-.19.39-.19.27 0 .37.19 5.65 11.07 8.12 22.84a1.03 1.03 0 01-.96 1.24q-2.89.12-7.59.11m1.65-6.71a1.65 1.65 0 00-1.65-1.65 1.65 1.65 0 00-1.65 1.65 1.65 1.65 0 001.65 1.65 1.65 1.65 0 001.65-1.65"/><path fill="#ffd285" d="M267.87 451.55h.04a.06.04 1.9 01.06.04l3.99 60.41a.54.54 0 01-.54.58l-3.73-.03-3.72.01a.54.54 0 01-.54-.58l4.34-60.39a.06.04-1.6 01.06-.04z"/><circle cx="1120.89" cy="460.74" r="1.65" fill="#4674a6"/><path fill="#fff" d="M803.4 499.93v-35.59a.38.38 0 01.6-.31l110.33 80.96a.4.4 0 01.16.3v35.58a.38.38 0 01-.6.31l-110.33-80.95a.4.4 0 01-.16-.3m317.61 30.75q-.32 0-.5-.36-14.6-29.08-8.81-61.29a.65.65 0 01.84-.5q4.17 1.36 8.4 1.35t8.4-1.38a.65.65 0 01.84.5q5.9 32.19-8.61 61.32-.18.36-.56.36m-361.7-19.23V475.9a.39.39 0 01.62-.31l110.42 81a.4.4 0 01.16.32v35.55a.39.39 0 01-.62.31l-110.42-81a.4.4 0 01-.16-.32"/><path fill="#ffd285" d="m274.16 518.81 18.19 30.13a.9.9 0 01-.04.99l-8.64 11.79a.9.9 0 01-.72.36h-29.86a.9.9 0 01-.73-.37l-8.79-12.34a.9.9 0 01-.04-.98l17.79-29.58a.9.9 0 01.76-.43h11.32a.9.9 0 01.76.43"/><path fill="#fff" d="M1120.96 548.94q-6.87-.03-10.28.02a.4.4 0 01-.3-.67q6.05-6.62 10.27-13.73.08-.12.4-.12.26 0 .33.12 4.16 7.15 10.16 13.81a.4.4 0 01-.3.67q-3.41-.07-10.28-.1m-156.98 24.9v-35.61a.37.37 0 01.59-.3l110.75 81.25a.4.4 0 01.15.3v35.61a.37.37 0 01-.59.3l-110.75-81.25a.4.4 0 01-.15-.3"/><path fill="#ffd285" d="M306.84 562.14q-5.71.02-15.16-.02a.54.54 0 01-.44-.85q6.45-9.32 15.02-21.6.21-.29.54-.29.25 0 .46.29 8.66 12.21 15.17 21.49a.54.54 0 01-.44.85q-9.44.11-15.15.13m-77.52-22.72q.34 0 .55.29 8.69 12.33 15.23 21.69a.55.54 72.6 01-.44.85q-9.52.1-15.27.1-5.76.01-15.27-.07a.55.54-72.7 01-.44-.85q6.52-9.37 15.18-21.72.21-.29.46-.29"/><path fill="#fff" d="M920.09 585.53v-35.65a.35.35 0 01.56-.28l81.44 59.75a.4.4 0 01.14.28v35.65a.35.35 0 01-.56.28l-81.44-59.75a.4.4 0 01-.14-.28m38.29 35.82V657a.35.35 0 01-.56.28l-81.26-59.62a.4.4 0 01-.14-.28v-35.64a.35.35 0 01.56-.28l81.26 59.61a.4.4 0 01.14.28"/><path fill="#4674a6" d="M895.09 799.65q-1.19.05-.84.35H600.02l-.01-236.49q51.57 10.01 79.26 53.05c4.06 6.31 8.16 14.76 12.09 21.32q23.91 39.91 68.19 53.56c9.06 2.8 20.95 4.58 28.53 6.52q45.73 11.69 71.19 51.14c5.46 8.46 10.65 20.18 16.85 28.64q9.81 13.38 14.41 17.48 3.5 3.12 4.56 4.43M689.53 682.92q4.7.01 7.58-.1a1.03 1.03 0 00.96-1.24q-2.45-11.76-8.08-22.81-.1-.19-.37-.19-.29-.01-.39.19-5.7 11.01-8.23 22.76a1.03 1.03 0 00.96 1.24q2.88.13 7.57.15m.19 63.26q.32 0 .51-.36 14.49-29.11 8.6-61.28a.65.65 0 00-.83-.5q-4.17 1.37-8.4 1.38-4.22.01-8.39-1.35a.65.65 0 00-.84.5q-5.79 32.19 8.79 61.25.18.37.56.36m-.04 18.36q6.89.01 10.31.08a.4.4 0 00.3-.67q-6.03-6.67-10.22-13.82-.07-.12-.33-.12-.33 0-.4.12-4.21 7.14-10.26 13.79a.4.4 0 00.3.67q3.42-.06 10.3-.05"/><path fill="#ffd285" d="M229.37 581.25q3.49 0 3.61-.02a.6.6 0 00.47-.56l.01-11.77a.7.7 0 01.69-.7h13.89a.53.53 0 01.53.53l.02 59.06a.62.61-.2 01-.62.62l-18.65-.02-18.66-.02a.62.61.3 01-.61-.62l.15-59.06a.53.53 0 01.53-.53l13.88.03a.7.7 0 01.7.7l-.02 11.77a.6.6 0 00.46.56q.12.03 3.62.03m77.36 47.14-18.68.02a.62.61.2 01-.61-.61v-59.14a.53.53 0 01.53-.53h13.9a.7.7 0 01.7.7l.01 11.78a.6.6 0 00.47.56q.12.03 3.62.02t3.62-.03a.6.6 0 00.46-.56l-.02-11.78a.7.7 0 01.7-.7l13.9-.04a.53.53 0 01.53.53l.17 59.14a.62.61-.3 01-.62.61zm-52.42-17.73v-41.79a.58.57 0 01.58-.57h26.37a.5.5 0 01.51.51q-.07 17.37-.03 40.93.01 1.5-.36 1.77a.38.38 0 01-.6-.33q.13-2.23-2.79-7.9-3.43-6.67-9.61-9.7a1.12 1.1 45.6 00-.92-.02c-6.88 2.96-10.7 10.06-12.47 17.18a.35.35-38.1 01-.68-.08"/><path fill="#ffd285" d="M267.9 708.63q.16 0 .34.03a.7.7 0 00.49-.08l95.11-54.91a1 1 0 00.51-.88v-38.9a.62.61 90 01.61-.62h40.35a.6.6 0 01.6.6v62.48a1.8 1.78-15.3 01-.89 1.54q-53.82 31.04-136.37 78.74-.46.27-.75.27t-.74-.27q-82.56-47.69-136.39-78.72a1.8 1.78 15.3 01-.89-1.54l-.01-62.48a.6.6 0 01.6-.6h40.35a.62.61 90 01.61.62l.01 38.9a1 1 0 00.51.88l95.12 54.89a.7.7 0 00.49.08q.18-.03.34-.03"/><path fill="#fff" d="M1007.92 649.89V614.7a.54.54 0 01.86-.44l110.36 80.96a.5.5 0 01.22.43v35.19a.54.54 0 01-.86.44l-110.36-80.96a.5.5 0 01-.22-.43m-44.01 11.67v-35.67a.35.35 0 01.56-.28l110.81 81.3a.4.4 0 01.14.28v35.67a.35.35 0 01-.56.28l-110.81-81.3a.4.4 0 01-.14-.28m-274.38 21.36q-4.69-.02-7.57-.15a1.03 1.03 0 01-.96-1.24q2.53-11.75 8.23-22.76.1-.2.39-.19.27 0 .37.19 5.63 11.05 8.08 22.81a1.03 1.03 0 01-.96 1.24q-2.88.11-7.58.1m1.6-6.51a1.6 1.6 0 00-1.62-1.62 1.6 1.6 0 00-1.62 1.62 1.6 1.6 0 001.62 1.62 1.6 1.6 0 001.62-1.62"/><circle cx="689.51" cy="676.41" r="1.62" fill="#4674a6"/><path fill="#fff" d="M689.72 746.18q-.38.01-.56-.36-14.58-29.06-8.79-61.25a.65.65 0 01.84-.5q4.17 1.36 8.39 1.35t8.4-1.38a.65.65 0 01.83.5q5.89 32.17-8.6 61.28-.19.36-.51.36m509.95-35.86.02 36.65-30.02-22a1.37 1.36 18.2 01-.56-1.1v-34.95a.51.5-72.1 01.8-.41zm-.03 43.89.05 36.64-74.14-54.36a1 1 0 01-.42-.83v-35.7a.17.17 0 01.27-.14z"/><path fill="#006b33" d="M1200 708.53v39.58q-.29.15-.31-1.14l-.02-36.65q.01-1.68.33-1.79"/><path fill="#fff" d="M1081.14 747.55v-35.57a.39.39 0 01.62-.31l81.08 59.48a.4.4 0 01.16.32v27.8a.4.4 0 01-.39.39h-10.58a.4.4 0 01-.23-.08l-70.5-51.71a.4.4 0 01-.16-.32m-391.46 16.99q-6.88-.01-10.3.05a.4.4 0 01-.3-.67q6.05-6.65 10.26-13.79.07-.12.4-.12.26 0 .33.12 4.19 7.15 10.22 13.82a.4.4 0 01-.3.67q-3.42-.07-10.31-.08"/><path fill="#006b33" d="M1200 752.65v39.44q-.38.07-.31-1.24l-.05-36.64q-.02-1.7.36-1.56"/><path fill="#fff" d="M1200 798.93v.74l-30.98.01.02-23.08a.47.47 0 01.75-.38l29.32 21.52a1.96 1.86 3.7 01.52.56z"/><path fill="#006b33" d="m895.09 799.65 188.11.01q.99-.05.98.34H894.25q-.35-.3.84-.35m304.91.02v.33h-31.77q-.2-.49.79-.32z"/></svg>