<svg xmlns="http://www.w3.org/2000/svg" viewBox="0 0 1200 800"><g fill="none" stroke-width="2"><path stroke="#782112" d="M1200 799.23q-60.11-39.8-120.04-79.8-.14-.09-.15-.11-.05-.24.05-.43a.2.2 0 01.26-.08q.72.37 1.97.31a1.05 1.05 0 00.68-1.81l-1.81-1.77" vector-effect="non-scaling-stroke"/><path stroke="#79251e" d="M1080.96 715.54q-6.65-15.66-14.55-30.72-4.44-8.46-9.17-14.5-4.8-6.13-11.26-7.51-7.97-1.72-15.25 1.52a.57.57-7.8 01-.79-.59q.84-5.75-.06-10.41a5.34 5.32 27.6 00-.4-1.27c-2.85-6.29-9.27-12.47-16.63-12.25q-4.3.13-7.62 2.68a.76.75 43.8 01-.9.01l-87.91-63.87a1 1 0 01-.32-1.18q3.3-7.54-2.32-12.69a3.39 3.33-11.8 00-.92-.59q-6.64-2.9-11.94 2.58a.53.52-49.5 01-.68.06l-212.91-154.7a.64.64 0 01.05-1.07L727.01 387" vector-effect="non-scaling-stroke"/><path stroke="#782112" d="m727.01 387 129.02-78.5a.79.78-38.2 01.95.11q2.51 2.41 4.86 5.03 17.76 19.88 27.02 45.43 7.64 21.08 6.91 43.36" vector-effect="non-scaling-stroke"/><path stroke="#79251e" d="m895.77 402.43-.63 8.46a2.06.96 79 01-.03.25l-2.37 11.29a.9.9 0 00.85 1.08l37.98 1.51a1.68 1.67-88.7 001.74-1.67q.02-10.66-1.77-23.23-.18-1.26-.73-3.29-.5-1.86-.71-3.31-.57-4.06-1.5-8.02" vector-effect="non-scaling-stroke"/><path stroke="#782112" d="M928.6 385.5q-2.86-12.2-6.79-24.09c-10.48-31.72-25.1-62.28-41.73-91.24a.34.34 0 01.19-.49q16.4-5.04 33.91-13.52 31.71-15.37 62.13-37.36 30.15-21.81 57.47-47.97a.8.8 0 011.25.15l18.58 29.54a1.27 1.26-32.2 001.74.39l23.33-14.68a1.3 1.3 0 00.6-.96l1.66-16.7a1.65.84 72 01.03-.19l.19-1.79a2.26.75-71.1 01.03-.27l3.51-33.88a2 2 0 00-.31-1.33l-21.65-34.43a.87.84-5.5 00-.41-.33l-50.47-18.21a1.6 1.6 0 00-1.39.15l-23.7 14.91a.77.77 0 00-.24 1.07l18.94 30.12a.6.6 0 01-.29.87q-27.17 10.35-52.34 22.81-32.54 16.12-61.22 36.53-22.92 16.32-42.1 36.14a.53.52-39.9 01-.81-.07q-19.65-28.49-42.37-54.02-11.07-12.44-22.97-23.74c-14.97-14.2-31.95-27.63-49.5-35.77q-2-.93-2.86 1.1-9.39 22.15-14.53 34.01a1.17 1.16-72.9 00.85 1.61c40.94 7.82 73.03 42.92 86.77 80.8a1.3 1.3 0 01-.5 1.5L607.66 353.52a.9.89 46.3 01-1.01-.03l-22.83-16.63" vector-effect="non-scaling-stroke"/><path stroke="#79251e" d="m583.82 336.86-85.01-61.74a1.55 1.54-56.9 01-.42-2.04c3.59-6.14-1.55-14.32-7.91-15.93q-7.39-1.86-13.29 2.01a.59.58-43.3 01-.66-.01c-36.41-26.01-69.31-50.2-108.21-78.21-5.26-3.78-9.13-7.53-11.12-13.21a1.61 1.6 55.4 01.28-1.54c6.07-7.32 9.57-18.98 3.58-27.24-6.8-9.36-18.75-4.43-24.45 2.9a.37.37 0 01-.66-.21 36 36 0 00-3.11-12.52q-8.97-18.12-28-23.11a3.19 3.04 50.7 00-.89-.11q-1.65.01-3.21-.48c-3.46-1.08-7.36-.54-11.86.18q-3.42.54-10.87.26a3 3 0 01-1.05-.25q-4.6-2.16-6.03-3.49-8.32-7.77-12.38-11.11-12.13-9.97-27.54-10.09-8.79-.07-17.07 2.03-6.41 1.63-14.47 4.49-2.04.73-3.19 1.76a1.22 1.22 0 00.37 2.04c11.63 4.62 23.35 12.94 29.64 23.89a.32.32 0 01-.46.42c-12.43-9.01-25.38-15.8-40.26-18.04-10.77-1.61-25.23.28-35.26-.62q-4.63-.42-10.12-2.85a1.49 1.1-8.6 01-.17-.09l-5.81-3.75" vector-effect="non-scaling-stroke"/><path stroke="#782112" d="M134.21 90.2q-8.38-6.03-14.32-15.26a.65.65 0 00-1.19.29l-.31 3.01a.81.8 19.7 01-1.25.59L0 .72" vector-effect="non-scaling-stroke"/><path stroke="#02040c" d="M134.21 90.2q-.18.75-.8 1.44" vector-effect="non-scaling-stroke"/><path stroke="#807811" d="M133.41 91.64q-7.7-5.79-13.05-13.67a.32.32 0 00-.57.12c-2.46 13.02-3.61 26.33-.67 39.11q4.28 18.63 22.87 25.14 5.71 2 14.93 4.76c11.41 3.41 20.93 8.63 23.84 20.62q1.13 4.68 1.43 8.12a.59.59 0 01-1.11.31q-2.29-4.67-6.61-7.82-5.14-3.76-11.73-5.03-8.44-1.62-12.02-1.32-5.88.49-11.67 1.45-4.61.77-13.26 4.21-6.59 2.61-12.42 7.25a.59.59 0 00.32 1.05q22.45 1.78 36.81 18.73c10.02 11.81 15.11 25.49 20.16 40.53q5.82 17.37 16.49 32.15c8.39 11.65 19.75 21.78 34.29 22.72" vector-effect="non-scaling-stroke"/><path stroke="#782112" d="M221.44 290.07q1.79.73 3.39-.07" vector-effect="non-scaling-stroke"/><path stroke="#807811" d="M224.83 290q11.48-1.11 20.1-7.8a7 7-5.5 001.85-2.24l14.97-29.72" vector-effect="non-scaling-stroke"/><path stroke="#02040c" d="m261.75 250.24 1.28.72" vector-effect="non-scaling-stroke"/><path stroke="#807811" d="M263.03 250.96q-11.11 20.26-20.26 41.5c-1.41 3.26-2.27 6.46-2.03 9.79.9 12.58 13.69 13.91 22.04 7.51q5.58-4.28 8.66-11.06 1.67-3.67 2.58-5.43 27.82-54.07 63.48-103.26" vector-effect="non-scaling-stroke"/><path stroke="#02040c" d="M337.5 190.01q.88.07 1.24.71" vector-effect="non-scaling-stroke"/><path stroke="#807811" d="M338.74 190.72q-35.83 49.46-64.69 106.06a.47.47 0 00.51.67c5.29-1.04 11.07 1.45 15.99 4.15q46.6 25.6 117.89 64.8a.59.58-62.6 00.81-.26q1.81-3.72 3.83-7.59 24.63-47.09 56.55-89.57" vector-effect="non-scaling-stroke"/><path stroke="#02040c" d="M469.63 268.98q.88.15 1.23.85" vector-effect="non-scaling-stroke"/><path stroke="#807811" d="M470.86 269.83q-34.9 46.32-61.05 98.05a3.1 3.02-27.1 00-.29.86q-1.01 5.57 2.29 10.23c4.6 6.51 15.44 7.52 18.29-1.49a4.12 3.85-22.5 01.34-.75q26.08-45.65 55.82-89.02" vector-effect="non-scaling-stroke"/><path stroke="#02040c" d="m486.26 287.71.49 1.8" vector-effect="non-scaling-stroke"/><path stroke="#807811" d="M486.75 289.51q-29.3 42.94-55.3 88.61a.94.94 29.4 00.36 1.28L867.8 617.73a.61.6 35.5 00.74-.12l.52-.57" vector-effect="non-scaling-stroke"/><path stroke="#02040c" d="M869.06 617.04q.53.1.76.98" vector-effect="non-scaling-stroke"/><path stroke="#807811" d="M869.82 618.02c-3.14 4.44-2.72 10.63 2.46 13.04q3 1.4 6.42-.18 3.21-1.48 5.23-5.62" vector-effect="non-scaling-stroke"/><path stroke="#02040c" d="M883.93 625.26q1.05.39 1.45 1.04" vector-effect="non-scaling-stroke"/><path stroke="#807811" d="M885.38 626.3q-.17.84.29 1.09 47.53 26 95.08 51.96a.2.2-36.5 00.15.02q.53-.14.66-.59" vector-effect="non-scaling-stroke"/><path stroke="#02040c" d="M981.56 678.78q.76.11 1.06 1.06" vector-effect="non-scaling-stroke"/><path stroke="#807811" d="M982.62 679.84q-1.89 4.59-.17 8.76 1.54 3.74 6 6.48 10.18 6.24 21.03-1.57 1.85-1.33 4.63-6.52" vector-effect="non-scaling-stroke"/><path stroke="#02040c" d="m1014.11 686.99.85 1.62" vector-effect="non-scaling-stroke"/><path stroke="#807811" d="m1014.96 688.61-2.1 3.37a2.75 2.71 60.7 00-.41 1.51q.17 7.46 3.62 13.22 3.72 6.24 11.03 8.02l5.36 1.32" vector-effect="non-scaling-stroke"/><path stroke="#02040c" d="M1032.46 716.05q.34.37 1.34.27" vector-effect="non-scaling-stroke"/><path stroke="#807811" d="M1033.8 716.32q22.74 2.16 46.08.71" vector-effect="non-scaling-stroke"/><path stroke="#02040c" d="M1079.88 717.03q.3-1.29 1.08-1.49" vector-effect="non-scaling-stroke"/><path stroke="gray" d="M115.72 714.78a.41.41 82.2 00.6.46L547.13 444.3a.13.13 0 00-.01-.23l-41.14-22.49a.85.84-47.4 00-.88.04q-8.08 5.4-20.19 13.27-256.72 166.95-317.56 206.45c-17.45 11.33-31.23 27.76-40.68 46.37q-6.92 13.62-10.95 27.07m.93 2.31q20.78 3.15 40.34 1.25a126 126 0 0036.77-9.53q5.51-2.36 21.7-12.21 209.35-127.41 374.83-227.97a.58.58 0 00-.03-1l-40.69-22.25a1.5 1.5 0 00-1.57.05L116.58 716.76a.18.18 0 00.07.33" vector-effect="non-scaling-stroke"/><path stroke="#817b1d" d="M133.41 91.64c7.12 5.33 14.38 7.17 23.63 7.01q11.12-.2 23.37-.12c2.55.02 4.47.83 6.79.94q1.85.08 5.04.95 14.74 4.03 28.3 13.31 3.75 2.56 9.03 6.62a.53.53 0 00.8-.63c-6.23-13.95-17.73-23.51-31.81-29.38a.42.42 0 01.01-.78q7.08-2.92 14.88-4.85 8.32-2.07 17.32-2.13 13.92-.1 24.57 8.09 5.96 4.58 13.22 11.52 2.88 2.75 8.08 5a3.11 3.06 58.6 001 .25q6.06.46 13.24-.55a31 31 0 019.56-.05q22.98 3.98 31.69 24.94a31 31 0 012.15 11.09 3.84 3.82 65.3 01-.91 2.48q-34.04 40.18-60.36 84.91a6.81 6.75-2.1 01-2.07 2.21q-15.19 10.27-31.83 9.32c-23.38-1.33-41.43-18.49-46.75-41.28a.48.47 65 00-.75-.28l-.39.3a.67.66 65.3 00-.25.7q6.99 28.18 32.57 38.64 18.18 7.44 38.15-.54c2.52-1.01 4.97-2.72 7.61-4.01a.44.44 0 01.57.61l-8.12 14.31" vector-effect="non-scaling-stroke"/><path stroke="#f79922" d="m224.83 290-3.39.07" vector-effect="non-scaling-stroke"/><path stroke="#817b1d" d="M299.8 185.36a.38.37 55.4 00.7.13l1.54-2.83a.12.09-35.8 00.02-.06l1.02-7.96a3 3 0 000-.68l-.79-6.59a2.08 1.69 39.1 00-.08-.38q-6.01-19.19-26.27-21.74-1.05-.13-11.43-.07-13.64.09-20.93-11.15c-1.32-2.04-2.05-4.29-3.13-6.18a.48.47-40.3 00-.78-.06l-.05.07a1.18 1.17-36.6 00-.18 1.18q6.17 15.64 22.01 17.6 2.59.32 8.12-.08c8.5-.62 17.47 2.16 23.61 8.09q10.55 10.18 7.6 26.3c-.3 1.64-1.2 2.82-.98 4.41" vector-effect="non-scaling-stroke"/><path stroke="#02040c" d="m928.6 385.5-1.39.03" vector-effect="non-scaling-stroke"/><path stroke="gray" d="M927.21 385.53c-8.32-33.78-21.85-65.22-38.4-96.56q-19.5-36.92-45.34-73.44-23.18-32.75-50.36-61.12-7.74-8.08-18.44-17.56c-13.05-11.57-26.28-21.1-41.41-28.3a.74.74 0 00-1 .38l-14.01 32.97a.56.55 17.4 00.4.75c19.65 4.11 37.19 14.2 52.05 28.34q26.84 25.53 37.62 62.16 1.07 3.65 1.89 8.35 1.29 7.39 1.41 8.43 1.61 14.73-.81 28.52a1.1 1.1 0 00.8 1.25q13.86 3.79 26.11 11.62 6.79 4.34 10.53 7.44c30.27 25.07 50.52 64.14 49.01 103.95" vector-effect="non-scaling-stroke"/><path stroke="#02040c" d="m897.26 402.71-1.49-.28M727.01 387q-.5-.53-.3-1.44" vector-effect="non-scaling-stroke"/><path stroke="gray" d="m726.71 385.56 127.94-77.82a.76.75 51.5 00.13-1.18q-18.1-17.81-42.49-25.23a1.76 1.74 77.1 01-.77-.49l-.21-.24a1.66 1.65 38.6 00-1.44.16l-161.74 101.7a.74.74 0 00-.04 1.22l9.96 7.25" vector-effect="non-scaling-stroke"/><path stroke="#02040c" d="M658.05 390.93q.26 1.14-.31 1.47" vector-effect="non-scaling-stroke"/><path stroke="#807811" d="m657.74 392.4-75.04-54.49" vector-effect="non-scaling-stroke"/><path stroke="#02040c" d="m582.7 337.91 1.12-1.05" vector-effect="non-scaling-stroke"/><path stroke="gray" d="M1021.41 146.92q27.57 43.63 32.83 51.87a1 1 0 001.39.31l21.8-13.7a1 1 0 00.49-.8l5.26-52.13a1.44 1.38 33.2 00-.2-.88q-2.37-3.85-10.6-16.88t-10.7-16.82a1.44 1.38 82.2 00-.71-.56l-49.34-17.63a1 1 0 00-.93.1l-21.73 13.8a1 1 0 00-.32 1.39q5.19 8.29 32.76 51.93m-15.44-20.5-19.32 7.69a.95.93 31.7 01-.27.06q-.47.03-.63.13-2.7 1.65-5.12 2.22a.66.66 0 00-.05 1.28q14.16 4.49 25.27 12.5 10.34 7.46 15.62 13.15 7.4 7.97 8.01 8.6a.64.64 0 00.89.04l2.9-2.61a.48.46-37.4 00.09-.6l-26.53-42.18a.71.7-26.8 00-.86-.28" vector-effect="non-scaling-stroke"/><path stroke="gray" d="M953.98 149.46q.51.45 1.28.58 5.88.98 12.41 3.58c17.28 6.86 32.3 19.54 44.16 34.28a.8.79 49.4 001.15.09l15.35-13.79a.95.94 47.3 00.05-1.36q-1.87-1.94-4.94-5.26-12.58-13.61-28.27-22.19c-5.24-2.87-10.63-4.81-16.65-6.83a3.5 3.5 0 00-2.62.15l-21.84 10.2a.34.33 53.6 00-.08.55" vector-effect="non-scaling-stroke"/><path stroke="gray" d="M929.4 162.64q9.82.98 19.64 5.41c17.28 7.78 32.31 20.47 43.76 35.93a.55.55 0 00.79.1l17.57-14.43a.16.16 0 00.03-.23q-10.42-13.48-24.02-23.34-10.92-7.9-21.38-11.6-5.42-1.91-14.13-3.97a1.26 1.22-51.2 00-.87.11l-21.5 11.44a.31.31 0 00.11.58" vector-effect="non-scaling-stroke"/><path stroke="gray" d="M928.05 163.42q-2.1.59-2.69.94-5.04 2.97-15.86 9.76c-1.27.79-1.78 2-3.06 2.42q-1.2.39-2.6 1.32-8.89 5.93-17.39 12.22a.33.33 0 00.18.6q4.41.2 9.87 1.68c22.68 6.15 40.88 20.83 54.92 39.67a1.66 1.65-35 002.23.39l18.11-11.77a.44.43-34.4 00.12-.62c-14.99-20.53-38.14-39.89-64.17-42.6a.34.34 0 01-.15-.63l.97-.63a.91.89-56.5 01.65-.14c21.01 3.3 38.74 14.88 53.31 30.5q4.16 4.46 10.34 12.29a.8.8 0 001.11.14l17.53-13.23a.73.72 52.2 00.13-1.04q-5.65-6.94-7.27-8.76-11.84-13.22-26.76-21.97-13.53-7.92-28.7-10.03a.2.2 82.9 01-.18-.15l-.05-.14a.53.52-24.2 00-.59-.22" vector-effect="non-scaling-stroke"/><path stroke="gray" d="M950.92 233.63c-10.3-13.78-23.24-26.14-38.15-33.58q-9.54-4.76-20.58-7.24-1.08-.24-7.36-.75a2.72 2.71 27.5 00-1.95.61l-13.49 11.08a.6.6 0 00.16 1.03c2.03.81 4.23.63 6.93 1.36q19.38 5.2 34.93 18.47 9.94 8.49 17.77 18.95.56.74 1.1 1.9a1.2 1.2 0 001.68.49l18.88-11.88a.31.3 56 00.08-.44" vector-effect="non-scaling-stroke"/><path stroke="gray" d="m910.61 256.7 18.23-9.7a.67.66 58.6 00.23-.97q-14.08-19.9-34.84-31.46-6.91-3.84-18.19-7.05c-2.38-.68-4.98-.73-7.2-1.42a2.55 2.53-57 00-2.45.53l-12.67 11.39a.84.84 0 00.3 1.42c1.65.55 3.4.3 5.32.78q32.25 8.18 50.14 36.19a.86.86 0 001.13.29" vector-effect="non-scaling-stroke"/><path stroke="gray" d="M908.07 257.27q-3-5.28-7.33-10.25-16.41-18.81-40.63-25.1c-1.8-.47-4.62-.57-7.04-1.38q-1.24-.41-2.42 1.03a1.15 1.14 48.3 00-.07 1.34l13.04 20.06a3 3-5.4 001.3 1.07q14.08 5.72 24.12 14.5c1.74 1.52 2.89 3.13 4.33 4.51a.81.8 56.1 00.84.17l13.69-5.46a.34.34 0 00.17-.49m-299.4 97.65 36.86 26.78a.96.95 46.8 001.08.04l162.14-101.98a.99.98 79.7 00.46-.67q3.2-17.08-.07-35.35-1.59-8.83-3.93-15.78a.8.8 0 00-1.18-.41L608.68 354.53a.24.24 47.2 00-.01.39" vector-effect="non-scaling-stroke"/><path stroke="gray" d="m865.77 246.59 13.26 21.09a1.35 1.34-25.7 001.58.55l11.09-3.87a.43.43 0 00.18-.7q-10.26-11.31-25.79-17.46a.27.26 84.4 00-.32.39" vector-effect="non-scaling-stroke"/><path stroke="#817b1d" d="m582.7 337.91-85.37-62.12a.8.8 0 00-1.14.2l-9.44 13.52m-.49-1.8q4.1-6.2 8.53-12.19c.48-.64 1.46-1.25 1.78-1.9q3.76-7.79-2.66-12.81-6.77-5.29-15.09-.72c-1.44.79-2.35 2.76-3.35 3.99q-2.33 2.87-4.61 5.75m-1.23-.85 5.99-7.45a.75.74-52.5 00-.14-1.07q-49.56-35.94-108.17-78.52c-4.53-3.28-9.64-7.41-11.11-13.05a.55.55 0 00-.97-.19l-16.49 22.02m-1.24-.71q9.5-13.33 19.64-26.12 4.83-6.09 5.38-13.36c.43-5.77-1.98-12.29-7.67-14.35q-3.69-1.33-6.85-.28-6.08 2.03-8.89 5.25-44.2 50.6-76.08 109.81" vector-effect="non-scaling-stroke"/><path stroke="#81838c" d="M927.21 385.53c2.61 12.25 4.53 24.4 4.49 36.89a.97.96-88.9 01-1 .97l-35.5-1.41a.71.7 9.1 01-.65-.89q2.43-8.93 2.71-18.38" vector-effect="non-scaling-stroke"/><path stroke="#817b1d" d="M351.12 200.13c-2.54 3.64-1.72 8.28 1.69 10.63q58.62 40.4 102.13 70.36a.9.9 0 001.21-.21l3.47-4.93 3.44-4.95a.9.9 0 00-.22-1.22q-43.08-30.57-101.15-71.74c-3.38-2.4-8.03-1.58-10.57 2.06m95.71 91.65q-14.33-9.72-100.78-67.37c-4.03-2.68-7.11-4.33-10.44-.37q-4.31 5.12-1.22 10.14a4 4-88.9 001.25 1.3l103.15 68.66a.7.7 0 00.99-.2l7.28-10.95a.87.87 0 00-.23-1.21m-22.18 35.12a.87.87 0 001.19-.31l6.79-11.28a.7.7 0 00-.24-.98l-106.32-63.89a4 4-26.4 00-1.71-.57q-5.86-.65-8.65 5.45c-2.15 4.71.66 6.78 4.81 9.28q89.2 53.5 104.13 62.3m-6.18 11.92q-42.83-24.93-105.22-61.05-3.28-1.9-5.36-2.04c-5.93-.4-9.22 4.82-8 10.4a2.89 2.83 21.1 00.47 1.03q1.45 1.99 2.48 2.56 46.93 26.19 99.72 56 7.8 4.4 9.17 5a.84.83-63.8 001.07-.37l5.88-10.75a.6.6 0 00-.21-.78" vector-effect="non-scaling-stroke"/><path stroke="#817b1d" d="M352.47 201.07c-2.1 3.01-1.53 6.56 1.54 8.68q13.23 9.14 100.42 69.23a1.04 1.03-54 001.41-.23q1.27-1.67 2.6-3.58 1.34-1.91 2.47-3.67a1.04 1.03-56 00-.27-1.41q-86.37-61.26-99.49-70.54c-3.05-2.16-6.58-1.48-8.68 1.52m87.15 100.46 5.29-7.94a1.2 1.2 0 00-.33-1.66l-100.33-66.91a6.35 4.94 33.7 00-8.02.58l-1.14 1.72a6.35 4.94 33.7 002.54 7.63l100.32 66.91a1.2 1.2 0 001.67-.33m-14.34 23.07 5.25-8.77a.86.86 0 00-.29-1.18L326 252.27a5.9 4.89 30.9 00-7.57 1.17l-1.11 1.85a5.9 4.89 30.9 002.55 7.22l104.24 62.39a.86.86 0 001.17-.3m-123.29-44.36c-1.82 3.18-.93 6.67 2.33 8.51q14.04 7.91 106.51 59.89a1.04 1.03-59.3 001.38-.36q1.11-1.78 2.27-3.81 1.16-2.02 2.13-3.88a1.04 1.03-61.3 00-.4-1.38q-91.76-53.23-105.7-61.29c-3.24-1.88-6.7-.87-8.52 2.32M657.74 392.4l241.58 175.61a.7.7 0 01.17.97q-16.07 23.82-30.43 48.06" vector-effect="non-scaling-stroke"/><path stroke="#817b1d" d="M892.76 571.93a1.31 1.3 33.5 00-.36-1.75Q525.39 313.81 501.54 297.21q-4.12-2.87-7.15.64c-6.82 7.89.03 11.29 5.94 15.3q216.51 146.96 387.95 263.39a1.34 1.33 32.9 001.89-.4l2.59-4.21M478.67 321.44c-2.55 3.93-1.76 7.24 2.12 9.73q200.06 128.34 400.28 256.81a.8.8 0 001.06-.16q1.07-1.27 2.1-2.85t1.75-3.08a.8.8 0 00-.28-1.03Q686.96 450.1 488.41 319.43c-3.85-2.53-7.19-1.91-9.74 2.01m-13.66 21.52c-2.45 3.98-1.58 7.27 2.35 9.67q203.1 123.5 406.37 247.13a.8.8 0 001.05-.19q1.05-1.29 2.04-2.9t1.67-3.12a.8.8 0 00-.31-1.02L474.7 340.71c-3.91-2.44-7.23-1.74-9.69 2.25m403.62 267.01 2.7-4.14a1.34 1.33 31.8 00-.45-1.88q-178.59-105.1-404.06-237.87c-6.16-3.63-12.16-8.36-16.37 1.18q-1.88 4.24 2.48 6.73 25.21 14.45 413.97 236.41a1.31 1.3 31.2 001.73-.43" vector-effect="non-scaling-stroke"/><path stroke="#81838c" d="m726.71 385.56-40.16 24.41a1.94 1.93-42.7 01-2.14-.08l-26.36-18.96" vector-effect="non-scaling-stroke"/><path stroke="#817b1d" d="M890.78 572.45a1.43 1.42-57.8 00-.42-1.87Q525.8 315.91 502.7 299.79q-1.95-1.36-3.4-1.93a3.06 3.05 33.7 00-3.27.65c-1.94 1.9-4.58 6.01-1.67 8.44q2.38 2 5.87 4.37 344.34 233.76 383.75 260.49 3.42 2.32 4.15 2.68a1.36 1.35 27.9 001.79-.54l.86-1.5M479.94 322.23c-1.39 2.15-1.82 5.41.6 6.96q380.67 244.44 400.34 256.83a.78.77 33.6 001.05-.21q.56-.79 1.08-1.6.53-.81 1.03-1.64a.78.77 32.5 00-.24-1.05q-19.31-12.94-397.26-261.57c-2.39-1.57-5.21.14-6.6 2.28m-13.7 21.45c-1.34 2.18-1.68 5.46.77 6.95q386.45 235.22 406.41 247.13a.78.77 32.2 001.04-.23q.54-.81 1.05-1.63.5-.82.98-1.67a.78.77 31.1 00-.26-1.04q-19.61-12.47-403.44-251.94c-2.43-1.52-5.21.26-6.55 2.43m-13.56 22.2c-2.27 3.9-.63 5.97 2.93 8q17.29 9.85 411.02 234.65a.84.83 41.6 00.92-.05q.73-.54 1.22-1.39t.6-1.74a.84.83 18.6 00-.42-.83Q478.22 374.56 461.08 364.45c-3.53-2.08-6.14-2.48-8.4 1.43m627.2 351.15q-6.68-16.19-14.7-31.44-4.07-7.74-9.56-14.71c-6.6-8.4-17.08-8.65-26.27-4.48a1.63 1.53 1.8 00-.66.58l-13.73 21.63m-.85-1.62 13.2-20.68a3.15 2.94 74 00.27-.53q3.91-10.6-2.83-18.37c-4.22-4.88-10.43-7.8-16.42-5.13q-2.41 1.07-5.97 6.18-10.57 15.17-19.74 31.38m-1.06-1.06q9.96-17.9 21.83-34.41a.54.54 0 00-.12-.76l-87.42-63.52a.94.94 35 00-1.33.23q-15.19 22.56-29.14 45.98m-1.45-1.04q15.29-24.09 30.44-48.28 2.61-4.17.67-8.09-2.16-4.38-6.54-4.17-4.97.23-7.07 3.54-15.79 24.9-31.61 49.76" vector-effect="non-scaling-stroke"/><path stroke="#817b1d" d="M910.9 591.36a.93.93 0 00.25 1.29l82.33 55.82a.93.93 0 001.29-.25l2.56-3.77a.93.93 0 00-.24-1.28l-81.62-56.87a.93.93 0 00-1.3.24l-3.27 4.82m-6.34 10.22a.65.65 0 00.19.89l83.62 54.45a.65.65 0 00.9-.19l2.65-4.08a.65.65 0 00-.18-.89l-82.6-56.01a.65.65 0 00-.91.19l-3.67 5.64" vector-effect="non-scaling-stroke"/><path stroke="#807811" d="M986.4 661.26a1.03 1.03 0 00-.34-1.42l-84.37-51.88a1.03 1.03 0 00-1.42.36l-3.06 5.19a1.03 1.03 0 00.37 1.41l85.31 50.12a1.03 1.03 0 001.4-.35l2.11-3.43m-5.18 8.19a.93.93 0 00-.34-1.27l-85.71-50.36a.93.93 0 00-1.28.34l-2.75 4.76a.93.93 0 00.34 1.28l86.09 49.7a.93.93 0 001.27-.34l2.38-4.11" vector-effect="non-scaling-stroke"/><path stroke="#817b1d" d="M995.6 644.25a.45.45 0 00-.11-.63l-80.14-55.29a.45.45 0 00-.63.12l-1.78 2.58a.45.45 0 00.11.63l80.14 55.29a.45.45 0 00.63-.12l1.78-2.58m-86.75-46.36-2.3 3.46a.3.3 0 00.08.39l.13.09a97.58 1.25 33.6 0081.97 52.96l1.23-1.85a97.58 1.25 33.6 00-80.59-55.04l-.13-.09a.3.3 0 00-.39.08" vector-effect="non-scaling-stroke"/><path stroke="#807811" d="M900.03 611.63q-.8 1.33-.92 1.77a.74.74 0 00.34.84l83.08 49.06a.64.64 0 00.78-.1q.42-.42.75-.97.33-.54.5-1.11a.64.64 0 00-.28-.73l-82.22-50.49a.74.74 0 00-.9.09q-.33.31-1.13 1.64m79.16 58.2a1.13 1.13 0 00-.41-1.54l-83.07-48.16a1.13 1.13 0 00-1.55.41l-.93 1.61a1.13 1.13 0 00.41 1.54l83.07 48.16a1.13 1.13 0 001.55-.41l.93-1.61" vector-effect="non-scaling-stroke"/><path stroke="#817b1d" d="M1033.8 716.32q-.62-.29-1.34-.27" vector-effect="non-scaling-stroke"/></g><path fill="#ef4223" d="M1200 0v799.23q-60.11-39.8-120.04-79.8-.14-.09-.15-.11-.05-.24.05-.43a.2.2 0 01.26-.08q.72.37 1.97.31a1.05 1.05 0 00.68-1.81l-1.81-1.77q-6.65-15.66-14.55-30.72-4.44-8.46-9.17-14.5-4.8-6.13-11.26-7.51-7.97-1.72-15.25 1.52a.57.57-7.8 01-.79-.59q.84-5.75-.06-10.41a5.34 5.32 27.6 00-.4-1.27c-2.85-6.29-9.27-12.47-16.63-12.25q-4.3.13-7.62 2.68a.76.75 43.8 01-.9.01l-87.91-63.87a1 1 0 01-.32-1.18q3.3-7.54-2.32-12.69a3.39 3.33-11.8 00-.92-.59q-6.64-2.9-11.94 2.58a.53.52-49.5 01-.68.06l-212.91-154.7a.64.64 0 01.05-1.07L727.01 387l129.02-78.5a.79.78-38.2 01.95.11q2.51 2.41 4.86 5.03 17.76 19.88 27.02 45.43 7.64 21.08 6.91 43.36l-.63 8.46a2.06.96 79 01-.03.25l-2.37 11.29a.9.9 0 00.85 1.08l37.98 1.51a1.68 1.67-88.7 001.74-1.67q.02-10.66-1.77-23.23-.18-1.26-.73-3.29-.5-1.86-.71-3.31-.57-4.06-1.5-8.02-2.86-12.2-6.79-24.09c-10.48-31.72-25.1-62.28-41.73-91.24a.34.34 0 01.19-.49q16.4-5.04 33.91-13.52 31.71-15.37 62.13-37.36 30.15-21.81 57.47-47.97a.8.8 0 011.25.15l18.58 29.54a1.27 1.26-32.2 001.74.39l23.33-14.68a1.3 1.3 0 00.6-.96l1.66-16.7a1.65.84 72 01.03-.19l.19-1.79a2.26.75-71.1 01.03-.27l3.51-33.88a2 2 0 00-.31-1.33l-21.65-34.43a.87.84-5.5 00-.41-.33l-50.47-18.21a1.6 1.6 0 00-1.39.15l-23.7 14.91a.77.77 0 00-.24 1.07l18.94 30.12a.6.6 0 01-.29.87q-27.17 10.35-52.34 22.81-32.54 16.12-61.22 36.53-22.92 16.32-42.1 36.14a.53.52-39.9 01-.81-.07q-19.65-28.49-42.37-54.02-11.07-12.44-22.97-23.74c-14.97-14.2-31.95-27.63-49.5-35.77q-2-.93-2.86 1.1-9.39 22.15-14.53 34.01a1.17 1.16-72.9 00.85 1.61c40.94 7.82 73.03 42.92 86.77 80.8a1.3 1.3 0 01-.5 1.5L607.66 353.52a.9.89 46.3 01-1.01-.03l-22.83-16.63-85.01-61.74a1.55 1.54-56.9 01-.42-2.04c3.59-6.14-1.55-14.32-7.91-15.93q-7.39-1.86-13.29 2.01a.59.58-43.3 01-.66-.01c-36.41-26.01-69.31-50.2-108.21-78.21-5.26-3.78-9.13-7.53-11.12-13.21a1.61 1.6 55.4 01.28-1.54c6.07-7.32 9.57-18.98 3.58-27.24-6.8-9.36-18.75-4.43-24.45 2.9a.37.37 0 01-.66-.21 36 36 0 00-3.11-12.52q-8.97-18.12-28-23.11a3.19 3.04 50.7 00-.89-.11q-1.65.01-3.21-.48c-3.46-1.08-7.36-.54-11.86.18q-3.42.54-10.87.26a3 3 0 01-1.05-.25q-4.6-2.16-6.03-3.49-8.32-7.77-12.38-11.11-12.13-9.97-27.54-10.09-8.79-.07-17.07 2.03-6.41 1.63-14.47 4.49-2.04.73-3.19 1.76a1.22 1.22 0 00.37 2.04c11.63 4.62 23.35 12.94 29.64 23.89a.32.32 0 01-.46.42c-12.43-9.01-25.38-15.8-40.26-18.04-10.77-1.61-25.23.28-35.26-.62q-4.63-.42-10.12-2.85a1.49 1.1-8.6 01-.17-.09l-5.81-3.75q-8.38-6.03-14.32-15.26a.65.65 0 00-1.19.29l-.31 3.01a.81.8 19.7 01-1.25.59L0 .72V0z"/><path d="M134.21 90.2q-.18.75-.8 1.44-7.7-5.79-13.05-13.67a.32.32 0 00-.57.12c-2.46 13.02-3.61 26.33-.67 39.11q4.28 18.63 22.87 25.14 5.71 2 14.93 4.76c11.41 3.41 20.93 8.63 23.84 20.62q1.13 4.68 1.43 8.12a.59.59 0 01-1.11.31q-2.29-4.67-6.61-7.82-5.14-3.76-11.73-5.03-8.44-1.62-12.02-1.32-5.88.49-11.67 1.45-4.61.77-13.26 4.21-6.59 2.61-12.42 7.25a.59.59 0 00.32 1.05q22.45 1.78 36.81 18.73c10.02 11.81 15.11 25.49 20.16 40.53q5.82 17.37 16.49 32.15c8.39 11.65 19.75 21.78 34.29 22.72q1.79.73 3.39-.07 11.48-1.11 20.1-7.8a7 7-5.5 001.85-2.24l14.97-29.72 1.28.72q-11.11 20.26-20.26 41.5c-1.41 3.26-2.27 6.46-2.03 9.79.9 12.58 13.69 13.91 22.04 7.51q5.58-4.28 8.66-11.06 1.67-3.67 2.58-5.43 27.82-54.07 63.48-103.26.88.07 1.24.71-35.83 49.46-64.69 106.06a.47.47 0 00.51.67c5.29-1.04 11.07 1.45 15.99 4.15q46.6 25.6 117.89 64.8a.59.58-62.6 00.81-.26q1.81-3.72 3.83-7.59 24.63-47.09 56.55-89.57.88.15 1.23.85-34.9 46.32-61.05 98.05a3.1 3.02-27.1 00-.29.86q-1.01 5.57 2.29 10.23c4.6 6.51 15.44 7.52 18.29-1.49a4.12 3.85-22.5 01.34-.75q26.08-45.65 55.82-89.02l.49 1.8q-29.3 42.94-55.3 88.61a.94.94 29.4 00.36 1.28L867.8 617.73a.61.6 35.5 00.74-.12l.52-.57q.53.1.76.98c-3.14 4.44-2.72 10.63 2.46 13.04q3 1.4 6.42-.18 3.21-1.48 5.23-5.62 1.05.39 1.45 1.04-.17.84.29 1.09 47.53 26 95.08 51.96a.2.2-36.5 00.15.02q.53-.14.66-.59.76.11 1.06 1.06-1.89 4.59-.17 8.76 1.54 3.74 6 6.48 10.18 6.24 21.03-1.57 1.85-1.33 4.63-6.52l.85 1.62-2.1 3.37a2.75 2.71 60.7 00-.41 1.51q.17 7.46 3.62 13.22 3.72 6.24 11.03 8.02l5.36 1.32q.34.37 1.34.27 22.74 2.16 46.08.71.3-1.29 1.08-1.49l1.81 1.77a1.05 1.05 0 01-.68 1.81q-1.25.06-1.97-.31a.2.2 0 00-.26.08q-.1.19-.05.43.01.02.15.11 59.93 40 120.04 79.8v.77H0V.72l117.14 78.11a.81.8 19.7 001.25-.59l.31-3.01a.65.65 0 011.19-.29q5.94 9.23 14.32 15.26m-18.49 624.58a.41.41 82.2 00.6.46L547.13 444.3a.13.13 0 00-.01-.23l-41.14-22.49a.85.84-47.4 00-.88.04q-8.08 5.4-20.19 13.27-256.72 166.95-317.56 206.45c-17.45 11.33-31.23 27.76-40.68 46.37q-6.92 13.62-10.95 27.07m.93 2.31q20.78 3.15 40.34 1.25a126 126 0 0036.77-9.53q5.51-2.36 21.7-12.21 209.35-127.41 374.83-227.97a.58.58 0 00-.03-1l-40.69-22.25a1.5 1.5 0 00-1.57.05L116.58 716.76a.18.18 0 00.07.33"/><path fill="#ffef21" d="M133.41 91.64c7.12 5.33 14.38 7.17 23.63 7.01q11.12-.2 23.37-.12c2.55.02 4.47.83 6.79.94q1.85.08 5.04.95 14.74 4.03 28.3 13.31 3.75 2.56 9.03 6.62a.53.53 0 00.8-.63c-6.23-13.95-17.73-23.51-31.81-29.38a.42.42 0 01.01-.78q7.08-2.92 14.88-4.85 8.32-2.07 17.32-2.13 13.92-.1 24.57 8.09 5.96 4.58 13.22 11.52 2.88 2.75 8.08 5a3.11 3.06 58.6 001 .25q6.06.46 13.24-.55a31 31 0 019.56-.05q22.98 3.98 31.69 24.94a31 31 0 012.15 11.09 3.84 3.82 65.3 01-.91 2.48q-34.04 40.18-60.36 84.91a6.81 6.75-2.1 01-2.07 2.21q-15.19 10.27-31.83 9.32c-23.38-1.33-41.43-18.49-46.75-41.28a.48.47 65 00-.75-.28l-.39.3a.67.66 65.3 00-.25.7q6.99 28.18 32.57 38.64 18.18 7.44 38.15-.54c2.52-1.01 4.97-2.72 7.61-4.01a.44.44 0 01.57.61l-8.12 14.31-14.97 29.72a7 7-5.5 01-1.85 2.24q-8.62 6.69-20.1 7.8l-3.39.07c-14.54-.94-25.9-11.07-34.29-22.72q-10.67-14.78-16.49-32.15c-5.05-15.04-10.14-28.72-20.16-40.53q-14.36-16.95-36.81-18.73a.59.59 0 01-.32-1.05q5.83-4.64 12.42-7.25 8.65-3.44 13.26-4.21 5.79-.96 11.67-1.45 3.58-.3 12.02 1.32 6.59 1.27 11.73 5.03 4.32 3.15 6.61 7.82a.59.59 0 001.11-.31q-.3-3.44-1.43-8.12c-2.91-11.99-12.43-17.21-23.84-20.62q-9.22-2.76-14.93-4.76-18.59-6.51-22.87-25.14c-2.94-12.78-1.79-26.09.67-39.11a.32.32 0 01.57-.12q5.35 7.88 13.05 13.67m166.39 93.72a.38.37 55.4 00.7.13l1.54-2.83a.12.09-35.8 00.02-.06l1.02-7.96a3 3 0 000-.68l-.79-6.59a2.08 1.69 39.1 00-.08-.38q-6.01-19.19-26.27-21.74-1.05-.13-11.43-.07-13.64.09-20.93-11.15c-1.32-2.04-2.05-4.29-3.13-6.18a.48.47-40.3 00-.78-.06l-.05.07a1.18 1.17-36.6 00-.18 1.18q6.17 15.64 22.01 17.6 2.59.32 8.12-.08c8.5-.62 17.47 2.16 23.61 8.09q10.55 10.18 7.6 26.3c-.3 1.64-1.2 2.82-.98 4.41"/><path d="m928.6 385.5-1.39.03c-8.32-33.78-21.85-65.22-38.4-96.56q-19.5-36.92-45.34-73.44-23.18-32.75-50.36-61.12-7.74-8.08-18.44-17.56c-13.05-11.57-26.28-21.1-41.41-28.3a.74.74 0 00-1 .38l-14.01 32.97a.56.55 17.4 00.4.75c19.65 4.11 37.19 14.2 52.05 28.34q26.84 25.53 37.62 62.16 1.07 3.65 1.89 8.35 1.29 7.39 1.41 8.43 1.61 14.73-.81 28.52a1.1 1.1 0 00.8 1.25q13.86 3.79 26.11 11.62 6.79 4.34 10.53 7.44c30.27 25.07 50.52 64.14 49.01 103.95l-1.49-.28q.73-22.28-6.91-43.36-9.26-25.55-27.02-45.43-2.35-2.62-4.86-5.03a.79.78-38.2 00-.95-.11L727.01 387q-.5-.53-.3-1.44l127.94-77.82a.76.75 51.5 00.13-1.18q-18.1-17.81-42.49-25.23a1.76 1.74 77.1 01-.77-.49l-.21-.24a1.66 1.65 38.6 00-1.44.16l-161.74 101.7a.74.74 0 00-.04 1.22l9.96 7.25q.26 1.14-.31 1.47l-75.04-54.49 1.12-1.05 22.83 16.63a.9.89 46.3 001.01.03L803.6 226.16a1.3 1.3 0 00.5-1.5c-13.74-37.88-45.83-72.98-86.77-80.8a1.17 1.16-72.9 01-.85-1.61q5.14-11.86 14.53-34.01.86-2.03 2.86-1.1c17.55 8.14 34.53 21.57 49.5 35.77q11.9 11.3 22.97 23.74 22.72 25.53 42.37 54.02a.53.52-39.9 00.81.07q19.18-19.82 42.1-36.14 28.68-20.41 61.22-36.53 25.17-12.46 52.34-22.81a.6.6 0 00.29-.87l-18.94-30.12a.77.77 0 01.24-1.07l23.7-14.91a1.6 1.6 0 011.39-.15l50.47 18.21a.87.84-5.5 01.41.33l21.65 34.43a2 2 0 01.31 1.33l-3.51 33.88a2.26.75-71.1 00-.03.27l-.19 1.79a1.65.84 72 00-.03.19l-1.66 16.7a1.3 1.3 0 01-.6.96l-23.33 14.68a1.27 1.26-32.2 01-1.74-.39l-18.58-29.54a.8.8 0 00-1.25-.15q-27.32 26.16-57.47 47.97-30.42 21.99-62.13 37.36-17.51 8.48-33.91 13.52a.34.34 0 00-.19.49c16.63 28.96 31.25 59.52 41.73 91.24q3.93 11.89 6.79 24.09m92.81-238.58q27.57 43.63 32.83 51.87a1 1 0 001.39.31l21.8-13.7a1 1 0 00.49-.8l5.26-52.13a1.44 1.38 33.2 00-.2-.88q-2.37-3.85-10.6-16.88t-10.7-16.82a1.44 1.38 82.2 00-.71-.56l-49.34-17.63a1 1 0 00-.93.1l-21.73 13.8a1 1 0 00-.32 1.39q5.19 8.29 32.76 51.93m-15.44-20.5-19.32 7.69a.95.93 31.7 01-.27.06q-.47.03-.63.13-2.7 1.65-5.12 2.22a.66.66 0 00-.05 1.28q14.16 4.49 25.27 12.5 10.34 7.46 15.62 13.15 7.4 7.97 8.01 8.6a.64.64 0 00.89.04l2.9-2.61a.48.46-37.4 00.09-.6l-26.53-42.18a.71.7-26.8 00-.86-.28m-51.99 23.04q.51.45 1.28.58 5.88.98 12.41 3.58c17.28 6.86 32.3 19.54 44.16 34.28a.8.79 49.4 001.15.09l15.35-13.79a.95.94 47.3 00.05-1.36q-1.87-1.94-4.94-5.26-12.58-13.61-28.27-22.19c-5.24-2.87-10.63-4.81-16.65-6.83a3.5 3.5 0 00-2.62.15l-21.84 10.2a.34.33 53.6 00-.08.55m-24.58 13.18q9.82.98 19.64 5.41c17.28 7.78 32.31 20.47 43.76 35.93a.55.55 0 00.79.1l17.57-14.43a.16.16 0 00.03-.23q-10.42-13.48-24.02-23.34-10.92-7.9-21.38-11.6-5.42-1.91-14.13-3.97a1.26 1.22-51.2 00-.87.11l-21.5 11.44a.31.31 0 00.11.58m-1.35.78q-2.1.59-2.69.94-5.04 2.97-15.86 9.76c-1.27.79-1.78 2-3.06 2.42q-1.2.39-2.6 1.32-8.89 5.93-17.39 12.22a.33.33 0 00.18.6q4.41.2 9.87 1.68c22.68 6.15 40.88 20.83 54.92 39.67a1.66 1.65-35 002.23.39l18.11-11.77a.44.43-34.4 00.12-.62c-14.99-20.53-38.14-39.89-64.17-42.6a.34.34 0 01-.15-.63l.97-.63a.91.89-56.5 01.65-.14c21.01 3.3 38.74 14.88 53.31 30.5q4.16 4.46 10.34 12.29a.8.8 0 001.11.14l17.53-13.23a.73.72 52.2 00.13-1.04q-5.65-6.94-7.27-8.76-11.84-13.22-26.76-21.97-13.53-7.92-28.7-10.03a.2.2 82.9 01-.18-.15l-.05-.14a.53.52-24.2 00-.59-.22m22.87 70.21c-10.3-13.78-23.24-26.14-38.15-33.58q-9.54-4.76-20.58-7.24-1.08-.24-7.36-.75a2.72 2.71 27.5 00-1.95.61l-13.49 11.08a.6.6 0 00.16 1.03c2.03.81 4.23.63 6.93 1.36q19.38 5.2 34.93 18.47 9.94 8.49 17.77 18.95.56.74 1.1 1.9a1.2 1.2 0 001.68.49l18.88-11.88a.31.3 56 00.08-.44m-40.31 23.07 18.23-9.7a.67.66 58.6 00.23-.97q-14.08-19.9-34.84-31.46-6.91-3.84-18.19-7.05c-2.38-.68-4.98-.73-7.2-1.42a2.55 2.53-57 00-2.45.53l-12.67 11.39a.84.84 0 00.3 1.42c1.65.55 3.4.3 5.32.78q32.25 8.18 50.14 36.19a.86.86 0 001.13.29m-2.54.57q-3-5.28-7.33-10.25-16.41-18.81-40.63-25.1c-1.8-.47-4.62-.57-7.04-1.38q-1.24-.41-2.42 1.03a1.15 1.14 48.3 00-.07 1.34l13.04 20.06a3 3-5.4 001.3 1.07q14.08 5.72 24.12 14.5c1.74 1.52 2.89 3.13 4.33 4.51a.81.8 56.1 00.84.17l13.69-5.46a.34.34 0 00.17-.49m-299.4 97.65 36.86 26.78a.96.95 46.8 001.08.04l162.14-101.98a.99.98 79.7 00.46-.67q3.2-17.08-.07-35.35-1.59-8.83-3.93-15.78a.8.8 0 00-1.18-.41L608.68 354.53a.24.24 47.2 00-.01.39m257.1-108.33 13.26 21.09a1.35 1.34-25.7 001.58.55l11.09-3.87a.43.43 0 00.18-.7q-10.26-11.31-25.79-17.46a.27.26 84.4 00-.32.39"/><path fill="#fff" d="M1072.38 114.71q8.23 13.03 10.6 16.88a1.44 1.38 33.2 01.2.88l-5.26 52.13a1 1 0 01-.49.8l-21.8 13.7a1 1 0 01-1.39-.31q-5.26-8.24-32.83-51.87-27.57-43.64-32.76-51.93a1 1 0 01.32-1.39l21.73-13.8a1 1 0 01.93-.1l49.34 17.63a1.44 1.38 82.2 01.71.56q2.46 3.78 10.7 16.82"/><path fill="#030718" d="m583.82 336.86-1.12 1.05-85.37-62.12a.8.8 0 00-1.14.2l-9.44 13.52-.49-1.8q4.1-6.2 8.53-12.19c.48-.64 1.46-1.25 1.78-1.9q3.76-7.79-2.66-12.81-6.77-5.29-15.09-.72c-1.44.79-2.35 2.76-3.35 3.99q-2.33 2.87-4.61 5.75-.35-.7-1.23-.85l5.99-7.45a.75.74-52.5 00-.14-1.07q-49.56-35.94-108.17-78.52c-4.53-3.28-9.64-7.41-11.11-13.05a.55.55 0 00-.97-.19l-16.49 22.02q-.36-.64-1.24-.71 9.5-13.33 19.64-26.12 4.83-6.09 5.38-13.36c.43-5.77-1.98-12.29-7.67-14.35q-3.69-1.33-6.85-.28-6.08 2.03-8.89 5.25-44.2 50.6-76.08 109.81l-1.28-.72 8.12-14.31a.44.44 0 00-.57-.61c-2.64 1.29-5.09 3-7.61 4.01q-19.97 7.98-38.15.54-25.58-10.46-32.57-38.64a.67.66 65.3 01.25-.7l.39-.3a.48.47 65 01.75.28c5.32 22.79 23.37 39.95 46.75 41.28q16.64.95 31.83-9.32a6.81 6.75-2.1 002.07-2.21q26.32-44.73 60.36-84.91a3.84 3.82 65.3 00.91-2.48c.02-3.58-.86-7.99-2.15-11.09q-8.71-20.96-31.69-24.94a31 31 0 00-9.56.05q-7.18 1.01-13.24.55a3.11 3.06 58.6 01-1-.25q-5.2-2.25-8.08-5-7.26-6.94-13.22-11.52-10.65-8.19-24.57-8.09-9 .06-17.32 2.13-7.8 1.93-14.88 4.85a.42.42 0 00-.01.78c14.08 5.87 25.58 15.43 31.81 29.38a.53.53 0 01-.8.63q-5.28-4.06-9.03-6.62-13.56-9.28-28.3-13.31-3.19-.87-5.04-.95c-2.32-.11-4.24-.92-6.79-.94q-12.25-.08-23.37.12c-9.25.16-16.51-1.68-23.63-7.01q.62-.69.8-1.44l5.81 3.75a1.49 1.1-8.6 00.17.09q5.49 2.43 10.12 2.85c10.03.9 24.49-.99 35.26.62 14.88 2.24 27.83 9.03 40.26 18.04a.32.32 0 00.46-.42c-6.29-10.95-18.01-19.27-29.64-23.89a1.22 1.22 0 01-.37-2.04q1.15-1.03 3.19-1.76 8.06-2.86 14.47-4.49 8.28-2.1 17.07-2.03 15.41.12 27.54 10.09 4.06 3.34 12.38 11.11 1.43 1.33 6.03 3.49a3 3 0 001.05.25q7.45.28 10.87-.26c4.5-.72 8.4-1.26 11.86-.18q1.56.49 3.21.48a3.19 3.04 50.7 01.89.11q19.03 4.99 28 23.11a36 36 0 013.11 12.52.37.37 0 00.66.21c5.7-7.33 17.65-12.26 24.45-2.9 5.99 8.26 2.49 19.92-3.58 27.24a1.61 1.6 55.4 00-.28 1.54c1.99 5.68 5.86 9.43 11.12 13.21 38.9 28.01 71.8 52.2 108.21 78.21a.59.58-43.3 00.66.01q5.9-3.87 13.29-2.01c6.36 1.61 11.5 9.79 7.91 15.93a1.55 1.54-56.9 00.42 2.04z"/><path fill="#fff" d="M927.21 385.53c2.61 12.25 4.53 24.4 4.49 36.89a.97.96-88.9 01-1 .97l-35.5-1.41a.71.7 9.1 01-.65-.89q2.43-8.93 2.71-18.38c1.51-39.81-18.74-78.88-49.01-103.95q-3.74-3.1-10.53-7.44-12.25-7.83-26.11-11.62a1.1 1.1 0 01-.8-1.25q2.42-13.79.81-28.52-.12-1.04-1.41-8.43-.82-4.7-1.89-8.35-10.78-36.63-37.62-62.16c-14.86-14.14-32.4-24.23-52.05-28.34a.56.55 17.4 01-.4-.75l14.01-32.97a.74.74 0 011-.38c15.13 7.2 28.36 16.73 41.41 28.3q10.7 9.48 18.44 17.56 27.18 28.37 50.36 61.12 25.84 36.52 45.34 73.44c16.55 31.34 30.08 62.78 38.4 96.56m78.76-259.11a.71.7-26.8 01.86.28l26.53 42.18a.48.46-37.4 01-.09.6l-2.9 2.61a.64.64 0 01-.89-.04q-.61-.63-8.01-8.6-5.28-5.69-15.62-13.15-11.11-8.01-25.27-12.5a.66.66 0 01.05-1.28q2.42-.57 5.12-2.22.16-.1.63-.13a.95.93 31.7 00.27-.06z"/><path fill="#030718" d="M299.8 185.36c-.22-1.59.68-2.77.98-4.41q2.95-16.12-7.6-26.3c-6.14-5.93-15.11-8.71-23.61-8.09q-5.53.4-8.12.08-15.84-1.96-22.01-17.6a1.18 1.17-36.6 01.18-1.18l.05-.07a.48.47-40.3 01.78.06c1.08 1.89 1.81 4.14 3.13 6.18q7.29 11.24 20.93 11.15 10.38-.06 11.43.07 20.26 2.55 26.27 21.74a2.08 1.69 39.1 01.08.38l.79 6.59a3 3 0 010 .68l-1.02 7.96a.12.09-35.8 01-.02.06l-1.54 2.83a.38.37 55.4 01-.7-.13"/><path fill="#ffef21" d="M337.5 190.01q-35.66 49.19-63.48 103.26-.91 1.76-2.58 5.43-3.08 6.78-8.66 11.06c-8.35 6.4-21.14 5.07-22.04-7.51-.24-3.33.62-6.53 2.03-9.79q9.15-21.24 20.26-41.5 31.88-59.21 76.08-109.81 2.81-3.22 8.89-5.25 3.16-1.05 6.85.28c5.69 2.06 8.1 8.58 7.67 14.35q-.55 7.27-5.38 13.36-10.14 12.79-19.64 26.12"/><path fill="#fff" d="M953.98 149.46a.34.33 53.6 01.08-.55l21.84-10.2a3.5 3.5 0 012.62-.15c6.02 2.02 11.41 3.96 16.65 6.83q15.69 8.58 28.27 22.19 3.07 3.32 4.94 5.26a.95.94 47.3 01-.05 1.36l-15.35 13.79a.8.79 49.4 01-1.15-.09c-11.86-14.74-26.88-27.42-44.16-34.28q-6.53-2.6-12.41-3.58-.77-.13-1.28-.58"/><path fill="#fff" d="M929.4 162.64a.31.31 0 01-.11-.58l21.5-11.44a1.26 1.22-51.2 01.87-.11q8.71 2.06 14.13 3.97 10.46 3.7 21.38 11.6 13.6 9.86 24.02 23.34a.16.16 0 01-.03.23l-17.57 14.43a.55.55 0 01-.79-.1c-11.45-15.46-26.48-28.15-43.76-35.93q-9.82-4.43-19.64-5.41"/><path fill="#fff" d="m928.64 163.64.05.14a.2.2 82.9 00.18.15q15.17 2.11 28.7 10.03 14.92 8.75 26.76 21.97 1.62 1.82 7.27 8.76a.73.72 52.2 01-.13 1.04l-17.53 13.23a.8.8 0 01-1.11-.14q-6.18-7.83-10.34-12.29c-14.57-15.62-32.3-27.2-53.31-30.5a.91.89-56.5 00-.65.14l-.97.63a.34.34 0 00.15.63c26.03 2.71 49.18 22.07 64.17 42.6a.44.43-34.4 01-.12.62l-18.11 11.77a1.66 1.65-35 01-2.23-.39c-14.04-18.84-32.24-33.52-54.92-39.67q-5.46-1.48-9.87-1.68a.33.33 0 01-.18-.6q8.5-6.29 17.39-12.22 1.4-.93 2.6-1.32c1.28-.42 1.79-1.63 3.06-2.42q10.82-6.79 15.86-9.76.59-.35 2.69-.94a.53.52-24.2 01.59.22"/><path fill="#ffef21" d="M469.63 268.98q-31.92 42.48-56.55 89.57-2.02 3.87-3.83 7.59a.59.58-62.6 01-.81.26q-71.29-39.2-117.89-64.8c-4.92-2.7-10.7-5.19-15.99-4.15a.47.47 0 01-.51-.67q28.86-56.6 64.69-106.06l16.49-22.02a.55.55 0 01.97.19c1.47 5.64 6.58 9.77 11.11 13.05q58.61 42.58 108.17 78.52a.75.74-52.5 01.14 1.07zm-118.51-68.85c-2.54 3.64-1.72 8.28 1.69 10.63q58.62 40.4 102.13 70.36a.9.9 0 001.21-.21l3.47-4.93 3.44-4.95a.9.9 0 00-.22-1.22q-43.08-30.57-101.15-71.74c-3.38-2.4-8.03-1.58-10.57 2.06m95.71 91.65q-14.33-9.72-100.78-67.37c-4.03-2.68-7.11-4.33-10.44-.37q-4.31 5.12-1.22 10.14a4 4-88.9 001.25 1.3l103.15 68.66a.7.7 0 00.99-.2l7.28-10.95a.87.87 0 00-.23-1.21m-22.18 35.12a.87.87 0 001.19-.31l6.79-11.28a.7.7 0 00-.24-.98l-106.32-63.89a4 4-26.4 00-1.71-.57q-5.86-.65-8.65 5.45c-2.15 4.71.66 6.78 4.81 9.28q89.2 53.5 104.13 62.3m-6.18 11.92q-42.83-24.93-105.22-61.05-3.28-1.9-5.36-2.04c-5.93-.4-9.22 4.82-8 10.4a2.89 2.83 21.1 00.47 1.03q1.45 1.99 2.48 2.56 46.93 26.19 99.72 56 7.8 4.4 9.17 5a.84.83-63.8 001.07-.37l5.88-10.75a.6.6 0 00-.21-.78"/><path fill="#fff" d="M950.92 233.63a.31.3 56 01-.08.44l-18.88 11.88a1.2 1.2 0 01-1.68-.49q-.54-1.16-1.1-1.9-7.83-10.46-17.77-18.95-15.55-13.27-34.93-18.47c-2.7-.73-4.9-.55-6.93-1.36a.6.6 0 01-.16-1.03l13.49-11.08a2.72 2.71 27.5 011.95-.61q6.28.51 7.36.75 11.04 2.48 20.58 7.24c14.91 7.44 27.85 19.8 38.15 33.58"/><path fill="#030718" d="m459.62 275.98-3.47 4.93a.9.9 0 01-1.21.21q-43.51-29.96-102.13-70.36c-3.41-2.35-4.23-6.99-1.69-10.63s7.19-4.46 10.57-2.06q58.07 41.17 101.15 71.74a.9.9 0 01.22 1.22zm-107.15-74.91c-2.1 3.01-1.53 6.56 1.54 8.68q13.23 9.14 100.42 69.23a1.04 1.03-54 001.41-.23q1.27-1.67 2.6-3.58 1.34-1.91 2.47-3.67a1.04 1.03-56 00-.27-1.41q-86.37-61.26-99.49-70.54c-3.05-2.16-6.58-1.48-8.68 1.52"/><path fill="#ffef21" d="M458.44 275.17q-1.33 1.91-2.6 3.58a1.04 1.03-54 01-1.41.23q-87.19-60.09-100.42-69.23c-3.07-2.12-3.64-5.67-1.54-8.68s5.63-3.68 8.68-1.52q13.12 9.28 99.49 70.54a1.04 1.03-56 01.27 1.41q-1.13 1.76-2.47 3.67"/><path fill="#fff" d="M909.48 256.41q-17.89-28.01-50.14-36.19c-1.92-.48-3.67-.23-5.32-.78a.84.84 0 01-.3-1.42l12.67-11.39a2.55 2.53-57 012.45-.53c2.22.69 4.82.74 7.2 1.42q11.28 3.21 18.19 7.05 20.76 11.56 34.84 31.46a.67.66 58.6 01-.23.97l-18.23 9.7a.86.86 0 01-1.13-.29"/><path fill="#fff" d="M908.07 257.27a.34.34 0 01-.17.49l-13.69 5.46a.81.8 56.1 01-.84-.17c-1.44-1.38-2.59-2.99-4.33-4.51q-10.04-8.78-24.12-14.5a3 3-5.4 01-1.3-1.07l-13.04-20.06a1.15 1.14 48.3 01.07-1.34q1.18-1.44 2.42-1.03c2.42.81 5.24.91 7.04 1.38q24.22 6.29 40.63 25.1 4.33 4.97 7.33 10.25"/><path fill="#030718" d="M446.83 291.78a.87.87 0 01.23 1.21l-7.28 10.95a.7.7 0 01-.99.2l-103.15-68.66a4 4-88.9 01-1.25-1.3q-3.09-5.02 1.22-10.14c3.33-3.96 6.41-2.31 10.44.37q86.45 57.65 100.78 67.37m-7.21 9.75 5.29-7.94a1.2 1.2 0 00-.33-1.66l-100.33-66.91a6.35 4.94 33.7 00-8.02.58l-1.14 1.72a6.35 4.94 33.7 002.54 7.63l100.32 66.91a1.2 1.2 0 001.67-.33"/><path fill="#ffef21" d="M439.62 301.53a1.2 1.2 0 01-1.67.33l-100.32-66.91a6.35 4.94 33.7 01-2.54-7.63l1.14-1.72a6.35 4.94 33.7 018.02-.58l100.33 66.91a1.2 1.2 0 01.33 1.66z"/><path fill="#fff" d="M608.67 354.92a.24.24 47.2 01.01-.39l195.35-126.98a.8.8 0 011.18.41q2.34 6.95 3.93 15.78 3.27 18.27.07 35.35a.99.98 79.7 01-.46.67L646.61 381.74a.96.95 46.8 01-1.08-.04zm257.1-108.33a.27.26 84.4 01.32-.39q15.53 6.15 25.79 17.46a.43.43 0 01-.18.7l-11.09 3.87a1.35 1.34-25.7 01-1.58-.55z"/><path fill="#030718" d="M424.65 326.9q-14.93-8.8-104.13-62.3c-4.15-2.5-6.96-4.57-4.81-9.28q2.79-6.1 8.65-5.45a4 4-26.4 011.71.57l106.32 63.89a.7.7 0 01.24.98l-6.79 11.28a.87.87 0 01-1.19.31m.63-2.3 5.25-8.77a.86.86 0 00-.29-1.18L326 252.27a5.9 4.89 30.9 00-7.57 1.17l-1.11 1.85a5.9 4.89 30.9 002.55 7.22l104.24 62.39a.86.86 0 001.17-.3"/><path fill="#ffef21" d="M425.28 324.6a.86.86 0 01-1.17.3l-104.24-62.39a5.9 4.89 30.9 01-2.55-7.22l1.11-1.85a5.9 4.89 30.9 017.57-1.17l104.24 62.38a.86.86 0 01.29 1.18zm60.98-36.89q-29.74 43.37-55.82 89.02a4.12 3.85-22.5 00-.34.75c-2.85 9.01-13.69 8-18.29 1.49q-3.3-4.66-2.29-10.23a3.1 3.02-27.1 01.29-.86q26.15-51.73 61.05-98.05 2.28-2.88 4.61-5.75c1-1.23 1.91-3.2 3.35-3.99q8.32-4.57 15.09.72 6.42 5.02 2.66 12.81c-.32.65-1.3 1.26-1.78 1.9q-4.43 5.99-8.53 12.19"/><path fill="#030718" d="M418.47 338.82a.6.6 0 01.21.78l-5.88 10.75a.84.83-63.8 01-1.07.37q-1.37-.6-9.17-5-52.79-29.81-99.72-56-1.03-.57-2.48-2.56a2.89 2.83 21.1 01-.47-1.03c-1.22-5.58 2.07-10.8 8-10.4q2.08.14 5.36 2.04 62.39 36.12 105.22 61.05m-116.48-58.58c-1.82 3.18-.93 6.67 2.33 8.51q14.04 7.91 106.51 59.89a1.04 1.03-59.3 001.38-.36q1.11-1.78 2.27-3.81 1.16-2.02 2.13-3.88a1.04 1.03-61.3 00-.4-1.38q-91.76-53.23-105.7-61.29c-3.24-1.88-6.7-.87-8.52 2.32"/><path fill="#ffef21" d="m582.7 337.91 75.04 54.49 241.58 175.61a.7.7 0 01.17.97q-16.07 23.82-30.43 48.06l-.52.57a.61.6 35.5 01-.74.12L431.81 379.4a.94.94 29.4 01-.36-1.28q26-45.67 55.3-88.61l9.44-13.52a.8.8 0 011.14-.2zm310.06 234.02a1.31 1.3 33.5 00-.36-1.75Q525.39 313.81 501.54 297.21q-4.12-2.87-7.15.64c-6.82 7.89.03 11.29 5.94 15.3q216.51 146.96 387.95 263.39a1.34 1.33 32.9 001.89-.4zM478.67 321.44c-2.55 3.93-1.76 7.24 2.12 9.73q200.06 128.34 400.28 256.81a.8.8 0 001.06-.16q1.07-1.27 2.1-2.85t1.75-3.08a.8.8 0 00-.28-1.03Q686.96 450.1 488.41 319.43c-3.85-2.53-7.19-1.91-9.74 2.01m-13.66 21.52c-2.45 3.98-1.58 7.27 2.35 9.67q203.1 123.5 406.37 247.13a.8.8 0 001.05-.19q1.05-1.29 2.04-2.9t1.67-3.12a.8.8 0 00-.31-1.02L474.7 340.71c-3.91-2.44-7.23-1.74-9.69 2.25m403.62 267.01 2.7-4.14a1.34 1.33 31.8 00-.45-1.88q-178.59-105.1-404.06-237.87c-6.16-3.63-12.16-8.36-16.37 1.18q-1.88 4.24 2.48 6.73 25.21 14.45 413.97 236.41a1.31 1.3 31.2 001.73-.43M301.99 280.24c1.82-3.19 5.28-4.2 8.52-2.32q13.94 8.06 105.7 61.29a1.04 1.03-61.3 01.4 1.38q-.97 1.86-2.13 3.88-1.16 2.03-2.27 3.81a1.04 1.03-59.3 01-1.38.36q-92.47-51.98-106.51-59.89c-3.26-1.84-4.15-5.33-2.33-8.51"/><path fill="#fff" d="m726.71 385.56-40.16 24.41a1.94 1.93-42.7 01-2.14-.08l-26.36-18.96-9.96-7.25a.74.74 0 01.04-1.22l161.74-101.7a1.66 1.65 38.6 011.44-.16l.21.24a1.76 1.74 77.1 00.77.49q24.39 7.42 42.49 25.23a.76.75 51.5 01-.13 1.18z"/><path fill="#ef4223" d="M224.83 290q-1.6.8-3.39.07z"/><path fill="#030718" d="m892.76 571.93-2.59 4.21a1.34 1.33 32.9 01-1.89.4Q716.84 460.11 500.33 313.15c-5.91-4.01-12.76-7.41-5.94-15.3q3.03-3.51 7.15-.64 23.85 16.6 390.86 272.97a1.31 1.3 33.5 01.36 1.75m-1.98.52a1.43 1.42-57.8 00-.42-1.87Q525.8 315.91 502.7 299.79q-1.95-1.36-3.4-1.93a3.06 3.05 33.7 00-3.27.65c-1.94 1.9-4.58 6.01-1.67 8.44q2.38 2 5.87 4.37 344.34 233.76 383.75 260.49 3.42 2.32 4.15 2.68a1.36 1.35 27.9 001.79-.54z"/><path fill="#ffef21" d="m890.78 572.45-.86 1.5a1.36 1.35 27.9 01-1.79.54q-.73-.36-4.15-2.68-39.41-26.73-383.75-260.49-3.49-2.37-5.87-4.37c-2.91-2.43-.27-6.54 1.67-8.44a3.06 3.05 33.7 013.27-.65q1.45.57 3.4 1.93 23.1 16.12 387.66 270.79a1.43 1.42-57.8 01.42 1.87"/><path fill="#030718" d="M884.23 584.97q-1.03 1.58-2.1 2.85a.8.8 0 01-1.06.16Q680.85 459.51 480.79 331.17c-3.88-2.49-4.67-5.8-2.12-9.73 2.55-3.92 5.89-4.54 9.74-2.01Q686.96 450.1 885.7 580.86a.8.8 0 01.28 1.03q-.72 1.5-1.75 3.08M479.94 322.23c-1.39 2.15-1.82 5.41.6 6.96q380.67 244.44 400.34 256.83a.78.77 33.6 001.05-.21q.56-.79 1.08-1.6.53-.81 1.03-1.64a.78.77 32.5 00-.24-1.05q-19.31-12.94-397.26-261.57c-2.39-1.57-5.21.14-6.6 2.28"/><path fill="#ffef21" d="M883.01 584.21q-.52.81-1.08 1.6a.78.77 33.6 01-1.05.21q-19.67-12.39-400.34-256.83c-2.42-1.55-1.99-4.81-.6-6.96 1.39-2.14 4.21-3.85 6.6-2.28Q864.49 568.58 883.8 581.52a.78.77 32.5 01.24 1.05q-.5.83-1.03 1.64"/><path fill="#030718" d="M465.01 342.96c2.46-3.99 5.78-4.69 9.69-2.25l403.48 251.82a.8.8 0 01.31 1.02q-.68 1.52-1.67 3.12-.99 1.61-2.04 2.9a.8.8 0 01-1.05.19Q670.46 476.13 467.36 352.63c-3.93-2.4-4.8-5.69-2.35-9.67m1.23.72c-1.34 2.18-1.68 5.46.77 6.95q386.45 235.22 406.41 247.13a.78.77 32.2 001.04-.23q.54-.81 1.05-1.63.5-.82.98-1.67a.78.77 31.1 00-.26-1.04q-19.61-12.47-403.44-251.94c-2.43-1.52-5.21.26-6.55 2.43"/><path fill="#ffef21" d="M466.24 343.68c1.34-2.17 4.12-3.95 6.55-2.43q383.83 239.47 403.44 251.94a.78.77 31.1 01.26 1.04q-.48.85-.98 1.67-.51.82-1.05 1.63a.78.77 32.2 01-1.04.23q-19.96-11.91-406.41-247.13c-2.45-1.49-2.11-4.77-.77-6.95"/><path fill="#030718" d="M868.63 609.97a1.31 1.3 31.2 01-1.73.43Q478.14 388.44 452.93 373.99q-4.36-2.49-2.48-6.73c4.21-9.54 10.21-4.81 16.37-1.18q225.47 132.77 404.06 237.87a1.34 1.33 31.8 01.45 1.88zM452.68 365.88c-2.27 3.9-.63 5.97 2.93 8q17.29 9.85 411.02 234.65a.84.83 41.6 00.92-.05q.73-.54 1.22-1.39t.6-1.74a.84.83 18.6 00-.42-.83Q478.22 374.56 461.08 364.45c-3.53-2.08-6.14-2.48-8.4 1.43"/><path fill="#ffef21" d="M868.77 607.09q-.49.85-1.22 1.39a.84.83 41.6 01-.92.05Q472.9 383.73 455.61 373.88c-3.56-2.03-5.2-4.1-2.93-8 2.26-3.91 4.87-3.51 8.4-1.43q17.14 10.11 407.87 240.07a.84.83 18.6 01.42.83q-.11.9-.6 1.74"/><path fill="#030718" d="M726.71 385.56q-.2.91.3 1.44l-39.63 24.04a.64.64 0 00-.05 1.07l212.91 154.7a.53.52-49.5 00.68-.06q5.3-5.48 11.94-2.58a3.39 3.33-11.8 01.92.59q5.62 5.15 2.32 12.69a1 1 0 00.32 1.18l87.91 63.87a.76.75 43.8 00.9-.01q3.32-2.55 7.62-2.68c7.36-.22 13.78 5.96 16.63 12.25a5.34 5.32 27.6 01.4 1.27q.9 4.66.06 10.41a.57.57-7.8 00.79.59q7.28-3.24 15.25-1.52 6.46 1.38 11.26 7.51 4.73 6.04 9.17 14.5 7.9 15.06 14.55 30.72-.78.2-1.08 1.49-6.68-16.19-14.7-31.44-4.07-7.74-9.56-14.71c-6.6-8.4-17.08-8.65-26.27-4.48a1.63 1.53 1.8 00-.66.58l-13.73 21.63-.85-1.62 13.2-20.68a3.15 2.94 74 00.27-.53q3.91-10.6-2.83-18.37c-4.22-4.88-10.43-7.8-16.42-5.13q-2.41 1.07-5.97 6.18-10.57 15.17-19.74 31.38-.3-.95-1.06-1.06 9.96-17.9 21.83-34.41a.54.54 0 00-.12-.76l-87.42-63.52a.94.94 35 00-1.33.23q-15.19 22.56-29.14 45.98-.4-.65-1.45-1.04 15.29-24.09 30.44-48.28 2.61-4.17.67-8.09-2.16-4.38-6.54-4.17-4.97.23-7.07 3.54-15.79 24.9-31.61 49.76-.23-.88-.76-.98 14.36-24.24 30.43-48.06a.7.7 0 00-.17-.97L657.74 392.4q.57-.33.31-1.47l26.36 18.96a1.94 1.93-42.7 002.14.08zm201.89-.06q.93 3.96 1.5 8.02.21 1.45.71 3.31.55 2.03.73 3.29 1.79 12.57 1.77 23.23a1.68 1.67-88.7 01-1.74 1.67l-37.98-1.51a.9.9 0 01-.85-1.08l2.37-11.29a2.06.96 79 00.03-.25l.63-8.46 1.49.28q-.28 9.45-2.71 18.38a.71.7 9.1 00.65.89l35.5 1.41a.97.96-88.9 001-.97c.04-12.49-1.88-24.64-4.49-36.89z"/><path fill="#fff" d="M115.72 714.78q4.03-13.45 10.95-27.07c9.45-18.61 23.23-35.04 40.68-46.37q60.84-39.5 317.56-206.45 12.11-7.87 20.19-13.27a.85.84-47.4 01.88-.04l41.14 22.49a.13.13 0 01.01.23L116.32 715.24a.41.41 82.2 01-.6-.46m.93 2.31a.18.18 0 01-.07-.33L548 445.43a1.5 1.5 0 011.57-.05l40.69 22.25a.58.58 0 01.03 1Q424.81 569.19 215.46 696.6q-16.19 9.85-21.7 12.21a126 126 0 01-36.77 9.53q-19.56 1.9-40.34-1.25"/><path fill="#ffef21" d="M883.93 625.26q-2.02 4.14-5.23 5.62-3.42 1.58-6.42.18c-5.18-2.41-5.6-8.6-2.46-13.04q15.82-24.86 31.61-49.76 2.1-3.31 7.07-3.54 4.38-.21 6.54 4.17 1.94 3.92-.67 8.09-15.15 24.19-30.44 48.28m97.63 53.52q-.13.45-.66.59a.2.2-36.5 01-.15-.02q-47.55-25.96-95.08-51.96-.46-.25-.29-1.09 13.95-23.42 29.14-45.98a.94.94 35 011.33-.23l87.42 63.52a.54.54 0 01.12.76q-11.87 16.51-21.83 34.41m-70.66-87.42a.93.93 0 00.25 1.29l82.33 55.82a.93.93 0 001.29-.25l2.56-3.77a.93.93 0 00-.24-1.28l-81.62-56.87a.93.93 0 00-1.3.24zm-6.34 10.22a.65.65 0 00.19.89l83.62 54.45a.65.65 0 00.9-.19l2.65-4.08a.65.65 0 00-.18-.89l-82.6-56.01a.65.65 0 00-.91.19zm81.84 59.68a1.03 1.03 0 00-.34-1.42l-84.37-51.88a1.03 1.03 0 00-1.42.36l-3.06 5.19a1.03 1.03 0 00.37 1.41l85.31 50.12a1.03 1.03 0 001.4-.35zm-5.18 8.19a.93.93 0 00-.34-1.27l-85.71-50.36a.93.93 0 00-1.28.34l-2.75 4.76a.93.93 0 00.34 1.28l86.09 49.7a.93.93 0 001.27-.34z"/><path fill="#030718" d="m910.9 591.36 3.27-4.82a.93.93 0 011.3-.24l81.62 56.87a.93.93 0 01.24 1.28l-2.56 3.77a.93.93 0 01-1.29.25l-82.33-55.82a.93.93 0 01-.25-1.29m84.7 52.89a.45.45 0 00-.11-.63l-80.14-55.29a.45.45 0 00-.63.12l-1.78 2.58a.45.45 0 00.11.63l80.14 55.29a.45.45 0 00.63-.12z"/><rect width="98.26" height="4.04" x="-49.13" y="-2.02" fill="#ffef21" rx=".45" transform="rotate(34.6 -514.37 1840.72)"/><path fill="#030718" d="m904.56 601.58 3.67-5.64a.65.65 0 01.91-.19l82.6 56.01a.65.65 0 01.18.89l-2.65 4.08a.65.65 0 01-.9.19l-83.62-54.45a.65.65 0 01-.19-.89m4.29-3.69-2.3 3.46a.3.3 0 00.08.39l.13.09a97.58 1.25 33.6 0081.97 52.96l1.23-1.85a97.58 1.25 33.6 00-80.59-55.04l-.13-.09a.3.3 0 00-.39.08"/><path fill="#ffef21" d="M908.85 597.89a.3.3 0 01.39-.08l.13.09a97.58 1.25 33.6 0180.59 55.04l-1.23 1.85a97.58 1.25 33.6 01-81.97-52.96l-.13-.09a.3.3 0 01-.08-.39z"/><path d="m986.4 661.26-2.11 3.43a1.03 1.03 0 01-1.4.35l-85.31-50.12a1.03 1.03 0 01-.37-1.41l3.06-5.19a1.03 1.03 0 011.42-.36l84.37 51.88a1.03 1.03 0 01.34 1.42m-86.37-49.63q-.8 1.33-.92 1.77a.74.74 0 00.34.84l83.08 49.06a.64.64 0 00.78-.1q.42-.42.75-.97.33-.54.5-1.11a.64.64 0 00-.28-.73l-82.22-50.49a.74.74 0 00-.9.09q-.33.31-1.13 1.64"/><path fill="#ffef21" d="M984.06 662.23q-.33.55-.75.97a.64.64 0 01-.78.1l-83.08-49.06a.74.74 0 01-.34-.84q.12-.44.92-1.77t1.13-1.64a.74.74 0 01.9-.09l82.22 50.49a.64.64 0 01.28.73q-.17.57-.5 1.11"/><path d="m981.22 669.45-2.38 4.11a.93.93 0 01-1.27.34l-86.09-49.7a.93.93 0 01-.34-1.28l2.75-4.76a.93.93 0 011.28-.34l85.71 50.36a.93.93 0 01.34 1.27m-2.03.38a1.13 1.13 0 00-.41-1.54l-83.07-48.16a1.13 1.13 0 00-1.55.41l-.93 1.61a1.13 1.13 0 00.41 1.54l83.07 48.16a1.13 1.13 0 001.55-.41z"/><rect width="98.28" height="4.12" x="-49.14" y="-2.06" fill="#ffef21" rx="1.13" transform="rotate(30.1 -733.13 2063.9)"/><path fill="#ffef21" d="M1014.11 686.99q-2.78 5.19-4.63 6.52-10.85 7.81-21.03 1.57-4.46-2.74-6-6.48-1.72-4.17.17-8.76 9.17-16.21 19.74-31.38 3.56-5.11 5.97-6.18c5.99-2.67 12.2.25 16.42 5.13q6.74 7.77 2.83 18.37a3.15 2.94 74 01-.27.53zm65.77 30.04q-23.34 1.45-46.08-.71-.62-.29-1.34-.27l-5.36-1.32q-7.31-1.78-11.03-8.02-3.45-5.76-3.62-13.22a2.75 2.71 60.7 01.41-1.51l2.1-3.37 13.73-21.63a1.63 1.53 1.8 01.66-.58c9.19-4.17 19.67-3.92 26.27 4.48q5.49 6.97 9.56 14.71 8.02 15.25 14.7 31.44"/><path fill="#030718" d="M1033.8 716.32q-1 .1-1.34-.27.72-.02 1.34.27"/></svg>