<svg xmlns="http://www.w3.org/2000/svg" viewBox="0 0 1280 853"><g fill="none" stroke-width="2"><path stroke="#3d797c" d="m639.98 0 .01 246.27" vector-effect="non-scaling-stroke"/><path stroke="#05341a" d="M639.99 246.27q-4.52-.55-6.98-3.55-4.34-5.28-5.96-13.98-1.38-7.36-2.45-14.8c-.38-2.6-1.45-6.7-2.96-8.15-4.92-4.69-12.29 1.94-15.1 6.01q-6.75 9.8-9.47 13.53-1.14 1.57-2.24 2.6a1.26 1.25 47.7 01-1.8-.09c-15.48-17.49-9.86-41.35-3.55-61.34q2.2-6.98 2.48-12.47c.25-5.01-.96-8.58-6.25-9.23-6.7-.82-13.07 2.6-17.28 7.41q-6.86 7.84-11.47 17.75-10.41 22.36-11.24 24.04c-2.14 4.33-6.83 13.54-12.88 9.68-8.77-5.59-13.07-14.13-14.66-24.06q-1.56-9.71-1.15-18.61.43-9.43.28-17-.11-5.22-1.46-9.11c-2.5-7.17-10.76-10.17-16.1-3.62q-5.26 6.46-8.91 15.54-2.62 6.53-10.05 26.76-2.91 7.92-6.53 13.18c-2.21 3.2-4.93 5.85-8.83 4.7-6.86-2.01-9.7-10.5-11.12-16.74q-1.73-7.59-2.42-13.73-1.49-13.15-3.31-23.07c-1.11-6.01-6.43-17.44-14.77-14.41-5.09 1.85-8.01 9.59-9.49 15.31q-4.5 17.43-5.43 21.38c-1.24 5.26-3.14 11.11-6.66 14.53-4.13 4.03-11.34 1.28-14.87-2.11-4.59-4.4-6.84-10.11-9.06-16.4q-1.26-3.55-5.5-16.76-1.57-4.89-4.91-10.21c-6.43-10.24-15.74-5.52-18.29 4.11q-1.39 5.27-1.5 9.64-.62 24.1 10.61 45.29 2.41 4.54 5.41 7.88a.47.47 0 01-.26.78q-1.54.3-2.79-.06-11.18-3.18-13.11-3.53-2.34-.42-4.48-.08a2.64 2.63-88 00-2.15 2.01q-.42 1.8-.37 3.95c.66 26.27 22.87 36.6 44.67 42.34q4.44 1.18 26.99 6.78c4.4 1.09 11.87 3.16 14.64 5.66a.55.55 0 01-.42.96q-10.51-.95-20.06 2.46-6.94 2.48-5.9 9.89a2.88 2.74-63.1 00.26.87q2.93 5.87 6.68 8.74 8.03 6.15 17.75 9.85 9.64 3.66 19.59 5.59 17.29 3.35 36.37.19 12.84-2.13 26.38-4.5c6.47-1.13 12.89-1.49 19.53-2.19q11.26-1.19 22.47 2.1c3.57 1.05 9.34 4.11 10.26 7.97a1.85 1.83-28.5 01-.54 1.79c-3.6 3.29-11.49 4.51-16.44 5.13q-10.47 1.31-18.58 3.02a2.76 2.74 1.3 00-2.1 1.99l-2.11 7.93a1.66 1.65 87.2 01-1 1.11q-15.93 6.19-31.68 13.41l-7.71 3.48q-23.48 10.56-45.29 26.39-14.91 10.83-27.16 24.1-2.03 2.21-7.55 9.22-1.78 2.26-2.11 4.94c-1.43 11.46-2.14 17.3-3.5 26.06q-1.98 12.7-1.18 23.5c.48 6.54 2.33 12.67 8.12 16.19q2.24 1.36 6.69 1.4c6.94.07 12.69-.56 18.09-4.74a56 56 0 007.62-7.06c4.21-5.1 7.32-9.82 13.35-11.01q21.94-4.33 41.98-10.87a.76.76 0 01.89.34c2.95 5.1 7.21 16.75-1.27 18.95q-3.22.83-3.69.83l-23.23-.12q-9.37-.04-14.85 2.19-7.08 2.89-17.01 11.31c-4.83 4.09-7.93 6.45-11.44 9.89q-5.9 5.78-14.03 12.37c-4.76 3.85-12.76 9.28-19.03 7.97q-6.65-1.39-10.1-1.87c-3.55-.49-8.31 1.37-8.15 5.81q.19 5.35 3.14 8.62c8.28 9.21 23.23 10.65 34.71 7.74q19.77-5.01 31.74-21.84a1.19 1.18-54.5 011.65-.28c6.66 4.73 16.31 8.7 23.95 7.99q11.82-1.1 21.75-9.98 1.46-1.31 4.43-4.23a2.72 2.71 23.6 012-.78q15.18.55 29.6-3.55a1.53 1.51-29.8 011.51.4q10.52 11 10.06 26.33-.33 11-1.9 21.34-.21 1.38.03 3.07a.87.87 0 001.07.72q1.11-.28 27.53-6.26c13.21-2.98 31.32-8.6 40.14-19.57 7.3-9.09 9.15-20.06 7.9-31.44a.9.89-3.2 01.89-.99h7.28a1.9 1.9 0 011.75 1.22l13.79 37.38" vector-effect="non-scaling-stroke"/><path stroke="#3d797c" d="M640.18 515.49q-.23 40.75-.21 80.76 0 .98-.39 1.62" vector-effect="non-scaling-stroke"/><path stroke="#849b1a" d="M639.58 597.87q-.54-.02-.88.33-10.11 10.12-22.88 23.32a.4.39 25.4 00.24.66q5.24.68 9.67 3a2.6 2.54 83.1 01.81.65c1.97 2.31 3.97 3.39 3.94 6.78a.5.49 11.4 01-.68.45q-19.96-8.34-33.35 6.83a.59.58-64.6 00.34.97q8.59 1.48 13.87 6.98c6.14 6.4 1.64 15.77-4.95 19.69-11.6 6.9-18.25-6.25-20.3-15.13a.36.36 0 00-.56-.21c-11.35 8.23-12.61 20.69-6.96 32.78a.49.48-12.8 01-.44.69c-7.04.06-9.97-9.26-10.74-14.78a.41.41 64.2 00-.68-.24l-24.05 23.31a.6.6 0 00-.01.85l23.78 23.78a.34.34 0 00.58-.21c.55-6.85 3.34-14.07 10.85-15.82a.56.56 0 01.62.82c-7.18 13.31-2.83 24.09 6.89 34.32a.42.41 22 00.72-.3c-.32-7.45 4.17-15.08 11.75-16.77 6.07-1.36 13.2 3.15 14.95 8.77q2.29 7.36-1.81 12.23-5.13 6.11-13.57 6.99a.48.48 0 00-.31.8c5.44 6.06 11.05 10.04 19.4 10.31 4.47.15 9.58-1.48 13.67-3.34a.53.53 0 01.74.6c-1.51 7.05-8.42 9.66-14.92 10.18a.44.44 0 00-.28.75l24.24 24.18" vector-effect="non-scaling-stroke"/><path stroke="#3d797c" d="m639.27 792.09.05 60.91" vector-effect="non-scaling-stroke"/><path stroke="#b8ad63" d="m639.27 792.09 22.98-23.69a.4.4 0 00-.23-.68c-5.87-.87-13.96-3.99-14.18-10.72a.54.54 0 01.75-.52q19.66 8.36 33.28-6.68a.43.43 0 00-.25-.71c-5.68-.92-12.79-4.21-15.37-9.47q-1.29-2.66-1.23-3.95.61-12.97 13.28-15.68a2.96 2.88 42.4 01.99-.03q4.99.73 8.31 4.78 4.27 5.2 5.51 12.2a.6.6 0 00.98.35q15.52-13.32 6.42-32.61a.64.63 82.7 01.69-.9c7.16 1.3 10.27 8.66 10.61 15.21a.41.41 0 00.7.27l23.54-23.55a.5.5 0 000-.74l-22.91-22.92a.41.41-65.6 00-.69.26q-.69 11.13-10.9 14.96a.76.76 0 01-1-.53q-.06-.25.1-.57 1.95-3.93 2.81-7.69c2.4-10.44-2.37-17.8-8.88-25.33a.52.52 0 00-.91.27q-.79 5.7-3.49 9.92c-3.56 5.59-9.45 7.88-15.54 5.22-6.24-2.73-11.37-9-9.12-16 2.06-6.42 9.28-10.04 15.69-11.71a.53.53 0 00.26-.87c-5.94-6.52-12.76-10.59-21.97-9.59q-5 .55-9.64 2.83a1.17 1.17 0 01-1.6-1.48l1.2-3.04a5.4 5.37-4.2 012.29-2.64q5.06-2.92 11.46-3.41a.29.29 0 00.18-.49l-23.81-24.29" vector-effect="non-scaling-stroke"/><path stroke="#384563" d="M640.18 515.49q2.59 6.63 5.06 12.24c2.58 5.86 6.96 12.67 13.9 5.81q3.76-3.71 6.37-10.04 4.18-10.13 4.56-12.67a.4.4 0 01.61-.29q2.46 1.47 3.18 2.1 8.44 7.32 16.5 13.97 7.31 6.03 15.21 8.17a.55.55 0 00.69-.61l-4.83-31.83a.33.33 0 01.55-.3l31.72 28.55a.46.45-67.4 00.76-.32l2.06-35.75a.34.33-65.6 01.57-.22l29.01 29.01a.5.5 0 00.85-.27l5.99-38.69a.44.43 23.6 01.7-.27l34.67 27.72a.41.41 0 00.67-.36l-3.77-40.19a.43.43 0 01.66-.4c23.84 14.88 51.46 13.22 77.75 5.3a.4.4 0 00.09-.72c-14.01-8.29-26.56-18.63-38.6-30.25a.6.6 0 01-.01-.84q9.76-9.85 13.84-22.67a.8.8 0 00-.45-.97l-17.94-7.12a.56.53 11.4 01-.35-.5v-16.07a.84.84 0 00-.76-.84l-19.52-1.72a.6.6 0 01-.54-.59v-18.72a.77.77 0 00-.73-.77l-22.26-1.29a.75.75 0 01-.71-.75v-16.22a1 1 0 00-.98-.98h-19.74a.6.6 0 01-.62-.62v-12.09a.9.9 0 00-.51-.82q-1.44-.7-3.73-.93a.1.1-90 01-.08-.09v-.3a.2.2 0 01.2-.22c19.43-2.1 37.28-11.73 52.22-25.13 4.9-4.39 10.11-10.34 11.62-17.3a1.94 1.93-67.2 00-.83-2.04c-3.31-2.17-11.29-1.81-16.48-1.66-10.88.32-22.57-6.56-31.09-9.61q-4.83-1.73-9.98-1.14-11.03 1.26-23.2 4.57c-19.37 5.27-32.66 9.55-49.23 11.75-5.2.7-13.17 1.17-17.58-2.11q-3.79-2.81-1.72-7.18 2.82-5.98 9.63-8.47 11.78-4.32 25.41-4.56 15.02-.26 19.04-.05 15.86.82 39.25 3 17.99 1.68 40.75-.43c14.13-1.31 49.79-5.94 52.62-24.18a3.08 3.07 18.5 00-1.59-3.19c-6.86-3.66-16.4-.93-24.12-4.76a1.43 1.43 0 01-.58-2.04c2.64-4.22 11.06-6.88 16.32-8.36q29.28-8.24 30.98-8.78c19.84-6.29 46.07-18.26 36.7-44.56a2.14 2.13-15.1 00-2.41-1.38q-1.62.31-3.18 1.59c-4.08 3.37-9.22 8.06-12.32 7.34a2.39 2.36-80.3 01-1.8-2.58c.94-8.48 4.7-14.51 9.93-24.7q3.02-5.88 5.09-12.21 6.17-18.9-5.99-34.25a1.23 1.22 61.5 00-1.33-.4c-3.99 1.29-6.83 5.6-8.76 9.34-8.49 16.53-18.9 40.01-40.25 42.25a3.4 3.4 73.3 01-3.35-1.81q-2.29-4.44-2.64-10.4-.18-3.24-1.45-18.84c-.51-6.19-1.88-13.11-6.02-17.41-2.85-2.95-8.7-4.48-11.86-1.06-4.31 4.64-6.62 12.69-8.38 19.07q-4.42 16.05-7.36 24.9c-2.52 7.54-8.58 23.56-19.55 18.15-3.95-1.96-6.42-7.87-7.8-12.12q-2.88-8.89-5.66-21.98c-1.67-7.82-6.14-28.07-14.57-30.1-9.83-2.37-12.66 7.63-13.43 15.02-1.33 12.91-1.22 25.65-2.28 37.24-.72 8.02-2.47 18.97-9.33 24.02-4.97 3.65-9.12 1.08-12.34-2.95q-2.98-3.72-5.33-8.29-6.41-12.46-11.09-20.9c-4.96-8.92-13.98-21.96-25.57-22.63-3.62-.21-10.36-.03-11.57 3.8-1.21 3.87-.53 9.29.08 12.35q2.88 14.47 5.17 26.85c2.49 13.45 2.78 29.87-5.2 41.29-2.09 2.99-4.55 2.48-7 .21q-2.46-2.27-2.84-2.86-9.53-14.83-9.95-15.37-2.06-2.68-3.62-3.45a3.9 3.27-51 00-3.99.78c-4.02 3.65-5.89 10.99-7.08 16.48q-2.17 10.1-4.8 19.69-1.16 4.22-3.29 6.98-2.25 2.9-5.25.78" vector-effect="non-scaling-stroke"/><path stroke="#7e7505" d="M448.25 481.51q10.87-.77 21.06-6.79a.59.59 0 01.85.72l-2.64 6.65a.6.6 0 00.28.75q8.17 4.2 14.13-.32c4.46-3.37 7.01-10.58 12.39-12.47q3.09-1.08 7.18-1.31c14.18-.78 28.7-.91 41.44-7.02q4-1.92 4.94-3.83 1.97-3.98-.21-7.08-1.56-2.24-1.89-3.38c-2.62-9.19-3.3-18.54-4.71-31.69q-1.94-18.16-12.77-31.93a.66.65 45.4 010-.81l.25-.31a.83.83 0 011.31.01q10.09 13.08 12.44 28.78 1.18 7.89 2.52 20.76c.42 4.05 1.64 13.92 3.91 16.33q6.3 6.68 13.1 8.03 9.31 1.83 20.99 2.05 16.46.3 33.87-1.29 12.79-1.17 18.21-2.59 16.89-4.41 25.47-20.35 6.26-11.63 6.96-26.67l1.54-32.99c.34-7.39 3.39-37.16 14.38-37.04q31.7.37 68.41-.43a.8.8 0 01.81.8q0 .15-.36.53c-3.17 3.37-8.08 5.51-13.09 7.6a.72.72 0 00-.2 1.21q16.18 14.11 31.38 30.45c8.06 8.67 16.97 17.11 26.82 25.95q31.29 28.08 44.11 39.39a.9.9 50.4 001.09.11c6.52-3.77 11.23-13.77 13.97-20.51a.5.5 0 00-.28-.66l-17.44-6.92a.65.64-79.3 01-.4-.6v-16.11a.5.5 0 00-.47-.51l-20.29-1.79a.62.61-86.2 01-.56-.65l1.05-18.2a1.03 1.03 0 00-.97-1.09L794.56 375a.9.9 0 01-.86-.91v-16.3a.71.7 0 00-.71-.7h-20.62a.32.31-90 01-.31-.32v-13.03a.7.7 0 00-.55-.68q-7.16-1.66-14.89-3.93-.74-.21-.88-.49a.37.37 0 01.34-.54c16.25.26 34.92-1.63 48.32-11.44q13.43-9.82 23.16-20.83 3.26-3.69 4.56-7.56a1.5 1.5 0 00-.76-1.85q-2.18-1.12-5.13-.95-6.9.4-11.96.42-5.51.03-13.31-3.1c-5.7-2.28-11.75-6-18-7.29q-7.11-1.48-14.46-.19-11.25 1.99-18.47 4.25c-20.46 6.41-40.44 14.26-61.27 11.2q-7.42-1.09-7.65-7.32c-.45-12.66 20.62-17.21 29.66-18.22q14.49-1.6 26.99-.2 22.33 2.5 31 3.32 43.35 4.07 85.99-9.1c6.89-2.14 12.12-5.77 13.54-12.97a2.61 2.53-69.6 00-1.21-2.75q-1.66-.96-4.08-1.06c-6.29-.24-15.53.92-20.51-4.02-1.96-1.94-.25-4.35 1.37-5.86q5.88-5.46 15.43-8.06 9.27-2.53 24.24-5.25c15.22-2.76 31.36-10.14 40.06-23.2 3.59-5.39 6.5-14.23 4.05-20.61a1.21 1.2 71.2 00-1.47-.73q-1.65.5-3.28 1.91-4.9 4.28-7.51 5.89c-6.81 4.2-10.52-2.98-8.77-8.72 1.46-4.78 5.32-9.73 9.22-15.97q6.32-10.11 7.02-20.73c.51-7.87-.24-21.9-5.69-27.78a1.9 1.9 0 00-2.27-.41c-5.13 2.57-9.03 16.74-11.84 21.71q-4.86 8.61-11.87 15.56c-5.08 5.04-21.96 20.87-28.82 13.29-2.95-3.26-2.57-13.05-2.71-19-.16-7.05-2.56-36.11-14.58-31.4-4.65 1.82-8 13.47-9.3 18.19q-3.74 13.61-5.91 21.1c-2.25 7.79-9.06 27.3-20.17 26.05-8.77-1-13.21-13.78-14.99-20.39q-4.53-16.87-7.53-28.45c-.99-3.84-3.91-13.43-6.98-15.55-7-4.82-12.25 5.33-13.36 10.8-2.84 14.04.28 29.06-2.29 43.92-1.36 7.83-5.64 17.36-12.69 21.59-8.9 5.33-15.54-7.4-18.6-13.58q-6.65-13.44-10.22-20.29c-6.26-12-16.13-27.18-32.31-21.09a2.14 2.09-80.9 00-.93.69c-1.96 2.59-1.29 5.81-.85 9.12q.46 3.38.65 4.14 2.11 8.43 4.74 21.04 4.49 21.55-1.93 41.75-1.32 4.17-3.64 7.07c-5.04 6.3-10.84-1.09-13.42-5.53q-3.06-5.26-6.03-10.46-1.85-3.23-4.14-5.23a2.6 2.2 47.5 00-2.91-.37c-5.88 3.95-7.86 17.63-9.31 25.38-1.03 5.49-3.06 14.04-6.64 17.6q-1.72 1.7-2.61 3.31-1.66 3.03-2.24 3.54c-7.47 6.64-17.39 6.05-27.25 4.37q-7.88-1.35-17.25-3.19-6.14-1.2-10.82-1.14c-9.2.12-8.56 16.44-7.2 22.12q2.46 10.3 2.71 11.65 1.78 9.52-7.01 11.85-5.62 1.5-10.03 3.48c-3.36 1.51-8.38 2.72-11.35 2.7q-9.5-.06-18.15 2.44a1.7 1.7 0 00-1.2 1.25q-.44 1.78-1.34 6.38c-.35 1.77-1.24 3.05-2.84 3.66q-17.44 6.64-42.74 17.7c-14.08 6.15-25.68 12.9-35.8 21.25q-13.03 10.75-20.37 15.82-7.8 5.4-10.84 8.87-4.8 5.5-8.21 11.39c-3.77 6.51-3.55 12.47-4.05 20.41q-.21 3.37-1.52 8.41c-2.52 9.79-2.88 20.55-.55 29.71 1.07 4.2 3.13 9.49 7.47 10.31q15.95 3.02 27.5-8.03a2.1 2.07 71.1 00.64-1.33l.1-1.19a3.04 2.99 60.4 01.24-.9q5.05-11.01 9.51-19.04 4.54-8.18 11.25-13.65c3.01-2.46 5.55-3.16 9.44-3.89 10.16-1.9 21.09.73 26.9 9.5q3.81 5.75 5.61 13.97c1.17 5.31 1.82 10.47-2.42 13.75q-5.18 4.02-12.13 8.66-7.04 4.71-10.64 5.91c-10.44 3.49-22.23 6.04-31.25 13.98a.52.52 0 00.38.9" vector-effect="non-scaling-stroke"/><path stroke="#7e7505" d="M640.97 249.06c-17.45-5.74-17.58-21.54-18.97-36.79q-.33-3.76-1.61-5.12-1.59-1.7-3.23-1.16-7.53 2.46-11.41 10.07c-2.4 4.72-5.76 11.61-10.1 14.13a3.43 3.15 48.6 01-3.73-.4c-3.86-3.17-6.33-9.02-8.54-14.22q-5.77-13.53-2.32-27.83c2.57-10.67 7.53-20.55 8.69-30.99q.41-3.69-.32-6.42c-1.44-5.37-7.13-5.35-11.26-3.1q-3.74 2.04-6.6 5.33-9.79 11.26-15.77 24.48-5.93 13.13-7.77 16.99c-2.73 5.71-7.81 14.25-14.82 12.29q-3.81-1.06-8.28-6.96-9.59-12.66-10.51-27.12c-.44-7.06.76-16.44 1.14-22.73q.43-7.06-.29-10.03c-1.73-7.15-7.23-14.6-14.81-6.86q-3.32 3.39-5.77 8.34c-4.58 9.23-6.59 16.25-10.58 28.41-2.47 7.56-12.91 34.4-24.51 20.01-5.94-7.38-9.17-19.51-10.42-28.65-1.47-10.73 1.44-26.57-8.16-34.23-5.53-4.41-10.8.81-12.91 5.64q-2.17 5-3.51 11.2-2.78 12.83-4.59 18.91c-3.46 11.62-10.36 23.22-23.36 10.87-6.7-6.36-10.68-12.82-12.82-21.66-1.89-7.82-3.14-16.19-8.39-22.04q-2.33-2.6-4.2-3.35c-12.12-4.84-10.7 23.24-10.23 28.43 1.49 16.53 4.61 29.39 15.57 41.38q1.05 1.14.28 2.42c-2.17 3.59-12.26-.64-16.35-2.05q-3.2-1.11-6.14-1.17a1.73 1.73 0 00-1.75 1.51q-.33 2.57.45 5.62 6.21 24.35 30.41 33.57 5.99 2.29 14.6 4.62l34.07 9.22c3.29.89 8.25 2.34 8.63 5.32a1.77 1.76-12.9 01-1.19 1.89q-1.34.44-2.73.47-14.52.25-14.82.28-4.85.53-7.17 2.04c-4.41 2.85-2.69 9.25-.05 12.64 4.25 5.46 10.6 8.95 17.24 11.68q9.61 3.96 21.69 6.32 8.1 1.59 14.71 1.49c19.63-.27 47.19-6.17 71.04-7.04q8.24-.3 17.49 1.09c6.94 1.04 13.01 3.71 15.11 10.97a1.5 1.49-18.3 001.95.98q7.74-2.8 5.67-11.28c-2.53-10.41-4.76-16.23-2.71-25.29 1.03-4.56 3.01-8.92 8-9.4q3.92-.37 10.77.64.87.13 19.94 3.64c7.31 1.34 22.09 2.23 25.74-5.88a.82.82 0 00-.49-1.12M863.9 464.47q-3.17-3.06-7.85-6.12c-10.45-6.83-25.4-3.52-36.47-.08a.77.76-14.8 01-.97-.56l-.02-.07a.94.92-15.8 01.62-1.09c9.46-3.19 19.44-5.09 29.26-3a.29.29 0 00.26-.5c-4.41-3.97-8.12-5.89-14.17-6.33q-9.75-.71-20.03 2.92a.9.89 73.3 01-1.16-.63l-.01-.04a1.09 1.08-16.2 01.71-1.28q9.89-3.44 19.44-2.69 2.6.2 4.35.29a.28.28 0 00.21-.48c-9.71-10.01-23.56-7.56-35.63-2.1a.98.97 53.4 01-1.06-.16l-.25-.23a.63.63 0 01.13-1.03q12.29-6.37 25.94-4.57a.51.51 0 00.41-.89c-2.4-2.08-6.24-5.71-9.51-6.46-7.71-1.75-16.96 1.39-23.95 5.08a.72.71 53.9 01-.86-.14l-.27-.27a.83.82 54 01.2-1.3q11.02-5.86 21.8-5.62a.69.69 0 00.45-1.23l-5-3.99a5.25 5.22 61.8 00-3.73-1.14c-6.85.59-11.84 3.48-18.73 6.92a.96.95 54.4 01-1.11-.19l-.23-.24a.7.7 0 01.2-1.11c6.15-2.89 11.65-6.16 18.14-6.87a.88.88 0 00.37-1.62l-2.95-1.83a6.23 6.21 56.8 00-4.13-.87c-7.06 1-11.14 3.92-16.42 6.74a.52.51-36 01-.62-.09l-.21-.22a.86.86 0 01.16-1.33c4.89-3.13 12.14-7.1 17.13-6.94a.35.35 0 00.24-.61l-5.35-4.82a1.72 1.7 63.9 00-1.23-.43c-5.94.3-9.75 2.61-17.58 6.23a.45.44-33.6 01-.52-.1l-.29-.29a.79.78-36.5 01.19-1.23q8.23-4.57 16.27-6.45a.34.33 61.3 00.16-.56l-4.9-5.06a1.3 1.3 0 00-.85-.4q-3.09-.22-4.22-.01-8.95 1.65-21.69 7.13a.75.74-32.8 01-.83-.17l-.25-.25a.7.69-34.9 01.2-1.11q11.9-5.7 24.04-7.58a.64.63-26.5 00.36-1.07l-5.62-5.8a2.3 2.3 0 00-2.08-.67c-5.69 1.01-9.34 3.1-16.6 6.41a.53.53 0 01-.74-.62l.05-.18a2.47 2.45-6.5 011.22-1.52q7.05-3.69 15.21-5.9a.33.33 0 00.15-.55l-4.76-4.91a.49.48-43.7 00-.68-.01l-.47.46a1 1 0 01-.79.3q-8.71-.21-18.12 3.94a.62.61-34 01-.7-.13l-.3-.32a.8.8 0 01.26-1.28q9.58-3.98 18.12-4.1a.76.76 0 00.54-1.29l-5.14-5.3a3.1 3.1-27.6 00-2.85-.89q-7.4 1.49-11.99 3.82-.31.15-10.53 4.72a.6.6 0 01-.72-.14l-.25-.26a.77.76 53.7 01.18-1.21q11.54-6.29 21.6-8.08a1.49 1.49 0 00.56-2.71l-1.97-1.31a8.07 8.04 55.6 00-6.21-1.17q-12.94 2.83-22.53 7.88a.57.55 53.6 01-.67-.11l-.25-.26a.88.87 54.6 01.23-1.39q13.88-7 24.64-7.59a1.1 1.09-29.5 00.56-2l-5.49-3.7a8.62 8.6 58.6 00-5.77-1.4q-10.6 1.23-16.6 9.87a.59.58-49.3 01-.9.07l-.24-.24a1.06 1.05-48.9 01-.09-1.36q6.03-8.25 15.85-9.85a.41.41-29.4 00.2-.71q-.32-.27-.64-.38-12.9-4.41-28.26-5.77c-10.08-.89-21.16.82-24.51 11.97q-2.04 6.78-2.81 13.28a.4.4 0 00.48.43q.55-.13.8-.4c6.82-7.22 17.1-11.99 26.34-15.12a.6.6 0 01.64.16l.27.28a.75.75 0 01-.26 1.22c-10.45 4.11-20.96 8.77-28.48 17.59a1.92 1.9 69.7 00-.44.97l-1.14 8.69a.31.3 69 00.53.24q5.1-6.04 12.59-9.49a.97.96 55.4 011.1.21l.23.23a.7.7 0 01-.2 1.1c-7.9 3.71-14.75 9-15.74 18.16a.34.34 0 00.55.31c5.2-4.11 8.63-7.44 13.42-9.07a.73.72 58 01.74.18l.27.28a.82.82 55.6 01-.24 1.31q-8.16 3.79-14.18 10.04a5.5 5.5-17.6 00-1.45 2.79l-3.79 19.6a.35.35 0 00.5.37c9.34-4.75 16.56-15.57 19.77-25.16a.75.74-70 01.98-.46l.31.13a.98.97-69.7 01.56 1.23q-6.56 18.35-22.08 26.64a2.45 2.42 87 00-1.12 1.26l-3.57 8.99a.6.6 0 00.72.8q2.76-.8 10.2-5.7 13.81-9.1 20.21-22.78a.9.9 0 011.27-.4l.04.03a1.03 1.03 0 01.4 1.33c-6.6 13.72-19.06 23.94-32.93 29.8a4.26 4.24-88.4 00-2.17 2.06c-10.28 21.24-31.15 29.24-53.75 24.62q-3.16-.65-5.65.72c-2.55 1.4-3.82 8.11-4.1 10.45-1.45 12.46-2.17 33.06-18.32 31.56q-.34-.03-.42-.24a.79.77 72.7 01.52-1.03c2.82-.75 5.68-1.58 6.58-4.23q1.08-3.18 1.61-9.15c.52-5.84 3.09-30.34-7.39-29.77a.84.83-82.3 00-.75.58q-.88 2.71-.84 4.7.28 15.07-.13 24.75c-.37 8.96-.44 19.59-11.93 19.59a.48.48 0 01-.23-.91q7.39-3.9 8.36-12.43 1.07-9.41-.15-18.77c-.76-5.84-1.58-11.17-4.38-15.17-1.61-2.31-4.1-4.07-6.73-2.81-2.2 1.05-1.58 6.43-1.41 8 1.53 13.79 4.02 27.95-1.3 40.87-1.06 2.56-3.76 6.88-6.61 6.71a.57.57 0 01-.31-1.02q2.24-1.71 3.33-5.44c4.37-15 2.17-31.81-5.44-46.2q-1.01-1.92-2.79-2.99a1.24 1.24 0 00-1.78.56q-1.09 2.51-1.09 5.77c.01 9.95 1.86 19.49 3.62 28.93.85 4.51 4.15 25.63-5.84 23.25a.55.55 0 01-.17-.99q3.19-2.12 3.43-5.96.31-5.18-.21-9.26-2.46-19.52-11.56-37.63a.4.4 0 00-.5-.2q-11.68 4.33-24.73 5.41-12.11 1-19.92 1.38a3.3 3.3 0 00-2.61 1.48c-4.43 6.62-13.22 14.98-22.26 14.2q-1.9-.16-6.16-2.16-8.71-4.08-16.43-7.97a2.48 2.48 0 00-3.6 2.33l.02.37a7.93 7.91-74.9 003.59 6.27c15.62 10.17 32.63 10.77 46.61-3.26q1.1-1.1 2.86-3.11a2.55 2.51 20.7 011.92-.85c9.58.08 20.63-.3 29.63-3.74a1.85 1.84-33 011.95.41q13.53 13.44 11.73 32.84-1 10.74-1.83 18.32a.5.5 0 00.6.56q5.91-1.05 12.09-2.71c15.03-4.06 27.66-7.42 41.96-13.24q7.42-3.02 11.33-8.42c6.38-8.82 6.17-21.14 6.55-33.49a.36.36 0 01.4-.35l10.98.97a1.8 1.8 0 011.55 1.21c2.31 6.67 4.46 12.94 7.58 19.86q5.91 13.07 8.9 19.99c1.92 4.45 3.84 10.19 4.91 13.21q.83 2.38 2.22 3.54a3.83 2.94-34.1 003.69.22c5.76-2.64 9.73-11.61 11.44-17.47q1.44-4.95 2.93-8.73a.96.96 0 011.38-.47q3.76 2.22 7.86 6.15 9.21 8.8 16.82 14.64 3.28 2.52 8.33 4.15a.43.43 0 00.56-.39q.04-1.31-.28-3.06-1.43-7.6-4.55-25.74-.44-2.55-.55-6.09a.4.4 0 01.67-.31l33.36 30.04a.46.46 0 00.77-.33l1.42-36.18a.65.64 24.1 011.11-.42l28.95 29.88a.63.63 0 001.08-.36l5.06-38.47a.71.71 0 011.14-.46l34.14 27.3a.19.19 0 00.3-.17l-3.83-40.84a.5.49-67.9 01.87-.37q.53.63.11.16a.07.07 0 01.09-.1q5.08 4.41 9.11 6.44c19.69 9.87 44.25 9.25 64.99 3.16a.55.55 0 00.19-.96l-8.69-6.96a5 5 64.5 00-2.98-1.06l-33.77-.47a1.6 1.6 0 01-1.45-1.03l-.01-.29a.33.33 0 01.33-.35h32.37a.17.17 0 00.12-.29m-419.03-14.61q.71-.28 1.04-.71c6.78-8.81 15.16-9.63 26.33-11.64q4.08-.73 22.65-6.36 1.26-.38 3.77-1.56a.7.7 0 00.38-.84q-.36-1.35-1.76-3.24c-6.79-9.22-17.68-11.14-28.62-8.07-4.18 1.17-7.9 4.95-10.49 8.23q-8.63 10.89-13.66 23.83a.28.28 0 00.36.36" vector-effect="non-scaling-stroke"/><path stroke="#7e7505" d="M494.38 454.72q-6.25-.28-11.21-.95-7.46-1.02-11.24-.89-13.41.44-24.81 8.28-8.46 5.82-14.93 12.04-12.63 12.15-17.32 15.91c-7.82 6.28-15.36 10.33-25.56 7.79q-3.4-.84-5.54-1.2c-4.58-.78-5.71 3.28-4.15 6.75q1.68 3.74 4.38 5.8c12.98 9.88 28.72 9.48 42.14.65q11-7.25 19.02-16.14a1.51 1.5-42.4 00.09-1.91c-8.7-11.72 15.58-20.63 23.22-22.75q6.93-1.92 9.09-2.82 9.37-3.94 16.94-10.21a.2.2 0 00-.12-.35" vector-effect="non-scaling-stroke"/><path stroke="#83a91f" d="M650.64 269.03q-6.12 6.1-9.41 14.37" vector-effect="non-scaling-stroke"/><path stroke="#7e7505" d="m641.23 283.4-5.37 7.64a.43.43 0 01-.77-.17q-.83-4.46 1.23-8.09a2.42 2.36 89.3 01.77-.81q1.93-1.23 3.07-2.74a.42.42 0 00-.38-.67q-7.42.82-11.22 6.94-1.82 2.94-3.3 5.88a1.3 1.3 0 01-1.31.72c-9.3-.83-17.78-1.27-26.77.78q-3.79.86-7.08 2.95a.57.57 0 00.33 1.05c8.99-.27 17.79.02 26.88 2.51q4.22 1.16 6.61 4.69a1.54 1.51 66.7 001.57.64q7.53-1.58 15.52-3.03c11.84-2.15 23.37-2.61 34.25-3.33a.84.83-9.2 00.76-1.04 15.4 15.4 0 011.96-12.51q2.57-4.14 7.76-7.31c10.47-6.38 24.38-9.31 36.22-10.22q9.1-.7 27.55 1.52 8.58 1.03 26.46 2.86c8.88.91 17.07 1.38 25.28 1.16q23.52-.63 45.52-10.3 6.41-2.81 9.96-6.3.52-.51.56-1.05a.4.4 0 00-.55-.42c-13.71 4.9-24.14 8.66-38.35 10.65q-23.44 3.28-41.77 1.04-4.4-.54-18.58-3.12-25.45-4.63-50.53-1.86-9.03 1-15.86 2.93-5.26 1.49-9.56 4.21a.2.2 0 01-.19-.02l-.2-.21a.36.35-41.1 01.04-.54c11.22-8.57 22.63-10.66 36.76-10.62q15.28.04 29.29.72l.02-.01.2-.49a.2.2 0 00-.14-.26q-19.38-3.41-36.07-3.04-17.23.39-33.57 10.55c-1.02.64-1.92.68-2.56 1.43q-.82.95-1.65 1.47-8.86 5.55-15.25 14a.32.32 0 01-.57-.15q-.05-.4.11-.89 1.82-5.35 5.75-9.72 6.77-7.52 16.77-11.5 2.72-1.08 13.68-4.12a.4.4 0 00.28-.47v-.02a.4.4-12.4 00-.48-.3q-14.31 3.07-21.26 5.27-3.7 1.18-10.89 5.97a4.74 4.62-85 00-.87.75q-7.09 7.98-10.77 18.55-.3.87-1.08 1.71a.48.47-27.9 01-.82-.25q-.95-6.65 2.91-11.87 3.39-4.58 7.97-9.39a.75.75 0 00-.6-1.27q-1.43.1-2.88.9-1.47.81-5.38 4.25" vector-effect="non-scaling-stroke"/><path stroke="#05341a" d="m641.23 283.4 5.72-9.43a1.23 1.1 86.8 01.16-.2q2.16-2 3.53-4.74" vector-effect="non-scaling-stroke"/><path stroke="#83a91f" d="m722.54 317.03.42.28" vector-effect="non-scaling-stroke"/><path stroke="#fedd05" d="M722.96 317.31q.68.5 1.35.29" vector-effect="non-scaling-stroke"/><path stroke="#7e7505" d="m724.31 317.6 9.15 3.79a2.93 2.75 54.6 001.09.22q1.98.01 4.06.94a1.73 1.7-29.5 00.48.13q11.48 1.39 23.97-1.04a.31.31 0 00.13-.56q-.38-.28-1.19-.33c-8.57-.49-17.11.13-24.55-5.88a.57.57 0 01.54-.98c7.9 2.71 15.03 4.96 23 4.34q8.95-.69 16.86-3.2a.64.64 0 00.43-.75v-.03a.63.63 0 00-.71-.48q-9.74 1.51-19.04.3-5.28-.69-8.35-4.47a1.1 1.04 25 01-.21-.53q-.04-.35.02-.49a.7.7 0 01.87-.38c4.83 1.78 10.21 3.76 15.08 3.98q10.9.51 22.04-2.69a.45.45 0 00.03-.86l-.62-.22a.19.15 52 00-.08-.02c-9.91-.03-17.81.51-24.94-4.65a.6.6 0 01-.01-.98l.26-.07a.7.65-47 01.28-.02c12.06 1.75 22.28 3.87 33.54 1.44a1.21 1.2-87.9 00.91-.85l.01-.03a.53.53 0 00-.55-.67c-5.21.35-11.68.12-16.05-2.67a.5.49 68.1 01.38-.9q1.59.39 8.63 1.47 15.34 2.35 30.65-2.14a.34.34 0 00.23-.43l-.03-.12a.36.36 0 00-.4-.25q-12.75 2.28-25.27-2.48-5.89-2.23-13.09-4.7c-8.59-2.95-15.05-1.42-24.23 2.36q-15.19 6.24-33.26 11.35-8.42 2.38-13.86 2.53c-8.83.24-19.08-.8-20.82 10.56-2.49 16.3 24.37 14.95 33.33 13.55a.49.49 0 00.1-.94c-4.19-1.61-12.67-4.39-13.26-9.36a.43.43 0 01.69-.39c3.85 2.97 6.6 4.98 11.25 6.66q2.39.86 7.13 1.03c6.78.23 12.22.77 16.96-.43a.42.42 0 00-.08-.83q-9.53-.52-18.86-3.87-2.73-.98-5.39-3.77a1.58 1.47 45.6 01-.06-2.14q.16-.16 1.04.38" vector-effect="non-scaling-stroke"/><path stroke="#806800" d="M724.31 317.6q-.22-.11-.4-.32" vector-effect="non-scaling-stroke"/><path stroke="#05341a" d="M723.91 317.28q-.72-.53-1.37-.25" vector-effect="non-scaling-stroke"/><path stroke="#849b1a" d="m723.91 317.28-.95.03" vector-effect="non-scaling-stroke"/><path stroke="#7e7505" d="m568.88 352.31 2.69-2.25a2.09 1.9-5.4 00.3-.33c5.62-8.25-.43-13.96-7-18.08-3.38-2.12-8.18-2.6-10.38 1.43a.72.71 34.1 00.18.9l5.32 4.25a.19.19 0 01-.12.33c-5.11.06-9.59.1-7.24 7.07q.09.26 2.23 5.01a.38.38 0 01-.51.5c-4.39-2.06-7.66-7.93-9.33-12.3a.39.39 0 00-.75.09q-1.23 9.61 6.02 14.97a.8.8 0 01-.06 1.34c-15.26 9.25-30.95 18.36-47.1 25.14q-4.43 1.86-9.27 2.55a.83.83 0 00-.72.82v.29a.81.8 86.5 00.9.8q3.59-.46 7.23-1.82 8.43-3.15 18.26-8.25 17.55-9.1 31.73-18.03.24-.15.99-.84a.7.7 37.5 01.8-.1q3.15 1.74 6.57 2.31 20.06 3.33 32.73-11.55a1.01 1 57.3 00.2-.93c-3.2-10.53-10.01-17.78-20.48-20.75-10.37-2.94-21.61-3.53-29.96 4.64a.5.5 0 00.49.83q2.31-.66 7.57-2.12c12.63-3.49 24.99 3.8 33.55 12.95q2.25 2.4 2.39 3.75c.57 5.51-13.31 7.92-17.03 7.94a.32.31-65.1 01-.2-.56m-46.15-14.32c-14.91 5.98-27.36 11.96-39.45 21.37a382 382 0 00-45.57 42.17q-11.47 12.4-4.51 27.6a2.76 2.76 0 002.99 1.57l.07-.01a1.9 1.89-16.3 001.43-2.61l-1.21-2.86a2.37 2.34-42.8 01.09-2.01c2.78-5.35 4.69-11.12 8.69-15.21q13.84-14.15 23.94-25.29 10.28-11.33 17.77-17.73 18.13-15.47 35.72-26.02.55-.33.44-.76a.3.3 0 00-.4-.21" vector-effect="non-scaling-stroke"/><path stroke="#7e7505" d="M426.34 412.06a.43.43 0 00-.53-.43q-.4.09-.64.53c-2.66 5.06-5.13 10.17-4.54 15.26q.57 4.91.39 10.03a2 2 0 01-2.01 1.94h-1.98a3.4 3.4 13 00-3.09 1.93c-4.36 9.01 7.64 9.78 13.06 8.48q7.01-1.67 5.05-8.73c-1.81-6.52-3.89-11.05-4.94-17.28q-.96-5.67-.77-11.73" vector-effect="non-scaling-stroke"/></g><path fill="#096733" d="m639.98 0 .01 246.27q-4.52-.55-6.98-3.55-4.34-5.28-5.96-13.98-1.38-7.36-2.45-14.8c-.38-2.6-1.45-6.7-2.96-8.15-4.92-4.69-12.29 1.94-15.1 6.01q-6.75 9.8-9.47 13.53-1.14 1.57-2.24 2.6a1.26 1.25 47.7 01-1.8-.09c-15.48-17.49-9.86-41.35-3.55-61.34q2.2-6.98 2.48-12.47c.25-5.01-.96-8.58-6.25-9.23-6.7-.82-13.07 2.6-17.28 7.41q-6.86 7.84-11.47 17.75-10.41 22.36-11.24 24.04c-2.14 4.33-6.83 13.54-12.88 9.68-8.77-5.59-13.07-14.13-14.66-24.06q-1.56-9.71-1.15-18.61.43-9.43.28-17-.11-5.22-1.46-9.11c-2.5-7.17-10.76-10.17-16.1-3.62q-5.26 6.46-8.91 15.54-2.62 6.53-10.05 26.76-2.91 7.92-6.53 13.18c-2.21 3.2-4.93 5.85-8.83 4.7-6.86-2.01-9.7-10.5-11.12-16.74q-1.73-7.59-2.42-13.73-1.49-13.15-3.31-23.07c-1.11-6.01-6.43-17.44-14.77-14.41-5.09 1.85-8.01 9.59-9.49 15.31q-4.5 17.43-5.43 21.38c-1.24 5.26-3.14 11.11-6.66 14.53-4.13 4.03-11.34 1.28-14.87-2.11-4.59-4.4-6.84-10.11-9.06-16.4q-1.26-3.55-5.5-16.76-1.57-4.89-4.91-10.21c-6.43-10.24-15.74-5.52-18.29 4.11q-1.39 5.27-1.5 9.64-.62 24.1 10.61 45.29 2.41 4.54 5.41 7.88a.47.47 0 01-.26.78q-1.54.3-2.79-.06-11.18-3.18-13.11-3.53-2.34-.42-4.48-.08a2.64 2.63-88 00-2.15 2.01q-.42 1.8-.37 3.95c.66 26.27 22.87 36.6 44.67 42.34q4.44 1.18 26.99 6.78c4.4 1.09 11.87 3.16 14.64 5.66a.55.55 0 01-.42.96q-10.51-.95-20.06 2.46-6.94 2.48-5.9 9.89a2.88 2.74-63.1 00.26.87q2.93 5.87 6.68 8.74 8.03 6.15 17.75 9.85 9.64 3.66 19.59 5.59 17.29 3.35 36.37.19 12.84-2.13 26.38-4.5c6.47-1.13 12.89-1.49 19.53-2.19q11.26-1.19 22.47 2.1c3.57 1.05 9.34 4.11 10.26 7.97a1.85 1.83-28.5 01-.54 1.79c-3.6 3.29-11.49 4.51-16.44 5.13q-10.47 1.31-18.58 3.02a2.76 2.74 1.3 00-2.1 1.99l-2.11 7.93a1.66 1.65 87.2 01-1 1.11q-15.93 6.19-31.68 13.41l-7.71 3.48q-23.48 10.56-45.29 26.39-14.91 10.83-27.16 24.1-2.03 2.21-7.55 9.22-1.78 2.26-2.11 4.94c-1.43 11.46-2.14 17.3-3.5 26.06q-1.98 12.7-1.18 23.5c.48 6.54 2.33 12.67 8.12 16.19q2.24 1.36 6.69 1.4c6.94.07 12.69-.56 18.09-4.74a56 56 0 007.62-7.06c4.21-5.1 7.32-9.82 13.35-11.01q21.94-4.33 41.98-10.87a.76.76 0 01.89.34c2.95 5.1 7.21 16.75-1.27 18.95q-3.22.83-3.69.83l-23.23-.12q-9.37-.04-14.85 2.19-7.08 2.89-17.01 11.31c-4.83 4.09-7.93 6.45-11.44 9.89q-5.9 5.78-14.03 12.37c-4.76 3.85-12.76 9.28-19.03 7.97q-6.65-1.39-10.1-1.87c-3.55-.49-8.31 1.37-8.15 5.81q.19 5.35 3.14 8.62c8.28 9.21 23.23 10.65 34.71 7.74q19.77-5.01 31.74-21.84a1.19 1.18-54.5 011.65-.28c6.66 4.73 16.31 8.7 23.95 7.99q11.82-1.1 21.75-9.98 1.46-1.31 4.43-4.23a2.72 2.71 23.6 012-.78q15.18.55 29.6-3.55a1.53 1.51-29.8 011.51.4q10.52 11 10.06 26.33-.33 11-1.9 21.34-.21 1.38.03 3.07a.87.87 0 001.07.72q1.11-.28 27.53-6.26c13.21-2.98 31.32-8.6 40.14-19.57 7.3-9.09 9.15-20.06 7.9-31.44a.9.89-3.2 01.89-.99h7.28a1.9 1.9 0 011.75 1.22l13.79 37.38q-.23 40.75-.21 80.76 0 .98-.39 1.62-.54-.02-.88.33-10.11 10.12-22.88 23.32a.4.39 25.4 00.24.66q5.24.68 9.67 3a2.6 2.54 83.1 01.81.65c1.97 2.31 3.97 3.39 3.94 6.78a.5.49 11.4 01-.68.45q-19.96-8.34-33.35 6.83a.59.58-64.6 00.34.97q8.59 1.48 13.87 6.98c6.14 6.4 1.64 15.77-4.95 19.69-11.6 6.9-18.25-6.25-20.3-15.13a.36.36 0 00-.56-.21c-11.35 8.23-12.61 20.69-6.96 32.78a.49.48-12.8 01-.44.69c-7.04.06-9.97-9.26-10.74-14.78a.41.41 64.2 00-.68-.24l-24.05 23.31a.6.6 0 00-.01.85l23.78 23.78a.34.34 0 00.58-.21c.55-6.85 3.34-14.07 10.85-15.82a.56.56 0 01.62.82c-7.18 13.31-2.83 24.09 6.89 34.32a.42.41 22 00.72-.3c-.32-7.45 4.17-15.08 11.75-16.77 6.07-1.36 13.2 3.15 14.95 8.77q2.29 7.36-1.81 12.23-5.13 6.11-13.57 6.99a.48.48 0 00-.31.8c5.44 6.06 11.05 10.04 19.4 10.31 4.47.15 9.58-1.48 13.67-3.34a.53.53 0 01.74.6c-1.51 7.05-8.42 9.66-14.92 10.18a.44.44 0 00-.28.75l24.24 24.18.05 60.91H0V0z"/><path fill="#708ac5" d="M1280 0v853H639.32l-.05-60.91 22.98-23.69a.4.4 0 00-.23-.68c-5.87-.87-13.96-3.99-14.18-10.72a.54.54 0 01.75-.52q19.66 8.36 33.28-6.68a.43.43 0 00-.25-.71c-5.68-.92-12.79-4.21-15.37-9.47q-1.29-2.66-1.23-3.95.61-12.97 13.28-15.68a2.96 2.88 42.4 01.99-.03q4.99.73 8.31 4.78 4.27 5.2 5.51 12.2a.6.6 0 00.98.35q15.52-13.32 6.42-32.61a.64.63 82.7 01.69-.9c7.16 1.3 10.27 8.66 10.61 15.21a.41.41 0 00.7.27l23.54-23.55a.5.5 0 000-.74l-22.91-22.92a.41.41-65.6 00-.69.26q-.69 11.13-10.9 14.96a.76.76 0 01-1-.53q-.06-.25.1-.57 1.95-3.93 2.81-7.69c2.4-10.44-2.37-17.8-8.88-25.33a.52.52 0 00-.91.27q-.79 5.7-3.49 9.92c-3.56 5.59-9.45 7.88-15.54 5.22-6.24-2.73-11.37-9-9.12-16 2.06-6.42 9.28-10.04 15.69-11.71a.53.53 0 00.26-.87c-5.94-6.52-12.76-10.59-21.97-9.59q-5 .55-9.64 2.83a1.17 1.17 0 01-1.6-1.48l1.2-3.04a5.4 5.37-4.2 012.29-2.64q5.06-2.92 11.46-3.41a.29.29 0 00.18-.49l-23.81-24.29q.39-.64.39-1.62-.02-40.01.21-80.76 2.59 6.63 5.06 12.24c2.58 5.86 6.96 12.67 13.9 5.81q3.76-3.71 6.37-10.04 4.18-10.13 4.56-12.67a.4.4 0 01.61-.29q2.46 1.47 3.18 2.1 8.44 7.32 16.5 13.97 7.31 6.03 15.21 8.17a.55.55 0 00.69-.61l-4.83-31.83a.33.33 0 01.55-.3l31.72 28.55a.46.45-67.4 00.76-.32l2.06-35.75a.34.33-65.6 01.57-.22l29.01 29.01a.5.5 0 00.85-.27l5.99-38.69a.44.43 23.6 01.7-.27l34.67 27.72a.41.41 0 00.67-.36l-3.77-40.19a.43.43 0 01.66-.4c23.84 14.88 51.46 13.22 77.75 5.3a.4.4 0 00.09-.72c-14.01-8.29-26.56-18.63-38.6-30.25a.6.6 0 01-.01-.84q9.76-9.85 13.84-22.67a.8.8 0 00-.45-.97l-17.94-7.12a.56.53 11.4 01-.35-.5v-16.07a.84.84 0 00-.76-.84l-19.52-1.72a.6.6 0 01-.54-.59v-18.72a.77.77 0 00-.73-.77l-22.26-1.29a.75.75 0 01-.71-.75v-16.22a1 1 0 00-.98-.98h-19.74a.6.6 0 01-.62-.62v-12.09a.9.9 0 00-.51-.82q-1.44-.7-3.73-.93a.1.1-90 01-.08-.09v-.3a.2.2 0 01.2-.22c19.43-2.1 37.28-11.73 52.22-25.13 4.9-4.39 10.11-10.34 11.62-17.3a1.94 1.93-67.2 00-.83-2.04c-3.31-2.17-11.29-1.81-16.48-1.66-10.88.32-22.57-6.56-31.09-9.61q-4.83-1.73-9.98-1.14-11.03 1.26-23.2 4.57c-19.37 5.27-32.66 9.55-49.23 11.75-5.2.7-13.17 1.17-17.58-2.11q-3.79-2.81-1.72-7.18 2.82-5.98 9.63-8.47 11.78-4.32 25.41-4.56 15.02-.26 19.04-.05 15.86.82 39.25 3 17.99 1.68 40.75-.43c14.13-1.31 49.79-5.94 52.62-24.18a3.08 3.07 18.5 00-1.59-3.19c-6.86-3.66-16.4-.93-24.12-4.76a1.43 1.43 0 01-.58-2.04c2.64-4.22 11.06-6.88 16.32-8.36q29.28-8.24 30.98-8.78c19.84-6.29 46.07-18.26 36.7-44.56a2.14 2.13-15.1 00-2.41-1.38q-1.62.31-3.18 1.59c-4.08 3.37-9.22 8.06-12.32 7.34a2.39 2.36-80.3 01-1.8-2.58c.94-8.48 4.7-14.51 9.93-24.7q3.02-5.88 5.09-12.21 6.17-18.9-5.99-34.25a1.23 1.22 61.5 00-1.33-.4c-3.99 1.29-6.83 5.6-8.76 9.34-8.49 16.53-18.9 40.01-40.25 42.25a3.4 3.4 73.3 01-3.35-1.81q-2.29-4.44-2.64-10.4-.18-3.24-1.45-18.84c-.51-6.19-1.88-13.11-6.02-17.41-2.85-2.95-8.7-4.48-11.86-1.06-4.31 4.64-6.62 12.69-8.38 19.07q-4.42 16.05-7.36 24.9c-2.52 7.54-8.58 23.56-19.55 18.15-3.95-1.96-6.42-7.87-7.8-12.12q-2.88-8.89-5.66-21.98c-1.67-7.82-6.14-28.07-14.57-30.1-9.83-2.37-12.66 7.63-13.43 15.02-1.33 12.91-1.22 25.65-2.28 37.24-.72 8.02-2.47 18.97-9.33 24.02-4.97 3.65-9.12 1.08-12.34-2.95q-2.98-3.72-5.33-8.29-6.41-12.46-11.09-20.9c-4.96-8.92-13.98-21.96-25.57-22.63-3.62-.21-10.36-.03-11.57 3.8-1.21 3.87-.53 9.29.08 12.35q2.88 14.47 5.17 26.85c2.49 13.45 2.78 29.87-5.2 41.29-2.09 2.99-4.55 2.48-7 .21q-2.46-2.27-2.84-2.86-9.53-14.83-9.95-15.37-2.06-2.68-3.62-3.45a3.9 3.27-51 00-3.99.78c-4.02 3.65-5.89 10.99-7.08 16.48q-2.17 10.1-4.8 19.69-1.16 4.22-3.29 6.98-2.25 2.9-5.25.78L639.98 0z"/><path d="m640.18 515.49-13.79-37.38a1.9 1.9 0 00-1.75-1.22h-7.28a.9.89-3.2 00-.89.99c1.25 11.38-.6 22.35-7.9 31.44-8.82 10.97-26.93 16.59-40.14 19.57q-26.42 5.98-27.53 6.26a.87.87 0 01-1.07-.72q-.24-1.69-.03-3.07 1.57-10.34 1.9-21.34.46-15.33-10.06-26.33a1.53 1.51-29.8 00-1.51-.4q-14.42 4.1-29.6 3.55a2.72 2.71 23.6 00-2 .78q-2.97 2.92-4.43 4.23-9.93 8.88-21.75 9.98c-7.64.71-17.29-3.26-23.95-7.99a1.19 1.18-54.5 00-1.65.28q-11.97 16.83-31.74 21.84c-11.48 2.91-26.43 1.47-34.71-7.74q-2.95-3.27-3.14-8.62c-.16-4.44 4.6-6.3 8.15-5.81q3.45.48 10.1 1.87c6.27 1.31 14.27-4.12 19.03-7.97q8.13-6.59 14.03-12.37c3.51-3.44 6.61-5.8 11.44-9.89q9.93-8.42 17.01-11.31 5.48-2.23 14.85-2.19l23.23.12q.47 0 3.69-.83c8.48-2.2 4.22-13.85 1.27-18.95a.76.76 0 00-.89-.34q-20.04 6.54-41.98 10.87c-6.03 1.19-9.14 5.91-13.35 11.01a56 56 0 01-7.62 7.06c-5.4 4.18-11.15 4.81-18.09 4.74q-4.45-.04-6.69-1.4c-5.79-3.52-7.64-9.65-8.12-16.19q-.8-10.8 1.18-23.5c1.36-8.76 2.07-14.6 3.5-26.06q.33-2.68 2.11-4.94 5.52-7.01 7.55-9.22 12.25-13.27 27.16-24.1 21.81-15.83 45.29-26.39l7.71-3.48q15.75-7.22 31.68-13.41a1.66 1.65 87.2 001-1.11l2.11-7.93a2.76 2.74 1.3 012.1-1.99q8.11-1.71 18.58-3.02c4.95-.62 12.84-1.84 16.44-5.13a1.85 1.83-28.5 00.54-1.79c-.92-3.86-6.69-6.92-10.26-7.97q-11.21-3.29-22.47-2.1c-6.64.7-13.06 1.06-19.53 2.19q-13.54 2.37-26.38 4.5-19.08 3.16-36.37-.19-9.95-1.93-19.59-5.59-9.72-3.7-17.75-9.85-3.75-2.87-6.68-8.74a2.88 2.74-63.1 01-.26-.87q-1.04-7.41 5.9-9.89 9.55-3.41 20.06-2.46a.55.55 0 00.42-.96c-2.77-2.5-10.24-4.57-14.64-5.66q-22.55-5.6-26.99-6.78c-21.8-5.74-44.01-16.07-44.67-42.34q-.05-2.15.37-3.95a2.64 2.63-88 012.15-2.01q2.14-.34 4.48.08 1.93.35 13.11 3.53 1.25.36 2.79.06a.47.47 0 00.26-.78q-3-3.34-5.41-7.88Q357.48 167.1 358.1 143q.11-4.37 1.5-9.64c2.55-9.63 11.86-14.35 18.29-4.11q3.34 5.32 4.91 10.21 4.24 13.21 5.5 16.76c2.22 6.29 4.47 12 9.06 16.4 3.53 3.39 10.74 6.14 14.87 2.11 3.52-3.42 5.42-9.27 6.66-14.53q.93-3.95 5.43-21.38c1.48-5.72 4.4-13.46 9.49-15.31 8.34-3.03 13.66 8.4 14.77 14.41q1.82 9.92 3.31 23.07.69 6.14 2.42 13.73c1.42 6.24 4.26 14.73 11.12 16.74 3.9 1.15 6.62-1.5 8.83-4.7q3.62-5.26 6.53-13.18 7.43-20.23 10.05-26.76 3.65-9.08 8.91-15.54c5.34-6.55 13.6-3.55 16.1 3.62q1.35 3.89 1.46 9.11.15 7.57-.28 17-.41 8.9 1.15 18.61c1.59 9.93 5.89 18.47 14.66 24.06 6.05 3.86 10.74-5.35 12.88-9.68q.83-1.68 11.24-24.04 4.61-9.91 11.47-17.75c4.21-4.81 10.58-8.23 17.28-7.41 5.29.65 6.5 4.22 6.25 9.23q-.28 5.49-2.48 12.47c-6.31 19.99-11.93 43.85 3.55 61.34a1.26 1.25 47.7 001.8.09q1.1-1.03 2.24-2.6 2.72-3.73 9.47-13.53c2.81-4.07 10.18-10.7 15.1-6.01 1.51 1.45 2.58 5.55 2.96 8.15q1.07 7.44 2.45 14.8 1.62 8.7 5.96 13.98 2.46 3 6.98 3.55 3 2.12 5.25-.78 2.13-2.76 3.29-6.98 2.63-9.59 4.8-19.69c1.19-5.49 3.06-12.83 7.08-16.48a3.9 3.27-51 013.99-.78q1.56.77 3.62 3.45.42.54 9.95 15.37.38.59 2.84 2.86c2.45 2.27 4.91 2.78 7-.21 7.98-11.42 7.69-27.84 5.2-41.29q-2.29-12.38-5.17-26.85c-.61-3.06-1.29-8.48-.08-12.35 1.21-3.83 7.95-4.01 11.57-3.8 11.59.67 20.61 13.71 25.57 22.63q4.68 8.44 11.09 20.9 2.35 4.57 5.33 8.29c3.22 4.03 7.37 6.6 12.34 2.95 6.86-5.05 8.61-16 9.33-24.02 1.06-11.59.95-24.33 2.28-37.24.77-7.39 3.6-17.39 13.43-15.02 8.43 2.03 12.9 22.28 14.57 30.1q2.78 13.09 5.66 21.98c1.38 4.25 3.85 10.16 7.8 12.12 10.97 5.41 17.03-10.61 19.55-18.15q2.94-8.85 7.36-24.9c1.76-6.38 4.07-14.43 8.38-19.07 3.16-3.42 9.01-1.89 11.86 1.06 4.14 4.3 5.51 11.22 6.02 17.41q1.27 15.6 1.45 18.84.35 5.96 2.64 10.4a3.4 3.4 73.3 003.35 1.81c21.35-2.24 31.76-25.72 40.25-42.25 1.93-3.74 4.77-8.05 8.76-9.34a1.23 1.22 61.5 011.33.4q12.16 15.35 5.99 34.25-2.07 6.33-5.09 12.21c-5.23 10.19-8.99 16.22-9.93 24.7a2.39 2.36-80.3 001.8 2.58c3.1.72 8.24-3.97 12.32-7.34q1.56-1.28 3.18-1.59a2.14 2.13-15.1 012.41 1.38c9.37 26.3-16.86 38.27-36.7 44.56q-1.7.54-30.98 8.78c-5.26 1.48-13.68 4.14-16.32 8.36a1.43 1.43 0 00.58 2.04c7.72 3.83 17.26 1.1 24.12 4.76a3.08 3.07 18.5 011.59 3.19c-2.83 18.24-38.49 22.87-52.62 24.18q-22.76 2.11-40.75.43-23.39-2.18-39.25-3-4.02-.21-19.04.05-13.63.24-25.41 4.56-6.81 2.49-9.63 8.47-2.07 4.37 1.72 7.18c4.41 3.28 12.38 2.81 17.58 2.11 16.57-2.2 29.86-6.48 49.23-11.75q12.17-3.31 23.2-4.57 5.15-.59 9.98 1.14c8.52 3.05 20.21 9.93 31.09 9.61 5.19-.15 13.17-.51 16.48 1.66a1.94 1.93-67.2 01.83 2.04c-1.51 6.96-6.72 12.91-11.62 17.3-14.94 13.4-32.79 23.03-52.22 25.13a.2.2 0 00-.2.22v.3a.1.1 90 00.08.09q2.29.23 3.73.93a.9.9 0 01.51.82v12.09a.6.6 0 00.62.62h19.74a1 1 0 01.98.98v16.22a.75.75 0 00.71.75l22.26 1.29a.77.77 0 01.73.77v18.72a.6.6 0 00.54.59l19.52 1.72a.84.84 0 01.76.84v16.07a.56.53 11.4 00.35.5l17.94 7.12a.8.8 0 01.45.97q-4.08 12.82-13.84 22.67a.6.6 0 00.01.84c12.04 11.62 24.59 21.96 38.6 30.25a.4.4 0 01-.09.72c-26.29 7.92-53.91 9.58-77.75-5.3a.43.43 0 00-.66.4l3.77 40.19a.41.41 0 01-.67.36l-34.67-27.72a.44.43 23.6 00-.7.27l-5.99 38.69a.5.5 0 01-.85.27l-29.01-29.01a.34.33-65.6 00-.57.22l-2.06 35.75a.46.45-67.4 01-.76.32l-31.72-28.55a.33.33 0 00-.55.3l4.83 31.83a.55.55 0 01-.69.61q-7.9-2.14-15.21-8.17-8.06-6.65-16.5-13.97-.72-.63-3.18-2.1a.4.4 0 00-.61.29q-.38 2.54-4.56 12.67-2.61 6.33-6.37 10.04c-6.94 6.86-11.32.05-13.9-5.81q-2.47-5.61-5.06-12.24m-191.93-33.98q10.87-.77 21.06-6.79a.59.59 0 01.85.72l-2.64 6.65a.6.6 0 00.28.75q8.17 4.2 14.13-.32c4.46-3.37 7.01-10.58 12.39-12.47q3.09-1.08 7.18-1.31c14.18-.78 28.7-.91 41.44-7.02q4-1.92 4.94-3.83 1.97-3.98-.21-7.08-1.56-2.24-1.89-3.38c-2.62-9.19-3.3-18.54-4.71-31.69q-1.94-18.16-12.77-31.93a.66.65 45.4 010-.81l.25-.31a.83.83 0 011.31.01q10.09 13.08 12.44 28.78 1.18 7.89 2.52 20.76c.42 4.05 1.64 13.92 3.91 16.33q6.3 6.68 13.1 8.03 9.31 1.83 20.99 2.05 16.46.3 33.87-1.29 12.79-1.17 18.21-2.59 16.89-4.41 25.47-20.35 6.26-11.63 6.96-26.67l1.54-32.99c.34-7.39 3.39-37.16 14.38-37.04q31.7.37 68.41-.43a.8.8 0 01.81.8q0 .15-.36.53c-3.17 3.37-8.08 5.51-13.09 7.6a.72.72 0 00-.2 1.21q16.18 14.11 31.38 30.45c8.06 8.67 16.97 17.11 26.82 25.95q31.29 28.08 44.11 39.39a.9.9 50.4 001.09.11c6.52-3.77 11.23-13.77 13.97-20.51a.5.5 0 00-.28-.66l-17.44-6.92a.65.64-79.3 01-.4-.6v-16.11a.5.5 0 00-.47-.51l-20.29-1.79a.62.61-86.2 01-.56-.65l1.05-18.2a1.03 1.03 0 00-.97-1.09L794.56 375a.9.9 0 01-.86-.91v-16.3a.71.7 0 00-.71-.7h-20.62a.32.31-90 01-.31-.32v-13.03a.7.7 0 00-.55-.68q-7.16-1.66-14.89-3.93-.74-.21-.88-.49a.37.37 0 01.34-.54c16.25.26 34.92-1.63 48.32-11.44q13.43-9.82 23.16-20.83 3.26-3.69 4.56-7.56a1.5 1.5 0 00-.76-1.85q-2.18-1.12-5.13-.95-6.9.4-11.96.42-5.51.03-13.31-3.1c-5.7-2.28-11.75-6-18-7.29q-7.11-1.48-14.46-.19-11.25 1.99-18.47 4.25c-20.46 6.41-40.44 14.26-61.27 11.2q-7.42-1.09-7.65-7.32c-.45-12.66 20.62-17.21 29.66-18.22q14.49-1.6 26.99-.2 22.33 2.5 31 3.32 43.35 4.07 85.99-9.1c6.89-2.14 12.12-5.77 13.54-12.97a2.61 2.53-69.6 00-1.21-2.75q-1.66-.96-4.08-1.06c-6.29-.24-15.53.92-20.51-4.02-1.96-1.94-.25-4.35 1.37-5.86q5.88-5.46 15.43-8.06 9.27-2.53 24.24-5.25c15.22-2.76 31.36-10.14 40.06-23.2 3.59-5.39 6.5-14.23 4.05-20.61a1.21 1.2 71.2 00-1.47-.73q-1.65.5-3.28 1.91-4.9 4.28-7.51 5.89c-6.81 4.2-10.52-2.98-8.77-8.72 1.46-4.78 5.32-9.73 9.22-15.97q6.32-10.11 7.02-20.73c.51-7.87-.24-21.9-5.69-27.78a1.9 1.9 0 00-2.27-.41c-5.13 2.57-9.03 16.74-11.84 21.71q-4.86 8.61-11.87 15.56c-5.08 5.04-21.96 20.87-28.82 13.29-2.95-3.26-2.57-13.05-2.71-19-.16-7.05-2.56-36.11-14.58-31.4-4.65 1.82-8 13.47-9.3 18.19q-3.74 13.61-5.91 21.1c-2.25 7.79-9.06 27.3-20.17 26.05-8.77-1-13.21-13.78-14.99-20.39q-4.53-16.87-7.53-28.45c-.99-3.84-3.91-13.43-6.98-15.55-7-4.82-12.25 5.33-13.36 10.8-2.84 14.04.28 29.06-2.29 43.92-1.36 7.83-5.64 17.36-12.69 21.59-8.9 5.33-15.54-7.4-18.6-13.58q-6.65-13.44-10.22-20.29c-6.26-12-16.13-27.18-32.31-21.09a2.14 2.09-80.9 00-.93.69c-1.96 2.59-1.29 5.81-.85 9.12q.46 3.38.65 4.14 2.11 8.43 4.74 21.04 4.49 21.55-1.93 41.75-1.32 4.17-3.64 7.07c-5.04 6.3-10.84-1.09-13.42-5.53q-3.06-5.26-6.03-10.46-1.85-3.23-4.14-5.23a2.6 2.2 47.5 00-2.91-.37c-5.88 3.95-7.86 17.63-9.31 25.38-1.03 5.49-3.06 14.04-6.64 17.6q-1.72 1.7-2.61 3.31-1.66 3.03-2.24 3.54c-7.47 6.64-17.39 6.05-27.25 4.37q-7.88-1.35-17.25-3.19-6.14-1.2-10.82-1.14c-9.2.12-8.56 16.44-7.2 22.12q2.46 10.3 2.71 11.65 1.78 9.52-7.01 11.85-5.62 1.5-10.03 3.48c-3.36 1.51-8.38 2.72-11.35 2.7q-9.5-.06-18.15 2.44a1.7 1.7 0 00-1.2 1.25q-.44 1.78-1.34 6.38c-.35 1.77-1.24 3.05-2.84 3.66q-17.44 6.64-42.74 17.7c-14.08 6.15-25.68 12.9-35.8 21.25q-13.03 10.75-20.37 15.82-7.8 5.4-10.84 8.87-4.8 5.5-8.21 11.39c-3.77 6.51-3.55 12.47-4.05 20.41q-.21 3.37-1.52 8.41c-2.52 9.79-2.88 20.55-.55 29.71 1.07 4.2 3.13 9.49 7.47 10.31q15.95 3.02 27.5-8.03a2.1 2.07 71.1 00.64-1.33l.1-1.19a3.04 2.99 60.4 01.24-.9q5.05-11.01 9.51-19.04 4.54-8.18 11.25-13.65c3.01-2.46 5.55-3.16 9.44-3.89 10.16-1.9 21.09.73 26.9 9.5q3.81 5.75 5.61 13.97c1.17 5.31 1.82 10.47-2.42 13.75q-5.18 4.02-12.13 8.66-7.04 4.71-10.64 5.91c-10.44 3.49-22.23 6.04-31.25 13.98a.52.52 0 00.38.9m192.72-232.45c-17.45-5.74-17.58-21.54-18.97-36.79q-.33-3.76-1.61-5.12-1.59-1.7-3.23-1.16-7.53 2.46-11.41 10.07c-2.4 4.72-5.76 11.61-10.1 14.13a3.43 3.15 48.6 01-3.73-.4c-3.86-3.17-6.33-9.02-8.54-14.22q-5.77-13.53-2.32-27.83c2.57-10.67 7.53-20.55 8.69-30.99q.41-3.69-.32-6.42c-1.44-5.37-7.13-5.35-11.26-3.1q-3.74 2.04-6.6 5.33-9.79 11.26-15.77 24.48-5.93 13.13-7.77 16.99c-2.73 5.71-7.81 14.25-14.82 12.29q-3.81-1.06-8.28-6.96-9.59-12.66-10.51-27.12c-.44-7.06.76-16.44 1.14-22.73q.43-7.06-.29-10.03c-1.73-7.15-7.23-14.6-14.81-6.86q-3.32 3.39-5.77 8.34c-4.58 9.23-6.59 16.25-10.58 28.41-2.47 7.56-12.91 34.4-24.51 20.01-5.94-7.38-9.17-19.51-10.42-28.65-1.47-10.73 1.44-26.57-8.16-34.23-5.53-4.41-10.8.81-12.91 5.64q-2.17 5-3.51 11.2-2.78 12.83-4.59 18.91c-3.46 11.62-10.36 23.22-23.36 10.87-6.7-6.36-10.68-12.82-12.82-21.66-1.89-7.82-3.14-16.19-8.39-22.04q-2.33-2.6-4.2-3.35c-12.12-4.84-10.7 23.24-10.23 28.43 1.49 16.53 4.61 29.39 15.57 41.38q1.05 1.14.28 2.42c-2.17 3.59-12.26-.64-16.35-2.05q-3.2-1.11-6.14-1.17a1.73 1.73 0 00-1.75 1.51q-.33 2.57.45 5.62 6.21 24.35 30.41 33.57 5.99 2.29 14.6 4.62l34.07 9.22c3.29.89 8.25 2.34 8.63 5.32a1.77 1.76-12.9 01-1.19 1.89q-1.34.44-2.73.47-14.52.25-14.82.28-4.85.53-7.17 2.04c-4.41 2.85-2.69 9.25-.05 12.64 4.25 5.46 10.6 8.95 17.24 11.68q9.61 3.96 21.69 6.32 8.1 1.59 14.71 1.49c19.63-.27 47.19-6.17 71.04-7.04q8.24-.3 17.49 1.09c6.94 1.04 13.01 3.71 15.11 10.97a1.5 1.49-18.3 001.95.98q7.74-2.8 5.67-11.28c-2.53-10.41-4.76-16.23-2.71-25.29 1.03-4.56 3.01-8.92 8-9.4q3.92-.37 10.77.64.87.13 19.94 3.64c7.31 1.34 22.09 2.23 25.74-5.88a.82.82 0 00-.49-1.12M863.9 464.47q-3.17-3.06-7.85-6.12c-10.45-6.83-25.4-3.52-36.47-.08a.77.76-14.8 01-.97-.56l-.02-.07a.94.92-15.8 01.62-1.09c9.46-3.19 19.44-5.09 29.26-3a.29.29 0 00.26-.5c-4.41-3.97-8.12-5.89-14.17-6.33q-9.75-.71-20.03 2.92a.9.89 73.3 01-1.16-.63l-.01-.04a1.09 1.08-16.2 01.71-1.28q9.89-3.44 19.44-2.69 2.6.2 4.35.29a.28.28 0 00.21-.48c-9.71-10.01-23.56-7.56-35.63-2.1a.98.97 53.4 01-1.06-.16l-.25-.23a.63.63 0 01.13-1.03q12.29-6.37 25.94-4.57a.51.51 0 00.41-.89c-2.4-2.08-6.24-5.71-9.51-6.46-7.71-1.75-16.96 1.39-23.95 5.08a.72.71 53.9 01-.86-.14l-.27-.27a.83.82 54 01.2-1.3q11.02-5.86 21.8-5.62a.69.69 0 00.45-1.23l-5-3.99a5.25 5.22 61.8 00-3.73-1.14c-6.85.59-11.84 3.48-18.73 6.92a.96.95 54.4 01-1.11-.19l-.23-.24a.7.7 0 01.2-1.11c6.15-2.89 11.65-6.16 18.14-6.87a.88.88 0 00.37-1.62l-2.95-1.83a6.23 6.21 56.8 00-4.13-.87c-7.06 1-11.14 3.92-16.42 6.74a.52.51-36 01-.62-.09l-.21-.22a.86.86 0 01.16-1.33c4.89-3.13 12.14-7.1 17.13-6.94a.35.35 0 00.24-.61l-5.35-4.82a1.72 1.7 63.9 00-1.23-.43c-5.94.3-9.75 2.61-17.58 6.23a.45.44-33.6 01-.52-.1l-.29-.29a.79.78-36.5 01.19-1.23q8.23-4.57 16.27-6.45a.34.33 61.3 00.16-.56l-4.9-5.06a1.3 1.3 0 00-.85-.4q-3.09-.22-4.22-.01-8.95 1.65-21.69 7.13a.75.74-32.8 01-.83-.17l-.25-.25a.7.69-34.9 01.2-1.11q11.9-5.7 24.04-7.58a.64.63-26.5 00.36-1.07l-5.62-5.8a2.3 2.3 0 00-2.08-.67c-5.69 1.01-9.34 3.1-16.6 6.41a.53.53 0 01-.74-.62l.05-.18a2.47 2.45-6.5 011.22-1.52q7.05-3.69 15.21-5.9a.33.33 0 00.15-.55l-4.76-4.91a.49.48-43.7 00-.68-.01l-.47.46a1 1 0 01-.79.3q-8.71-.21-18.12 3.94a.62.61-34 01-.7-.13l-.3-.32a.8.8 0 01.26-1.28q9.58-3.98 18.12-4.1a.76.76 0 00.54-1.29l-5.14-5.3a3.1 3.1-27.6 00-2.85-.89q-7.4 1.49-11.99 3.82-.31.15-10.53 4.72a.6.6 0 01-.72-.14l-.25-.26a.77.76 53.7 01.18-1.21q11.54-6.29 21.6-8.08a1.49 1.49 0 00.56-2.71l-1.97-1.31a8.07 8.04 55.6 00-6.21-1.17q-12.94 2.83-22.53 7.88a.57.55 53.6 01-.67-.11l-.25-.26a.88.87 54.6 01.23-1.39q13.88-7 24.64-7.59a1.1 1.09-29.5 00.56-2l-5.49-3.7a8.62 8.6 58.6 00-5.77-1.4q-10.6 1.23-16.6 9.87a.59.58-49.3 01-.9.07l-.24-.24a1.06 1.05-48.9 01-.09-1.36q6.03-8.25 15.85-9.85a.41.41-29.4 00.2-.71q-.32-.27-.64-.38-12.9-4.41-28.26-5.77c-10.08-.89-21.16.82-24.51 11.97q-2.04 6.78-2.81 13.28a.4.4 0 00.48.43q.55-.13.8-.4c6.82-7.22 17.1-11.99 26.34-15.12a.6.6 0 01.64.16l.27.28a.75.75 0 01-.26 1.22c-10.45 4.11-20.96 8.77-28.48 17.59a1.92 1.9 69.7 00-.44.97l-1.14 8.69a.31.3 69 00.53.24q5.1-6.04 12.59-9.49a.97.96 55.4 011.1.21l.23.23a.7.7 0 01-.2 1.1c-7.9 3.71-14.75 9-15.74 18.16a.34.34 0 00.55.31c5.2-4.11 8.63-7.44 13.42-9.07a.73.72 58 01.74.18l.27.28a.82.82 55.6 01-.24 1.31q-8.16 3.79-14.18 10.04a5.5 5.5-17.6 00-1.45 2.79l-3.79 19.6a.35.35 0 00.5.37c9.34-4.75 16.56-15.57 19.77-25.16a.75.74-70 01.98-.46l.31.13a.98.97-69.7 01.56 1.23q-6.56 18.35-22.08 26.64a2.45 2.42 87 00-1.12 1.26l-3.57 8.99a.6.6 0 00.72.8q2.76-.8 10.2-5.7 13.81-9.1 20.21-22.78a.9.9 0 011.27-.4l.04.03a1.03 1.03 0 01.4 1.33c-6.6 13.72-19.06 23.94-32.93 29.8a4.26 4.24-88.4 00-2.17 2.06c-10.28 21.24-31.15 29.24-53.75 24.62q-3.16-.65-5.65.72c-2.55 1.4-3.82 8.11-4.1 10.45-1.45 12.46-2.17 33.06-18.32 31.56q-.34-.03-.42-.24a.79.77 72.7 01.52-1.03c2.82-.75 5.68-1.58 6.58-4.23q1.08-3.18 1.61-9.15c.52-5.84 3.09-30.34-7.39-29.77a.84.83-82.3 00-.75.58q-.88 2.71-.84 4.7.28 15.07-.13 24.75c-.37 8.96-.44 19.59-11.93 19.59a.48.48 0 01-.23-.91q7.39-3.9 8.36-12.43 1.07-9.41-.15-18.77c-.76-5.84-1.58-11.17-4.38-15.17-1.61-2.31-4.1-4.07-6.73-2.81-2.2 1.05-1.58 6.43-1.41 8 1.53 13.79 4.02 27.95-1.3 40.87-1.06 2.56-3.76 6.88-6.61 6.71a.57.57 0 01-.31-1.02q2.24-1.71 3.33-5.44c4.37-15 2.17-31.81-5.44-46.2q-1.01-1.92-2.79-2.99a1.24 1.24 0 00-1.78.56q-1.09 2.51-1.09 5.77c.01 9.95 1.86 19.49 3.62 28.93.85 4.51 4.15 25.63-5.84 23.25a.55.55 0 01-.17-.99q3.19-2.12 3.43-5.96.31-5.18-.21-9.26-2.46-19.52-11.56-37.63a.4.4 0 00-.5-.2q-11.68 4.33-24.73 5.41-12.11 1-19.92 1.38a3.3 3.3 0 00-2.61 1.48c-4.43 6.62-13.22 14.98-22.26 14.2q-1.9-.16-6.16-2.16-8.71-4.08-16.43-7.97a2.48 2.48 0 00-3.6 2.33l.02.37a7.93 7.91-74.9 003.59 6.27c15.62 10.17 32.63 10.77 46.61-3.26q1.1-1.1 2.86-3.11a2.55 2.51 20.7 011.92-.85c9.58.08 20.63-.3 29.63-3.74a1.85 1.84-33 011.95.41q13.53 13.44 11.73 32.84-1 10.74-1.83 18.32a.5.5 0 00.6.56q5.91-1.05 12.09-2.71c15.03-4.06 27.66-7.42 41.96-13.24q7.42-3.02 11.33-8.42c6.38-8.82 6.17-21.14 6.55-33.49a.36.36 0 01.4-.35l10.98.97a1.8 1.8 0 011.55 1.21c2.31 6.67 4.46 12.94 7.58 19.86q5.91 13.07 8.9 19.99c1.92 4.45 3.84 10.19 4.91 13.21q.83 2.38 2.22 3.54a3.83 2.94-34.1 003.69.22c5.76-2.64 9.73-11.61 11.44-17.47q1.44-4.95 2.93-8.73a.96.96 0 011.38-.47q3.76 2.22 7.86 6.15 9.21 8.8 16.82 14.64 3.28 2.52 8.33 4.15a.43.43 0 00.56-.39q.04-1.31-.28-3.06-1.43-7.6-4.55-25.74-.44-2.55-.55-6.09a.4.4 0 01.67-.31l33.36 30.04a.46.46 0 00.77-.33l1.42-36.18a.65.64 24.1 011.11-.42l28.95 29.88a.63.63 0 001.08-.36l5.06-38.47a.71.71 0 011.14-.46l34.14 27.3a.19.19 0 00.3-.17l-3.83-40.84a.5.49-67.9 01.87-.37q.53.63.11.16a.07.07 0 01.09-.1q5.08 4.41 9.11 6.44c19.69 9.87 44.25 9.25 64.99 3.16a.55.55 0 00.19-.96l-8.69-6.96a5 5 64.5 00-2.98-1.06l-33.77-.47a1.6 1.6 0 01-1.45-1.03l-.01-.29a.33.33 0 01.33-.35h32.37a.17.17 0 00.12-.29m-419.03-14.61q.71-.28 1.04-.71c6.78-8.81 15.16-9.63 26.33-11.64q4.08-.73 22.65-6.36 1.26-.38 3.77-1.56a.7.7 0 00.38-.84q-.36-1.35-1.76-3.24c-6.79-9.22-17.68-11.14-28.62-8.07-4.18 1.17-7.9 4.95-10.49 8.23q-8.63 10.89-13.66 23.83a.28.28 0 00.36.36m49.51 4.86q-6.25-.28-11.21-.95-7.46-1.02-11.24-.89-13.41.44-24.81 8.28-8.46 5.82-14.93 12.04-12.63 12.15-17.32 15.91c-7.82 6.28-15.36 10.33-25.56 7.79q-3.4-.84-5.54-1.2c-4.58-.78-5.71 3.28-4.15 6.75q1.68 3.74 4.38 5.8c12.98 9.88 28.72 9.48 42.14.65q11-7.25 19.02-16.14a1.51 1.5-42.4 00.09-1.91c-8.7-11.72 15.58-20.63 23.22-22.75q6.93-1.92 9.09-2.82 9.37-3.94 16.94-10.21a.2.2 0 00-.12-.35"/><path fill="#fcea0a" d="M448.25 481.51a.52.52 0 01-.38-.9c9.02-7.94 20.81-10.49 31.25-13.98q3.6-1.2 10.64-5.91 6.95-4.64 12.13-8.66c4.24-3.28 3.59-8.44 2.42-13.75q-1.8-8.22-5.61-13.97c-5.81-8.77-16.74-11.4-26.9-9.5-3.89.73-6.43 1.43-9.44 3.89q-6.71 5.47-11.25 13.65-4.46 8.03-9.51 19.04a3.04 2.99 60.4 00-.24.9l-.1 1.19a2.1 2.07 71.1 01-.64 1.33q-11.55 11.05-27.5 8.03c-4.34-.82-6.4-6.11-7.47-10.31-2.33-9.16-1.97-19.92.55-29.71q1.31-5.04 1.52-8.41c.5-7.94.28-13.9 4.05-20.41q3.41-5.89 8.21-11.39 3.04-3.47 10.84-8.87 7.34-5.07 20.37-15.82c10.12-8.35 21.72-15.1 35.8-21.25q25.3-11.06 42.74-17.7c1.6-.61 2.49-1.89 2.84-3.66q.9-4.6 1.34-6.38a1.7 1.7 0 011.2-1.25q8.65-2.5 18.15-2.44c2.97.02 7.99-1.19 11.35-2.7q4.41-1.98 10.03-3.48 8.79-2.33 7.01-11.85-.25-1.35-2.71-11.65c-1.36-5.68-2-22 7.2-22.12q4.68-.06 10.82 1.14 9.37 1.84 17.25 3.19c9.86 1.68 19.78 2.27 27.25-4.37q.58-.51 2.24-3.54.89-1.61 2.61-3.31c3.58-3.56 5.61-12.11 6.64-17.6 1.45-7.75 3.43-21.43 9.31-25.38a2.6 2.2 47.5 012.91.37q2.29 2 4.14 5.23 2.97 5.2 6.03 10.46c2.58 4.44 8.38 11.83 13.42 5.53q2.32-2.9 3.64-7.07 6.42-20.2 1.93-41.75-2.63-12.61-4.74-21.04-.19-.76-.65-4.14c-.44-3.31-1.11-6.53.85-9.12a2.14 2.09-80.9 01.93-.69c16.18-6.09 26.05 9.09 32.31 21.09q3.57 6.85 10.22 20.29c3.06 6.18 9.7 18.91 18.6 13.58 7.05-4.23 11.33-13.76 12.69-21.59 2.57-14.86-.55-29.88 2.29-43.92 1.11-5.47 6.36-15.62 13.36-10.8 3.07 2.12 5.99 11.71 6.98 15.55q3 11.58 7.53 28.45c1.78 6.61 6.22 19.39 14.99 20.39 11.11 1.25 17.92-18.26 20.17-26.05q2.17-7.49 5.91-21.1c1.3-4.72 4.65-16.37 9.3-18.19 12.02-4.71 14.42 24.35 14.58 31.4.14 5.95-.24 15.74 2.71 19 6.86 7.58 23.74-8.25 28.82-13.29q7.01-6.95 11.87-15.56c2.81-4.97 6.71-19.14 11.84-21.71a1.9 1.9 0 012.27.41c5.45 5.88 6.2 19.91 5.69 27.78q-.7 10.62-7.02 20.73c-3.9 6.24-7.76 11.19-9.22 15.97-1.75 5.74 1.96 12.92 8.77 8.72q2.61-1.61 7.51-5.89 1.63-1.41 3.28-1.91a1.21 1.2 71.2 011.47.73c2.45 6.38-.46 15.22-4.05 20.61-8.7 13.06-24.84 20.44-40.06 23.2q-14.97 2.72-24.24 5.25-9.55 2.6-15.43 8.06c-1.62 1.51-3.33 3.92-1.37 5.86 4.98 4.94 14.22 3.78 20.51 4.02q2.42.1 4.08 1.06a2.61 2.53-69.6 011.21 2.75c-1.42 7.2-6.65 10.83-13.54 12.97q-42.64 13.17-85.99 9.1-8.67-.82-31-3.32-12.5-1.4-26.99.2c-9.04 1.01-30.11 5.56-29.66 18.22q.23 6.23 7.65 7.32c20.83 3.06 40.81-4.79 61.27-11.2q7.22-2.26 18.47-4.25 7.35-1.29 14.46.19c6.25 1.29 12.3 5.01 18 7.29q7.8 3.13 13.31 3.1 5.06-.02 11.96-.42 2.95-.17 5.13.95a1.5 1.5 0 01.76 1.85q-1.3 3.87-4.56 7.56-9.73 11.01-23.16 20.83c-13.4 9.81-32.07 11.7-48.32 11.44a.37.37 0 00-.34.54q.14.28.88.49 7.73 2.27 14.89 3.93a.7.7 0 01.55.68v13.03a.32.31 90 00.31.32h20.62a.71.7 0 01.71.7v16.3a.9.9 0 00.86.91l22.27 1.29a1.03 1.03 0 01.97 1.09l-1.05 18.2a.62.61-86.2 00.56.65l20.29 1.79a.5.5 0 01.47.51v16.11a.65.64-79.3 00.4.6l17.44 6.92a.5.5 0 01.28.66c-2.74 6.74-7.45 16.74-13.97 20.51a.9.9 50.4 01-1.09-.11q-12.82-11.31-44.11-39.39c-9.85-8.84-18.76-17.28-26.82-25.95q-15.2-16.34-31.38-30.45a.72.72 0 01.2-1.21c5.01-2.09 9.92-4.23 13.09-7.6q.36-.38.36-.53a.8.8 0 00-.81-.8q-36.71.8-68.41.43c-10.99-.12-14.04 29.65-14.38 37.04l-1.54 32.99q-.7 15.04-6.96 26.67-8.58 15.94-25.47 20.35-5.42 1.42-18.21 2.59-17.41 1.59-33.87 1.29-11.68-.22-20.99-2.05-6.8-1.35-13.1-8.03c-2.27-2.41-3.49-12.28-3.91-16.33q-1.34-12.87-2.52-20.76-2.35-15.7-12.44-28.78a.83.83 0 00-1.31-.01l-.25.31a.66.65 45.4 000 .81q10.83 13.77 12.77 31.93c1.41 13.15 2.09 22.5 4.71 31.69q.33 1.14 1.89 3.38 2.18 3.1.21 7.08-.94 1.91-4.94 3.83c-12.74 6.11-27.26 6.24-41.44 7.02q-4.09.23-7.18 1.31c-5.38 1.89-7.93 9.1-12.39 12.47q-5.96 4.52-14.13.32a.6.6 0 01-.28-.75l2.64-6.65a.59.59 0 00-.85-.72q-10.19 6.02-21.06 6.79m202.39-212.48q-6.12 6.1-9.41 14.37l-5.37 7.64a.43.43 0 01-.77-.17q-.83-4.46 1.23-8.09a2.42 2.36 89.3 01.77-.81q1.93-1.23 3.07-2.74a.42.42 0 00-.38-.67q-7.42.82-11.22 6.94-1.82 2.94-3.3 5.88a1.3 1.3 0 01-1.31.72c-9.3-.83-17.78-1.27-26.77.78q-3.79.86-7.08 2.95a.57.57 0 00.33 1.05c8.99-.27 17.79.02 26.88 2.51q4.22 1.16 6.61 4.69a1.54 1.51 66.7 001.57.64q7.53-1.58 15.52-3.03c11.84-2.15 23.37-2.61 34.25-3.33a.84.83-9.2 00.76-1.04 15.4 15.4 0 011.96-12.51q2.57-4.14 7.76-7.31c10.47-6.38 24.38-9.31 36.22-10.22q9.1-.7 27.55 1.52 8.58 1.03 26.46 2.86c8.88.91 17.07 1.38 25.28 1.16q23.52-.63 45.52-10.3 6.41-2.81 9.96-6.3.52-.51.56-1.05a.4.4 0 00-.55-.42c-13.71 4.9-24.14 8.66-38.35 10.65q-23.44 3.28-41.77 1.04-4.4-.54-18.58-3.12-25.45-4.63-50.53-1.86-9.03 1-15.86 2.93-5.26 1.49-9.56 4.21a.2.2 0 01-.19-.02l-.2-.21a.36.35-41.1 01.04-.54c11.22-8.57 22.63-10.66 36.76-10.62q15.28.04 29.29.72l.02-.01.2-.49a.2.2 0 00-.14-.26q-19.38-3.41-36.07-3.04-17.23.39-33.57 10.55c-1.02.64-1.92.68-2.56 1.43q-.82.95-1.65 1.47-8.86 5.55-15.25 14a.32.32 0 01-.57-.15q-.05-.4.11-.89 1.82-5.35 5.75-9.72 6.77-7.52 16.77-11.5 2.72-1.08 13.68-4.12a.4.4 0 00.28-.47v-.02a.4.4-12.4 00-.48-.3q-14.31 3.07-21.26 5.27-3.7 1.18-10.89 5.97a4.74 4.62-85 00-.87.75q-7.09 7.98-10.77 18.55-.3.87-1.08 1.71a.48.47-27.9 01-.82-.25q-.95-6.65 2.91-11.87 3.39-4.58 7.97-9.39a.75.75 0 00-.6-1.27q-1.43.1-2.88.9-1.47.81-5.38 4.25m71.9 48 .42.28q.68.5 1.35.29l9.15 3.79a2.93 2.75 54.6 001.09.22q1.98.01 4.06.94a1.73 1.7-29.5 00.48.13q11.48 1.39 23.97-1.04a.31.31 0 00.13-.56q-.38-.28-1.19-.33c-8.57-.49-17.11.13-24.55-5.88a.57.57 0 01.54-.98c7.9 2.71 15.03 4.96 23 4.34q8.95-.69 16.86-3.2a.64.64 0 00.43-.75v-.03a.63.63 0 00-.71-.48q-9.74 1.51-19.04.3-5.28-.69-8.35-4.47a1.1 1.04 25 01-.21-.53q-.04-.35.02-.49a.7.7 0 01.87-.38c4.83 1.78 10.21 3.76 15.08 3.98q10.9.51 22.04-2.69a.45.45 0 00.03-.86l-.62-.22a.19.15 52 00-.08-.02c-9.91-.03-17.81.51-24.94-4.65a.6.6 0 01-.01-.98l.26-.07a.7.65-47 01.28-.02c12.06 1.75 22.28 3.87 33.54 1.44a1.21 1.2-87.9 00.91-.85l.01-.03a.53.53 0 00-.55-.67c-5.21.35-11.68.12-16.05-2.67a.5.49 68.1 01.38-.9q1.59.39 8.63 1.47 15.34 2.35 30.65-2.14a.34.34 0 00.23-.43l-.03-.12a.36.36 0 00-.4-.25q-12.75 2.28-25.27-2.48-5.89-2.23-13.09-4.7c-8.59-2.95-15.05-1.42-24.23 2.36q-15.19 6.24-33.26 11.35-8.42 2.38-13.86 2.53c-8.83.24-19.08-.8-20.82 10.56-2.49 16.3 24.37 14.95 33.33 13.55a.49.49 0 00.1-.94c-4.19-1.61-12.67-4.39-13.26-9.36a.43.43 0 01.69-.39c3.85 2.97 6.6 4.98 11.25 6.66q2.39.86 7.13 1.03c6.78.23 12.22.77 16.96-.43a.42.42 0 00-.08-.83q-9.53-.52-18.86-3.87-2.73-.98-5.39-3.77a1.58 1.47 45.6 01-.06-2.14q.16-.16 1.04.38m-153.66 35.28 2.69-2.25a2.09 1.9-5.4 00.3-.33c5.62-8.25-.43-13.96-7-18.08-3.38-2.12-8.18-2.6-10.38 1.43a.72.71 34.1 00.18.9l5.32 4.25a.19.19 0 01-.12.33c-5.11.06-9.59.1-7.24 7.07q.09.26 2.23 5.01a.38.38 0 01-.51.5c-4.39-2.06-7.66-7.93-9.33-12.3a.39.39 0 00-.75.09q-1.23 9.61 6.02 14.97a.8.8 0 01-.06 1.34c-15.26 9.25-30.95 18.36-47.1 25.14q-4.43 1.86-9.27 2.55a.83.83 0 00-.72.82v.29a.81.8 86.5 00.9.8q3.59-.46 7.23-1.82 8.43-3.15 18.26-8.25 17.55-9.1 31.73-18.03.24-.15.99-.84a.7.7 37.5 01.8-.1q3.15 1.74 6.57 2.31 20.06 3.33 32.73-11.55a1.01 1 57.3 00.2-.93c-3.2-10.53-10.01-17.78-20.48-20.75-10.37-2.94-21.61-3.53-29.96 4.64a.5.5 0 00.49.83q2.31-.66 7.57-2.12c12.63-3.49 24.99 3.8 33.55 12.95q2.25 2.4 2.39 3.75c.57 5.51-13.31 7.92-17.03 7.94a.32.31-65.1 01-.2-.56m-46.15-14.32c-14.91 5.98-27.36 11.96-39.45 21.37a382 382 0 00-45.57 42.17q-11.47 12.4-4.51 27.6a2.76 2.76 0 002.99 1.57l.07-.01a1.9 1.89-16.3 001.43-2.61l-1.21-2.86a2.37 2.34-42.8 01.09-2.01c2.78-5.35 4.69-11.12 8.69-15.21q13.84-14.15 23.94-25.29 10.28-11.33 17.77-17.73 18.13-15.47 35.72-26.02.55-.33.44-.76a.3.3 0 00-.4-.21m-96.39 74.07a.43.43 0 00-.53-.43q-.4.09-.64.53c-2.66 5.06-5.13 10.17-4.54 15.26q.57 4.91.39 10.03a2 2 0 01-2.01 1.94h-1.98a3.4 3.4 13 00-3.09 1.93c-4.36 9.01 7.64 9.78 13.06 8.48q7.01-1.67 5.05-8.73c-1.81-6.52-3.89-11.05-4.94-17.28q-.96-5.67-.77-11.73"/><path fill="#fcea0a" d="M640.97 249.06a.82.82 0 01.49 1.12c-3.65 8.11-18.43 7.22-25.74 5.88q-19.07-3.51-19.94-3.64-6.85-1.01-10.77-.64c-4.99.48-6.97 4.84-8 9.4-2.05 9.06.18 14.88 2.71 25.29q2.07 8.48-5.67 11.28a1.5 1.49-18.3 01-1.95-.98c-2.1-7.26-8.17-9.93-15.11-10.97q-9.25-1.39-17.49-1.09c-23.85.87-51.41 6.77-71.04 7.04q-6.61.1-14.71-1.49-12.08-2.36-21.69-6.32c-6.64-2.73-12.99-6.22-17.24-11.68-2.64-3.39-4.36-9.79.05-12.64q2.32-1.51 7.17-2.04.3-.03 14.82-.28 1.39-.03 2.73-.47a1.77 1.76-12.9 001.19-1.89c-.38-2.98-5.34-4.43-8.63-5.32l-34.07-9.22q-8.61-2.33-14.6-4.62-24.2-9.22-30.41-33.57-.78-3.05-.45-5.62a1.73 1.73 0 011.75-1.51q2.94.06 6.14 1.17c4.09 1.41 14.18 5.64 16.35 2.05q.77-1.28-.28-2.42c-10.96-11.99-14.08-24.85-15.57-41.38-.47-5.19-1.89-33.27 10.23-28.43q1.87.75 4.2 3.35c5.25 5.85 6.5 14.22 8.39 22.04 2.14 8.84 6.12 15.3 12.82 21.66 13 12.35 19.9.75 23.36-10.87q1.81-6.08 4.59-18.91 1.34-6.2 3.51-11.2c2.11-4.83 7.38-10.05 12.91-5.64 9.6 7.66 6.69 23.5 8.16 34.23 1.25 9.14 4.48 21.27 10.42 28.65 11.6 14.39 22.04-12.45 24.51-20.01 3.99-12.16 6-19.18 10.58-28.41q2.45-4.95 5.77-8.34c7.58-7.74 13.08-.29 14.81 6.86q.72 2.97.29 10.03c-.38 6.29-1.58 15.67-1.14 22.73q.92 14.46 10.51 27.12 4.47 5.9 8.28 6.96c7.01 1.96 12.09-6.58 14.82-12.29q1.84-3.86 7.77-16.99 5.98-13.22 15.77-24.48 2.86-3.29 6.6-5.33c4.13-2.25 9.82-2.27 11.26 3.1q.73 2.73.32 6.42c-1.16 10.44-6.12 20.32-8.69 30.99q-3.45 14.3 2.32 27.83c2.21 5.2 4.68 11.05 8.54 14.22a3.43 3.15 48.6 003.73.4c4.34-2.52 7.7-9.41 10.1-14.13q3.88-7.61 11.41-10.07 1.64-.54 3.23 1.16 1.28 1.36 1.61 5.12c1.39 15.25 1.52 31.05 18.97 36.79"/><path d="m641.23 283.4 5.72-9.43a1.23 1.1 86.8 01.16-.2q2.16-2 3.53-4.74 3.91-3.44 5.38-4.25 1.45-.8 2.88-.9a.75.75 0 01.6 1.27q-4.58 4.81-7.97 9.39-3.86 5.22-2.91 11.87a.48.47-27.9 00.82.25q.78-.84 1.08-1.71 3.68-10.57 10.77-18.55a4.74 4.62-85 01.87-.75q7.19-4.79 10.89-5.97 6.95-2.2 21.26-5.27a.4.4-12.4 01.48.3v.02a.4.4 0 01-.28.47q-10.96 3.04-13.68 4.12-10 3.98-16.77 11.5-3.93 4.37-5.75 9.72-.16.49-.11.89a.32.32 0 00.57.15q6.39-8.45 15.25-14 .83-.52 1.65-1.47c.64-.75 1.54-.79 2.56-1.43q16.34-10.16 33.57-10.55 16.69-.37 36.07 3.04a.2.2 0 01.14.26l-.2.49-.02.01q-14.01-.68-29.29-.72c-14.13-.04-25.54 2.05-36.76 10.62a.36.35-41.1 00-.04.54l.2.21a.2.2 0 00.19.02q4.3-2.72 9.56-4.21 6.83-1.93 15.86-2.93 25.08-2.77 50.53 1.86 14.18 2.58 18.58 3.12 18.33 2.24 41.77-1.04c14.21-1.99 24.64-5.75 38.35-10.65a.4.4 0 01.55.42q-.04.54-.56 1.05-3.55 3.49-9.96 6.3-22 9.67-45.52 10.3c-8.21.22-16.4-.25-25.28-1.16q-17.88-1.83-26.46-2.86-18.45-2.22-27.55-1.52c-11.84.91-25.75 3.84-36.22 10.22q-5.19 3.17-7.76 7.31a15.4 15.4 0 00-1.96 12.51.84.83-9.2 01-.76 1.04c-10.88.72-22.41 1.18-34.25 3.33q-7.99 1.45-15.52 3.03a1.54 1.51 66.7 01-1.57-.64q-2.39-3.53-6.61-4.69c-9.09-2.49-17.89-2.78-26.88-2.51a.57.57 0 01-.33-1.05q3.29-2.09 7.08-2.95c8.99-2.05 17.47-1.61 26.77-.78a1.3 1.3 0 001.31-.72q1.48-2.94 3.3-5.88 3.8-6.12 11.22-6.94a.42.42 0 01.38.67q-1.14 1.51-3.07 2.74a2.42 2.36 89.3 00-.77.81q-2.06 3.63-1.23 8.09a.43.43 0 00.77.17z"/><path fill="#096733" d="M650.64 269.03q-1.37 2.74-3.53 4.74a1.23 1.1 86.8 00-.16.2l-5.72 9.43q3.29-8.27 9.41-14.37"/><path d="M724.31 317.6q-.22-.11-.4-.32-.72-.53-1.37-.25-.88-.54-1.04-.38a1.58 1.47 45.6 00.06 2.14q2.66 2.79 5.39 3.77 9.33 3.35 18.86 3.87a.42.42 0 01.08.83c-4.74 1.2-10.18.66-16.96.43q-4.74-.17-7.13-1.03c-4.65-1.68-7.4-3.69-11.25-6.66a.43.43 0 00-.69.39c.59 4.97 9.07 7.75 13.26 9.36a.49.49 0 01-.1.94c-8.96 1.4-35.82 2.75-33.33-13.55 1.74-11.36 11.99-10.32 20.82-10.56q5.44-.15 13.86-2.53 18.07-5.11 33.26-11.35c9.18-3.78 15.64-5.31 24.23-2.36q7.2 2.47 13.09 4.7 12.52 4.76 25.27 2.48a.36.36 0 01.4.25l.03.12a.34.34 0 01-.23.43q-15.31 4.49-30.65 2.14-7.04-1.08-8.63-1.47a.5.49 68.1 00-.38.9c4.37 2.79 10.84 3.02 16.05 2.67a.53.53 0 01.55.67l-.01.03a1.21 1.2-87.9 01-.91.85c-11.26 2.43-21.48.31-33.54-1.44a.7.65-47 00-.28.02l-.26.07a.6.6 0 00.01.98c7.13 5.16 15.03 4.62 24.94 4.65a.19.15 52 01.08.02l.62.22a.45.45 0 01-.03.86q-11.14 3.2-22.04 2.69c-4.87-.22-10.25-2.2-15.08-3.98a.7.7 0 00-.87.38q-.06.14-.02.49a1.1 1.04 25 00.21.53q3.07 3.78 8.35 4.47 9.3 1.21 19.04-.3a.63.63 0 01.71.48v.03a.64.64 0 01-.43.75q-7.91 2.51-16.86 3.2c-7.97.62-15.1-1.63-23-4.34a.57.57 0 00-.54.98c7.44 6.01 15.98 5.39 24.55 5.88q.81.05 1.19.33a.31.31 0 01-.13.56q-12.49 2.43-23.97 1.04a1.73 1.7-29.5 01-.48-.13q-2.08-.93-4.06-.94a2.93 2.75 54.6 01-1.09-.22z"/><path fill="#096733" d="m723.91 317.28-.95.03-.42-.28q.65-.28 1.37.25"/><path fill="#ffcf00" d="M723.91 317.28q.18.21.4.32-.67.21-1.35-.29z"/><path d="M569.08 352.87c3.72-.02 17.6-2.43 17.03-7.94q-.14-1.35-2.39-3.75c-8.56-9.15-20.92-16.44-33.55-12.95q-5.26 1.46-7.57 2.12a.5.5 0 01-.49-.83c8.35-8.17 19.59-7.58 29.96-4.64 10.47 2.97 17.28 10.22 20.48 20.75a1.01 1 57.3 01-.2.93q-12.67 14.88-32.73 11.55-3.42-.57-6.57-2.31a.7.7 37.5 00-.8.1q-.75.69-.99.84-14.18 8.93-31.73 18.03-9.83 5.1-18.26 8.25-3.64 1.36-7.23 1.82a.81.8 86.5 01-.9-.8v-.29a.83.83 0 01.72-.82q4.84-.69 9.27-2.55c16.15-6.78 31.84-15.89 47.1-25.14a.8.8 0 00.06-1.34q-7.25-5.36-6.02-14.97a.39.39 0 01.75-.09c1.67 4.37 4.94 10.24 9.33 12.3a.38.38 0 00.51-.5q-2.14-4.75-2.23-5.01c-2.35-6.97 2.13-7.01 7.24-7.07a.19.19 0 00.12-.33l-5.32-4.25a.72.71 34.1 01-.18-.9c2.2-4.03 7-3.55 10.38-1.43 6.57 4.12 12.62 9.83 7 18.08a2.09 1.9-5.4 01-.3.33l-2.69 2.25a.32.31-65.1 00.2.56m-46.35-14.88a.3.3 0 01.4.21q.11.43-.44.76-17.59 10.55-35.72 26.02-7.49 6.4-17.77 17.73-10.1 11.14-23.94 25.29c-4 4.09-5.91 9.86-8.69 15.21a2.37 2.34-42.8 00-.09 2.01l1.21 2.86a1.9 1.89-16.3 01-1.43 2.61l-.07.01a2.76 2.76 0 01-2.99-1.57q-6.96-15.2 4.51-27.6a382 382 0 0145.57-42.17c12.09-9.41 24.54-15.39 39.45-21.37"/><path fill="#fcea0a" d="M863.9 464.47a.17.17 0 01-.12.29h-32.37a.33.33 0 00-.33.35l.01.29a1.6 1.6 0 001.45 1.03l33.77.47a5 5 64.5 012.98 1.06l8.69 6.96a.55.55 0 01-.19.96c-20.74 6.09-45.3 6.71-64.99-3.16q-4.03-2.03-9.11-6.44a.07.07 0 00-.09.1q.42.47-.11-.16a.5.49-67.9 00-.87.37l3.83 40.84a.19.19 0 01-.3.17l-34.14-27.3a.71.71 0 00-1.14.46l-5.06 38.47a.63.63 0 01-1.08.36l-28.95-29.88a.65.64 24.1 00-1.11.42l-1.42 36.18a.46.46 0 01-.77.33l-33.36-30.04a.4.4 0 00-.67.31q.11 3.54.55 6.09 3.12 18.14 4.55 25.74.32 1.75.28 3.06a.43.43 0 01-.56.39q-5.05-1.63-8.33-4.15-7.61-5.84-16.82-14.64-4.1-3.93-7.86-6.15a.96.96 0 00-1.38.47q-1.49 3.78-2.93 8.73c-1.71 5.86-5.68 14.83-11.44 17.47a3.83 2.94-34.1 01-3.69-.22q-1.39-1.16-2.22-3.54c-1.07-3.02-2.99-8.76-4.91-13.21q-2.99-6.92-8.9-19.99c-3.12-6.92-5.27-13.19-7.58-19.86a1.8 1.8 0 00-1.55-1.21l-10.98-.97a.36.36 0 00-.4.35c-.38 12.35-.17 24.67-6.55 33.49q-3.91 5.4-11.33 8.42c-14.3 5.82-26.93 9.18-41.96 13.24q-6.18 1.66-12.09 2.71a.5.5 0 01-.6-.56q.83-7.58 1.83-18.32 1.8-19.4-11.73-32.84a1.85 1.84-33 00-1.95-.41c-9 3.44-20.05 3.82-29.63 3.74a2.55 2.51 20.7 00-1.92.85q-1.76 2.01-2.86 3.11c-13.98 14.03-30.99 13.43-46.61 3.26a7.93 7.91-74.9 01-3.59-6.27l-.02-.37a2.48 2.48 0 013.6-2.33q7.72 3.89 16.43 7.97 4.26 2 6.16 2.16c9.04.78 17.83-7.58 22.26-14.2a3.3 3.3 0 012.61-1.48q7.81-.38 19.92-1.38 13.05-1.08 24.73-5.41a.4.4 0 01.5.2q9.1 18.11 11.56 37.63.52 4.08.21 9.26-.24 3.84-3.43 5.96a.55.55 0 00.17.99c9.99 2.38 6.69-18.74 5.84-23.25-1.76-9.44-3.61-18.98-3.62-28.93q0-3.26 1.09-5.77a1.24 1.24 0 011.78-.56q1.78 1.07 2.79 2.99c7.61 14.39 9.81 31.2 5.44 46.2q-1.09 3.73-3.33 5.44a.57.57 0 00.31 1.02c2.85.17 5.55-4.15 6.61-6.71 5.32-12.92 2.83-27.08 1.3-40.87-.17-1.57-.79-6.95 1.41-8 2.63-1.26 5.12.5 6.73 2.81 2.8 4 3.62 9.33 4.38 15.17q1.22 9.36.15 18.77-.97 8.53-8.36 12.43a.48.48 0 00.23.91c11.49 0 11.56-10.63 11.93-19.59q.41-9.68.13-24.75-.04-1.99.84-4.7a.84.83-82.3 01.75-.58c10.48-.57 7.91 23.93 7.39 29.77q-.53 5.97-1.61 9.15c-.9 2.65-3.76 3.48-6.58 4.23a.79.77 72.7 00-.52 1.03q.08.21.42.24c16.15 1.5 16.87-19.1 18.32-31.56.28-2.34 1.55-9.05 4.1-10.45q2.49-1.37 5.65-.72c22.6 4.62 43.47-3.38 53.75-24.62a4.26 4.24-88.4 012.17-2.06c13.87-5.86 26.33-16.08 32.93-29.8a1.03 1.03 0 00-.4-1.33l-.04-.03a.9.9 0 00-1.27.4q-6.4 13.68-20.21 22.78-7.44 4.9-10.2 5.7a.6.6 0 01-.72-.8l3.57-8.99a2.45 2.42 87 011.12-1.26q15.52-8.29 22.08-26.64a.98.97-69.7 00-.56-1.23l-.31-.13a.75.74-70 00-.98.46c-3.21 9.59-10.43 20.41-19.77 25.16a.35.35 0 01-.5-.37l3.79-19.6a5.5 5.5-17.6 011.45-2.79q6.02-6.25 14.18-10.04a.82.82 55.6 00.24-1.31l-.27-.28a.73.72 58 00-.74-.18c-4.79 1.63-8.22 4.96-13.42 9.07a.34.34 0 01-.55-.31c.99-9.16 7.84-14.45 15.74-18.16a.7.7 0 00.2-1.1l-.23-.23a.97.96 55.4 00-1.1-.21q-7.49 3.45-12.59 9.49a.31.3 69 01-.53-.24l1.14-8.69a1.92 1.9 69.7 01.44-.97c7.52-8.82 18.03-13.48 28.48-17.59a.75.75 0 00.26-1.22l-.27-.28a.6.6 0 00-.64-.16c-9.24 3.13-19.52 7.9-26.34 15.12q-.25.27-.8.4a.4.4 0 01-.48-.43q.77-6.5 2.81-13.28c3.35-11.15 14.43-12.86 24.51-11.97q15.36 1.36 28.26 5.77.32.11.64.38a.41.41-29.4 01-.2.71q-9.82 1.6-15.85 9.85a1.06 1.05-48.9 00.09 1.36l.24.24a.59.58-49.3 00.9-.07q6-8.64 16.6-9.87a8.62 8.6 58.6 015.77 1.4l5.49 3.7a1.1 1.09-29.5 01-.56 2q-10.76.59-24.64 7.59a.88.87 54.6 00-.23 1.39l.25.26a.57.55 53.6 00.67.11q9.59-5.05 22.53-7.88a8.07 8.04 55.6 016.21 1.17l1.97 1.31a1.49 1.49 0 01-.56 2.71q-10.06 1.79-21.6 8.08a.77.76 53.7 00-.18 1.21l.25.26a.6.6 0 00.72.14q10.22-4.57 10.53-4.72 4.59-2.33 11.99-3.82a3.1 3.1-27.6 012.85.89l5.14 5.3a.76.76 0 01-.54 1.29q-8.54.12-18.12 4.1a.8.8 0 00-.26 1.28l.3.32a.62.61-34 00.7.13q9.41-4.15 18.12-3.94a1 1 0 00.79-.3l.47-.46a.49.48-43.7 01.68.01l4.76 4.91a.33.33 0 01-.15.55q-8.16 2.21-15.21 5.9a2.47 2.45-6.5 00-1.22 1.52l-.05.18a.53.53 0 00.74.62c7.26-3.31 10.91-5.4 16.6-6.41a2.3 2.3 0 012.08.67l5.62 5.8a.64.63-26.5 01-.36 1.07q-12.14 1.88-24.04 7.58a.7.69-34.9 00-.2 1.11l.25.25a.75.74-32.8 00.83.17q12.74-5.48 21.69-7.13 1.13-.21 4.22.01a1.3 1.3 0 01.85.4l4.9 5.06a.34.33 61.3 01-.16.56q-8.04 1.88-16.27 6.45a.79.78-36.5 00-.19 1.23l.29.29a.45.44-33.6 00.52.1c7.83-3.62 11.64-5.93 17.58-6.23a1.72 1.7 63.9 011.23.43l5.35 4.82a.35.35 0 01-.24.61c-4.99-.16-12.24 3.81-17.13 6.94a.86.86 0 00-.16 1.33l.21.22a.52.51-36 00.62.09c5.28-2.82 9.36-5.74 16.42-6.74a6.23 6.21 56.8 014.13.87l2.95 1.83a.88.88 0 01-.37 1.62c-6.49.71-11.99 3.98-18.14 6.87a.7.7 0 00-.2 1.11l.23.24a.96.95 54.4 001.11.19c6.89-3.44 11.88-6.33 18.73-6.92a5.25 5.22 61.8 013.73 1.14l5 3.99a.69.69 0 01-.45 1.23q-10.78-.24-21.8 5.62a.83.82 54 00-.2 1.3l.27.27a.72.71 53.9 00.86.14c6.99-3.69 16.24-6.83 23.95-5.08 3.27.75 7.11 4.38 9.51 6.46a.51.51 0 01-.41.89q-13.65-1.8-25.94 4.57a.63.63 0 00-.13 1.03l.25.23a.98.97 53.4 001.06.16c12.07-5.46 25.92-7.91 35.63 2.1a.28.28 0 01-.21.48q-1.75-.09-4.35-.29-9.55-.75-19.44 2.69a1.09 1.08-16.2 00-.71 1.28l.01.04a.9.89 73.3 001.16.63q10.28-3.63 20.03-2.92c6.05.44 9.76 2.36 14.17 6.33a.29.29 0 01-.26.5c-9.82-2.09-19.8-.19-29.26 3a.94.92-15.8 00-.62 1.09l.02.07a.77.76-14.8 00.97.56c11.07-3.44 26.02-6.75 36.47.08q4.68 3.06 7.85 6.12"/><path d="M426.34 412.06q-.19 6.06.77 11.73c1.05 6.23 3.13 10.76 4.94 17.28q1.96 7.06-5.05 8.73c-5.42 1.3-17.42.53-13.06-8.48a3.4 3.4 13 013.09-1.93h1.98a2 2 0 002.01-1.94q.18-5.12-.39-10.03c-.59-5.09 1.88-10.2 4.54-15.26q.24-.44.64-.53a.43.43 0 01.53.43"/><path fill="#fcea0a" d="M444.87 449.86a.28.28 0 01-.36-.36q5.03-12.94 13.66-23.83c2.59-3.28 6.31-7.06 10.49-8.23 10.94-3.07 21.83-1.15 28.62 8.07q1.4 1.89 1.76 3.24a.7.7 0 01-.38.84q-2.51 1.18-3.77 1.56-18.57 5.63-22.65 6.36c-11.17 2.01-19.55 2.83-26.33 11.64q-.33.43-1.04.71m49.51 4.86a.2.2 0 01.12.35q-7.57 6.27-16.94 10.21-2.16.9-9.09 2.82c-7.64 2.12-31.92 11.03-23.22 22.75a1.51 1.5-42.4 01-.09 1.91q-8.02 8.89-19.02 16.14c-13.42 8.83-29.16 9.23-42.14-.65q-2.7-2.06-4.38-5.8c-1.56-3.47-.43-7.53 4.15-6.75q2.14.36 5.54 1.2c10.2 2.54 17.74-1.51 25.56-7.79q4.69-3.76 17.32-15.91 6.47-6.22 14.93-12.04 11.4-7.84 24.81-8.28 3.78-.13 11.24.89 4.96.67 11.21.95"/><path fill="#ffcf00" d="m639.58 597.87 23.81 24.29a.29.29 0 01-.18.49q-6.4.49-11.46 3.41a5.4 5.37-4.2 00-2.29 2.64l-1.2 3.04a1.17 1.17 0 001.6 1.48q4.64-2.28 9.64-2.83c9.21-1 16.03 3.07 21.97 9.59a.53.53 0 01-.26.87c-6.41 1.67-13.63 5.29-15.69 11.71-2.25 7 2.88 13.27 9.12 16 6.09 2.66 11.98.37 15.54-5.22q2.7-4.22 3.49-9.92a.52.52 0 01.91-.27c6.51 7.53 11.28 14.89 8.88 25.33q-.86 3.76-2.81 7.69-.16.32-.1.57a.76.76 0 001 .53q10.21-3.83 10.9-14.96a.41.41-65.6 01.69-.26l22.91 22.92a.5.5 0 010 .74l-23.54 23.55a.41.41 0 01-.7-.27c-.34-6.55-3.45-13.91-10.61-15.21a.64.63 82.7 00-.69.9q9.1 19.29-6.42 32.61a.6.6 0 01-.98-.35q-1.24-7-5.51-12.2-3.32-4.05-8.31-4.78a2.96 2.88 42.4 00-.99.03q-12.67 2.71-13.28 15.68-.06 1.29 1.23 3.95c2.58 5.26 9.69 8.55 15.37 9.47a.43.43 0 01.25.71q-13.62 15.04-33.28 6.68a.54.54 0 00-.75.52c.22 6.73 8.31 9.85 14.18 10.72a.4.4 0 01.23.68l-22.98 23.69-24.24-24.18a.44.44 0 01.28-.75c6.5-.52 13.41-3.13 14.92-10.18a.53.53 0 00-.74-.6c-4.09 1.86-9.2 3.49-13.67 3.34-8.35-.27-13.96-4.25-19.4-10.31a.48.48 0 01.31-.8q8.44-.88 13.57-6.99 4.1-4.87 1.81-12.23c-1.75-5.62-8.88-10.13-14.95-8.77-7.58 1.69-12.07 9.32-11.75 16.77a.42.41 22 01-.72.3c-9.72-10.23-14.07-21.01-6.89-34.32a.56.56 0 00-.62-.82c-7.51 1.75-10.3 8.97-10.85 15.82a.34.34 0 01-.58.21l-23.78-23.78a.6.6 0 01.01-.85l24.05-23.31a.41.41 64.2 01.68.24c.77 5.52 3.7 14.84 10.74 14.78a.49.48-12.8 00.44-.69c-5.65-12.09-4.39-24.55 6.96-32.78a.36.36 0 01.56.21c2.05 8.88 8.7 22.03 20.3 15.13 6.59-3.92 11.09-13.29 4.95-19.69q-5.28-5.5-13.87-6.98a.59.58-64.6 01-.34-.97q13.39-15.17 33.35-6.83a.5.49 11.4 00.68-.45c.03-3.39-1.97-4.47-3.94-6.78a2.6 2.54 83.1 00-.81-.65q-4.43-2.32-9.67-3a.4.39 25.4 01-.24-.66q12.77-13.2 22.88-23.32.34-.35.88-.33"/></svg>