<svg xmlns="http://www.w3.org/2000/svg" viewBox="0 0 1504 1046"><g fill="none" stroke-width="2"><path stroke="#034167" d="M1504 675.55 0 675.56M729.95 69.54l-1.45-3.29c-3.7-7.58-11.42-9.22-19.22-8.44q-24.29 2.42-41.52 18.17c-4.48 4.09-7.47 7.17-10.77 12.03q-7.44 10.95-10.01 24.32-4.05 21.13 5.52 40.98c2.76 5.72 7.51 11.37 11.24 15.94q2.06 2.54 6.07 5.53a2.7 2.7 0 011.06 1.95c.28 4.43.66 9.04 3.05 12.75a1.13 1.11-53.3 01.13.95q-1.92 6 .89 10.37 1.8 2.78 8.67 5.72 8.75 3.74 21.42 6.21 17.93 3.51 27.25 3.67 7 .12 24.84-.14 11.4-.16 16.74-.84c12.94-1.65 25.65-3.64 37.55-8.3q3.56-1.39 5.41-1.98a3.86 3.8-70.2 00.94-.45q7.25-4.83 4.31-13.98a1.32 1.26-43.7 01.04-.88q2.87-6.54 2.83-12.63a1.51 1.49-23.1 01.43-1.05q7.79-7.79 11.39-11.91 9.52-10.86 12.5-26.21c2.53-13.05 2.16-27.35-3.2-39.3-2.6-5.79-5-11.03-9.11-15.62-6.16-6.87-12.17-12.73-19.58-16.76q-9.17-5-20.07-7.88-7.46-1.98-18.47-1.14c-5.69.43-10.6 3.21-12.48 8.24q-.85 2.27-1.29 3.32a.44.44 0 01-.84-.07q-.57-2.5-1.13-6.76-1.12-8.46-4.75-15.36a2.56 2.53-58.3 01-.29-1.26q.23-7.67-3.54-15.42a1.16 1.16 0 011.06-1.67q5.01.04 9.48-4.32a1.07 1.07 0 00-.03-1.55q-3.15-2.89-6.28-4.03a2.64 2.62 49.9 00-1.35-.12l-2.55.44a.75.74 77.5 01-.84-.54c-1.07-4.03-1.35-7-4.41-10.19-1.69-1.76-3.26-.75-4.64.72q-3.7 3.93-3.92 9.51a.55.55 0 01-.64.52c-3.44-.51-8.05.46-9.86 3.64a1.8 1.79 34.4 00.43 2.28q4.42 3.57 8.39 3.68a1.35 1.35 0 011.19 1.91q-3.79 8.33-3.9 15.63a2.65 2.61 60 01-.31 1.2c-3.48 6.52-4.78 14.76-5.93 22.35a.24.24 0 01-.45.06m.21 201.05-18.1-.09a.58.55-32.6 01-.21-.04q-1.75-.86-1.73-2.48.2-12.73.17-17.97c-.03-5.8-2.09-10.98-8.6-10.97q-13.28.02-33.43-.09-4.13-.02-8.25.12c-5.88.18-8.12 2.63-8.13 8.93q-.03 20.94.16 23.95.31 4.74 4.34 6.71a3.42 3.35 57.8 001.34.32q8.87.2 11.07-.17 3.61-.6 5.9-4.56a3.22 3.19 60.8 00.42-1.51c.07-3.17-.55-7.47 1.5-8.75a1.69 1.67 28.4 01.9-.26h5.87a2.49 2.48 86.3 012.46 2.17c.49 3.89-.86 8.82 2.98 11.89 1.38 1.09 3.7.86 5.45 1.13a2 2 2.7 011.71 1.87q.72 10.94-.13 21.69a2.3 2.3 0 01-1.91 2.08l-3.94.68a.91.87 19.7 00-.36.16c-4.9 3.46-3.51 7.35-3.64 12.5a2.7 2.7-7.7 01-1.94 2.54q-2.46.74-5.55.36c-3.96-.5-3.59-4.69-3.55-7.6.05-4.43-1.57-8.14-6.71-8.16-3.13-.02-9.86-.63-12.24.48q-4.04 1.88-4.08 6.2-.15 15.97.01 25.29c.12 7.2 6.4 8.02 12.06 7.96q20.41-.23 37.99.06c3.71.06 7.7-3.03 8.19-7.02q.35-2.78.25-4.77-.26-4.95-.1-19.47.03-3.32-.18-7.52a2.2 2.2 0 011.34-2.17q.91-.39 3.01-.38l14.46.27a2.4 2.4 79.3 012.13 1.46q.56 1.37.55 3.3-.34 62.83-.08 163.78c.02 6.88-1.16 14.09-8.45 16.67a2.32 2.29-34.5 01-2.27-.41c-11.75-9.96-26.59-15.2-41.61-8.83q-6.78 2.87-10.92 6.11-13.51 10.54-20.99 27.07-5.15 11.38-7.32 21.08-8.06 36.07 4.02 70.94 3.57 10.32 10.37 19.56 5.35 7.29 10.22 11.59c8.94 7.9 21.37 12.25 33.17 11.18 10.19-.93 21.37-7.64 27.74-15.51a.93.92-49.9 011.33-.12c4.28 3.73 9.15 8.08 11.44 13.64a.9.9 0 01-.24 1.02c-8.01 6.85-1.59 14.59 5.85 17.19 6.38 2.23 12.67-1.34 15.67-7.13 2.03-3.93.26-7.37-2.57-10.23a1.3 1.3 0 01-.26-1.48c2.42-5.34 7.98-9.7 12.57-13.3a.83.83 0 011.13.09c6.09 6.73 15.04 12.69 24 14.7q14.32 3.22 27.97-4.42c8.03-4.49 13.27-10.58 18.95-18.06q3.64-4.79 7.2-12.57c11.46-25.06 12.79-53.9 6.25-80.61a114 114 0 00-8.82-23.13q-5.9-11.35-16.37-20.61c-9.81-8.67-25.7-12.62-37.94-8.49q-9.91 3.34-18.17 10.74a1.33 1.32 29.9 01-1.16.31c-6.69-1.39-9.27-7-9.27-13.29q.02-115.66-.04-213.98a4.72 4.65 26.5 00-.98-2.86q-4.87-6.36-1.76-14.1c1.1-2.71 4.39-4.3 5.66-7q3.3-7-1.88-12.78a3.85 3.56 83.3 00-.76-.65q-6.34-4.06-13.8-4.44c-7.78-.4-17.59.63-21.21 9.1-1.63 3.81-.6 8.56 2.57 11.63 2.33 2.25 4.34 4.14 4.44 7.85q.11 4.37-.84 6.64a1.47 1.06 80.8 01-.12.24l-2.38 3.85a2.8 2.76-29.6 00-.41 1.45v8.02a1.41 1.4-89.8 01-1.41 1.41" vector-effect="non-scaling-stroke"/><path stroke="#6d5302" d="M733.26 64.8q-.76 3.48-1.21 7.07-.07.5-.34.63-.3.14-.78.06" vector-effect="non-scaling-stroke"/><path stroke="#816302" d="M730.93 72.56q-1.14.2-2.1-.16a1.2 1.2 0 01-.7-.7q-1.59-4.41-2.36-5.46c-3.14-4.29-6.91-5.33-12.28-5.44-16.31-.33-33.57 7.72-45.15 18.76-17.37 16.55-23.58 41.6-16.17 64.59" vector-effect="non-scaling-stroke"/><path stroke="#6d5302" d="M652.17 144.15q5.55 16.6 18.03 27.91" vector-effect="non-scaling-stroke"/><path stroke="#816302" d="m670.2 172.06 2.42 2.18a1.74 1.71-71.6 01.55 1.12q.51 6.11 2.57 12.22a.34.33 73 00.41.22l23.73-6.56" vector-effect="non-scaling-stroke"/><path stroke="#6d5302" d="M699.88 181.24q20.17-3.64 40.65-4.29 12.88-.41 25.89.79 12.92 1.19 25.69 3.53 4.25.77 8.29 1.76" vector-effect="non-scaling-stroke"/><path stroke="#816302" d="m800.4 183.03 19.12 5.95a.47.47 0 00.6-.35l1.71-7.37" vector-effect="non-scaling-stroke"/><path stroke="#6d5302" d="m821.83 181.26.62-6.05a.91.88-21.7 01.23-.51l1.21-1.31" vector-effect="non-scaling-stroke"/><path stroke="#816302" d="M823.89 173.39q2.75-1.98 5.89-5.36c9.85-10.62 16.75-23.79 17.67-38.24.52-8.3.09-16.52-2.36-24.57q-1.9-6.24-2.99-8.3-3.29-6.21-8.65-13.01c-6.42-8.16-15.61-14.2-24.54-18.57q-4.48-2.19-9.14-3.23" vector-effect="non-scaling-stroke"/><path stroke="#6d5302" d="M799.77 62.11c-6.65-1.63-14.41-3.06-21.2-2.03q-5.03.77-7.82 3.53-3.24 3.19-4.17 8.21" vector-effect="non-scaling-stroke"/><path stroke="#816302" d="M766.58 71.82q-2.01.66-3.37.55a.76.76 0 01-.69-.64q-1.13-7.14-2.48-14.52-1.1-5.99-4.45-10.62a1.66 1.65 31.3 01-.3-1.22q.53-3.72.26-5.07-1.18-5.99-3.29-10.04a1.1 1.09 54.9 01.22-1.29q1.04-.99 1.33-2.22a1.27 1.27 0 011.47-.97q3.71.67 7.18-2.35a.49.48 44.6 00-.01-.74q-4.58-3.78-9.59-1.24a.89.89 0 01-1.28-.93q.96-6.11-3.32-10.99a.94.94-44 00-1.39-.02q-4.54 4.86-3.31 10.88a.92.91-.8 01-1.06 1.08q-1.52-.26-2.69-.69c-2.6-.96-4.79.24-6.96 2a.47.47 0 000 .72q2.63 2.13 4.62 2.79c1.13.37 2.05-.56 3.1-.62a.84.82 77.4 01.84.55l1.11 3.02a1.95 1.92 48.1 01-.07 1.52q-1.17 2.42-2.65 7.04-1.11 3.51.23 6.88a.17.16-43.2 01-.01.16q-3.41 5.52-4.48 9.47-1.41 5.17-2.28 10.49" vector-effect="non-scaling-stroke"/><path stroke="#ebb200" d="M766.58 71.82q8.52.98 11.55-3.04" vector-effect="non-scaling-stroke"/><path stroke="#816302" d="M778.13 68.78q-.51 4.31 3.24 6.15 1.82.89 3.58-.03 4.83-2.51 2.75-7.33" vector-effect="non-scaling-stroke"/><path stroke="#ebb200" d="M787.7 67.57q4.24-1.56 8.91-1.51" vector-effect="non-scaling-stroke"/><path stroke="#816302" d="M796.61 66.06q-2.18 4.48 1.6 6.92 3.94 2.55 6.66-1.11 2.56-3.43-.67-6.6-2.62-2.59-5.71-.93" vector-effect="non-scaling-stroke"/><path stroke="#ebb200" d="M798.49 64.34q-.04-1.36 1.28-2.23m24.12 111.28q-3.26.4-2.03-4.65.74-3.03 5.19-9.21" vector-effect="non-scaling-stroke"/><path stroke="#816302" d="M827.05 159.53q4.93 1.29 6.64-2.33c1.7-3.61-.01-7.57-4.02-8.26a2.3 2.3 0 00-1.12.08q-5.92 1.89-4.3 7.9" vector-effect="non-scaling-stroke"/><path stroke="#ebb200" d="M824.25 156.92q-3.64 5.34-8.77 9.06" vector-effect="non-scaling-stroke"/><path stroke="#816302" d="M815.48 165.98c-.76-8.56-11.68-7.6-10.85.97" vector-effect="non-scaling-stroke"/><path stroke="#ebb200" d="M804.63 166.95q-.97.25-1.54-.7a.77.76-22.6 00-.84-.34c-.93.24-1.63 1.22-2.67 1.42q-3.21.62-6.59 1.71a1.43 1.42 49.9 01-1.12-.1l-4.71-2.59a1.38.91 56.6 00-.28-.12q-4.75-1.47-8.85-2.66-1.12-.32-2.25-1-1.1-.66-2.04-1.35-3.41-2.54-9.37-5.83c-5.05-2.8-7.1-6.37-9.35-11.32a6.23 6.16-80.5 00-1.34-1.9q-4.49-4.39-5.86-10.25a.72.72 0 00-1.37-.09l-2.33 6.2a4.62 4.43-19.4 01-.47.93c-4.09 6.17-6.95 10.14-11.83 14.91q-3.2 3.13-9.41 6.14-8.84 4.28-17.35 6.83a58 58 0 00-8.24 3.44 1.02 1.01 67.1 00-.51 1.27l3.57 9.69m-29.68-9.18 2.35-6.98" vector-effect="non-scaling-stroke"/><path stroke="#816302" d="M672.55 165.08c3.81 4.67 10.68 1.52 9.49-4.22-1.15-5.52-8.52-5.26-10.2-.25" vector-effect="non-scaling-stroke"/><path stroke="#ebb200" d="m671.84 160.61-7.61-8.32" vector-effect="non-scaling-stroke"/><path stroke="#816302" d="M664.23 152.29q2.81-1.61 3.19-4.34c.4-2.91-1.88-6.31-4.93-6.3q-3.98.01-5.66 4.72" vector-effect="non-scaling-stroke"/><path stroke="#ebb200" d="M656.83 146.37q-2.64-.01-4.66-2.22m78.76-71.59q.79 1.08.84 2.18" vector-effect="non-scaling-stroke"/><path stroke="#816302" d="M731.77 74.74c-7.71-2.2-10.84 9.71-2.33 10.55q3.4.34 5.23-3.73" vector-effect="non-scaling-stroke"/><path stroke="#ebb200" d="M734.67 81.56c1.81 2.33 3.76 4.97 6.84 5.47q2.85.47 7.67.31c4.11-.14 12.01-4.55 9.74-10.24a1.42 1.4-87.1 00-.63-.71c-6.58-3.62-13.2-6.6-19.55-10.46q-2.52-1.53-5.48-1.13" vector-effect="non-scaling-stroke"/><path stroke="#6d5302" d="M734.67 81.56q.71-4.39-2.9-6.82m66.72-10.4-1.88 1.72m-8.91 1.51q-2.43-3.53-5.7-2.67-2.29.6-3.87 3.88m-113.9 83.51c-3.98 1.37-8.26-1.66-7.4-5.92m15.01 14.24q-.16 2.41.71 4.47m132.08 1.87c2.53 5.42 9.34 4.87 10.85-.97m8.77-9.06 2.8 2.61" vector-effect="non-scaling-stroke"/><path stroke="#ebb200" d="m821.83 181.26-.3-2.01a.11.11-28.3 00-.18-.05l-.19.18a.12.12 0 01-.17-.05l-.16-.31a.4.4 0 00-.56-.15q-1.84 1.29-2.84.71-9.88-5.74-17.03 3.45" vector-effect="non-scaling-stroke"/><path stroke="#816302" d="M700.72 182.96q-11.88 1.98-22.82 6.05a3.02 3.01 85.4 00-1.89 2.23q-.63 3.2.03 7.24a.6.59 16.5 00.21.38l3.71 3.09a.86.84-39.5 00.95.08q6.44-3.6 15.62-5.72 11.63-2.7 21.64-3.96" vector-effect="non-scaling-stroke"/><path stroke="#6d5302" d="M718.17 192.35q33.7-4 66.99 1.69" vector-effect="non-scaling-stroke"/><path stroke="#816302" d="M785.16 194.04q15.14 2.49 29.04 8.56a1.49 1.48 43.3 001.26-.03q2.49-1.25 4.57-3.8a.84.83 65 00.19-.53v-6.45a1 1 0 00-.59-.88q-10.43-4.26-21.32-6.8" vector-effect="non-scaling-stroke"/><path stroke="#6d5302" d="M798.31 184.11q-13.18-3.17-26.6-4.7c-4.03-.46-7.7-.23-11.61-.65q-2.92-.31-8.72-.37c-17.39-.18-33.77.99-50.66 4.57" vector-effect="non-scaling-stroke"/><path stroke="#ebb200" d="M798.31 184.11c-.47 3.45 1.55 5.66 4.1 7.91a.65.65 0 01-.07 1.03l-.22.14a1.98 1.97 86.1 00-.72.83q-.89 1.86-2.48 1.27-7.6-2.83-13.76-1.25m-66.99-1.69-18.44-3.25a.82.82 0 01-.64-1.06l1.63-5.08" vector-effect="non-scaling-stroke"/><path stroke="#816302" d="M747.26 213.74q14.31.07 32.74-1.83 15.96-1.65 30.88-7.44a.47.47 0 00.01-.88q-11.3-4.67-24.16-7.02-19.2-3.5-39.38-3.59-20.17-.09-39.41 3.24-12.88 2.23-24.22 6.79a.47.47 0 000 .88q14.87 5.93 30.82 7.72 18.4 2.07 32.72 2.13M705.95 69.06a5.13 5.13 0 00-5.13-5.13 5.13 5.13 0 00-5.13 5.13 5.13 5.13 0 005.13 5.13 5.13 5.13 0 005.13-5.13m9.32-3.61a5.27 5.1-112.1 00-2.75 6.8 5.27 5.1-112.1 006.71 2.96 5.27 5.1-112.1 002.75-6.8 5.27 5.1-112.1 00-6.71-2.96" vector-effect="non-scaling-stroke"/><path stroke="#816302" d="M686.14 72.01a5.36 5.14-110.2 00-2.97 6.8 5.36 5.14-110.2 006.67 3.26 5.36 5.14-110.2 002.97-6.8 5.36 5.14-110.2 00-6.67-3.26m127.38 1.59a5.26 5.05-88.3 00-5.2 5.1 5.26 5.05-88.3 004.88 5.4 5.26 5.05-88.3 005.2-5.1 5.26 5.05-88.3 00-4.88-5.4m-49.54.97a5.39 5.06-120 00-1.7 7.2 5.39 5.06-120 007.09 2.14 5.39 5.06-120 001.68-7.2 5.39 5.06-120 00-7.07-2.14m-53.64 3.69a5.34 5.07-54.5 00-7.23 1.4 5.34 5.07-54.5 001.03 7.3 5.34 5.07-54.5 007.23-1.4 5.34 5.07-54.5 00-1.03-7.3" vector-effect="non-scaling-stroke"/><path stroke="#816302" d="M792.24 78.53a5.39 5.25-118.3 00-2.06 7.24 5.39 5.25-118.3 007.18 2.26 5.39 5.25-118.3 002.06-7.24 5.39 5.25-118.3 00-7.18-2.26m-111.08 7.54a5.04 5.04 0 00-5.04-5.04 5.04 5.04 0 00-5.04 5.04 5.04 5.04 0 005.04 5.04 5.04 5.04 0 005.04-5.04m144.3.98a5.39 5.12-72.4 00-6.51 3.6 5.39 5.12-72.4 003.25 6.68 5.39 5.12-72.4 006.51-3.6 5.39 5.12-72.4 00-3.25-6.68" vector-effect="non-scaling-stroke"/><path stroke="#816302" d="M778.46 88.25a5.34 5.08-89.4 00-5.14 5.29 5.34 5.08-89.4 005.02 5.39 5.34 5.08-89.4 005.14-5.29 5.34 5.08-89.4 00-5.02-5.39m-53.26 5.59a5.14 5.14 0 00-5.14-5.14 5.14 5.14 0 00-5.14 5.14 5.14 5.14 0 005.14 5.14 5.14 5.14 0 005.14-5.14m19.26.08a5.2 5.2 0 00-5.2-5.2 5.2 5.2 0 00-5.2 5.2 5.2 5.2 0 005.2 5.2 5.2 5.2 0 005.2-5.2m10.99-5.36a5.33 5.13-91.2 00-5.02 5.44 5.33 5.13-91.2 005.24 5.22 5.33 5.13-91.2 005.02-5.44 5.33 5.13-91.2 00-5.24-5.22m-59.37 1.75a5.41 5.12-83.9 00-5.66 4.84 5.41 5.12-83.9 004.52 5.92 5.41 5.12-83.9 005.66-4.84 5.41 5.12-83.9 00-4.52-5.92m109.12 2.72a5.61 5.31-84 00-5.87 5.03 5.61 5.31-84 004.7 6.13 5.61 5.31-84 005.86-5.02 5.61 5.31-84 00-4.7-6.14m-140.57.92a5.46 5.22-117.6 00-2.1 7.26 5.46 5.22-117.6 007.16 2.42 5.46 5.22-117.6 002.1-7.26 5.46 5.22-117.6 00-7.16-2.42m49.74 8.88a5.39 5.09-70.1 00-6.62 3.34 5.39 5.09-70.1 002.96 6.8 5.39 5.09-70.1 006.62-3.34 5.39 5.09-70.1 00-2.96-6.8m118.53.34a5.24 5.1-65.3 00-6.82 2.63 5.24 5.1-65.3 002.44 6.9 5.24 5.1-65.3 006.82-2.64 5.24 5.1-65.3 00-2.44-6.9m-43.24 5.1a5.24 5.24 0 00-5.24-5.24 5.24 5.24 0 00-5.24 5.24 5.24 5.24 0 005.24 5.24 5.24 5.24 0 005.24-5.24m-52.59 1.58a5.2 5.2 0 00-5.19-5.19 5.2 5.2 0 00-5.19 5.19 5.2 5.2 0 005.19 5.19 5.2 5.2 0 005.19-5.19m24.03-4.94a5.33 5.15-84.3 00-5.65 4.8 5.33 5.15-84.3 004.6 5.81 5.33 5.15-84.3 005.64-4.79 5.33 5.15-84.3 00-4.6-5.81m-74.71.47a5.29 5.05-102 00-3.84 6.22 5.29 5.05-102 006.04 4.12 5.29 5.05-102 003.84-6.22 5.29 5.05-102 00-6.04-4.12m-23.36 2.76a5.42 5.19-77.7 00-6.22 4.2 5.42 5.19-77.7 003.92 6.4 5.42 5.19-77.7 006.22-4.2 5.42 5.19-77.7 00-3.92-6.4m152.01 5.48a5.26 5.26 0 00-5.26-5.26 5.26 5.26 0 00-5.26 5.26 5.26 5.26 0 005.26 5.26 5.26 5.26 0 005.26-5.26m-63.09 4.8a5.3 5.3 0 00-5.31-5.31 5.3 5.3 0 00-5.31 5.31 5.3 5.3 0 005.31 5.31 5.3 5.3 0 005.31-5.31m87.3 4.32a5.25 5.25 0 00-5.25-5.25 5.25 5.25 0 00-5.25 5.25 5.25 5.25 0 005.25 5.25 5.25 5.25 0 005.25-5.25m-131.33-4.68a5.48 5.12-77.4 00-6.19 4.23 5.48 5.12-77.4 003.8 6.47 5.48 5.12-77.4 006.2-4.23 5.48 5.12-77.4 00-3.8-6.47m80.33 2.88a5.38 5.2-96.5 00-4.56 5.94 5.38 5.2-96.5 005.78 4.76 5.38 5.2-96.5 004.56-5.94 5.38 5.2-96.5 00-5.78-4.76m-106.43 1.2a5.4 5.19-95.6 00-4.64 5.88 5.4 5.19-95.6 005.7 4.86 5.4 5.19-95.6 004.64-5.88 5.4 5.19-95.6 00-5.7-4.86m51.39 5.35a5.3 5.3 0 00-5.28-5.28 5.3 5.3 0 00-5.28 5.28 5.3 5.3 0 005.28 5.28 5.3 5.3 0 005.28-5.28m-73.55-3.73a5.46 5.2-93.2 00-4.9 5.74 5.46 5.2-93.2 005.5 5.16 5.46 5.2-93.2 004.9-5.74 5.46 5.2-93.2 00-5.5-5.16m108.19.21a5.31 5.16-82.4 00-5.81 4.58 5.31 5.16-82.4 004.4 5.94 5.31 5.16-82.4 005.82-4.58 5.31 5.16-82.4 00-4.4-5.94m49.74 7.68a5.27 5.27 0 00-5.27-5.27 5.27 5.27 0 00-5.27 5.27 5.27 5.27 0 005.27 5.27 5.27 5.27 0 005.27-5.27m11.19 4.81a5.42 5.17-156.2 002.87 6.92 5.42 5.17-156.2 007.05-2.54 5.42 5.17-156.2 00-2.87-6.92 5.42 5.17-156.2 00-7.05 2.54m-121.11 5.99a5.2 5.2 0 00-5.19-5.19 5.2 5.2 0 00-5.19 5.19 5.2 5.2 0 005.19 5.19 5.2 5.2 0 005.19-5.19m-21.35 1.18a5.34 5.34 0 00-5.34-5.34 5.34 5.34 0 00-5.34 5.34 5.34 5.34 0 005.34 5.34 5.34 5.34 0 005.34-5.34m106-5.3a5.44 5.23-89.6 00-5.27 5.4 5.44 5.23-89.6 005.2 5.48 5.44 5.23-89.6 005.26-5.4 5.44 5.23-89.6 00-5.2-5.48m-67.04.38a5.35 5.15-73.8 00-6.44 3.7 5.35 5.15-73.8 003.46 6.58 5.35 5.15-73.8 006.44-3.7 5.35 5.15-73.8 00-3.46-6.58m50.93 7.79a5.2 5.2 0 00-5.18-5.18 5.2 5.2 0 00-5.18 5.18 5.2 5.2 0 005.18 5.18 5.2 5.2 0 005.18-5.18m31.17-.15a5.28 5.12-148.6 001.84 7.12 5.28 5.12-148.6 007.18-1.62 5.28 5.12-148.6 00-1.84-7.12 5.28 5.12-148.6 00-7.18 1.62m-102.15 14.52a5.4 5.4 0 00-5.4-5.4 5.4 5.4 0 00-5.4 5.4 5.4 5.4 0 005.4 5.4 5.4 5.4 0 005.4-5.4m93.25 1.07a5.4 5.4 0 00-5.39-5.39 5.4 5.4 0 00-5.39 5.39 5.4 5.4 0 005.39 5.39 5.4 5.4 0 005.39-5.39m6.19-93.16a3.77 3.77 0 00-3.77-3.77 3.77 3.77 0 00-3.77 3.77 3.77 3.77 0 003.77 3.77 3.77 3.77 0 003.77-3.77m-99.83.25a3.9 3.9 0 00-3.9-3.9 3.9 3.9 0 00-3.9 3.9 3.9 3.9 0 003.9 3.9 3.9 3.9 0 003.9-3.9m82.25 1.03a3.8 3.8 0 00-3.82-3.82 3.8 3.8 0 00-3.82 3.82 3.8 3.8 0 003.82 3.82 3.8 3.8 0 003.82-3.82m-65.98.27a3.86 3.86 0 00-3.86-3.86 3.86 3.86 0 00-3.86 3.86 3.86 3.86 0 003.86 3.86 3.86 3.86 0 003.86-3.86m-34.92 3.41a3.94 3.7-117 00-1.5 5.19 3.94 3.7-117 005.08 1.83 3.94 3.7-117 001.5-5.19 3.94 3.7-117 00-5.08-1.83m128.17 1.5a3.89 3.74-76.6 00-4.54 2.91 3.89 3.74-76.6 002.74 4.65 3.89 3.74-76.6 004.54-2.91 3.89 3.74-76.6 00-2.74-4.65m-43.77 4.11a3.95 3.95 0 00-3.95-3.95 3.95 3.95 0 00-3.95 3.95 3.95 3.95 0 003.95 3.95 3.95 3.95 0 003.95-3.95m-38.74-2.69a3.96 3.83-58.4 00-5.34 1.36 3.96 3.83-58.4 001.18 5.38 3.96 3.83-58.4 005.34-1.36 3.96 3.83-58.4 00-1.18-5.38m-23.09 2.35a3.99 3.59-68 00-4.82 2.36 3.99 3.59-68 001.84 5.04 3.99 3.59-68 004.82-2.36 3.99 3.59-68 00-1.84-5.04m89.87 4.3a3.8 3.8 0 00-3.82-3.82 3.8 3.8 0 00-3.82 3.82 3.8 3.8 0 003.82 3.82 3.8 3.8 0 003.82-3.82m-118.61 2.74a3.8 3.8 0 00-3.81-3.81 3.8 3.8 0 00-3.81 3.81 3.8 3.8 0 003.81 3.81 3.8 3.8 0 003.81-3.81m145.45 2.55a3.97 3.72-65.9 00-5.02 2.11 3.97 3.72-65.9 001.78 5.14 3.97 3.72-65.9 005.02-2.1 3.97 3.72-65.9 00-1.78-5.14" vector-effect="non-scaling-stroke"/><path stroke="#816302" d="M782.44 93.8a3.94 3.94 0 00-3.94-3.94 3.94 3.94 0 00-3.94 3.94 3.94 3.94 0 003.94 3.94 3.94 3.94 0 003.94-3.94m-58.58.19a3.8 3.8 0 00-3.8-3.8 3.8 3.8 0 00-3.8 3.8 3.8 3.8 0 003.8 3.8 3.8 3.8 0 003.8-3.8m19.29.01a3.84 3.84 0 00-3.84-3.84 3.84 3.84 0 00-3.84 3.84 3.84 3.84 0 003.84 3.84 3.84 3.84 0 003.84-3.84m16.26-.09a3.9 3.9 0 00-3.88-3.88 3.9 3.9 0 00-3.88 3.88 3.9 3.9 0 003.88 3.88 3.9 3.9 0 003.88-3.88m-63.82-2.07a4 3.61-89.6 00-3.64 3.97 4 3.61-89.6 003.58 4.03 4 3.61-89.6 003.64-3.97 4 3.61-89.6 00-3.58-4.03m108.97 2.69a4.04 3.84-90.2 00-3.83 4.05 4.04 3.84-90.2 003.85 4.03 4.04 3.84-90.2 003.83-4.05 4.04 3.84-90.2 00-3.85-4.03m-133.4 4.17a3.97 3.97 0 00-3.97-3.97 3.97 3.97 0 00-3.97 3.97 3.97 3.97 0 003.97 3.97 3.97 3.97 0 003.97-3.97m45.22 9.26a3.83 3.83 0 00-3.83-3.83 3.83 3.83 0 00-3.83 3.83 3.83 3.83 0 003.83 3.83 3.83 3.83 0 003.83-3.83m118.18-.15a3.8 3.8 0 00-3.82-3.82 3.8 3.8 0 00-3.82 3.82 3.8 3.8 0 003.82 3.82 3.8 3.8 0 003.82-3.82m-48.96-3.25a3.92 3.73-73 00-4.7 2.66 3.92 3.73-73 002.41 4.84 3.92 3.73-73 004.72-2.66 3.92 3.73-73 00-2.42-4.84m-49.7 5.48a3.9 3.9 0 00-3.88-3.88 3.9 3.9 0 00-3.88 3.88 3.9 3.9 0 003.88 3.88 3.9 3.9 0 003.88-3.88m28.68.15a3.94 3.94 0 00-3.94-3.94 3.94 3.94 0 00-3.94 3.94 3.94 3.94 0 003.94 3.94 3.94 3.94 0 003.94-3.94m-77.09-3.51a4.02 3.75-89.9 00-3.75 4.01 4.02 3.75-89.9 003.74 4.03 4.02 3.75-89.9 003.76-4.01 4.02 3.75-89.9 00-3.74-4.03m-26.43 2.79a4.06 3.78-101 00-2.94 4.71 4.06 3.78-101 004.48 3.27 4.06 3.78-101 002.94-4.71 4.06 3.78-101 00-4.48-3.27m152.65 4.28a3.93 3.93 0 00-3.93-3.93 3.93 3.93 0 00-3.93 3.93 3.93 3.93 0 003.93 3.93 3.93 3.93 0 003.93-3.93m-63.17 4.76a3.93 3.93 0 00-3.93-3.93 3.93 3.93 0 00-3.93 3.93 3.93 3.93 0 003.93 3.93 3.93 3.93 0 003.93-3.93m87.26 4.32a3.74 3.74 0 00-3.74-3.74 3.74 3.74 0 00-3.74 3.74 3.74 3.74 0 003.74 3.74 3.74 3.74 0 003.74-3.74m-130.84-3.25a3.99 3.66-86.5 00-3.9 3.76 3.99 3.66-86.5 003.42 4.2 3.99 3.66-86.5 003.9-3.76 3.99 3.66-86.5 00-3.42-4.2m85.87 6.95a3.9 3.9 0 00-3.92-3.92 3.9 3.9 0 00-3.92 3.92 3.9 3.9 0 003.92 3.92 3.9 3.9 0 003.92-3.92m-106.48.87a4 4 0 00-4.02-4.02 4 4 0 00-4.02 4.02 4 4 0 004.02 4.02 4 4 0 004.02-4.02m45.57-.03a4 4 0 00-3.98-3.98 4 4 0 00-3.98 3.98 4 4 0 003.98 3.98 4 4 0 003.98-3.98m-68.02 2.15a3.95 3.95 0 00-3.95-3.95 3.95 3.95 0 00-3.95 3.95 3.95 3.95 0 003.95 3.95 3.95 3.95 0 003.95-3.95m107.14-.41a3.9 3.9 0 00-3.92-3.92 3.9 3.9 0 00-3.92 3.92 3.9 3.9 0 003.92 3.92 3.9 3.9 0 003.92-3.92m45.1 2.5a3.83 3.83 0 00-3.83-3.83 3.83 3.83 0 00-3.83 3.83 3.83 3.83 0 003.83 3.83 3.83 3.83 0 003.83-3.83m21.57 7.02a4 4 0 00-3.98-3.98 4 4 0 00-3.98 3.98 4 4 0 003.98 3.98 4 4 0 003.98-3.98m-131.26 3.81a4 4 0 00-4-4 4 4 0 00-4 4 4 4 0 004 4 4 4 0 004-4m-21.49 1.39a3.93 3.93 0 00-3.93-3.93 3.93 3.93 0 00-3.93 3.93 3.93 3.93 0 003.93 3.93 3.93 3.93 0 003.93-3.93m107.37-4.18a4.11 3.86-89.1 00-3.92 4.05 4.11 3.86-89.1 003.8 4.17 4.11 3.86-89.1 003.92-4.05 4.11 3.86-89.1 00-3.8-4.17M727.72 144a3.9 3.9 0 00-3.9-3.9 3.9 3.9 0 00-3.9 3.9 3.9 3.9 0 003.9 3.9 3.9 3.9 0 003.9-3.9m47.25 2.54a3.96 3.96 0 00-3.96-3.96 3.96 3.96 0 00-3.96 3.96 3.96 3.96 0 003.96 3.96 3.96 3.96 0 003.96-3.96m-111.06-3.14a4.09 3.86-65.9 00-5.2 2.15 4.09 3.86-65.9 001.86 5.31 4.09 3.86-65.9 005.2-2.15 4.09 3.86-65.9 00-1.86-5.31m144.25 4.6a3.97 3.82-161.9 002.58 4.86 3.97 3.82-161.9 004.96-2.4 3.97 3.82-161.9 00-2.58-4.86 3.97 3.82-161.9 00-4.96 2.4m24.77 6.47a3.8 3.8 0 00-3.81-3.81 3.8 3.8 0 00-3.81 3.81 3.8 3.8 0 003.81 3.81 3.8 3.8 0 003.81-3.81m-129.04 6.52a4 4 0 00-4-4 4 4 0 00-4 4 4 4 0 004 4 4 4 0 004-4m93.09 1.08a3.96 3.96 0 00-3.96-3.96 3.96 3.96 0 00-3.96 3.96 3.96 3.96 0 003.96 3.96 3.96 3.96 0 003.96-3.96m-116.03-.04a4 4 0 00-3.98-3.98 4 4 0 00-3.98 3.98 4 4 0 003.98 3.98 4 4 0 003.98-3.98m132.96 3.32a3.97 3.97 0 00-3.97-3.97 3.97 3.97 0 00-3.97 3.97 3.97 3.97 0 003.97 3.97 3.97 3.97 0 003.97-3.97" vector-effect="non-scaling-stroke"/><path stroke="#6d5302" d="m731.5 486.93-2.1 2.26" vector-effect="non-scaling-stroke"/><path stroke="#816302" d="M729.4 489.19q-3.16 3.16-7.64 3.67a2.3 2.3 0 01-1.79-.56c-5.39-4.75-12.74-9.63-19.91-10.99q-13.95-2.65-25.94 4.91c-16.38 10.32-25.69 28.35-30.2 46.66q-9.06 36.79 3.58 71.85c7.12 19.76 24.85 41.25 47.74 39.53 12.36-.94 22.56-7.2 29.98-16.32a.7.69-54.2 01.91-.15q10.2 6.45 15.73 18.2a1.3 1.28-30.5 01-.42 1.6c-2.3 1.66-4.79 4.35-3.44 7.38 5.56 12.47 27.67 2.36 15.21-7.64a1 1 0 01-.33-.92q.96-4.45 2.94-6.9 4.85-6.02 14.36-11.7a.67.66-36.3 01.83.12q7.99 8.95 18.35 13.37c7.08 3.01 13.72 3.03 21.35 1.66 17.13-3.07 30.94-22.53 36.55-37.17 9.08-23.67 10.25-49.55 4.36-73.89q-3.77-15.54-12.86-29.9-4.91-7.76-12.89-13.82c-17.3-13.14-35.72-9.19-51.06 4.17a1.74 1.72 26.2 01-1.26.42q-4.88-.37-8.55-3.63" vector-effect="non-scaling-stroke"/><path stroke="#6d5302" d="m765 489.14-1.5-1.7" vector-effect="non-scaling-stroke"/><path stroke="#816302" d="M763.5 487.44q-3.86-5.85-3.87-10.44-.02-99.97.02-214.82a4.39 4.33 28 00-.77-2.47q-5.71-8.18-1.09-16.87c.58-1.08 2.18-2.6 3.08-3.34 4.65-3.81 4.85-9.07-.16-12.75-5.32-3.91-12.91-4.36-19.67-2.96-5.43 1.12-12.19 5.35-10.13 12q.31 1.01 3.41 4.18 5.37 5.51 3.49 14.51c-.4 1.94-1.08 2.9-2.1 4.87a5.71 5.63-30.3 00-.65 2.42c-.17 3.93.84 9.27-2.9 11.6a2.15 2.09-60.7 01-1.08.32q-16.33.32-19.07.1c-3.79-.31-5.21-2.78-5.22-6.67q-.02-7.1.03-20.58.01-2.36-2.61-3.93a1.81 1.8 60.4 00-.86-.24q-15.95-.24-43.6-.04c-2.76.02-4.34.37-4.36 3.42q-.08 13.61-.04 26.44.01 2.45 2.82 3.39a.82.75-33.4 00.25.04l9.8-.04a1.3 1.29 35.9 00.39-.06q2.14-.6 2.96-2.89a2.49 2.28-37.2 00.13-.71c.05-5.24-.17-8.67 3.83-11.07a2.59 2.54 28.2 011.24-.36q7.5-.23 8.24-.01c5.32 1.58 4.06 8.27 4.29 12.05a3.06 3.05-88.3 002.67 2.84c3.78.46 7.58.81 7.56 5.78q-.04 9.8-.02 20.55.01 4.2-3.63 5.93-.58.27-4 .5a1.94 1.89-61.7 00-.86.27c-2.41 1.45-1.65 5.71-1.64 9.43a2.92 2.85-30.3 01-.42 1.53c-3.01 5.05-6 4.48-12.23 4.34a2 1.99-28.7 01-1-.29c-2.65-1.57-3.99-3.44-3.78-6.85.18-3.09.68-6.45-2.22-8.24a2.16 2.15 60.8 00-1.13-.32l-9.76-.03a3.1 3.1 11.3 00-2.85 1.9q-.71 1.52-.69 4.14.11 15.26-.06 22.5c-.1 4.14 2.73 4.92 6.47 4.93q26.79.1 41.14-.07 2.33-.03 3.84-3.09a.77.75 58.6 00.08-.34l.23-32.91a2.44 2.41 62.7 01.43-1.38q2.02-2.99 6.56-2.98 6.6.02 13.26.14c3.17.06 7.6 1.26 7.59 4.94q-.17 87.91-.06 171.5 0 4.72-3.28 9.68" vector-effect="non-scaling-stroke"/><path stroke="#ebb200" d="M763.5 487.44q-1.33.86-1.91.89-6.22.33-23.7.47-3.95.03-6.39-1.87m-2.1 2.26c6.66 2.83 13.89 3.31 20.99 3.69 5.85.31 9.94-.73 14.61-3.74M710 298.4a1 1 0 00.98-.98v-20.56a1 1 0 00-.42-.8l-1.63-1.13a.98.98 0 00-1.54.81v21.68a1 1 0 00.98.98H710m25.42-.49.35-22.26a.75.75 0 00-.73-.76l-.29-.01a2.94 2.42-89.1 00-2.47 2.9l-.28 17.88a2.94 2.42-89.1 002.37 2.98h.29a.75.75 0 00.76-.73m7.28 215.99q.42-2.26-.16-3.77-2.7-7.05-8.04-13.13-2.2-2.5-5-2.86a.72.72 0 00-.57 1.26c6.62 5.88 7.1 13.91 7.18 22.15a.97.97 0 001.71.61l1.3-1.56a1.7 1.7 0 01.99-.58q1.24-.24 2.25-1.41a1.48 1.45-20.1 00.34-.71m14.17 2.39q.6-7.49 4.42-14.32a.87.86-7.5 01.18-.23l5.25-5.22a.84.84 0 00-.54-1.43c-2.95-.18-8.69 5.78-10.63 8.13a3.79 3.73 73.8 00-.69 1.28q-.69 2.19-.89 4.13-.22 2.12-2.16 3.04a1.03 1.02-17.3 00-.58 1.1l1.06 6.12a.63.63 0 001.15.23q1.07-1.63 2.76-2.04a.9.9 0 00.67-.79" vector-effect="non-scaling-stroke"/><path stroke="#816302" d="M734.18 522.22c-4.12 6.91-12.98 8.99-19.41 3.49-5.45-4.65-5.14-13.2-2.22-19.58a.6.6 0 00-.1-.69c-9.34-10.54-23.86-12.8-34.79-2.5q-7.79 7.35-12.58 18.39c-11.76 27.14-11.17 58.64.7 85.39 4.38 9.87 14.16 21.79 25.63 23q12.52 1.33 19.81-8.31a1.08 1.07 36.7 00-.23-1.52q-8.74-6.38-6.45-17.02c1.95-9.08 11.28-13.21 19.41-9.38 2.88 1.36 5.63 5.31 6.82 8.25a.51.51 0 00.88.12c8.56-11 22.5-12.07 30.92.12a.54.54 0 00.95-.1q2.34-5.67 7.45-8.38a13.2 13.2 0 0117.38 4.67c4.97 7.8 2.08 16.34-4.63 21.99a.6.6 0 00-.08.8q3.97 5.01 8.9 7.02c18.61 7.56 32.53-9.69 38.44-25.28q10.24-27.01 6.41-54.72-2.34-16.85-9.55-31.36c-4.34-8.71-13.61-19.25-24.04-20.41-8.13-.9-16.83 3.46-21.65 9.84a.89.88-38.1 00-.11.88c3.38 7.86 2.36 16.97-5.74 21.24a4.67 4.59 24.9 01-1.18.42q-9.57 1.95-15.29-6.93a.46.46 0 00-.74-.04q-1.39 1.65-2.6 2.87c-4.53 4.56-11.13 5.17-16.57 2.1a1.49 1.08 72.5 01-.23-.17l-4.71-4.32a.52.52 0 00-.8.12" vector-effect="non-scaling-stroke"/><path stroke="#ebb200" d="M749.58 504.48a2.95 2.32-6.7 00-3.2-1.96 2.95 2.32-6.7 00-2.66 2.64 2.95 2.32-6.7 003.2 1.96 2.95 2.32-6.7 002.66-2.64" vector-effect="non-scaling-stroke"/><path stroke="#034167" d="M763.13 596.67c3.38-3.62 5.63-6.56 10.58-7.68 9.24-2.08 19.13 5.47 20.13 14.7.66 6.09-.53 11.82-5.48 16.19a1.33 1.33 0 000 2c6.85 5.99 14.34 5.88 22.41 2.33 5-2.2 8.58-7.29 11.48-11.73 7.21-11.02 10.1-22.91 11.82-35.95q2.52-19.14-2.42-40.01c-2.68-11.31-8-23.06-16.38-31.32-8.78-8.64-20.57-6.53-29.23.74a1.3 1.3 0 00-.35 1.48q3.07 7.03.22 14.54c-4.18 10.99-17.81 13.59-25.98 5.17a.74.74 0 00-1.04-.02c-6.84 6.56-15.74 5.52-22.96.4a.9.9 0 00-1.08.06c-9.1 7.9-21.06 5.48-26.13-5.2q-3.38-7.11.13-15.66a.9.9 0 00-.23-.99q-2.96-2.58-7.1-4.48c-9.84-4.49-18.62.04-25.12 7.65-6.52 7.63-10.42 17.87-13.3 28.23-2.32 8.33-2.87 18.76-2.95 27.13q-.16 17.42 6.08 34.78 3.81 10.6 11.7 20.03c7.09 8.48 19.82 10.4 28.55 3.13a1.35 1.35 0 00.02-2.06c-5.53-4.77-7.56-14.1-4.25-20.92 3.27-6.73 9.37-11.27 16.78-10.48q8.03.85 12.3 7.59a.7.7 0 001.07.12c2.73-2.7 5.23-4.76 9.17-5.69q12.54-2.94 20.75 5.92a.56.55 44.7 00.81 0" vector-effect="non-scaling-stroke"/><path stroke="#7f8080" d="M1504 680.35H0m1504 21.41L0 701.75" vector-effect="non-scaling-stroke"/><path stroke="#034167" d="M1504 706.71 0 706.66" vector-effect="non-scaling-stroke"/><path stroke="#038f86" d="M1504 864.15q-5.79-.5-12-.5-213.46.05-426.88.12" vector-effect="non-scaling-stroke"/><path stroke="#034167" d="m1065.12 863.77-75.86-83.82a2.33 2.31-20.8 00-1.73-.77H820.66a3.08 3.06 65.4 01-2.02-.76l-70.54-61.44a.77.76-44 00-.98-.01q-6.83 5.49-13.09 11.04c-14.36 12.71-29.94 26.4-42.12 36.55q-4.17 3.47-6.96 6.37-1.53 1.6-8.35 7.17-1.3 1.06-3.28 1.06-3.16.02-165.73.02a2.3 2.3 20.8 00-1.68.75q-17.45 19.47-37.6 41.37c-10.94 11.88-21.35 23.65-32.1 35.01q-3.42 3.62-6.22 7.46" vector-effect="non-scaling-stroke"/><path stroke="#038f86" d="m429.99 863.77-428.87-.16a.9.88-74.7 00-.77.45q-.24.42-.35.95" vector-effect="non-scaling-stroke"/><path stroke="#035223" d="m1065.12 863.77.32 82.09a.81.8-.3 01-.81.81H849.01a1.52 1.49-66.4 00-1.04.42q-1.89 1.82-9.72 7.9c-9.28 7.2-19.12 16.57-27.15 22.69q-6.59 5.01-11.35 9.54c-5.32 5.07-13.47 10.28-19.86 16.39-6.41 6.14-12.78 10.13-19.53 16.2q-4.68 4.21-12.46 10.06a1.2 1.2 0 01-1.52-.03l-99.15-82.6a2.7 2.7 0 00-1.7-.61H430.34a.4.4 0 01-.41-.41l.06-82.45" vector-effect="non-scaling-stroke"/><path stroke="#7f8080" d="M818.14 784.11a.7.7 0 01-.49-.18l-69.86-60.85a.74.74 0 00-.98.01l-69.49 60.84a.7.7 0 01-.49.18H511.39a.74.74 0 00-.74.74v72.17a.74.74 0 00.74.74h165.39a.7.7 0 01.49.18l69.41 60.45a.74.74 0 00.98 0l67.79-60.47a.7.7 0 01.49-.19h166.78a.74.74 0 00.74-.74v-72.14a.74.74 0 00-.74-.74H818.14m242.53 82.22a.3.3 0 00-.08-.21l-71.61-79.14a.32.32 0 00-.56.21v69.6a.3.3 0 00.08.21l71.61 79.13a.32.32 0 00.56-.21v-69.59m-626.03 69.24a.3.3 0 00.52.2l70.42-77.65a.3.3 0 00.08-.21V788.1a.3.3 0 00-.52-.2l-70.42 77.65a.3.3 0 00-.08.21v69.81" vector-effect="non-scaling-stroke"/><path stroke="#7f8080" d="M672.85 863.11a.35.35 0 00-.33-.46H508.29a.4.4 0 00-.26.11l-70.87 78.15a.35.35 0 00.26.59h208.03a.4.4 0 00.33-.24l27.07-78.15m176.18 78.05a.5.5 0 00.49.34h207.59a.52.52 0 00.38-.87l-70.41-77.81a.5.5 0 00-.38-.17H820.94a.52.52 0 00-.48.7l28.57 77.81m-33.17-76.02a.48.48 0 00-.77-.19l-65.31 58.27a.5.5 0 00-.16.36v97.97a.48.48 0 00.79.37l94.01-78.1a.5.5 0 00.14-.54l-28.7-78.14m-165.53 78.24a.5.5 0 00.17.59l93.28 77.72a.54.54 0 00.89-.41v-97.66a.5.5 0 00-.19-.41l-66.37-57.8a.54.54 0 00-.86.23l-26.92 77.74" vector-effect="non-scaling-stroke"/><path stroke="#7f8080" d="M677.85 842.57a.6.6 0 01.38.14l68.19 59.39a.6.6 0 00.77 0l66.56-59.37a.6.6 0 01.38-.15H969.3a.6.6 0 00.58-.58v-42.42a.6.6 0 00-.58-.58H809.46a.6.6 0 01-.38-.14l-61.64-53.68a.6.6 0 00-.76 0l-61.37 53.73a.6.6 0 01-.38.14H525.18a.6.6 0 00-.58.58v42.36a.6.6 0 00.58.58h152.67" vector-effect="non-scaling-stroke"/><path stroke="#7f8080" d="M749.86 754.34q-.23.1-.23.28-.06 32.07-.01 74.75a.66.65-74.6 00.31.56l41.12 25.9a.52.51 39.5 00.61-.05l19.71-17.84a1.56 1.55 24.1 011.03-.39h151.54a.9.9 0 00.9-.9v-32.03a.59.58 0 00-.59-.58H808.47a2.3 2.27-24.4 01-1.49-.55l-56.73-49.09a.38.36-34.7 00-.39-.06m-5.5 75.67a.6.6 0 00.26-.48v-74.71a.58.58 0 00-.96-.44l-56.56 49.51a.6.6 0 01-.38.14H530.1a.6.6 0 00-.58.58v32.36a.6.6 0 00.58.58h149.79a.6.6 0 01.38.14l22 19.16a.6.6 0 00.7.05l41.39-26.89" vector-effect="non-scaling-stroke"/><path stroke="#035223" d="M787.27 859.57a.48.48 0 00-.08-.74l-39.08-24.61a1.3 1.3 0 00-1.39.01l-39.49 25.64a.95.95 0 00-.12 1.5q12.86 11.69 19.13 16.61c4.65 3.65 8.02 7.42 11.87 10.79a6.58 6.32 7.6 00.74.55q4.35 2.77 7.46 5.68a.86.86 0 001.13.03q9.21-7.68 17.64-15.71c1.56-1.5 4.5-3.32 6.25-5.09q5.25-5.3 10.33-9.26c1.68-1.31 4.24-4.03 5.61-5.4" vector-effect="non-scaling-stroke"/><path stroke="#7f8080" d="M546.78 877.14a1.02 1.01 34.9 00-1.42.25l-20.03 28.97a2.09 2.06-36.4 00-.28 1.76c2.07 6.77 4.89 13.11 11.88 15.94q.45.18 3.33.27a.78.77-78.3 00.75-.5q.89-2.29 1.08-2.98l9.78-34.57q.36-1.28-.74-2.92l-1.58-2.36q-2.59-3.74-2.77-3.86m58.75 1.83a1.02 1.01 34.6 00-1.42.25l-19.85 28.98a2.08 2.05-36.7 00-.27 1.76c2.1 6.74 4.94 13.05 11.92 15.84q.45.18 3.32.26a.78.77-78.6 00.75-.5q.88-2.29 1.06-2.98l9.6-34.52q.36-1.28-.75-2.91l-1.58-2.34q-2.6-3.72-2.78-3.84m343.99-1.5q-2.18 1.98-4.67 5.37c-.83 1.12-1.95 2.38-1.47 3.83l11.81 35.87a1.2 1.2 0 001.11.86c7.78.5 12.94-8.66 14.42-15.22a3.37 3.36-56.3 00-.53-2.68l-19.66-27.92a.68.67-38.7 00-1.01-.11m-58.53 2.59q-2.18 1.95-4.69 5.3c-.83 1.11-1.96 2.35-1.49 3.8q10.69 33.42 11.43 35.77a1.24 1.23-6.7 001.1.87c7.73.56 12.94-8.5 14.47-15.01a3.35 3.34-55.8 00-.5-2.67L892 880.18a.67.67 0 00-1.01-.12" vector-effect="non-scaling-stroke"/><path stroke="#038f86" d="M.53 1046q-.21-.31-.53-.48" vector-effect="non-scaling-stroke"/><path stroke="#7f8080" d="M790.78 956.45q5.9 1.84 9.97-3.4c3.6-4.64 2.83-11.55 2.3-17.31q-.39-4.34-.92-14.51c-.35-6.71-8.58-12.07-14.08-5.95q-2.75 3.06-3.6 5.56a2.46 2.41 53.4 00-.13.95q.23 4.38.43 5.47 2.49 13.66 4.59 27.52a2.1 2.1 0 001.44 1.67m-85.94-.86q.54-1.36.88-3.37 3.34-19.62 4.85-27.7c.84-4.52-1.69-7.77-4.88-10.96-4.49-4.48-12.27 1.79-12.62 6.81q-1.13 16.16-1.21 18.41c-.24 6.53-.53 10.54 3.33 14.97q3.2 3.67 7.74 3.27a2.3 2.3 0 001.91-1.43m-163.66-67.53a.32.31-32.3 00-.57-.12l-12.78 18.22a2.44 2.42-34.6 00-.38 1.99q1.87 7.7 8.36 12.73a1.88 1.88-57.5 002.82-.63c2.41-4.67 3.6-10.79 4.73-15.87a6.97 6.84-44.1 00.07-2.68l-2.25-13.64m413.51-.6-.17 21.41a1.05.91 40.7 00.04.27q1.57 6.52 4.45 11.09a1.02 1.01 55.9 001.45.29q6.6-4.78 8.42-12.96a1.41 1.4-56.4 00-.22-1.11l-13.59-19.11a.21.21 0 00-.38.12m-354.97 2.53a.32.31-32.7 00-.57-.12l-12.67 18.33a2.4 2.4-35 00-.36 2q1.92 7.69 8.46 12.68a1.88 1.88 0 002.81-.65c2.38-4.69 3.53-10.83 4.63-15.92a6.97 6.84-44.5 00.05-2.68l-2.35-13.64m295.72-.66-.27 21.94a1.08.94 40.9 00.04.28q1.57 6.68 4.5 11.38a1.04 1.04 0 001.49.3q6.78-4.86 8.69-13.23a1.45 1.44-56.1 00-.22-1.14l-13.84-19.65a.21.21 0 00-.39.12" vector-effect="non-scaling-stroke"/><path stroke="#7f8080" d="M703.6 915.16a.65.65 0 00-.41-1.09c-6.66-.74-8.33 4.37-8.67 10.32q-.6 10.84-.98 19.38c-.16 3.7.65 6.92 3.37 9.04a2.82 2.51-44.1 003.28-.14c3.76-2.91 3.82-7.44 2.47-12.07-2.42-8.38-5.23-18.39.94-25.44m87.9.21c6.21 7.11 3.38 17.19.94 25.63-1.36 4.67-1.31 9.23 2.48 12.17a2.84 2.53 44.1 003.31.14c2.74-2.14 3.55-5.38 3.39-9.11q-.37-8.6-.97-19.52c-.34-6-2.02-11.15-8.73-10.4a.66.66 0 00-.42 1.09" vector-effect="non-scaling-stroke"/></g><path fill="#037eca" d="M1504 0v675.55L0 675.56V0zM729.95 69.54l-1.45-3.29c-3.7-7.58-11.42-9.22-19.22-8.44q-24.29 2.42-41.52 18.17c-4.48 4.09-7.47 7.17-10.77 12.03q-7.44 10.95-10.01 24.32-4.05 21.13 5.52 40.98c2.76 5.72 7.51 11.37 11.24 15.94q2.06 2.54 6.07 5.53a2.7 2.7 0 011.06 1.95c.28 4.43.66 9.04 3.05 12.75a1.13 1.11-53.3 01.13.95q-1.92 6 .89 10.37 1.8 2.78 8.67 5.72 8.75 3.74 21.42 6.21 17.93 3.51 27.25 3.67 7 .12 24.84-.14 11.4-.16 16.74-.84c12.94-1.65 25.65-3.64 37.55-8.3q3.56-1.39 5.41-1.98a3.86 3.8-70.2 00.94-.45q7.25-4.83 4.31-13.98a1.32 1.26-43.7 01.04-.88q2.87-6.54 2.83-12.63a1.51 1.49-23.1 01.43-1.05q7.79-7.79 11.39-11.91 9.52-10.86 12.5-26.21c2.53-13.05 2.16-27.35-3.2-39.3-2.6-5.79-5-11.03-9.11-15.62-6.16-6.87-12.17-12.73-19.58-16.76q-9.17-5-20.07-7.88-7.46-1.98-18.47-1.14c-5.69.43-10.6 3.21-12.48 8.24q-.85 2.27-1.29 3.32a.44.44 0 01-.84-.07q-.57-2.5-1.13-6.76-1.12-8.46-4.75-15.36a2.56 2.53-58.3 01-.29-1.26q.23-7.67-3.54-15.42a1.16 1.16 0 011.06-1.67q5.01.04 9.48-4.32a1.07 1.07 0 00-.03-1.55q-3.15-2.89-6.28-4.03a2.64 2.62 49.9 00-1.35-.12l-2.55.44a.75.74 77.5 01-.84-.54c-1.07-4.03-1.35-7-4.41-10.19-1.69-1.76-3.26-.75-4.64.72q-3.7 3.93-3.92 9.51a.55.55 0 01-.64.52c-3.44-.51-8.05.46-9.86 3.64a1.8 1.79 34.4 00.43 2.28q4.42 3.57 8.39 3.68a1.35 1.35 0 011.19 1.91q-3.79 8.33-3.9 15.63a2.65 2.61 60 01-.31 1.2c-3.48 6.52-4.78 14.76-5.93 22.35a.24.24 0 01-.45.06m.21 201.05-18.1-.09a.58.55-32.6 01-.21-.04q-1.75-.86-1.73-2.48.2-12.73.17-17.97c-.03-5.8-2.09-10.98-8.6-10.97q-13.28.02-33.43-.09-4.13-.02-8.25.12c-5.88.18-8.12 2.63-8.13 8.93q-.03 20.94.16 23.95.31 4.74 4.34 6.71a3.42 3.35 57.8 001.34.32q8.87.2 11.07-.17 3.61-.6 5.9-4.56a3.22 3.19 60.8 00.42-1.51c.07-3.17-.55-7.47 1.5-8.75a1.69 1.67 28.4 01.9-.26h5.87a2.49 2.48 86.3 012.46 2.17c.49 3.89-.86 8.82 2.98 11.89 1.38 1.09 3.7.86 5.45 1.13a2 2 2.7 011.71 1.87q.72 10.94-.13 21.69a2.3 2.3 0 01-1.91 2.08l-3.94.68a.91.87 19.7 00-.36.16c-4.9 3.46-3.51 7.35-3.64 12.5a2.7 2.7-7.7 01-1.94 2.54q-2.46.74-5.55.36c-3.96-.5-3.59-4.69-3.55-7.6.05-4.43-1.57-8.14-6.71-8.16-3.13-.02-9.86-.63-12.24.48q-4.04 1.88-4.08 6.2-.15 15.97.01 25.29c.12 7.2 6.4 8.02 12.06 7.96q20.41-.23 37.99.06c3.71.06 7.7-3.03 8.19-7.02q.35-2.78.25-4.77-.26-4.95-.1-19.47.03-3.32-.18-7.52a2.2 2.2 0 011.34-2.17q.91-.39 3.01-.38l14.46.27a2.4 2.4 79.3 012.13 1.46q.56 1.37.55 3.3-.34 62.83-.08 163.78c.02 6.88-1.16 14.09-8.45 16.67a2.32 2.29-34.5 01-2.27-.41c-11.75-9.96-26.59-15.2-41.61-8.83q-6.78 2.87-10.92 6.11-13.51 10.54-20.99 27.07-5.15 11.38-7.32 21.08-8.06 36.07 4.02 70.94 3.57 10.32 10.37 19.56 5.35 7.29 10.22 11.59c8.94 7.9 21.37 12.25 33.17 11.18 10.19-.93 21.37-7.64 27.74-15.51a.93.92-49.9 011.33-.12c4.28 3.73 9.15 8.08 11.44 13.64a.9.9 0 01-.24 1.02c-8.01 6.85-1.59 14.59 5.85 17.19 6.38 2.23 12.67-1.34 15.67-7.13 2.03-3.93.26-7.37-2.57-10.23a1.3 1.3 0 01-.26-1.48c2.42-5.34 7.98-9.7 12.57-13.3a.83.83 0 011.13.09c6.09 6.73 15.04 12.69 24 14.7q14.32 3.22 27.97-4.42c8.03-4.49 13.27-10.58 18.95-18.06q3.64-4.79 7.2-12.57c11.46-25.06 12.79-53.9 6.25-80.61a114 114 0 00-8.82-23.13q-5.9-11.35-16.37-20.61c-9.81-8.67-25.7-12.62-37.94-8.49q-9.91 3.34-18.17 10.74a1.33 1.32 29.9 01-1.16.31c-6.69-1.39-9.27-7-9.27-13.29q.02-115.66-.04-213.98a4.72 4.65 26.5 00-.98-2.86q-4.87-6.36-1.76-14.1c1.1-2.71 4.39-4.3 5.66-7q3.3-7-1.88-12.78a3.85 3.56 83.3 00-.76-.65q-6.34-4.06-13.8-4.44c-7.78-.4-17.59.63-21.21 9.1-1.63 3.81-.6 8.56 2.57 11.63 2.33 2.25 4.34 4.14 4.44 7.85q.11 4.37-.84 6.64a1.47 1.06 80.8 01-.12.24l-2.38 3.85a2.8 2.76-29.6 00-.41 1.45v8.02a1.41 1.4-89.8 01-1.41 1.41"/><path fill="#030404" d="M729.95 69.54a.24.24 0 00.45-.06c1.15-7.59 2.45-15.83 5.93-22.35a2.65 2.61 60 00.31-1.2q.11-7.3 3.9-15.63a1.35 1.35 0 00-1.19-1.91q-3.97-.11-8.39-3.68a1.8 1.79 34.4 01-.43-2.28c1.81-3.18 6.42-4.15 9.86-3.64a.55.55 0 00.64-.52q.22-5.58 3.92-9.51c1.38-1.47 2.95-2.48 4.64-.72 3.06 3.19 3.34 6.16 4.41 10.19a.75.74 77.5 00.84.54l2.55-.44a2.64 2.62 49.9 011.35.12q3.13 1.14 6.28 4.03a1.07 1.07 0 01.03 1.55q-4.47 4.36-9.48 4.32a1.16 1.16 0 00-1.06 1.67q3.77 7.75 3.54 15.42a2.56 2.53-58.3 00.29 1.26q3.63 6.9 4.75 15.36.56 4.26 1.13 6.76a.44.44 0 00.84.07q.44-1.05 1.29-3.32c1.88-5.03 6.79-7.81 12.48-8.24q11.01-.84 18.47 1.14 10.9 2.88 20.07 7.88c7.41 4.03 13.42 9.89 19.58 16.76 4.11 4.59 6.51 9.83 9.11 15.62 5.36 11.95 5.73 26.25 3.2 39.3q-2.98 15.35-12.5 26.21-3.6 4.12-11.39 11.91a1.51 1.49-23.1 00-.43 1.05q.04 6.09-2.83 12.63a1.32 1.26-43.7 00-.04.88q2.94 9.15-4.31 13.98a3.86 3.8-70.2 01-.94.45q-1.85.59-5.41 1.98c-11.9 4.66-24.61 6.65-37.55 8.3q-5.34.68-16.74.84-17.84.26-24.84.14-9.32-.16-27.25-3.67-12.67-2.47-21.42-6.21-6.87-2.94-8.67-5.72-2.81-4.37-.89-10.37a1.13 1.11-53.3 00-.13-.95c-2.39-3.71-2.77-8.32-3.05-12.75a2.7 2.7 0 00-1.06-1.95q-4.01-2.99-6.07-5.53c-3.73-4.57-8.48-10.22-11.24-15.94q-9.57-19.85-5.52-40.98 2.57-13.37 10.01-24.32c3.3-4.86 6.29-7.94 10.77-12.03q17.23-15.75 41.52-18.17c7.8-.78 15.52.86 19.22 8.44zm3.31-4.74q-.76 3.48-1.21 7.07-.07.5-.34.63-.3.14-.78.06-1.14.2-2.1-.16a1.2 1.2 0 01-.7-.7q-1.59-4.41-2.36-5.46c-3.14-4.29-6.91-5.33-12.28-5.44-16.31-.33-33.57 7.72-45.15 18.76-17.37 16.55-23.58 41.6-16.17 64.59q5.55 16.6 18.03 27.91l2.42 2.18a1.74 1.71-71.6 01.55 1.12q.51 6.11 2.57 12.22a.34.33 73 00.41.22l23.73-6.56q20.17-3.64 40.65-4.29 12.88-.41 25.89.79 12.92 1.19 25.69 3.53 4.25.77 8.29 1.76l19.12 5.95a.47.47 0 00.6-.35l1.71-7.37.62-6.05a.91.88-21.7 01.23-.51l1.21-1.31q2.75-1.98 5.89-5.36c9.85-10.62 16.75-23.79 17.67-38.24.52-8.3.09-16.52-2.36-24.57q-1.9-6.24-2.99-8.3-3.29-6.21-8.65-13.01c-6.42-8.16-15.61-14.2-24.54-18.57q-4.48-2.19-9.14-3.23c-6.65-1.63-14.41-3.06-21.2-2.03q-5.03.77-7.82 3.53-3.24 3.19-4.17 8.21-2.01.66-3.37.55a.76.76 0 01-.69-.64q-1.13-7.14-2.48-14.52-1.1-5.99-4.45-10.62a1.66 1.65 31.3 01-.3-1.22q.53-3.72.26-5.07-1.18-5.99-3.29-10.04a1.1 1.09 54.9 01.22-1.29q1.04-.99 1.33-2.22a1.27 1.27 0 011.47-.97q3.71.67 7.18-2.35a.49.48 44.6 00-.01-.74q-4.58-3.78-9.59-1.24a.89.89 0 01-1.28-.93q.96-6.11-3.32-10.99a.94.94-44 00-1.39-.02q-4.54 4.86-3.31 10.88a.92.91-.8 01-1.06 1.08q-1.52-.26-2.69-.69c-2.6-.96-4.79.24-6.96 2a.47.47 0 000 .72q2.63 2.13 4.62 2.79c1.13.37 2.05-.56 3.1-.62a.84.82 77.4 01.84.55l1.11 3.02a1.95 1.92 48.1 01-.07 1.52q-1.17 2.42-2.65 7.04-1.11 3.51.23 6.88a.17.16-43.2 01-.01.16q-3.41 5.52-4.48 9.47-1.41 5.17-2.28 10.49m-32.54 118.16q-11.88 1.98-22.82 6.05a3.02 3.01 85.4 00-1.89 2.23q-.63 3.2.03 7.24a.6.59 16.5 00.21.38l3.71 3.09a.86.84-39.5 00.95.08q6.44-3.6 15.62-5.72 11.63-2.7 21.64-3.96 33.7-4 66.99 1.69 15.14 2.49 29.04 8.56a1.49 1.48 43.3 001.26-.03q2.49-1.25 4.57-3.8a.84.83 65 00.19-.53v-6.45a1 1 0 00-.59-.88q-10.43-4.26-21.32-6.8-13.18-3.17-26.6-4.7c-4.03-.46-7.7-.23-11.61-.65q-2.92-.31-8.72-.37c-17.39-.18-33.77.99-50.66 4.57m46.54 30.78q14.31.07 32.74-1.83 15.96-1.65 30.88-7.44a.47.47 0 00.01-.88q-11.3-4.67-24.16-7.02-19.2-3.5-39.38-3.59-20.17-.09-39.41 3.24-12.88 2.23-24.22 6.79a.47.47 0 000 .88q14.87 5.93 30.82 7.72 18.4 2.07 32.72 2.13"/><path fill="#ffc200" d="M766.58 71.82q8.52.98 11.55-3.04-.51 4.31 3.24 6.15 1.82.89 3.58-.03 4.83-2.51 2.75-7.33 4.24-1.56 8.91-1.51-2.18 4.48 1.6 6.92 3.94 2.55 6.66-1.11 2.56-3.43-.67-6.6-2.62-2.59-5.71-.93-.04-1.36 1.28-2.23 4.66 1.04 9.14 3.23c8.93 4.37 18.12 10.41 24.54 18.57q5.36 6.8 8.65 13.01 1.09 2.06 2.99 8.3c2.45 8.05 2.88 16.27 2.36 24.57-.92 14.45-7.82 27.62-17.67 38.24q-3.14 3.38-5.89 5.36-3.26.4-2.03-4.65.74-3.03 5.19-9.21 4.93 1.29 6.64-2.33c1.7-3.61-.01-7.57-4.02-8.26a2.3 2.3 0 00-1.12.08q-5.92 1.89-4.3 7.9-3.64 5.34-8.77 9.06c-.76-8.56-11.68-7.6-10.85.97q-.97.25-1.54-.7a.77.76-22.6 00-.84-.34c-.93.24-1.63 1.22-2.67 1.42q-3.21.62-6.59 1.71a1.43 1.42 49.9 01-1.12-.1l-4.71-2.59a1.38.91 56.6 00-.28-.12q-4.75-1.47-8.85-2.66-1.12-.32-2.25-1-1.1-.66-2.04-1.35-3.41-2.54-9.37-5.83c-5.05-2.8-7.1-6.37-9.35-11.32a6.23 6.16-80.5 00-1.34-1.9q-4.49-4.39-5.86-10.25a.72.72 0 00-1.37-.09l-2.33 6.2a4.62 4.43-19.4 01-.47.93c-4.09 6.17-6.95 10.14-11.83 14.91q-3.2 3.13-9.41 6.14-8.84 4.28-17.35 6.83a58 58 0 00-8.24 3.44 1.02 1.01 67.1 00-.51 1.27l3.57 9.69-23.73 6.56a.34.33 73 01-.41-.22q-2.06-6.11-2.57-12.22a1.74 1.71-71.6 00-.55-1.12l-2.42-2.18 2.35-6.98c3.81 4.67 10.68 1.52 9.49-4.22-1.15-5.52-8.52-5.26-10.2-.25l-7.61-8.32q2.81-1.61 3.19-4.34c.4-2.91-1.88-6.31-4.93-6.3q-3.98.01-5.66 4.72-2.64-.01-4.66-2.22c-7.41-22.99-1.2-48.04 16.17-64.59 11.58-11.04 28.84-19.09 45.15-18.76 5.37.11 9.14 1.15 12.28 5.44q.77 1.05 2.36 5.46a1.2 1.2 0 00.7.7q.96.36 2.1.16.79 1.08.84 2.18c-7.71-2.2-10.84 9.71-2.33 10.55q3.4.34 5.23-3.73c1.81 2.33 3.76 4.97 6.84 5.47q2.85.47 7.67.31c4.11-.14 12.01-4.55 9.74-10.24a1.42 1.4-87.1 00-.63-.71c-6.58-3.62-13.2-6.6-19.55-10.46q-2.52-1.53-5.48-1.13.87-5.32 2.28-10.49 1.07-3.95 4.48-9.47a.17.16-43.2 00.01-.16q-1.34-3.37-.23-6.88 1.48-4.62 2.65-7.04a1.95 1.92 48.1 00.07-1.52l-1.11-3.02a.84.82 77.4 00-.84-.55c-1.05.06-1.97.99-3.1.62q-1.99-.66-4.62-2.79a.47.47 0 010-.72c2.17-1.76 4.36-2.96 6.96-2q1.17.43 2.69.69a.92.91-.8 001.06-1.08q-1.23-6.02 3.31-10.88a.94.94-44 011.39.02q4.28 4.88 3.32 10.99a.89.89 0 001.28.93q5.01-2.54 9.59 1.24a.49.48 44.6 01.01.74q-3.47 3.02-7.18 2.35a1.27 1.27 0 00-1.47.97q-.29 1.23-1.33 2.22a1.1 1.09 54.9 00-.22 1.29q2.11 4.05 3.29 10.04.27 1.35-.26 5.07a1.66 1.65 31.3 00.3 1.22q3.35 4.63 4.45 10.62 1.35 7.38 2.48 14.52a.76.76 0 00.69.64q1.36.11 3.37-.55m-60.63-2.76a5.13 5.13 0 00-5.13-5.13 5.13 5.13 0 00-5.13 5.13 5.13 5.13 0 005.13 5.13 5.13 5.13 0 005.13-5.13m9.32-3.61a5.27 5.1-112.1 00-2.75 6.8 5.27 5.1-112.1 006.71 2.96 5.27 5.1-112.1 002.75-6.8 5.27 5.1-112.1 00-6.71-2.96M686.14 72a5.36 5.14-110.2 00-2.97 6.8 5.36 5.14-110.2 006.67 3.26 5.36 5.14-110.2 002.97-6.8 5.36 5.14-110.2 00-6.67-3.26m127.38 1.58a5.26 5.05-88.3 00-5.2 5.11 5.26 5.05-88.3 004.88 5.4 5.26 5.05-88.3 005.2-5.1 5.26 5.05-88.3 00-4.88-5.4m-49.54.98a5.39 5.06-120 00-1.7 7.2 5.39 5.06-120 007.09 2.14 5.39 5.06-120 001.68-7.2 5.39 5.06-120 00-7.07-2.14m-53.64 3.7a5.34 5.07-54.5 00-7.23 1.4 5.34 5.07-54.5 001.03 7.29 5.34 5.07-54.5 007.23-1.4 5.34 5.07-54.5 00-1.03-7.3m81.9.26a5.39 5.25-118.3 00-2.06 7.24 5.39 5.25-118.3 007.18 2.26 5.39 5.25-118.3 002.06-7.24 5.39 5.25-118.3 00-7.18-2.26m-111.08 7.54a5.04 5.04 0 00-5.04-5.04 5.04 5.04 0 00-5.04 5.04 5.04 5.04 0 005.04 5.04 5.04 5.04 0 005.04-5.04m144.3.98a5.39 5.12-72.4 00-6.51 3.6 5.39 5.12-72.4 003.25 6.68 5.39 5.12-72.4 006.51-3.6 5.39 5.12-72.4 00-3.25-6.68m-47 1.2a5.34 5.08-89.4 00-5.14 5.29 5.34 5.08-89.4 005.02 5.39 5.34 5.08-89.4 005.14-5.29 5.34 5.08-89.4 00-5.02-5.39m-53.26 5.59a5.14 5.14 0 00-5.14-5.14 5.14 5.14 0 00-5.14 5.14 5.14 5.14 0 005.14 5.14 5.14 5.14 0 005.14-5.14m19.26.08a5.2 5.2 0 00-5.2-5.2 5.2 5.2 0 00-5.2 5.2 5.2 5.2 0 005.2 5.2 5.2 5.2 0 005.2-5.2m10.99-5.36a5.33 5.13-91.2 00-5.02 5.44 5.33 5.13-91.2 005.24 5.22 5.33 5.13-91.2 005.02-5.44 5.33 5.13-91.2 00-5.24-5.22m-59.37 1.75a5.41 5.12-83.9 00-5.66 4.84 5.41 5.12-83.9 004.52 5.92 5.41 5.12-83.9 005.66-4.84 5.41 5.12-83.9 00-4.52-5.92m109.12 2.72a5.61 5.31-84 00-5.87 5.03 5.61 5.31-84 004.7 6.13 5.61 5.31-84 005.86-5.02 5.61 5.31-84 00-4.7-6.14m-140.58.92a5.46 5.22-117.6 00-2.1 7.26 5.46 5.22-117.6 007.16 2.42 5.46 5.22-117.6 002.1-7.26 5.46 5.22-117.6 00-7.16-2.42m49.74 8.88a5.39 5.09-70.1 00-6.62 3.34 5.39 5.09-70.1 002.96 6.8 5.39 5.09-70.1 006.62-3.34 5.39 5.09-70.1 00-2.96-6.8m118.53.34a5.24 5.1-65.3 00-6.82 2.63 5.24 5.1-65.3 002.44 6.9 5.24 5.1-65.3 006.82-2.64 5.24 5.1-65.3 00-2.44-6.9m-43.24 5.09a5.24 5.24 0 00-5.24-5.24 5.24 5.24 0 00-5.24 5.24 5.24 5.24 0 005.24 5.24 5.24 5.24 0 005.24-5.24m-52.59 1.58a5.2 5.2 0 00-5.19-5.19 5.2 5.2 0 00-5.19 5.19 5.2 5.2 0 005.19 5.19 5.2 5.2 0 005.19-5.19m24.03-4.93a5.33 5.15-84.3 00-5.65 4.79 5.33 5.15-84.3 004.6 5.81 5.33 5.15-84.3 005.64-4.79 5.33 5.15-84.3 00-4.6-5.81m-74.72.47a5.29 5.05-102 00-3.84 6.22 5.29 5.05-102 006.04 4.12 5.29 5.05-102 003.84-6.22 5.29 5.05-102 00-6.04-4.12m-23.36 2.76a5.42 5.19-77.7 00-6.22 4.2 5.42 5.19-77.7 003.92 6.4 5.42 5.19-77.7 006.22-4.2 5.42 5.19-77.7 00-3.92-6.4M815 113.6a5.26 5.26 0 00-5.26-5.26 5.26 5.26 0 00-5.26 5.26 5.26 5.26 0 005.26 5.26 5.26 5.26 0 005.26-5.26m-63.09 4.8a5.3 5.3 0 00-5.31-5.31 5.3 5.3 0 00-5.31 5.31 5.3 5.3 0 005.31 5.31 5.3 5.3 0 005.31-5.31m87.3 4.32a5.25 5.25 0 00-5.25-5.25 5.25 5.25 0 00-5.25 5.25 5.25 5.25 0 005.25 5.25 5.25 5.25 0 005.25-5.25m-131.32-4.68a5.48 5.12-77.4 00-6.2 4.23 5.48 5.12-77.4 003.8 6.47 5.48 5.12-77.4 006.2-4.23 5.48 5.12-77.4 00-3.8-6.47m80.33 2.88a5.38 5.2-96.5 00-4.56 5.94 5.38 5.2-96.5 005.78 4.76 5.38 5.2-96.5 004.56-5.94 5.38 5.2-96.5 00-5.78-4.76m-106.43 1.2a5.4 5.19-95.6 00-4.64 5.88 5.4 5.19-95.6 005.7 4.86 5.4 5.19-95.6 004.64-5.88 5.4 5.19-95.6 00-5.7-4.86m51.39 5.35a5.3 5.3 0 00-5.28-5.28 5.3 5.3 0 00-5.28 5.28 5.3 5.3 0 005.28 5.28 5.3 5.3 0 005.28-5.28m-73.55-3.73a5.46 5.2-93.2 00-4.9 5.74 5.46 5.2-93.2 005.5 5.16 5.46 5.2-93.2 004.9-5.74 5.46 5.2-93.2 00-5.5-5.16m108.2.2a5.31 5.16-82.4 00-5.82 4.59 5.31 5.16-82.4 004.4 5.94 5.31 5.16-82.4 005.82-4.58 5.31 5.16-82.4 00-4.4-5.94m49.74 7.69a5.27 5.27 0 00-5.27-5.27 5.27 5.27 0 00-5.27 5.27 5.27 5.27 0 005.27 5.27 5.27 5.27 0 005.27-5.27m11.2 4.81a5.42 5.17-156.2 002.86 6.92 5.42 5.17-156.2 007.05-2.54 5.42 5.17-156.2 00-2.87-6.92 5.42 5.17-156.2 00-7.05 2.54m-121.12 5.99a5.2 5.2 0 00-5.19-5.19 5.2 5.2 0 00-5.19 5.19 5.2 5.2 0 005.19 5.19 5.2 5.2 0 005.19-5.19m-21.35 1.18a5.34 5.34 0 00-5.34-5.34 5.34 5.34 0 00-5.34 5.34 5.34 5.34 0 005.34 5.34 5.34 5.34 0 005.34-5.34m106-5.3a5.44 5.23-89.6 00-5.27 5.4 5.44 5.23-89.6 005.2 5.48 5.44 5.23-89.6 005.26-5.4 5.44 5.23-89.6 00-5.2-5.48m-67.05.38a5.35 5.15-73.8 00-6.44 3.7 5.35 5.15-73.8 003.46 6.58 5.35 5.15-73.8 006.44-3.7 5.35 5.15-73.8 00-3.46-6.58m50.93 7.79a5.2 5.2 0 00-5.18-5.18 5.2 5.2 0 00-5.18 5.18 5.2 5.2 0 005.18 5.18 5.2 5.2 0 005.18-5.18m31.17-.15a5.28 5.12-148.6 001.84 7.12 5.28 5.12-148.6 007.18-1.62 5.28 5.12-148.6 00-1.84-7.12 5.28 5.12-148.6 00-7.18 1.62m-102.15 14.52a5.4 5.4 0 00-5.4-5.4 5.4 5.4 0 00-5.4 5.4 5.4 5.4 0 005.4 5.4 5.4 5.4 0 005.4-5.4m93.25 1.07a5.4 5.4 0 00-5.39-5.39 5.4 5.4 0 00-5.39 5.39 5.4 5.4 0 005.39 5.39 5.4 5.4 0 005.39-5.39"/><path fill="#d7a100" d="M799.77 62.11q-1.32.87-1.28 2.23l-1.88 1.72q-4.67-.05-8.91 1.51-2.43-3.53-5.7-2.67-2.29.6-3.87 3.88-3.03 4.02-11.55 3.04.93-5.02 4.17-8.21 2.79-2.76 7.82-3.53c6.79-1.03 14.55.4 21.2 2.03m-65.1 19.45q.71-4.39-2.9-6.82-.05-1.1-.84-2.18.48.08.78-.06.27-.13.34-.63.45-3.59 1.21-7.07 2.96-.4 5.48 1.13c6.35 3.86 12.97 6.84 19.55 10.46a1.42 1.4-87.1 01.63.71c2.27 5.69-5.63 10.1-9.74 10.24q-4.82.16-7.67-.31c-3.08-.5-5.03-3.14-6.84-5.47"/><path fill="#030404" d="m796.61 66.06 1.88-1.72q3.09-1.66 5.71.93 3.23 3.17.67 6.6-2.72 3.66-6.66 1.11-3.78-2.44-1.6-6.92m8.05 2.72a3.77 3.77 0 00-3.77-3.77 3.77 3.77 0 00-3.77 3.77 3.77 3.77 0 003.77 3.77 3.77 3.77 0 003.77-3.77m-98.71.28a5.13 5.13 0 01-5.13 5.13 5.13 5.13 0 01-5.13-5.13 5.13 5.13 0 015.13-5.13 5.13 5.13 0 015.13 5.13m-1.12-.03a3.9 3.9 0 00-3.9-3.9 3.9 3.9 0 00-3.9 3.9 3.9 3.9 0 003.9 3.9 3.9 3.9 0 003.9-3.9m82.87-1.46q2.08 4.82-2.75 7.33-1.76.92-3.58.03-3.75-1.84-3.24-6.15 1.58-3.28 3.87-3.88 3.27-.86 5.7 2.67m-.62 2.49a3.8 3.8 0 00-3.82-3.82 3.8 3.8 0 00-3.82 3.82 3.8 3.8 0 003.82 3.82 3.8 3.8 0 003.82-3.82"/><circle cx="700.93" cy="69.03" r="3.9" fill="#ffc200"/><path fill="#030404" d="M715.27 65.45a5.27 5.1-112.1 016.7 2.96 5.27 5.1-112.1 01-2.74 6.8 5.27 5.1-112.1 01-6.7-2.96 5.27 5.1-112.1 012.74-6.8m5.83 4.88a3.86 3.86 0 00-3.86-3.86 3.86 3.86 0 00-3.86 3.86 3.86 3.86 0 003.86 3.86 3.86 3.86 0 003.86-3.86"/><circle cx="800.89" cy="68.78" r="3.77" fill="#ffc200"/><circle cx="783.26" cy="70.06" r="3.82" fill="#ffc200"/><circle cx="717.24" cy="70.33" r="3.86" fill="#ffc200"/><path fill="#030404" d="M686.14 72.01a5.36 5.14-110.2 016.67 3.26 5.36 5.14-110.2 01-2.97 6.8 5.36 5.14-110.2 01-6.67-3.26 5.36 5.14-110.2 012.97-6.8m.04 1.73a3.94 3.7-117 00-1.5 5.19 3.94 3.7-117 005.08 1.83 3.94 3.7-117 001.5-5.19 3.94 3.7-117 00-5.08-1.83"/><ellipse fill="#ffc200" rx="3.94" ry="3.7" transform="rotate(243 367.65 -172.17)"/><path fill="#030404" d="M813.52 73.6a5.26 5.05-88.3 014.89 5.4 5.26 5.05-88.3 01-5.2 5.1 5.26 5.05-88.3 01-4.9-5.4 5.26 5.05-88.3 015.2-5.1m.83 1.64a3.89 3.74-76.6 00-4.54 2.91 3.89 3.74-76.6 002.74 4.65 3.89 3.74-76.6 004.54-2.91 3.89 3.74-76.6 00-2.74-4.65m-50.36-.67a5.39 5.06-120 017.07 2.14 5.39 5.06-120 01-1.68 7.2 5.39 5.06-120 01-7.08-2.14 5.39 5.06-120 011.69-7.2m6.6 4.78a3.95 3.95 0 00-3.95-3.95 3.95 3.95 0 00-3.95 3.95 3.95 3.95 0 003.95 3.95 3.95 3.95 0 003.95-3.95m-38.81-4.61q3.61 2.43 2.9 6.82-1.83 4.07-5.23 3.73c-8.51-.84-5.38-12.75 2.33-10.55m.07 1.92a3.96 3.83-58.4 00-5.34 1.36 3.96 3.83-58.4 001.18 5.38 3.96 3.83-58.4 005.34-1.36 3.96 3.83-58.4 00-1.18-5.38"/><ellipse fill="#ffc200" rx="3.89" ry="3.74" transform="rotate(-76.6 456.75 -475.5)"/><circle cx="766.63" cy="79.35" r="3.95" fill="#ffc200"/><ellipse fill="#ffc200" rx="3.96" ry="3.83" transform="rotate(-58.4 436.48 -612.86)"/><path fill="#030404" d="M710.34 78.26a5.34 5.07-54.5 011.03 7.3 5.34 5.07-54.5 01-7.23 1.4 5.34 5.07-54.5 01-1.03-7.3 5.34 5.07-54.5 017.23-1.4m-1.59.75a3.99 3.59-68 00-4.82 2.36 3.99 3.59-68 001.84 5.04 3.99 3.59-68 004.82-2.36 3.99 3.59-68 00-1.84-5.04m83.49-.48a5.39 5.25-118.3 017.18 2.26 5.39 5.25-118.3 01-2.06 7.24 5.39 5.25-118.3 01-7.18-2.26 5.39 5.25-118.3 012.06-7.24m6.38 4.78a3.8 3.8 0 00-3.82-3.82 3.8 3.8 0 00-3.82 3.82 3.8 3.8 0 003.82 3.82 3.8 3.8 0 003.82-3.82"/><ellipse fill="#ffc200" rx="3.99" ry="3.59" transform="rotate(-68 414.94 -482.92)"/><circle cx="794.8" cy="83.31" r="3.82" fill="#ffc200"/><path fill="#030404" d="M681.16 86.07a5.04 5.04 0 01-5.04 5.04 5.04 5.04 0 01-5.04-5.04 5.04 5.04 0 015.04-5.04 5.04 5.04 0 015.04 5.04m-1.15-.02a3.8 3.8 0 00-3.81-3.81 3.8 3.8 0 00-3.81 3.81 3.8 3.8 0 003.81 3.81 3.8 3.8 0 003.81-3.81"/><circle cx="676.2" cy="86.05" r="3.81" fill="#ffc200"/><path fill="#030404" d="M825.46 87.05a5.39 5.12-72.4 013.25 6.69 5.39 5.12-72.4 01-6.51 3.59 5.39 5.12-72.4 01-3.25-6.69 5.39 5.12-72.4 016.51-3.59m0 1.56a3.97 3.72-65.9 00-5.02 2.1 3.97 3.72-65.9 001.78 5.14 3.97 3.72-65.9 005.02-2.1 3.97 3.72-65.9 00-1.78-5.14m-47-.36a5.34 5.08-89.4 015.02 5.4 5.34 5.08-89.4 01-5.14 5.28 5.34 5.08-89.4 01-5.02-5.4 5.34 5.08-89.4 015.14-5.28m3.98 5.55a3.94 3.94 0 00-3.94-3.94 3.94 3.94 0 00-3.94 3.94 3.94 3.94 0 003.94 3.94 3.94 3.94 0 003.94-3.94"/><ellipse fill="#ffc200" rx="3.97" ry="3.72" transform="rotate(-65.9 483.07 -589.4)"/><path fill="#030404" d="M725.2 93.84a5.14 5.14 0 01-5.14 5.14 5.14 5.14 0 01-5.14-5.14 5.14 5.14 0 015.14-5.14 5.14 5.14 0 015.14 5.14m-1.34.15a3.8 3.8 0 00-3.8-3.8 3.8 3.8 0 00-3.8 3.8 3.8 3.8 0 003.8 3.8 3.8 3.8 0 003.8-3.8m20.6-.07a5.2 5.2 0 01-5.2 5.2 5.2 5.2 0 01-5.2-5.2 5.2 5.2 0 015.2-5.2 5.2 5.2 0 015.2 5.2m-1.31.08a3.84 3.84 0 00-3.84-3.84 3.84 3.84 0 00-3.84 3.84 3.84 3.84 0 003.84 3.84 3.84 3.84 0 003.84-3.84m12.3-5.44a5.33 5.13-91.2 015.24 5.22 5.33 5.13-91.2 01-5.02 5.44 5.33 5.13-91.2 01-5.24-5.22 5.33 5.13-91.2 015.02-5.44m3.96 5.35a3.9 3.9 0 00-3.88-3.88 3.9 3.9 0 00-3.88 3.88 3.9 3.9 0 003.88 3.88 3.9 3.9 0 003.88-3.88"/><circle cx="778.5" cy="93.8" r="3.94" fill="#ffc200"/><circle cx="720.06" cy="93.99" r="3.8" fill="#ffc200"/><circle cx="755.53" cy="93.91" r="3.88" fill="#ffc200"/><path fill="#030404" d="M696.08 90.31a5.41 5.12-83.9 014.52 5.92 5.41 5.12-83.9 01-5.66 4.84 5.41 5.12-83.9 01-4.52-5.92 5.41 5.12-83.9 015.66-4.84m-.5 1.53a4 3.61-89.6 00-3.63 3.97 4 3.61-89.6 003.58 4.03 4 3.61-89.6 003.64-3.97 4 3.61-89.6 00-3.58-4.03"/><circle cx="739.31" cy="94" r="3.84" fill="#ffc200"/><ellipse fill="#ffc200" rx="4" ry="3.61" transform="rotate(-89.6 396.04 -302.3)"/><path fill="#030404" d="M805.2 93.03a5.61 5.31-84 014.7 6.14 5.61 5.31-84 01-5.88 5.02 5.61 5.31-84 01-4.7-6.13 5.61 5.31-84 015.88-5.03m-.64 1.5a4.04 3.84-90.2 00-3.83 4.05 4.04 3.84-90.2 003.85 4.03 4.04 3.84-90.2 003.83-4.05 4.04 3.84-90.2 00-3.85-4.03m-139.94-.58a5.46 5.22-117.6 017.16 2.42 5.46 5.22-117.6 01-2.1 7.26 5.46 5.22-117.6 01-7.16-2.42 5.46 5.22-117.6 012.1-7.26m6.54 4.75a3.97 3.97 0 00-3.97-3.97 3.97 3.97 0 00-3.97 3.97 3.97 3.97 0 003.97 3.97 3.97 3.97 0 003.97-3.97"/><ellipse fill="#ffc200" rx="4.04" ry="3.84" transform="rotate(-90.2 451.4 -351.6)"/><circle cx="667.19" cy="98.7" r="3.97" fill="#ffc200"/><path fill="#030404" d="M714.36 102.83a5.39 5.09-70.1 012.96 6.8 5.39 5.09-70.1 01-6.62 3.34 5.39 5.09-70.1 01-2.96-6.8 5.39 5.09-70.1 016.62-3.34m2.02 5.13a3.83 3.83 0 00-3.83-3.83 3.83 3.83 0 00-3.83 3.83 3.83 3.83 0 003.83 3.83 3.83 3.83 0 003.83-3.83m116.51-4.79a5.24 5.1-65.3 012.44 6.9 5.24 5.1-65.3 01-6.82 2.62 5.24 5.1-65.3 01-2.44-6.9 5.24 5.1-65.3 016.82-2.62m1.67 4.64a3.8 3.8 0 00-3.82-3.82 3.8 3.8 0 00-3.82 3.82 3.8 3.8 0 003.82 3.82 3.8 3.8 0 003.82-3.82m-44.91.45a5.24 5.24 0 01-5.24 5.24 5.24 5.24 0 01-5.24-5.24 5.24 5.24 0 015.24-5.24 5.24 5.24 0 015.24 5.24m-4.04-3.7a3.92 3.73-73 00-4.72 2.66 3.92 3.73-73 002.42 4.84 3.92 3.73-73 004.72-2.66 3.92 3.73-73 00-2.42-4.84"/><circle cx="712.55" cy="107.96" r="3.83" fill="#ffc200"/><circle cx="830.74" cy="107.81" r="3.82" fill="#ffc200"/><path fill="#030404" d="M737.06 109.84a5.2 5.2 0 01-5.19 5.19 5.2 5.2 0 01-5.19-5.19 5.2 5.2 0 015.19-5.19 5.2 5.2 0 015.19 5.19m-1.15.2a3.9 3.9 0 00-3.88-3.88 3.9 3.9 0 00-3.88 3.88 3.9 3.9 0 003.88 3.88 3.9 3.9 0 003.88-3.88"/><ellipse fill="#ffc200" rx="3.92" ry="3.73" transform="rotate(-73 465.42 -475.91)"/><path fill="#030404" d="M761.09 104.9a5.33 5.15-84.3 014.6 5.82 5.33 5.15-84.3 01-5.66 4.8 5.33 5.15-84.3 01-4.6-5.82 5.33 5.15-84.3 015.66-4.8m3.5 5.29a3.94 3.94 0 00-3.94-3.94 3.94 3.94 0 00-3.94 3.94 3.94 3.94 0 003.94 3.94 3.94 3.94 0 003.94-3.94m-78.22-4.81a5.29 5.05-102 016.04 4.12 5.29 5.05-102 01-3.84 6.22 5.29 5.05-102 01-6.04-4.12 5.29 5.05-102 013.84-6.22m1.14 1.3a4.02 3.75-89.9 00-3.76 4.01 4.02 3.75-89.9 003.74 4.03 4.02 3.75-89.9 003.76-4.01 4.02 3.75-89.9 00-3.74-4.03"/><circle cx="732.03" cy="110.04" r="3.88" fill="#ffc200"/><circle cx="760.65" cy="110.19" r="3.94" fill="#ffc200"/><ellipse fill="#ffc200" rx="4.02" ry="3.75" transform="rotate(-89.9 399.2 -289)"/><path fill="#030404" d="M663.01 108.14a5.42 5.19-77.7 013.92 6.4 5.42 5.19-77.7 01-6.22 4.2 5.42 5.19-77.7 01-3.92-6.4 5.42 5.19-77.7 016.22-4.2m-1.93 1.33a4.06 3.78-101 00-2.94 4.71 4.06 3.78-101 004.48 3.27 4.06 3.78-101 002.94-4.71 4.06 3.78-101 00-4.48-3.27m153.94 4.15a5.26 5.26 0 01-5.26 5.26 5.26 5.26 0 01-5.26-5.26 5.26 5.26 0 015.26-5.26 5.26 5.26 0 015.26 5.26m-1.29.13a3.93 3.93 0 00-3.93-3.93 3.93 3.93 0 00-3.93 3.93 3.93 3.93 0 003.93 3.93 3.93 3.93 0 003.93-3.93"/><ellipse fill="#ffc200" rx="4.06" ry="3.78" transform="rotate(259 377.69 -216.06)"/><circle cx="809.8" cy="113.75" r="3.93" fill="#ffc200"/><path fill="#030404" d="M751.93 118.42a5.3 5.3 0 01-5.31 5.31 5.3 5.3 0 01-5.31-5.31 5.3 5.3 0 015.31-5.31 5.3 5.3 0 015.31 5.31m-1.37.09a3.93 3.93 0 00-3.93-3.93 3.93 3.93 0 00-3.93 3.93 3.93 3.93 0 003.93 3.93 3.93 3.93 0 003.93-3.93"/><circle cx="746.63" cy="118.51" r="3.93" fill="#ffc200"/><path fill="#030404" d="M839.23 122.74a5.25 5.25 0 01-5.25 5.25 5.25 5.25 0 01-5.25-5.25 5.25 5.25 0 015.25-5.25 5.25 5.25 0 015.25 5.25m-1.41.09a3.74 3.74 0 00-3.74-3.74 3.74 3.74 0 00-3.74 3.74 3.74 3.74 0 003.74 3.74 3.74 3.74 0 003.74-3.74m-129.92-4.77a5.48 5.12-77.4 013.8 6.47 5.48 5.12-77.4 01-6.19 4.23 5.48 5.12-77.4 01-3.8-6.47 5.48 5.12-77.4 016.2-4.23m-.92 1.52a3.99 3.66-86.5 00-3.9 3.76 3.99 3.66-86.5 003.42 4.2 3.99 3.66-86.5 003.9-3.76 3.99 3.66-86.5 00-3.42-4.2"/><circle cx="834.08" cy="122.83" r="3.74" fill="#ffc200"/><ellipse fill="#ffc200" rx="3.99" ry="3.66" transform="rotate(-86.5 419.04 -313.86)"/><path fill="#030404" d="M788.24 120.94a5.38 5.2-96.5 015.78 4.76 5.38 5.2-96.5 01-4.56 5.94 5.38 5.2-96.5 01-5.78-4.76 5.38 5.2-96.5 014.56-5.94m4.61 5.59a3.9 3.9 0 00-3.92-3.92 3.9 3.9 0 00-3.92 3.92 3.9 3.9 0 003.92 3.92 3.9 3.9 0 003.92-3.92m-111.04-4.39a5.4 5.19-95.6 015.7 4.86 5.4 5.19-95.6 01-4.64 5.88 5.4 5.19-95.6 01-5.7-4.86 5.4 5.19-95.6 014.64-5.88m4.56 5.26a4 4 0 00-4.02-4.02 4 4 0 00-4.02 4.02 4 4 0 004.02 4.02 4 4 0 004.02-4.02m46.83.09a5.3 5.3 0 01-5.28 5.28 5.3 5.3 0 01-5.28-5.28 5.3 5.3 0 015.28-5.28 5.3 5.3 0 015.28 5.28m-1.26-.12a4 4 0 00-3.98-3.98 4 4 0 00-3.98 3.98 4 4 0 003.98 3.98 4 4 0 003.98-3.98"/><circle cx="788.93" cy="126.53" r="3.92" fill="#ffc200"/><circle cx="682.35" cy="127.4" r="4.02" fill="#ffc200"/><circle cx="727.96" cy="127.37" r="3.98" fill="#ffc200"/><path fill="#030404" d="M659.65 123.76a5.46 5.2-93.2 015.5 5.16 5.46 5.2-93.2 01-4.9 5.74 5.46 5.2-93.2 01-5.5-5.16 5.46 5.2-93.2 014.9-5.74m4.27 5.76a3.95 3.95 0 00-3.95-3.95 3.95 3.95 0 00-3.95 3.95 3.95 3.95 0 003.95 3.95 3.95 3.95 0 003.95-3.95m103.92-5.55a5.31 5.16-82.4 014.41 5.94 5.31 5.16-82.4 01-5.81 4.58 5.31 5.16-82.4 01-4.41-5.94 5.31 5.16-82.4 015.81-4.58m3.22 5.14a3.9 3.9 0 00-3.92-3.92 3.9 3.9 0 00-3.92 3.92 3.9 3.9 0 003.92 3.92 3.9 3.9 0 003.92-3.92"/><circle cx="767.14" cy="129.11" r="3.92" fill="#ffc200"/><circle cx="659.97" cy="129.52" r="3.95" fill="#ffc200"/><path fill="#030404" d="M817.59 131.65a5.27 5.27 0 01-5.27 5.27 5.27 5.27 0 01-5.27-5.27 5.27 5.27 0 015.27-5.27 5.27 5.27 0 015.27 5.27m-1.43-.04a3.83 3.83 0 00-3.83-3.83 3.83 3.83 0 00-3.83 3.83 3.83 3.83 0 003.83 3.83 3.83 3.83 0 003.83-3.83"/><circle cx="812.33" cy="131.61" r="3.83" fill="#ffc200"/><path fill="#d7a100" d="M804.63 166.95c2.53 5.42 9.34 4.87 10.85-.97q5.13-3.72 8.77-9.06l2.8 2.61q-4.45 6.18-5.19 9.21-1.23 5.05 2.03 4.65l-1.21 1.31a.91.88-21.7 00-.23.51l-.62 6.05-.3-2.01a.11.11-28.3 00-.18-.05l-.19.18a.12.12 0 01-.17-.05l-.16-.31a.4.4 0 00-.56-.15q-1.84 1.29-2.84.71-9.88-5.74-17.03 3.45-4.04-.99-8.29-1.76-12.77-2.34-25.69-3.53-13.01-1.2-25.89-.79-20.48.65-40.65 4.29l-3.57-9.69a1.02 1.01 67.1 01.51-1.27 58 58 0 018.24-3.44q8.51-2.55 17.35-6.83 6.21-3.01 9.41-6.14c4.88-4.77 7.74-8.74 11.83-14.91a4.62 4.43-19.4 00.47-.93l2.33-6.2a.72.72 0 011.37.09q1.37 5.86 5.86 10.25a6.23 6.16-80.5 011.34 1.9c2.25 4.95 4.3 8.52 9.35 11.32q5.96 3.29 9.37 5.83.94.69 2.04 1.35 1.13.68 2.25 1 4.1 1.19 8.85 2.66a1.38.91 56.6 01.28.12l4.71 2.59a1.43 1.42 49.9 001.12.1q3.38-1.09 6.59-1.71c1.04-.2 1.74-1.18 2.67-1.42a.77.76-22.6 01.84.34q.57.95 1.54.7"/><path fill="#030404" d="M828.78 136.46a5.42 5.17-156.2 017.05-2.54 5.42 5.17-156.2 012.87 6.92 5.42 5.17-156.2 01-7.05 2.54 5.42 5.17-156.2 01-2.87-6.92m8.95 2.17a4 4 0 00-3.98-3.98 4 4 0 00-3.98 3.98 4 4 0 003.98 3.98 4 4 0 003.98-3.98"/><circle cx="833.75" cy="138.63" r="3.98" fill="#ffc200"/><path fill="#030404" d="M707.67 142.45a5.2 5.2 0 01-5.19 5.19 5.2 5.2 0 01-5.19-5.19 5.2 5.2 0 015.19-5.19 5.2 5.2 0 015.19 5.19m-1.2-.01a4 4 0 00-4-4 4 4 0 00-4 4 4 4 0 004 4 4 4 0 004-4m-20.15 1.19a5.34 5.34 0 01-5.34 5.34 5.34 5.34 0 01-5.34-5.34 5.34 5.34 0 015.34-5.34 5.34 5.34 0 015.34 5.34m-1.34.2a3.93 3.93 0 00-3.93-3.93 3.93 3.93 0 00-3.93 3.93 3.93 3.93 0 003.93 3.93 3.93 3.93 0 003.93-3.93"/><circle cx="702.47" cy="142.44" r="4" fill="#ffc200"/><path fill="#030404" d="M792.32 138.33a5.44 5.23-89.6 015.19 5.48 5.44 5.23-89.6 01-5.27 5.4 5.44 5.23-89.6 01-5.19-5.48 5.44 5.23-89.6 015.27-5.4m.03 1.32a4.11 3.86-89.1 00-3.92 4.05 4.11 3.86-89.1 003.8 4.17 4.11 3.86-89.1 003.92-4.05 4.11 3.86-89.1 00-3.8-4.17m-67.08-.94a5.35 5.15-73.8 013.46 6.58 5.35 5.15-73.8 01-6.44 3.7 5.35 5.15-73.8 01-3.46-6.58 5.35 5.15-73.8 016.44-3.7m2.45 5.29a3.9 3.9 0 00-3.9-3.9 3.9 3.9 0 00-3.9 3.9 3.9 3.9 0 003.9 3.9 3.9 3.9 0 003.9-3.9"/><circle cx="681.05" cy="143.83" r="3.93" fill="#ffc200"/><ellipse fill="#ffc200" rx="4.11" ry="3.86" transform="rotate(-89.1 469.16 -330.54)"/><circle cx="723.82" cy="144" r="3.9" fill="#ffc200"/><path fill="#030404" d="M776.2 146.5a5.2 5.2 0 01-5.18 5.18 5.2 5.2 0 01-5.18-5.18 5.2 5.2 0 015.18-5.18 5.2 5.2 0 015.18 5.18m-1.23.04a3.96 3.96 0 00-3.96-3.96 3.96 3.96 0 00-3.96 3.96 3.96 3.96 0 003.96 3.96 3.96 3.96 0 003.96-3.96m-110.74 5.75c-3.98 1.37-8.26-1.66-7.4-5.92q1.68-4.71 5.66-4.72c3.05-.01 5.33 3.39 4.93 6.3q-.38 2.73-3.19 4.34m-.32-8.9a4.09 3.86-65.9 00-5.2 2.16 4.09 3.86-65.9 001.86 5.31 4.09 3.86-65.9 005.2-2.15 4.09 3.86-65.9 00-1.86-5.31"/><circle cx="771.01" cy="146.54" r="3.96" fill="#ffc200"/><ellipse fill="#ffc200" rx="4.09" ry="3.86" transform="rotate(-65.9 444.62 -437.3)"/><path fill="#030404" d="M807.37 146.35a5.28 5.12-148.6 017.18-1.62 5.28 5.12-148.6 011.84 7.12 5.28 5.12-148.6 01-7.18 1.62 5.28 5.12-148.6 01-1.84-7.12m.79 1.65a3.97 3.82-161.9 002.58 4.86 3.97 3.82-161.9 004.96-2.4 3.97 3.82-161.9 00-2.58-4.86 3.97 3.82-161.9 00-4.96 2.4"/><path fill="#d7a100" d="M656.83 146.37c-.86 4.26 3.42 7.29 7.4 5.92l7.61 8.32q-.16 2.41.71 4.47l-2.35 6.98q-12.48-11.31-18.03-27.91 2.02 2.21 4.66 2.22"/><ellipse fill="#ffc200" rx="3.97" ry="3.82" transform="rotate(198.1 417.85 9.95)"/><path fill="#030404" d="m827.05 159.53-2.8-2.61q-1.62-6.01 4.3-7.9a2.3 2.3 0 011.12-.08c4.01.69 5.72 4.65 4.02 8.26q-1.71 3.62-6.64 2.33m5.88-5.06a3.8 3.8 0 00-3.81-3.81 3.8 3.8 0 00-3.81 3.81 3.8 3.8 0 003.81 3.81 3.8 3.8 0 003.81-3.81"/><circle cx="829.12" cy="154.47" r="3.81" fill="#ffc200"/><path fill="#030404" d="M705.22 160.87a5.4 5.4 0 01-5.4 5.4 5.4 5.4 0 01-5.4-5.4 5.4 5.4 0 015.4-5.4 5.4 5.4 0 015.4 5.4m-1.33.12a4 4 0 00-4-4 4 4 0 00-4 4 4 4 0 004 4 4 4 0 004-4m94.58.95a5.4 5.4 0 01-5.39 5.39 5.4 5.4 0 01-5.39-5.39 5.4 5.4 0 015.39-5.39 5.4 5.4 0 015.39 5.39m-1.49.13a3.96 3.96 0 00-3.96-3.96 3.96 3.96 0 00-3.96 3.96 3.96 3.96 0 003.96 3.96 3.96 3.96 0 003.96-3.96m-124.43 3.01q-.87-2.06-.71-4.47c1.68-5.01 9.05-5.27 10.2.25 1.19 5.74-5.68 8.89-9.49 4.22m8.4-3.05a4 4 0 00-3.98-3.98 4 4 0 00-3.98 3.98 4 4 0 003.98 3.98 4 4 0 003.98-3.98"/><circle cx="699.89" cy="160.99" r="4" fill="#ffc200"/><circle cx="676.97" cy="162.03" r="3.98" fill="#ffc200"/><circle cx="793.02" cy="162.07" r="3.96" fill="#ffc200"/><path fill="#030404" d="M815.48 165.98c-1.51 5.84-8.32 6.39-10.85.97-.83-8.57 10.09-9.53 10.85-.97m-1.57-.63a3.97 3.97 0 00-3.97-3.97 3.97 3.97 0 00-3.97 3.97 3.97 3.97 0 003.97 3.97 3.97 3.97 0 003.97-3.97"/><circle cx="809.94" cy="165.35" r="3.97" fill="#ffc200"/><path fill="#ffc200" d="m821.83 181.26-1.71 7.37a.47.47 0 01-.6.35l-19.12-5.95q7.15-9.19 17.03-3.45 1 .58 2.84-.71a.4.4 0 01.56.15l.16.31a.12.12 0 00.17.05l.19-.18a.11.11-28.3 01.18.05z"/><path fill="#d7a100" d="M798.31 184.11c-.47 3.45 1.55 5.66 4.1 7.91a.65.65 0 01-.07 1.03l-.22.14a1.98 1.97 86.1 00-.72.83q-.89 1.86-2.48 1.27-7.6-2.83-13.76-1.25-33.29-5.69-66.99-1.69l-18.44-3.25a.82.82 0 01-.64-1.06l1.63-5.08c16.89-3.58 33.27-4.75 50.66-4.57q5.8.06 8.72.37c3.91.42 7.58.19 11.61.65q13.42 1.53 26.6 4.7"/><path fill="#ffc200" d="m700.72 182.96-1.63 5.08a.82.82 0 00.64 1.06l18.44 3.25q-10.01 1.26-21.64 3.96-9.18 2.12-15.62 5.72a.86.84-39.5 01-.95-.08l-3.71-3.09a.6.59 16.5 01-.21-.38q-.66-4.04-.03-7.24a3.02 3.01 85.4 011.89-2.23q10.94-4.07 22.82-6.05m97.59 1.15q10.89 2.54 21.32 6.8a1 1 0 01.59.88v6.45a.84.83 65 01-.19.53q-2.08 2.55-4.57 3.8a1.49 1.48 43.3 01-1.26.03q-13.9-6.07-29.04-8.56 6.16-1.58 13.76 1.25 1.59.59 2.48-1.27a1.98 1.97 86.1 01.72-.83l.22-.14a.65.65 0 00.07-1.03c-2.55-2.25-4.57-4.46-4.1-7.91m-50.96 8.87q20.18.09 39.38 3.59 12.86 2.35 24.16 7.02a.47.47 0 01-.01.88q-14.92 5.79-30.88 7.44-18.43 1.9-32.74 1.83t-32.72-2.13q-15.95-1.79-30.82-7.72a.47.47 0 010-.88q11.34-4.56 24.22-6.79 19.24-3.33 39.41-3.24"/><path fill="#030404" d="M730.16 270.59a1.41 1.4-89.8 001.41-1.41v-8.02a2.8 2.76-29.6 01.41-1.45l2.38-3.85a1.47 1.06 80.8 00.12-.24q.95-2.27.84-6.64c-.1-3.71-2.11-5.6-4.44-7.85-3.17-3.07-4.2-7.82-2.57-11.63 3.62-8.47 13.43-9.5 21.21-9.1q7.46.38 13.8 4.44a3.85 3.56 83.3 01.76.65q5.18 5.78 1.88 12.78c-1.27 2.7-4.56 4.29-5.66 7q-3.11 7.74 1.76 14.1a4.72 4.65 26.5 01.98 2.86q.06 98.32.04 213.98c0 6.29 2.58 11.9 9.27 13.29a1.33 1.32 29.9 001.16-.31q8.26-7.4 18.17-10.74c12.24-4.13 28.13-.18 37.94 8.49q10.47 9.26 16.37 20.61a114 114 0 018.82 23.13c6.54 26.71 5.21 55.55-6.25 80.61q-3.56 7.78-7.2 12.57c-5.68 7.48-10.92 13.57-18.95 18.06q-13.65 7.64-27.97 4.42c-8.96-2.01-17.91-7.97-24-14.7a.83.83 0 00-1.13-.09c-4.59 3.6-10.15 7.96-12.57 13.3a1.3 1.3 0 00.26 1.48c2.83 2.86 4.6 6.3 2.57 10.23-3 5.79-9.29 9.36-15.67 7.13-7.44-2.6-13.86-10.34-5.85-17.19a.9.9 0 00.24-1.02c-2.29-5.56-7.16-9.91-11.44-13.64a.93.92-49.9 00-1.33.12c-6.37 7.87-17.55 14.58-27.74 15.51-11.8 1.07-24.23-3.28-33.17-11.18q-4.87-4.3-10.22-11.59-6.8-9.24-10.37-19.56-12.08-34.87-4.02-70.94 2.17-9.7 7.32-21.08 7.48-16.53 20.99-27.07 4.14-3.24 10.92-6.11c15.02-6.37 29.86-1.13 41.61 8.83a2.32 2.29-34.5 002.27.41c7.29-2.58 8.47-9.79 8.45-16.67q-.26-100.95.08-163.78.01-1.93-.55-3.3a2.4 2.4 79.3 00-2.13-1.46l-14.46-.27q-2.1-.01-3.01.38a2.2 2.2 0 00-1.34 2.17q.21 4.2.18 7.52-.16 14.52.1 19.47.1 1.99-.25 4.77c-.49 3.99-4.48 7.08-8.19 7.02q-17.58-.29-37.99-.06c-5.66.06-11.94-.76-12.06-7.96q-.16-9.32-.01-25.29.04-4.32 4.08-6.2c2.38-1.11 9.11-.5 12.24-.48 5.14.02 6.76 3.73 6.71 8.16-.04 2.91-.41 7.1 3.55 7.6q3.09.38 5.55-.36a2.7 2.7-7.7 001.94-2.54c.13-5.15-1.26-9.04 3.64-12.5a.91.87 19.7 01.36-.16l3.94-.68a2.3 2.3 0 001.91-2.08q.85-10.75.13-21.69a2 2 2.7 00-1.71-1.87c-1.75-.27-4.07-.04-5.45-1.13-3.84-3.07-2.49-8-2.98-11.89a2.49 2.48 86.3 00-2.46-2.17h-5.87a1.69 1.67 28.4 00-.9.26c-2.05 1.28-1.43 5.58-1.5 8.75a3.22 3.19 60.8 01-.42 1.51q-2.29 3.96-5.9 4.56-2.2.37-11.07.17a3.42 3.35 57.8 01-1.34-.32q-4.03-1.97-4.34-6.71-.19-3.01-.16-23.95c.01-6.3 2.25-8.75 8.13-8.93q4.12-.14 8.25-.12 20.15.11 33.43.09c6.51-.01 8.57 5.17 8.6 10.97q.03 5.24-.17 17.97-.02 1.62 1.73 2.48a.58.55-32.6 00.21.04zm1.34 216.34-2.1 2.26q-3.16 3.16-7.64 3.67a2.3 2.3 0 01-1.79-.56c-5.39-4.75-12.74-9.63-19.91-10.99q-13.95-2.65-25.94 4.91c-16.38 10.32-25.69 28.35-30.2 46.66q-9.06 36.79 3.58 71.85c7.12 19.76 24.85 41.25 47.74 39.53 12.36-.94 22.56-7.2 29.98-16.32a.7.69-54.2 01.91-.15q10.2 6.45 15.73 18.2a1.3 1.28-30.5 01-.42 1.6c-2.3 1.66-4.79 4.35-3.44 7.38 5.56 12.47 27.67 2.36 15.21-7.64a1 1 0 01-.33-.92q.96-4.45 2.94-6.9 4.85-6.02 14.36-11.7a.67.66-36.3 01.83.12q7.99 8.95 18.35 13.37c7.08 3.01 13.72 3.03 21.35 1.66 17.13-3.07 30.94-22.53 36.55-37.17 9.08-23.67 10.25-49.55 4.36-73.89q-3.77-15.54-12.86-29.9-4.91-7.76-12.89-13.82c-17.3-13.14-35.72-9.19-51.06 4.17a1.74 1.72 26.2 01-1.26.42q-4.88-.37-8.55-3.63l-1.5-1.7q-3.86-5.85-3.87-10.44-.02-99.97.02-214.82a4.39 4.33 28 00-.77-2.47q-5.71-8.18-1.09-16.87c.58-1.08 2.18-2.6 3.08-3.34 4.65-3.81 4.85-9.07-.16-12.75-5.32-3.91-12.91-4.36-19.67-2.96-5.43 1.12-12.19 5.35-10.13 12q.31 1.01 3.41 4.18 5.37 5.51 3.49 14.51c-.4 1.94-1.08 2.9-2.1 4.87a5.71 5.63-30.3 00-.65 2.42c-.17 3.93.84 9.27-2.9 11.6a2.15 2.09-60.7 01-1.08.32q-16.33.32-19.07.1c-3.79-.31-5.21-2.78-5.22-6.67q-.02-7.1.03-20.58.01-2.36-2.61-3.93a1.81 1.8 60.4 00-.86-.24q-15.95-.24-43.6-.04c-2.76.02-4.34.37-4.36 3.42q-.08 13.61-.04 26.44.01 2.45 2.82 3.39a.82.75-33.4 00.25.04l9.8-.04a1.3 1.29 35.9 00.39-.06q2.14-.6 2.96-2.89a2.49 2.28-37.2 00.13-.71c.05-5.24-.17-8.67 3.83-11.07a2.59 2.54 28.2 011.24-.36q7.5-.23 8.24-.01c5.32 1.58 4.06 8.27 4.29 12.05a3.06 3.05-88.3 002.67 2.84c3.78.46 7.58.81 7.56 5.78q-.04 9.8-.02 20.55.01 4.2-3.63 5.93-.58.27-4 .5a1.94 1.89-61.7 00-.86.27c-2.41 1.45-1.65 5.71-1.64 9.43a2.92 2.85-30.3 01-.42 1.53c-3.01 5.05-6 4.48-12.23 4.34a2 1.99-28.7 01-1-.29c-2.65-1.57-3.99-3.44-3.78-6.85.18-3.09.68-6.45-2.22-8.24a2.16 2.15 60.8 00-1.13-.32l-9.76-.03a3.1 3.1 11.3 00-2.85 1.9q-.71 1.52-.69 4.14.11 15.26-.06 22.5c-.1 4.14 2.73 4.92 6.47 4.93q26.79.1 41.14-.07 2.33-.03 3.84-3.09a.77.75 58.6 00.08-.34l.23-32.91a2.44 2.41 62.7 01.43-1.38q2.02-2.99 6.56-2.98 6.6.02 13.26.14c3.17.06 7.6 1.26 7.59 4.94q-.17 87.91-.06 171.5 0 4.72-3.28 9.68"/><path fill="#ffc200" d="M763.5 487.44q-1.33.86-1.91.89-6.22.33-23.7.47-3.95.03-6.39-1.87 3.28-4.96 3.28-9.68-.11-83.59.06-171.5c.01-3.68-4.42-4.88-7.59-4.94q-6.66-.12-13.26-.14-4.54-.01-6.56 2.98a2.44 2.41 62.7 00-.43 1.38l-.23 32.91a.77.75 58.6 01-.08.34q-1.51 3.06-3.84 3.09-14.35.17-41.14.07c-3.74-.01-6.57-.79-6.47-4.93q.17-7.24.06-22.5-.02-2.62.69-4.14a3.1 3.1 11.3 012.85-1.9l9.76.03a2.16 2.15 60.8 011.13.32c2.9 1.79 2.4 5.15 2.22 8.24-.21 3.41 1.13 5.28 3.78 6.85a2 1.99-28.7 001 .29c6.23.14 9.22.71 12.23-4.34a2.92 2.85-30.3 00.42-1.53c-.01-3.72-.77-7.98 1.64-9.43a1.94 1.89-61.7 01.86-.27q3.42-.23 4-.5 3.64-1.73 3.63-5.93-.02-10.75.02-20.55c.02-4.97-3.78-5.32-7.56-5.78a3.06 3.05-88.3 01-2.67-2.84c-.23-3.78 1.03-10.47-4.29-12.05q-.74-.22-8.24.01a2.59 2.54 28.2 00-1.24.36c-4 2.4-3.78 5.83-3.83 11.07a2.49 2.28-37.2 01-.13.71q-.82 2.29-2.96 2.89a1.3 1.29 35.9 01-.39.06l-9.8.04a.82.75-33.4 01-.25-.04q-2.81-.94-2.82-3.39-.04-12.83.04-26.44c.02-3.05 1.6-3.4 4.36-3.42q27.65-.2 43.6.04a1.81 1.8 60.4 01.86.24q2.62 1.57 2.61 3.93-.05 13.48-.03 20.58c.01 3.89 1.43 6.36 5.22 6.67q2.74.22 19.07-.1a2.15 2.09-60.7 001.08-.32c3.74-2.33 2.73-7.67 2.9-11.6a5.71 5.63-30.3 01.65-2.42c1.02-1.97 1.7-2.93 2.1-4.87q1.88-9-3.49-14.51-3.1-3.17-3.41-4.18c-2.06-6.65 4.7-10.88 10.13-12 6.76-1.4 14.35-.95 19.67 2.96 5.01 3.68 4.81 8.94.16 12.75-.9.74-2.5 2.26-3.08 3.34q-4.62 8.69 1.09 16.87a4.39 4.33 28 01.77 2.47q-.04 114.85-.02 214.82.01 4.59 3.87 10.44M710 298.4a1 1 0 00.98-.98v-20.56a1 1 0 00-.42-.8l-1.63-1.13a.98.98 0 00-1.54.81v21.68a1 1 0 00.98.98zm25.42-.49.35-22.26a.75.75 0 00-.73-.76l-.29-.01a2.94 2.42-89.1 00-2.47 2.9l-.28 17.88a2.94 2.42-89.1 002.37 2.98h.29a.75.75 0 00.76-.73"/><path fill="#d7a100" d="M710 298.4h-1.63a1 1 0 01-.98-.98v-21.68a.98.98 0 011.54-.81l1.63 1.13a1 1 0 01.42.8v20.56a1 1 0 01-.98.98m25.42-.49a.75.75 0 01-.76.73h-.29a2.94 2.42-89.1 01-2.37-2.98l.28-17.88a2.94 2.42-89.1 012.47-2.9l.29.01a.75.75 0 01.73.76z"/><path fill="#ffc200" d="M729.4 489.19c6.66 2.83 13.89 3.31 20.99 3.69 5.85.31 9.94-.73 14.61-3.74q3.67 3.26 8.55 3.63a1.74 1.72 26.2 001.26-.42c15.34-13.36 33.76-17.31 51.06-4.17q7.98 6.06 12.89 13.82 9.09 14.36 12.86 29.9c5.89 24.34 4.72 50.22-4.36 73.89-5.61 14.64-19.42 34.1-36.55 37.17-7.63 1.37-14.27 1.35-21.35-1.66q-10.36-4.42-18.35-13.37a.67.66-36.3 00-.83-.12q-9.51 5.68-14.36 11.7-1.98 2.45-2.94 6.9a1 1 0 00.33.92c12.46 10-9.65 20.11-15.21 7.64-1.35-3.03 1.14-5.72 3.44-7.38a1.3 1.28-30.5 00.42-1.6q-5.53-11.75-15.73-18.2a.7.69-54.2 00-.91.15c-7.42 9.12-17.62 15.38-29.98 16.32-22.89 1.72-40.62-19.77-47.74-39.53q-12.64-35.06-3.58-71.85c4.51-18.31 13.82-36.34 30.2-46.66q11.99-7.56 25.94-4.91c7.17 1.36 14.52 6.24 19.91 10.99a2.3 2.3 0 001.79.56q4.48-.51 7.64-3.67m13.3 24.71q.42-2.26-.16-3.77-2.7-7.05-8.04-13.13-2.2-2.5-5-2.86a.72.72 0 00-.57 1.26c6.62 5.88 7.1 13.91 7.18 22.15a.97.97 0 001.71.61l1.3-1.56a1.7 1.7 0 01.99-.58q1.24-.24 2.25-1.41a1.48 1.45-20.1 00.34-.71m14.17 2.39q.6-7.49 4.42-14.32a.87.86-7.5 01.18-.23l5.25-5.22a.84.84 0 00-.54-1.43c-2.95-.18-8.69 5.78-10.63 8.13a3.79 3.73 73.8 00-.69 1.28q-.69 2.19-.89 4.13-.22 2.12-2.16 3.04a1.03 1.02-17.3 00-.58 1.1l1.06 6.12a.63.63 0 001.15.23q1.07-1.63 2.76-2.04a.9.9 0 00.67-.79m-22.69 5.93c-4.12 6.91-12.98 8.99-19.41 3.49-5.45-4.65-5.14-13.2-2.22-19.58a.6.6 0 00-.1-.69c-9.34-10.54-23.86-12.8-34.79-2.5q-7.79 7.35-12.58 18.39c-11.76 27.14-11.17 58.64.7 85.39 4.38 9.87 14.16 21.79 25.63 23q12.52 1.33 19.81-8.31a1.08 1.07 36.7 00-.23-1.52q-8.74-6.38-6.45-17.02c1.95-9.08 11.28-13.21 19.41-9.38 2.88 1.36 5.63 5.31 6.82 8.25a.51.51 0 00.88.12c8.56-11 22.5-12.07 30.92.12a.54.54 0 00.95-.1q2.34-5.67 7.45-8.38a13.2 13.2 0 0117.38 4.67c4.97 7.8 2.08 16.34-4.63 21.99a.6.6 0 00-.08.8q3.97 5.01 8.9 7.02c18.61 7.56 32.53-9.69 38.44-25.28q10.24-27.01 6.41-54.72-2.34-16.85-9.55-31.36c-4.34-8.71-13.61-19.25-24.04-20.41-8.13-.9-16.83 3.46-21.65 9.84a.89.88-38.1 00-.11.88c3.38 7.86 2.36 16.97-5.74 21.24a4.67 4.59 24.9 01-1.18.42q-9.57 1.95-15.29-6.93a.46.46 0 00-.74-.04q-1.39 1.65-2.6 2.87c-4.53 4.56-11.13 5.17-16.57 2.1a1.49 1.08 72.5 01-.23-.17l-4.71-4.32a.52.52 0 00-.8.12m15.4-17.74a2.95 2.32-6.7 00-3.2-1.96 2.95 2.32-6.7 00-2.66 2.64 2.95 2.32-6.7 003.2 1.96 2.95 2.32-6.7 002.66-2.64"/><path fill="#d7a100" d="M731.5 486.93q2.44 1.9 6.39 1.87 17.48-.14 23.7-.47.58-.03 1.91-.89l1.5 1.7c-4.67 3.01-8.76 4.05-14.61 3.74-7.1-.38-14.33-.86-20.99-3.69zm10.86 27.68q-1.01 1.17-2.25 1.41a1.7 1.7 0 00-.99.58l-1.3 1.56a.97.97 0 01-1.71-.61c-.08-8.24-.56-16.27-7.18-22.15a.72.72 0 01.57-1.26q2.8.36 5 2.86 5.34 6.08 8.04 13.13.58 1.51.16 3.77a1.48 1.45-20.1 01-.34.71m13.84 2.47q-1.69.41-2.76 2.04a.63.63 0 01-1.15-.23l-1.06-6.12a1.03 1.02-17.3 01.58-1.1q1.94-.92 2.16-3.04.2-1.94.89-4.13a3.79 3.73 73.8 01.69-1.28c1.94-2.35 7.68-8.31 10.63-8.13a.84.84 0 01.54 1.43l-5.25 5.22a.87.86-7.5 00-.18.23q-3.82 6.83-4.42 14.32a.9.9 0 01-.67.79"/><path fill="#030404" d="M734.18 522.22a.52.52 0 01.8-.12l4.71 4.32a1.49 1.08 72.5 00.23.17c5.44 3.07 12.04 2.46 16.57-2.1q1.21-1.22 2.6-2.87a.46.46 0 01.74.04q5.72 8.88 15.29 6.93a4.67 4.59 24.9 001.18-.42c8.1-4.27 9.12-13.38 5.74-21.24a.89.88-38.1 01.11-.88c4.82-6.38 13.52-10.74 21.65-9.84 10.43 1.16 19.7 11.7 24.04 20.41q7.21 14.51 9.55 31.36 3.83 27.71-6.41 54.72c-5.91 15.59-19.83 32.84-38.44 25.28q-4.93-2.01-8.9-7.02a.6.6 0 01.08-.8c6.71-5.65 9.6-14.19 4.63-21.99a13.2 13.2 0 00-17.38-4.67q-5.11 2.71-7.45 8.38a.54.54 0 01-.95.1c-8.42-12.19-22.36-11.12-30.92-.12a.51.51 0 01-.88-.12c-1.19-2.94-3.94-6.89-6.82-8.25-8.13-3.83-17.46.3-19.41 9.38q-2.29 10.64 6.45 17.02a1.08 1.07 36.7 01.23 1.52q-7.29 9.64-19.81 8.31c-11.47-1.21-21.25-13.13-25.63-23-11.87-26.75-12.46-58.25-.7-85.39q4.79-11.04 12.58-18.39c10.93-10.3 25.45-8.04 34.79 2.5a.6.6 0 01.1.69c-2.92 6.38-3.23 14.93 2.22 19.58 6.43 5.5 15.29 3.42 19.41-3.49m28.95 74.45c3.38-3.62 5.63-6.56 10.58-7.68 9.24-2.08 19.13 5.47 20.13 14.7.66 6.09-.53 11.82-5.48 16.19a1.33 1.33 0 000 2c6.85 5.99 14.34 5.88 22.41 2.33 5-2.2 8.58-7.29 11.48-11.73 7.21-11.02 10.1-22.91 11.82-35.95q2.52-19.14-2.42-40.01c-2.68-11.31-8-23.06-16.38-31.32-8.78-8.64-20.57-6.53-29.23.74a1.3 1.3 0 00-.35 1.48q3.07 7.03.22 14.54c-4.18 10.99-17.81 13.59-25.98 5.17a.74.74 0 00-1.04-.02c-6.84 6.56-15.74 5.52-22.96.4a.9.9 0 00-1.08.06c-9.1 7.9-21.06 5.48-26.13-5.2q-3.38-7.11.13-15.66a.9.9 0 00-.23-.99q-2.96-2.58-7.1-4.48c-9.84-4.49-18.62.04-25.12 7.65-6.52 7.63-10.42 17.87-13.3 28.23-2.32 8.33-2.87 18.76-2.95 27.13q-.16 17.42 6.08 34.78 3.81 10.6 11.7 20.03c7.09 8.48 19.82 10.4 28.55 3.13a1.35 1.35 0 00.02-2.06c-5.53-4.77-7.56-14.1-4.25-20.92 3.27-6.73 9.37-11.27 16.78-10.48q8.03.85 12.3 7.59a.7.7 0 001.07.12c2.73-2.7 5.23-4.76 9.17-5.69q12.54-2.94 20.75 5.92a.56.55 44.7 00.81 0"/><path fill="#037eca" d="M762.32 596.67q-8.21-8.86-20.75-5.92c-3.94.93-6.44 2.99-9.17 5.69a.7.7 0 01-1.07-.12q-4.27-6.74-12.3-7.59c-7.41-.79-13.51 3.75-16.78 10.48-3.31 6.82-1.28 16.15 4.25 20.92a1.35 1.35 0 01-.02 2.06c-8.73 7.27-21.46 5.35-28.55-3.13q-7.89-9.43-11.7-20.03-6.24-17.36-6.08-34.78c.08-8.37.63-18.8 2.95-27.13 2.88-10.36 6.78-20.6 13.3-28.23 6.5-7.61 15.28-12.14 25.12-7.65q4.14 1.9 7.1 4.48a.9.9 0 01.23.99q-3.51 8.55-.13 15.66c5.07 10.68 17.03 13.1 26.13 5.2a.9.9 0 011.08-.06c7.22 5.12 16.12 6.16 22.96-.4a.74.74 0 011.04.02c8.17 8.42 21.8 5.82 25.98-5.17q2.85-7.51-.22-14.54a1.3 1.3 0 01.35-1.48c8.66-7.27 20.45-9.38 29.23-.74 8.38 8.26 13.7 20.01 16.38 31.32q4.94 20.87 2.42 40.01c-1.72 13.04-4.61 24.93-11.82 35.95-2.9 4.44-6.48 9.53-11.48 11.73-8.07 3.55-15.56 3.66-22.41-2.33a1.33 1.33 0 010-2c4.95-4.37 6.14-10.1 5.48-16.19-1-9.23-10.89-16.78-20.13-14.7-4.95 1.12-7.2 4.06-10.58 7.68a.56.55 44.7 01-.81 0"/><ellipse fill="#d7a100" rx="2.95" ry="2.32" transform="rotate(-6.7 4685.43 -6125.37)"/><path fill="#030404" d="M1504 675.55v4.8H0v-4.79z"/><path fill="#fbfbfb" d="M1504 680.35v21.41L0 701.75v-21.4z"/><path fill="#030404" d="M1504 701.76v4.95L0 706.66v-4.91z"/><path fill="#037eca" d="M1504 706.71v157.44q-5.79-.5-12-.5-213.46.05-426.88.12l-75.86-83.82a2.33 2.31-20.8 00-1.73-.77H820.66a3.08 3.06 65.4 01-2.02-.76l-70.54-61.44a.77.76-44 00-.98-.01q-6.83 5.49-13.09 11.04c-14.36 12.71-29.94 26.4-42.12 36.55q-4.17 3.47-6.96 6.37-1.53 1.6-8.35 7.17-1.3 1.06-3.28 1.06-3.16.02-165.73.02a2.3 2.3 20.8 00-1.68.75q-17.45 19.47-37.6 41.37c-10.94 11.88-21.35 23.65-32.1 35.01q-3.42 3.62-6.22 7.46l-428.87-.16a.9.88-74.7 00-.77.45q-.24.42-.35.95V706.66z"/><path fill="#030404" d="m1065.12 863.77.32 82.09a.81.8-.3 01-.81.81H849.01a1.52 1.49-66.4 00-1.04.42q-1.89 1.82-9.72 7.9c-9.28 7.2-19.12 16.57-27.15 22.69q-6.59 5.01-11.35 9.54c-5.32 5.07-13.47 10.28-19.86 16.39-6.41 6.14-12.78 10.13-19.53 16.2q-4.68 4.21-12.46 10.06a1.2 1.2 0 01-1.52-.03l-99.15-82.6a2.7 2.7 0 00-1.7-.61H430.34a.4.4 0 01-.41-.41l.06-82.45q2.8-3.84 6.22-7.46c10.75-11.36 21.16-23.13 32.1-35.01q20.15-21.9 37.6-41.37a2.3 2.3 20.8 011.68-.75q162.57 0 165.73-.02 1.98 0 3.28-1.06 6.82-5.57 8.35-7.17 2.79-2.9 6.96-6.37c12.18-10.15 27.76-23.84 42.12-36.55q6.26-5.55 13.09-11.04a.77.76-44 01.98.01l70.54 61.44a3.08 3.06 65.4 002.02.76h166.87a2.33 2.31-20.8 011.73.77zm-246.98-79.66a.7.7 0 01-.49-.18l-69.86-60.85a.74.74 0 00-.98.01l-69.49 60.84a.7.7 0 01-.49.18H511.39a.74.74 0 00-.74.74v72.17a.74.74 0 00.74.74h165.39a.7.7 0 01.49.18l69.41 60.45a.74.74 0 00.98 0l67.79-60.47a.7.7 0 01.49-.19h166.78a.74.74 0 00.74-.74v-72.14a.74.74 0 00-.74-.74zm242.53 82.22a.3.3 0 00-.08-.21l-71.61-79.14a.32.32 0 00-.56.21v69.6a.3.3 0 00.08.21l71.61 79.13a.32.32 0 00.56-.21zm-626.03 69.24a.3.3 0 00.52.2l70.42-77.65a.3.3 0 00.08-.21V788.1a.3.3 0 00-.52-.2l-70.42 77.65a.3.3 0 00-.08.21zm238.21-72.46a.35.35 0 00-.33-.46H508.29a.4.4 0 00-.26.11l-70.87 78.15a.35.35 0 00.26.59h208.03a.4.4 0 00.33-.24zm176.18 78.05a.5.5 0 00.49.34h207.59a.52.52 0 00.38-.87l-70.41-77.81a.5.5 0 00-.38-.17H820.94a.52.52 0 00-.48.7zm-33.17-76.02a.48.48 0 00-.77-.19l-65.31 58.27a.5.5 0 00-.16.36v97.97a.48.48 0 00.79.37l94.01-78.1a.5.5 0 00.14-.54zm-165.53 78.24a.5.5 0 00.17.59l93.28 77.72a.54.54 0 00.89-.41v-97.66a.5.5 0 00-.19-.41l-66.37-57.8a.54.54 0 00-.86.23z"/><path fill="#fbfbfb" d="M818.14 784.11h164.58a.74.74 0 01.74.74v72.14a.74.74 0 01-.74.74H815.94a.7.7 0 00-.49.19l-67.79 60.47a.74.74 0 01-.98 0l-69.41-60.45a.7.7 0 00-.49-.18H511.39a.74.74 0 01-.74-.74v-72.17a.74.74 0 01.74-.74h165.44a.7.7 0 00.49-.18l69.49-60.84a.74.74 0 01.98-.01l69.86 60.85a.7.7 0 00.49.18m-140.29 58.46a.6.6 0 01.38.14l68.19 59.39a.6.6 0 00.77 0l66.56-59.37a.6.6 0 01.38-.15H969.3a.6.6 0 00.58-.58v-42.42a.6.6 0 00-.58-.58H809.46a.6.6 0 01-.38-.14l-61.64-53.68a.6.6 0 00-.76 0l-61.37 53.73a.6.6 0 01-.38.14H525.18a.6.6 0 00-.58.58v42.36a.6.6 0 00.58.58z"/><path fill="#030404" d="M677.85 842.57H525.18a.6.6 0 01-.58-.58v-42.36a.6.6 0 01.58-.58h159.75a.6.6 0 00.38-.14l61.37-53.73a.6.6 0 01.76 0l61.64 53.68a.6.6 0 00.38.14H969.3a.6.6 0 01.58.58V842a.6.6 0 01-.58.58H814.13a.6.6 0 00-.38.15l-66.56 59.37a.6.6 0 01-.77 0l-68.19-59.39a.6.6 0 00-.38-.14m72.01-88.23q-.23.1-.23.28-.06 32.07-.01 74.75a.66.65-74.6 00.31.56l41.12 25.9a.52.51 39.5 00.61-.05l19.71-17.84a1.56 1.55 24.1 011.03-.39h151.54a.9.9 0 00.9-.9v-32.03a.59.58 0 00-.59-.58H808.47a2.3 2.27-24.4 01-1.49-.55l-56.73-49.09a.38.36-34.7 00-.39-.06m-5.5 75.67a.6.6 0 00.26-.48v-74.71a.58.58 0 00-.96-.44l-56.56 49.51a.6.6 0 01-.38.14H530.1a.6.6 0 00-.58.58v32.36a.6.6 0 00.58.58h149.79a.6.6 0 01.38.14l22 19.16a.6.6 0 00.7.05zm42.91 29.56a.48.48 0 00-.08-.74l-39.08-24.61a1.3 1.3 0 00-1.39.01l-39.49 25.64a.95.95 0 00-.12 1.5q12.86 11.69 19.13 16.61c4.65 3.65 8.02 7.42 11.87 10.79a6.58 6.32 7.6 00.74.55q4.35 2.77 7.46 5.68a.86.86 0 001.13.03q9.21-7.68 17.64-15.71c1.56-1.5 4.5-3.32 6.25-5.09q5.25-5.3 10.33-9.26c1.68-1.31 4.24-4.03 5.61-5.4"/><path fill="#fbfbfb" d="M749.86 754.34a.38.36-34.7 01.39.06l56.73 49.09a2.3 2.27-24.4 001.49.55h155.78a.59.58 0 01.59.58v32.03a.9.9 0 01-.9.9H812.4a1.56 1.55 24.1 00-1.03.39l-19.71 17.84a.52.51 39.5 01-.61.05l-41.12-25.9a.66.65-74.6 01-.31-.56q-.05-42.68.01-74.75 0-.18.23-.28m-5.5 75.67-41.39 26.89a.6.6 0 01-.7-.05l-22-19.16a.6.6 0 00-.38-.14H530.1a.6.6 0 01-.58-.58v-32.36a.6.6 0 01.58-.58h156.62a.6.6 0 00.38-.14l56.56-49.51a.58.58 0 01.96.44v74.71a.6.6 0 01-.26.48m316.31 36.32v69.59a.32.32 0 01-.56.21L988.5 857a.3.3 0 01-.08-.21v-69.6a.32.32 0 01.56-.21l71.61 79.14a.3.3 0 01.08.21m-626.03 69.24v-69.81a.3.3 0 01.08-.21l70.42-77.65a.3.3 0 01.52.2v69.81a.3.3 0 01-.08.21l-70.42 77.65a.3.3 0 01-.52-.2"/><path fill="#039f42" d="M787.27 859.57c-1.37 1.37-3.93 4.09-5.61 5.4q-5.08 3.96-10.33 9.26c-1.75 1.77-4.69 3.59-6.25 5.09q-8.43 8.03-17.64 15.71a.86.86 0 01-1.13-.03q-3.11-2.91-7.46-5.68a6.58 6.32 7.6 01-.74-.55c-3.85-3.37-7.22-7.14-11.87-10.79q-6.27-4.92-19.13-16.61a.95.95 0 01.12-1.5l39.49-25.64a1.3 1.3 0 011.39-.01l39.08 24.61a.48.48 0 01.08.74"/><path fill="#fbfbfb" d="m672.85 863.11-27.07 78.15a.4.4 0 01-.33.24H437.42a.35.35 0 01-.26-.59l70.87-78.15a.4.4 0 01.26-.11h164.23a.35.35 0 01.33.46m-126.07 14.03a1.02 1.01 34.9 00-1.42.25l-20.03 28.97a2.09 2.06-36.4 00-.28 1.76c2.07 6.77 4.89 13.11 11.88 15.94q.45.18 3.33.27a.78.77-78.3 00.75-.5q.89-2.29 1.08-2.98l9.78-34.57q.36-1.28-.74-2.92l-1.58-2.36q-2.59-3.74-2.77-3.86m58.75 1.83a1.02 1.01 34.6 00-1.42.25l-19.85 28.98a2.08 2.05-36.7 00-.27 1.76c2.1 6.74 4.94 13.05 11.92 15.84q.45.18 3.32.26a.78.77-78.6 00.75-.5q.88-2.29 1.06-2.98l9.6-34.52q.36-1.28-.75-2.91l-1.58-2.34q-2.6-3.72-2.78-3.84m243.5 62.19-28.57-77.81a.52.52 0 01.48-.7H986.7a.5.5 0 01.38.17l70.41 77.81a.52.52 0 01-.38.87H849.52a.5.5 0 01-.49-.34m100.49-63.69q-2.18 1.98-4.67 5.37c-.83 1.12-1.95 2.38-1.47 3.83l11.81 35.87a1.2 1.2 0 001.11.86c7.78.5 12.94-8.66 14.42-15.22a3.37 3.36-56.3 00-.53-2.68l-19.66-27.92a.68.67-38.7 00-1.01-.11m-58.53 2.59q-2.18 1.95-4.69 5.3c-.83 1.11-1.96 2.35-1.49 3.8q10.69 33.42 11.43 35.77a1.24 1.23-6.7 001.1.87c7.73.56 12.94-8.5 14.47-15.01a3.35 3.34-55.8 00-.5-2.67L892 880.18a.67.67 0 00-1.01-.12"/><path fill="#039f42" d="m429.99 863.77-.06 82.45a.4.4 0 00.41.41h215.19a2.7 2.7 0 011.7.61l99.15 82.6a1.2 1.2 0 001.52.03q7.78-5.85 12.46-10.06c6.75-6.07 13.12-10.06 19.53-16.2 6.39-6.11 14.54-11.32 19.86-16.39q4.76-4.53 11.35-9.54c8.03-6.12 17.87-15.49 27.15-22.69q7.83-6.08 9.72-7.9a1.52 1.49-66.4 011.04-.42h215.62a.81.8-.3 00.81-.81l-.32-82.09q213.42-.07 426.88-.12 6.21 0 12 .5V1046H.53q-.21-.31-.53-.48V865.01q.11-.53.35-.95a.9.88-74.7 01.77-.45z"/><path fill="#fbfbfb" d="m815.86 865.14 28.7 78.14a.5.5 0 01-.14.54l-94.01 78.1a.48.48 0 01-.79-.37v-97.97a.5.5 0 01.16-.36l65.31-58.27a.48.48 0 01.77.19m-25.08 91.31q5.9 1.84 9.97-3.4c3.6-4.64 2.83-11.55 2.3-17.31q-.39-4.34-.92-14.51c-.35-6.71-8.58-12.07-14.08-5.95q-2.75 3.06-3.6 5.56a2.46 2.41 53.4 00-.13.95q.23 4.38.43 5.47 2.49 13.66 4.59 27.52a2.1 2.1 0 001.44 1.67m-140.45-13.07 26.92-77.74a.54.54 0 01.86-.23l66.37 57.8a.5.5 0 01.19.41v97.66a.54.54 0 01-.89.41l-93.28-77.72a.5.5 0 01-.17-.59m54.51 12.21q.54-1.36.88-3.37 3.34-19.62 4.85-27.7c.84-4.52-1.69-7.77-4.88-10.96-4.49-4.48-12.27 1.79-12.62 6.81q-1.13 16.16-1.21 18.41c-.24 6.53-.53 10.54 3.33 14.97q3.2 3.67 7.74 3.27a2.3 2.3 0 001.91-1.43"/><path fill="#030404" d="M546.78 877.14q.18.12 2.77 3.86l1.58 2.36q1.1 1.64.74 2.92l-9.78 34.57q-.19.69-1.08 2.98a.78.77-78.3 01-.75.5q-2.88-.09-3.33-.27c-6.99-2.83-9.81-9.17-11.88-15.94a2.09 2.06-36.4 01.28-1.76l20.03-28.97a1.02 1.01 34.9 011.42-.25m-5.6 10.92a.32.31-32.3 00-.57-.12l-12.78 18.22a2.44 2.42-34.6 00-.38 1.99q1.87 7.7 8.36 12.73a1.88 1.88-57.5 002.82-.63c2.41-4.67 3.6-10.79 4.73-15.87a6.97 6.84-44.1 00.07-2.68zm408.34-10.59a.68.67-38.7 011.01.11l19.66 27.92a3.37 3.36-56.3 01.53 2.68c-1.48 6.56-6.64 15.72-14.42 15.22a1.2 1.2 0 01-1.11-.86l-11.81-35.87c-.48-1.45.64-2.71 1.47-3.83q2.49-3.39 4.67-5.37m5.17 9.99-.17 21.41a1.05.91 40.7 00.04.27q1.57 6.52 4.45 11.09a1.02 1.01 55.9 001.45.29q6.6-4.78 8.42-12.96a1.41 1.4-56.4 00-.22-1.11l-13.59-19.11a.21.21 0 00-.38.12m-349.16-8.49q.18.12 2.78 3.84l1.58 2.34q1.11 1.63.75 2.91l-9.6 34.52q-.18.69-1.06 2.98a.78.77-78.6 01-.75.5q-2.87-.08-3.32-.26c-6.98-2.79-9.82-9.1-11.92-15.84a2.08 2.05-36.7 01.27-1.76l19.85-28.98a1.02 1.01 34.6 011.42-.25m-5.81 11.02a.32.31-32.7 00-.57-.12l-12.67 18.33a2.4 2.4-35 00-.36 2q1.92 7.69 8.46 12.68a1.88 1.88 0 002.81-.65c2.38-4.69 3.53-10.83 4.63-15.92a6.97 6.84-44.5 00.05-2.68zm291.27-9.93a.67.67 0 011.01.12l19.31 27.94a3.35 3.34-55.8 01.5 2.67c-1.53 6.51-6.74 15.57-14.47 15.01a1.24 1.23-6.7 01-1.1-.87q-.74-2.35-11.43-35.77c-.47-1.45.66-2.69 1.49-3.8q2.51-3.35 4.69-5.3m4.45 9.27-.27 21.94a1.08.94 40.9 00.04.28q1.57 6.68 4.5 11.38a1.04 1.04 0 001.49.3q6.78-4.86 8.69-13.23a1.45 1.44-56.1 00-.22-1.14l-13.84-19.65a.21.21 0 00-.39.12"/><path fill="#fbfbfb" d="M954.69 887.46a.21.21 0 01.38-.12l13.59 19.11a1.41 1.4-56.4 01.22 1.11q-1.82 8.18-8.42 12.96a1.02 1.01 55.9 01-1.45-.29q-2.88-4.57-4.45-11.09a1.05.91 40.7 01-.04-.27zm-413.51.6 2.25 13.64a6.97 6.84-44.1 01-.07 2.68c-1.13 5.08-2.32 11.2-4.73 15.87a1.88 1.88-57.5 01-2.82.63q-6.49-5.03-8.36-12.73a2.44 2.42-34.6 01.38-1.99l12.78-18.22a.32.31-32.3 01.57.12m354.26 1.27a.21.21 0 01.39-.12l13.84 19.65a1.45 1.44-56.1 01.22 1.14q-1.91 8.37-8.69 13.23a1.04 1.04 0 01-1.49-.3q-2.93-4.7-4.5-11.38a1.08.94 40.9 01-.04-.28zm-295.72.66 2.35 13.64a6.97 6.84-44.5 01-.05 2.68c-1.1 5.09-2.25 11.23-4.63 15.92a1.88 1.88 0 01-2.81.65q-6.54-4.99-8.46-12.68a2.4 2.4-35 01.36-2l12.67-18.33a.32.31-32.7 01.57.12"/><path fill="#030404" d="M704.84 955.59a2.3 2.3 0 01-1.91 1.43q-4.54.4-7.74-3.27c-3.86-4.43-3.57-8.44-3.33-14.97q.08-2.25 1.21-18.41c.35-5.02 8.13-11.29 12.62-6.81 3.19 3.19 5.72 6.44 4.88 10.96q-1.51 8.08-4.85 27.7-.34 2.01-.88 3.37m-1.24-40.43a.65.65 0 00-.41-1.09c-6.66-.74-8.33 4.37-8.67 10.32q-.6 10.84-.98 19.38c-.16 3.7.65 6.92 3.37 9.04a2.82 2.51-44.1 003.28-.14c3.76-2.91 3.82-7.44 2.47-12.07-2.42-8.38-5.23-18.39.94-25.44m87.18 41.29a2.1 2.1 0 01-1.44-1.67q-2.1-13.86-4.59-27.52-.2-1.09-.43-5.47a2.46 2.41 53.4 01.13-.95q.85-2.5 3.6-5.56c5.5-6.12 13.73-.76 14.08 5.95q.53 10.17.92 14.51c.53 5.76 1.3 12.67-2.3 17.31q-4.07 5.24-9.97 3.4m.72-41.08c6.21 7.11 3.38 17.19.94 25.63-1.36 4.67-1.31 9.23 2.48 12.17a2.84 2.53 44.1 003.31.14c2.74-2.14 3.55-5.38 3.39-9.11q-.37-8.6-.97-19.52c-.34-6-2.02-11.15-8.73-10.4a.66.66 0 00-.42 1.09"/><path fill="#fbfbfb" d="M703.6 915.16c-6.17 7.05-3.36 17.06-.94 25.44 1.35 4.63 1.29 9.16-2.47 12.07a2.82 2.51-44.1 01-3.28.14c-2.72-2.12-3.53-5.34-3.37-9.04q.38-8.54.98-19.38c.34-5.95 2.01-11.06 8.67-10.32a.65.65 0 01.41 1.09m87.9.21a.66.66 0 01.42-1.09c6.71-.75 8.39 4.4 8.73 10.4q.6 10.92.97 19.52c.16 3.73-.65 6.97-3.39 9.11a2.84 2.53 44.1 01-3.31-.14c-3.79-2.94-3.84-7.5-2.48-12.17 2.44-8.44 5.27-18.52-.94-25.63"/><path fill="#037eca" d="M.53 1046H0v-.48q.32.17.53.48"/></svg>