<svg xmlns="http://www.w3.org/2000/svg" viewBox="0 0 849 566"><g fill="none" stroke-width="2"><path stroke="#e99789" d="M849 475.97q-22.41-1.8-38.39-4.59-16.24-2.84-51.33-10.37-2.05-.44-20.57-3.4c-8.55-1.37-17.55-1.68-24.9-2.48-3.87-.42-7.06-.18-11.3-.28q-3.5-.08-8.49.48c-5.33.6-12.86 1.01-19.34 2.15q-15.11 2.66-18.61 3.46c-25.9 5.88-52.07 12.4-78.08 14.42q-22.85 1.77-40.23-.03-15.64-1.61-31.69-5.47c-18.44-4.42-32.6-8.03-49.09-10.56-6.9-1.06-15.94-1.34-20.95-2.06-4.67-.68-8.79-.29-14.2-.4q-3.9-.07-10.65.5-6.36.55-13.91 1.34c-18.06 1.9-34.68 6.52-57.5 11.87a206 206 0 01-40.15 5.51q-21.54.74-43.09-2.24c-21.54-2.98-46.26-9.04-63.28-12.82q-3.43-.76-18.01-3.42c-7.39-1.35-15.98-1.68-22.09-2.46-3.59-.46-6.42-.21-10.64-.27q-3.14-.05-8.01.33-10.6.83-18 1.51-3.09.28-19.22 2.98-6.94 1.16-19.08 3.74-26.69 5.66-40.7 8.09-15.75 2.72-37.5 4.42" vector-effect="non-scaling-stroke"/><path stroke="#e88513" d="M399.05 161.89q.24-6.75.01-11.45-.03-.6-1.15-.63" vector-effect="non-scaling-stroke"/><path stroke="#842d1b" d="M397.91 149.81q.15-1.02-.39-.95-2.49.32-4.39.53-2.17.24-4.39.24-46.64.02-60.54-.07-2.95-.02-5.3-.51a.54.54 0 00-.45.94l11.7 9.61" vector-effect="non-scaling-stroke"/><path stroke="#e88513" d="m334.15 159.6 9.13 8.18a.9.9 0 01-.01 1.36l-7.59 6.63" vector-effect="non-scaling-stroke"/><path stroke="#842d1b" d="M335.68 175.77q-.2.32-1.29.64a3.37 3.32-70.7 00-1 .49l-10.99 8.07a.5.5 0 00.3.9l48.8.06q.3 0 .42-.39" vector-effect="non-scaling-stroke"/><path stroke="#e88513" d="M371.92 185.54q-.19.42.23 1.24" vector-effect="non-scaling-stroke"/><path stroke="#842d1b" d="m372.15 186.78-.16 9.13a.6.6 0 00.61.62h103.78a.6.6 0 00.6-.61l-.16-9.18" vector-effect="non-scaling-stroke"/><path stroke="#e88513" d="M476.82 186.74q-.38.26.31-.72" vector-effect="non-scaling-stroke"/><path stroke="#842d1b" d="m477.13 186.02 49.12-.05a.49.49 0 00.27-.9q-4.38-2.91-8.56-6.53-1.72-1.47-4.57-2.78" vector-effect="non-scaling-stroke"/><path stroke="#e88513" d="m513.39 175.76-7.76-6.62a.8.8 0 01-.01-1.17l9.25-8.39" vector-effect="non-scaling-stroke"/><path stroke="#842d1b" d="M514.87 159.58q5.95-4.06 11.51-9.66a.46.46 0 00-.45-.76q-2.88.87-6.43.28a1.91 1.41 39.5 00-.37-.02q-33.24.41-65.11-.03-1.17-.01-1.11 1.17" vector-effect="non-scaling-stroke"/><path stroke="#e88513" d="M452.91 150.56q-1.28-.78-2.38-.57a.65.65 0 00-.53.63l-.06 11.25" vector-effect="non-scaling-stroke"/><path stroke="#842d1b" d="m449.94 161.87-13.37-.1a.3.3 0 01-.27-.42q1.89-4.02 5.38-6.94 10.64-8.93 14.39-12.34 7.92-7.19 11.34-14.22 3.58-7.36 4.71-14.41 1.05-6.47-.09-18.05a3.07 3.01 30.4 00-.26-.96q-.7-1.5-.96-4.33-.11-1.23-1.14-4.7-1.81-6.08-4.7-14.84-1.34-4.08-1.94-8.57a.5.5 0 00-.98-.06q-1.02 4.2-1.37 9.3-.04.65-1.13 3.1a.06.06 0 00.05.08l.27.03a.25.25 0 01.22.28q-.36 2.77-.17 6.17a7.25 6.92-43.7 01-.06 1.3q-1.23 8.76-1.98 12.18-1.38 6.3-6.94 11.46a.32.32 0 01-.51-.35q1.22-3.13 3.47-8.76 4.27-10.68 3.38-23.47-.57-8.25-4.55-14.97-4.16-7.02-10.27-11.95a.49.49 0 00-.8.45q1.13 7.3-2.2 13.43-5.79 10.67-8.4 15.82-5.75 11.4-6.58 23.59a.14.14 0 01-.26.06q-2.51-4.92-2.84-10.4-.11-1.85 1.17-7.4.84-3.65 2.35-7.14 3.92-9.03 6.29-14.05 3.77-8.03 5.04-15.68.43-2.61.09-3.83-1.6-5.7-4.66-10.82-2.17-3.64-5.51-6.45a.55.55 0 00-.89.55c1.27 5.43 1 11.94-2.04 17.09q-3.01 5.08-7.21 9.21-9.37 9.22-13.48 13.51-3.81 3.96-7.16 9.1-1.28 1.95-1.77 3.21-.82 2.14-1.71 3.35a1.78 1.74 67.3 00-.31.78l-1.34 9.64a.63.61-52 00.03.29c.85 2.8.39 5.43 1.19 8.23q1.73 5.97 4.27 11.02a.35.35 0 01-.54.43q-7.47-6.28-8.03-16.43a4.05 3.92 49.8 01.06-.89q1.42-7.88 1.66-10.26.23-2.27.66-3.86 1.62-5.85 1.33-14.27-.01-.39-.14-.45a.77.59 18.3 00-.97.34q-.36 1.45-1.33 3.2-3.48 6.31-7 12.38-3.94 6.8-5.74 12.96-2.36 8.08-1.77 16.62a2.73 2.71-60.8 00.29 1.04q.63 1.22.83 3.23a5 5 0 00.25 1.09q2.45 6.74 6.71 12.73 4.28 6.03 9.18 10.83 12.42 12.16 17.57 17.92 2 2.23 3.84 4.81a.33.33 0 01-.27.52l-13.27.06" vector-effect="non-scaling-stroke"/><path stroke="#98841c" d="m449.94 161.87 26.77.01a.26.26 0 01.26.26v9.15a.2.2 0 01-.21.21H372.22a.2.2-90 01-.2-.21v-9.14a.26.25 90 01.25-.26h26.78m114.34 13.87-35.82-.03a.5.5 0 00-.48.48l.04 9.81m-.31.72-104.67.04m-.23-1.24-.01-9.27a.53.53 0 00-.53-.53l-35.7.03m179.19-16.19-41.05-.01a5.04 5.01-32.6 01-2.08-.45l-18.83-8.56m-55-.75q-9.78 4.27-19.53 8.84-1.95.92-5.68.94-18.96.13-38.55.01" vector-effect="non-scaling-stroke"/><path stroke="#842d1b" d="M459.17 74.45a.6.6 0 00-.61-.61.6.6 0 00-.61.61.6.6 0 00.61.61.6.6 0 00.61-.61" vector-effect="non-scaling-stroke"/><path stroke="#842d1b" d="M458.27 78.54a2.83.64-92.9 00-.5 2.86 2.83.64-92.9 00.78 2.8 2.83.64-92.9 00.5-2.86 2.83.64-92.9 00-.78-2.8m30.01 366.81q2.6-2.02 4.88-5.88a1.5 1.5 0 011.92-.6l14.32 6.58a2.99 2.87-25.6 00.67.22q4.12.92 5.12 1.31 2.04.78 5.33 1.04 9.36.74 13.95-.15 8.61-1.67 13.52-5.43 15.58-11.9 33.45-16.2 9.2-2.21 19.2-.29a1.35.8-14.3 01.17.05l7.63 3.61.07-.02.21-.35a.3.3 0 00-.11-.43q-6.11-3.55-9.56-7.84-2.48-3.08-4.48-7.73-.47-1.08-.6-1.49-2.26-7.05-2.29-7.09c-.75-1-.25-3.42-1.06-4.68a1.2 1.2 0 01-.2-.79q.32-3.94-.71-5.53a2.13 2.07-62.2 01-.34-1.15l-.17-14.89a4 4-31.4 01.48-1.98l.15-.29a3.06 3.03 59.2 00.31-1.25l.25-10.07a1.71 1.57 42.4 00-.04-.44l-1.63-6.91a.44.1 58.3 00-.03-.09q-3.72-9.41-8.97-15.3-4.7-5.28-6.88-6.86-3.03-2.2-3.95-3.2a4 4 0 00-.62-.53l-6.01-4.02a.91.76-19.1 00-.29-.11q-1.86-.32-1.22-2.29.05-.18 2.04-4.76.53-1.25-.56-2.99a.83.81-16.1 00-.69-.37h-30.1a.49.49 0 00-.4.78l20.87 28.42a.59.58 34.4 001.04-.19l1.81-6.78a.51.5-60.8 01.83-.24q6.69 6.39 10.85 14.37a.61.4 33.2 01.07.16l2.3 7.99a3.83 3.65 37.3 01.13.81q.23 8.24-.29 11.23-.79 4.48-3.75 11.28a.99.98-74 01-1.06.59q-1.95-.29-3.13-1.84a1.08 1.07 74 00-.73-.41q-1.42-.16-1.93-.68-.57-.57-2.53-1.66-16.3-9.06-26.19-14.94c-1.11-.66-2.2-.85-3.05-1.54q-.82-.65-2.13-1.4-7.2-4.09-18.27-10.22-.84-.46-.76-1.22a.4.4 0 00-.41-.42q-2.32.2-3.68-1.16-.99-1-1.73-1.13-1.11-.19-1.93-1.12a1.55 1.5 74.1 00-.83-.48q-.76-.15-1.99-.93-4.41-2.8-14.22-8.19a.8.74 88.9 01-.31-.32q-.11-.21-.24-.37c-.55-.69-2.24-.19-2.97-1.42a.6.54 1.6 00-.23-.22l-13.49-7.55a.4.39 46.3 01.01-.7l83.24-41.86a.5.5 0 00-.13-.93l-48.89-9.65a.65.65 0 01-.22-1.19l125.91-77.74a.52.52 0 00-.3-.97q-6.05.28-9.77.75c-7.41.93-14.3.92-21.94 1.78q-.51.06-2.76-.2a.55.54-74.7 01-.43-.76l10.21-23.47a.38.38 0 00-.56-.47q-70.31 46.33-110.93 73.33-5.19 3.45-5.87 3.69a2.14 1.89 14.9 00-.48.24l-44.91 29.99a.64.64 0 00.16 1.14q6.88 2.22 12.5 3.55 6.82 1.61 16.26 4.32 5.3 1.52 6.83 1.84 4.35.91 6.75 2.08.38.19.35.6-.01.2-.28.35-8.54 4.87-37.08 20.78a1.07 1.04-43.8 01-1.04-.01l-29.47-17.75a.66.58 62.4 00-.21-.08c-1.94-.36-3.03-2.08-4.82-3.06q-2.48-1.36-5.88-3.32a1.85 1.79 83.9 01-.49-.41c-1.05-1.27-2.75-1.3-4.24-2.38q-1.51-1.1-4.72-3.02-26.85-16.14-41.1-24.62c-3.18-1.89-7.07-4.68-10.44-6.37q-2.06-1.03-4.42-2.65-2.82-1.93-4.48-2.67a.99.95.5 01-.48-.47q-.06-.12-.09-.46-.03-.27-.81-.2-.85.08-2.04-1.04-.98-.93-6.79-3.71a.97.84 78.6 01-.3-.23l-.26-.28a2.89 2.86 84 00-.66-.54l-10.28-6.19a1 .66 56.3 00-.12-.05q-1.48-.39-2.27-1.55a1.37 1.32-9.9 00-.8-.54q-1.88-.43-2.88-1.57a1.74 1.71 81.6 00-.54-.41q-1.79-.85-6.23-3.58-.95-.58-1-1.16-.08-.75.73-1.39a.94.92 71.7 00.35-.71q.01-.32 1.34-2.57 3.68-6.24 5.96-13.12.92-2.79.61-10.38a3.19 3.1-57.4 00-.21-1.02l-1.49-3.72a.91.9-39.5 00-1.6-.15l-16.39 25.27a.32.31 29.2 01-.41.11q-4.25-2.18-6.04-3.34-.66-.44-1.86-.6a.39.24-13.3 01-.09-.03l-6.68-3.38a1.86 1.86 0 01-.92-2.27l.44-1.31a.7.65 57 00.04-.23q.15-12.13-8.49-18.83-4.75-3.68-10.33-4.28-5.83-.63-11.19 1.33-3.73 1.37-7.08 4.78-.43.44-.72.5-.52.11-.69.52-.23.57-.47.93-2.93 4.38-3.28 5.81c-1.23 5.02-2.29 7.51-.74 11.6a2.45 2.44-55.5 01.16.87q0 .63.12 1.06 2.42 8.32 9.86 12.95 2.61 1.63 4.65 1.95.85.13 5 1.01a8.11 8.09-45.1 003.4-.01l6.61-1.46a.82.8 19.1 00.34-.16q2.37-1.99 4.69-2.95a1.2 1.2 0 011.24.17l12.75 9.97a.56.56 0 01.13.73l-13.69 22.53q-.66 1.08-.69 1.19a2.06 2.05 10.4 001.78 2.57c5.98.63 8.95-1.98 12.97-5.79q1.12-1.06 2.32-2.62 4.06-5.28 8.28-11.47a.62.61-55.4 01.85-.16q10.3 7.01 17.53 11.7 4.21 2.73 7.91 5.4 1.61 1.15 7.97 5.35 15.86 10.45 92.96 62.02 3.01 2.01 3.26 2.38a1.01 1 83 00.44.35q.65.26 1.06.2a.21.21-77.1 01.2.32q-.16.24-8.66 4.97-21.03 11.68-149.69 83.8-3.6 2.01-4.71 2.47a.53.52 78.6 01-.73-.49v-14.42a.77.77 0 00-1.37-.47l-36.74 46.94a.27.27 0 00.25.44q4.09-.51 7.62-1.72c2.41-.82 4.75-.7 6.95-1.51q1.71-.63 4.47-1.3 11.36-2.77 20.69-5.02 12.11-2.93 26.29-6.72a.65.65 0 00-.14-1.27q-3.04-.12-6.13-1.08c-5.05-1.58-7.36-1.88-12.31-3.36a.46.46 0 01-.07-.85l173.39-87.2a1.09 1.08-41.6 011.08.06l110.73 71.8a.86.85 43.1 01.05 1.4q-1.04.78-1.98 2.16-1.49 2.23-2.69 3.3-3.34 2.99-7.2 6.12a4.51 4.3 10.8 01-.73.47q-12.48 6.53-26.45 3.82-3.04-.59-5.28-1.77a.6.6 0 01-.16-.95q1.89-2.05 3.46-3.5.07-.06.77-1.87a.16.16 0 00-.14-.22l-15.71-1.4a.35.27-18.3 01-.14-.05q-3.73-2.29-7.91-1.39a.31.24 33.6 01-.13.01l-9.28-.82a.88.84-24.5 01-.4-.14q-.77-.54-1.29-.48a.52.51-14.8 00-.42.71q1.14 2.73 2.89 5.13.36.5.9 1.36.84 1.33 11.98 20.11.12.2.07.92a.23.22 73.6 00.36.2" vector-effect="non-scaling-stroke"/><path stroke="#842d1b" d="M452.44 351.42q.1.12.35.15a.1.1-10.3 00.09-.12q-.09-.15-.26-.24a.14.14 0 00-.18.21m68.19 43.85a.1.1 0 00-.1-.1.1.1 0 00-.1.1.1.1 0 00.1.1.1.1 0 00.1-.1" vector-effect="non-scaling-stroke"/><path stroke="#98841c" d="M444.72 113.37q1.05-2.93 1.18-3.18 3.96-7.3 7.53-17.72c2.41-7.01 3.13-15.81 1.82-22.44q-2.19-11.04-11.05-19.64a.33.32-67.3 00-.55.23q-.15 6.23-3.85 12.65c-4.25 7.39-8.33 14.67-10.82 22.17q-1.71 5.15-1.85 5.88c-.8 4.21-.9 8.54.44 12.78q.65 2.05 1.33 4.6a.28.28 0 01-.51.2q-1.12-2.12-4.36-6.69c-6.22-8.8-4.64-19.2-.49-28.42q6.1-13.58 7.76-17.47 3.19-7.51 3.13-14.93a3.32 3.22-53.6 00-.12-.88q-1.77-6.69-6.02-11.78a.26.26 0 00-.45.18c.5 9.71-4.55 17.27-11.18 23.75q-9.8 9.57-13.93 14.05-6.56 7.11-9.03 14.19-3.56 10.17.43 20.79 3.65 9.69 9.52 17.81a.14.13 2.7 01-.2.18q-2.81-2.41-7.79-6.62-5.17-4.38-6.82-7.51c-3.29-6.23-3.59-11.15-2.22-18.54l2.64-16.33a.26.26 0 00-.48-.18c-4.55 8.03-9 15.37-11.65 23.31-4.72 14.12 1.02 28.05 10.97 38.78q3.66 3.94 17.53 17.9c3.19 3.22 5.46 6.21 9.37 10.86a1.05 1.03-19.6 00.8.37h17.53a1.04 1.03 19.2 00.81-.39q.51-.63 1.17-2.04 1.4-3.01 5.55-6.45 9.1-7.55 14.73-12.71 15.96-14.63 15.33-35.89c-.37-12.21-3.96-23.53-8.18-34.45a.22.22 0 00-.43.06l-1.58 17.89q-.45 4.76-1.93 9.65c-2.08 6.87-8.62 11.59-13.46 16.38a.38.38 0 01-.62-.4M219.73 447.65l54.82-13.69a.22.21-44.3 00.01-.42l-17.54-4.68a.33.33 0 01-.07-.61L541 285.41a.37.36 37 00-.1-.68l-49.23-9.72a.43.43 0 01-.14-.78l124.97-77.15a.18.18 26.5 00-.11-.32l-30.63 2.33a.91.9 9.5 01-.9-1.26l8.94-20.53a.31.31 0 00-.45-.38l-154.1 101.93a.41.41 0 00.12.73l43.81 11.68a.53.53 0 01.12.97L251.99 421.66a.15.15-17.4 01-.22-.11l-1.04-13.77a.19.19 0 00-.34-.1l-30.94 39.53a.28.27-77.7 00.28.44" vector-effect="non-scaling-stroke"/><path stroke="#9a9692" d="M437.61 315.49a.45.44 46 00.01-.77l-146.31-88.08a.65.65 0 01-.19-.93q5.77-8.2 8.95-17.37c1.42-4.08 1.69-8.6.4-12.64a.37.36-37.5 00-.66-.08l-15.63 24.11a.6.59-60.2 01-.76.21l-17.94-8.57a.77.76 21.8 01-.4-.93q1.27-4.07.56-8.33c-2.09-12.51-14.57-20.13-26.53-15.75a20.2 20.2 0 00-13.13 17.41c-.5 7.22 3.37 14.89 9.69 18.38q12.17 6.71 23.4-2a1.4 1.4 0 011.72 0l14.85 11.63a.88.87-55.8 01.21 1.14l-14.28 23.71a.6.59-73.7 00.49.9q5.72.17 9.63-4.13 6.19-6.81 11.86-15.56a1.53 1.53 0 012.13-.44l132.15 88.35a1.29 1.28-42.3 001.34.06l18.44-10.32m97.09 3.32 16.61 22.62a.51.51 0 00.9-.17l1.5-5.61a.83.82 29.4 011.37-.38c4.91 4.7 9.53 9.5 12.1 14.91 5.63 11.86 4.75 23.46-1.05 35.28q-.34.69-.36.96-.05.89-.23 1.02a.7.7 0 01-.7.04l-103.16-58.82a2.42 2.4-43.3 00-2.26-.06l-20.45 10.29a.36.36 0 00-.04.62l111.31 72.17a.8.79 33.8 01.23 1.12c-8.75 12.77-19.83 20.03-35.96 19.42q-4.87-.18-14.51-3.38a.27.27 0 01-.13-.43l4.02-5.14a.3.3 0 00-.2-.48l-27.89-3.41a.44.43-12.3 00-.43.66l13.38 21.66a.35.35 0 00.58.03l4.14-5.28a1.11 1.1 34.8 011.46-.26c10.24 6.49 22.37 11.02 34.46 10.44q5.79-.27 12.6-2.79 2.49-.92 9.08-5.85 7.52-5.62 20.36-10.75 13.32-5.32 26.74-3.75a.31.3 73.7 00.27-.5 38 38 0 01-6.77-12.2q-6.01-17.79-3.61-37.05 2.06-16.61-7.91-29.07-8.3-10.38-21.3-17.5a1.44 1.44 0 01-.63-1.84l2.5-5.74a.46.46 0 00-.41-.64l-21.61-.65a1.74 1.72 54.8 01-.45-.08q-1.36-.49-3.42.18a.27.26 63 00-.13.41" vector-effect="non-scaling-stroke"/><path stroke="#9a9692" d="M257.1 205.08a11.23 11.23 0 00-11.23-11.23 11.23 11.23 0 00-11.23 11.23 11.23 11.23 0 0011.23 11.23 11.23 11.23 0 0011.23-11.23" vector-effect="non-scaling-stroke"/><path stroke="#842d1b" d="M255.24 205.02a9.4 9.4 0 00-9.39-9.39 9.4 9.4 0 00-9.39 9.39 9.4 9.4 0 009.39 9.39 9.4 9.4 0 009.39-9.39" vector-effect="non-scaling-stroke"/><path stroke="#80d3eb" d="M849 480.19q-10.45-1.52-20.94-2.39-9.58-.8-39.16-6.79-17.06-3.45-42.08-8.32c-3.5-.68-8.12-1.12-12.24-1.82q-3.58-.62-9.2-.96-7.15-.44-14.38-.96c-7.8-.55-17.75.41-22.68.74q-7.56.5-13.58 1.6c-15.99 2.9-26.28 5.29-45.73 9.76q-8.79 2.02-13.65 2.79c-3.71.59-6.55 1.59-9.8 1.95q-4.27.47-9.68 1.59c-3.04.63-6.77.5-9.6.93q-9.8 1.51-16.78 1.62c-9.71.16-22.96.56-33.98-.88-18.76-2.44-34.24-6.24-53.77-11.05q-8.24-2.02-26.59-5.13c-6.26-1.06-13.13-.97-18.71-1.65-5.35-.66-9.44-.32-14.87-.45-5.94-.14-12.44.99-18.94 1.14q-3.65.09-7.78.79-20.2 3.42-30.63 5.99-24.84 6.14-34.7 7.93a311 311 0 01-18.27 2.65c-10.17 1.24-20.86.85-32.55.65-6-.11-12.77-1.38-17.79-1.73q-5.81-.41-13.29-1.75-19.92-3.57-25.11-4.78-36.65-8.55-43.07-9.45c-3.85-.54-11.11-2-16.7-2.36-9.94-.64-14.45-1.21-22.99-.94q-7.46.24-20.97 1.47-11.67 1.05-36.84 6.22-32.94 6.77-36.07 7.22c-3.79.56-7.55 1.57-11.1 1.99q-5.6.66-8.01 1.16c-4.19.88-8.77.99-12.69 1.47L0 480.14m849 25.87H0m849 22.61-847.45.01a.54.53-24.3 01-.35-.13q-.07-.05-.22-.09a.48.48 0 00-.61.43q-.06.73-.37 1.25M.87 566q-.54.09-.87-.76" vector-effect="non-scaling-stroke"/></g><path fill="#d32e12" d="M849 0v475.97q-22.41-1.8-38.39-4.59-16.24-2.84-51.33-10.37-2.05-.44-20.57-3.4c-8.55-1.37-17.55-1.68-24.9-2.48-3.87-.42-7.06-.18-11.3-.28q-3.5-.08-8.49.48c-5.33.6-12.86 1.01-19.34 2.15q-15.11 2.66-18.61 3.46c-25.9 5.88-52.07 12.4-78.08 14.42q-22.85 1.77-40.23-.03-15.64-1.61-31.69-5.47c-18.44-4.42-32.6-8.03-49.09-10.56-6.9-1.06-15.94-1.34-20.95-2.06-4.67-.68-8.79-.29-14.2-.4q-3.9-.07-10.65.5-6.36.55-13.91 1.34c-18.06 1.9-34.68 6.52-57.5 11.87a206 206 0 01-40.15 5.51q-21.54.74-43.09-2.24c-21.54-2.98-46.26-9.04-63.28-12.82q-3.43-.76-18.01-3.42c-7.39-1.35-15.98-1.68-22.09-2.46-3.59-.46-6.42-.21-10.64-.27q-3.14-.05-8.01.33-10.6.83-18 1.51-3.09.28-19.22 2.98-6.94 1.16-19.08 3.74-26.69 5.66-40.7 8.09-15.75 2.72-37.5 4.42V0zM399.05 161.89q.24-6.75.01-11.45-.03-.6-1.15-.63.15-1.02-.39-.95-2.49.32-4.39.53-2.17.24-4.39.24-46.64.02-60.54-.07-2.95-.02-5.3-.51a.54.54 0 00-.45.94l11.7 9.61 9.13 8.18a.9.9 0 01-.01 1.36l-7.59 6.63q-.2.32-1.29.64a3.37 3.32-70.7 00-1 .49l-10.99 8.07a.5.5 0 00.3.9l48.8.06q.3 0 .42-.39-.19.42.23 1.24l-.16 9.13a.6.6 0 00.61.62h103.78a.6.6 0 00.6-.61l-.16-9.18q-.38.26.31-.72l49.12-.05a.49.49 0 00.27-.9q-4.38-2.91-8.56-6.53-1.72-1.47-4.57-2.78l-7.76-6.62a.8.8 0 01-.01-1.17l9.25-8.39q5.95-4.06 11.51-9.66a.46.46 0 00-.45-.76q-2.88.87-6.43.28a1.91 1.41 39.5 00-.37-.02q-33.24.41-65.11-.03-1.17-.01-1.11 1.17-1.28-.78-2.38-.57a.65.65 0 00-.53.63l-.06 11.25-13.37-.1a.3.3 0 01-.27-.42q1.89-4.02 5.38-6.94 10.64-8.93 14.39-12.34 7.92-7.19 11.34-14.22 3.58-7.36 4.71-14.41 1.05-6.47-.09-18.05a3.07 3.01 30.4 00-.26-.96q-.7-1.5-.96-4.33-.11-1.23-1.14-4.7-1.81-6.08-4.7-14.84-1.34-4.08-1.94-8.57a.5.5 0 00-.98-.06q-1.02 4.2-1.37 9.3-.04.65-1.13 3.1a.06.06 0 00.05.08l.27.03a.25.25 0 01.22.28q-.36 2.77-.17 6.17a7.25 6.92-43.7 01-.06 1.3q-1.23 8.76-1.98 12.18-1.38 6.3-6.94 11.46a.32.32 0 01-.51-.35q1.22-3.13 3.47-8.76 4.27-10.68 3.38-23.47-.57-8.25-4.55-14.97-4.16-7.02-10.27-11.95a.49.49 0 00-.8.45q1.13 7.3-2.2 13.43-5.79 10.67-8.4 15.82-5.75 11.4-6.58 23.59a.14.14 0 01-.26.06q-2.51-4.92-2.84-10.4-.11-1.85 1.17-7.4.84-3.65 2.35-7.14 3.92-9.03 6.29-14.05 3.77-8.03 5.04-15.68.43-2.61.09-3.83-1.6-5.7-4.66-10.82-2.17-3.64-5.51-6.45a.55.55 0 00-.89.55c1.27 5.43 1 11.94-2.04 17.09q-3.01 5.08-7.21 9.21-9.37 9.22-13.48 13.51-3.81 3.96-7.16 9.1-1.28 1.95-1.77 3.21-.82 2.14-1.71 3.35a1.78 1.74 67.3 00-.31.78l-1.34 9.64a.63.61-52 00.03.29c.85 2.8.39 5.43 1.19 8.23q1.73 5.97 4.27 11.02a.35.35 0 01-.54.43q-7.47-6.28-8.03-16.43a4.05 3.92 49.8 01.06-.89q1.42-7.88 1.66-10.26.23-2.27.66-3.86 1.62-5.85 1.33-14.27-.01-.39-.14-.45a.77.59 18.3 00-.97.34q-.36 1.45-1.33 3.2-3.48 6.31-7 12.38-3.94 6.8-5.74 12.96-2.36 8.08-1.77 16.62a2.73 2.71-60.8 00.29 1.04q.63 1.22.83 3.23a5 5 0 00.25 1.09q2.45 6.74 6.71 12.73 4.28 6.03 9.18 10.83 12.42 12.16 17.57 17.92 2 2.23 3.84 4.81a.33.33 0 01-.27.52zm60.12-87.44a.6.6 0 00-.61-.61.6.6 0 00-.61.61.6.6 0 00.61.61.6.6 0 00.61-.61m-.9 4.1a2.83.64-92.9 00-.5 2.85 2.83.64-92.9 00.78 2.8 2.83.64-92.9 00.5-2.86 2.83.64-92.9 00-.78-2.8m30.01 366.8q2.6-2.02 4.88-5.88a1.5 1.5 0 011.92-.6l14.32 6.58a2.99 2.87-25.6 00.67.22q4.12.92 5.12 1.31 2.04.78 5.33 1.04 9.36.74 13.95-.15 8.61-1.67 13.52-5.43 15.58-11.9 33.45-16.2 9.2-2.21 19.2-.29a1.35.8-14.3 01.17.05l7.63 3.61.07-.02.21-.35a.3.3 0 00-.11-.43q-6.11-3.55-9.56-7.84-2.48-3.08-4.48-7.73-.47-1.08-.6-1.49-2.26-7.05-2.29-7.09c-.75-1-.25-3.42-1.06-4.68a1.2 1.2 0 01-.2-.79q.32-3.94-.71-5.53a2.13 2.07-62.2 01-.34-1.15l-.17-14.89a4 4-31.4 01.48-1.98l.15-.29a3.06 3.03 59.2 00.31-1.25l.25-10.07a1.71 1.57 42.4 00-.04-.44l-1.63-6.91a.44.1 58.3 00-.03-.09q-3.72-9.41-8.97-15.3-4.7-5.28-6.88-6.86-3.03-2.2-3.95-3.2a4 4 0 00-.62-.53l-6.01-4.02a.91.76-19.1 00-.29-.11q-1.86-.32-1.22-2.29.05-.18 2.04-4.76.53-1.25-.56-2.99a.83.81-16.1 00-.69-.37h-30.1a.49.49 0 00-.4.78l20.87 28.42a.59.58 34.4 001.04-.19l1.81-6.78a.51.5-60.8 01.83-.24q6.69 6.39 10.85 14.37a.61.4 33.2 01.07.16l2.3 7.99a3.83 3.65 37.3 01.13.81q.23 8.24-.29 11.23-.79 4.48-3.75 11.28a.99.98-74 01-1.06.59q-1.95-.29-3.13-1.84a1.08 1.07 74 00-.73-.41q-1.42-.16-1.93-.68-.57-.57-2.53-1.66-16.3-9.06-26.19-14.94c-1.11-.66-2.2-.85-3.05-1.54q-.82-.65-2.13-1.4-7.2-4.09-18.27-10.22-.84-.46-.76-1.22a.4.4 0 00-.41-.42q-2.32.2-3.68-1.16-.99-1-1.73-1.13-1.11-.19-1.93-1.12a1.55 1.5 74.1 00-.83-.48q-.76-.15-1.99-.93-4.41-2.8-14.22-8.19a.8.74 88.9 01-.31-.32q-.11-.21-.24-.37c-.55-.69-2.24-.19-2.97-1.42a.6.54 1.6 00-.23-.22l-13.49-7.55a.4.39 46.3 01.01-.7l83.24-41.86a.5.5 0 00-.13-.93l-48.89-9.65a.65.65 0 01-.22-1.19l125.91-77.74a.52.52 0 00-.3-.97q-6.05.28-9.77.75c-7.41.93-14.3.92-21.94 1.78q-.51.06-2.76-.2a.55.54-74.7 01-.43-.76l10.21-23.47a.38.38 0 00-.56-.47q-70.31 46.33-110.93 73.33-5.19 3.45-5.87 3.69a2.14 1.89 14.9 00-.48.24l-44.91 29.99a.64.64 0 00.16 1.14q6.88 2.22 12.5 3.55 6.82 1.61 16.26 4.32 5.3 1.52 6.83 1.84 4.35.91 6.75 2.08.38.19.35.6-.01.2-.28.35-8.54 4.87-37.08 20.78a1.07 1.04-43.8 01-1.04-.01l-29.47-17.75a.66.58 62.4 00-.21-.08c-1.94-.36-3.03-2.08-4.82-3.06q-2.48-1.36-5.88-3.32a1.85 1.79 83.9 01-.49-.41c-1.05-1.27-2.75-1.3-4.24-2.38q-1.51-1.1-4.72-3.02-26.85-16.14-41.1-24.62c-3.18-1.89-7.07-4.68-10.44-6.37q-2.06-1.03-4.42-2.65-2.82-1.93-4.48-2.67a.99.95.5 01-.48-.47q-.06-.12-.09-.46-.03-.27-.81-.2-.85.08-2.04-1.04-.98-.93-6.79-3.71a.97.84 78.6 01-.3-.23l-.26-.28a2.89 2.86 84 00-.66-.54l-10.28-6.19a1 .66 56.3 00-.12-.05q-1.48-.39-2.27-1.55a1.37 1.32-9.9 00-.8-.54q-1.88-.43-2.88-1.57a1.74 1.71 81.6 00-.54-.41q-1.79-.85-6.23-3.58-.95-.58-1-1.16-.08-.75.73-1.39a.94.92 71.7 00.35-.71q.01-.32 1.34-2.57 3.68-6.24 5.96-13.12.92-2.79.61-10.38a3.19 3.1-57.4 00-.21-1.02l-1.49-3.72a.91.9-39.5 00-1.6-.15l-16.39 25.27a.32.31 29.2 01-.41.11q-4.25-2.18-6.04-3.34-.66-.44-1.86-.6a.39.24-13.3 01-.09-.03l-6.68-3.38a1.86 1.86 0 01-.92-2.27l.44-1.31a.7.65 57 00.04-.23q.15-12.13-8.49-18.83-4.75-3.68-10.33-4.28-5.83-.63-11.19 1.33-3.73 1.37-7.08 4.78-.43.44-.72.5-.52.11-.69.52-.23.57-.47.93-2.93 4.38-3.28 5.81c-1.23 5.02-2.29 7.51-.74 11.6a2.45 2.44-55.5 01.16.87q0 .63.12 1.06 2.42 8.32 9.86 12.95 2.61 1.63 4.65 1.95.85.13 5 1.01a8.11 8.09-45.1 003.4-.01l6.61-1.46a.82.8 19.1 00.34-.16q2.37-1.99 4.69-2.95a1.2 1.2 0 011.24.17l12.75 9.97a.56.56 0 01.13.73l-13.69 22.53q-.66 1.08-.69 1.19a2.06 2.05 10.4 001.78 2.57c5.98.63 8.95-1.98 12.97-5.79q1.12-1.06 2.32-2.62 4.06-5.28 8.28-11.47a.62.61-55.4 01.85-.16q10.3 7.01 17.53 11.7 4.21 2.73 7.91 5.4 1.61 1.15 7.97 5.35 15.86 10.45 92.96 62.02 3.01 2.01 3.26 2.38a1.01 1 83 00.44.35q.65.26 1.06.2a.21.21-77.1 01.2.32q-.16.24-8.66 4.97-21.03 11.68-149.69 83.8-3.6 2.01-4.71 2.47a.53.52 78.6 01-.73-.49v-14.42a.77.77 0 00-1.37-.47l-36.74 46.94a.27.27 0 00.25.44q4.09-.51 7.62-1.72c2.41-.82 4.75-.7 6.95-1.51q1.71-.63 4.47-1.3 11.36-2.77 20.69-5.02 12.11-2.93 26.29-6.72a.65.65 0 00-.14-1.27q-3.04-.12-6.13-1.08c-5.05-1.58-7.36-1.88-12.31-3.36a.46.46 0 01-.07-.85l173.39-87.2a1.09 1.08-41.6 011.08.06l110.73 71.8a.86.85 43.1 01.05 1.4q-1.04.78-1.98 2.16-1.49 2.23-2.69 3.3-3.34 2.99-7.2 6.12a4.51 4.3 10.8 01-.73.47q-12.48 6.53-26.45 3.82-3.04-.59-5.28-1.77a.6.6 0 01-.16-.95q1.89-2.05 3.46-3.5.07-.06.77-1.87a.16.16 0 00-.14-.22l-15.71-1.4a.35.27-18.3 01-.14-.05q-3.73-2.29-7.91-1.39a.31.24 33.6 01-.13.01l-9.28-.82a.88.84-24.5 01-.4-.14q-.77-.54-1.29-.48a.52.51-14.8 00-.42.71q1.14 2.73 2.89 5.13.36.5.9 1.36.84 1.33 11.98 20.11.12.2.07.92a.23.22 73.6 00.36.2m-35.84-93.93q.1.12.35.15a.1.1-10.3 00.09-.12q-.09-.15-.26-.24a.14.14 0 00-.18.21m68.19 43.85a.1.1 0 00-.1-.1.1.1 0 00-.1.1.1.1 0 00.1.1.1.1 0 00.1-.1"/><path fill="#342c24" d="m449.94 161.87 26.77.01a.26.26 0 01.26.26v9.15a.2.2 0 01-.21.21H372.22a.2.2-90 01-.2-.21v-9.14a.26.25 90 01.25-.26h26.78l13.27-.06a.33.33 0 00.27-.52q-1.84-2.58-3.84-4.81-5.15-5.76-17.57-17.92-4.9-4.8-9.18-10.83-4.26-5.99-6.71-12.73a5 5 0 01-.25-1.09q-.2-2.01-.83-3.23a2.73 2.71-60.8 01-.29-1.04q-.59-8.54 1.77-16.62 1.8-6.16 5.74-12.96 3.52-6.07 7-12.38.97-1.75 1.33-3.2a.77.59 18.3 01.97-.34q.13.06.14.45.29 8.42-1.33 14.27-.43 1.59-.66 3.86-.24 2.38-1.66 10.26a4.05 3.92 49.8 00-.06.89q.56 10.15 8.03 16.43a.35.35 0 00.54-.43q-2.54-5.05-4.27-11.02c-.8-2.8-.34-5.43-1.19-8.23a.63.61-52 01-.03-.29l1.34-9.64a1.78 1.74 67.3 01.31-.78q.89-1.21 1.71-3.35.49-1.26 1.77-3.21 3.35-5.14 7.16-9.1 4.11-4.29 13.48-13.51 4.2-4.13 7.21-9.21c3.04-5.15 3.31-11.66 2.04-17.09a.55.55 0 01.89-.55q3.34 2.81 5.51 6.45 3.06 5.12 4.66 10.82.34 1.22-.09 3.83-1.27 7.65-5.04 15.68-2.37 5.02-6.29 14.05-1.51 3.49-2.35 7.14-1.28 5.55-1.17 7.4.33 5.48 2.84 10.4a.14.14 0 00.26-.06q.83-12.19 6.58-23.59 2.61-5.15 8.4-15.82 3.33-6.13 2.2-13.43a.49.49 0 01.8-.45q6.11 4.93 10.27 11.95 3.98 6.72 4.55 14.97.89 12.79-3.38 23.47-2.25 5.63-3.47 8.76a.32.32 0 00.51.35q5.56-5.16 6.94-11.46.75-3.42 1.98-12.18a7.25 6.92-43.7 00.06-1.3q-.19-3.4.17-6.17a.25.25 0 00-.22-.28l-.27-.03a.06.06 0 01-.05-.08q1.09-2.45 1.13-3.1.35-5.1 1.37-9.3a.5.5 0 01.98.06q.6 4.49 1.94 8.57 2.89 8.76 4.7 14.84 1.03 3.47 1.14 4.7.26 2.83.96 4.33a3.07 3.01 30.4 01.26.96q1.14 11.58.09 18.05-1.13 7.05-4.71 14.41-3.42 7.03-11.34 14.22-3.75 3.41-14.39 12.34-3.49 2.92-5.38 6.94a.3.3 0 00.27.42zm-5.22-48.5q1.05-2.93 1.18-3.18 3.96-7.3 7.53-17.72c2.41-7.01 3.13-15.81 1.82-22.44q-2.19-11.04-11.05-19.64a.33.32-67.3 00-.55.23q-.15 6.23-3.85 12.65c-4.25 7.39-8.33 14.67-10.82 22.17q-1.71 5.15-1.85 5.88c-.8 4.21-.9 8.54.44 12.78q.65 2.05 1.33 4.6a.28.28 0 01-.51.2q-1.12-2.12-4.36-6.69c-6.22-8.8-4.64-19.2-.49-28.42q6.1-13.58 7.76-17.47 3.19-7.51 3.13-14.93a3.32 3.22-53.6 00-.12-.88q-1.77-6.69-6.02-11.78a.26.26 0 00-.45.18c.5 9.71-4.55 17.27-11.18 23.75q-9.8 9.57-13.93 14.05-6.56 7.11-9.03 14.19-3.56 10.17.43 20.79 3.65 9.69 9.52 17.81a.14.13 2.7 01-.2.18q-2.81-2.41-7.79-6.62-5.17-4.38-6.82-7.51c-3.29-6.23-3.59-11.15-2.22-18.54l2.64-16.33a.26.26 0 00-.48-.18c-4.55 8.03-9 15.37-11.65 23.31-4.72 14.12 1.02 28.05 10.97 38.78q3.66 3.94 17.53 17.9c3.19 3.22 5.46 6.21 9.37 10.86a1.05 1.03-19.6 00.8.37h17.53a1.04 1.03 19.2 00.81-.39q.51-.63 1.17-2.04 1.4-3.01 5.55-6.45 9.1-7.55 14.73-12.71 15.96-14.63 15.33-35.89c-.37-12.21-3.96-23.53-8.18-34.45a.22.22 0 00-.43.06l-1.58 17.89q-.45 4.76-1.93 9.65c-2.08 6.87-8.62 11.59-13.46 16.38a.38.38 0 01-.62-.4"/><path fill="#fcdc14" d="M444.72 113.37a.38.38 0 00.62.4c4.84-4.79 11.38-9.51 13.46-16.38q1.48-4.89 1.93-9.65l1.58-17.89a.22.22 0 01.43-.06c4.22 10.92 7.81 22.24 8.18 34.45q.63 21.26-15.33 35.89-5.63 5.16-14.73 12.71-4.15 3.44-5.55 6.45-.66 1.41-1.17 2.04a1.04 1.03 19.2 01-.81.39H415.8a1.05 1.03-19.6 01-.8-.37c-3.91-4.65-6.18-7.64-9.37-10.86q-13.87-13.96-17.53-17.9c-9.95-10.73-15.69-24.66-10.97-38.78 2.65-7.94 7.1-15.28 11.65-23.31a.26.26 0 01.48.18l-2.64 16.33c-1.37 7.39-1.07 12.31 2.22 18.54q1.65 3.13 6.82 7.51 4.98 4.21 7.79 6.62a.14.13 2.7 00.2-.18q-5.87-8.12-9.52-17.81-3.99-10.62-.43-20.79 2.47-7.08 9.03-14.19 4.13-4.48 13.93-14.05c6.63-6.48 11.68-14.04 11.18-23.75a.26.26 0 01.45-.18q4.25 5.09 6.02 11.78a3.32 3.22-53.6 01.12.88q.06 7.42-3.13 14.93-1.66 3.89-7.76 17.47c-4.15 9.22-5.73 19.62.49 28.42q3.24 4.57 4.36 6.69a.28.28 0 00.51-.2q-.68-2.55-1.33-4.6c-1.34-4.24-1.24-8.57-.44-12.78q.14-.73 1.85-5.88c2.49-7.5 6.57-14.78 10.82-22.17q3.7-6.42 3.85-12.65a.33.32-67.3 01.55-.23q8.86 8.6 11.05 19.64c1.31 6.63.59 15.43-1.82 22.44q-3.57 10.42-7.53 17.72-.13.25-1.18 3.18"/><circle cx="458.56" cy="74.45" r=".61" fill="#342c24"/><ellipse fill="#342c24" rx="2.83" ry=".64" transform="rotate(-92.9 267.88 -177.2)"/><path fill="#342c24" d="M397.91 149.81q-9.78 4.27-19.53 8.84-1.95.92-5.68.94-18.96.13-38.55.01l-11.7-9.61a.54.54 0 01.45-.94q2.35.49 5.3.51 13.9.09 60.54.07 2.22 0 4.39-.24 1.9-.21 4.39-.53.54-.07.39.95m116.96 9.77-41.05-.01a5.04 5.01-32.6 01-2.08-.45l-18.83-8.56q-.06-1.18 1.11-1.17 31.87.44 65.11.03a1.91 1.41 39.5 01.37.02q3.55.59 6.43-.28a.46.46 0 01.45.76q-5.56 5.6-11.51 9.66"/><path fill="#fcdc14" d="M397.91 149.81q1.12.03 1.15.63.23 4.7-.01 11.45h-26.78a.26.25-90 00-.25.26v9.14a.2.2-90 00.2.21h104.54a.2.2 0 00.21-.21v-9.15a.26.26 0 00-.26-.26l-26.77-.01.06-11.25a.65.65 0 01.53-.63q1.1-.21 2.38.57l18.83 8.56a5.04 5.01-32.6 002.08.45l41.05.01-9.25 8.39a.8.8 0 00.01 1.17l7.76 6.62-35.82-.03a.5.5 0 00-.48.48l.04 9.81q-.69.98-.31.72l-104.67.04q-.42-.82-.23-1.24l-.01-9.27a.53.53 0 00-.53-.53l-35.7.03 7.59-6.63a.9.9 0 00.01-1.36l-9.13-8.18q19.59.12 38.55-.01 3.73-.02 5.68-.94 9.75-4.57 19.53-8.84"/><path fill="#342c24" d="M487.92 445.15q.05-.72-.07-.92-11.14-18.78-11.98-20.11-.54-.86-.9-1.36-1.75-2.4-2.89-5.13a.52.51-14.8 01.42-.71q.52-.06 1.29.48a.88.84-24.5 00.4.14l9.28.82a.31.24 33.6 00.13-.01q4.18-.9 7.91 1.39a.35.27-18.3 00.14.05l15.71 1.4a.16.16 0 01.14.22q-.7 1.81-.77 1.87-1.57 1.45-3.46 3.5a.6.6 0 00.16.95q2.24 1.18 5.28 1.77 13.97 2.71 26.45-3.82a4.51 4.3 10.8 00.73-.47q3.86-3.13 7.2-6.12 1.2-1.07 2.69-3.3.94-1.38 1.98-2.16a.86.85 43.1 00-.05-1.4l-110.73-71.8a1.09 1.08-41.6 00-1.08-.06l-173.39 87.2a.46.46 0 00.07.85c4.95 1.48 7.26 1.78 12.31 3.36q3.09.96 6.13 1.08a.65.65 0 01.14 1.27q-14.18 3.79-26.29 6.72-9.33 2.25-20.69 5.02-2.76.67-4.47 1.3c-2.2.81-4.54.69-6.95 1.51q-3.53 1.21-7.62 1.72a.27.27 0 01-.25-.44l36.74-46.94a.77.77 0 011.37.47v14.42a.53.52 78.6 00.73.49q1.11-.46 4.71-2.47 128.66-72.12 149.69-83.8 8.5-4.73 8.66-4.97a.21.21-77.1 00-.2-.32q-.41.06-1.06-.2a1.01 1 83 01-.44-.35q-.25-.37-3.26-2.38-77.1-51.57-92.96-62.02-6.36-4.2-7.97-5.35-3.7-2.67-7.91-5.4-7.23-4.69-17.53-11.7a.62.61-55.4 00-.85.16q-4.22 6.19-8.28 11.47-1.2 1.56-2.32 2.62c-4.02 3.81-6.99 6.42-12.97 5.79a2.06 2.05 10.4 01-1.78-2.57q.03-.11.69-1.19l13.69-22.53a.56.56 0 00-.13-.73l-12.75-9.97a1.2 1.2 0 00-1.24-.17q-2.32.96-4.69 2.95a.82.8 19.1 01-.34.16l-6.61 1.46a8.11 8.09-45.1 01-3.4.01q-4.15-.88-5-1.01-2.04-.32-4.65-1.95-7.44-4.63-9.86-12.95-.12-.43-.12-1.06a2.45 2.44-55.5 00-.16-.87c-1.55-4.09-.49-6.58.74-11.6q.35-1.43 3.28-5.81.24-.36.47-.93.17-.41.69-.52.29-.06.72-.5 3.35-3.41 7.08-4.78 5.36-1.96 11.19-1.33 5.58.6 10.33 4.28 8.64 6.7 8.49 18.83a.7.65 57 01-.04.23l-.44 1.31a1.86 1.86 0 00.92 2.27l6.68 3.38a.39.24-13.3 00.09.03q1.2.16 1.86.6 1.79 1.16 6.04 3.34a.32.31 29.2 00.41-.11l16.39-25.27a.91.9-39.5 011.6.15l1.49 3.72a3.19 3.1-57.4 01.21 1.02q.31 7.59-.61 10.38-2.28 6.88-5.96 13.12-1.33 2.25-1.34 2.57a.94.92 71.7 01-.35.71q-.81.64-.73 1.39.05.58 1 1.16 4.44 2.73 6.23 3.58a1.74 1.71 81.6 01.54.41q1 1.14 2.88 1.57a1.37 1.32-9.9 01.8.54q.79 1.16 2.27 1.55a1 .66 56.3 01.12.05l10.28 6.19a2.89 2.86 84 01.66.54l.26.28a.97.84 78.6 00.3.23q5.81 2.78 6.79 3.71 1.19 1.12 2.04 1.04.78-.07.81.2.03.34.09.46a.99.95.5 00.48.47q1.66.74 4.48 2.67 2.36 1.62 4.42 2.65c3.37 1.69 7.26 4.48 10.44 6.37q14.25 8.48 41.1 24.62 3.21 1.92 4.72 3.02c1.49 1.08 3.19 1.11 4.24 2.38a1.85 1.79 83.9 00.49.41q3.4 1.96 5.88 3.32c1.79.98 2.88 2.7 4.82 3.06a.66.58 62.4 01.21.08l29.47 17.75a1.07 1.04-43.8 001.04.01q28.54-15.91 37.08-20.78.27-.15.28-.35.03-.41-.35-.6-2.4-1.17-6.75-2.08-1.53-.32-6.83-1.84-9.44-2.71-16.26-4.32-5.62-1.33-12.5-3.55a.64.64 0 01-.16-1.14l44.91-29.99a2.14 1.89 14.9 01.48-.24q.68-.24 5.87-3.69 40.62-27 110.93-73.33a.38.38 0 01.56.47l-10.21 23.47a.55.54-74.7 00.43.76q2.25.26 2.76.2c7.64-.86 14.53-.85 21.94-1.78q3.72-.47 9.77-.75a.52.52 0 01.3.97L497.1 273.03a.65.65 0 00.22 1.19l48.89 9.65a.5.5 0 01.13.93l-83.24 41.86a.4.39 46.3 00-.01.7l13.49 7.55a.6.54 1.6 01.23.22c.73 1.23 2.42.73 2.97 1.42q.13.16.24.37a.8.74 88.9 00.31.32q9.81 5.39 14.22 8.19 1.23.78 1.99.93a1.55 1.5 74.1 01.83.48q.82.93 1.93 1.12.74.13 1.73 1.13 1.36 1.36 3.68 1.16a.4.4 0 01.41.42q-.08.76.76 1.22 11.07 6.13 18.27 10.22 1.31.75 2.13 1.4c.85.69 1.94.88 3.05 1.54q9.89 5.88 26.19 14.94 1.96 1.09 2.53 1.66.51.52 1.93.68a1.08 1.07 74 01.73.41q1.18 1.55 3.13 1.84a.99.98-74 001.06-.59q2.96-6.8 3.75-11.28.52-2.99.29-11.23a3.83 3.65 37.3 00-.13-.81l-2.3-7.99a.61.4 33.2 00-.07-.16q-4.16-7.98-10.85-14.37a.51.5-60.8 00-.83.24l-1.81 6.78a.59.58 34.4 01-1.04.19l-20.87-28.42a.49.49 0 01.4-.78h30.1a.83.81-16.1 01.69.37q1.09 1.74.56 2.99-1.99 4.58-2.04 4.76-.64 1.97 1.22 2.29a.91.76-19.1 01.29.11l6.01 4.02a4 4 0 01.62.53q.92 1 3.95 3.2 2.18 1.58 6.88 6.86 5.25 5.89 8.97 15.3a.44.1 58.3 01.03.09l1.63 6.91a1.71 1.57 42.4 01.04.44l-.25 10.07a3.06 3.03 59.2 01-.31 1.25l-.15.29a4 4-31.4 00-.48 1.98l.17 14.89a2.13 2.07-62.2 00.34 1.15q1.03 1.59.71 5.53a1.2 1.2 0 00.2.79c.81 1.26.31 3.68 1.06 4.68q.03.04 2.29 7.09.13.41.6 1.49 2 4.65 4.48 7.73 3.45 4.29 9.56 7.84a.3.3 0 01.11.43l-.21.35-.07.02-7.63-3.61a1.35.8-14.3 00-.17-.05q-10-1.92-19.2.29-17.87 4.3-33.45 16.2-4.91 3.76-13.52 5.43-4.59.89-13.95.15-3.29-.26-5.33-1.04-1-.39-5.12-1.31a2.99 2.87-25.6 01-.67-.22l-14.32-6.58a1.5 1.5 0 00-1.92.6q-2.28 3.86-4.88 5.88a.23.22 73.6 01-.36-.2m-268.19 2.5 54.82-13.69a.22.21-44.3 00.01-.42l-17.54-4.68a.33.33 0 01-.07-.61L541 285.41a.37.36 37 00-.1-.68l-49.23-9.72a.43.43 0 01-.14-.78l124.97-77.15a.18.18 26.5 00-.11-.32l-30.63 2.33a.91.9 9.5 01-.9-1.26l8.94-20.53a.31.31 0 00-.45-.38l-154.1 101.93a.41.41 0 00.12.73l43.81 11.68a.53.53 0 01.12.97L251.99 421.66a.15.15-17.4 01-.22-.11l-1.04-13.77a.19.19 0 00-.34-.1l-30.94 39.53a.28.27-77.7 00.28.44m217.88-132.16a.45.44 46 00.01-.77l-146.31-88.08a.65.65 0 01-.19-.93q5.77-8.2 8.95-17.37c1.42-4.08 1.69-8.6.4-12.64a.37.36-37.5 00-.66-.08l-15.63 24.11a.6.59-60.2 01-.76.21l-17.94-8.57a.77.76 21.8 01-.4-.93q1.27-4.07.56-8.33c-2.09-12.51-14.57-20.13-26.53-15.75a20.2 20.2 0 00-13.13 17.41c-.5 7.22 3.37 14.89 9.69 18.38q12.17 6.71 23.4-2a1.4 1.4 0 011.72 0l14.85 11.63a.88.87-55.8 01.21 1.14l-14.28 23.71a.6.59-73.7 00.49.9q5.72.17 9.63-4.13 6.19-6.81 11.86-15.56a1.53 1.53 0 012.13-.44l132.15 88.35a1.29 1.28-42.3 001.34.06zm97.09 3.32 16.61 22.62a.51.51 0 00.9-.17l1.5-5.61a.83.82 29.4 011.37-.38c4.91 4.7 9.53 9.5 12.1 14.91 5.63 11.86 4.75 23.46-1.05 35.28q-.34.69-.36.96-.05.89-.23 1.02a.7.7 0 01-.7.04l-103.16-58.82a2.42 2.4-43.3 00-2.26-.06l-20.45 10.29a.36.36 0 00-.04.62l111.31 72.17a.8.79 33.8 01.23 1.12c-8.75 12.77-19.83 20.03-35.96 19.42q-4.87-.18-14.51-3.38a.27.27 0 01-.13-.43l4.02-5.14a.3.3 0 00-.2-.48l-27.89-3.41a.44.43-12.3 00-.43.66l13.38 21.66a.35.35 0 00.58.03l4.14-5.28a1.11 1.1 34.8 011.46-.26c10.24 6.49 22.37 11.02 34.46 10.44q5.79-.27 12.6-2.79 2.49-.92 9.08-5.85 7.52-5.62 20.36-10.75 13.32-5.32 26.74-3.75a.31.3 73.7 00.27-.5 38 38 0 01-6.77-12.2q-6.01-17.79-3.61-37.05 2.06-16.61-7.91-29.07-8.3-10.38-21.3-17.5a1.44 1.44 0 01-.63-1.84l2.5-5.74a.46.46 0 00-.41-.64l-21.61-.65a1.74 1.72 54.8 01-.45-.08q-1.36-.49-3.42.18a.27.26 63 00-.13.41"/><path fill="#342c24" d="m335.68 175.77 35.7-.03a.53.53 0 01.53.53l.01 9.27q-.12.39-.42.39l-48.8-.06a.5.5 0 01-.3-.9l10.99-8.07a3.37 3.32-70.7 011-.49q1.09-.32 1.29-.64m177.71-.01q2.85 1.31 4.57 2.78 4.18 3.62 8.56 6.53a.49.49 0 01-.27.9l-49.12.05-.04-9.81a.5.5 0 01.48-.48z"/><path fill="#fcdc14" d="m219.45 447.21 30.94-39.53a.19.19 0 01.34.1l1.04 13.77a.15.15-17.4 00.22.11L483.3 292.23a.53.53 0 00-.12-.97l-43.81-11.68a.41.41 0 01-.12-.73l154.1-101.93a.31.31 0 01.45.38l-8.94 20.53a.91.9 9.5 00.9 1.26l30.63-2.33a.18.18 26.5 01.11.32l-124.97 77.15a.43.43 0 00.14.78l49.23 9.72a.37.36 37 01.1.68L256.95 428.25a.33.33 0 00.07.61l17.54 4.68a.22.21-44.3 01-.01.42l-54.82 13.69a.28.27-77.7 01-.28-.44"/><path fill="#fff" d="m437.61 315.49-18.44 10.32a1.29 1.28-42.3 01-1.34-.06L285.68 237.4a1.53 1.53 0 00-2.13.44q-5.67 8.75-11.86 15.56-3.91 4.3-9.63 4.13a.6.59-73.7 01-.49-.9l14.28-23.71a.88.87-55.8 00-.21-1.14l-14.85-11.63a1.4 1.4 0 00-1.72 0q-11.23 8.71-23.4 2c-6.32-3.49-10.19-11.16-9.69-18.38a20.2 20.2 0 0113.13-17.41c11.96-4.38 24.44 3.24 26.53 15.75q.71 4.26-.56 8.33a.77.76 21.8 00.4.93l17.94 8.57a.6.59-60.2 00.76-.21l15.63-24.11a.37.36-37.5 01.66.08c1.29 4.04 1.02 8.56-.4 12.64q-3.18 9.17-8.95 17.37a.65.65 0 00.19.93l146.31 88.08a.45.44 46 01-.01.77M257.1 205.08a11.23 11.23 0 00-11.23-11.23 11.23 11.23 0 00-11.23 11.23 11.23 11.23 0 0011.23 11.23 11.23 11.23 0 0011.23-11.23"/><path fill="#342c24" d="m372.15 186.78 104.67-.04.16 9.18a.6.6 0 01-.6.61H372.6a.6.6 0 01-.61-.62zm-115.05 18.3a11.23 11.23 0 01-11.23 11.23 11.23 11.23 0 01-11.23-11.23 11.23 11.23 0 0111.23-11.23 11.23 11.23 0 0111.23 11.23m-1.86-.06a9.4 9.4 0 00-9.39-9.39 9.4 9.4 0 00-9.39 9.39 9.4 9.4 0 009.39 9.39 9.4 9.4 0 009.39-9.39"/><circle cx="245.85" cy="205.02" r="9.39" fill="#d32e12"/><path fill="#fff" d="M534.83 318.4q2.06-.67 3.42-.18a1.74 1.72 54.8 00.45.08l21.61.65a.46.46 0 01.41.64l-2.5 5.74a1.44 1.44 0 00.63 1.84q13 7.12 21.3 17.5 9.97 12.46 7.91 29.07-2.4 19.26 3.61 37.05a38 38 0 006.77 12.2.31.3 73.7 01-.27.5q-13.42-1.57-26.74 3.75-12.84 5.13-20.36 10.75-6.59 4.93-9.08 5.85-6.81 2.52-12.6 2.79c-12.09.58-24.22-3.95-34.46-10.44a1.11 1.1 34.8 00-1.46.26l-4.14 5.28a.35.35 0 01-.58-.03l-13.38-21.66a.44.43-12.3 01.43-.66l27.89 3.41a.3.3 0 01.2.48l-4.02 5.14a.27.27 0 00.13.43q9.64 3.2 14.51 3.38c16.13.61 27.21-6.65 35.96-19.42a.8.79 33.8 00-.23-1.12l-111.31-72.17a.36.36 0 01.04-.62l20.45-10.29a2.42 2.4-43.3 012.26.06l103.16 58.82a.7.7 0 00.7-.04q.18-.13.23-1.02.02-.27.36-.96c5.8-11.82 6.68-23.42 1.05-35.28-2.57-5.41-7.19-10.21-12.1-14.91a.83.82 29.4 00-1.37.38l-1.5 5.61a.51.51 0 01-.9.17l-16.61-22.62a.27.26 63 01.13-.41"/><path fill="#342c24" d="M452.62 351.21q.17.09.26.24a.1.1-10.3 01-.09.12q-.25-.03-.35-.15a.14.14 0 01.18-.21"/><circle cx="520.53" cy="395.27" r=".1" fill="#342c24"/><path fill="#fff" d="M849 475.97v4.22q-10.45-1.52-20.94-2.39-9.58-.8-39.16-6.79-17.06-3.45-42.08-8.32c-3.5-.68-8.12-1.12-12.24-1.82q-3.58-.62-9.2-.96-7.15-.44-14.38-.96c-7.8-.55-17.75.41-22.68.74q-7.56.5-13.58 1.6c-15.99 2.9-26.28 5.29-45.73 9.76q-8.79 2.02-13.65 2.79c-3.71.59-6.55 1.59-9.8 1.95q-4.27.47-9.68 1.59c-3.04.63-6.77.5-9.6.93q-9.8 1.51-16.78 1.62c-9.71.16-22.96.56-33.98-.88-18.76-2.44-34.24-6.24-53.77-11.05q-8.24-2.02-26.59-5.13c-6.26-1.06-13.13-.97-18.71-1.65-5.35-.66-9.44-.32-14.87-.45-5.94-.14-12.44.99-18.94 1.14q-3.65.09-7.78.79-20.2 3.42-30.63 5.99-24.84 6.14-34.7 7.93a311 311 0 01-18.27 2.65c-10.17 1.24-20.86.85-32.55.65-6-.11-12.77-1.38-17.79-1.73q-5.81-.41-13.29-1.75-19.92-3.57-25.11-4.78-36.65-8.55-43.07-9.45c-3.85-.54-11.11-2-16.7-2.36-9.94-.64-14.45-1.21-22.99-.94q-7.46.24-20.97 1.47-11.67 1.05-36.84 6.22-32.94 6.77-36.07 7.22c-3.79.56-7.55 1.57-11.1 1.99q-5.6.66-8.01 1.16c-4.19.88-8.77.99-12.69 1.47L0 480.14v-4.22q21.75-1.7 37.5-4.42 14.01-2.43 40.7-8.09 12.14-2.58 19.08-3.74 16.13-2.7 19.22-2.98 7.4-.68 18-1.51 4.87-.38 8.01-.33c4.22.06 7.05-.19 10.64.27 6.11.78 14.7 1.11 22.09 2.46q14.58 2.66 18.01 3.42c17.02 3.78 41.74 9.84 63.28 12.82q21.55 2.98 43.09 2.24a206 206 0 0040.15-5.51c22.82-5.35 39.44-9.97 57.5-11.87q7.55-.79 13.91-1.34 6.75-.57 10.65-.5c5.41.11 9.53-.28 14.2.4 5.01.72 14.05 1 20.95 2.06 16.49 2.53 30.65 6.14 49.09 10.56q16.05 3.86 31.69 5.47 17.38 1.8 40.23.03c26.01-2.02 52.18-8.54 78.08-14.42q3.5-.8 18.61-3.46c6.48-1.14 14.01-1.55 19.34-2.15q4.99-.56 8.49-.48c4.24.1 7.43-.14 11.3.28 7.35.8 16.35 1.11 24.9 2.48q18.52 2.96 20.57 3.4 35.09 7.53 51.33 10.37 15.98 2.79 38.39 4.59"/><path fill="#00a6d6" d="M849 480.19v25.82H0v-25.87l14.08-1.7c3.92-.48 8.5-.59 12.69-1.47q2.41-.5 8.01-1.16c3.55-.42 7.31-1.43 11.1-1.99q3.13-.45 36.07-7.22 25.17-5.17 36.84-6.22 13.51-1.23 20.97-1.47c8.54-.27 13.05.3 22.99.94 5.59.36 12.85 1.82 16.7 2.36q6.42.9 43.07 9.45 5.19 1.21 25.11 4.78 7.48 1.34 13.29 1.75c5.02.35 11.79 1.62 17.79 1.73 11.69.2 22.38.59 32.55-.65 5.87-.71 12.05-1.52 18.27-2.65q9.86-1.79 34.7-7.93 10.43-2.57 30.63-5.99 4.13-.7 7.78-.79c6.5-.15 13-1.28 18.94-1.14 5.43.13 9.52-.21 14.87.45 5.58.68 12.45.59 18.71 1.65q18.35 3.11 26.59 5.13c19.53 4.81 35.01 8.61 53.77 11.05 11.02 1.44 24.27 1.04 33.98.88q6.98-.11 16.78-1.62c2.83-.43 6.56-.3 9.6-.93q5.41-1.12 9.68-1.59c3.25-.36 6.09-1.36 9.8-1.95q4.86-.77 13.65-2.79c19.45-4.47 29.74-6.86 45.73-9.76q6.02-1.1 13.58-1.6c4.93-.33 14.88-1.29 22.68-.74q7.23.52 14.38.96 5.62.34 9.2.96c4.12.7 8.74 1.14 12.24 1.82q25.02 4.87 42.08 8.32 29.58 5.99 39.16 6.79 10.49.87 20.94 2.39"/><path fill="#fff" d="M849 506.01v22.61l-847.45.01a.54.53-24.3 01-.35-.13q-.07-.05-.22-.09a.48.48 0 00-.61.43q-.06.73-.37 1.25v-24.08z"/><path fill="#00a6d6" d="M849 528.62V566H.87q-.54.09-.87-.76v-35.15q.31-.52.37-1.25a.48.48 0 01.61-.43q.15.04.22.09a.54.53-24.3 00.35.13z"/><path fill="#fff" d="M.87 566H0v-.76q.33.85.87.76"/></svg>