<svg xmlns="http://www.w3.org/2000/svg" viewBox="0 0 900 600"><g fill="none" stroke-width="2"><path stroke="#00587f" d="M900 300.03H680.42" vector-effect="non-scaling-stroke"/><path stroke="#015a05" d="m680.42 300.03-7.29-50.8a.54.53-4.2 01.53-.61h13.54a.94.94 54.4 00.3-1.82l-3.77-1.3a.57.5 75.1 01-.18-.12q-.7-.69-.89-.78-5.35-2.3-10.05-4.24a1.76 1.71 82.3 01-.7-.55c-10.62-14.06-21.08-28.47-32.47-43.62q-1.22-1.62-.76-2.87a2.64 2.61 18.2 00-1.73-3.39q-2.8-.84-3.93 2.17a1.18 1.17-48.8 00.06.95q.78 1.46.37 2.2-4.61 8.51-21.34 37.21c-1.55 2.66-2.79 5.77-4.71 7.64a1.77 1.73-79.3 01-.5.35l-13.01 6.19a3.22 3.21-48.9 01-2.32.16L506.26 220a1.22 1.21 7 01-.85-1.08l-.62-10.89a.87.87 0 01.92-.92l9.57.55a.64.64 0 00.67-.64v-.3a1 1 0 00-.59-.92l-20.58-9.21a1.6 1.47-2.3 01-.66-.56l-41.19-62.67a2.3 2.3 0 01-.28-1.93c.5-1.69.81-4.13-1.01-5.36q-2.52-1.7-4.77.47-2.77 2.67-.55 5a.7.69 39.8 01.08.86q-21.38 32.89-38.11 57.95c-1.13 1.7-2.77 5.45-4.5 6.21q-5.47 2.4-7.02 3.16-5.21 2.57-6.43 3.04-3.65 1.42-7.06 3.23a.89.89 0 00.47 1.68l9.95-.57a.49.48-90 01.51.52l-.67 11.68a.7.7 0 01-.46.6l-85.87 27.01a2.6 2.6 0 01-1.87-.13l-13.07-6.19a2 2 0 01-.69-.56l-1.78-2.3q-14.24-24.81-23.76-41.44a3.08 3.05-52 01-.28-2.39q.23-.76-.09-3.02a.9.9 0 00-.62-.73q-3.72-1.17-4.82 1.74a1.46 1.41 47.3 00-.02.96q.57 1.7-.15 2.7-4.55 6.36-19.91 27.05-5.22 7.02-12.83 16.93a3.2 3.15-82.3 01-1.24.96l-9.34 3.95a.94.89 12.9 00-.22.13q-1.91 1.39-4.9 2.2a.92.92 0 00.24 1.81h13.64a.51.5 4.3 01.51.58l-1.93 12.1v.11c-.02 4.1-1.29 8.19-1.67 11.88q-.62 5.93-.93 7.99-2 13.32-2.64 18.31a.72.71 76.2 01-.29.49q-.22.16-.46.2" vector-effect="non-scaling-stroke"/><path stroke="#00587f" d="M218.09 300.24 0 300.04" vector-effect="non-scaling-stroke"/><path stroke="#015a05" d="M428.4 114.31a.5.49-68 00.28.67l20.12 6.91a1.35 1.35 0 001.79-1.28v-14.3a.95.95 0 00-1.46-.81q-3 1.87-7.3 2.9a3.22 2.87-59.5 00-.53.17q-3.68 1.63-9.44 3.98c-1.38.57-2.67.01-3.46 1.76m-179.76 65.27 14.39 7.31a1 1 0 001.43-.83l.6-10.44a1.16 1.15 81.4 00-1.55-1.15q-5.11 1.91-12 3-.5.07-2.89 1.43a.39.38-46.7 00.02.68m387.04 6.59v-10.66a.95.95 0 00-1.24-.91l-9.02 2.85-.04.02q-2.93 1.5-5.18 1.93-.33.07-1.01.71a.57.57 0 00.18.95l15.28 5.82a.76.76 0 001.03-.71" vector-effect="non-scaling-stroke"/><path stroke="#818105" d="M448.6 120.18a.3.3 0 00.41-.3l-.17-11.88a.3.3 0 00-.42-.29l-16.15 6.17a.31.31 0 00.01.58l16.32 5.72" vector-effect="non-scaling-stroke"/><path stroke="#010284" d="m680.42 300.03 2.33 16.77a1.2 1.2 0 001.01 1.02q5.76.89 11.57 4.65.79.51 10.89 7.54a1.15 1.13-86.6 01.36.41l.77 1.51a.33.33 0 01-.29.48l-511.86.01a.54.47-49.1 00-.14.02q-2 .37-3.11.09a.47.47 0 01-.08-.89q.57-.26.49-.91a.9.9 0 01.41-.87l6.62-4.51a1.07.99 2.4 00.13-.11q1.65-1.74 3.84-2.51.17-.06.43-.3l.42-.39a.7.7 0 01.3-.3l6.38-3.08a.91.9 27.1 01.32-.1l3.73-.53a1.5 1.49-89.7 001.26-1.25l1.15-7.36v-.12q-.23-1.86 1.03-6.04.4-1.31-.29-3.02" vector-effect="non-scaling-stroke"/><path stroke="#757106" d="m445.49 136.65-38.69 58.78a.23.23 0 00.2.35l27.34-1.29" vector-effect="non-scaling-stroke"/><path stroke="#818105" d="M434.34 194.49q28.44-.63 57.31 1.25a.26.26 0 00.23-.4l-41.49-63.14a.56.56 0 01.1-.74q1.73-1.5.96-3.29a2.15 2.15 57.7 00-3.38-.77q-2.19 1.91.1 4.02a.68.66-53.1 01.11.85l-2.79 4.38" vector-effect="non-scaling-stroke"/><path stroke="#f4ef02" d="m434.34 194.49 10.74-50.62q.74-3.51.41-7.22" vector-effect="non-scaling-stroke"/><path stroke="#757106" d="m261.63 195.95-31.95 43.03a.26.26 0 00.21.41l23.61.18" vector-effect="non-scaling-stroke"/><path stroke="#818105" d="m253.5 239.57 34.94-.01a.46.45-14.8 00.4-.68l-25.64-44.4a.55.54-22.2 01.34-.8q.93-.23 1.07-1.07t-.88-1.22q-.78-.29-1.73.45a.98.89-46.5 00-.03 1.51q1.33.91-.34 2.6" vector-effect="non-scaling-stroke"/><path stroke="#f4ef02" d="M253.5 239.57q4.27-18 7.98-36.3c.57-2.78 1.42-4.46.15-7.32" vector-effect="non-scaling-stroke"/><path stroke="#757106" d="m634.56 196.49-24.43 42.66a.3.3 0 00.25.44h16.56" vector-effect="non-scaling-stroke"/><path stroke="#818105" d="m626.94 239.59 42.12-.04a.35.35 0 00.28-.56q-11.82-15.91-32.58-43.99-.43-.58.16-1.39.61-.84.42-1.37-.35-1.03-2.26-.78a.74.73-28.9 00-.38 1.29q1.8 1.47-.14 3.74" vector-effect="non-scaling-stroke"/><path stroke="#f4ef02" d="M626.94 239.59q3.89-19.04 8.04-37.9.43-1.94-.42-5.2" vector-effect="non-scaling-stroke"/><path stroke="#757106" d="M433.97 196.61q-10.26-.1-20.1.74c-2.5.21-7.57-.26-9.46.6q-10.06 4.55-14.55 6.64-.77.35-1.35.83a.18.18 24.6 00.12.31l40.09-1.28" vector-effect="non-scaling-stroke"/><path stroke="#818105" d="M428.72 204.45q41.06-.54 81.42 1.33a.35.35 58.2 00.15-.66l-15.96-7.14a2.02 2-30 00-.65-.17q-30.07-2.05-59.71-1.2" vector-effect="non-scaling-stroke"/><path stroke="#f4ef02" d="m428.72 204.45 5.25-7.84" vector-effect="non-scaling-stroke"/><path stroke="#818105" d="m436.69 288.96 70.49.82a.65.65 0 00.66-.69l-4.64-81.04a.52.5 0 00-.48-.47l-7.58-.4" vector-effect="non-scaling-stroke"/><path stroke="#757106" d="M495.14 207.18q-39.53-1.41-78.88-.31-16.06.44-19.98.64a.6.6 0 00-.55.55l-4.66 81.25a.5.49 1.1 00.51.52l45.11-.87" vector-effect="non-scaling-stroke"/><path stroke="#f4ef02" d="m495.14 207.18-18.9 2.5q-1.88.25-7.47.9-15.58 1.8-30.12 7.18a1.8 1.8 0 00-1.2 1.71l-.76 69.49" vector-effect="non-scaling-stroke"/><path stroke="#757106" d="M282.8 259.35a.36.36 0 00.45.4l109.31-30.86a.4.4 0 00.26-.33l.38-6.58a.36.36 0 00-.47-.36l-109.24 34.35a.4.4 0 00-.25.29l-.44 3.09" vector-effect="non-scaling-stroke"/><path stroke="#818105" d="M615.87 256.32a.4.4 0 00-.25-.32l-109.55-34.41a.36.36 0 00-.46.37l.43 6.56a.4.4 0 00.26.32l109.32 30.85a.36.36 0 00.45-.37l-.2-3" vector-effect="non-scaling-stroke"/><path stroke="#757106" d="M392.78 230.89a.26.26 0 00-.33-.26L283.4 261.41a1.08 1.07 84.8 00-.77.93l-4.24 50.53a.39.38-88.7 00.4.42q50.89-2.95 100.59-4.12a1.06 1.05 12.3 00.91-.58l8.41-16.57a6.97 6.83-30.6 00.73-2.72l3.35-58.41" vector-effect="non-scaling-stroke"/><path stroke="#818105" d="m506.2 230.91 3.37 58.39a6.97 6.82 30.6 00.73 2.72l8.42 16.56a1.06 1.05-12.3 00.91.57q49.68 1.15 100.55 4.08a.39.38 88.7 00.4-.42l-4.26-50.51a1.08 1.07-84.9 00-.77-.93l-109.02-30.72a.26.26 0 00-.33.26m-257.41 15.94 51.76.03a.4.4 0 00.16-.76l-9.08-4.07a4.38 4.35-33 00-1.76-.37h-38.35" vector-effect="non-scaling-stroke"/><path stroke="#757106" d="m251.52 241.68-23.94-.03a2.71 2.68 32.8 00-1.18.25l-10.26 4.68-.03.08.17.34a.36.35 75.8 00.31.19l32.2-.34" vector-effect="non-scaling-stroke"/><path stroke="#f4ef02" d="m251.52 241.68-4.58 3.96a.47.47 0 00.03.73q.65.49 1.82.48" vector-effect="non-scaling-stroke"/><path stroke="#818105" d="m621.25 246.82 61.22.28a.37.37 0 00.15-.71l-10.43-4.52a2.16 2.07 55.7 00-.85-.18l-46.55-.04" vector-effect="non-scaling-stroke"/><path stroke="#757106" d="m624.79 241.65-16.49.02a1.8 1.71-56.4 00-.75.17l-9.27 4.46a.34.34 0 00.15.65l22.82-.13" vector-effect="non-scaling-stroke"/><path stroke="#f4ef02" d="m624.79 241.65-3.54 5.17" vector-effect="non-scaling-stroke"/><path stroke="#757106" d="m227.43 249.33-9.61 67.34a.48.47-88 00.5.54l57.84-3.9a.65.65 0 00.61-.59l4.8-57.09a1.5 1.5 0 011.04-1.31l7.12-2.23a1.77 1.77 0 00-.53-3.45h-60.98a.81.8-85.8 00-.79.69" vector-effect="non-scaling-stroke"/><path stroke="#015a05" d="m298.58 248.65-5.46-.03a.96.94 11.9 00-.87.55q-.14.31-.1 1.39a.59.58-2.8 00.63.56q3.16-.2 5.97-1.88a.32.32 0 00-.17-.59m301.42.28q-.07.43 4.12 1.9 1.76.63 2.02-.81.26-1.43-1.61-1.46-4.45-.06-4.53.37" vector-effect="non-scaling-stroke"/><path stroke="#818105" d="m640.67 314.52 40.03 2.8a.47.47 88 00.49-.53l-9.65-67.74a.39.38 84.9 00-.39-.33l-3.85.11" vector-effect="non-scaling-stroke"/><path stroke="#757106" d="m667.3 248.83-58.34-.15a1.61 1.61 0 00-.48 3.14l7.85 2.46a1.6 1.6 6.5 011.13 1.41l4.83 56.66a1.16 1.15 89.1 001.08 1.05l17.3 1.12" vector-effect="non-scaling-stroke"/><path stroke="#f4ef02" d="M667.3 248.83q-13.37.28-27.41 3.21a1.9 1.89-7.1 00-1.51 1.92l2.29 60.56" vector-effect="non-scaling-stroke"/><path stroke="#818105" d="M429.39 308.19q43.62-.34 87.12.77a.33.33 0 00.3-.48l-8.21-16.08a.8.8 0 00-.71-.46q-36.18-1.28-71.96-.95" vector-effect="non-scaling-stroke"/><path stroke="#757106" d="m435.93 290.99-44.74.91a1.11 1.08 12.1 00-.95.6l-8.07 15.9a.45.44 12.8 00.41.64l46.81-.85" vector-effect="non-scaling-stroke"/><path stroke="#f4ef02" d="M435.93 290.99q-2.51 8.95-6.54 17.2" vector-effect="non-scaling-stroke"/><path stroke="#757106" d="M423.96 310.36q-72.41.17-144.7 4.56c-.77.04-1.41.34-2.24.38q-21.58 1.05-52.26 3.4-9.68.74-10.83.99c-6.52 1.42-12.93 6.05-18.4 10.22a.42.42 0 00.25.75l164.47-.02" vector-effect="non-scaling-stroke"/><path stroke="#818105" d="m360.25 330.64 343.27-.02a.25.25 0 00.16-.44q-5.79-4.79-12.01-8.04-4.25-2.23-6.66-2.49-10.42-1.12-53.89-3.88-3.2-.2-4.23-.16c-3.55.12-7.47-.77-10.56-.93q-64.61-3.31-98.83-3.84-36.17-.57-72.75-.72-10.4-.04-20.79.24" vector-effect="non-scaling-stroke"/><path stroke="#f4ef02" d="M360.25 330.64q-1.19.02-1.83-.47a.55.55 0 01.17-.95c12.94-4.32 26.25-8.6 39.6-11.84q9.99-2.43 12.12-3.11c3.98-1.27 6.91-1.35 10.83-2.74l.01-.02q.01-.16-.06-.27a.14.14 0 01.09-.21l2.78-.67" vector-effect="non-scaling-stroke"/><path stroke="#818105" d="m263.14 176.18-11.16 3.15a.32.32 0 00-.05.6l10.83 4.85a.33.33 0 00.47-.28l.45-7.89a.43.42-5.9 00-.54-.43m370.38.06-10.75 4.02a.32.31-45.3 000 .6l11.08 3.9a.33.33 0 00.44-.31l-.2-7.83a.42.42 0 00-.57-.38" vector-effect="non-scaling-stroke"/><path stroke="#757106" d="M420.63 250.43q4.67.01 5.22-.01a1.2 1.2 0 001.12-1.22l-.33-9.55a2.99 2.95 27.2 00-.52-1.56q-1.12-1.66-4.31-5.36-.64-.74-1.1-.74-.49 0-1.13.73-3.22 3.68-4.35 5.33a2.99 2.95-26.8 00-.53 1.56l-.39 9.54a1.2 1.2 0 001.1 1.23q.56.03 5.22.05" vector-effect="non-scaling-stroke"/><path stroke="#818105" d="M478.28 250.43q4.66.03 5.22.01a1.2 1.2 0 001.12-1.22l-.31-9.55a2.99 2.95 27.3 00-.51-1.56q-1.12-1.66-4.3-5.37-.63-.74-1.1-.74-.49-.01-1.13.73-3.22 3.67-4.36 5.32a2.99 2.95-26.6 00-.53 1.55l-.42 9.55a1.2 1.2 0 001.1 1.23q.56.03 5.22.05" vector-effect="non-scaling-stroke"/><path stroke="#757106" d="M372.66 246.72a.43.43 0 00.55.42l7.79-2.2a.4.4 0 00.31-.42v-8.38a.43.43 0 00-.55-.42l-7.79 2.2a.4.4 0 00-.31.42v8.38m-14.25 3.35a.17.16 83.3 00.12-.16l.14-7.64a.34.34 0 00-.43-.33l-5.99 1.7a.49.47-8.1 00-.36.46l-.13 7.23a.46.46 0 00.59.45l6.06-1.71m-23.12 1.26q-.09 1.84-.11 3.62a.53.53 0 00.66.52l3.91-.98a.99.98 83.6 00.75-.95q.01-.5.1-2.42 0-1.84.03-3.62a.53.53 0 00-.67-.52l-3.91.97a.99.98 83.6 00-.75.95l-.01 2.43m-8.95 3.1q.02-1.61-.02-3.17a.47.47-8.8 00-.6-.43l-3.39.97a.87.86 81.5 00-.63.85q.01.45-.01 2.13.06 1.61.09 3.17a.47.47-8.8 00.6.44l3.39-.98a.87.86 81.5 00.63-.85l-.06-2.13m-15.62 3.11q-.08 2.73-.06 2.83a.73.72 79.1 00.9.62l2.07-.53a1.02 1.01 83.9 00.75-.94l.07-2.02-.08-2.83a.73.72 79.1 00-.9-.62l-2.07.53a1.02 1.01 83.9 00-.75.94q-.01.08.07 2.02m-6.29 2.39q-.04-2.37-.06-2.46a.63.63 0 00-.81-.5l-1.77.55a.9.9 0 00-.61.84q-.01.07.02 1.76.17 2.36.19 2.45a.63.63 0 00.8.5l1.78-.55a.9.9 0 00.61-.84q.01-.07-.15-1.75m-11.33 2.06-.06 2.07a.53.53 0 00.51.62q1.33.04 1.86-.44a1.3 1.3 0 00.41-.94l.01-1.33.07-2.07a.53.53 0 00-.51-.62q-1.33-.04-1.86.44a1.3 1.3 0 00-.41.94q0 .67-.02 1.33m-4.65.13a.7.7 0 00-.7-.72h-.85a.7.7 0 00-.71.7l-.02 3.54a.7.7 0 00.7.72h.85a.7.7 0 00.71-.7l.02-3.54" vector-effect="non-scaling-stroke"/><path stroke="#818105" d="M514.7 244.27a.55.55 0 00.42.53l7.75 1.95a.55.55 0 00.68-.54v-8.03a.55.55 0 00-.42-.53l-7.75-1.95a.55.55 0 00-.68.54v8.03m22.94 5.55 6.09 1.76a.47.47 7.9 00.59-.45l-.08-7.28a.5.48 8.5 00-.36-.46l-6.01-1.76a.34.34 0 00-.44.33l.09 7.7a.17.16-82.9 00.12.16m17.76.97.01 2.41a.99.98-83.5 00.75.95l3.89.97a.53.53 0 00.66-.52q-.02-1.77-.02-3.6-.09-1.91-.1-2.41a.99.98-83.5 00-.75-.95l-3.89-.97a.53.53 0 00-.66.52q.02 1.77.11 3.6m14.28 3.45-.02 2.14a.9.9 0 00.65.85l3.43.91a.47.47 0 00.59-.45l.03-3.19q-.05-1.69-.05-2.14a.9.9 0 00-.65-.85l-3.44-.91a.47.47 0 00-.59.45q0 1.57.05 3.19m15.8 2.94q.09-1.94.08-2.02a1.02 1.01-83.9 00-.75-.94l-2.07-.52a.73.72-79.1 00-.9.61l-.08 2.82.07 2.02a1.02 1.01-83.9 00.75.94l2.06.53a.73.72-79.1 00.9-.62q.02-.11-.06-2.82m9.44 2.49q.1-1.71.09-1.78a.9.9 0 00-.65-.83l-1.81-.49a.64.64 0 00-.8.53l-.1 2.48.03 1.78a.9.9 0 00.64.83l1.82.49a.64.64 0 00.8-.53q.01-.09-.02-2.48m7.92.1a.7.7 0 00-.7-.66l-1.34.04a.7.7 0 00-.65.7l.13 3.9a.7.7 0 00.7.66l1.34-.04a.7.7 0 00.65-.7l-.13-3.9m7.06 2.22a1.06 1.06 0 00-1.09-1.04h-.3a1.06 1.06 0 00-1.04 1.08l.06 3.02a1.06 1.06 0 001.08 1.04h.3a1.06 1.06 0 001.04-1.08l-.06-3.02" vector-effect="non-scaling-stroke"/><path stroke="#757106" d="m246.95 278.1 5.62.3a1.2 1.2 0 001.25-1.12l.07-1.28a8.61 3.84-86.9 00-3.37-8.8l-.32-.02a8.61 3.84-86.9 00-4.3 8.39l-.07 1.28a1.2 1.2 0 001.12 1.25" vector-effect="non-scaling-stroke"/><path stroke="#818105" d="m646.3 278.17 5.57.21a1.27 1.27 0 001.32-1.22l.04-1.12a8.77 3.92-87.8 00-3.58-8.91l-.28-.01a8.77 3.92-87.8 00-4.25 8.61l-.04 1.12a1.27 1.27 0 001.22 1.32" vector-effect="non-scaling-stroke"/><path stroke="#010284" d="M448.61 352.98c-2.28 1.38-4.88 1.28-8.46 1.47q-3.48.19-5.81.08-12.09-.56-22.14-.17-1.25.05-2.79.96a2 2-61.7 01-1.02.31q-1.83.06-3.51.64a1.17 1.16-57.8 00.51 2.26q3.93-.47 8.9.46 3.24.6 3.73 1.36.18.29 1.73.33a2.68 2.57 55.7 01.95.2q3.36 1.33 5.65 2.3c2.27.96 5.05.79 6.95 2.03a1.51 1.42-22.3 00.55.21l9.44 1.29a.61.38 31.7 00.15 0l5.47-.51a1.7 1.7 0 001.51-1.52l.84-10.05a1.75 1.75 0 00-2.65-1.65" vector-effect="non-scaling-stroke"/><path stroke="#010284" d="M484.74 528.4q-.52-.46-2.56-.71a.71.69-16.7 01-.46-.24l-.31-.35a1.76 1.71 76.8 00-.83-.53c-3.13-.95-4.31-2.39-6.61-3.96a3.99 3.63 83.3 01-.61-.53q-6.22-6.57-8.36-16.09-2.22-9.85-1.27-19.29 1.94-19.43 11.87-36.93c13.25-23.35 34-41.01 58.49-52.17q3.42-1.56 4.64-2.33c2.65-1.65 10.09-1.29 14.25-1.21a1.26 1.25-89.3 001.28-1.26v-4.12a1.3 1.3 0 00-1.27-1.3l-91.37-1.97a.47.47 0 01-.46-.48l.61-28.17a2.7 2.7 0 00-2.31-2.72l-2.07-.3a1.62 1.62 0 00-1.84 1.57l-.63 29.39a1 1 0 01-1.01.96l-75-1.61a2.5 2.5 0 00-2.47 1.88l-.75 3a1.1 1.1 0 001.08 1.38h4.04a.42.42 0 01.39.59q-.57 1.28-1.52 1.83a1.45 1.37 1.5 00-.39.35q-3.41 4.53-5.94 8.1a56 56 0 00-6.6 12.02q-1.23 3.16-1.92 4.31a1.68 1.52-23.7 00-.13.29q-10.14 29.72 5.44 56.96 5.61 9.82 13.85 17.78 13.74 13.27 30.81 21.15 10.55 4.87 21.45 8.24 1.95.61 3.58.85 1.7.25 3.61 1.28a.41.16 41.7 00.11.04l7.28 1.11a1.2 1.2 0 011.01 1.17v7.1a.95.95 0 01-.96.95q-37.75-.43-63.15-.82-6.98-.11-11.17-3.47-4.21-3.36-5.27-7.76-2.62-10.83.87-21.85a1.6 1.6 0 00-.35-1.58l-14.6-15.98a.9.9 0 00-1.27-.07q-1.13.98-17.3 15.23-.47.41-.93.38a.37.37 0 00-.36.54q.3.61-.41 1.13a.5.5 0 00-.08.75l4.8 5.45a1.41 1.4-37.7 001.83.23c3.31-2.23 8.02-5.38 11.92-5.92a2.2 2.2-4 012.51 2.18q0 1.91-1.27 4.15c-.42.74-.09 1.32-.56 2.05q-5.3 8.29-10.87 14.89-6.35 7.52-8.65 13.29-4.93 12.33 2.68 23.51 2 2.94 5.52 4.98 3.61 2.08 3.95 2.36a3.25 3.13 67.4 001.01.44l6.91 1.58a.36.18 36.9 00.11.02c39.02.45 75.3.42 118.08 1.05q23.69.36 55.67.35 8.33 0 15.31-2.32 3.02-1 5.79-3.14 3.34-2.59 5.21-5.87c1.14-2.01 1.61-4.29 2.48-6.09a3.84 3.81-32.5 00.37-1.64v-13.65a2.16 1.97 37.7 00-.12-.69q-1.29-3.73-1.89-8.4a5.47 5.42-58.7 00-.22-.92q-3.09-9.04-4.12-15.74-.57-3.71 1.39-6.71a2.98 2.9-87.2 011.03-.96q3.52-1.94 4.01-2.11 5.53-1.93 13.63-1.95a2.56 2.55-89.4 002.54-2.5l.02-1.24a2.4 2.4 0 00-2.25-2.44q-13.37-.74-22.52.1a6.66 6.16 30.9 00-1.47.31c-2.8.93-4.91 1.44-6.96 2.76q-7.87 5.05-4.48 15.2 2.86 8.57 3.05 11.7c.46 7.34-5.5 9.52-11.81 9.46q-36.11-.34-69.89-.31a.73.73 0 01-.7-.93q.53-1.93.05-4.25a1.66 1.55 87.2 011.7-2q.18.03.64.21a2.83 2.68-31.8 001.01.21q6.61.15 10.98 1 3.98.76 5.49.68.52-.03 5.61.01a.53.53 0 00.36-.92" vector-effect="non-scaling-stroke"/><path stroke="#78797b" d="M410.59 356.96c1.41.44 3.25.26 4.78.75q6.1 1.96 13.81 4.63 9.59 3.33 19.4 2.31a.55.55 0 00.49-.51l.52-9.06a.37.36-5.4 00-.46-.37q-8.27 2.15-15.89 1.66-14.85-.95-20.61-.44a.71.68-68.1 00-.42.19l-.08.1a.9.9 0 01-1.01.28q-.3-.11-.5-.07a.27.27 0 00-.03.53" vector-effect="non-scaling-stroke"/><path stroke="#010284" d="M406.09 357.76q.57.11 1.99-.15a.21.21 0 00.05-.4q-.27-.13-2.03.17a.2.19-44 00-.01.38" vector-effect="non-scaling-stroke"/><path stroke="#78797b" d="M460.17 356.3a.6.6 0 00-.61-.63l-1.92-.04a.6.6 0 00-.63.61l-.56 28.74a.6.6 0 00.61.63l1.92.04a.6.6 0 00.63-.61l.56-28.74m-82.38 32.41 174.7 3.76a.33.33 0 00.34-.36l-.26-3.1a.34.33-1.9 00-.33-.3l-172.87-3.02a1.8 1.8 0 00-1.34.55q-.37.4-.56 2.1a.33.33 0 00.32.37m159.78 5.12-153.18-3.29a.99.98 22.1 00-.74.31c-22.47 23.74-28.84 55.08-11.67 84.23 16.24 27.58 48.64 42.84 78.84 48.81q13.81 2.74 27.43 3.71a.15.15 0 00.08-.28q-7.49-3.97-11.38-11.81c-10.57-21.33-2.71-49.68 8.86-68.97 14.25-23.74 36.39-41.22 61.87-52.16a.29.29 0 00-.11-.55" vector-effect="non-scaling-stroke"/><path stroke="#78797b" d="m356.05 484.69-17.22 15.17a.8.8 0 00-.07 1.15l3.43 3.9a.85.84 51.8 001.11.14c2.15-1.5 13.98-9.31 15.77-4.02 2.28 6.75-9.6 19.9-16.02 28.02-4.79 6.07-7.7 12.89-6.63 20.83 1.63 12.15 11.9 18.68 23.62 18.8q122.57 1.27 172.87 1.4 4.1.01 9.01-1.16c24.56-5.83 15.79-33.3 11.13-49.84-2.41-8.54-2.06-15.06 7.78-17.52q5.92-1.48 12.98-1.94a.86.85 88.9 00.8-.84l.02-1.15a.9.9 0 00-.84-.93q-13.37-1.14-20.86-.03-5.95.89-8.68 2.4-7.51 4.13-5.05 12.77c1.07 3.78 4.37 10.92 3.21 16.66-1.71 8.47-12.29 7.79-19 7.75q-47.16-.32-131.56-1.07-7.51-.07-10.47-1c-13.37-4.21-14.1-19.23-11.54-30.67q.7-3.12.72-3.32a.94.91-63.7 00-.23-.71l-13.39-14.74a.64.64 0 00-.89-.05" vector-effect="non-scaling-stroke"/><path stroke="#78797b" d="M457.52 526.7a.3.3 0 00-.31-.32l-3.38-.1a.3.3 0 00-.33.32l-.2 7.11a.3.3 0 00.31.33l3.38.1a.3.3 0 00.33-.32l.2-7.11m-36.18-127.83a1.17 1.17 0 00-1.33 1.06l-1.71 20.22a1.17 1.17 0 001 1.26l3.33.47a1.2 1.2 0 001.3-.87l4.94-19.76a1.17 1.17 0 00-.97-1.44l-6.56-.94m-20.24 4.05a1.2 1.2 0 00-.69 1.57l7.17 18.19a1.2 1.2 0 001.57.69l3.11-1.23a1.2 1.2 0 00.74-1.36l-3.9-19.48a1.2 1.2 0 00-1.63-.89l-6.37 2.51m39.13 4.03a1.2 1.2 0 00-1.83.31l-9.72 16.83a1.2 1.2 0 00.25 1.5l2.54 2.23a1.2 1.2 0 001.69-.11l12.58-14.33a1.2 1.2 0 00-.11-1.69l-5.4-4.74m-36.86 21.29a1.04 1.04 0 00-.01-1.31l-11.9-14.49a1.04 1.04 0 00-1.61.01l-4.92 6.12a1.04 1.04 0 00.16 1.46l14.31 11.5a1.04 1.04 0 001.46-.16l2.51-3.13m33.25 10.45a.95.95 0 001.19.63l16.99-5.35a.95.95 0 00.62-1.19l-2.48-7.91a.95.95 0 00-1.39-.54l-15.8 9.13a.95.95 0 00-.43 1.11l1.3 4.12" vector-effect="non-scaling-stroke"/><path stroke="#78797b" d="M418.6 425.2a19.71 16.88-85.5 00-18.37 18.32 19.71 16.88-85.5 0015.28 20.97 19.71 16.88-85.5 0018.38-18.33 19.71 16.88-85.5 00-15.28-20.97" vector-effect="non-scaling-stroke"/><path stroke="#78797b" d="M397.96 438.88a1.1 1.1 0 00-.75-1.34l-16.38-5.14a1.1 1.1 0 00-1.42.79l-1.96 7.85a1.12 1.12 0 00.99 1.39l17.3 1.46a1.1 1.1 0 001.18-.84l1.04-4.17m38.1 11.85a1.13 1.13 0 00.76 1.35l16.35 5.13a1.13 1.13 0 001.43-.8l1.96-7.82a1.13 1.13 0 00-1-1.4l-17.27-1.45a1.1 1.1 0 00-1.19.85l-1.04 4.14m-38.54.45a1.16 1.16 0 00-1.46-.76l-16.66 5.23a1.16 1.16 0 00-.76 1.46l2.36 7.51a1.16 1.16 0 001.68.66l15.5-8.95a1.16 1.16 0 00.53-1.36l-1.19-3.79m33.29 10.14a1.2 1.2 0 00.01 1.47l11.75 14.32a1.17 1.17 0 001.81-.01l4.75-5.92a1.17 1.17 0 00-.18-1.64l-14.13-11.35a1.17 1.17 0 00-1.64.18l-2.37 2.95m-36.57 21.46a.9.9 0 001.36-.22l9.94-17.22a.9.9 0 00-.18-1.11l-2.95-2.59a.9.9 0 00-1.26.08l-12.86 14.65a.9.9 0 00.08 1.26l5.87 5.15m38.9 3.76a1.05 1.05 0 00.6-1.37l-7.21-18.29a1.05 1.05 0 00-1.37-.59l-3.4 1.34a1.05 1.05 0 00-.65 1.18l3.91 19.6a1.05 1.05 0 001.42.77l6.7-2.64m-20.46 4.22a1.3 1.3 0 001.46-1.17l1.68-19.97a1.3 1.3 0 00-1.1-1.38l-3.16-.45a1.3 1.3 0 00-1.43.96l-4.89 19.5a1.3 1.3 0 001.07 1.59l6.37.92m9.12-70.49a.9.9 0 00.96-.69l4.34-17.35a.9.9 0 00-.75-1.12l-3.93-.56a.9.9 0 00-1.03.82l-1.5 17.82a.9.9 0 00.83.99l1.08.09m-19.14-16.36a.8.8 0 00-.45 1.05l6.37 16.21a.8.8 0 001.05.45l1.22-.47a.8.8 0 00.5-.92l-3.47-17.35a.8.8 0 00-1.09-.59l-4.13 1.62m37.52 4.98a.73.73 0 00-1.12.18l-8.67 15.03a.7.7 0 00.15.91l1.13 1a.73.73 0 001.03-.07l11.23-12.78a.73.73 0 00-.07-1.03l-3.68-3.24m-38.6 19.18a.7.7 0 00-.01-.92l-10.36-12.62a.73.73 0 00-1.13.01l-3.24 4.04a.73.73 0 00.11 1.03l12.46 10a.73.73 0 001.03-.11l1.14-1.43m50.4-1.29a.68.68 0 00-.99-.38l-13.26 7.69a1.04 1.03 76.8 00-.52.85q-.04 1 .58 2.22a.66.66 0 00.79.34l14.49-4.58a.8.8 0 00.53-1.01l-1.62-5.13" vector-effect="non-scaling-stroke"/><path stroke="#78797b" d="M418.54 426.67a18.22 15.36-85.3 00-16.8 16.9A18.22 15.36-85.3 00415.56 463a18.22 15.36-85.3 0016.8-16.9 18.22 15.36-85.3 00-13.82-19.42" vector-effect="non-scaling-stroke"/><path stroke="#78797b" d="M396.19 439.5a.67.67 0 00-.45-.8l-14.26-4.48a.67.67 0 00-.85.48l-1.36 5.45a.67.67 0 00.59.83l15.06 1.26a.7.7 0 00.71-.5l.56-2.24m41.54 10.87a.4.4 0 00.25.46l14.8 4.65a.4.4 0 00.48-.27l1.52-6.1a.4.4 0 00-.34-.47l-15.62-1.31a.4.4 0 00-.4.28l-.69 2.76m-55.67 12.57a.68.68 0 00.99.38l13.35-7.71a1.05 1.03 76.8 00.52-.85q.04-1.01-.58-2.24a.66.66 0 00-.79-.34l-14.58 4.59a.8.8 0 00-.53 1.01l1.62 5.16m50.36-1.24a.5.5 0 000 .67l10.64 12.96a.53.53 0 00.82-.01l3.53-4.4a.53.53 0 00-.08-.74l-12.8-10.28a.53.53 0 00-.74.09l-1.37 1.71m-38.33 19.05a.6.6 0 00.9-.15l8.79-15.21a.6.6 0 00-.12-.74l-1.31-1.14a.6.6 0 00-.83.05l-11.36 12.95a.6.6 0 00.05.83l3.88 3.41m32.75 6.46 4.93-1.45a.13.13 0 00.09-.16l-.09-.32a18.44 2.2 73.6 00-7.32-17.07l-.96.29a18.44 2.2 73.6 003.1 18.31l.09.31a.13.13 0 00.16.09m-14.96 1.89a.7.7 0 00.82-.65l1.51-17.99a.7.7 0 00-.61-.78l-1.4-.2a.7.7 0 00-.8.54l-4.4 17.59a.72.72 0 00.6.88l4.28.61" vector-effect="non-scaling-stroke"/></g><path fill="#00b000" d="M900 0v300.03H680.42l-7.29-50.8a.54.53-4.2 01.53-.61h13.54a.94.94 54.4 00.3-1.82l-3.77-1.3a.57.5 75.1 01-.18-.12q-.7-.69-.89-.78-5.35-2.3-10.05-4.24a1.76 1.71 82.3 01-.7-.55c-10.62-14.06-21.08-28.47-32.47-43.62q-1.22-1.62-.76-2.87a2.64 2.61 18.2 00-1.73-3.39q-2.8-.84-3.93 2.17a1.18 1.17-48.8 00.06.95q.78 1.46.37 2.2-4.61 8.51-21.34 37.21c-1.55 2.66-2.79 5.77-4.71 7.64a1.77 1.73-79.3 01-.5.35l-13.01 6.19a3.22 3.21-48.9 01-2.32.16L506.26 220a1.22 1.21 7 01-.85-1.08l-.62-10.89a.87.87 0 01.92-.92l9.57.55a.64.64 0 00.67-.64v-.3a1 1 0 00-.59-.92l-20.58-9.21a1.6 1.47-2.3 01-.66-.56l-41.19-62.67a2.3 2.3 0 01-.28-1.93c.5-1.69.81-4.13-1.01-5.36q-2.52-1.7-4.77.47-2.77 2.67-.55 5a.7.69 39.8 01.08.86q-21.38 32.89-38.11 57.95c-1.13 1.7-2.77 5.45-4.5 6.21q-5.47 2.4-7.02 3.16-5.21 2.57-6.43 3.04-3.65 1.42-7.06 3.23a.89.89 0 00.47 1.68l9.95-.57a.49.48-90 01.51.52l-.67 11.68a.7.7 0 01-.46.6l-85.87 27.01a2.6 2.6 0 01-1.87-.13l-13.07-6.19a2 2 0 01-.69-.56l-1.78-2.3q-14.24-24.81-23.76-41.44a3.08 3.05-52 01-.28-2.39q.23-.76-.09-3.02a.9.9 0 00-.62-.73q-3.72-1.17-4.82 1.74a1.46 1.41 47.3 00-.02.96q.57 1.7-.15 2.7-4.55 6.36-19.91 27.05-5.22 7.02-12.83 16.93a3.2 3.15-82.3 01-1.24.96l-9.34 3.95a.94.89 12.9 00-.22.13q-1.91 1.39-4.9 2.2a.92.92 0 00.24 1.81h13.64a.51.5 4.3 01.51.58l-1.93 12.1v.11c-.02 4.1-1.29 8.19-1.67 11.88q-.62 5.93-.93 7.99-2 13.32-2.64 18.31a.72.71 76.2 01-.29.49q-.22.16-.46.2L0 300.04V0zM428.4 114.31a.5.49-68 00.28.67l20.12 6.91a1.35 1.35 0 001.79-1.28v-14.3a.95.95 0 00-1.46-.81q-3 1.87-7.3 2.9a3.22 2.87-59.5 00-.53.17q-3.68 1.63-9.44 3.98c-1.38.57-2.67.01-3.46 1.76m-179.76 65.27 14.39 7.31a1 1 0 001.43-.83l.6-10.44a1.16 1.15 81.4 00-1.55-1.15q-5.11 1.91-12 3-.5.07-2.89 1.43a.39.38-46.7 00.02.68m387.04 6.59v-10.66a.95.95 0 00-1.24-.91l-9.02 2.85-.04.02q-2.93 1.5-5.18 1.93-.33.07-1.01.71a.57.57 0 00.18.95l15.28 5.82a.76.76 0 001.03-.71"/><path fill="#020309" d="M428.4 114.31c.79-1.75 2.08-1.19 3.46-1.76q5.76-2.35 9.44-3.98a3.22 2.87-59.5 01.53-.17q4.3-1.03 7.3-2.9a.95.95 0 011.46.81v14.3a1.35 1.35 0 01-1.79 1.28l-20.12-6.91a.5.49-68 01-.28-.67m20.2 5.87a.3.3 0 00.41-.3l-.17-11.88a.3.3 0 00-.42-.29l-16.15 6.17a.31.31 0 00.01.58z"/><path fill="#ffff01" d="m448.6 120.18-16.32-5.72a.31.31 0 01-.01-.58l16.15-6.17a.3.3 0 01.42.29l.17 11.88a.3.3 0 01-.41.3"/><path fill="#020309" d="m680.42 300.03 2.33 16.77a1.2 1.2 0 001.01 1.02q5.76.89 11.57 4.65.79.51 10.89 7.54a1.15 1.13-86.6 01.36.41l.77 1.51a.33.33 0 01-.29.48l-511.86.01a.54.47-49.1 00-.14.02q-2 .37-3.11.09a.47.47 0 01-.08-.89q.57-.26.49-.91a.9.9 0 01.41-.87l6.62-4.51a1.07.99 2.4 00.13-.11q1.65-1.74 3.84-2.51.17-.06.43-.3l.42-.39a.7.7 0 01.3-.3l6.38-3.08a.91.9 27.1 01.32-.1l3.73-.53a1.5 1.49-89.7 001.26-1.25l1.15-7.36v-.12q-.23-1.86 1.03-6.04.4-1.31-.29-3.02.24-.04.46-.2a.72.71 76.2 00.29-.49q.64-4.99 2.64-18.31.31-2.06.93-7.99c.38-3.69 1.65-7.78 1.67-11.88v-.11l1.93-12.1a.51.5 4.3 00-.51-.58h-13.64a.92.92 0 01-.24-1.81q2.99-.81 4.9-2.2a.94.89 12.9 01.22-.13l9.34-3.95a3.2 3.15-82.3 001.24-.96q7.61-9.91 12.83-16.93 15.36-20.69 19.91-27.05.72-1 .15-2.7a1.46 1.41 47.3 01.02-.96q1.1-2.91 4.82-1.74a.9.9 0 01.62.73q.32 2.26.09 3.02a3.08 3.05-52 00.28 2.39q9.52 16.63 23.76 41.44l1.78 2.3a2 2 0 00.69.56l13.07 6.19a2.6 2.6 0 001.87.13l85.87-27.01a.7.7 0 00.46-.6l.67-11.68a.49.48-90 00-.51-.52l-9.95.57a.89.89 0 01-.47-1.68q3.41-1.81 7.06-3.23 1.22-.47 6.43-3.04 1.55-.76 7.02-3.16c1.73-.76 3.37-4.51 4.5-6.21q16.73-25.06 38.11-57.95a.7.69 39.8 00-.08-.86q-2.22-2.33.55-5 2.25-2.17 4.77-.47c1.82 1.23 1.51 3.67 1.01 5.36a2.3 2.3 0 00.28 1.93l41.19 62.67a1.6 1.47-2.3 00.66.56l20.58 9.21a1 1 0 01.59.92v.3a.64.64 0 01-.67.64l-9.57-.55a.87.87 0 00-.92.92l.62 10.89a1.22 1.21 7 00.85 1.08l85.31 26.8a3.22 3.21-48.9 002.32-.16l13.01-6.19a1.77 1.73-79.3 00.5-.35c1.92-1.87 3.16-4.98 4.71-7.64q16.73-28.7 21.34-37.21.41-.74-.37-2.2a1.18 1.17-48.8 01-.06-.95q1.13-3.01 3.93-2.17a2.64 2.61 18.2 011.73 3.39q-.46 1.25.76 2.87c11.39 15.15 21.85 29.56 32.47 43.62a1.76 1.71 82.3 00.7.55q4.7 1.94 10.05 4.24.19.09.89.78a.57.5 75.1 00.18.12l3.77 1.3a.94.94 54.4 01-.3 1.82h-13.54a.54.53-4.2 00-.53.61zM445.49 136.65l-38.69 58.78a.23.23 0 00.2.35l27.34-1.29q28.44-.63 57.31 1.25a.26.26 0 00.23-.4l-41.49-63.14a.56.56 0 01.1-.74q1.73-1.5.96-3.29a2.15 2.15 57.7 00-3.38-.77q-2.19 1.91.1 4.02a.68.66-53.1 01.11.85zm-183.86 59.3-31.95 43.03a.26.26 0 00.21.41l23.61.18 34.94-.01a.46.45-14.8 00.4-.68l-25.64-44.4a.55.54-22.2 01.34-.8q.93-.23 1.07-1.07t-.88-1.22q-.78-.29-1.73.45a.98.89-46.5 00-.03 1.51q1.33.91-.34 2.6m372.93.54-24.43 42.66a.3.3 0 00.25.44h16.56l42.12-.04a.35.35 0 00.28-.56q-11.82-15.91-32.58-43.99-.43-.58.16-1.39.61-.84.42-1.37-.35-1.03-2.26-.78a.74.73-28.9 00-.38 1.29q1.8 1.47-.14 3.74m-200.59.12q-10.26-.1-20.1.74c-2.5.21-7.57-.26-9.46.6q-10.06 4.55-14.55 6.64-.77.35-1.35.83a.18.18 24.6 00.12.31l40.09-1.28q41.06-.54 81.42 1.33a.35.35 58.2 00.15-.66l-15.96-7.14a2.02 2-30 00-.65-.17q-30.07-2.05-59.71-1.2m2.72 92.35 70.49.82a.65.65 0 00.66-.69l-4.64-81.04a.52.5 0 00-.48-.47l-7.58-.4q-39.53-1.41-78.88-.31-16.06.44-19.98.64a.6.6 0 00-.55.55l-4.66 81.25a.5.49 1.1 00.51.52zM282.8 259.35a.36.36 0 00.45.4l109.31-30.86a.4.4 0 00.26-.33l.38-6.58a.36.36 0 00-.47-.36l-109.24 34.35a.4.4 0 00-.25.29zm333.07-3.03a.4.4 0 00-.25-.32l-109.55-34.41a.36.36 0 00-.46.37l.43 6.56a.4.4 0 00.26.32l109.32 30.85a.36.36 0 00.45-.37zm-223.09-25.43a.26.26 0 00-.33-.26L283.4 261.41a1.08 1.07 84.8 00-.77.93l-4.24 50.53a.39.38-88.7 00.4.42q50.89-2.95 100.59-4.12a1.06 1.05 12.3 00.91-.58l8.41-16.57a6.97 6.83-30.6 00.73-2.72zm113.42.02 3.37 58.39a6.97 6.82 30.6 00.73 2.72l8.42 16.56a1.06 1.05-12.3 00.91.57q49.68 1.15 100.55 4.08a.39.38 88.7 00.4-.42l-4.26-50.51a1.08 1.07-84.9 00-.77-.93l-109.02-30.72a.26.26 0 00-.33.26m-257.41 15.94 51.76.03a.4.4 0 00.16-.76l-9.08-4.07a4.38 4.35-33 00-1.76-.37h-38.35l-23.94-.03a2.71 2.68 32.8 00-1.18.25l-10.26 4.68-.03.08.17.34a.36.35 75.8 00.31.19zm372.46-.03 61.22.28a.37.37 0 00.15-.71l-10.43-4.52a2.16 2.07 55.7 00-.85-.18l-46.55-.04-16.49.02a1.8 1.71-56.4 00-.75.17l-9.27 4.46a.34.34 0 00.15.65zm-393.82 2.51-9.61 67.34a.48.47-88 00.5.54l57.84-3.9a.65.65 0 00.61-.59l4.8-57.09a1.5 1.5 0 011.04-1.31l7.12-2.23a1.77 1.77 0 00-.53-3.45h-60.98a.81.8-85.8 00-.79.69m71.15-.68-5.46-.03a.96.94 11.9 00-.87.55q-.14.31-.1 1.39a.59.58-2.8 00.63.56q3.16-.2 5.97-1.88a.32.32 0 00-.17-.59m301.42.28q-.07.43 4.12 1.9 1.76.63 2.02-.81.26-1.43-1.61-1.46-4.45-.06-4.53.37m40.67 65.59 40.03 2.8a.47.47 88 00.49-.53l-9.65-67.74a.39.38 84.9 00-.39-.33l-3.85.11-58.34-.15a1.61 1.61 0 00-.48 3.14l7.85 2.46a1.6 1.6 6.5 011.13 1.41l4.83 56.66a1.16 1.15 89.1 001.08 1.05zm-211.28-6.33q43.62-.34 87.12.77a.33.33 0 00.3-.48l-8.21-16.08a.8.8 0 00-.71-.46q-36.18-1.28-71.96-.95l-44.74.91a1.11 1.08 12.1 00-.95.6l-8.07 15.9a.45.44 12.8 00.41.64zm-5.43 2.17q-72.41.17-144.7 4.56c-.77.04-1.41.34-2.24.38q-21.58 1.05-52.26 3.4-9.68.74-10.83.99c-6.52 1.42-12.93 6.05-18.4 10.22a.42.42 0 00.25.75l164.47-.02 343.27-.02a.25.25 0 00.16-.44q-5.79-4.79-12.01-8.04-4.25-2.23-6.66-2.49-10.42-1.12-53.89-3.88-3.2-.2-4.23-.16c-3.55.12-7.47-.77-10.56-.93q-64.61-3.31-98.83-3.84-36.17-.57-72.75-.72-10.4-.04-20.79.24"/><path fill="#ffff01" d="m434.34 194.49 10.74-50.62q.74-3.51.41-7.22l2.79-4.38a.68.66-53.1 00-.11-.85q-2.29-2.11-.1-4.02a2.15 2.15 57.7 013.38.77q.77 1.79-.96 3.29a.56.56 0 00-.1.74l41.49 63.14a.26.26 0 01-.23.4q-28.87-1.88-57.31-1.25"/><path fill="#e8de02" d="M434.34 194.49 407 195.78a.23.23 0 01-.2-.35l38.69-58.78q.33 3.71-.41 7.22z"/><path fill="#020309" d="M248.62 178.9q2.39-1.36 2.89-1.43 6.89-1.09 12-3a1.16 1.15 81.4 011.55 1.15l-.6 10.44a1 1 0 01-1.43.83l-14.39-7.31a.39.38-46.7 01-.02-.68m14.52-2.72-11.16 3.15a.32.32 0 00-.05.6l10.83 4.85a.33.33 0 00.47-.28l.45-7.89a.43.42-5.9 00-.54-.43m372.54 9.99a.76.76 0 01-1.03.71l-15.28-5.82a.57.57 0 01-.18-.95q.68-.64 1.01-.71 2.25-.43 5.18-1.93l.04-.02 9.02-2.85a.95.95 0 011.24.91zm-2.16-9.93-10.75 4.02a.32.31-45.3 000 .6l11.08 3.9a.33.33 0 00.44-.31l-.2-7.83a.42.42 0 00-.57-.38"/><path fill="#ffff01" d="M633.52 176.24a.42.42 0 01.57.38l.2 7.83a.33.33 0 01-.44.31l-11.08-3.9a.32.31-45.3 010-.6zm-369.84.37-.45 7.89a.33.33 0 01-.47.28l-10.83-4.85a.32.32 0 01.05-.6l11.16-3.15a.43.42-5.9 01.54.43m-10.18 62.96q4.27-18 7.98-36.3c.57-2.78 1.42-4.46.15-7.32q1.67-1.69.34-2.6a.98.89-46.5 01.03-1.51q.95-.74 1.73-.45 1.02.38.88 1.22t-1.07 1.07a.55.54-22.2 00-.34.8l25.64 44.4a.46.45-14.8 01-.4.68zm373.44.02q3.89-19.04 8.04-37.9.43-1.94-.42-5.2 1.94-2.27.14-3.74a.74.73-28.9 01.38-1.29q1.91-.25 2.26.78.19.53-.42 1.37-.59.81-.16 1.39 20.76 28.08 32.58 43.99a.35.35 0 01-.28.56z"/><path fill="#e8de02" d="M261.63 195.95c1.27 2.86.42 4.54-.15 7.32q-3.71 18.3-7.98 36.3l-23.61-.18a.26.26 0 01-.21-.41z"/><path fill="#ffff01" d="m428.72 204.45 5.25-7.84q29.64-.85 59.71 1.2a2.02 2-30 01.65.17l15.96 7.14a.35.35 58.2 01-.15.66q-40.36-1.87-81.42-1.33"/><path fill="#e8de02" d="m433.97 196.61-5.25 7.84-40.09 1.28a.18.18 24.6 01-.12-.31q.58-.48 1.35-.83 4.49-2.09 14.55-6.64c1.89-.86 6.96-.39 9.46-.6q9.84-.84 20.1-.74m200.59-.12q.85 3.26.42 5.2-4.15 18.86-8.04 37.9h-16.56a.3.3 0 01-.25-.44zm-139.42 10.69-18.9 2.5q-1.88.25-7.47.9-15.58 1.8-30.12 7.18a1.8 1.8 0 00-1.2 1.71l-.76 69.49-45.11.87a.5.49 1.1 01-.51-.52l4.66-81.25a.6.6 0 01.55-.55q3.92-.2 19.98-.64 39.35-1.1 78.88.31m-74.51 43.25q4.67.01 5.22-.01a1.2 1.2 0 001.12-1.22l-.33-9.55a2.99 2.95 27.2 00-.52-1.56q-1.12-1.66-4.31-5.36-.64-.74-1.1-.74-.49 0-1.13.73-3.22 3.68-4.35 5.33a2.99 2.95-26.8 00-.53 1.56l-.39 9.54a1.2 1.2 0 001.1 1.23q.56.03 5.22.05"/><path fill="#ffff01" d="m436.69 288.96.76-69.49a1.8 1.8 0 011.2-1.71q14.54-5.38 30.12-7.18 5.59-.65 7.47-.9l18.9-2.5 7.58.4a.52.5 0 01.48.47l4.64 81.04a.65.65 0 01-.66.69zm41.59-38.53q4.66.03 5.22.01a1.2 1.2 0 001.12-1.22l-.31-9.55a2.99 2.95 27.3 00-.51-1.56q-1.12-1.66-4.3-5.37-.63-.74-1.1-.74-.49-.01-1.13.73-3.22 3.67-4.36 5.32a2.99 2.95-26.6 00-.53 1.55l-.42 9.55a1.2 1.2 0 001.1 1.23q.56.03 5.22.05"/><path fill="#e8de02" d="m282.8 259.35.44-3.09a.4.4 0 01.25-.29l109.24-34.35a.36.36 0 01.47.36l-.38 6.58a.4.4 0 01-.26.33l-109.31 30.86a.36.36 0 01-.45-.4"/><path fill="#ffff01" d="m615.87 256.32.2 3a.36.36 0 01-.45.37L506.3 228.84a.4.4 0 01-.26-.32l-.43-6.56a.36.36 0 01.46-.37L615.62 256a.4.4 0 01.25.32"/><path fill="#e8de02" d="m392.78 230.89-3.35 58.41a6.97 6.83-30.6 01-.73 2.72l-8.41 16.57a1.06 1.05 12.3 01-.91.58q-49.7 1.17-100.59 4.12a.39.38-88.7 01-.4-.42l4.24-50.53a1.08 1.07 84.8 01.77-.93l109.05-30.78a.26.26 0 01.33.26m-20.12 15.83a.43.43 0 00.55.42l7.79-2.2a.4.4 0 00.31-.42v-8.38a.43.43 0 00-.55-.42l-7.79 2.2a.4.4 0 00-.31.42zm-14.25 3.35a.17.16 83.3 00.12-.16l.14-7.64a.34.34 0 00-.43-.33l-5.99 1.7a.49.47-8.1 00-.36.46l-.13 7.23a.46.46 0 00.59.45zm-23.12 1.26q-.09 1.84-.11 3.62a.53.53 0 00.66.52l3.91-.98a.99.98 83.6 00.75-.95q.01-.5.1-2.42 0-1.84.03-3.62a.53.53 0 00-.67-.52l-3.91.97a.99.98 83.6 00-.75.95zm-8.95 3.1q.02-1.61-.02-3.17a.47.47-8.8 00-.6-.43l-3.39.97a.87.86 81.5 00-.63.85q.01.45-.01 2.13.06 1.61.09 3.17a.47.47-8.8 00.6.44l3.39-.98a.87.86 81.5 00.63-.85zm-15.62 3.11q-.08 2.73-.06 2.83a.73.72 79.1 00.9.62l2.07-.53a1.02 1.01 83.9 00.75-.94l.07-2.02-.08-2.83a.73.72 79.1 00-.9-.62l-2.07.53a1.02 1.01 83.9 00-.75.94q-.01.08.07 2.02m-6.29 2.39q-.04-2.37-.06-2.46a.63.63 0 00-.81-.5l-1.77.55a.9.9 0 00-.61.84q-.01.07.02 1.76.17 2.36.19 2.45a.63.63 0 00.8.5l1.78-.55a.9.9 0 00.61-.84q.01-.07-.15-1.75m-11.33 2.06-.06 2.07a.53.53 0 00.51.62q1.33.04 1.86-.44a1.3 1.3 0 00.41-.94l.01-1.33.07-2.07a.53.53 0 00-.51-.62q-1.33-.04-1.86.44a1.3 1.3 0 00-.41.94q0 .67-.02 1.33m-4.65.13a.7.7 0 00-.7-.72h-.85a.7.7 0 00-.71.7l-.02 3.54a.7.7 0 00.7.72h.85a.7.7 0 00.71-.7z"/><path fill="#ffff01" d="M506.2 230.91a.26.26 0 01.33-.26l109.02 30.72a1.08 1.07-84.9 01.77.93l4.26 50.51a.39.38 88.7 01-.4.42q-50.87-2.93-100.55-4.08a1.06 1.05-12.3 01-.91-.57l-8.42-16.56a6.97 6.82 30.6 01-.73-2.72zm8.5 13.36a.55.55 0 00.42.53l7.75 1.95a.55.55 0 00.68-.54v-8.03a.55.55 0 00-.42-.53l-7.75-1.95a.55.55 0 00-.68.54zm22.94 5.55 6.09 1.76a.47.47 7.9 00.59-.45l-.08-7.28a.5.48 8.5 00-.36-.46l-6.01-1.76a.34.34 0 00-.44.33l.09 7.7a.17.16-82.9 00.12.16m17.76.97.01 2.41a.99.98-83.5 00.75.95l3.89.97a.53.53 0 00.66-.52q-.02-1.77-.02-3.6-.09-1.91-.1-2.41a.99.98-83.5 00-.75-.95l-3.89-.97a.53.53 0 00-.66.52q.02 1.77.11 3.6m14.28 3.45-.02 2.14a.9.9 0 00.65.85l3.43.91a.47.47 0 00.59-.45l.03-3.19q-.05-1.69-.05-2.14a.9.9 0 00-.65-.85l-3.44-.91a.47.47 0 00-.59.45q0 1.57.05 3.19m15.8 2.94q.09-1.94.08-2.02a1.02 1.01-83.9 00-.75-.94l-2.07-.52a.73.72-79.1 00-.9.61l-.08 2.82.07 2.02a1.02 1.01-83.9 00.75.94l2.06.53a.73.72-79.1 00.9-.62q.02-.11-.06-2.82m9.44 2.49q.1-1.71.09-1.78a.9.9 0 00-.65-.83l-1.81-.49a.64.64 0 00-.8.53l-.1 2.48.03 1.78a.9.9 0 00.64.83l1.82.49a.64.64 0 00.8-.53q.01-.09-.02-2.48m7.92.1a.7.7 0 00-.7-.66l-1.34.04a.7.7 0 00-.65.7l.13 3.9a.7.7 0 00.7.66l1.34-.04a.7.7 0 00.65-.7zm7.05 2.22a1.06 1.06 0 00-1.08-1.04h-.3a1.06 1.06 0 00-1.04 1.08l.06 3.02a1.06 1.06 0 001.08 1.04h.3a1.06 1.06 0 001.04-1.08z"/><path fill="#020309" d="M420.63 250.43q-4.66-.02-5.22-.05a1.2 1.2 0 01-1.1-1.23l.39-9.54a2.99 2.95-26.8 01.53-1.56q1.13-1.65 4.35-5.33.64-.73 1.13-.73.46 0 1.1.74 3.19 3.7 4.31 5.36a2.99 2.95 27.2 01.52 1.56l.33 9.55a1.2 1.2 0 01-1.12 1.22q-.55.02-5.22.01M478.4 232q.47 0 1.1.74 3.18 3.71 4.3 5.37a2.99 2.95 27.3 01.51 1.56l.31 9.55a1.2 1.2 0 01-1.12 1.22q-.56.02-5.22-.01t-5.22-.05a1.2 1.2 0 01-1.1-1.23l.42-9.55a2.99 2.95-26.6 01.53-1.55q1.14-1.65 4.36-5.32.64-.74 1.13-.73m-105.74 14.72v-8.38a.4.4 0 01.31-.42l7.79-2.2a.43.43 0 01.55.42v8.38a.4.4 0 01-.31.42l-7.79 2.2a.43.43 0 01-.55-.42m142.04-2.45v-8.03a.55.55 0 01.68-.54l7.75 1.95a.55.55 0 01.42.53v8.03a.55.55 0 01-.68.54l-7.75-1.95a.55.55 0 01-.42-.53"/><path fill="#e8de02" d="m251.52 241.68-4.58 3.96a.47.47 0 00.03.73q.65.49 1.82.48l-32.2.34a.36.35 75.8 01-.31-.19l-.17-.34.03-.08 10.26-4.68a2.71 2.68 32.8 011.18-.25zm373.27-.03-3.54 5.17-22.82.13a.34.34 0 01-.15-.65l9.27-4.46a1.8 1.71-56.4 01.75-.17z"/><path fill="#ffff01" d="M248.79 246.85q-1.17.01-1.82-.48a.47.47 0 01-.03-.73l4.58-3.96h38.35a4.38 4.35-33 011.76.37l9.08 4.07a.4.4 0 01-.16.76z"/><path fill="#020309" d="M537.64 249.82a.17.16-82.9 01-.12-.16l-.09-7.7a.34.34 0 01.44-.33l6.01 1.76a.5.48 8.5 01.36.46l.08 7.28a.47.47 7.9 01-.59.45z"/><path fill="#ffff01" d="m621.25 246.82 3.54-5.17 46.55.04a2.16 2.07 55.7 01.85.18l10.43 4.52a.37.37 0 01-.15.71z"/><path fill="#020309" d="m351.76 251.33.13-7.23a.49.47-8.1 01.36-.46l5.99-1.7a.34.34 0 01.43.33l-.14 7.64a.17.16 83.3 01-.12.16l-6.06 1.71a.46.46 0 01-.59-.45m208.93-.33q0 1.83.02 3.6a.53.53 0 01-.66.52l-3.89-.97a.99.98-83.5 01-.75-.95l-.01-2.41q-.09-1.83-.11-3.6a.53.53 0 01.66-.52l3.89.97a.99.98-83.5 01.75.95q.01.5.1 2.41m-225.4.33.01-2.43a.99.98 83.6 01.75-.95l3.91-.97a.53.53 0 01.67.52q-.03 1.78-.03 3.62-.09 1.92-.1 2.42a.99.98 83.6 01-.75.95l-3.91.98a.53.53 0 01-.66-.52q.02-1.78.11-3.62"/><path fill="#e8de02" d="M228.22 248.64h60.98a1.77 1.77 0 01.53 3.45l-7.12 2.23a1.5 1.5 0 00-1.04 1.31l-4.8 57.09a.65.65 0 01-.61.59l-57.84 3.9a.48.47-88 01-.5-.54l9.61-67.34a.81.8-85.8 01.79-.69m18.73 29.46 5.62.3a1.2 1.2 0 001.25-1.12l.07-1.28a8.61 3.84-86.9 00-3.37-8.8l-.32-.02a8.61 3.84-86.9 00-4.3 8.39l-.07 1.28a1.2 1.2 0 001.12 1.25"/><path fill="#00b000" d="M298.75 249.24q-2.81 1.68-5.97 1.88a.59.58-2.8 01-.63-.56q-.04-1.08.1-1.39a.96.94 11.9 01.87-.55l5.46.03a.32.32 0 01.17.59m307.39.78q-.26 1.44-2.02.81-4.19-1.47-4.12-1.9t4.53-.37q1.87.03 1.61 1.46"/><path fill="#e8de02" d="M667.3 248.83q-13.37.28-27.41 3.21a1.9 1.89-7.1 00-1.51 1.92l2.29 60.56-17.3-1.12a1.16 1.15 89.1 01-1.08-1.05l-4.83-56.66a1.6 1.6 6.5 00-1.13-1.41l-7.85-2.46a1.61 1.61 0 01.48-3.14z"/><path fill="#ffff01" d="m640.67 314.52-2.29-60.56a1.9 1.89-7.1 011.51-1.92q14.04-2.93 27.41-3.21l3.85-.11a.39.38 84.9 01.39.33l9.65 67.74a.47.47 88 01-.49.53zm5.63-36.35 5.57.21a1.27 1.27 0 001.32-1.22l.04-1.12a8.77 3.92-87.8 00-3.58-8.91l-.28-.01a8.77 3.92-87.8 00-4.25 8.61l-.04 1.12a1.27 1.27 0 001.22 1.32"/><path fill="#020309" d="M569.68 254.24q-.05-1.62-.05-3.19a.47.47 0 01.59-.45l3.44.91a.9.9 0 01.65.85q0 .45.05 2.14l-.03 3.19a.47.47 0 01-.59.45l-3.43-.91a.9.9 0 01-.65-.85zm-243.34.19.06 2.13a.87.86 81.5 01-.63.85l-3.39.98a.47.47-8.8 01-.6-.44q-.03-1.56-.09-3.17.02-1.68.01-2.13a.87.86 81.5 01.63-.85l3.39-.97a.47.47-8.8 01.6.43q.04 1.56.02 3.17m259.14 2.75q.08 2.71.06 2.82a.73.72-79.1 01-.9.62l-2.06-.53a1.02 1.01-83.9 01-.75-.94l-.07-2.02.08-2.82a.73.72-79.1 01.9-.61l2.07.52a1.02 1.01-83.9 01.75.94q.01.08-.08 2.02m-271.03.32-.07 2.02a1.02 1.01 83.9 01-.75.94l-2.07.53a.73.72 79.1 01-.9-.62q-.02-.1.06-2.83-.08-1.94-.07-2.02a1.02 1.01 83.9 01.75-.94l2.07-.53a.73.72 79.1 01.9.62zm280.47 2.17q.03 2.39.02 2.48a.64.64 0 01-.8.53l-1.82-.49a.9.9 0 01-.64-.83l-.03-1.78.1-2.48a.64.64 0 01.8-.53l1.81.49a.9.9 0 01.65.83q.01.07-.09 1.78m-290.49.26q.16 1.68.15 1.75a.9.9 0 01-.61.84l-1.78.55a.63.63 0 01-.8-.5q-.02-.09-.19-2.45-.03-1.69-.02-1.76a.9.9 0 01.61-.84l1.77-.55a.63.63 0 01.81.5q.02.09.06 2.46"/><rect width="2.7" height="5.26" x="-1.35" y="-2.63" fill="#020309" rx=".68" transform="rotate(-1.9 8193.6 -18007.9)"/><path fill="#020309" d="M293.1 261.99q.02-.66.02-1.33a1.3 1.3 0 01.41-.94q.53-.48 1.86-.44a.53.53 0 01.51.62l-.07 2.07-.01 1.33a1.3 1.3 0 01-.41.94q-.53.48-1.86.44a.53.53 0 01-.51-.62z"/><rect width="2.42" height="5.14" x="-1.21" y="-2.57" fill="#020309" rx="1.06" transform="rotate(-1.1 14029.92 -31573.19)"/><rect width="2.26" height="4.96" x="-1.13" y="-2.48" fill="#020309" rx=".71" transform="rotate(.3 -50253.6 55003.98)"/><path fill="#020309" d="M646.3 278.17a1.27 1.27 0 01-1.22-1.32l.04-1.12a8.77 3.92-87.8 014.25-8.61l.28.01a8.77 3.92-87.8 013.58 8.91l-.04 1.12a1.27 1.27 0 01-1.32 1.22zm-399.35-.07a1.2 1.2 0 01-1.12-1.25l.07-1.28a8.61 3.84-86.9 014.3-8.39l.32.02a8.61 3.84-86.9 013.37 8.8l-.07 1.28a1.2 1.2 0 01-1.25 1.12z"/><path fill="#e8de02" d="M435.93 290.99q-2.51 8.95-6.54 17.2l-46.81.85a.45.44 12.8 01-.41-.64l8.07-15.9a1.11 1.08 12.1 01.95-.6z"/><path fill="#ffff01" d="M429.39 308.19q4.03-8.25 6.54-17.2 35.78-.33 71.96.95a.8.8 0 01.71.46l8.21 16.08a.33.33 0 01-.3.48q-43.5-1.11-87.12-.77"/><path fill="#0000fe" d="M218.09 300.24q.69 1.71.29 3.02-1.26 4.18-1.03 6.04v.12l-1.15 7.36a1.5 1.49-89.7 01-1.26 1.25l-3.73.53a.91.9 27.1 00-.32.1l-6.38 3.08a.7.7 0 00-.3.3l-.42.39q-.26.24-.43.3-2.19.77-3.84 2.51a1.07.99 2.4 01-.13.11l-6.62 4.51a.9.9 0 00-.41.87q.08.65-.49.91a.47.47 0 00.08.89q1.11.28 3.11-.09a.54.47-49.1 01.14-.02l511.86-.01a.33.33 0 00.29-.48l-.77-1.51a1.15 1.13-86.6 00-.36-.41q-10.1-7.03-10.89-7.54-5.81-3.76-11.57-4.65a1.2 1.2 0 01-1.01-1.02l-2.33-16.77H900V600H0V300.04zm230.52 52.74c-2.28 1.38-4.88 1.28-8.46 1.47q-3.48.19-5.81.08-12.09-.56-22.14-.17-1.25.05-2.79.96a2 2-61.7 01-1.02.31q-1.83.06-3.51.64a1.17 1.16-57.8 00.51 2.26q3.93-.47 8.9.46 3.24.6 3.73 1.36.18.29 1.73.33a2.68 2.57 55.7 01.95.2q3.36 1.33 5.65 2.3c2.27.96 5.05.79 6.95 2.03a1.51 1.42-22.3 00.55.21l9.44 1.29a.61.38 31.7 00.15 0l5.47-.51a1.7 1.7 0 001.51-1.52l.84-10.05a1.75 1.75 0 00-2.65-1.65m36.13 175.42q-.52-.46-2.56-.71a.71.69-16.7 01-.46-.24l-.31-.35a1.76 1.71 76.8 00-.83-.53c-3.13-.95-4.31-2.39-6.61-3.96a3.99 3.63 83.3 01-.61-.53q-6.22-6.57-8.36-16.09-2.22-9.85-1.27-19.29 1.94-19.43 11.87-36.93c13.25-23.35 34-41.01 58.49-52.17q3.42-1.56 4.64-2.33c2.65-1.65 10.09-1.29 14.25-1.21a1.26 1.25-89.3 001.28-1.26v-4.12a1.3 1.3 0 00-1.27-1.3l-91.37-1.97a.47.47 0 01-.46-.48l.61-28.17a2.7 2.7 0 00-2.31-2.72l-2.07-.3a1.62 1.62 0 00-1.84 1.57l-.63 29.39a1 1 0 01-1.01.96l-75-1.61a2.5 2.5 0 00-2.47 1.88l-.75 3a1.1 1.1 0 001.08 1.38h4.04a.42.42 0 01.39.59q-.57 1.28-1.52 1.83a1.45 1.37 1.5 00-.39.35q-3.41 4.53-5.94 8.1a56 56 0 00-6.6 12.02q-1.23 3.16-1.92 4.31a1.68 1.52-23.7 00-.13.29q-10.14 29.72 5.44 56.96 5.61 9.82 13.85 17.78 13.74 13.27 30.81 21.15 10.55 4.87 21.45 8.24 1.95.61 3.58.85 1.7.25 3.61 1.28a.41.16 41.7 00.11.04l7.28 1.11a1.2 1.2 0 011.01 1.17v7.1a.95.95 0 01-.96.95q-37.75-.43-63.15-.82-6.98-.11-11.17-3.47-4.21-3.36-5.27-7.76-2.62-10.83.87-21.85a1.6 1.6 0 00-.35-1.58l-14.6-15.98a.9.9 0 00-1.27-.07q-1.13.98-17.3 15.23-.47.41-.93.38a.37.37 0 00-.36.54q.3.61-.41 1.13a.5.5 0 00-.08.75l4.8 5.45a1.41 1.4-37.7 001.83.23c3.31-2.23 8.02-5.38 11.92-5.92a2.2 2.2-4 012.51 2.18q0 1.91-1.27 4.15c-.42.74-.09 1.32-.56 2.05q-5.3 8.29-10.87 14.89-6.35 7.52-8.65 13.29-4.93 12.33 2.68 23.51 2 2.94 5.52 4.98 3.61 2.08 3.95 2.36a3.25 3.13 67.4 001.01.44l6.91 1.58a.36.18 36.9 00.11.02c39.02.45 75.3.42 118.08 1.05q23.69.36 55.67.35 8.33 0 15.31-2.32 3.02-1 5.79-3.14 3.34-2.59 5.21-5.87c1.14-2.01 1.61-4.29 2.48-6.09a3.84 3.81-32.5 00.37-1.64v-13.65a2.16 1.97 37.7 00-.12-.69q-1.29-3.73-1.89-8.4a5.47 5.42-58.7 00-.22-.92q-3.09-9.04-4.12-15.74-.57-3.71 1.39-6.71a2.98 2.9-87.2 011.03-.96q3.52-1.94 4.01-2.11 5.53-1.93 13.63-1.95a2.56 2.55-89.4 002.54-2.5l.02-1.24a2.4 2.4 0 00-2.25-2.44q-13.37-.74-22.52.1a6.66 6.16 30.9 00-1.47.31c-2.8.93-4.91 1.44-6.96 2.76q-7.87 5.05-4.48 15.2 2.86 8.57 3.05 11.7c.46 7.34-5.5 9.52-11.81 9.46q-36.11-.34-69.89-.31a.73.73 0 01-.7-.93q.53-1.93.05-4.25a1.66 1.55 87.2 011.7-2q.18.03.64.21a2.83 2.68-31.8 001.01.21q6.61.15 10.98 1 3.98.76 5.49.68.52-.03 5.61.01a.53.53 0 00.36-.92"/><path fill="#ffff01" d="M360.25 330.64q-1.19.02-1.83-.47a.55.55 0 01.17-.95c12.94-4.32 26.25-8.6 39.6-11.84q9.99-2.43 12.12-3.11c3.98-1.27 6.91-1.35 10.83-2.74l.01-.02q.01-.16-.06-.27a.14.14 0 01.09-.21l2.78-.67q10.39-.28 20.79-.24 36.58.15 72.75.72 34.22.53 98.83 3.84c3.09.16 7.01 1.05 10.56.93q1.03-.04 4.23.16 43.47 2.76 53.89 3.88 2.41.26 6.66 2.49 6.22 3.25 12.01 8.04a.25.25 0 01-.16.44z"/><path fill="#e8de02" d="m423.96 310.36-2.78.67a.14.14 0 00-.09.21q.07.11.06.27l-.01.02c-3.92 1.39-6.85 1.47-10.83 2.74q-2.13.68-12.12 3.11c-13.35 3.24-26.66 7.52-39.6 11.84a.55.55 0 00-.17.95q.64.49 1.83.47l-164.47.02a.42.42 0 01-.25-.75c5.47-4.17 11.88-8.8 18.4-10.22q1.15-.25 10.83-.99 30.68-2.35 52.26-3.4c.83-.04 1.47-.34 2.24-.38q72.29-4.39 144.7-4.56"/><path fill="#020309" d="M448.61 352.98a1.75 1.75 0 012.65 1.65l-.84 10.05a1.7 1.7 0 01-1.51 1.52l-5.47.51a.61.38 31.7 01-.15 0l-9.44-1.29a1.51 1.42-22.3 01-.55-.21c-1.9-1.24-4.68-1.07-6.95-2.03q-2.29-.97-5.65-2.3a2.68 2.57 55.7 00-.95-.2q-1.55-.04-1.73-.33-.49-.76-3.73-1.36-4.97-.93-8.9-.46a1.17 1.16-57.8 01-.51-2.26q1.68-.58 3.51-.64a2 2-61.7 001.02-.31q1.54-.91 2.79-.96 10.05-.39 22.14.17 2.33.11 5.81-.08c3.58-.19 6.18-.09 8.46-1.47m-38.02 3.98c1.41.44 3.25.26 4.78.75q6.1 1.96 13.81 4.63 9.59 3.33 19.4 2.31a.55.55 0 00.49-.51l.52-9.06a.37.36-5.4 00-.46-.37q-8.27 2.15-15.89 1.66-14.85-.95-20.61-.44a.71.68-68.1 00-.42.19l-.08.1a.9.9 0 01-1.01.28q-.3-.11-.5-.07a.27.27 0 00-.03.53m-4.5.8q.57.11 1.99-.15a.21.21 0 00.05-.4q-.27-.13-2.03.17a.2.19-44 00-.01.38"/><path fill="#020309" d="M484.74 528.4a.53.53 0 01-.36.92q-5.09-.04-5.61-.01-1.51.08-5.49-.68-4.37-.85-10.98-1a2.83 2.68-31.8 01-1.01-.21q-.46-.18-.64-.21a1.66 1.55 87.2 00-1.7 2q.48 2.32-.05 4.25a.73.73 0 00.7.93q33.78-.03 69.89.31c6.31.06 12.27-2.12 11.81-9.46q-.19-3.13-3.05-11.7-3.39-10.15 4.48-15.2c2.05-1.32 4.16-1.83 6.96-2.76a6.66 6.16 30.9 011.47-.31q9.15-.84 22.52-.1a2.4 2.4 0 012.25 2.44l-.02 1.24a2.56 2.55-89.4 01-2.54 2.5q-8.1.02-13.63 1.95-.49.17-4.01 2.11a2.98 2.9-87.2 00-1.03.96q-1.96 3-1.39 6.71 1.03 6.7 4.12 15.74a5.47 5.42-58.7 01.22.92q.6 4.67 1.89 8.4a2.16 1.97 37.7 01.12.69v13.65a3.84 3.81-32.5 01-.37 1.64c-.87 1.8-1.34 4.08-2.48 6.09q-1.87 3.28-5.21 5.87-2.77 2.14-5.79 3.14-6.98 2.32-15.31 2.32-31.98.01-55.67-.35c-42.78-.63-79.06-.6-118.08-1.05a.36.18 36.9 01-.11-.02l-6.91-1.58a3.25 3.13 67.4 01-1.01-.44q-.34-.28-3.95-2.36-3.52-2.04-5.52-4.98-7.61-11.18-2.68-23.51 2.3-5.77 8.65-13.29 5.57-6.6 10.87-14.89c.47-.73.14-1.31.56-2.05q1.27-2.24 1.27-4.15a2.2 2.2-4 00-2.51-2.18c-3.9.54-8.61 3.69-11.92 5.92a1.41 1.4-37.7 01-1.83-.23l-4.8-5.45a.5.5 0 01.08-.75q.71-.52.41-1.13a.37.37 0 01.36-.54q.46.03.93-.38 16.17-14.25 17.3-15.23a.9.9 0 011.27.07l14.6 15.98a1.6 1.6 0 01.35 1.58q-3.49 11.02-.87 21.85 1.06 4.4 5.27 7.76 4.19 3.36 11.17 3.47 25.4.39 63.15.82a.95.95 0 00.96-.95v-7.1a1.2 1.2 0 00-1.01-1.17l-7.28-1.11a.41.16 41.7 01-.11-.04q-1.91-1.03-3.61-1.28-1.63-.24-3.58-.85-10.9-3.37-21.45-8.24-17.07-7.88-30.81-21.15-8.24-7.96-13.85-17.78-15.58-27.24-5.44-56.96a1.68 1.52-23.7 01.13-.29q.69-1.15 1.92-4.31a56 56 0 016.6-12.02q2.53-3.57 5.94-8.1a1.45 1.37 1.5 01.39-.35q.95-.55 1.52-1.83a.42.42 0 00-.39-.59h-4.04a1.1 1.1 0 01-1.08-1.38l.75-3a2.5 2.5 0 012.47-1.88l75 1.61a1 1 0 001.01-.96l.63-29.39a1.62 1.62 0 011.84-1.57l2.07.3a2.7 2.7 0 012.31 2.72l-.61 28.17a.47.47 0 00.46.48l91.37 1.97a1.3 1.3 0 011.27 1.3v4.12a1.26 1.25-89.3 01-1.28 1.26c-4.16-.08-11.6-.44-14.25 1.21q-1.22.77-4.64 2.33c-24.49 11.16-45.24 28.82-58.49 52.17q-9.93 17.5-11.87 36.93-.95 9.44 1.27 19.29 2.14 9.52 8.36 16.09a3.99 3.63 83.3 00.61.53c2.3 1.57 3.48 3.01 6.61 3.96a1.76 1.71 76.8 01.83.53l.31.35a.71.69-16.7 00.46.24q2.04.25 2.56.71m-24.57-172.1a.6.6 0 00-.61-.63l-1.92-.04a.6.6 0 00-.63.61l-.56 28.74a.6.6 0 00.61.63l1.92.04a.6.6 0 00.63-.61zm-82.38 32.41 174.7 3.76a.33.33 0 00.34-.36l-.26-3.1a.34.33-1.9 00-.33-.3l-172.87-3.02a1.8 1.8 0 00-1.34.55q-.37.4-.56 2.1a.33.33 0 00.32.37m159.78 5.12-153.18-3.29a.99.98 22.1 00-.74.31c-22.47 23.74-28.84 55.08-11.67 84.23 16.24 27.58 48.64 42.84 78.84 48.81q13.81 2.74 27.43 3.71a.15.15 0 00.08-.28q-7.49-3.97-11.38-11.81c-10.57-21.33-2.71-49.68 8.86-68.97 14.25-23.74 36.39-41.22 61.87-52.16a.29.29 0 00-.11-.55m-181.52 90.86-17.22 15.17a.8.8 0 00-.07 1.15l3.43 3.9a.85.84 51.8 001.11.14c2.15-1.5 13.98-9.31 15.77-4.02 2.28 6.75-9.6 19.9-16.02 28.02-4.79 6.07-7.7 12.89-6.63 20.83 1.63 12.15 11.9 18.68 23.62 18.8q122.57 1.27 172.87 1.4 4.1.01 9.01-1.16c24.56-5.83 15.79-33.3 11.13-49.84-2.41-8.54-2.06-15.06 7.78-17.52q5.92-1.48 12.98-1.94a.86.85 88.9 00.8-.84l.02-1.15a.9.9 0 00-.84-.93q-13.37-1.14-20.86-.03-5.95.89-8.68 2.4-7.51 4.13-5.05 12.77c1.07 3.78 4.37 10.92 3.21 16.66-1.71 8.47-12.29 7.79-19 7.75q-47.16-.32-131.56-1.07-7.51-.07-10.47-1c-13.37-4.21-14.1-19.23-11.54-30.67q.7-3.12.72-3.32a.94.91-63.7 00-.23-.71l-13.39-14.74a.64.64 0 00-.89-.05m101.47 42.02a.3.3 0 00-.31-.33l-3.38-.1a.3.3 0 00-.33.32l-.2 7.11a.3.3 0 00.31.33l3.38.1a.3.3 0 00.33-.32z"/><path fill="#eeefed" d="M410.62 356.43q.2-.04.5.07a.9.9 0 001.01-.28l.08-.1a.71.68-68.1 01.42-.19q5.76-.51 20.61.44 7.62.49 15.89-1.66a.37.36-5.4 01.46.37l-.52 9.06a.55.55 0 01-.49.51q-9.81 1.02-19.4-2.31-7.71-2.67-13.81-4.63c-1.53-.49-3.37-.31-4.78-.75a.27.27 0 01.03-.53"/><rect width="3.16" height="29.98" x="-1.58" y="-14.99" fill="#eeefed" rx=".62" transform="rotate(1.1 -19075.8 24056.61)"/><path fill="#0000fe" d="M406.1 357.38q1.76-.3 2.03-.17a.21.21 0 01-.05.4q-1.42.26-1.99.15a.2.19-44 01.01-.38"/><path fill="#eeefed" d="M377.47 388.34q.19-1.7.56-2.1a1.8 1.8 0 011.34-.55l172.87 3.02a.34.33-1.9 01.33.3l.26 3.1a.33.33 0 01-.34.36l-174.7-3.76a.33.33 0 01-.32-.37m160.1 5.49a.29.29 0 01.11.55c-25.48 10.94-47.62 28.42-61.87 52.16-11.57 19.29-19.43 47.64-8.86 68.97q3.89 7.84 11.38 11.81a.15.15 0 01-.08.28q-13.62-.97-27.43-3.71c-30.2-5.97-62.6-21.23-78.84-48.81-17.17-29.15-10.8-60.49 11.67-84.23a.99.98 22.1 01.74-.31zm-116.23 5.05a1.17 1.17 0 00-1.33 1.06l-1.71 20.22a1.17 1.17 0 001 1.26l3.33.47a1.2 1.2 0 001.3-.87l4.94-19.76a1.17 1.17 0 00-.97-1.44zm-20.24 4.05a1.2 1.2 0 00-.69 1.57l7.17 18.19a1.2 1.2 0 001.57.69l3.11-1.23a1.2 1.2 0 00.74-1.36l-3.9-19.48a1.2 1.2 0 00-1.63-.89zm39.13 4.03a1.2 1.2 0 00-1.83.31l-9.72 16.83a1.2 1.2 0 00.25 1.5l2.54 2.23a1.2 1.2 0 001.69-.11l12.58-14.33a1.2 1.2 0 00-.11-1.69zm-36.86 21.29a1.04 1.04 0 00-.01-1.31l-11.9-14.49a1.04 1.04 0 00-1.61.01l-4.92 6.12a1.04 1.04 0 00.16 1.46l14.31 11.5a1.04 1.04 0 001.46-.16zm33.25 10.45a.95.95 0 001.19.63l16.99-5.35a.95.95 0 00.62-1.19l-2.48-7.91a.95.95 0 00-1.39-.54l-15.8 9.13a.95.95 0 00-.43 1.11zm-18.01-13.5a19.71 16.88-85.5 00-18.38 18.32 19.71 16.88-85.5 0015.28 20.97 19.71 16.88-85.5 0018.38-18.33 19.71 16.88-85.5 00-15.28-20.97m-20.65 13.68a1.1 1.1 0 00-.75-1.34l-16.38-5.14a1.1 1.1 0 00-1.42.79l-1.96 7.85a1.12 1.12 0 00.99 1.39l17.3 1.46a1.1 1.1 0 001.18-.84zm38.1 11.85a1.13 1.13 0 00.76 1.35l16.35 5.13a1.13 1.13 0 001.43-.8l1.96-7.82a1.13 1.13 0 00-1-1.4l-17.27-1.45a1.1 1.1 0 00-1.19.85zm-38.54.45a1.16 1.16 0 00-1.46-.76l-16.66 5.23a1.16 1.16 0 00-.76 1.46l2.36 7.51a1.16 1.16 0 001.68.66l15.5-8.95a1.16 1.16 0 00.53-1.36zm33.29 10.14a1.2 1.2 0 00.01 1.47l11.75 14.32a1.17 1.17 0 001.81-.01l4.75-5.92a1.17 1.17 0 00-.18-1.64l-14.13-11.35a1.17 1.17 0 00-1.64.18zm-36.57 21.46a.9.9 0 001.36-.22l9.94-17.22a.9.9 0 00-.18-1.11l-2.95-2.59a.9.9 0 00-1.26.08l-12.86 14.65a.9.9 0 00.08 1.26zm38.9 3.76a1.05 1.05 0 00.6-1.37l-7.21-18.29a1.05 1.05 0 00-1.37-.59l-3.4 1.34a1.05 1.05 0 00-.65 1.18l3.91 19.6a1.05 1.05 0 001.42.77zm-20.46 4.22a1.3 1.3 0 001.46-1.17l1.68-19.97a1.3 1.3 0 00-1.1-1.38l-3.16-.45a1.3 1.3 0 00-1.43.96l-4.89 19.5a1.3 1.3 0 001.07 1.59z"/><path fill="#020309" d="m421.34 398.88 6.56.94a1.17 1.17 0 01.97 1.44l-4.94 19.76a1.2 1.2 0 01-1.3.87l-3.33-.47a1.17 1.17 0 01-1-1.26l1.71-20.22a1.17 1.17 0 011.33-1.06m.46 21.39a.9.9 0 00.96-.69l4.34-17.35a.9.9 0 00-.75-1.12l-3.93-.56a.9.9 0 00-1.03.82l-1.5 17.82a.9.9 0 00.83.99zm-20.7-17.34 6.37-2.51a1.2 1.2 0 011.63.89l3.9 19.48a1.2 1.2 0 01-.74 1.36l-3.11 1.23a1.2 1.2 0 01-1.57-.69l-7.17-18.19a1.2 1.2 0 01.69-1.57m1.56.98a.8.8 0 00-.45 1.05l6.37 16.21a.8.8 0 001.05.45l1.22-.47a.8.8 0 00.5-.92l-3.47-17.35a.8.8 0 00-1.09-.59z"/><path fill="#eeefed" d="m421.8 420.27-1.08-.09a.9.9 0 01-.83-.99l1.5-17.82a.9.9 0 011.03-.82l3.93.56a.9.9 0 01.75 1.12l-4.34 17.35a.9.9 0 01-.96.69m-19.14-16.36 4.13-1.62a.8.8 0 011.09.59l3.47 17.35a.8.8 0 01-.5.92l-1.22.47a.8.8 0 01-1.05-.45l-6.37-16.21a.8.8 0 01.45-1.05"/><path fill="#020309" d="m440.23 406.96 5.4 4.74a1.2 1.2 0 01.11 1.69l-12.58 14.33a1.2 1.2 0 01-1.69.11l-2.54-2.23a1.2 1.2 0 01-.25-1.5l9.72-16.83a1.2 1.2 0 011.83-.31m-.05 1.93a.73.73 0 00-1.12.18l-8.67 15.03a.7.7 0 00.15.91l1.13 1a.73.73 0 001.03-.07l11.23-12.78a.73.73 0 00-.07-1.03z"/><path fill="#eeefed" d="m440.18 408.89 3.68 3.24a.73.73 0 01.07 1.03l-11.23 12.78a.73.73 0 01-1.03.07l-1.13-1a.7.7 0 01-.15-.91l8.67-15.03a.73.73 0 011.12-.18"/><path fill="#020309" d="m403.37 428.25-2.51 3.13a1.04 1.04 0 01-1.46.16l-14.31-11.5a1.04 1.04 0 01-.16-1.46l4.92-6.12a1.04 1.04 0 011.61-.01l11.9 14.49a1.04 1.04 0 01.01 1.31m-1.79-.18a.7.7 0 00-.01-.92l-10.36-12.62a.73.73 0 00-1.13.01l-3.24 4.04a.73.73 0 00.11 1.03l12.46 10a.73.73 0 001.03-.11z"/><path fill="#eeefed" d="m401.58 428.07-1.14 1.43a.73.73 0 01-1.03.11l-12.46-10a.73.73 0 01-.11-1.03l3.24-4.04a.73.73 0 011.13-.01l10.36 12.62a.7.7 0 01.01.92"/><path fill="#020309" d="m436.62 438.7-1.3-4.12a.95.95 0 01.43-1.11l15.8-9.13a.95.95 0 011.39.54l2.48 7.91a.95.95 0 01-.62 1.19l-16.99 5.35a.95.95 0 01-1.19-.63m15.36-11.92a.68.68 0 00-.99-.38l-13.26 7.69a1.04 1.03 76.8 00-.52.85q-.04 1 .58 2.22a.66.66 0 00.79.34l14.49-4.58a.8.8 0 00.53-1.01z"/><path fill="#020309" d="M418.6 425.2a19.71 16.88-85.5 0115.29 20.96 19.71 16.88-85.5 01-18.38 18.33 19.71 16.88-85.5 01-15.28-20.97 19.71 16.88-85.5 0118.38-18.33m-.06 1.47a18.22 15.36-85.3 00-16.8 16.9A18.22 15.36-85.3 00415.56 463a18.22 15.36-85.3 0016.8-16.9 18.22 15.36-85.3 00-13.82-19.42"/><path fill="#eeefed" d="m451.98 426.78 1.62 5.13a.8.8 0 01-.53 1.01l-14.49 4.58a.66.66 0 01-.79-.34q-.62-1.22-.58-2.22a1.04 1.03 76.8 01.52-.85l13.26-7.69a.68.68 0 01.99.38"/><ellipse fill="#eeefed" rx="18.22" ry="15.36" transform="rotate(-85.3 449.98 -3.96)"/><path fill="#020309" d="m397.96 438.88-1.04 4.17a1.1 1.1 0 01-1.18.84l-17.3-1.46a1.12 1.12 0 01-.99-1.39l1.96-7.85a1.1 1.1 0 011.42-.79l16.38 5.14a1.1 1.1 0 01.75 1.34m-1.77.62a.67.67 0 00-.45-.8l-14.26-4.48a.67.67 0 00-.85.48l-1.36 5.45a.67.67 0 00.59.83l15.06 1.26a.7.7 0 00.71-.5z"/><path fill="#eeefed" d="m396.19 439.5-.56 2.24a.7.7 0 01-.71.5l-15.06-1.26a.67.67 0 01-.59-.83l1.36-5.45a.67.67 0 01.85-.48l14.26 4.48a.67.67 0 01.45.8"/><path fill="#020309" d="m436.06 450.73 1.04-4.14a1.1 1.1 0 011.19-.85l17.27 1.45a1.13 1.13 0 011 1.4l-1.96 7.82a1.13 1.13 0 01-1.43.8l-16.35-5.13a1.13 1.13 0 01-.76-1.35m1.67-.36a.4.4 0 00.25.46l14.8 4.65a.4.4 0 00.48-.27l1.52-6.1a.4.4 0 00-.34-.47l-15.62-1.31a.4.4 0 00-.4.28z"/><path fill="#eeefed" d="m437.73 450.37.69-2.76a.4.4 0 01.4-.28l15.62 1.31a.4.4 0 01.34.47l-1.52 6.1a.4.4 0 01-.48.27l-14.8-4.65a.4.4 0 01-.25-.46"/><path fill="#020309" d="m397.52 451.18 1.19 3.79a1.16 1.16 0 01-.53 1.36l-15.5 8.95a1.16 1.16 0 01-1.68-.66l-2.36-7.51a1.16 1.16 0 01.76-1.46l16.66-5.23a1.16 1.16 0 011.46.76m-15.46 11.76a.68.68 0 00.99.38l13.35-7.71a1.05 1.03 76.8 00.52-.85q.04-1.01-.58-2.24a.66.66 0 00-.79-.34l-14.58 4.59a.8.8 0 00-.53 1.01z"/><path fill="#eeefed" d="m382.06 462.94-1.62-5.16a.8.8 0 01.53-1.01l14.58-4.59a.66.66 0 01.79.34q.62 1.23.58 2.24a1.05 1.03 76.8 01-.52.85l-13.35 7.71a.68.68 0 01-.99-.38"/><path fill="#020309" d="m430.81 461.32 2.37-2.95a1.17 1.17 0 011.64-.18l14.13 11.35a1.17 1.17 0 01.18 1.64l-4.75 5.92a1.17 1.17 0 01-1.81.01l-11.75-14.32a1.2 1.2 0 01-.01-1.47m1.61.38a.5.5 0 000 .67l10.64 12.96a.53.53 0 00.82-.01l3.53-4.4a.53.53 0 00-.08-.74l-12.8-10.28a.53.53 0 00-.74.09z"/><path fill="#eeefed" d="m432.42 461.7 1.37-1.71a.53.53 0 01.74-.09l12.8 10.28a.53.53 0 01.08.74l-3.53 4.4a.53.53 0 01-.82.01l-10.64-12.96a.5.5 0 010-.67"/><path fill="#020309" d="m394.24 482.78-5.87-5.15a.9.9 0 01-.08-1.26l12.86-14.65a.9.9 0 011.26-.08l2.95 2.59a.9.9 0 01.18 1.11l-9.94 17.22a.9.9 0 01-1.36.22m-.15-2.03a.6.6 0 00.9-.15l8.79-15.21a.6.6 0 00-.12-.74l-1.31-1.14a.6.6 0 00-.83.05l-11.36 12.95a.6.6 0 00.05.83z"/><path fill="#eeefed" d="m394.09 480.75-3.88-3.41a.6.6 0 01-.05-.83l11.36-12.95a.6.6 0 01.83-.05l1.31 1.14a.6.6 0 01.12.74l-8.79 15.21a.6.6 0 01-.9.15"/><path fill="#020309" d="m433.14 486.54-6.7 2.64a1.05 1.05 0 01-1.42-.77l-3.91-19.6a1.05 1.05 0 01.65-1.18l3.4-1.34a1.05 1.05 0 011.37.59l7.21 18.29a1.05 1.05 0 01-.6 1.37m-6.3.67 4.93-1.45a.13.13 0 00.09-.16l-.09-.32a18.44 2.2 73.6 00-7.32-17.07l-.96.29a18.44 2.2 73.6 003.1 18.31l.09.31a.13.13 0 00.16.09"/><path fill="#020309" d="m412.68 490.76-6.37-.92a1.3 1.3 0 01-1.07-1.59l4.89-19.5a1.3 1.3 0 011.43-.96l3.16.45a1.3 1.3 0 011.1 1.38l-1.68 19.97a1.3 1.3 0 01-1.46 1.17m-.8-1.66a.7.7 0 00.82-.65l1.51-17.99a.7.7 0 00-.61-.78l-1.4-.2a.7.7 0 00-.8.54l-4.4 17.59a.72.72 0 00.6.88z"/><path fill="#eeefed" d="M426.84 487.21a.13.13 0 01-.16-.09l-.09-.31a18.44 2.2 73.6 01-3.1-18.31l.96-.29a18.44 2.2 73.6 017.32 17.07l.09.32a.13.13 0 01-.09.16z"/><path fill="#eeefed" d="m411.88 489.1-4.28-.61a.72.72 0 01-.6-.88l4.4-17.59a.7.7 0 01.8-.54l1.4.2a.7.7 0 01.61.78l-1.51 17.99a.7.7 0 01-.82.65"/><path fill="#eeefed" d="M356.05 484.69a.64.64 0 01.89.05l13.39 14.74a.94.91-63.7 01.23.71q-.02.2-.72 3.32c-2.56 11.44-1.83 26.46 11.54 30.67q2.96.93 10.47 1 84.4.75 131.56 1.07c6.71.04 17.29.72 19-7.75 1.16-5.74-2.14-12.88-3.21-16.66q-2.46-8.64 5.05-12.77 2.73-1.51 8.68-2.4 7.49-1.11 20.86.03a.9.9 0 01.84.93l-.02 1.15a.86.85 88.9 01-.8.84q-7.06.46-12.98 1.94c-9.84 2.46-10.19 8.98-7.78 17.52 4.66 16.54 13.43 44.01-11.13 49.84q-4.91 1.17-9.01 1.16-50.3-.13-172.87-1.4c-11.72-.12-21.99-6.65-23.62-18.8-1.07-7.94 1.84-14.76 6.63-20.83 6.42-8.12 18.3-21.27 16.02-28.02-1.79-5.29-13.62 2.52-15.77 4.02a.85.84 51.8 01-1.11-.14l-3.43-3.9a.8.8 0 01.07-1.15z"/><rect width="4.02" height="7.76" x="-2.01" y="-3.88" fill="#eeefed" rx=".32" transform="rotate(1.6 -18757.8 16572.21)"/></svg>