<svg xmlns="http://www.w3.org/2000/svg" viewBox="0 0 597 395"><g fill="none" stroke-width="2"><path stroke="#f39296" d="m184.82 0 .03 188.17a.4.4 0 01-.39.39L0 188.57" vector-effect="non-scaling-stroke"/><path stroke="#952a1e" d="M85.54 142q-15.68-4.14-20.34-19.49-1.21-3.99-1.14-7.57a.33.33 0 01.6-.18c3.33 4.7 10.11 4.05 14.13.54 6.03-5.29 4.75-15.22-.83-20.34-8.01-7.35-15.48-15.92-21.22-25.57q-10.46-17.62-15.1-38.66a1.5 1.5 0 00-2.18-.99q-5.84 3.14-7.28 8.83c-.6 2.35-.3 4.89-.3 8.19a1.64 1.51-56.6 00.08.5l3.97 12.03a.15.15 0 01-.27.14l-3.46-4.76a.84.69 20.7 01-.11-.19q-.91-2.15-2.96-5.2a.59.58-32.5 00-.79-.17c-2.54 1.57-4.05 8.81-4.22 11.19-.34 4.94 3.11 11.92 5.42 16.55a.4.4 0 01-.63.47c-3.63-3.29-5.71-7.01-8.67-11.11-.77-1.06-1.52-2.51-2.81-2.82a.8.79 21 00-.88.39q-3.68 6.64-2.1 13.1 2.38 9.74 9.02 17.2 1.86 2.09 8 8.63a.46.45 85.4 01-.58.69l-14.47-10a.9.89-62.1 00-1.34.42c-1.34 3.47-.31 6.98.49 10.57a4.34 4.18-65.7 00.32.9c4.09 8.33 10.47 13.32 18.22 18.03a.28.28 0 01-.23.5l-13.03-4.3a.59.58 14.3 00-.76.45q-.44 2.43-.24 2.98 3.5 9.61 12.98 13.73 5.32 2.32 11.03 3.94-5.04.17-9.21-.48a1.16 1.16 0 00-1.28 1.51c2.33 6.92 9.55 10.32 16.71 11.29q4.83.66 7.08.67a.28.28 0 01.12.53l-8.36 3.99a1.12 1.12 0 00-.2 1.89c5.41 4.21 12.89 3.47 18.6.51l5.81-2.99a.19.19 0 01.26.23L71.33 164a.65.64-67.2 00.31.77c4.79 2.51 11.07-3.41 13.73-6.54a.49.49 0 01.82.52q-.62 1.4-.08 2.43a.63.62-29.8 01-.23.83q-1.01.62-.25 2.43.67 1.63 2.21 2.91a1.98 1.93 70.2 00.86.42q4.33.88 6.21-2.51 1.26-2.27 0-3.81a1.2 1.2 0 01-.25-.82l.52-5.79a.36.35 20 00-.16-.33l-.31-.22a.12.12 0 01.09-.22q.15.02.36.29c3.57 4.6 8.18 9.83 13.92 10.64a2.59 2.12 8.4 002.85-1.71q.01-.05-.48-2.06-.23-.97-1.03-3.34a.39.39 0 01.57-.46c6.16 3.67 17.19 7.78 23.69 1.86a.84.83-51.3 00-.14-1.33l-7.76-4.48a.16.15 57.3 01.06-.29c7.64-.58 15.52-1.72 20.52-7.79q1.94-2.36 2.45-4.41a.95.95 0 00-.96-1.19l-9.46.43a.2.2 0 01-.15-.1l-.01-.01a.24.24-10.8 01.18-.26q6.89-1.7 13.56-5.17 7.76-4.04 10.24-12.44.42-1.43-.06-2.52a.86.85-25.1 00-1.15-.41c-4.41 2.15-8.72 2.78-13.3 4.14a.16.15 18.4 01-.14-.27c10.01-6.95 19.82-13.38 20.59-26.92a1.64 1.56 38.9 00-.08-.61l-.87-2.63a.56.55-21.2 00-.76-.33q-2.51 1.16-2.95 1.54-3.97 3.45-8.21 6.54" vector-effect="non-scaling-stroke"/><path stroke="#ad2918" d="M156.28 100.78q-.87-.99-1.27-2.05" vector-effect="non-scaling-stroke"/><path stroke="#952a1e" d="M155.01 98.73q8.29-7.86 12.83-18.45a4.42 4.29-28.9 00.29-.95c1.07-5.68 1.87-10.64-1.48-15.79a1 1 0 00-1.44-.27q-.57.4-.86.84-5.39 8.51-11.91 15.4a.24.24 0 01-.39-.28q3.35-6.18 5.17-10.69c.96-2.36 1.14-4.71 1.63-6.89.98-4.27-1.03-9.86-3.58-13.05a.7.7 0 00-1.07-.02q-.91 1.07-1.44 2.15-5.06 10.36-12.5 19.14a.13.12-50.1 01-.17.02l-.22-.15a.45.45 0 01-.12-.63q5.67-8.44 8.99-18.46 1.11-3.37 1.28-5.99.23-3.76-.47-6.11-1.93-6.5-8.12-8.84a.73.73 0 00-.97.51q-2.03 8.42-4.95 16.99-9 26.37-28.96 44.86c-6.98 6.46-10.93 14.7-4.17 22.96a3.98 3.91 87.5 00.75.7q7.19 5.26 14.07-.8a.3.3 0 01.49.23c-.15 12.46-8.11 23.68-20.43 26.53a1.64 1.34-13.7 01-1.88-.9q-.14-.55.45-1.64a.82.8-44.2 00.02-.74l-.18-.39a1.23 1.21-47.1 01-.03-1q.51-1.22.04-2.34a.95.95 0 01.87-1.31l3.96-.03" vector-effect="non-scaling-stroke"/><path stroke="#ad2918" d="M100.51 133.34q3.11 3.1 6.2.62a1.7 1.69 80.4 00.53-.75c1.47-4.28-2.62-7.21-6.29-4.05a1.22 1.19-64.7 01-.78.29h-5.3a.64.64 0 01-.64-.64l.09-25.57a1.36.96 61.8 01.04-.32q1.56-5.37.08-10.13-.73-2.36.44-4.61 2.12-4.09.64-8.33c-.59-1.7-1.07-3.85-.02-5.09q3.51-4.13 6.11-7.81c4.38-6.2 4.24-15.7 2.55-22.94q-.97-4.18-3.82-7.95-3.17-4.19-5.87-6.72a.31.31 0 00-.48.39q2.35 3.67 3.15 8.78a.02.02 0 01-.04.01q-4.13-10-12.87-16.92a1.85 1.67 71.1 00-.45-.25l-2.68-1.01a.37.36 80.9 00-.41.57c1.29 1.63 2.14 3.15 3.56 5q4.06 5.3 6.36 11.3a4.11 4.06 32.5 01.24 1.05q.39 4.21-.45 8.18-1.87 8.91-5.34 16.6a.24.24 0 01-.45-.13l1.24-8.71a1.11.89-40.9 01.03-.14c1.96-6.4 3.65-12.21.17-17.33q-.5-.73-4.39-4.6-3.06-3.05-4.75-4.09a1.1 1.1 0 00-1.57 1.41q.48 1.01 1.55 2.18.63.68 1.54 2.31 3.53 6.3 2.23 13.31-1.78 9.56-1.56 16.85a4.28 4.09 38.5 00.13.95q.96 3.6 3.52 6.71 1.26 1.53 3.4 3.89a3.01 2.99-65 01.78 2.17l-.32 6.95a7.99 7.9 41.7 00.11 1.73l.84 4.7a2.29 2.26-44.7 01-.01.82c-.8 3.75-1.59 6.22-1.57 9.91q.08 22.08.08 26.7a.97.96 88.4 01-.91.97c-1.71.09-3.78.06-5.39-.96-2.88-1.83-5.76-.26-5.89 3.06a1.72 1.66-61.5 00.28 1c1.71 2.48 4.12 3.49 6.38 1a1.21 1.19-68.6 01.89-.4h3.19a.73.73 0 01.73.71l.2 7.99" vector-effect="non-scaling-stroke"/><path stroke="#5a2d09" d="M100.51 133.34q.89.09.81-.57-.1-.92-2.15-.66" vector-effect="non-scaling-stroke"/><path stroke="#b8800a" d="M99.17 132.11q.71-.02.92-.19a.58.58 0 00-.02-.93q-.21-.15-.59-.14-10.49.15-17.76-.02a.6.6 0 00-.61.6v.27a.38.37-90 00.37.38l12.71-.06" vector-effect="non-scaling-stroke"/><path stroke="#5a2d09" d="m94.19 132.02-.1 1.38" vector-effect="non-scaling-stroke"/><path stroke="#b8800a" d="m94.09 133.4-6.93.02a.52.52 0 00-.21.99q.54.25 1.26.1" vector-effect="non-scaling-stroke"/><path stroke="#5a2d09" d="M88.21 134.51q-.72.12-.93.38-.4.51.05.99.13.14.66.23" vector-effect="non-scaling-stroke"/><path stroke="#b8800a" d="M87.99 136.11q-.72.02-1.08.31-.52.42-.16.9.24.35.96.22" vector-effect="non-scaling-stroke"/><path stroke="#5a2d09" d="M87.71 137.54q-.36.1-.58.28-.25.21-.21.57.06.42.4.77" vector-effect="non-scaling-stroke"/><path stroke="#b8800a" d="M87.32 139.16q-.45.17-.5.53-.11.72.86.67" vector-effect="non-scaling-stroke"/><path stroke="#5a2d09" d="M87.68 140.36q-1.28.28-2.14 1.64" vector-effect="non-scaling-stroke"/><path stroke="#a08110" d="m87.68 140.36 6.47-1.13a.58.57 79.3 00.46-.69v-.03a.6.6 0 00-.7-.48l-6.59 1.13m.39-1.62 6.58-1.2a.59.58 75.7 00.45-.76l-.12-.36a.34.33-13.5 00-.37-.22l-6.26 1.11m.22-1.6 5.88-1.11m.1-1.38 4.98.09" vector-effect="non-scaling-stroke"/><path stroke="#5a2d09" d="m155.01 98.73-6.8 6.59a.07.06 7 00.08.1l7.99-4.64" vector-effect="non-scaling-stroke"/><path stroke="#80bde0" d="M597 326.62q-13.04-7.3-27.5-5.49-3.78.47-15.94 3.52c-21.78 5.46-42.49 9.65-64.79 5.55q-5.21-.96-32.59-6.64-27.65-5.73-54.38.65c-20.68 4.94-38.75 9.37-57.55 7.07-24.3-2.97-46.08-12.42-69.99-10.2-17.48 1.63-36.52 7.18-51.27 9.62-20.06 3.32-36.4-1.27-57.24-6.67q-11.09-2.87-18.76-3.16-14.09-.55-29.36 3.03-25.31 5.93-28.46 6.52c-14.81 2.77-29.06 1.1-42.9-1.97q-16.3-3.62-27.26-5.73Q9.53 320.9 0 320.83m35.8-33.79h74.72a.74.74 0 00.74-.74v-4.25a58.61 37.95 90 00-37.95-58.61h-.3a58.61 37.95 90 00-37.95 58.61v4.25a.74.74 0 00.74.74m111.98.07 74.82-.14a.7.7 0 00.67-.68v-4.39a58.53 37.91 89.9 00-38.02-58.46h-.36a58.53 37.91 89.9 00-37.8 58.6v4.39a.7.7 0 00.69.68m112 0 74.8-.14a.7.7 0 00.69-.7v-4.32a58.58 37.92 89.9 00-38.03-58.51h-.36a58.58 37.92 89.9 00-37.81 58.65v4.32a.7.7 0 00.71.7m111.89-.08h74.9a.65.65 0 00.65-.65v-4.28a58.65 37.92-90 00-37.92-58.65h-.36a58.65 37.92 90 00-37.92 58.65v4.28a.65.65 0 00.65.65" vector-effect="non-scaling-stroke"/><path stroke="#80bde0" d="M483.71 287.04h74.74a.74.74 0 00.74-.74v-4.23a58.63 37.93 90 00-37.93-58.63h-.36a58.63 37.93 90 00-37.93 58.63v4.23a.74.74 0 00.74.74" vector-effect="non-scaling-stroke"/><path stroke="#b8800a" d="M84.97 24.6q.48.92 2.71 4.02c4.53 6.3 5.86 13.05 3.37 20.77q-3.91 12.13-4.45 14.15a10.47 10.39-42.4 00-.22 4.42q.34 2.06 1.55 8.06.62 3.05-.05 8.43a5.92 5.89 41.9 00.12 2.1l.81 3.33a6.01 5.94 45.5 01-.01 2.87c-1.08 4.4-1.97 6.69-1.17 11.15a2.34 2.13 42.3 01.04.42v24.67a.63.63 0 00.63.63h.88a.5.5 0 00.51-.51q0-2.77-.35-15.09-.09-3.42.46-14.01c.34-6.57-.1-12.15.66-17.04a.35.35 0 01.35-.3h.26a.5.5 0 01.48.5q-.36 11.57-.57 16.22c-.46 10.26.01 18.81-.26 29.49a.8.8 0 00.82.84h.75a.7.7 0 00.68-.68v-24.49a10.06 9.68 52 01.21-2.03c.76-3.61 1.22-6 .13-8.96-1.09-2.95.31-5.53 1.46-8.82q.29-.81-.46-3.84-3.94-15.97 1.6-31.16c.93-2.56 1.38-4.8.81-7.14q-2.67-10.99-11.29-18.37a.3.3 0 00-.46.37" vector-effect="non-scaling-stroke"/><path stroke="#b8800a" d="M77.58 30.85c7.17 7.07 4.26 17.15 2.72 28.17q-1.21 8.68 5.71 14.38a.1.1 0 00.15-.02l.18-.32a.2.2 0 00-.02-.24c-5.31-6.32-2.75-13.47-.64-22.14q.55-2.26.88-7.68.36-5.91-8.9-12.67a.13.13 0 00-.2.07v.01a.46.44 30.9 00.12.44m20.7 5.43q.01.23.93 3.57c1.41 5.09.75 12.15-.22 16.73q-1.65 7.78-4.76 17.03a.19.19 0 00.32.18c3.35-3.86 8.47-10.04 8.95-15.29.75-8.26.42-15.82-4.55-22.46a.37.37 0 00-.67.24m-18.21 95.18a2.46 2.46 0 00-2.46-2.46 2.46 2.46 0 00-2.46 2.46 2.46 2.46 0 002.46 2.46 2.46 2.46 0 002.46-2.46m26.33 0a2.47 2.47 0 00-2.47-2.47 2.47 2.47 0 00-2.47 2.47 2.47 2.47 0 002.47 2.47 2.47 2.47 0 002.47-2.47" vector-effect="non-scaling-stroke"/><path stroke="#a08110" d="M86.02 147.72q-.63-1.88.08-3.29a.74.74 0 00-.45-1.04Q66.23 137.8 63.01 118q-.42-2.6 0-4.71a.61.61 0 011-.34q1.58 1.36 2.33 1.94c6.31 4.86 13.96.42 15.04-6.73C82.61 100 77.54 96.35 71.25 90 55.26 73.88 45.94 53.99 40.61 31.59a.7.7-21.4 00-1-.43C17.8 43.41 55.41 86.05 63.79 97.19a2.95 2.95 0 01-.08 3.64c-7.7 9.44-10.75 20.04-3.26 30.58q9.09 12.81 25.14 16.78a.37.36-2.7 00.43-.47m9.35-3.17-.22 2.48a1.05 1.04 85.6 001.29 1.11q9.84-2.44 17.78-8.92c5.75-4.7 11.25-12.34 11.37-19.91.11-7.34-2.55-12.47-7.13-17.71-1.43-1.64-1.22-3.4.19-5.19 11.5-14.66 20.09-25.25 26.85-39.9 3.87-8.38 6.23-20.1-3.53-25.56a.58.58 0 00-.85.39q-6.34 30.28-25.48 53.37c-3.61 4.35-7.64 7.8-11.19 11.49q-6.37 6.62-3.2 15.01a4.41 4.33 16.4 00.59 1.06q6.89 9.15 15.87.7a.74.73 67.3 011.24.51q.48 14.19-9.68 23.24-5.99 5.35-12.52 6.35a1.66 1.64 88.2 00-1.38 1.48" vector-effect="non-scaling-stroke"/><path stroke="#a08110" d="M125.7 89.67a.1.09 33.6 00.13-.02q6.83-7.24 14.48-15.59 1.7-1.86 2.81-2.29a.6.59 67.5 01.76.32c3.06 7.24.25 15.42-5.11 20.69q-1.8 1.77-3.64 3.61a.23.22-44.1 00-.01.32l.01.01a.25.25 0 00.34.02Q146 87.67 152.76 76c4.58-7.9 7.45-17.33 2.18-25.71a.35.35 0 00-.6.01q-9.72 17.55-23.9 32.68a5.88 5.67 83.8 00-.58.75q-1.97 3.09-4.45 5.56a.15.15 38.5 00.03.23l.26.15m-73.4-5.23a.3.3 0 00.05-.37q-3.73-5.11-7-9.1a161 161 0 01-16.3-24.04.4.4 0 00-.67-.03c-4.21 6.08-3.06 14.63-.25 20.75q6.78 14.75 20.71 26.49.79.66.94 1.15.19.64.97.57a1 .96 59.8 01.66.19l3.64 2.74a.1.1-56.4 00.12-.03l.12-.22a.24.24 33.4 00-.07-.32q-7.48-4.84-12.57-11.1c-3.94-4.83-6.11-12.5-3.15-18.32a.9.9 0 011.48-.2l10.95 11.82a.28.27 49.2 00.36.03l.01-.01" vector-effect="non-scaling-stroke"/><path stroke="#a08110" d="M134.19 113.27q17.94-9.5 29.12-26.52c4.21-6.4 6.53-14.83 2.95-22.13a.5.5 0 00-.84-.07q-12.97 17.98-30.15 33.68a.28.28 0 00.33.45q4.1-2.18 8.81-2.87a1.4 1.39 86.3 011.59 1.4c-.11 6.92-6.34 12.01-12.16 15.72a.16.16 0 00-.06.21l.01.01a.3.3 0 00.4.12m-85.08.59a.3.3 0 00.4-.12l.01-.01a.16.16 0 00-.06-.21c-5.8-3.7-12.02-8.78-12.12-15.68a1.4 1.4 0 011.58-1.4q4.7.69 8.79 2.87a.28.28 0 00.33-.45Q30.91 83.2 17.98 65.27a.5.5 0 00-.84.07c-3.57 7.28-1.26 15.68 2.94 22.07q11.14 16.97 29.03 26.45m94.19-40.15a.56.56 0 00-.94-.23l-23.3 24.64a1.71 1.7 58.9 00-.4 1.63l.05.2a.65.65 0 001.03.34l13.64-10.93a.46.45 71.5 01.74.37q-.01.49-.29.86-4.59 6.08-11.96 12.48a.66.66 0 00-.1.87l.02.04a.65.64 55.8 00.88.17q7.21-4.69 13.5-10.21c5.95-5.22 9.53-12.38 7.13-20.23m-103.21.47c-4.19 13.71 9.3 23.04 19.24 29.63a.68.68 0 001-.28l.02-.04a1.05 1.05 0 00-.28-1.23q-6.12-5.27-10.71-11.16a.6.6 0 01.53-.97q.26.03.93.56 7.91 6.2 11.34 9.04a.76.76 0 001.15-.94q-1.03-1.95-2.66-3.69-9.6-10.33-19.81-21.1a.45.44-58 00-.75.18" vector-effect="non-scaling-stroke"/><path stroke="#a08110" d="M136.89 125.89q5.13-.19 10.26-3.22c9.82-5.8 22.38-15.2 20.27-27.91a.71.71 0 00-1.15-.44q-17.64 14.07-39.01 23.03a.43.42 67.6 00-.23.56l.05.11a.45.45 0 00.62.22c6.03-3.05 13.2-5.47 19.9-4.84a.66.66 0 01.6.61c.4 5.79-7.01 9.27-11.39 11.58a.16.16 0 00.08.3m-90.42.4-5-2.74q-5.09-2.8-6.44-8.03a1.34 1.33-7.2 011.3-1.67q9.08.03 17.9 4.41a.45.44 23.2 00.62-.24l.05-.15a.4.39-67.9 00-.21-.5q-20.53-8.78-38.07-22.7a.46.46 0 00-.74.32c-1.44 14.1 11.35 23.38 22.16 29.19q3.6 1.94 8.28 2.43a.19.18-20.5 00.15-.32m81.23-11.32q9-3.88 15.01-11.02 1.71-2.03 2.24-5.97a.87.86-.8 00-1-.97c-7.1 1.17-13.61 5.94-19.36 10.74a.8.8 0 00-.12 1.14l.76.95a.62.61 53.8 00.81.13q4.06-2.72 8-4.68 1.67-.84 1.07.77a.62.54-14.4 01-.18.26l-8.39 6.72a1.14 1.14 0 001.16 1.93m-78.8-9.44 7.36 4.24a.37.37 0 00.51-.13l.82-1.43a.7.69 35.1 00-.16-.89c-5.02-4.19-11.4-8.62-17.93-9.59a.88.88 0 00-1.01.9c.25 7 9.75 13.38 15.45 16.17a1.3 1.3 0 001.41-2.17l-7.2-6.02a.66.66 0 01.75-1.08m77.74-1.13a2.04.42-33 00-1.94.77 2.04.42-33 00-1.48 1.46 2.04.42-33 001.94-.76 2.04.42-33 001.48-1.46" vector-effect="non-scaling-stroke"/><path stroke="#5a2d09" d="M57.05 105.19a.99.39-139.6 00.5.94.99.39-139.6 001 .34.99.39-139.6 00-.5-.94.99.39-139.6 00-1-.34" vector-effect="non-scaling-stroke"/><path stroke="#a08110" d="m126.96 122.47 8.7-2.88a.63.63 0 01.51 1.15q-2.55 1.46-10.3 5.22-.94.46-1.06 1.41a.45.45 0 00.52.5c6.84-1.08 19.79-4.96 21.8-12.74a.6.6 0 00-.55-.74c-6.57-.25-13 2.13-19.2 5.19a1.48 1.47-10.9 00-.81 1.19l-.12 1.3a.4.4 0 00.51.4m-71.85-2.16a1.11 1.1-82.9 00-.63-.82c-6.29-2.89-11.33-4.69-17.77-4.44a.53.53 0 00-.48.68q1.01 3.22 2.56 4.53 6.58 5.57 17.68 7.93a.5.5 0 00.6-.48q.03-1.29-1.02-1.8-5.7-2.8-8.13-4.3-1.06-.66-.62-1.24a.4.4 0 01.42-.13l7.09 2.34a.47.47 0 00.61-.53l-.31-1.74m72.2 19.59a.27.27 0 00.08.53q10.97-.31 21.65-5c6.62-2.9 12.02-7.23 13.48-14.61a.35.35 0 00-.45-.4q-18.21 6.18-37.43 8.84a1.61 1.6-79.1 00-1.17.8l-.28.48a.37.37 0 00.38.55c6.67-1.14 13.7-2.16 20.32-.54a.76.76 0 01.52 1.05c-1.82 4.14-7.24 5.99-11.75 7.01q-4 .9-5.35 1.29m-71.19.35c-5.55-.57-13.72-2.44-17.11-7.65a1 1 0 01.66-1.52q9.76-1.71 18.85.55a.4.39-14.3 00.39-.65l-.87-.94a1.5 1.46 71.6 00-.87-.45q-17.82-2.45-35.43-8.36a.61.6-87.6 00-.78.72c2.99 12.49 17.97 16.64 28.9 18.61q4.12.74 6.3.14a.23.23 0 00-.04-.45" vector-effect="non-scaling-stroke"/><path stroke="#a08110" d="M121.31 134.77q4.68-.54 8.14-.72a.53.51 6.1 01.55.65q-.08.3-.4.41-3.61 1.15-11.11 2.55-1.59.3-2.21 1.13a.3.3 0 00.22.46q11.67.41 22.27-3.69 2.24-.87 4.17-3a.81.81 0 00-.5-1.34q-10.03-1.22-19.83 1.3-1.09.28-1.7 1.73a.38.38 0 00.4.52m-59.9.6a.37.37 0 00.39-.5q-.59-1.42-1.65-1.69-9.53-2.51-19.3-1.37a.79.78-24.3 00-.49 1.3q1.86 2.09 4.04 2.94 10.3 4.05 21.67 3.71a.28.28 0 00.22-.44q-.6-.82-2.15-1.12-7.3-1.4-10.81-2.54-.31-.11-.38-.4a.52.5-5.8 01.54-.63q3.36.19 7.92.74m54.21 5.55q9.52.63 18.03 4.69a1.07 1.07 0 01.14 1.86c-7.31 4.9-20.62 1.46-28.59-.99a1.17 1.14-49.1 00-.84.07l-1.4.67a.27.26 42 00.03.49c11.63 4.19 39.31 8.67 45.65-6.21a.45.45 0 00-.46-.63q-15.4 1.5-32.5-.57a.2.2 0 00-.22.2v.26a.17.16 1.9 00.16.16m-21.11.58a.57.57 0 00-.65-.47l-6.6 1a.57.57 0 00-.48.65v.05a.57.57 0 00.66.48l6.6-1a.57.57 0 00.48-.65v-.05m-26.85.09a.17.16-1.8 00.16-.16v-.26a.2.2 0 00-.22-.2q-17.04 2.02-32.37.5a.45.45 0 00-.46.62c6.28 14.84 33.86 10.44 45.46 6.29a.27.26-41.9 00.03-.49l-1.39-.67a1.16 1.14 49.2 00-.84-.07c-7.94 2.42-21.21 5.82-28.48.92a1.07 1.07 0 01.14-1.85q8.49-4.03 17.97-4.63" vector-effect="non-scaling-stroke"/><path stroke="#a08110" d="M106.8 145.74c6.61 2.32 18.97 5.01 25.86 1.35a.52.52 0 00-.04-.94q-8.69-3.79-19.34-4.3-.93-.04-1.92.89a.22.22 0 00.11.37l9.17 1.81a.3.3 0 01.24.37l-.05.3a.76.75 8 01-.81.6l-12.74-1.14a.45.44-70.1 00-.42.2l-.15.21a.18.18 0 00.09.28m-30.56.7a.18.18 0 00.09-.27l-.15-.21a.4.4 0 00-.41-.2l-12.58 1.08a.75.74-7.8 01-.8-.6l-.05-.29a.3.3 0 01.24-.37l9.06-1.75a.21.21 0 00.11-.37q-.97-.92-1.89-.88-10.52.46-19.11 4.17a.52.51-42.4 00-.04.93c6.79 3.64 19 1.03 25.53-1.24m18.13-2.06a.53.53 0 00-.62-.43l-6.54 1.12a.53.53 0 00-.43.6l.01.1a.53.53 0 00.62.44l6.54-1.12a.53.53 0 00.43-.6l-.01-.1m-.13 3.03a.54.54 0 00-.61-.45l-6.33.97a.54.54 0 00-.45.62v.04a.54.54 0 00.62.45l6.33-.97a.54.54 0 00.45-.62v-.04" vector-effect="non-scaling-stroke"/><path stroke="#5a2d09" d="M101.94 148.52q.1-.36-.12-.47a.3.27 82.4 00-.31.46q.09.14.23.15a.19.18-79.3 00.2-.14" vector-effect="non-scaling-stroke"/><path stroke="#a08110" d="m95.59 149.42-.59 1.81a1.12 1.11 38.5 00.11.95c3.01 4.91 8.81 11.39 14.91 11.41a.62.62 0 00.61-.77q-1.02-4.19-3.32-7.74a2.12 1.85 89.5 00-.4-.45l-7.42-6.21a.11.11 16 00-.17.09l.08.5a6.79 6.67 37.6 00.44.85l2.56 4.08a.48.48 0 01-.74.61l-5.56-5.26a.32.31-58.9 00-.51.13m6.62-.43a.2.2 0 00-.04.34c7.07 6.42 22.13 16.35 31.3 9.6a.36.36 0 00-.06-.62q-3.43-1.67-10.33-5.22-.61-.31-2.57-.42a.27.27 0 00-.2.46l3.63 3.43a.9.9 0 01-.24 1.47q-2.23 1.03-4.87.16-8.9-2.92-16.23-9.39a.08.06-38 00-.07 0l-.32.19m-20.68.29-.33-.19a.08.06 37.5 00-.07 0q-7.38 6.62-16.39 9.65-2.67.9-4.94-.13a.9.9 0 01-.26-1.49l3.66-3.5a.27.27 0 00-.21-.47q-1.98.13-2.6.45-6.97 3.65-10.44 5.37a.37.37 0 00-.05.63c9.35 6.78 24.55-3.41 31.67-9.98a.2.2 0 00-.04-.34m3.84 2.51-3.84 3.57a.28.27 39 01-.33.03l-.24-.13a.4.4 0 01-.13-.56l3.29-5.26v-.04l-.21-.15a.1.1-42.1 00-.13 0l-7.72 6.19a1 1 0 00-.29.37l-3.25 7.26a.8.79 11.8 00.74 1.12c5.46-.04 9.32-4.06 12.28-7.7a1.31 1.3-22.9 00.28-.68l.32-3.64a.46.46 0 00-.77-.38m8.77-1.62a.46.46 0 00-.53-.38l-6.23 1.08a.46.46 0 00-.37.53l.03.2a.46.46 0 00.53.37l6.23-1.08a.46.46 0 00.37-.53l-.03-.2" vector-effect="non-scaling-stroke"/><path stroke="#a08110" d="M114.9 152.08a.34.34 0 00-.35.4q.03.18-.06.27-.57.57-1.19.23-3.71-2.03-6.96-2.98a.18.18 0 00-.16.31c4.21 3.22 11.03 7.64 16.33 7.01a.35.35 0 00.22-.58c-2.29-2.56-4.34-4.57-7.83-4.66m-46.19.47c-3.56.1-5.64 2.15-7.96 4.76a.36.35-65.9 00.22.59c5.4.63 12.33-3.89 16.6-7.17a.18.18 0 00-.16-.32q-3.3.98-7.07 3.05-.64.35-1.22-.23-.09-.09-.06-.28a.35.35 4.1 00-.35-.4m25.27.53a.33.33 0 00-.38-.27l-6.36 1.02a.33.33 0 00-.27.37l.07.44a.33.33 0 00.38.27l6.36-1.02a.33.33 0 00.27-.37l-.07-.44m-.08 2.96a.4.4 0 00-.5-.34l-5.98 1.06a.4.4 0 00-.34.49l.04.23a.4.4 0 00.5.34l5.98-1.06a.4.4 0 00.34-.49l-.04-.23m-.11 3a.45.45 0 00-.52-.37l-5.8 1.01a.45.45 0 00-.36.52l.02.14a.45.45 0 00.52.37l5.8-1.01a.45.45 0 00.36-.52l-.02-.14" vector-effect="non-scaling-stroke"/><path stroke="#5a2d09" d="M93.78 161.46a.64.47-12.1 00-.73-.33.64.47-12.1 00-.53.6.64.47-12.1 00.73.32.64.47-12.1 00.53-.6" vector-effect="non-scaling-stroke"/><path stroke="#a08110" d="m93.95 163.21-7.04.08a.14.14 0 00-.14.14v.08a3.58 3.42-.6 003.62 3.38h.16a3.58 3.42-.6 003.54-3.46v-.08a.14.14 0 00-.14-.14M38.27 43.1c-.71 3.04 2.19 9.99 3.41 12.77q10.21 23.17 27.66 41.72c3.07 3.27 6.96 3.83 5.88 9.78a.4.4 0 00.52.45c5.18-1.81 1.33-6.2-1.21-8.19C66.59 93.41 60.06 85.21 54 75.28q-10.71-17.57-15.34-32.2a.2.2 0 00-.39.02m104.56.19a.2.2 0 00-.39-.02q-4.63 14.58-15.32 32.08c-6.05 9.89-12.57 18.06-20.49 24.25-2.53 1.98-6.37 6.35-1.21 8.16a.4.4 0 00.52-.45c-1.07-5.93 2.8-6.49 5.87-9.74q17.41-18.47 27.61-41.55c1.22-2.77 4.12-9.7 3.41-12.73" vector-effect="non-scaling-stroke"/></g><path fill="#e7252d" d="m184.82 0 .03 188.17a.4.4 0 01-.39.39L0 188.57V0zM85.54 142q-15.68-4.14-20.34-19.49-1.21-3.99-1.14-7.57a.33.33 0 01.6-.18c3.33 4.7 10.11 4.05 14.13.54 6.03-5.29 4.75-15.22-.83-20.34-8.01-7.35-15.48-15.92-21.22-25.57q-10.46-17.62-15.1-38.66a1.5 1.5 0 00-2.18-.99q-5.84 3.14-7.28 8.83c-.6 2.35-.3 4.89-.3 8.19a1.64 1.51-56.6 00.08.5l3.97 12.03a.15.15 0 01-.27.14l-3.46-4.76a.84.69 20.7 01-.11-.19q-.91-2.15-2.96-5.2a.59.58-32.5 00-.79-.17c-2.54 1.57-4.05 8.81-4.22 11.19-.34 4.94 3.11 11.92 5.42 16.55a.4.4 0 01-.63.47c-3.63-3.29-5.71-7.01-8.67-11.11-.77-1.06-1.52-2.51-2.81-2.82a.8.79 21 00-.88.39q-3.68 6.64-2.1 13.1 2.38 9.74 9.02 17.2 1.86 2.09 8 8.63a.46.45 85.4 01-.58.69l-14.47-10a.9.89-62.1 00-1.34.42c-1.34 3.47-.31 6.98.49 10.57a4.34 4.18-65.7 00.32.9c4.09 8.33 10.47 13.32 18.22 18.03a.28.28 0 01-.23.5l-13.03-4.3a.59.58 14.3 00-.76.45q-.44 2.43-.24 2.98 3.5 9.61 12.98 13.73 5.32 2.32 11.03 3.94-5.04.17-9.21-.48a1.16 1.16 0 00-1.28 1.51c2.33 6.92 9.55 10.32 16.71 11.29q4.83.66 7.08.67a.28.28 0 01.12.53l-8.36 3.99a1.12 1.12 0 00-.2 1.89c5.41 4.21 12.89 3.47 18.6.51l5.81-2.99a.19.19 0 01.26.23L71.33 164a.65.64-67.2 00.31.77c4.79 2.51 11.07-3.41 13.73-6.54a.49.49 0 01.82.52q-.62 1.4-.08 2.43a.63.62-29.8 01-.23.83q-1.01.62-.25 2.43.67 1.63 2.21 2.91a1.98 1.93 70.2 00.86.42q4.33.88 6.21-2.51 1.26-2.27 0-3.81a1.2 1.2 0 01-.25-.82l.52-5.79a.36.35 20 00-.16-.33l-.31-.22a.12.12 0 01.09-.22q.15.02.36.29c3.57 4.6 8.18 9.83 13.92 10.64a2.59 2.12 8.4 002.85-1.71q.01-.05-.48-2.06-.23-.97-1.03-3.34a.39.39 0 01.57-.46c6.16 3.67 17.19 7.78 23.69 1.86a.84.83-51.3 00-.14-1.33l-7.76-4.48a.16.15 57.3 01.06-.29c7.64-.58 15.52-1.72 20.52-7.79q1.94-2.36 2.45-4.41a.95.95 0 00-.96-1.19l-9.46.43a.2.2 0 01-.15-.1l-.01-.01a.24.24-10.8 01.18-.26q6.89-1.7 13.56-5.17 7.76-4.04 10.24-12.44.42-1.43-.06-2.52a.86.85-25.1 00-1.15-.41c-4.41 2.15-8.72 2.78-13.3 4.14a.16.15 18.4 01-.14-.27c10.01-6.95 19.82-13.38 20.59-26.92a1.64 1.56 38.9 00-.08-.61l-.87-2.63a.56.55-21.2 00-.76-.33q-2.51 1.16-2.95 1.54-3.97 3.45-8.21 6.54-.87-.99-1.27-2.05 8.29-7.86 12.83-18.45a4.42 4.29-28.9 00.29-.95c1.07-5.68 1.87-10.64-1.48-15.79a1 1 0 00-1.44-.27q-.57.4-.86.84-5.39 8.51-11.91 15.4a.24.24 0 01-.39-.28q3.35-6.18 5.17-10.69c.96-2.36 1.14-4.71 1.63-6.89.98-4.27-1.03-9.86-3.58-13.05a.7.7 0 00-1.07-.02q-.91 1.07-1.44 2.15-5.06 10.36-12.5 19.14a.13.12-50.1 01-.17.02l-.22-.15a.45.45 0 01-.12-.63q5.67-8.44 8.99-18.46 1.11-3.37 1.28-5.99.23-3.76-.47-6.11-1.93-6.5-8.12-8.84a.73.73 0 00-.97.51q-2.03 8.42-4.95 16.99-9 26.37-28.96 44.86c-6.98 6.46-10.93 14.7-4.17 22.96a3.98 3.91 87.5 00.75.7q7.19 5.26 14.07-.8a.3.3 0 01.49.23c-.15 12.46-8.11 23.68-20.43 26.53a1.64 1.34-13.7 01-1.88-.9q-.14-.55.45-1.64a.82.8-44.2 00.02-.74l-.18-.39a1.23 1.21-47.1 01-.03-1q.51-1.22.04-2.34a.95.95 0 01.87-1.31l3.96-.03q3.11 3.1 6.2.62a1.7 1.69 80.4 00.53-.75c1.47-4.28-2.62-7.21-6.29-4.05a1.22 1.19-64.7 01-.78.29h-5.3a.64.64 0 01-.64-.64l.09-25.57a1.36.96 61.8 01.04-.32q1.56-5.37.08-10.13-.73-2.36.44-4.61 2.12-4.09.64-8.33c-.59-1.7-1.07-3.85-.02-5.09q3.51-4.13 6.11-7.81c4.38-6.2 4.24-15.7 2.55-22.94q-.97-4.18-3.82-7.95-3.17-4.19-5.87-6.72a.31.31 0 00-.48.39q2.35 3.67 3.15 8.78a.02.02 0 01-.04.01q-4.13-10-12.87-16.92a1.85 1.67 71.1 00-.45-.25l-2.68-1.01a.37.36 80.9 00-.41.57c1.29 1.63 2.14 3.15 3.56 5q4.06 5.3 6.36 11.3a4.11 4.06 32.5 01.24 1.05q.39 4.21-.45 8.18-1.87 8.91-5.34 16.6a.24.24 0 01-.45-.13l1.24-8.71a1.11.89-40.9 01.03-.14c1.96-6.4 3.65-12.21.17-17.33q-.5-.73-4.39-4.6-3.06-3.05-4.75-4.09a1.1 1.1 0 00-1.57 1.41q.48 1.01 1.55 2.18.63.68 1.54 2.31 3.53 6.3 2.23 13.31-1.78 9.56-1.56 16.85a4.28 4.09 38.5 00.13.95q.96 3.6 3.52 6.71 1.26 1.53 3.4 3.89a3.01 2.99-65 01.78 2.17l-.32 6.95a7.99 7.9 41.7 00.11 1.73l.84 4.7a2.29 2.26-44.7 01-.01.82c-.8 3.75-1.59 6.22-1.57 9.91q.08 22.08.08 26.7a.97.96 88.4 01-.91.97c-1.71.09-3.78.06-5.39-.96-2.88-1.83-5.76-.26-5.89 3.06a1.72 1.66-61.5 00.28 1c1.71 2.48 4.12 3.49 6.38 1a1.21 1.19-68.6 01.89-.4h3.19a.73.73 0 01.73.71z"/><path fill="#fff" d="M597 0v326.62q-13.04-7.3-27.5-5.49-3.78.47-15.94 3.52c-21.78 5.46-42.49 9.65-64.79 5.55q-5.21-.96-32.59-6.64-27.65-5.73-54.38.65c-20.68 4.94-38.75 9.37-57.55 7.07-24.3-2.97-46.08-12.42-69.99-10.2-17.48 1.63-36.52 7.18-51.27 9.62-20.06 3.32-36.4-1.27-57.24-6.67q-11.09-2.87-18.76-3.16-14.09-.55-29.36 3.03-25.31 5.93-28.46 6.52c-14.81 2.77-29.06 1.1-42.9-1.97q-16.3-3.62-27.26-5.73Q9.53 320.9 0 320.83V188.57l184.46-.01a.4.4 0 00.39-.39L184.82 0zM35.8 287.04h74.72a.74.74 0 00.74-.74v-4.25a58.61 37.95 90 00-37.95-58.61h-.3a58.61 37.95 90 00-37.95 58.61v4.25a.74.74 0 00.74.74m111.98.07 74.82-.14a.7.7 0 00.67-.68v-4.39a58.53 37.91 89.9 00-38.02-58.46h-.36a58.53 37.91 89.9 00-37.8 58.6v4.39a.7.7 0 00.69.68m112 0 74.8-.14a.7.7 0 00.69-.7v-4.32a58.58 37.92 89.9 00-38.03-58.51h-.36a58.58 37.92 89.9 00-37.81 58.65v4.32a.7.7 0 00.71.7m111.89-.08h74.9a.65.65 0 00.65-.65v-4.28a58.65 37.92-90 00-37.92-58.65h-.36a58.65 37.92 90 00-37.92 58.65v4.28a.65.65 0 00.65.65m112.04.01h74.74a.74.74 0 00.74-.74v-4.23a58.63 37.93 90 00-37.93-58.63h-.36a58.63 37.93 90 00-37.93 58.63v4.23a.74.74 0 00.74.74"/><path fill="#722c03" d="M100.51 133.34q.89.09.81-.57-.1-.92-2.15-.66.71-.02.92-.19a.58.58 0 00-.02-.93q-.21-.15-.59-.14-10.49.15-17.76-.02a.6.6 0 00-.61.6v.27a.38.37-90 00.37.38l12.71-.06-.1 1.38-6.93.02a.52.52 0 00-.21.99q.54.25 1.26.1-.72.12-.93.38-.4.51.05.99.13.14.66.23-.72.02-1.08.31-.52.42-.16.9.24.35.96.22-.36.1-.58.28-.25.21-.21.57.06.42.4.77-.45.17-.5.53-.11.72.86.67-1.28.28-2.14 1.64l-.2-7.99a.73.73 0 00-.73-.71h-3.19a1.21 1.19-68.6 00-.89.4c-2.26 2.49-4.67 1.48-6.38-1a1.72 1.66-61.5 01-.28-1c.13-3.32 3.01-4.89 5.89-3.06 1.61 1.02 3.68 1.05 5.39.96a.97.96 88.4 00.91-.97q0-4.62-.08-26.7c-.02-3.69.77-6.16 1.57-9.91a2.29 2.26-44.7 00.01-.82l-.84-4.7a7.99 7.9 41.7 01-.11-1.73l.32-6.95a3.01 2.99-65 00-.78-2.17q-2.14-2.36-3.4-3.89-2.56-3.11-3.52-6.71a4.28 4.09 38.5 01-.13-.95q-.22-7.29 1.56-16.85 1.3-7.01-2.23-13.31-.91-1.63-1.54-2.31-1.07-1.17-1.55-2.18a1.1 1.1 0 011.57-1.41q1.69 1.04 4.75 4.09 3.89 3.87 4.39 4.6c3.48 5.12 1.79 10.93-.17 17.33a1.11.89-40.9 00-.03.14l-1.24 8.71a.24.24 0 00.45.13q3.47-7.69 5.34-16.6.84-3.97.45-8.18a4.11 4.06 32.5 00-.24-1.05q-2.3-6-6.36-11.3c-1.42-1.85-2.27-3.37-3.56-5a.37.36 80.9 01.41-.57l2.68 1.01a1.85 1.67 71.1 01.45.25q8.74 6.92 12.87 16.92a.02.02 0 00.04-.01q-.8-5.11-3.15-8.78a.31.31 0 01.48-.39q2.7 2.53 5.87 6.72 2.85 3.77 3.82 7.95c1.69 7.24 1.83 16.74-2.55 22.94q-2.6 3.68-6.11 7.81c-1.05 1.24-.57 3.39.02 5.09q1.48 4.24-.64 8.33-1.17 2.25-.44 4.61 1.48 4.76-.08 10.13a1.36.96 61.8 00-.04.32l-.09 25.57a.64.64 0 00.64.64h5.3a1.22 1.19-64.7 00.78-.29c3.67-3.16 7.76-.23 6.29 4.05a1.7 1.69 80.4 01-.53.75q-3.09 2.48-6.2-.62M84.97 24.6q.48.92 2.71 4.02c4.53 6.3 5.86 13.05 3.37 20.77q-3.91 12.13-4.45 14.15a10.47 10.39-42.4 00-.22 4.42q.34 2.06 1.55 8.06.62 3.05-.05 8.43a5.92 5.89 41.9 00.12 2.1l.81 3.33a6.01 5.94 45.5 01-.01 2.87c-1.08 4.4-1.97 6.69-1.17 11.15a2.34 2.13 42.3 01.04.42v24.67a.63.63 0 00.63.63h.88a.5.5 0 00.51-.51q0-2.77-.35-15.09-.09-3.42.46-14.01c.34-6.57-.1-12.15.66-17.04a.35.35 0 01.35-.3h.26a.5.5 0 01.48.5q-.36 11.57-.57 16.22c-.46 10.26.01 18.81-.26 29.49a.8.8 0 00.82.84h.75a.7.7 0 00.68-.68v-24.49a10.06 9.68 52 01.21-2.03c.76-3.61 1.22-6 .13-8.96-1.09-2.95.31-5.53 1.46-8.82q.29-.81-.46-3.84-3.94-15.97 1.6-31.16c.93-2.56 1.38-4.8.81-7.14q-2.67-10.99-11.29-18.37a.3.3 0 00-.46.37m-7.39 6.25c7.17 7.07 4.26 17.15 2.72 28.17q-1.21 8.68 5.71 14.38a.1.1 0 00.15-.02l.18-.32a.2.2 0 00-.02-.24c-5.31-6.32-2.75-13.47-.64-22.14q.55-2.26.88-7.68.36-5.91-8.9-12.67a.13.13 0 00-.2.07v.01a.46.44 30.9 00.12.44m20.7 5.43q.01.23.93 3.57c1.41 5.09.75 12.15-.22 16.73q-1.65 7.78-4.76 17.03a.19.19 0 00.32.18c3.35-3.86 8.47-10.04 8.95-15.29.75-8.26.42-15.82-4.55-22.46a.37.37 0 00-.67.24m-18.21 95.18a2.46 2.46 0 00-2.46-2.46 2.46 2.46 0 00-2.46 2.46 2.46 2.46 0 002.46 2.46 2.46 2.46 0 002.46-2.46m26.33 0a2.47 2.47 0 00-2.47-2.47 2.47 2.47 0 00-2.47 2.47 2.47 2.47 0 002.47 2.47 2.47 2.47 0 002.47-2.47"/><path fill="#fdd311" d="M85.43 24.23q8.62 7.38 11.29 18.37c.57 2.34.12 4.58-.81 7.14q-5.54 15.19-1.6 31.16.75 3.03.46 3.84c-1.15 3.29-2.55 5.87-1.46 8.82s.63 5.35-.13 8.96a10.06 9.68 52 00-.21 2.03v24.49a.7.7 0 01-.68.68h-.75a.8.8 0 01-.82-.84c.27-10.68-.2-19.23.26-29.49q.21-4.65.57-16.22a.5.5 0 00-.48-.5h-.26a.35.35 0 00-.35.3c-.76 4.89-.32 10.47-.66 17.04q-.55 10.59-.46 14.01.35 12.32.35 15.09a.5.5 0 01-.51.51h-.88a.63.63 0 01-.63-.63v-24.67a2.34 2.13 42.3 00-.04-.42c-.8-4.46.09-6.75 1.17-11.15a6.01 5.94 45.5 00.01-2.87L88 86.55a5.92 5.89 41.9 01-.12-2.1q.67-5.38.05-8.43-1.21-6-1.55-8.06a10.47 10.39-42.4 01.22-4.42q.54-2.02 4.45-14.15c2.49-7.72 1.16-14.47-3.37-20.77q-2.23-3.1-2.71-4.02a.3.3 0 01.46-.37"/><path fill="#422e0e" d="M85.54 142q.86-1.36 2.14-1.64l6.47-1.13a.58.57 79.3 00.46-.69v-.03a.6.6 0 00-.7-.48l-6.59 1.13q-.34-.35-.4-.77-.04-.36.21-.57.22-.18.58-.28l6.58-1.2a.59.58 75.7 00.45-.76l-.12-.36a.34.33-13.5 00-.37-.22l-6.26 1.11q-.53-.09-.66-.23-.45-.48-.05-.99.21-.26.93-.38l5.88-1.11.1-1.38 4.98.09q2.05-.26 2.15.66.08.66-.81.57l-3.96.03a.95.95 0 00-.87 1.31q.47 1.12-.04 2.34a1.23 1.21-47.1 00.03 1l.18.39a.82.8-44.2 01-.02.74q-.59 1.09-.45 1.64a1.64 1.34-13.7 001.88.9c12.32-2.85 20.28-14.07 20.43-26.53a.3.3 0 00-.49-.23q-6.88 6.06-14.07.8a3.98 3.91 87.5 01-.75-.7c-6.76-8.26-2.81-16.5 4.17-22.96q19.96-18.49 28.96-44.86 2.92-8.57 4.95-16.99a.73.73 0 01.97-.51q6.19 2.34 8.12 8.84.7 2.35.47 6.11-.17 2.62-1.28 5.99-3.32 10.02-8.99 18.46a.45.45 0 00.12.63l.22.15a.13.12-50.1 00.17-.02q7.44-8.78 12.5-19.14.53-1.08 1.44-2.15a.7.7 0 011.07.02c2.55 3.19 4.56 8.78 3.58 13.05-.49 2.18-.67 4.53-1.63 6.89q-1.82 4.51-5.17 10.69a.24.24 0 00.39.28q6.52-6.89 11.91-15.4.29-.44.86-.84a1 1 0 011.44.27c3.35 5.15 2.55 10.11 1.48 15.79a4.42 4.29-28.9 01-.29.95q-4.54 10.59-12.83 18.45l-6.8 6.59a.07.06 7 00.08.1l7.99-4.64q4.24-3.09 8.21-6.54.44-.38 2.95-1.54a.56.55-21.2 01.76.33l.87 2.63a1.64 1.56 38.9 01.08.61c-.77 13.54-10.58 19.97-20.59 26.92a.16.15 18.4 00.14.27c4.58-1.36 8.89-1.99 13.3-4.14a.86.85-25.1 011.15.41q.48 1.09.06 2.52-2.48 8.4-10.24 12.44-6.67 3.47-13.56 5.17a.24.24-10.8 00-.18.26l.01.01a.2.2 0 00.15.1l9.46-.43a.95.95 0 01.96 1.19q-.51 2.05-2.45 4.41c-5 6.07-12.88 7.21-20.52 7.79a.16.15 57.3 00-.06.29l7.76 4.48a.84.83-51.3 01.14 1.33c-6.5 5.92-17.53 1.81-23.69-1.86a.39.39 0 00-.57.46q.8 2.37 1.03 3.34.49 2.01.48 2.06a2.59 2.12 8.4 01-2.85 1.71c-5.74-.81-10.35-6.04-13.92-10.64q-.21-.27-.36-.29a.12.12 0 00-.09.22l.31.22a.36.35 20 01.16.33l-.52 5.79a1.2 1.2 0 00.25.82q1.26 1.54 0 3.81-1.88 3.39-6.21 2.51a1.98 1.93 70.2 01-.86-.42q-1.54-1.28-2.21-2.91-.76-1.81.25-2.43a.63.62-29.8 00.23-.83q-.54-1.03.08-2.43a.49.49 0 00-.82-.52c-2.66 3.13-8.94 9.05-13.73 6.54a.65.64-67.2 01-.31-.77l2.06-6.23a.19.19 0 00-.26-.23l-5.81 2.99c-5.71 2.96-13.19 3.7-18.6-.51a1.12 1.12 0 01.2-1.89l8.36-3.99a.28.28 0 00-.12-.53q-2.25-.01-7.08-.67c-7.16-.97-14.38-4.37-16.71-11.29a1.16 1.16 0 011.28-1.51q4.17.65 9.21.48-5.71-1.62-11.03-3.94-9.48-4.12-12.98-13.73-.2-.55.24-2.98a.59.58 14.3 01.76-.45l13.03 4.3a.28.28 0 00.23-.5c-7.75-4.71-14.13-9.7-18.22-18.03a4.34 4.18-65.7 01-.32-.9c-.8-3.59-1.83-7.1-.49-10.57a.9.89-62.1 011.34-.42l14.47 10a.46.45 85.4 00.58-.69q-6.14-6.54-8-8.63-6.64-7.46-9.02-17.2-1.58-6.46 2.1-13.1a.8.79 21 01.88-.39c1.29.31 2.04 1.76 2.81 2.82 2.96 4.1 5.04 7.82 8.67 11.11a.4.4 0 00.63-.47c-2.31-4.63-5.76-11.61-5.42-16.55.17-2.38 1.68-9.62 4.22-11.19a.59.58-32.5 01.79.17q2.05 3.05 2.96 5.2a.84.69 20.7 00.11.19l3.46 4.76a.15.15 0 00.27-.14l-3.97-12.03a1.64 1.51-56.6 01-.08-.5c0-3.3-.3-5.84.3-8.19q1.44-5.69 7.28-8.83a1.5 1.5 0 012.18.99q4.64 21.04 15.1 38.66c5.74 9.65 13.21 18.22 21.22 25.57 5.58 5.12 6.86 15.05.83 20.34-4.02 3.51-10.8 4.16-14.13-.54a.33.33 0 00-.6.18q-.07 3.58 1.14 7.57 4.66 15.35 20.34 19.49m.48 5.72q-.63-1.88.08-3.29a.74.74 0 00-.45-1.04Q66.23 137.8 63.01 118q-.42-2.6 0-4.71a.61.61 0 011-.34q1.58 1.36 2.33 1.94c6.31 4.86 13.96.42 15.04-6.73C82.61 100 77.54 96.35 71.25 90 55.26 73.88 45.94 53.99 40.61 31.59a.7.7-21.4 00-1-.43C17.8 43.41 55.41 86.05 63.79 97.19a2.95 2.95 0 01-.08 3.64c-7.7 9.44-10.75 20.04-3.26 30.58q9.09 12.81 25.14 16.78a.37.36-2.7 00.43-.47m9.35-3.17-.22 2.48a1.05 1.04 85.6 001.29 1.11q9.84-2.44 17.78-8.92c5.75-4.7 11.25-12.34 11.37-19.91.11-7.34-2.55-12.47-7.13-17.71-1.43-1.64-1.22-3.4.19-5.19 11.5-14.66 20.09-25.25 26.85-39.9 3.87-8.38 6.23-20.1-3.53-25.56a.58.58 0 00-.85.39q-6.34 30.28-25.48 53.37c-3.61 4.35-7.64 7.8-11.19 11.49q-6.37 6.62-3.2 15.01a4.41 4.33 16.4 00.59 1.06q6.89 9.15 15.87.7a.74.73 67.3 011.24.51q.48 14.19-9.68 23.24-5.99 5.35-12.52 6.35a1.66 1.64 88.2 00-1.38 1.48m30.33-54.88a.1.09 33.6 00.13-.02q6.83-7.24 14.48-15.59 1.7-1.86 2.81-2.29a.6.59 67.5 01.76.32c3.06 7.24.25 15.42-5.11 20.69q-1.8 1.77-3.64 3.61a.23.22-44.1 00-.01.32l.01.01a.25.25 0 00.34.02Q146 87.67 152.76 76c4.58-7.9 7.45-17.33 2.18-25.71a.35.35 0 00-.6.01q-9.72 17.55-23.9 32.68a5.88 5.67 83.8 00-.58.75q-1.97 3.09-4.45 5.56a.15.15 38.5 00.03.23zm-73.4-5.23a.3.3 0 00.05-.37q-3.73-5.11-7-9.1a161 161 0 01-16.3-24.04.4.4 0 00-.67-.03c-4.21 6.08-3.06 14.63-.25 20.75q6.78 14.75 20.71 26.49.79.66.94 1.15.19.64.97.57a1 .96 59.8 01.66.19l3.64 2.74a.1.1-56.4 00.12-.03l.12-.22a.24.24 33.4 00-.07-.32q-7.48-4.84-12.57-11.1c-3.94-4.83-6.11-12.5-3.15-18.32a.9.9 0 011.48-.2l10.95 11.82a.28.27 49.2 00.36.03zm81.89 28.83q17.94-9.5 29.12-26.52c4.21-6.4 6.53-14.83 2.95-22.13a.5.5 0 00-.84-.07q-12.97 17.98-30.15 33.68a.28.28 0 00.33.45q4.1-2.18 8.81-2.87a1.4 1.39 86.3 011.59 1.4c-.11 6.92-6.34 12.01-12.16 15.72a.16.16 0 00-.06.21l.01.01a.3.3 0 00.4.12m-85.08.59a.3.3 0 00.4-.12l.01-.01a.16.16 0 00-.06-.21c-5.8-3.7-12.02-8.78-12.12-15.68a1.4 1.4 0 011.58-1.4q4.7.69 8.79 2.87a.28.28 0 00.33-.45Q30.91 83.2 17.98 65.27a.5.5 0 00-.84.07c-3.57 7.28-1.26 15.68 2.94 22.07q11.14 16.97 29.03 26.45m94.19-40.15a.56.56 0 00-.94-.23l-23.3 24.64a1.71 1.7 58.9 00-.4 1.63l.05.2a.65.65 0 001.03.34l13.64-10.93a.46.45 71.5 01.74.37q-.01.49-.29.86-4.59 6.08-11.96 12.48a.66.66 0 00-.1.87l.02.04a.65.64 55.8 00.88.17q7.21-4.69 13.5-10.21c5.95-5.22 9.53-12.38 7.13-20.23m-103.21.47c-4.19 13.71 9.3 23.04 19.24 29.63a.68.68 0 001-.28l.02-.04a1.05 1.05 0 00-.28-1.23q-6.12-5.27-10.71-11.16a.6.6 0 01.53-.97q.26.03.93.56 7.91 6.2 11.34 9.04a.76.76 0 001.15-.94q-1.03-1.95-2.66-3.69-9.6-10.33-19.81-21.1a.45.44-58 00-.75.18m96.8 51.71q5.13-.19 10.26-3.22c9.82-5.8 22.38-15.2 20.27-27.91a.71.71 0 00-1.15-.44q-17.64 14.07-39.01 23.03a.43.42 67.6 00-.23.56l.05.11a.45.45 0 00.62.22c6.03-3.05 13.2-5.47 19.9-4.84a.66.66 0 01.6.61c.4 5.79-7.01 9.27-11.39 11.58a.16.16 0 00.08.3m-90.42.4-5-2.74q-5.09-2.8-6.44-8.03a1.34 1.33-7.2 011.3-1.67q9.08.03 17.9 4.41a.45.44 23.2 00.62-.24l.05-.15a.4.39-67.9 00-.21-.5q-20.53-8.78-38.07-22.7a.46.46 0 00-.74.32c-1.44 14.1 11.35 23.38 22.16 29.19q3.6 1.94 8.28 2.43a.19.18-20.5 00.15-.32m81.23-11.32q9-3.88 15.01-11.02 1.71-2.03 2.24-5.97a.87.86-.8 00-1-.97c-7.1 1.17-13.61 5.94-19.36 10.74a.8.8 0 00-.12 1.14l.76.95a.62.61 53.8 00.81.13q4.06-2.72 8-4.68 1.67-.84 1.07.77a.62.54-14.4 01-.18.26l-8.39 6.72a1.14 1.14 0 001.16 1.93m-78.8-9.44 7.36 4.24a.37.37 0 00.51-.13l.82-1.43a.7.69 35.1 00-.16-.89c-5.02-4.19-11.4-8.62-17.93-9.59a.88.88 0 00-1.01.9c.25 7 9.75 13.38 15.45 16.17a1.3 1.3 0 001.41-2.17l-7.2-6.02a.66.66 0 01.75-1.08m77.74-1.12a2.04.42-33 00-1.94.76 2.04.42-33 00-1.48 1.46 2.04.42-33 001.94-.76 2.04.42-33 001.48-1.46m-69.6.78a.99.39-139.6 00.5.94.99.39-139.6 001.01.34.99.39-139.6 00-.5-.94.99.39-139.6 00-1-.34m69.92 17.28 8.7-2.88a.63.63 0 01.51 1.15q-2.55 1.46-10.3 5.22-.94.46-1.06 1.41a.45.45 0 00.52.5c6.84-1.08 19.79-4.96 21.8-12.74a.6.6 0 00-.55-.74c-6.57-.25-13 2.13-19.2 5.19a1.48 1.47-10.9 00-.81 1.19l-.12 1.3a.4.4 0 00.51.4m-71.85-2.16a1.11 1.1-82.9 00-.63-.82c-6.29-2.89-11.33-4.69-17.77-4.44a.53.53 0 00-.48.68q1.01 3.22 2.56 4.53 6.58 5.57 17.68 7.93a.5.5 0 00.6-.48q.03-1.29-1.02-1.8-5.7-2.8-8.13-4.3-1.06-.66-.62-1.24a.4.4 0 01.42-.13l7.09 2.34a.47.47 0 00.61-.53zm72.2 19.59a.27.27 0 00.08.53q10.97-.31 21.65-5c6.62-2.9 12.02-7.23 13.48-14.61a.35.35 0 00-.45-.4q-18.21 6.18-37.43 8.84a1.61 1.6-79.1 00-1.17.8l-.28.48a.37.37 0 00.38.55c6.67-1.14 13.7-2.16 20.32-.54a.76.76 0 01.52 1.05c-1.82 4.14-7.24 5.99-11.75 7.01q-4 .9-5.35 1.29m-71.19.35c-5.55-.57-13.72-2.44-17.11-7.65a1 1 0 01.66-1.52q9.76-1.71 18.85.55a.4.39-14.3 00.39-.65l-.87-.94a1.5 1.46 71.6 00-.87-.45q-17.82-2.45-35.43-8.36a.61.6-87.6 00-.78.72c2.99 12.49 17.97 16.64 28.9 18.61q4.12.74 6.3.14a.23.23 0 00-.04-.45m65.19-5.48q4.68-.54 8.14-.72a.53.51 6.1 01.55.65q-.08.3-.4.41-3.61 1.15-11.11 2.55-1.59.3-2.21 1.13a.3.3 0 00.22.46q11.67.41 22.27-3.69 2.24-.87 4.17-3a.81.81 0 00-.5-1.34q-10.03-1.22-19.83 1.3-1.09.28-1.7 1.73a.38.38 0 00.4.52m-59.9.6a.37.37 0 00.39-.5q-.59-1.42-1.65-1.69-9.53-2.51-19.3-1.37a.79.78-24.3 00-.49 1.3q1.86 2.09 4.04 2.94 10.3 4.05 21.67 3.71a.28.28 0 00.22-.44q-.6-.82-2.15-1.12-7.3-1.4-10.81-2.54-.31-.11-.38-.4a.52.5-5.8 01.54-.63q3.36.19 7.92.74m54.21 5.55q9.52.63 18.03 4.69a1.07 1.07 0 01.14 1.86c-7.31 4.9-20.62 1.46-28.59-.99a1.17 1.14-49.1 00-.84.07l-1.4.67a.27.26 42 00.03.49c11.63 4.19 39.31 8.67 45.65-6.21a.45.45 0 00-.46-.63q-15.4 1.5-32.5-.57a.2.2 0 00-.22.2v.26a.17.16 1.9 00.16.16m-21.1.59a.57.57 0 00-.66-.48l-6.6 1a.57.57 0 00-.48.65v.05a.57.57 0 00.66.48l6.6-1a.57.57 0 00.48-.65zm-26.85.09a.17.16-1.8 00.16-.16v-.26a.2.2 0 00-.22-.2q-17.04 2.02-32.37.5a.45.45 0 00-.46.62c6.28 14.84 33.86 10.44 45.46 6.29a.27.26-41.9 00.03-.49l-1.39-.67a1.16 1.14 49.2 00-.84-.07c-7.94 2.42-21.21 5.82-28.48.92a1.07 1.07 0 01.14-1.85q8.49-4.03 17.97-4.63m39.13 4.14c6.61 2.32 18.97 5.01 25.86 1.35a.52.52 0 00-.04-.94q-8.69-3.79-19.34-4.3-.93-.04-1.92.89a.22.22 0 00.11.37l9.17 1.81a.3.3 0 01.24.37l-.05.3a.76.75 8 01-.81.6l-12.74-1.14a.45.44-70.1 00-.42.2l-.15.21a.18.18 0 00.09.28m-30.56.7a.18.18 0 00.09-.27l-.15-.21a.4.4 0 00-.41-.2l-12.58 1.08a.75.74-7.8 01-.8-.6l-.05-.29a.3.3 0 01.24-.37l9.06-1.75a.21.21 0 00.11-.37q-.97-.92-1.89-.88-10.52.46-19.11 4.17a.52.51-42.4 00-.04.93c6.79 3.64 19 1.03 25.53-1.24m18.13-2.06a.53.53 0 00-.62-.43l-6.54 1.12a.53.53 0 00-.43.6l.01.1a.53.53 0 00.62.44l6.54-1.12a.53.53 0 00.43-.6zm-.13 3.04a.54.54 0 00-.61-.45l-6.33.97a.54.54 0 00-.45.62v.04a.54.54 0 00.62.45l6.33-.97a.54.54 0 00.45-.62zm7.7 1.1q.1-.36-.12-.47a.3.27 82.4 00-.31.46q.09.14.23.15a.19.18-79.3 00.2-.14m-6.35.9-.59 1.81a1.12 1.11 38.5 00.11.95c3.01 4.91 8.81 11.39 14.91 11.41a.62.62 0 00.61-.77q-1.02-4.19-3.32-7.74a2.12 1.85 89.5 00-.4-.45l-7.42-6.21a.11.11 16 00-.17.09l.08.5a6.79 6.67 37.6 00.44.85l2.56 4.08a.48.48 0 01-.74.61l-5.56-5.26a.32.31-58.9 00-.51.13m6.62-.43a.2.2 0 00-.04.34c7.07 6.42 22.13 16.35 31.3 9.6a.36.36 0 00-.06-.62q-3.43-1.67-10.33-5.22-.61-.31-2.57-.42a.27.27 0 00-.2.46l3.63 3.43a.9.9 0 01-.24 1.47q-2.23 1.03-4.87.16-8.9-2.92-16.23-9.39a.08.06-38 00-.07 0zm-20.68.29-.33-.19a.08.06 37.5 00-.07 0q-7.38 6.62-16.39 9.65-2.67.9-4.94-.13a.9.9 0 01-.26-1.49l3.66-3.5a.27.27 0 00-.21-.47q-1.98.13-2.6.45-6.97 3.65-10.44 5.37a.37.37 0 00-.05.63c9.35 6.78 24.55-3.41 31.67-9.98a.2.2 0 00-.04-.34m3.84 2.51-3.84 3.57a.28.27 39 01-.33.03l-.24-.13a.4.4 0 01-.13-.56l3.29-5.26v-.04l-.21-.15a.1.1-42.1 00-.13 0l-7.72 6.19a1 1 0 00-.29.37l-3.25 7.26a.8.79 11.8 00.74 1.12c5.46-.04 9.32-4.06 12.28-7.7a1.31 1.3-22.9 00.28-.68l.32-3.64a.46.46 0 00-.77-.38m8.77-1.62a.46.46 0 00-.53-.38l-6.23 1.08a.46.46 0 00-.37.53l.03.2a.46.46 0 00.53.37l6.23-1.08a.46.46 0 00.37-.53zm20.76 1.91a.34.34 0 00-.35.4q.03.18-.06.27-.57.57-1.19.23-3.71-2.03-6.96-2.98a.18.18 0 00-.16.31c4.21 3.22 11.03 7.64 16.33 7.01a.35.35 0 00.22-.58c-2.29-2.56-4.34-4.57-7.83-4.66m-46.19.47c-3.56.1-5.64 2.15-7.96 4.76a.36.35-65.9 00.22.59c5.4.63 12.33-3.89 16.6-7.17a.18.18 0 00-.16-.32q-3.3.98-7.07 3.05-.64.35-1.22-.23-.09-.09-.06-.28a.35.35 4.1 00-.35-.4m25.27.53a.33.33 0 00-.38-.27l-6.36 1.02a.33.33 0 00-.27.37l.07.44a.33.33 0 00.38.27l6.36-1.02a.33.33 0 00.27-.37zm-.08 2.96a.4.4 0 00-.5-.34l-5.98 1.06a.4.4 0 00-.34.49l.04.23a.4.4 0 00.5.34l5.98-1.06a.4.4 0 00.34-.49zm-.11 3a.45.45 0 00-.52-.37l-5.8 1.01a.45.45 0 00-.36.52l.02.14a.45.45 0 00.52.37l5.8-1.01a.45.45 0 00.36-.52zm-.01 2.42a.64.47-12.1 00-.73-.33.64.47-12.1 00-.53.6.64.47-12.1 00.73.32.64.47-12.1 00.53-.6m.17 1.75-7.04.08a.14.14 0 00-.14.14v.08a3.58 3.42-.6 003.62 3.38h.16a3.58 3.42-.6 003.54-3.46v-.08a.14.14 0 00-.14-.14"/><path fill="#fdd311" d="M77.58 30.85a.46.44 30.9 01-.12-.44v-.01a.13.13 0 01.2-.07q9.26 6.76 8.9 12.67-.33 5.42-.88 7.68c-2.11 8.67-4.67 15.82.64 22.14a.2.2 0 01.02.24l-.18.32a.1.1 0 01-.15.02q-6.92-5.7-5.71-14.38c1.54-11.02 4.45-21.1-2.72-28.17m8.44 116.87a.37.36-2.7 01-.43.47q-16.05-3.97-25.14-16.78c-7.49-10.54-4.44-21.14 3.26-30.58a2.95 2.95 0 00.08-3.64C55.41 86.05 17.8 43.41 39.61 31.16a.7.7-21.4 011 .43C45.94 53.99 55.26 73.88 71.25 90c6.29 6.35 11.36 10 10.13 18.16-1.08 7.15-8.73 11.59-15.04 6.73q-.75-.58-2.33-1.94a.61.61 0 00-1 .34q-.42 2.11 0 4.71 3.22 19.8 22.64 25.39a.74.74 0 01.45 1.04q-.71 1.41-.08 3.29M38.27 43.1c-.71 3.04 2.19 9.99 3.41 12.77q10.21 23.17 27.66 41.72c3.07 3.27 6.96 3.83 5.88 9.78a.4.4 0 00.52.45c5.18-1.81 1.33-6.2-1.21-8.19C66.59 93.41 60.06 85.21 54 75.28q-10.71-17.57-15.34-32.2a.2.2 0 00-.39.02m58.48 99.97q6.53-1 12.52-6.35 10.16-9.05 9.68-23.24a.74.73 67.3 00-1.24-.51q-8.98 8.45-15.87-.7a4.41 4.33 16.4 01-.59-1.06q-3.17-8.39 3.2-15.01c3.55-3.69 7.58-7.14 11.19-11.49q19.14-23.09 25.48-53.37a.58.58 0 01.85-.39c9.76 5.46 7.4 17.18 3.53 25.56-6.76 14.65-15.35 25.24-26.85 39.9-1.41 1.79-1.62 3.55-.19 5.19 4.58 5.24 7.24 10.37 7.13 17.71-.12 7.57-5.62 15.21-11.37 19.91q-7.94 6.48-17.78 8.92a1.05 1.04 85.6 01-1.29-1.11l.22-2.48a1.66 1.64 88.2 011.38-1.48m46.08-99.78a.2.2 0 00-.39-.02q-4.63 14.58-15.32 32.08c-6.05 9.89-12.57 18.06-20.49 24.25-2.53 1.98-6.37 6.35-1.21 8.16a.4.4 0 00.52-.45c-1.07-5.93 2.8-6.49 5.87-9.74q17.41-18.47 27.61-41.55c1.22-2.77 4.12-9.7 3.41-12.73m-43.88-7.25c4.97 6.64 5.3 14.2 4.55 22.46-.48 5.25-5.6 11.43-8.95 15.29a.19.19 0 01-.32-.18q3.11-9.25 4.76-17.03c.97-4.58 1.63-11.64.22-16.73q-.92-3.34-.93-3.57a.37.37 0 01.67-.24"/><path fill="#422e0e" d="M38.66 43.08Q43.29 57.71 54 75.28c6.06 9.93 12.59 18.13 20.53 24.35 2.54 1.99 6.39 6.38 1.21 8.19a.4.4 0 01-.52-.45c1.08-5.95-2.81-6.51-5.88-9.78Q51.89 79.04 41.68 55.87c-1.22-2.78-4.12-9.73-3.41-12.77a.2.2 0 01.39-.02m104.17.21c.71 3.03-2.19 9.96-3.41 12.73q-10.2 23.08-27.61 41.55c-3.07 3.25-6.94 3.81-5.87 9.74a.4.4 0 01-.52.45c-5.16-1.81-1.32-6.18 1.21-8.16 7.92-6.19 14.44-14.36 20.49-24.25q10.69-17.5 15.32-32.08a.2.2 0 01.39.02"/><path fill="#fdd311" d="m125.7 89.67-.26-.15a.15.15 38.5 01-.03-.23q2.48-2.47 4.45-5.56a5.88 5.67 83.8 01.58-.75q14.18-15.13 23.9-32.68a.35.35 0 01.6-.01c5.27 8.38 2.4 17.81-2.18 25.71Q146 87.67 135.47 96.74a.25.25 0 01-.34-.02l-.01-.01a.23.22-44.1 01.01-.32q1.84-1.84 3.64-3.61c5.36-5.27 8.17-13.45 5.11-20.69a.6.59 67.5 00-.76-.32q-1.11.43-2.81 2.29-7.65 8.35-14.48 15.59a.1.09 33.6 01-.13.02m-73.4-5.23-.01.01a.28.27 49.2 01-.36-.03L40.98 72.6a.9.9 0 00-1.48.2c-2.96 5.82-.79 13.49 3.15 18.32q5.09 6.26 12.57 11.1a.24.24 33.4 01.07.32l-.12.22a.1.1-56.4 01-.12.03l-3.64-2.74a1 .96 59.8 00-.66-.19q-.78.07-.97-.57-.15-.49-.94-1.15Q34.91 86.4 28.13 71.65c-2.81-6.12-3.96-14.67.25-20.75a.4.4 0 01.67.03c4.64 8.3 9.91 16.28 16.3 24.04q3.27 3.99 7 9.1a.3.3 0 01-.05.37"/><path fill="#fdd311" d="M134.19 113.27a.3.3 0 01-.4-.12l-.01-.01a.16.16 0 01.06-.21c5.82-3.71 12.05-8.8 12.16-15.72a1.4 1.39 86.3 00-1.59-1.4q-4.71.69-8.81 2.87a.28.28 0 01-.33-.45q17.18-15.7 30.15-33.68a.5.5 0 01.84.07c3.58 7.3 1.26 15.73-2.95 22.13q-11.18 17.02-29.12 26.52m-85.08.59q-17.89-9.48-29.03-26.45c-4.2-6.39-6.51-14.79-2.94-22.07a.5.5 0 01.84-.07Q30.91 83.2 48.04 98.86a.28.28 0 01-.33.45q-4.09-2.18-8.79-2.87a1.4 1.4 0 00-1.58 1.4c.1 6.9 6.32 11.98 12.12 15.68a.16.16 0 01.06.21l-.01.01a.3.3 0 01-.4.12m94.19-40.15c2.4 7.85-1.18 15.01-7.13 20.23q-6.29 5.52-13.5 10.21a.65.64 55.8 01-.88-.17l-.02-.04a.66.66 0 01.1-.87q7.37-6.4 11.96-12.48.28-.37.29-.86a.46.45 71.5 00-.74-.37l-13.64 10.93a.65.65 0 01-1.03-.34l-.05-.2a1.71 1.7 58.9 01.4-1.63l23.3-24.64a.56.56 0 01.94.23m-103.21.47a.45.44-58 01.75-.18q10.21 10.77 19.81 21.1 1.63 1.74 2.66 3.69a.76.76 0 01-1.15.94q-3.43-2.84-11.34-9.04-.67-.53-.93-.56a.6.6 0 00-.53.97q4.59 5.89 10.71 11.16a1.05 1.05 0 01.28 1.23l-.02.04a.68.68 0 01-1 .28c-9.94-6.59-23.43-15.92-19.24-29.63"/><path fill="#fdd311" d="M136.81 125.59c4.38-2.31 11.79-5.79 11.39-11.58a.66.66 0 00-.6-.61c-6.7-.63-13.87 1.79-19.9 4.84a.45.45 0 01-.62-.22l-.05-.11a.43.42 67.6 01.23-.56q21.37-8.96 39.01-23.03a.71.71 0 011.15.44c2.11 12.71-10.45 22.11-20.27 27.91q-5.13 3.03-10.26 3.22a.16.16 0 01-.08-.3m-90.49 1.02q-4.68-.49-8.28-2.43c-10.81-5.81-23.6-15.09-22.16-29.19a.46.46 0 01.74-.32q17.54 13.92 38.07 22.7a.4.39-67.9 01.21.5l-.05.15a.45.44 23.2 01-.62.24q-8.82-4.38-17.9-4.41a1.34 1.33-7.2 00-1.3 1.67q1.35 5.23 6.44 8.03l5 2.74a.19.18-20.5 01-.15.32m81.38-11.64a1.14 1.14 0 01-1.16-1.93l8.39-6.72a.62.54-14.4 00.18-.26q.6-1.61-1.07-.77-3.94 1.96-8 4.68a.62.61 53.8 01-.81-.13l-.76-.95a.8.8 0 01.12-1.14c5.75-4.8 12.26-9.57 19.36-10.74a.87.86-.8 011 .97q-.53 3.94-2.24 5.97-6.01 7.14-15.01 11.02m-78.8-9.44a.66.66 0 00-.75 1.08l7.2 6.02a1.3 1.3 0 01-1.41 2.17c-5.7-2.79-15.2-9.17-15.45-16.17a.88.88 0 011.01-.9c6.53.97 12.91 5.4 17.93 9.59a.7.69 35.1 01.16.89l-.82 1.43a.37.37 0 01-.51.13z"/><path fill="#722c03" d="M155.01 98.73q.4 1.06 1.27 2.05l-7.99 4.64a.07.06 7 01-.08-.1z"/><ellipse fill="#fdd311" rx="2.04" ry=".42" transform="rotate(-33 240.58 -158.12)"/><ellipse fill="#722c03" rx=".99" ry=".39" transform="rotate(220.4 48.37 42.28)"/><path fill="#fdd311" d="M126.96 122.47a.4.4 0 01-.51-.4l.12-1.3a1.48 1.47-10.9 01.81-1.19c6.2-3.06 12.63-5.44 19.2-5.19a.6.6 0 01.55.74c-2.01 7.78-14.96 11.66-21.8 12.74a.45.45 0 01-.52-.5q.12-.95 1.06-1.41 7.75-3.76 10.3-5.22a.63.63 0 00-.51-1.15zm-72.15.11-7.09-2.34a.4.4 0 00-.42.13q-.44.58.62 1.24 2.43 1.5 8.13 4.3 1.05.51 1.02 1.8a.5.5 0 01-.6.48q-11.1-2.36-17.68-7.93-1.55-1.31-2.56-4.53a.53.53 0 01.48-.68c6.44-.25 11.48 1.55 17.77 4.44a1.11 1.1-82.9 01.63.82l.31 1.74a.47.47 0 01-.61.53m72.5 17.32q1.35-.39 5.35-1.29c4.51-1.02 9.93-2.87 11.75-7.01a.76.76 0 00-.52-1.05c-6.62-1.62-13.65-.6-20.32.54a.37.37 0 01-.38-.55l.28-.48a1.61 1.6-79.1 011.17-.8q19.22-2.66 37.43-8.84a.35.35 0 01.45.4c-1.46 7.38-6.86 11.71-13.48 14.61q-10.68 4.69-21.65 5a.27.27 0 01-.08-.53m-71.15.8q-2.18.6-6.3-.14c-10.93-1.97-25.91-6.12-28.9-18.61a.61.6-87.6 01.78-.72q17.61 5.91 35.43 8.36a1.5 1.46 71.6 01.87.45l.87.94a.4.39-14.3 01-.39.65q-9.09-2.26-18.85-.55a1 1 0 00-.66 1.52c3.39 5.21 11.56 7.08 17.11 7.65a.23.23 0 01.04.45"/><circle cx="77.61" cy="131.46" r="2.46" fill="#fdd311"/><circle cx="103.93" cy="131.46" r="2.47" fill="#fdd311"/><path fill="#fdd311" d="m99.17 132.11-4.98-.09-12.71.06a.38.37-90 01-.37-.38v-.27a.6.6 0 01.61-.6q7.27.17 17.76.02.38-.01.59.14a.58.58 0 01.02.93q-.21.17-.92.19m21.74 2.14q.61-1.45 1.7-1.73 9.8-2.52 19.83-1.3a.81.81 0 01.5 1.34q-1.93 2.13-4.17 3-10.6 4.1-22.27 3.69a.3.3 0 01-.22-.46q.62-.83 2.21-1.13 7.5-1.4 11.11-2.55.32-.11.4-.41a.53.51 6.1 00-.55-.65q-3.46.18-8.14.72a.38.38 0 01-.4-.52m-59.5 1.12q-4.56-.55-7.92-.74a.52.5-5.8 00-.54.63q.07.29.38.4 3.51 1.14 10.81 2.54 1.55.3 2.15 1.12a.28.28 0 01-.22.44q-11.37.34-21.67-3.71-2.18-.85-4.04-2.94a.79.78-24.3 01.49-1.3q9.77-1.14 19.3 1.37 1.06.27 1.65 1.69a.37.37 0 01-.39.5m32.68-1.97-5.88 1.11q-.72.15-1.26-.1a.52.52 0 01.21-.99zm-6.38 4.14q-.72.13-.96-.22-.36-.48.16-.9.36-.29 1.08-.31l6.26-1.11a.34.33-13.5 01.37.22l.12.36a.59.58 75.7 01-.45.76zm-.03 2.82q-.97.05-.86-.67.05-.36.5-.53l6.59-1.13a.6.6 0 01.7.48v.03a.58.57 79.3 01-.46.69zm27.94.56a.17.16 1.9 01-.16-.16v-.26a.2.2 0 01.22-.2q17.1 2.07 32.5.57a.45.45 0 01.46.63c-6.34 14.88-34.02 10.4-45.65 6.21a.27.26 42 01-.03-.49l1.4-.67a1.17 1.14-49.1 01.84-.07c7.97 2.45 21.28 5.89 28.59.99a1.07 1.07 0 00-.14-1.86q-8.51-4.06-18.03-4.69"/><rect width="7.82" height="1.2" x="-3.91" y="-.6" fill="#fdd311" rx=".57" transform="rotate(-8.6 990.4 -531.74)"/><path fill="#fdd311" d="M67.67 141.6q-9.48.6-17.97 4.63a1.07 1.07 0 00-.14 1.85c7.27 4.9 20.54 1.5 28.48-.92a1.16 1.14 49.2 01.84.07l1.39.67a.27.26-41.9 01-.03.49c-11.6 4.15-39.18 8.55-45.46-6.29a.45.45 0 01.46-.62q15.33 1.52 32.37-.5a.2.2 0 01.22.2v.26a.17.16-1.8 01-.16.16m39.13 4.14a.18.18 0 01-.09-.28l.15-.21a.45.44-70.1 01.42-.2l12.74 1.14a.76.75 8 00.81-.6l.05-.3a.3.3 0 00-.24-.37l-9.17-1.81a.22.22 0 01-.11-.37q.99-.93 1.92-.89 10.65.51 19.34 4.3a.52.52 0 01.04.94c-6.89 3.66-19.25.97-25.86-1.35"/><path fill="#fdd311" d="M76.24 146.44c-6.53 2.27-18.74 4.88-25.53 1.24a.52.51-42.4 01.04-.93q8.59-3.71 19.11-4.17.92-.04 1.89.88a.21.21 0 01-.11.37l-9.06 1.75a.3.3 0 00-.24.37l.05.29a.75.74-7.8 00.8.6l12.58-1.08a.4.4 0 01.41.2l.15.21a.18.18 0 01-.09.27"/><rect width="7.7" height="1.16" x="-3.85" y="-.58" fill="#fdd311" rx=".53" transform="rotate(-9.7 900.2 -461.22)"/><rect width="7.48" height="1.12" x="-3.74" y="-.56" fill="#fdd311" rx=".54" transform="rotate(-8.7 1018.15 -521.19)"/><path fill="#722c03" d="M101.74 148.66q-.14-.01-.23-.15a.3.27 82.4 01.31-.46q.22.11.12.47a.19.18-79.3 01-.2.14"/><path fill="#fdd311" d="M95.59 149.42a.32.31-58.9 01.51-.13l5.56 5.26a.48.48 0 00.74-.61l-2.56-4.08a6.79 6.67 37.6 01-.44-.85l-.08-.5a.11.11 16 01.17-.09l7.42 6.21a2.12 1.85 89.5 01.4.45q2.3 3.55 3.32 7.74a.62.62 0 01-.61.77c-6.1-.02-11.9-6.5-14.91-11.41a1.12 1.11 38.5 01-.11-.95zm6.62-.43.32-.19a.08.06-38 01.07 0q7.33 6.47 16.23 9.39 2.64.87 4.87-.16a.9.9 0 00.24-1.47l-3.63-3.43a.27.27 0 01.2-.46q1.96.11 2.57.42 6.9 3.55 10.33 5.22a.36.36 0 01.06.62c-9.17 6.75-24.23-3.18-31.3-9.6a.2.2 0 01.04-.34m-20.68.29a.2.2 0 01.04.34c-7.12 6.57-22.32 16.76-31.67 9.98a.37.37 0 01.05-.63q3.47-1.72 10.44-5.37.62-.32 2.6-.45a.27.27 0 01.21.47l-3.66 3.5a.9.9 0 00.26 1.49q2.27 1.03 4.94.13 9.01-3.03 16.39-9.65a.08.06 37.5 01.07 0zm3.84 2.51a.46.46 0 01.77.38l-.32 3.64a1.31 1.3-22.9 01-.28.68c-2.96 3.64-6.82 7.66-12.28 7.7a.8.79 11.8 01-.74-1.12l3.25-7.26a1 1 0 01.29-.37l7.72-6.19a.1.1-42.1 01.13 0l.21.15v.04l-3.29 5.26a.4.4 0 00.13.56l.24.13a.28.27 39 00.33-.03z"/><rect width="7.24" height="1.12" x="-3.62" y="-.56" fill="#fdd311" rx=".46" transform="rotate(-9.8 925.26 -452.9)"/><path fill="#fdd311" d="M114.9 152.08c3.49.09 5.54 2.1 7.83 4.66a.35.35 0 01-.22.58c-5.3.63-12.12-3.79-16.33-7.01a.18.18 0 01.16-.31q3.25.95 6.96 2.98.62.34 1.19-.23.09-.09.06-.27a.34.34 0 01.35-.4m-45.84.87q-.03.19.06.28.58.58 1.22.23 3.77-2.07 7.07-3.05a.18.18 0 01.16.32c-4.27 3.28-11.2 7.8-16.6 7.17a.36.35-65.9 01-.22-.59c2.32-2.61 4.4-4.66 7.96-4.76a.35.35 4.1 01.35.4"/><rect width="7.1" height="1.1" x="-3.55" y="-.55" fill="#fdd311" rx=".33" transform="rotate(-9.1 1011.96 -491.74)"/><rect width="6.92" height="1.08" x="-3.46" y="-.54" fill="#fdd311" rx=".42" transform="rotate(-10.1 932.23 -433.74)"/><rect width="6.78" height="1.04" x="-3.39" y="-.52" fill="#fdd311" rx=".45" transform="rotate(-9.9 967.13 -442.38)"/><ellipse fill="#722c03" rx=".64" ry=".47" transform="rotate(-12.1 808.89 -358.65)"/><path fill="#fdd311" d="M93.95 163.21a.14.14 0 01.14.14v.08a3.58 3.42-.6 01-3.54 3.46h-.16a3.58 3.42-.6 01-3.62-3.38v-.08a.14.14 0 01.14-.14z"/><path fill="#007bc1" d="M35.8 287.04a.74.74 0 01-.74-.74v-4.25a58.61 37.95-90 0137.95-58.61h.3a58.61 37.95-90 0137.95 58.61v4.25a.74.74 0 01-.74.74z"/><path fill="#007bc1" d="M147.78 287.11a.7.7 0 01-.69-.68v-4.39a58.53 37.91 89.9 0137.8-58.6h.36a58.53 37.91 89.9 0138.02 58.46v4.39a.7.7 0 01-.67.68z"/><path fill="#007bc1" d="M259.78 287.11a.7.7 0 01-.71-.7v-4.32a58.58 37.92 89.9 0137.81-58.65h.36a58.58 37.92 89.9 0138.03 58.51v4.32a.7.7 0 01-.69.7z"/><path fill="#007bc1" d="M371.67 287.03a.65.65 0 01-.65-.65v-4.28a58.65 37.92 90 0137.92-58.65h.36a58.65 37.92 90 0137.92 58.65v4.28a.65.65 0 01-.65.65zm112.04.01a.74.74 0 01-.74-.74v-4.23a58.63 37.93-90 0137.93-58.63h.36a58.63 37.93 90 0137.93 58.63v4.23a.74.74 0 01-.74.74zM597 326.62V395H0v-74.17q9.53.07 19.01 1.89 10.96 2.11 27.26 5.73c13.84 3.07 28.09 4.74 42.9 1.97q3.15-.59 28.46-6.52 15.27-3.58 29.36-3.03 7.67.29 18.76 3.16c20.84 5.4 37.18 9.99 57.24 6.67 14.75-2.44 33.79-7.99 51.27-9.62 23.91-2.22 45.69 7.23 69.99 10.2 18.8 2.3 36.87-2.13 57.55-7.07q26.73-6.38 54.38-.65 27.38 5.68 32.59 6.64c22.3 4.1 43.01-.09 64.79-5.55q12.16-3.05 15.94-3.52 14.46-1.81 27.5 5.49"/></svg>