<svg xmlns="http://www.w3.org/2000/svg" viewBox="0 0 992 657"><g fill="none" stroke-width="2"><path stroke="#044c22" d="M614.74 165.95A108.49 102.12-.7 00505.01 65.17 108.49 102.12-.7 00397.78 168.6 108.49 102.12-.7 00507.5 269.39a108.49 102.12-.7 00107.23-103.44" vector-effect="non-scaling-stroke"/><path stroke="#044c22" d="M370.98 273.15 409 236.61a.72.61 85.5 00.16-.22c1.81-3.61.31-8.54-4-9.57-5.15-1.23-7.8.62-12.89 3.38l-41.14 22.25a1.94 1.94 0 01-2.33-.38l-9.78-10.34a1.4 1.4 0 00-1.56-.31q-15.61 7.1-25.65 20.38c-2.85 3.77-4.44 7.47-6.27 11.11a1.3 1.3 0 00.35 1.62l10.29 8.34a1.18 1.17 33.8 01.3 1.48q-8.45 15.41-28.94 53.18c-2.45 4.53-1.92 11.4 5.01 10.85 4.71-.38 7.85-3.38 11.16-6.91q4.41-4.68 36.83-38.03a.58.57-48.1 01.77-.05q68.36 55.25 128.68 106.1 2.25 1.9 5.29 4.21a.95.95 0 01.04 1.47q-41.1 35.11-52.31 44.84c-6.08 5.27-12.27 10.22-18.21 15.47q-12.02 10.62-28.81 25.03-25.13 21.56-50.69 43.28-5.56 4.72-4.8 12.27a3.77 3.61 31.2 00.3 1.12q4.12 9.18 14.44 9.08 7.5-.06 11.83-3.7Q400.7 517.5 484.39 446.9q6.76-5.7 14.63-12.2a1.1 1.1 0 011.43.01l151.43 128.52a3.54 3.43-13 001.01.61q7.13 2.87 13.73-1.44 4.32-2.82 5.13-7.15c.94-5.03-1.59-7.41-5.2-10.5q-2.35-2.02-70.41-62.62-15.71-13.99-21.16-18.9-46.47-41.76-52.79-47.65a.46.46 0 01.02-.69l123.9-104.47a1.02 1.01 49.6 011.43.12l1.36 1.62a1.72 1.71-37.4 002.28.3l14.29-9.89a.9.89 44.3 011.01-.01c2.57 1.71 5.11 6.01 7.28 7.71q1.1.85 32.6 34.33 2.22 2.36 5.43 4.24a1.5 1.49-60.4 002.06-.57c1.85-3.39-.07-8.01-1.57-12.31q-8.42-24.02-18.01-50.8c-1.56-4.36-3.12-6.61-6.38-9.42a1.2 1.19-46.5 01-.04-1.78l6.33-5.98a1.24 1.23-43.5 00.05-1.74l-22.49-23.79a1.74 1.74 0 00-2.38-.14l-5.65 4.77a1.3 1.3 0 01-1.83-.13q-11.18-12.56-26.78-29.65c-2.01-2.2-3.08-2.51-5.88-2.98-11.95-1.98-20.14 7.05-21.36 18.18a1.04 1.01 29.1 00.23.77l28.87 34.77a.48.47 49.1 01-.04.65l-14.51 13.11a1.38 1.38 0 00.06 2.09l2.56 2.07a.6.6 0 01.01.9L499.77 394.3a.91.9-43.7 01-1.21-.02q-12.74-11.86-45.2-41.63c-7.73-7.08-16.59-15.76-24.87-23.44-15.36-14.25-29.24-27.92-43.94-42.02q-7.21-6.91-13.58-13.43a.43.43 0 01.01-.61" vector-effect="non-scaling-stroke"/><path stroke="#044c22" d="M681.66 394.7c-.09-6.67-5.22-11.44-11.23-13.36-8.72-2.78-18.23-3.13-30.19-4.26-12.27-1.15-26.74-1.27-36.05 7.61-5.26 5.02-9.45 8.37-16.8 14.21q-3.77 3-6.19 6.33c-2.99 4.11-1.48 8.12 1.53 12.16q4.64 6.23 12.91 18.47 5.21 7.71 9.3 11.46c7.53 6.9 17.07 9.9 27.32 11.67q18.93 3.25 37.74 1.18 11.78-1.29 21.55-8.63 21.69-16.3 22.67-17.06c5.06-3.91 8.24-10.36 3.9-15.87a37 37 0 00-9.39-8.2q-9.08-5.53-19.98-10.41-3.76-1.68-6.38-3.82a2 2 0 01-.71-1.48m-397.04 35.83c-7.21 17.97 9.94 16.09 20.35 21.85q4.14 2.28 7.31 3.81c5.04 2.44 14.99 4.38 21.17 5.88 15.73 3.81 31.44 4.46 46.08-.79 10.99-3.94 19.33-10.22 27.27-18.54 5.62-5.9 12.34-18.6 6.04-26.1q-8.11-9.67-8.84-10.71c-5.02-7.14-12.46-9.23-19.49-12.54a8.96 8.85 81.9 01-2.92-2.22c-12.55-14.48-31.53-11.97-47.14-3.8q-5.44 2.84-14.53 3.9c-5.94.69-9.89 1.51-13.6 5.05q-6.15 5.9-10.52 8.66c-4.6 2.91-7.7 6.41-8.63 11.2q-1.19 6.2-2.25 13.27a5.12 4.87 62 01-.3 1.08m278.96 106.09-4.68-1.15a5.5 5.48 76.5 01-2.83-1.74c-2.68-3.13-5.81-7.33-10.14-3.58q-1.53 1.32-4.01 4.29-.66.79-3.97 1.71c-2.75.76-4.67-.22-5.63-2.74-3.49-9.11 7.78-16.95 1.23-26.3-3.76-5.35-10.67-6.05-16.82-4.98q-1.51.27-5.74 2.79c-6.44 3.84-14.31 3.7-21.94 1.63-7.42-2.02-14.96.27-20.89 4.36q-10.14 6.99-18.13 12.92a124 124 0 00-19.17 17.8c-6.18 7.09-5.98 19.56 3.83 23.41q2.77 1.09 8.01.72c5.6-.39 9.72-.52 14.18 1.58a5 5 0 011.78 1.46 40.8 40.8 0 0026.71 16.38q6.33 1 8.96.9 4.83-.18 11.98 1.22 20.14 3.93 31.11-11.55 3.06-4.31 4.68-5.48c4.09-2.96 8.41-2.67 14.56-3.15 6.85-.55 8.69-9.59 8.72-15.09q0-.87.23-12.77a2.7 2.7 0 00-2.03-2.64m53.91 87.99a1.62.58-85.8 00-.7 1.58 1.62.58-85.8 00.46 1.66 1.62.58-85.8 00.7-1.58 1.62.58-85.8 00-.46-1.66" vector-effect="non-scaling-stroke"/><path stroke="#7e6f02" d="M400.38 166.85a105.8 99.41-179.8 00105.45 99.78 105.8 99.41-179.8 00106.15-99.04A105.8 99.41-179.8 00506.53 67.8a105.8 99.41-179.8 00-106.15 99.04" vector-effect="non-scaling-stroke"/><path stroke="#7e6f02" d="M465.87 200.19c6.9 9.17 6 20.92 10.63 30.99 5.13 11.18 16.36 16.75 27.93 20.02a.55.54-74.6 00.68-.39q3.21-12.95-3.17-24.52c-6.06-10.99-12.32-18.86-6.38-29.96q1.41-2.65 3.33-1.25c2.99 2.17 2.55 6.5 2.78 11.5.25 5.24 5.18 9.53 8.87 13.29 6.56 6.69 5.54 17.08 3.22 25.28a.4.39 13.9 00.3.49q.24.05.43-.15c11.65-11.99 31.31-17.47 42.8-22.72 14.42-6.59 23.57-16.12 25.86-32.8q.67-4.81.92-12.03a.39.38-26.5 00-.7-.23q-6.36 8.92-15.94 14.96-1.43.91-3.17 1.51a.75.74-3.1 01-.98-.87q.41-1.77 1.65-3.62c10.16-15.07 20.12-32.78 15.04-51.39-2.81-10.32-10.88-18.88-20.48-23.48a108 108 0 01-26.27-17.66.38.38 0 00-.62.17q-4.24 13.72 3.07 23.97c3.91 5.48 12.78 11.91 16.9 16.86q7.67 9.22 7.83 21.03a.23.22-65.2 01-.4.15q-8.72-10.85-19.94-18.66a.51.51 0 00-.8.45c1.51 19.55 1.14 40.51-8.04 57.57q-1.18 2.19-2.61 3.67a.77.77 0 01-1.33-.52q-.04-3.43.47-12.11c.3-5.12 1.9-10.73 2.51-15.24q2.1-15.7.63-26.71-3.72-27.94-25.92-45.56a.33.33 0 00-.53.24q-1.34 20.03-1.36 20.53-.23 5.05-3.16 8.94a1.43 1.43 0 01-2.44-.25c-1.31-2.76-.87-5.63-1.39-8.3-.93-4.86-2.85-11.53-6.29-24.44q-1.5-5.63-1.92-11.33a.39.38-23.6 00-.65-.25c-10.65 9.77-22.25 24.87-18.63 39.96 1.69 7.03 7.05 14.38 12.11 21.97q6.02 9.05 5.88 20.29-.04 3.12-.08 3.55c-.67 6.74-6.7 8.85-11.96 5.14q-7.81-5.51-8.34-16.3c-.8-16.42-.61-33.1-4.7-49.13a.49.48-35.2 00-.87-.15q-9.48 13.75-16.65 26.79c-8.68 15.78-14.43 33.67-9.49 50.82q3.41 11.82 12.16 21.81 7.87 8.99 15.36 14.52a.31.3-76.8 00.48-.3q-2.28-13.11 3.12-26.11a.15.15 0 01.25-.04" vector-effect="non-scaling-stroke"/><path stroke="#71050a" d="M580.34 185.92q-5.67 6.19-12.54 9.95-3.06 1.67-4.34 1.52c-3.36-.41-4.13-4.21-2.46-6.9q.57-.92 7.43-11.52 6.89-10.67 9.29-23.18c3.22-16.74-4.39-30.88-19.17-38.38-8.26-4.19-16.21-8.92-22.96-14.63a.83.83 0 00-1.35.49q-1.98 11.2 5.99 18.87c11.58 11.14 19.79 17.22 22.41 30.81.73 3.8.51 10.26.78 13.28q.04.41-.34.85a.52.52 0 01-.85-.11q-.76-1.53-1.48-2.46-7.82-10.16-17.29-18.01a.54.54 0 00-.87.31q-.27 1.43-.17 2.68 1.31 16.54-1.98 32.3c-.83 3.96-6.86 25.13-12.67 23.52-2.49-.68-3.36-2.25-3.28-4.98q.36-13.15 1.25-17.08c4.08-17.87 4.96-38.32-3.39-55.24q-5.59-11.33-14.42-19.61a.55.54-54.9 00-.86.15q-.36.71-.41 1.71-.47 10.97-.68 13.26c-.42 4.48-1.95 10.17-6.85 11.62a1.66 1.63-42.3 01-1.06-.04c-3.17-1.21-3.86-2.8-4.25-6.35q-.81-7.25-1.54-9.76-3.98-13.76-6.71-25.2a.31.31 0 00-.53-.14q-8.67 9.4-11.87 16.48c-7.36 16.28 3.71 26.89 10.75 39.3q2.99 5.27 3.53 7.37 2.74 10.63 1.59 17.72c-1.81 11.19-14.54 9.91-20.09 2.52q-3.05-4.07-4.52-8.57-.77-2.36-1.11-9.64-.71-15.72-1.62-29.31c-.27-3.91-1.15-7.61-1.61-10.91a.24.24 0 00-.44-.08q-1.83 3.46-6.98 11.63-4.5 7.12-10.92 20.09c-9.22 18.61-8.99 39.03 3.87 55.94q5.07 6.68 12.03 13.19a.65.64-62.4 001.07-.34q.5-2.36.59-4.69c.2-5.6 2.09-11.71 4.34-16.7.44-.97.37-1.96.7-2.97a.47.47 32.6 01.79-.17q6.25 6.73 8.64 16.14 1.49 5.91 3.95 15.39c3.19 12.37 13.39 17.05 24.48 21.69a.36.35 17.6 00.49-.25c2.19-11.06-2.35-19.84-8.01-28.58q-7.79-11.99-1.39-24.23c1.5-2.86 6.11-3.48 8.39-.79 2.21 2.61 2.43 5.82 2.5 9.42.08 3.87.86 6.56 3.06 9.13 1.96 2.29 4.96 4.65 6.71 7.15q5.68 8.05 4.01 18.24a.3.3 0 00.47.29q5.77-4.19 14.32-8.1c4.29-1.96 15.79-5.96 24.44-10.29q6.13-3.06 6.92-3.61c11.16-7.78 14.91-17.39 16.77-29.93a.32.32 0 00-.55-.26" vector-effect="non-scaling-stroke"/><path stroke="#777870" d="M712.15 345.57q.04-2.17-1-4.99l-20.31-56.9q-.53-1.48-2.42-3.57-23.92-26.35-54.76-60.54c-1.94-2.15-2.77-2.34-5.47-2.7-9.47-1.23-16.3 5.86-17.58 14.8a1.47 1.45 29.1 00.34 1.17l29.86 35.42a.44.43 49.3 01-.04.61l-15.15 13.69a.4.4 0 00-.02.56l24.44 25.85a.93.92-38.6 001.2.13l14.81-10.25a.7.69-39.2 01.9.09l44.37 46.95a.48.48 0 00.83-.32m-359.88-90.19 16.2 15.94a.5.5 0 00.7 0q19.26-18.92 35.56-34.22c2.38-2.23 4.11-5.12.76-7.13q-3.25-1.95-6.99.05-19.12 10.25-46.17 24.91a.3.3 53.1 00-.06.45m40.68 43.82-55.42-54.55a.4.4 0 00-.43-.07q-19.47 9.13-28.55 27.73a1 1 0 00.26 1.18l58.11 47.08a.5.5 0 00.75-.16q7.79-15.33 25.19-20.83a.23.23 0 00.09-.38m297.96-31.83a.54.54 0 00.01-.75l-20.27-21.44a.54.54 0 00-.75-.03l-4.84 4.38a.54.54 0 00-.04.76l20.06 22.2a.54.54 0 00.78.01l5.05-5.13m-371.57 18.1a.42.42 0 00-.64.13q-11 20.31-29.09 53.51c-.91 1.67-1.54 5.26.6 6.38 3.13 1.65 7.4-1.41 9.46-3.58q18.82-19.8 38.61-39.8a.92.92 0 00-.08-1.36l-18.86-15.28m325.55 21.98-17.43-18.44a.63.62-41.9 00-.85-.04q-169.54 145.4-299.33 256.56c-5.89 5.05-5.87 13.45 1.6 16.88 6.62 3.04 13.43.93 18.87-3.66q186.92-157.86 297.11-250.78a.36.35-42.3 00.03-.52" vector-effect="non-scaling-stroke"/><path stroke="#777870" d="m369.82 322.86 108.01 89.38a.7.7 0 00.9 0L496.49 397a.74.73-44 00.02-1.1q-50.55-46.08-100.64-94.11a.96.95 57.5 00-.94-.21c-11.23 3.66-20.06 9.74-25.24 20.7a.49.48 32.4 00.13.58m132.27 109.88q70.48 59.33 150.36 127.57c4.49 3.84 11.25 2.19 14.78-1.85q3.46-3.95 1.74-7.46-.58-1.2-5.71-5.74-76.55-67.75-143.12-127.78a.65.64 45.7 00-.84-.02l-17.21 14.51a.51.5-45.3 000 .77" vector-effect="non-scaling-stroke"/><path stroke="#7e6f02" d="M583.7 406.42c-2.39 3.49-.85 6.46 1.47 9.38q3.99 5.03 11.86 17 4.93 7.51 8.94 11.66c6.5 6.73 17.36 10.18 27.07 11.72q12.42 1.96 24.15 1.78 11.57-.17 16.94-1.35 7.88-1.73 15.32-7.2 11.34-8.33 22.94-17.02c12.96-9.71-2.89-18.71-10.42-22.62q-5.86-3.05-15.26-7.47-3.84-1.81-6.33-3.78a3.84 3.82 15.3 01-1.39-2.42q-.5-3.28-.99-4.83c-1.94-6.22-11.87-8.57-17.75-9.28q-17.17-2.09-29.25-2.62c-7.03-.31-17.97.66-22.95 5.46q-8.44 8.13-19.2 16.26-3.11 2.35-5.15 5.33" vector-effect="non-scaling-stroke"/><path stroke="#c99919" d="M613.73 402.1c.37-1.93.48-7.93-1.32-9.75-1.91-1.94-4.88-1.05-7.2-.45a.57.57 0 00-.15 1.04q5.17 3.16 7.83 9.25a.44.44 0 00.84-.09m68.63 7.69a.29.29 0 00-.08-.52c-7-1.9-9.29-9.43-9.16-16.02a.78.77 76.1 00-1.15-.7c-5.48 3.02-13.09 6.38-18.89 4.59q-3.09-.96-5.07-4.54a.5.5 0 00-.94.18c-.28 2.27-.98 6.23.4 8.19 3.65 5.15 14.73.13 19.1-2.26a.95.94-15.5 011.4.79 20 20 0 002.86 9.58c2.79 4.4 7.91 2.88 11.53.71m-78.59 2.47q-3.75-.43-8.74-.44c-7.76-.03-4.37 5.73-2.64 9.51a.52.51-54.2 00.98-.16q.28-2.46 2.3-4.13 3.22-2.67 8.16-3.9a.45.45 0 00-.06-.88m89.06 24.12c5.63-1.98 15.18-5.58 18.35-10.61a3.91 3.12-47.1 00.28-3.7c-1.63-2.76-8.96-5.94-10.87-6.75-5-2.13-9.6-2.5-14.88-2.77a.95.95 0 00-1 .89q-.42 6.69 3.61 11.46c2.31 2.72 7.67 2.92 7.23 7.47a.92.88 68.6 01-.19.46l-2.69 3.32a.15.15 0 00.16.23m-81.24 6.79c8.78.59 18.4.53 26.52-3.53a6.7 6.7 0 003.72-6.02v-2.3a2.49 2.49 0 00-3.92-2.03q-9.44 6.64-26.41 13.3a.3.3 0 00.09.58m25.86 5.65a.56.55-86.7 00.45.51c12.73 2.29 20.03 3.78 31.6 3.7 8.62-.05 17.54-3.19 15.7-13.98q-.35-2.05-1.07-3.6a.62.62 0 00-1.08-.08c-2.56 3.87-9.16 6.89-13.67 8.27q-15.1 4.62-31.49 4.69a.44.44 0 00-.44.47v.02" vector-effect="non-scaling-stroke"/><path stroke="#7e6f02" d="M287.61 430.59c-.93 3.46-3.91 8.84.27 11.72 5.1 3.53 11.37 3.84 17.09 6.66 5.41 2.67 11.19 6.12 17.85 7.56q4 .86 14.47 3.39c25.66 6.21 49.88.46 67.76-19.59 4.46-5 10.92-15.7 5.77-21.65q-7.13-8.24-9.08-10.81a28 28 0 00-13.08-9.49q-5.4-1.94-7.07-3.34-.72-.61-5.74-5.48c-9.4-9.14-24.97-6.89-36.33-1.61-6.74 3.14-12.64 5.43-19.72 5.97-5.82.44-9.25 1.69-12.9 5.26q-5.69 5.56-9.67 7.95c-4.43 2.66-7.07 5.87-7.63 10.25q-1.42 11.09-1.99 13.21" vector-effect="non-scaling-stroke"/><path stroke="#c99919" d="M363.81 405.82q2.68-9.6 12.57-11.1a.47.47 0 00.13-.89c-8.44-3.97-13.45-7.41-20.82-5.93a.5.49-32.3 00-.2.88c5.43 4.11 7.09 10.41 7.71 16.99a.31.31 0 00.61.05m-41.55 32.97a.19.19 0 00.14-.33q-6.33-6.17-13.88-10.7-2.78-1.67-5.94-1.81a.73.73 0 00-.75.89c2.1 9.02 12.63 11.47 20.43 11.95m28.79-12.35q-.45.16-.87.96-6.47 12.3-17.6 19.91a.55.54-50.5 00.09.95c16.86 7.28 18.38-10.7 18.93-21.41a.42.41-8.2 00-.55-.41m.86 21.28a.29.29 0 00.24.5q7.39-1.1 14.25-.26a11.33 11.27 60.9 013.37.97c3.18 1.49 5.77 3.11 8.73 3.21q4.45.14 7.74-3.13 4.22-4.2 8.77-15.87a1.82 1.82 0 00-2.23-2.4l-4.4 1.5a8.8 8.8.5 00-5.46 5.36l-2.68 7.4a1.36 1.35 2.5 01-.94.86c-3.72.94-6.96-.91-9.68-3a3.31 3.22 69.7 00-1.24-.59c-5.31-1.3-8.63.64-13.01 3.18q-2.58 1.49-3.46 2.27" vector-effect="non-scaling-stroke"/><path stroke="#7e6f02" d="M562.65 538.91c-3.86-.51-7.15-1.18-9.28-4.15q-1.13-1.56-2.22-2.76a2.2 2.2 0 00-2.8-.39q-2.02 1.26-4.48 4.49a3.76 3.65 2.2 01-1.08.97c-10.25 6.05-15.55-2.36-13.24-11.81.97-3.99 4.8-9.27 2.97-14.63-2.05-6-10.43-7.33-15.9-5.78q-1.22.35-3.88 2.13c-6.11 4.09-14.06 4.54-21.16 2.93-3.39-.76-8.04-2.27-12.27-1.1q-6.67 1.85-12.42 6.07c-13.79 10.13-20.28 14.44-29.58 23.92q-4.44 4.53-5.97 7.24c-3.18 5.62-2.61 12.69 3.58 16.05q1.78.97 6.52.83c7.01-.2 10.77-.51 16.27 1.48q1.54.56 4.13 3.78 11.52 14.29 30.99 14.93 4.47.14 8.23.15a5.65 5.6-36.2 011.66.25c9.62 2.86 19.35 2.62 27.35-3.67q2.29-1.79 5.24-5.91 3.29-4.58 5.08-5.7c5.39-3.38 8.83-3.41 15.68-3.43a2.94 2.84 33.9 00.89-.16c4.31-1.5 5.64-6.96 5.71-11.16q.14-8.1.5-13.95a.6.59 5.2 00-.52-.62" vector-effect="non-scaling-stroke"/><path stroke="#c99919" d="M499.09 521.93q-1.53-2.73-4.54-5.46-7.01-6.34-14.4-.48-3.25 2.58-4.28 3.89c-5.55 7.14-13.49 9.05-22.12 8.15a.43.43 0 00-.41.65q2.8 4.56 7.93 6.23c8.08 2.65 16.83-3.89 25.43-8.94q5.74-3.37 12.18-3.66a.26.26 0 00.21-.38m-32.39 20.06q-5.69-3.56-12.34-4.53c-4.25-.61-6.79 3.02-4.46 6.47 3.94 5.84 12.17 2.08 16.81-1.02a.55.55 0 00-.01-.92m-3.55 21.22a.33.33 0 00-.03.6c8.23 4.43 14.88-3.76 17.51-10.47a.32.32 0 00-.52-.34c-4.64 4.61-10.68 7.75-16.96 10.21m26.93-4.11q-.44-.03-1.09.5-9.95 8.08-22.14 10.5a.5.5 0 00-.27.84c11.65 12.29 19.46-2.41 23.82-11.29a.38.38 0 00-.32-.55m26.85 6.91a.36.36 0 00-.69-.14q-1.98 4.19-6.49 7.11a.84.84 0 00.21 1.51l3.28 1.04a.6.6 0 00.34 0c2.98-.79 3.41-7.17 3.35-9.52m-12.11 1.02q-9.11 8.94-22.64 10.45a.55.54 57 00-.21 1.01q8.43 5.02 15.84-1.2 4.2-3.52 7.56-9.85a.35.35 0 00-.55-.41" vector-effect="non-scaling-stroke"/></g><path fill="#029140" d="M992 0v657H0V0zM614.74 165.95A108.49 102.12-.7 00505.01 65.17 108.49 102.12-.7 00397.78 168.6 108.49 102.12-.7 00507.5 269.39a108.49 102.12-.7 00107.23-103.44m-243.76 107.2L409 236.61a.72.61 85.5 00.16-.22c1.81-3.61.31-8.54-4-9.57-5.15-1.23-7.8.62-12.89 3.38l-41.14 22.25a1.94 1.94 0 01-2.33-.38l-9.78-10.34a1.4 1.4 0 00-1.56-.31q-15.61 7.1-25.65 20.38c-2.85 3.77-4.44 7.47-6.27 11.11a1.3 1.3 0 00.35 1.62l10.29 8.34a1.18 1.17 33.8 01.3 1.48q-8.45 15.41-28.94 53.18c-2.45 4.53-1.92 11.4 5.01 10.85 4.71-.38 7.85-3.38 11.16-6.91q4.41-4.68 36.83-38.03a.58.57-48.1 01.77-.05q68.36 55.25 128.68 106.1 2.25 1.9 5.29 4.21a.95.95 0 01.04 1.47q-41.1 35.11-52.31 44.84c-6.08 5.27-12.27 10.22-18.21 15.47q-12.02 10.62-28.81 25.03-25.13 21.56-50.69 43.28-5.56 4.72-4.8 12.27a3.77 3.61 31.2 00.3 1.12q4.12 9.18 14.44 9.08 7.5-.06 11.83-3.7Q400.7 517.5 484.39 446.9q6.76-5.7 14.63-12.2a1.1 1.1 0 011.43.01l151.43 128.52a3.54 3.43-13 001.01.61q7.13 2.87 13.73-1.44 4.32-2.82 5.13-7.15c.94-5.03-1.59-7.41-5.2-10.5q-2.35-2.02-70.41-62.62-15.71-13.99-21.16-18.9-46.47-41.76-52.79-47.65a.46.46 0 01.02-.69l123.9-104.47a1.02 1.01 49.6 011.43.12l1.36 1.62a1.72 1.71-37.4 002.28.3l14.29-9.89a.9.89 44.3 011.01-.01c2.57 1.71 5.11 6.01 7.28 7.71q1.1.85 32.6 34.33 2.22 2.36 5.43 4.24a1.5 1.49-60.4 002.06-.57c1.85-3.39-.07-8.01-1.57-12.31q-8.42-24.02-18.01-50.8c-1.56-4.36-3.12-6.61-6.38-9.42a1.2 1.19-46.5 01-.04-1.78l6.33-5.98a1.24 1.23-43.5 00.05-1.74l-22.49-23.79a1.74 1.74 0 00-2.38-.14l-5.65 4.77a1.3 1.3 0 01-1.83-.13q-11.18-12.56-26.78-29.65c-2.01-2.2-3.08-2.51-5.88-2.98-11.95-1.98-20.14 7.05-21.36 18.18a1.04 1.01 29.1 00.23.77l28.87 34.77a.48.47 49.1 01-.04.65l-14.51 13.11a1.38 1.38 0 00.06 2.09l2.56 2.07a.6.6 0 01.01.9L499.77 394.3a.91.9-43.7 01-1.21-.02q-12.74-11.86-45.2-41.63c-7.73-7.08-16.59-15.76-24.87-23.44-15.36-14.25-29.24-27.92-43.94-42.02q-7.21-6.91-13.58-13.43a.43.43 0 01.01-.61M681.66 394.7c-.09-6.67-5.22-11.44-11.23-13.36-8.72-2.78-18.23-3.13-30.19-4.26-12.27-1.15-26.74-1.27-36.05 7.61-5.26 5.02-9.45 8.37-16.8 14.21q-3.77 3-6.19 6.33c-2.99 4.11-1.48 8.12 1.53 12.16q4.64 6.23 12.91 18.47 5.21 7.71 9.3 11.46c7.53 6.9 17.07 9.9 27.32 11.67q18.93 3.25 37.74 1.18 11.78-1.29 21.55-8.63 21.69-16.3 22.67-17.06c5.06-3.91 8.24-10.36 3.9-15.87a37 37 0 00-9.39-8.2q-9.08-5.53-19.98-10.41-3.76-1.68-6.38-3.82a2 2 0 01-.71-1.48m-397.04 35.83c-7.21 17.97 9.94 16.09 20.35 21.85q4.14 2.28 7.31 3.81c5.04 2.44 14.99 4.38 21.17 5.88 15.73 3.81 31.44 4.46 46.08-.79 10.99-3.94 19.33-10.22 27.27-18.54 5.62-5.9 12.34-18.6 6.04-26.1q-8.11-9.67-8.84-10.71c-5.02-7.14-12.46-9.23-19.49-12.54a8.96 8.85 81.9 01-2.92-2.22c-12.55-14.48-31.53-11.97-47.14-3.8q-5.44 2.84-14.53 3.9c-5.94.69-9.89 1.51-13.6 5.05q-6.15 5.9-10.52 8.66c-4.6 2.91-7.7 6.41-8.63 11.2q-1.19 6.2-2.25 13.27a5.12 4.87 62 01-.3 1.08m278.96 106.09-4.68-1.15a5.5 5.48 76.5 01-2.83-1.74c-2.68-3.13-5.81-7.33-10.14-3.58q-1.53 1.32-4.01 4.29-.66.79-3.97 1.71c-2.75.76-4.67-.22-5.63-2.74-3.49-9.11 7.78-16.95 1.23-26.3-3.76-5.35-10.67-6.05-16.82-4.98q-1.51.27-5.74 2.79c-6.44 3.84-14.31 3.7-21.94 1.63-7.42-2.02-14.96.27-20.89 4.36q-10.14 6.99-18.13 12.92a124 124 0 00-19.17 17.8c-6.18 7.09-5.98 19.56 3.83 23.41q2.77 1.09 8.01.72c5.6-.39 9.72-.52 14.18 1.58a5 5 0 011.78 1.46 40.8 40.8 0 0026.71 16.38q6.33 1 8.96.9 4.83-.18 11.98 1.22 20.14 3.93 31.11-11.55 3.06-4.31 4.68-5.48c4.09-2.96 8.41-2.67 14.56-3.15 6.85-.55 8.69-9.59 8.72-15.09q0-.87.23-12.77a2.7 2.7 0 00-2.03-2.64m53.9 88a1.62.58-85.8 00-.69 1.57 1.62.58-85.8 00.46 1.66 1.62.58-85.8 00.7-1.58 1.62.58-85.8 00-.46-1.66"/><path fill="#050703" d="M614.74 165.95A108.49 102.12-.7 01507.51 269.4a108.49 102.12-.7 01-109.73-100.78A108.49 102.12-.7 01505 65.17a108.49 102.12-.7 01109.73 100.78m-214.36.9a105.8 99.41-179.8 00105.45 99.78 105.8 99.41-179.8 00106.15-99.04A105.8 99.41-179.8 00506.53 67.8a105.8 99.41-179.8 00-106.15 99.04"/><path fill="#f6d601" d="M400.38 166.85a105.8 99.41-179.8 01106.15-99.04 105.8 99.41-179.8 01105.45 99.78 105.8 99.41-179.8 01-106.15 99.04 105.8 99.41-179.8 01-105.45-99.78m65.49 33.34c6.9 9.17 6 20.92 10.63 30.99 5.13 11.18 16.36 16.75 27.93 20.02a.55.54-74.6 00.68-.39q3.21-12.95-3.17-24.52c-6.06-10.99-12.32-18.86-6.38-29.96q1.41-2.65 3.33-1.25c2.99 2.17 2.55 6.5 2.78 11.5.25 5.24 5.18 9.53 8.87 13.29 6.56 6.69 5.54 17.08 3.22 25.28a.4.39 13.9 00.3.49q.24.05.43-.15c11.65-11.99 31.31-17.47 42.8-22.72 14.42-6.59 23.57-16.12 25.86-32.8q.67-4.81.92-12.03a.39.38-26.5 00-.7-.23q-6.36 8.92-15.94 14.96-1.43.91-3.17 1.51a.75.74-3.1 01-.98-.87q.41-1.77 1.65-3.62c10.16-15.07 20.12-32.78 15.04-51.39-2.81-10.32-10.88-18.88-20.48-23.48a108 108 0 01-26.27-17.66.38.38 0 00-.62.17q-4.24 13.72 3.07 23.97c3.91 5.48 12.78 11.91 16.9 16.86q7.67 9.22 7.83 21.03a.23.22-65.2 01-.4.15q-8.72-10.85-19.94-18.66a.51.51 0 00-.8.45c1.51 19.55 1.14 40.51-8.04 57.57q-1.18 2.19-2.61 3.67a.77.77 0 01-1.33-.52q-.04-3.43.47-12.11c.3-5.12 1.9-10.73 2.51-15.24q2.1-15.7.63-26.71-3.72-27.94-25.92-45.56a.33.33 0 00-.53.24q-1.34 20.03-1.36 20.53-.23 5.05-3.16 8.94a1.43 1.43 0 01-2.44-.25c-1.31-2.76-.87-5.63-1.39-8.3-.93-4.86-2.85-11.53-6.29-24.44q-1.5-5.63-1.92-11.33a.39.38-23.6 00-.65-.25c-10.65 9.77-22.25 24.87-18.63 39.96 1.69 7.03 7.05 14.38 12.11 21.97q6.02 9.05 5.88 20.29-.04 3.12-.08 3.55c-.67 6.74-6.7 8.85-11.96 5.14q-7.81-5.51-8.34-16.3c-.8-16.42-.61-33.1-4.7-49.13a.49.48-35.2 00-.87-.15q-9.48 13.75-16.65 26.79c-8.68 15.78-14.43 33.67-9.49 50.82q3.41 11.82 12.16 21.81 7.87 8.99 15.36 14.52a.31.3-76.8 00.48-.3q-2.28-13.11 3.12-26.11a.15.15 0 01.25-.04"/><path fill="#050703" d="M465.87 200.19a.15.15 0 00-.25.04q-5.4 13-3.12 26.11a.31.3-76.8 01-.48.3q-7.49-5.53-15.36-14.52-8.75-9.99-12.16-21.81c-4.94-17.15.81-35.04 9.49-50.82q7.17-13.04 16.65-26.79a.49.48-35.2 01.87.15c4.09 16.03 3.9 32.71 4.7 49.13q.53 10.79 8.34 16.3c5.26 3.71 11.29 1.6 11.96-5.14q.04-.43.08-3.55.14-11.24-5.88-20.29c-5.06-7.59-10.42-14.94-12.11-21.97-3.62-15.09 7.98-30.19 18.63-39.96a.39.38-23.6 01.65.25q.42 5.7 1.92 11.33c3.44 12.91 5.36 19.58 6.29 24.44.52 2.67.08 5.54 1.39 8.3a1.43 1.43 0 002.44.25q2.93-3.89 3.16-8.94.02-.5 1.36-20.53a.33.33 0 01.53-.24q22.2 17.62 25.92 45.56 1.47 11.01-.63 26.71c-.61 4.51-2.21 10.12-2.51 15.24q-.51 8.68-.47 12.11a.77.77 0 001.33.52q1.43-1.48 2.61-3.67c9.18-17.06 9.55-38.02 8.04-57.57a.51.51 0 01.8-.45q11.22 7.81 19.94 18.66a.23.22-65.2 00.4-.15q-.16-11.81-7.83-21.03c-4.12-4.95-12.99-11.38-16.9-16.86q-7.31-10.25-3.07-23.97a.38.38 0 01.62-.17 108 108 0 0026.27 17.66c9.6 4.6 17.67 13.16 20.48 23.48 5.08 18.61-4.88 36.32-15.04 51.39q-1.24 1.85-1.65 3.62a.75.74-3.1 00.98.87q1.74-.6 3.17-1.51 9.58-6.04 15.94-14.96a.39.38-26.5 01.7.23q-.25 7.22-.92 12.03c-2.29 16.68-11.44 26.21-25.86 32.8-11.49 5.25-31.15 10.73-42.8 22.72q-.19.2-.43.15a.4.39 13.9 01-.3-.49c2.32-8.2 3.34-18.59-3.22-25.28-3.69-3.76-8.62-8.05-8.87-13.29-.23-5 .21-9.33-2.78-11.5q-1.92-1.4-3.33 1.25c-5.94 11.1.32 18.97 6.38 29.96q6.38 11.57 3.17 24.52a.55.54-74.6 01-.68.39c-11.57-3.27-22.8-8.84-27.93-20.02-4.63-10.07-3.73-21.82-10.63-30.99m114.47-14.27q-5.67 6.19-12.54 9.95-3.06 1.67-4.34 1.52c-3.36-.41-4.13-4.21-2.46-6.9q.57-.92 7.43-11.52 6.89-10.67 9.29-23.18c3.22-16.74-4.39-30.88-19.17-38.38-8.26-4.19-16.21-8.92-22.96-14.63a.83.83 0 00-1.35.49q-1.98 11.2 5.99 18.87c11.58 11.14 19.79 17.22 22.41 30.81.73 3.8.51 10.26.78 13.28q.04.41-.34.85a.52.52 0 01-.85-.11q-.76-1.53-1.48-2.46-7.82-10.16-17.29-18.01a.54.54 0 00-.87.31q-.27 1.43-.17 2.68 1.31 16.54-1.98 32.3c-.83 3.96-6.86 25.13-12.67 23.52-2.49-.68-3.36-2.25-3.28-4.98q.36-13.15 1.25-17.08c4.08-17.87 4.96-38.32-3.39-55.24q-5.59-11.33-14.42-19.61a.55.54-54.9 00-.86.15q-.36.71-.41 1.71-.47 10.97-.68 13.26c-.42 4.48-1.95 10.17-6.85 11.62a1.66 1.63-42.3 01-1.06-.04c-3.17-1.21-3.86-2.8-4.25-6.35q-.81-7.25-1.54-9.76-3.98-13.76-6.71-25.2a.31.31 0 00-.53-.14q-8.67 9.4-11.87 16.48c-7.36 16.28 3.71 26.89 10.75 39.3q2.99 5.27 3.53 7.37 2.74 10.63 1.59 17.72c-1.81 11.19-14.54 9.91-20.09 2.52q-3.05-4.07-4.52-8.57-.77-2.36-1.11-9.64-.71-15.72-1.62-29.31c-.27-3.91-1.15-7.61-1.61-10.91a.24.24 0 00-.44-.08q-1.83 3.46-6.98 11.63-4.5 7.12-10.92 20.09c-9.22 18.61-8.99 39.03 3.87 55.94q5.07 6.68 12.03 13.19a.65.64-62.4 001.07-.34q.5-2.36.59-4.69c.2-5.6 2.09-11.71 4.34-16.7.44-.97.37-1.96.7-2.97a.47.47 32.6 01.79-.17q6.25 6.73 8.64 16.14 1.49 5.91 3.95 15.39c3.19 12.37 13.39 17.05 24.48 21.69a.36.35 17.6 00.49-.25c2.19-11.06-2.35-19.84-8.01-28.58q-7.79-11.99-1.39-24.23c1.5-2.86 6.11-3.48 8.39-.79 2.21 2.61 2.43 5.82 2.5 9.42.08 3.87.86 6.56 3.06 9.13 1.96 2.29 4.96 4.65 6.71 7.15q5.68 8.05 4.01 18.24a.3.3 0 00.47.29q5.77-4.19 14.32-8.1c4.29-1.96 15.79-5.96 24.44-10.29q6.13-3.06 6.92-3.61c11.16-7.78 14.91-17.39 16.77-29.93a.32.32 0 00-.55-.26"/><path fill="#dd0210" d="M580.34 185.92a.32.32 0 01.55.26c-1.86 12.54-5.61 22.15-16.77 29.93q-.79.55-6.92 3.61c-8.65 4.33-20.15 8.33-24.44 10.29q-8.55 3.91-14.32 8.1a.3.3 0 01-.47-.29q1.67-10.19-4.01-18.24c-1.75-2.5-4.75-4.86-6.71-7.15-2.2-2.57-2.98-5.26-3.06-9.13-.07-3.6-.29-6.81-2.5-9.42-2.28-2.69-6.89-2.07-8.39.79q-6.4 12.24 1.39 24.23c5.66 8.74 10.2 17.52 8.01 28.58a.36.35 17.6 01-.49.25c-11.09-4.64-21.29-9.32-24.48-21.69q-2.46-9.48-3.95-15.39-2.39-9.41-8.64-16.14a.47.47 32.6 00-.79.17c-.33 1.01-.26 2-.7 2.97-2.25 4.99-4.14 11.1-4.34 16.7q-.09 2.33-.59 4.69a.65.64-62.4 01-1.07.34q-6.96-6.51-12.03-13.19c-12.86-16.91-13.09-37.33-3.87-55.94q6.42-12.97 10.92-20.09 5.15-8.17 6.98-11.63a.24.24 0 01.44.08c.46 3.3 1.34 7 1.61 10.91q.91 13.59 1.62 29.31.34 7.28 1.11 9.64 1.47 4.5 4.52 8.57c5.55 7.39 18.28 8.67 20.09-2.52q1.15-7.09-1.59-17.72-.54-2.1-3.53-7.37c-7.04-12.41-18.11-23.02-10.75-39.3q3.2-7.08 11.87-16.48a.31.31 0 01.53.14q2.73 11.44 6.71 25.2.73 2.51 1.54 9.76c.39 3.55 1.08 5.14 4.25 6.35a1.66 1.63-42.3 001.06.04c4.9-1.45 6.43-7.14 6.85-11.62q.21-2.29.68-13.26.05-1 .41-1.71a.55.54-54.9 01.86-.15q8.83 8.28 14.42 19.61c8.35 16.92 7.47 37.37 3.39 55.24q-.89 3.93-1.25 17.08c-.08 2.73.79 4.3 3.28 4.98 5.81 1.61 11.84-19.56 12.67-23.52q3.29-15.76 1.98-32.3-.1-1.25.17-2.68a.54.54 0 01.87-.31q9.47 7.85 17.29 18.01.72.93 1.48 2.46a.52.52 0 00.85.11q.38-.44.34-.85c-.27-3.02-.05-9.48-.78-13.28-2.62-13.59-10.83-19.67-22.41-30.81q-7.97-7.67-5.99-18.87a.83.83 0 011.35-.49c6.75 5.71 14.7 10.44 22.96 14.63 14.78 7.5 22.39 21.64 19.17 38.38q-2.4 12.51-9.29 23.18-6.86 10.6-7.43 11.52c-1.67 2.69-.9 6.49 2.46 6.9q1.28.15 4.34-1.52 6.87-3.76 12.54-9.95"/><path fill="#050703" d="M370.98 273.15a.43.43 0 00-.01.61q6.37 6.52 13.58 13.43c14.7 14.1 28.58 27.77 43.94 42.02 8.28 7.68 17.14 16.36 24.87 23.44q32.46 29.77 45.2 41.63a.91.9-43.7 001.21.02l125.27-107.44a.6.6 0 00-.01-.9l-2.56-2.07a1.38 1.38 0 01-.06-2.09l14.51-13.11a.48.47 49.1 00.04-.65l-28.87-34.77a1.04 1.01 29.1 01-.23-.77c1.22-11.13 9.41-20.16 21.36-18.18 2.8.47 3.87.78 5.88 2.98q15.6 17.09 26.78 29.65a1.3 1.3 0 001.83.13l5.65-4.77a1.74 1.74 0 012.38.14l22.49 23.79a1.24 1.23-43.5 01-.05 1.74l-6.33 5.98a1.2 1.19-46.5 00.04 1.78c3.26 2.81 4.82 5.06 6.38 9.42q9.59 26.78 18.01 50.8c1.5 4.3 3.42 8.92 1.57 12.31a1.5 1.49-60.4 01-2.06.57q-3.21-1.88-5.43-4.24-31.5-33.48-32.6-34.33c-2.17-1.7-4.71-6-7.28-7.71a.9.89 44.3 00-1.01.01l-14.29 9.89a1.72 1.71-37.4 01-2.28-.3l-1.36-1.62a1.02 1.01 49.6 00-1.43-.12l-123.9 104.47a.46.46 0 00-.02.69q6.32 5.89 52.79 47.65 5.45 4.91 21.16 18.9 68.06 60.6 70.41 62.62c3.61 3.09 6.14 5.47 5.2 10.5q-.81 4.33-5.13 7.15-6.6 4.31-13.73 1.44a3.54 3.43-13 01-1.01-.61L500.45 434.71a1.1 1.1 0 00-1.43-.01q-7.87 6.5-14.63 12.2-83.69 70.6-137.32 115.66-4.33 3.64-11.83 3.7-10.32.1-14.44-9.08a3.77 3.61 31.2 01-.3-1.12q-.76-7.55 4.8-12.27 25.56-21.72 50.69-43.28 16.79-14.41 28.81-25.03c5.94-5.25 12.13-10.2 18.21-15.47q11.21-9.73 52.31-44.84a.95.95 0 00-.04-1.47q-3.04-2.31-5.29-4.21-60.32-50.85-128.68-106.1a.58.57-48.1 00-.77.05q-32.42 33.35-36.83 38.03c-3.31 3.53-6.45 6.53-11.16 6.91-6.93.55-7.46-6.32-5.01-10.85q20.49-37.77 28.94-53.18a1.18 1.17 33.8 00-.3-1.48l-10.29-8.34a1.3 1.3 0 01-.35-1.62c1.83-3.64 3.42-7.34 6.27-11.11q10.04-13.28 25.65-20.38a1.4 1.4 0 011.56.31l9.78 10.34a1.94 1.94 0 002.33.38l41.14-22.25c5.09-2.76 7.74-4.61 12.89-3.38 4.31 1.03 5.81 5.96 4 9.57a.72.61 85.5 01-.16.22zm341.17 72.42q.04-2.17-1-4.99l-20.31-56.9q-.53-1.48-2.42-3.57-23.92-26.35-54.76-60.54c-1.94-2.15-2.77-2.34-5.47-2.7-9.47-1.23-16.3 5.86-17.58 14.8a1.47 1.45 29.1 00.34 1.17l29.86 35.42a.44.43 49.3 01-.04.61l-15.15 13.69a.4.4 0 00-.02.56l24.44 25.85a.93.92-38.6 001.2.13l14.81-10.25a.7.69-39.2 01.9.09l44.37 46.95a.48.48 0 00.83-.32m-359.88-90.19 16.2 15.94a.5.5 0 00.7 0q19.26-18.92 35.56-34.22c2.38-2.23 4.11-5.12.76-7.13q-3.25-1.95-6.99.05-19.12 10.25-46.17 24.91a.3.3 53.1 00-.06.45m40.68 43.82-55.42-54.55a.4.4 0 00-.43-.07q-19.47 9.13-28.55 27.73a1 1 0 00.26 1.18l58.11 47.08a.5.5 0 00.75-.16q7.79-15.33 25.19-20.83a.23.23 0 00.09-.38m297.96-31.83a.54.54 0 00.01-.75l-20.27-21.44a.54.54 0 00-.75-.03l-4.84 4.38a.54.54 0 00-.04.76l20.06 22.2a.54.54 0 00.78.01zm-371.57 18.1a.42.42 0 00-.64.13q-11 20.31-29.09 53.51c-.91 1.67-1.54 5.26.6 6.38 3.13 1.65 7.4-1.41 9.46-3.58q18.82-19.8 38.61-39.8a.92.92 0 00-.08-1.36zm325.55 21.98-17.43-18.44a.63.62-41.9 00-.85-.04q-169.54 145.4-299.33 256.56c-5.89 5.05-5.87 13.45 1.6 16.88 6.62 3.04 13.43.93 18.87-3.66q186.92-157.86 297.11-250.78a.36.35-42.3 00.03-.52m-275.07 15.41 108.01 89.38a.7.7 0 00.9 0L496.49 397a.74.73-44 00.02-1.1q-50.55-46.08-100.64-94.11a.96.95 57.5 00-.94-.21c-11.23 3.66-20.06 9.74-25.24 20.7a.49.48 32.4 00.13.58m132.27 109.88q70.48 59.33 150.36 127.57c4.49 3.84 11.25 2.19 14.78-1.85q3.46-3.95 1.74-7.46-.58-1.2-5.71-5.74-76.55-67.75-143.12-127.78a.65.64 45.7 00-.84-.02l-17.21 14.51a.51.5-45.3 000 .77"/><path fill="#e8e8dc" d="M712.15 345.57a.48.48 0 01-.83.32l-44.37-46.95a.7.69-39.2 00-.9-.09l-14.81 10.25a.93.92-38.6 01-1.2-.13l-24.44-25.85a.4.4 0 01.02-.56l15.15-13.69a.44.43 49.3 00.04-.61l-29.86-35.42a1.47 1.45 29.1 01-.34-1.17c1.28-8.94 8.11-16.03 17.58-14.8 2.7.36 3.53.55 5.47 2.7q30.84 34.19 54.76 60.54 1.89 2.09 2.42 3.57l20.31 56.9q1.04 2.82 1 4.99m-359.88-90.19a.3.3 53.1 01.06-.45q27.05-14.66 46.17-24.91 3.74-2 6.99-.05c3.35 2.01 1.62 4.9-.76 7.13q-16.3 15.3-35.56 34.22a.5.5 0 01-.7 0zm40.68 43.82a.23.23 0 01-.09.38q-17.4 5.5-25.19 20.83a.5.5 0 01-.75.16l-58.11-47.08a1 1 0 01-.26-1.18q9.08-18.6 28.55-27.73a.4.4 0 01.43.07zm297.96-31.83-5.05 5.13a.54.54 0 01-.78-.01l-20.06-22.2a.54.54 0 01.04-.76l4.84-4.38a.54.54 0 01.75.03l20.27 21.44a.54.54 0 01-.01.75m-371.57 18.1 18.86 15.28a.92.92 0 01.08 1.36q-19.79 20-38.61 39.8c-2.06 2.17-6.33 5.23-9.46 3.58-2.14-1.12-1.51-4.71-.6-6.38q18.09-33.2 29.09-53.51a.42.42 0 01.64-.13m325.55 21.98a.36.35-42.3 01-.03.52q-110.19 92.92-297.11 250.78c-5.44 4.59-12.25 6.7-18.87 3.66-7.47-3.43-7.49-11.83-1.6-16.88q129.79-111.16 299.33-256.56a.63.62-41.9 01.85.04z"/><path fill="#e8e8dc" d="M369.82 322.86a.49.48 32.4 01-.13-.58c5.18-10.96 14.01-17.04 25.24-20.7a.96.95 57.5 01.94.21q50.09 48.03 100.64 94.11a.74.73-44 01-.02 1.1l-17.76 15.24a.7.7 0 01-.9 0z"/><path fill="#050703" d="M681.66 394.7a2 2 0 00.71 1.48q2.62 2.14 6.38 3.82 10.9 4.88 19.98 10.41a37 37 0 019.39 8.2c4.34 5.51 1.16 11.96-3.9 15.87q-.98.76-22.67 17.06-9.77 7.34-21.55 8.63-18.81 2.07-37.74-1.18c-10.25-1.77-19.79-4.77-27.32-11.67q-4.09-3.75-9.3-11.46-8.27-12.24-12.91-18.47c-3.01-4.04-4.52-8.05-1.53-12.16q2.42-3.33 6.19-6.33c7.35-5.84 11.54-9.19 16.8-14.21 9.31-8.88 23.78-8.76 36.05-7.61 11.96 1.13 21.47 1.48 30.19 4.26 6.01 1.92 11.14 6.69 11.23 13.36m-97.96 11.72c-2.39 3.49-.85 6.46 1.47 9.38q3.99 5.03 11.86 17 4.93 7.51 8.94 11.66c6.5 6.73 17.36 10.18 27.07 11.72q12.42 1.96 24.15 1.78 11.57-.17 16.94-1.35 7.88-1.73 15.32-7.2 11.34-8.33 22.94-17.02c12.96-9.71-2.89-18.71-10.42-22.62q-5.86-3.05-15.26-7.47-3.84-1.81-6.33-3.78a3.84 3.82 15.3 01-1.39-2.42q-.5-3.28-.99-4.83c-1.94-6.22-11.87-8.57-17.75-9.28q-17.17-2.09-29.25-2.62c-7.03-.31-17.97.66-22.95 5.46q-8.44 8.13-19.2 16.26-3.11 2.35-5.15 5.33"/><path fill="#f6d601" d="M585.17 415.8c-2.32-2.92-3.86-5.89-1.47-9.38q2.04-2.98 5.15-5.33 10.76-8.13 19.2-16.26c4.98-4.8 15.92-5.77 22.95-5.46q12.08.53 29.25 2.62c5.88.71 15.81 3.06 17.75 9.28q.49 1.55.99 4.83a3.84 3.82 15.3 001.39 2.42q2.49 1.97 6.33 3.78 9.4 4.42 15.26 7.47c7.53 3.91 23.38 12.91 10.42 22.62q-11.6 8.69-22.94 17.02-7.44 5.47-15.32 7.2-5.37 1.18-16.94 1.35-11.73.18-24.15-1.78c-9.71-1.54-20.57-4.99-27.07-11.72q-4.01-4.15-8.94-11.66-7.87-11.97-11.86-17m28.56-13.7c.37-1.93.48-7.93-1.32-9.75-1.91-1.94-4.88-1.05-7.2-.45a.57.57 0 00-.15 1.04q5.17 3.16 7.83 9.25a.44.44 0 00.84-.09m68.63 7.69a.29.29 0 00-.08-.52c-7-1.9-9.29-9.43-9.16-16.02a.78.77 76.1 00-1.15-.7c-5.48 3.02-13.09 6.38-18.89 4.59q-3.09-.96-5.07-4.54a.5.5 0 00-.94.18c-.28 2.27-.98 6.23.4 8.19 3.65 5.15 14.73.13 19.1-2.26a.95.94-15.5 011.4.79 20 20 0 002.86 9.58c2.79 4.4 7.91 2.88 11.53.71m-78.59 2.47q-3.75-.43-8.74-.44c-7.76-.03-4.37 5.73-2.64 9.51a.52.51-54.2 00.98-.16q.28-2.46 2.3-4.13 3.22-2.67 8.16-3.9a.45.45 0 00-.06-.88m89.06 24.12c5.63-1.98 15.18-5.58 18.35-10.61a3.91 3.12-47.1 00.28-3.7c-1.63-2.76-8.96-5.94-10.87-6.75-5-2.13-9.6-2.5-14.88-2.77a.95.95 0 00-1 .89q-.42 6.69 3.61 11.46c2.31 2.72 7.67 2.92 7.23 7.47a.92.88 68.6 01-.19.46l-2.69 3.32a.15.15 0 00.16.23m-81.24 6.79c8.78.59 18.4.53 26.52-3.53a6.7 6.7 0 003.72-6.02v-2.3a2.49 2.49 0 00-3.92-2.03q-9.44 6.64-26.41 13.3a.3.3 0 00.09.58m25.86 5.65a.56.55-86.7 00.45.51c12.73 2.29 20.03 3.78 31.6 3.7 8.62-.05 17.54-3.19 15.7-13.98q-.35-2.05-1.07-3.6a.62.62 0 00-1.08-.08c-2.56 3.87-9.16 6.89-13.67 8.27q-15.1 4.62-31.49 4.69a.44.44 0 00-.44.47z"/><path fill="#050703" d="M304.97 452.38c-10.41-5.76-27.56-3.88-20.35-21.85a5.12 4.87 62 00.3-1.08q1.06-7.07 2.25-13.27c.93-4.79 4.03-8.29 8.63-11.2q4.37-2.76 10.52-8.66c3.71-3.54 7.66-4.36 13.6-5.05q9.09-1.06 14.53-3.9c15.61-8.17 34.59-10.68 47.14 3.8a8.96 8.85 81.9 002.92 2.22c7.03 3.31 14.47 5.4 19.49 12.54q.73 1.04 8.84 10.71c6.3 7.5-.42 20.2-6.04 26.1-7.94 8.32-16.28 14.6-27.27 18.54-14.64 5.25-30.35 4.6-46.08.79-6.18-1.5-16.13-3.44-21.17-5.88q-3.17-1.53-7.31-3.81m-17.36-21.79c-.93 3.46-3.91 8.84.27 11.72 5.1 3.53 11.37 3.84 17.09 6.66 5.41 2.67 11.19 6.12 17.85 7.56q4 .86 14.47 3.39c25.66 6.21 49.88.46 67.76-19.59 4.46-5 10.92-15.7 5.77-21.65q-7.13-8.24-9.08-10.81a28 28 0 00-13.08-9.49q-5.4-1.94-7.07-3.34-.72-.61-5.74-5.48c-9.4-9.14-24.97-6.89-36.33-1.61-6.74 3.14-12.64 5.43-19.72 5.97-5.82.44-9.25 1.69-12.9 5.26q-5.69 5.56-9.67 7.95c-4.43 2.66-7.07 5.87-7.63 10.25q-1.42 11.09-1.99 13.21"/><path fill="#f6d601" d="M287.88 442.31c-4.18-2.88-1.2-8.26-.27-11.72q.57-2.12 1.99-13.21c.56-4.38 3.2-7.59 7.63-10.25q3.98-2.39 9.67-7.95c3.65-3.57 7.08-4.82 12.9-5.26 7.08-.54 12.98-2.83 19.72-5.97 11.36-5.28 26.93-7.53 36.33 1.61q5.02 4.87 5.74 5.48 1.67 1.4 7.07 3.34a28 28 0 0113.08 9.49q1.95 2.57 9.08 10.81c5.15 5.95-1.31 16.65-5.77 21.65-17.88 20.05-42.1 25.8-67.76 19.59q-10.47-2.53-14.47-3.39c-6.66-1.44-12.44-4.89-17.85-7.56-5.72-2.82-11.99-3.13-17.09-6.66m75.93-36.49q2.68-9.6 12.57-11.1a.47.47 0 00.13-.89c-8.44-3.97-13.45-7.41-20.82-5.93a.5.49-32.3 00-.2.88c5.43 4.11 7.09 10.41 7.71 16.99a.31.31 0 00.61.05m-41.55 32.97a.19.19 0 00.14-.33q-6.33-6.17-13.88-10.7-2.78-1.67-5.94-1.81a.73.73 0 00-.75.89c2.1 9.02 12.63 11.47 20.43 11.95m28.79-12.35q-.45.16-.87.96-6.47 12.3-17.6 19.91a.55.54-50.5 00.09.95c16.86 7.28 18.38-10.7 18.93-21.41a.42.41-8.2 00-.55-.41m.86 21.28a.29.29 0 00.24.5q7.39-1.1 14.25-.26a11.33 11.27 60.9 013.37.97c3.18 1.49 5.77 3.11 8.73 3.21q4.45.14 7.74-3.13 4.22-4.2 8.77-15.87a1.82 1.82 0 00-2.23-2.4l-4.4 1.5a8.8 8.8.5 00-5.46 5.36l-2.68 7.4a1.36 1.35 2.5 01-.94.86c-3.72.94-6.96-.91-9.68-3a3.31 3.22 69.7 00-1.24-.59c-5.31-1.3-8.63.64-13.01 3.18q-2.58 1.49-3.46 2.27"/><path fill="#9c5c30" d="M363.81 405.82a.31.31 0 01-.61-.05c-.62-6.58-2.28-12.88-7.71-16.99a.5.49-32.3 01.2-.88c7.37-1.48 12.38 1.96 20.82 5.93a.47.47 0 01-.13.89q-9.89 1.5-12.57 11.1m249.92-3.72a.44.44 0 01-.84.09q-2.66-6.09-7.83-9.25a.57.57 0 01.15-1.04c2.32-.6 5.29-1.49 7.2.45 1.8 1.82 1.69 7.82 1.32 9.75m68.63 7.69c-3.62 2.17-8.74 3.69-11.53-.71a20 20 0 01-2.86-9.58.95.94-15.5 00-1.4-.79c-4.37 2.39-15.45 7.41-19.1 2.26-1.38-1.96-.68-5.92-.4-8.19a.5.5 0 01.94-.18q1.98 3.58 5.07 4.54c5.8 1.79 13.41-1.57 18.89-4.59a.78.77 76.1 011.15.7c-.13 6.59 2.16 14.12 9.16 16.02a.29.29 0 01.08.52m-78.59 2.47a.45.45 0 01.06.88q-4.94 1.23-8.16 3.9-2.02 1.67-2.3 4.13a.52.51-54.2 01-.98.16c-1.73-3.78-5.12-9.54 2.64-9.51q4.99.01 8.74.44m89.06 24.12a.15.15 0 01-.16-.23l2.69-3.32a.92.88 68.6 00.19-.46c.44-4.55-4.92-4.75-7.23-7.47q-4.03-4.77-3.61-11.46a.95.95 0 011-.89c5.28.27 9.88.64 14.88 2.77 1.91.81 9.24 3.99 10.87 6.75a3.91 3.12-47.1 01-.28 3.7c-3.17 5.03-12.72 8.63-18.35 10.61"/><path fill="#e8e8dc" d="m502.09 431.97 17.21-14.51a.65.64 45.7 01.84.02q66.57 60.03 143.12 127.78 5.13 4.54 5.71 5.74 1.72 3.51-1.74 7.46c-3.53 4.04-10.29 5.69-14.78 1.85q-79.88-68.24-150.36-127.57a.51.5-45.3 010-.77"/><path fill="#9c5c30" d="M322.26 438.79c-7.8-.48-18.33-2.93-20.43-11.95a.73.73 0 01.75-.89q3.16.14 5.94 1.81 7.55 4.53 13.88 10.7a.19.19 0 01-.14.33m28.79-12.35a.42.41-8.2 01.55.41c-.55 10.71-2.07 28.69-18.93 21.41a.55.54-50.5 01-.09-.95q11.13-7.61 17.6-19.91.42-.8.87-.96m260.54 16.73a.3.3 0 01-.09-.58q16.97-6.66 26.41-13.3a2.49 2.49 0 013.92 2.03v2.3a6.7 6.7 0 01-3.72 6.02c-8.12 4.06-17.74 4.12-26.52 3.53m-259.68 4.55q.88-.78 3.46-2.27c4.38-2.54 7.7-4.48 13.01-3.18a3.31 3.22 69.7 011.24.59c2.72 2.09 5.96 3.94 9.68 3a1.36 1.35 2.5 00.94-.86l2.68-7.4a8.8 8.8.5 015.46-5.36l4.4-1.5a1.82 1.82 0 012.23 2.4q-4.55 11.67-8.77 15.87-3.29 3.27-7.74 3.13c-2.96-.1-5.55-1.72-8.73-3.21a11.33 11.27 60.9 00-3.37-.97q-6.86-.84-14.25.26a.29.29 0 01-.24-.5m285.54 1.1v-.02a.44.44 0 01.44-.47q16.39-.07 31.49-4.69c4.51-1.38 11.11-4.4 13.67-8.27a.62.62 0 011.08.08q.72 1.55 1.07 3.6c1.84 10.79-7.08 13.93-15.7 13.98-11.57.08-18.87-1.41-31.6-3.7a.56.55-86.7 01-.45-.51"/><path fill="#050703" d="M563.58 536.62a2.7 2.7 0 012.03 2.64q-.23 11.9-.23 12.77c-.03 5.5-1.87 14.54-8.72 15.09-6.15.48-10.47.19-14.56 3.15q-1.62 1.17-4.68 5.48-10.97 15.48-31.11 11.55-7.15-1.4-11.98-1.22-2.63.1-8.96-.9a40.8 40.8 0 01-26.71-16.38 5 5 0 00-1.78-1.46c-4.46-2.1-8.58-1.97-14.18-1.58q-5.24.37-8.01-.72c-9.81-3.85-10.01-16.32-3.83-23.41a124 124 0 0119.17-17.8q7.99-5.93 18.13-12.92c5.93-4.09 13.47-6.38 20.89-4.36 7.63 2.07 15.5 2.21 21.94-1.63q4.23-2.52 5.74-2.79c6.15-1.07 13.06-.37 16.82 4.98 6.55 9.35-4.72 17.19-1.23 26.3.96 2.52 2.88 3.5 5.63 2.74q3.31-.92 3.97-1.71 2.48-2.97 4.01-4.29c4.33-3.75 7.46.45 10.14 3.58a5.5 5.48 76.5 002.83 1.74zm-.93 2.29c-3.86-.51-7.15-1.18-9.28-4.15q-1.13-1.56-2.22-2.76a2.2 2.2 0 00-2.8-.39q-2.02 1.26-4.48 4.49a3.76 3.65 2.2 01-1.08.97c-10.25 6.05-15.55-2.36-13.24-11.81.97-3.99 4.8-9.27 2.97-14.63-2.05-6-10.43-7.33-15.9-5.78q-1.22.35-3.88 2.13c-6.11 4.09-14.06 4.54-21.16 2.93-3.39-.76-8.04-2.27-12.27-1.1q-6.67 1.85-12.42 6.07c-13.79 10.13-20.28 14.44-29.58 23.92q-4.44 4.53-5.97 7.24c-3.18 5.62-2.61 12.69 3.58 16.05q1.78.97 6.52.83c7.01-.2 10.77-.51 16.27 1.48q1.54.56 4.13 3.78 11.52 14.29 30.99 14.93 4.47.14 8.23.15a5.65 5.6-36.2 011.66.25c9.62 2.86 19.35 2.62 27.35-3.67q2.29-1.79 5.24-5.91 3.29-4.58 5.08-5.7c5.39-3.38 8.83-3.41 15.68-3.43a2.94 2.84 33.9 00.89-.16c4.31-1.5 5.64-6.96 5.71-11.16q.14-8.1.5-13.95a.6.59 5.2 00-.52-.62"/><path fill="#f6d601" d="M562.65 538.91a.6.59 5.2 01.52.62q-.36 5.85-.5 13.95c-.07 4.2-1.4 9.66-5.71 11.16a2.94 2.84 33.9 01-.89.16c-6.85.02-10.29.05-15.68 3.43q-1.79 1.12-5.08 5.7-2.95 4.12-5.24 5.91c-8 6.29-17.73 6.53-27.35 3.67a5.65 5.6-36.2 00-1.66-.25q-3.76-.01-8.23-.15-19.47-.64-30.99-14.93-2.59-3.22-4.13-3.78c-5.5-1.99-9.26-1.68-16.27-1.48q-4.74.14-6.52-.83c-6.19-3.36-6.76-10.43-3.58-16.05q1.53-2.71 5.97-7.24c9.3-9.48 15.79-13.79 29.58-23.92q5.75-4.22 12.42-6.07c4.23-1.17 8.88.34 12.27 1.1 7.1 1.61 15.05 1.16 21.16-2.93q2.66-1.78 3.88-2.13c5.47-1.55 13.85-.22 15.9 5.78 1.83 5.36-2 10.64-2.97 14.63-2.31 9.45 2.99 17.86 13.24 11.81a3.76 3.65 2.2 001.08-.97q2.46-3.23 4.48-4.49a2.2 2.2 0 012.8.39q1.09 1.2 2.22 2.76c2.13 2.97 5.42 3.64 9.28 4.15m-63.56-16.98q-1.53-2.73-4.54-5.46-7.01-6.34-14.4-.48-3.25 2.58-4.28 3.89c-5.55 7.14-13.49 9.05-22.12 8.15a.43.43 0 00-.41.65q2.8 4.56 7.93 6.23c8.08 2.65 16.83-3.89 25.43-8.94q5.74-3.37 12.18-3.66a.26.26 0 00.21-.38m-32.39 20.06q-5.69-3.56-12.34-4.53c-4.25-.61-6.79 3.02-4.46 6.47 3.94 5.84 12.17 2.08 16.81-1.02a.55.55 0 00-.01-.92m-3.55 21.22a.33.33 0 00-.03.6c8.23 4.43 14.88-3.76 17.51-10.47a.32.32 0 00-.52-.34c-4.64 4.61-10.68 7.75-16.96 10.21m26.93-4.11q-.44-.03-1.09.5-9.95 8.08-22.14 10.5a.5.5 0 00-.27.84c11.65 12.29 19.46-2.41 23.82-11.29a.38.38 0 00-.32-.55m26.85 6.91a.36.36 0 00-.69-.14q-1.98 4.19-6.49 7.11a.84.84 0 00.21 1.51l3.28 1.04a.6.6 0 00.34 0c2.98-.79 3.41-7.17 3.35-9.52m-12.11 1.02q-9.11 8.94-22.64 10.45a.55.54 57 00-.21 1.01q8.43 5.02 15.84-1.2 4.2-3.52 7.56-9.85a.35.35 0 00-.55-.41"/><path fill="#9c5c30" d="M499.09 521.93a.26.26 0 01-.21.38q-6.44.29-12.18 3.66c-8.6 5.05-17.35 11.59-25.43 8.94q-5.13-1.67-7.93-6.23a.43.43 0 01.41-.65c8.63.9 16.57-1.01 22.12-8.15q1.03-1.31 4.28-3.89 7.39-5.86 14.4.48 3.01 2.73 4.54 5.46m-32.39 20.06a.55.55 0 01.01.92c-4.64 3.1-12.87 6.86-16.81 1.02-2.33-3.45.21-7.08 4.46-6.47q6.65.97 12.34 4.53m-3.55 21.22c6.28-2.46 12.32-5.6 16.96-10.21a.32.32 0 01.52.34c-2.63 6.71-9.28 14.9-17.51 10.47a.33.33 0 01.03-.6m26.93-4.11a.38.38 0 01.32.55c-4.36 8.88-12.17 23.58-23.82 11.29a.5.5 0 01.27-.84q12.19-2.42 22.14-10.5.65-.53 1.09-.5m26.85 6.91c.06 2.35-.37 8.73-3.35 9.52a.6.6 0 01-.34 0l-3.28-1.04a.84.84 0 01-.21-1.51q4.51-2.92 6.49-7.11a.36.36 0 01.69.14m-12.11 1.02a.35.35 0 01.55.41q-3.36 6.33-7.56 9.85-7.41 6.22-15.84 1.2a.55.54 57 01.21-1.01q13.53-1.51 22.64-10.45"/><ellipse fill="#050703" rx="1.62" ry=".58" transform="rotate(-85.8 645.64 -19.07)"/></svg>