<svg xmlns="http://www.w3.org/2000/svg" viewBox="0 0 396.87 264.58"><path fill="#ff1236" fill-rule="evenodd" stroke="red" stroke-linecap="square" stroke-width=".17" d="M.14.14h224.73V62.5H.14z" opacity=".98" transform="matrix(1.76252 0 0 1.76343 .15 -.08)"/><path fill="#faff0f" fill-rule="evenodd" stroke="red" stroke-linecap="square" stroke-width=".11" d="M0 62.5h225v25H0z" opacity=".98" transform="matrix(1.76252 0 0 1.76343 .15 -.08)"/><path fill="#0f80ff" fill-rule="evenodd" stroke="red" stroke-linecap="square" stroke-width=".17" d="M0 87.5h225V150H0z" opacity=".98" transform="matrix(1.76252 0 0 1.76343 .15 -.08)"/><path fill="#faff0f" fill-opacity=".98" d="M171.77 167.1c4.6-.87 9.23-1.65 13.92-1.86q5.57 10.81 11.88 21.25c.48-.05 1.48-.1 1.97-.14 4.45-6.6 7.39-14.1 11.99-20.6 4.5-1.28 9.22.96 13.73 1.36-5.64 11.64-13.27 22.26-18.68 33.98 3.19 8.34 8.53 15.75 12.86 23.56l2.05-.7c9.36-17.94 18.33-36.12 27.32-54.28q8 .7 15.72 2.71-21.98 39.98-44.01 79.89c-7.86-12.24-14.37-25.27-21.98-37.65-7.7 12.36-14.12 25.46-22.07 37.65-14.66-26.75-29.47-53.44-44.13-80.19a238 238 0 0115.9-2.4c8.09 16.85 16.85 33.37 25 50.2a19 19 0 004.2 5.64c3.77-8.43 9.87-15.73 13-24.38-5.37-11.76-13.03-22.4-18.67-34.05"/><path fill="#faff0f" fill-opacity=".98" fill-rule="evenodd" d="M47.56 21.96v11.78a7.05 7.05 0 017.05 7.1 7.05 7.05 0 01-7.05 7.08v19.61l15.39 7.64-15.4 7.63v5.3h81.55v-5.3l-15.4-7.63 15.4-7.64v-19.6h-.13a7.05 7.05 0 01-7.08-7.1 7.05 7.05 0 017.08-7.09h.13V21.96c-3.62.76-7.21 3.53-8.52 6.63 3 .46 5.06 3.55 1.59 6.3-2.17-.16-4.02-1.04-4.69-3.18a12 12 0 00-6.84 8.1 13.6 13.6 0 007.02 8.82c1-3.04 3.79-2.56 6.34-.78-2.47 4.34-3.75 13.4-15.35 17.33-11.47-3.95-12.8-12.94-15.23-17.24 2.56-1.77 5.33-2.26 6.35.77a13.6 13.6 0 007.01-8.81 12 12 0 00-6.85-8.04c-.66 2.11-2.5 3-4.67 3.15-3.48-2.75-1.41-5.82 1.58-6.28-1.3-3.1-4.9-5.87-8.51-6.63-3.61.76-7.23 3.53-8.51 6.63 3 .46 5.05 3.53 1.58 6.28-2.17-.16-4.02-1.04-4.69-3.17a12 12 0 00-6.83 8.07 13.6 13.6 0 007.01 8.8c1-3.03 3.77-2.54 6.35-.77-2.45 4.3-3.78 13.3-15.23 17.23-11.6-3.94-12.9-13-15.35-17.34 2.55-1.76 5.32-2.25 6.34.78a13.6 13.6 0 007-8.82 12 12 0 00-6.84-8.1c-.67 2.14-2.5 3.02-4.67 3.18-3.5-2.75-1.41-5.82 1.58-6.3-1.32-3.1-4.91-5.87-8.53-6.62m40.77 11.77a7.05 7.05 0 017.09 7.1 7.05 7.05 0 01-7.09 7.1 7.05 7.05 0 01-7.08-7.09 7.05 7.05 0 017.08-7.09m0 2.03a5.1 5.1 0 00-5.07 5.06 5.1 5.1 0 005.07 5.08 5.1 5.1 0 005.06-5.08 5.1 5.1 0 00-5.06-5.06m40.64 0a5.1 5.1 0 00-5.05 5.06 5.1 5.1 0 005.05 5.08h.13v-.05a3.33 5.03 0 003.2-5.03 3.33 5.03 0 00-3.2-5v-.06zm-81.42 0v.04a3.33 5.03 0 00-3.32 5.02 3.33 5.03 0 003.32 5.04v.04a5.1 5.1 0 005.04-5.08 5.1 5.1 0 00-5.04-5.06M88.3 67.51l15.39 7.66-15.37 7.63-15.39-7.63zm-40.78 2.2c-2.42 1.31-3.28 3.1-3.28 5.2 0 2.39 1.18 5.53 3.28 5.69l10.98-5.43zm40.78 0-10.98 5.46L88.3 80.6l10.96-5.43zm40.72 0-10.97 5.46 10.97 5.43c2.11-.18 3.3-3.3 3.3-5.68 0-2.12-.89-3.88-3.3-5.2m28.57-47.76v11.78a7.05 7.05 0 017.05 7.1 7.05 7.05 0 01-7.05 7.08v19.61l15.38 7.64-15.38 7.63v5.3h81.55v-5.3l-15.4-7.63 15.4-7.64v-19.6h-.13a7.05 7.05 0 01-7.08-7.1 7.05 7.05 0 017.08-7.09h.13V21.96c-3.62.76-7.23 3.53-8.52 6.63 3 .46 5.06 3.55 1.6 6.3-2.2-.16-4.03-1.04-4.7-3.18a12 12 0 00-6.84 8.1 13.6 13.6 0 007.02 8.82c1-3.04 3.77-2.56 6.34-.78-2.46 4.34-3.77 13.4-15.37 17.33-11.45-3.95-12.77-12.94-15.22-17.24 2.57-1.77 5.34-2.26 6.34.77a13.6 13.6 0 007.02-8.81 12 12 0 00-6.84-8.04c-.67 2.11-2.52 3-4.67 3.15-3.5-2.75-1.41-5.82 1.58-6.28-1.32-3.1-4.91-5.87-8.53-6.63-3.61.76-7.2 3.53-8.51 6.63 3 .46 5.06 3.53 1.59 6.28-2.17-.16-4-1.04-4.67-3.17a12 12 0 00-6.84 8.07 13.6 13.6 0 007.01 8.8c1-3.03 3.77-2.54 6.35-.77-2.47 4.3-3.76 13.3-15.25 17.24-11.6-3.93-12.9-13-15.33-17.33 2.54-1.76 5.32-2.26 6.32.78a13.6 13.6 0 007.02-8.82 12 12 0 00-6.84-8.1c-.67 2.14-2.52 3.02-4.69 3.18-3.47-2.75-1.4-5.82 1.59-6.3-1.3-3.1-4.9-5.87-8.51-6.63m40.76 11.78a7.05 7.05 0 017.1 7.1 7.05 7.05 0 01-7.1 7.1 7.05 7.05 0 01-7.08-7.1 7.05 7.05 0 017.08-7.1m0 2.03a5.1 5.1 0 00-5.06 5.06 5.1 5.1 0 005.06 5.08 5.1 5.1 0 005.08-5.08 5.1 5.1 0 00-5.08-5.06m40.66 0a5.1 5.1 0 00-5.07 5.06 5.1 5.1 0 005.07 5.08h.13v-.05a3.33 5.03 0 003.2-5.03 3.33 5.03 0 00-3.2-5v-.06zm-81.42 0v.04a3.33 5.03 0 00-3.34 5.02 3.33 5.03 0 003.34 5.04v.04a5.1 5.1 0 005.04-5.08 5.1 5.1 0 00-5.04-5.06m40.76 31.74 15.4 7.66-15.4 7.63-15.38-7.63zm-40.76 2.2c-2.44 1.31-3.3 3.1-3.3 5.2 0 2.39 1.18 5.53 3.3 5.69l10.98-5.43zm40.76 0-10.96 5.46 10.96 5.43 10.98-5.43zm40.72 0-10.97 5.46 10.98 5.43c2.12-.18 3.3-3.3 3.3-5.68 0-2.12-.88-3.88-3.3-5.2m28.65-47.74v11.78a7.05 7.05 0 017.05 7.09 7.05 7.05 0 01-7.05 7.09v19.6l15.38 7.64-15.38 7.64v5.29h81.53v-5.3l-15.39-7.63 15.39-7.63V47.94h-.1a7.05 7.05 0 01-7.1-7.1 7.05 7.05 0 017.1-7.08h.1V21.98c-3.6.76-7.2 3.53-8.51 6.63 3 .46 5.06 3.55 1.58 6.3-2.16-.16-4.02-1.04-4.67-3.18a12 12 0 00-6.85 8.1 13.6 13.6 0 007.03 8.81c1-3.03 3.77-2.55 6.34-.77-2.46 4.34-3.77 13.4-15.37 17.33-11.47-3.95-12.77-12.94-15.22-17.24 2.55-1.77 5.34-2.26 6.34.77a13.6 13.6 0 007.02-8.82 12 12 0 00-6.84-8.04c-.67 2.12-2.52 3-4.67 3.16-3.5-2.75-1.41-5.82 1.57-6.28-1.3-3.1-4.9-5.87-8.52-6.63-3.61.76-7.2 3.53-8.51 6.63 3 .46 5.06 3.53 1.59 6.28-2.17-.16-4.02-1.06-4.67-3.17a12 12 0 00-6.86 8.07 13.6 13.6 0 007.01 8.8c1.03-3.03 3.8-2.54 6.35-.77-2.45 4.3-3.75 13.3-15.23 17.24-11.6-3.93-12.9-13-15.35-17.33 2.56-1.77 5.32-2.26 6.34.77a13.6 13.6 0 007.02-8.81 12 12 0 00-6.86-8.1c-.65 2.14-2.5 3.02-4.67 3.18-3.47-2.75-1.4-5.82 1.59-6.3-1.3-3.1-4.9-5.87-8.51-6.63m40.76 11.78a7.05 7.05 0 017.09 7.09 7.05 7.05 0 01-7.09 7.1 7.05 7.05 0 01-7.08-7.1 7.05 7.05 0 017.08-7.09m0 2.03a5.1 5.1 0 00-5.07 5.06 5.1 5.1 0 005.07 5.08 5.1 5.1 0 005.08-5.08 5.1 5.1 0 00-5.08-5.06m40.66 0a5.1 5.1 0 00-5.07 5.06 5.1 5.1 0 005.07 5.08h.11v-.06a3.33 5.03 0 003.2-5.02 3.33 5.03 0 00-3.2-5v-.06zm-81.42 0v.03a3.33 5.03 0 00-3.34 5.03 3.33 5.03 0 003.34 5.04v.04a5.1 5.1 0 005.02-5.08 5.1 5.1 0 00-5.02-5.06m40.76 31.74 15.39 7.65-15.39 7.64-15.38-7.64zm-40.76 2.2c-2.44 1.3-3.3 3.09-3.3 5.2 0 2.39 1.18 5.53 3.3 5.68l10.96-5.43zm40.76 0-10.96 5.45 10.96 5.43 10.98-5.43zm40.72 0-10.97 5.45 10.98 5.43c2.12-.17 3.28-3.3 3.28-5.67 0-2.12-.86-3.88-3.28-5.2" opacity=".98"/></svg>