<svg xmlns="http://www.w3.org/2000/svg" viewBox="0 0 900 597"><g fill="none" stroke-width="2"><path stroke="#80a3db" d="m3.33 0-.01 597" vector-effect="non-scaling-stroke"/><path stroke="#052c68" d="M435.78 33.81q-2.9.27-4.15 2.82-2.14 4.38-3.9 5.44" vector-effect="non-scaling-stroke"/><path stroke="#7e8866" d="m427.73 42.07-2.17.13" vector-effect="non-scaling-stroke"/><path stroke="#052c68" d="M425.56 42.2q-.39-.98-1.59-.57-6.64 2.23-9.03 9.12a1.74 1.74 0 01-2.69.82q-2.22-1.67-4.3.59c-.66.71-.85 2.54-1.48 3.61q-.34.6-2.66.97-5.96.95-10.98 5.35-2.51 2.2-3.09 4.93-.53 2.46-1.19 3.4a1.65 1.62 15.3 01-1.2.67q-11.99.9-14.38 12.7c-.5 2.44-.9 4.36-.06 6.12q1.21 2.5.43 4.28c-2.18 5-2.28 10.4 2.29 13.86q1.31.99 6.58 3.4a.89.88-79.6 01.52.76l.17 2.99a2.24 1.94-63.4 00.18.71q1.78 3.77 5.24 6.08 3.78 2.53 7.02 3.65a.6.59 9.5 01.39.54q.08 2.25.81 2.51" vector-effect="non-scaling-stroke"/><path stroke="#7e8866" d="M396.54 128.69q1.98 1.8 4.71 1.84 5.16.08 10.13-.88" vector-effect="non-scaling-stroke"/><path stroke="#052c68" d="M411.38 129.65q1.48.82 1.31 1.24-.57 1.44-1.86 2.49-4.96 4.02-5.48 11.21a1.46 1.46 0 01-1.69 1.33q-6.02-.96-11.86 2.31a1.48 1.44 34.9 01-.99.16q-1.3-.25-2.44-1.08-1.07-.78-1.94-.18-2.12 1.44-4.08.72-5.72-2.09-9.34-2.86a3.24 3.23-41.5 00-1.01-.06c-6.35.56-11.27 3.47-16.62 7.19q-2.7 1.87-4.41 4.43a1.4 1.38-60.4 01-1.74.49q-3.33-1.56-4.64 2.05a1.45 1.45 0 01-1.38.96q-7.02-.02-13.54 2.37a12.5 12.5 0 00-7.27 6.45q-1.63 3.45-2.47 6.28a4.29 4.23-19 01-.65 1.31q-3.83 5.1-4.98 12.56-.47 3.1.65 6.31 1.36 3.89 2.38 5.16a.65.64 51.1 01-.09.9q-1.49 1.21-1.43 2.66a2 2 0 00.31.93q1.99 2.9 4.85 4.78 10.76 7.11 22.89 2.88a.79.78 71.2 011.01.5q1.38 4.18 4 7.18 2.87 3.29 8.16 3.55 3.3.15 6.93-1.22a2.7 2.7 0 011.53-.1l5.4 1.24a5.3 3.44 32.2 00.67.1c9.85.76 14.48-4.96 19.36-12.49a2.6 2.6 21.4 012.59-1.13q1.07.19 2.55 1.08a.74.73-67.6 01.34.82q-.41 1.59.58 2.04" vector-effect="non-scaling-stroke"/><path stroke="#7e8866" d="m396.98 214.21.7.07" vector-effect="non-scaling-stroke"/><path stroke="#052c68" d="M397.68 214.28q-.14.75 1.04.13 2-1.06 2.85-1.59a1.78 1.58-63.6 01.57-.23l10.75-2.37a.6.6 0 01.69.32l.14.28a.34.31 5.2 00.12.13c6.82 4.46 13.92 10.57 18.15 18.06q1.42 2.51 3.5 8.53" vector-effect="non-scaling-stroke"/><path stroke="#7e8866" d="m435.49 237.54.04 15.13" vector-effect="non-scaling-stroke"/><path stroke="#052c68" d="M435.53 252.67q-.8 2.58-.8 5.4-.01 10.52.04 22.19a.69.69 0 01-1.06.58l-21.5-13.8a.8.8 0 01-.26-1.07c4.19-7.27 6.3-20.09-2.83-24.54q-5.35-2.62-7.6-6.04a2.31 2.18 87.5 00-.67-.65c-4.12-2.63-7.47-2.63-12.12-2.18q-4.09.39-6.85 2.22-4.79 3.18-6.26 9.29a1.08 1.04 20.2 01-1.51.67q-1.08-.52-1.97-.26a.9.9 0 00-.66.79l-.23 2.47a1.2 1.2 0 01-1.33 1.07q-8.4-1.03-15.31 3.81l-4.1 2.88a1.19 1.18-35 00-.3 1.69l1.7 2.32a1.9 1.9 0 01.21 1.9l-2.18 5.03a1.04.75-35.8 00-.06.18q-1.33 7.15 4.23 12.51a.84.83 44.8 01.01 1.2q-.96.97-1.34 1.97a1.46 1.45-56.8 00.31 1.53c5.11 5.24 12.87 8.55 20.41 7.3q1.47-.24 3.06.5.96.45 2.11 2.17 2.29 3.39 5.47 4.33c7.89 2.31 19.56.03 21.52-9.43a1.24.69-55.6 00.02-.21l-.06-4a1.92 1.89 64.8 01.44-1.25l2.49-3a.8.8 0 01.99-.15q11.43 7.12 19.48 17.67 1.29 1.7 2 2.54 1.38 1.63 1.47 4.47.23 7.73-.48 17.74-.7 9.9-.63 35.06a3.57 3.45-38.8 01-.11.87q-.54 2.22-.55 3.99-.2 21.86-.56 38.82-.14 6.24-.54 9.99-.49 4.64-.71 10-.02.43-.16.97a2.59 2.44 53.6 00-.09.74q.11 2.43-.29 3.47a5 5-31.9 00-.25 1.07q-.54 5.28-1.39 9.52-.05.25-.34.26a.2.2 0 00-.13.12l-.79 3.76a2.75 2.29 69.5 01-.21.6q-2.48 4.95-2.59 5.2-1.48 3.32-2.66 4.9-7.7 10.28-15.18 14.73c-16 9.51-27.56 16.71-37.79 28.21q-1.13 1.27-5.49 6.49" vector-effect="non-scaling-stroke"/><path stroke="#688abd" d="M361.55 501.28q-.69-.37-1.34-.43" vector-effect="non-scaling-stroke"/><path stroke="#052c68" d="M360.21 500.85q.42-.16.9-.22c-3.01-.76-6.39.04-8.5 0q-17.36-.29-33.75.24c-11.61.38-25.45.16-35.47.64q-2.72.13-4.12.4c-3.47.66-6.43.88-10.19 2.03q-10.47 3.19-18.86 7.02a1.29 1.28 53.4 00-.31 2.14q.59.51 1.18.77c8.98 3.88 16.83 6.9 25.64 8.77q3.53.75 8.1.77c10.13.04 14.27 0 24.89.44q18.46.77 38.18.37.49-.01.51-.49.01-.12-.12-.3" vector-effect="non-scaling-stroke"/><path stroke="#688abd" d="M348.29 523.43q.79-.17 1.92.01" vector-effect="non-scaling-stroke"/><path stroke="#052c68" d="M350.21 523.44q.36.34.16.81-2.89 6.91-8.24 14.5c-3.38 4.79-8.65 9.31-12.31 13.41l-.02.02-6.97 4.99a.49.49 0 00.12.86q1.44.51 3.46 0 8.18-2.03 13.88-5.7 4.98-3.2 11.98-10.57 3.85-4.05 16.44-18.91" vector-effect="non-scaling-stroke"/><path stroke="#688abd" d="M368.71 522.85q.38.3 1.47.55" vector-effect="non-scaling-stroke"/><path stroke="#052c68" d="M370.18 523.4q6.56 1.13 13.25.75l9.67-.56q8.44-.12 20.59-.07a.94.94 0 01.9 1.19q-1.6 5.74-4.75 11.14-1.72 2.94-10.7 18.03-.8 1.33-2.33 5.94-.48 1.44-.05 2.5a.4.4 0 00.53.2q.3-.14.01-.18" vector-effect="non-scaling-stroke"/><path stroke="#7e8866" d="M397.3 562.34q.79.13 1.17-.07" vector-effect="non-scaling-stroke"/><path stroke="#052c68" d="m398.47 562.27.25.09a.61.59-59 00.61-.16c3.6-3.74 6.15-6.86 10.18-9.9q4.18-3.14 8.8-6.98c5.95-4.94 10.47-13.26 13.94-21.18a.95.92-77.7 01.85-.56l36.18-.14a.28.26 25.4 00.16-.05q.37-.29-.16-.55" vector-effect="non-scaling-stroke"/><path stroke="#688abd" d="M469.28 522.84q.49.12 1.12-.17" vector-effect="non-scaling-stroke"/><path stroke="#052c68" d="M470.4 522.67q3.26 6.33 5.88 10.3c7.73 11.7 17.72 22.33 30.12 28.83q1.2.63 2.06.26a1.07 1.03 56.1 00.3-1.71c-5.51-5.7-9.86-10.13-12.82-17.2q-5-11.95-6.68-18.62a1.45 1.45 0 012.16-1.59q1.14.71 2.36.66 15.73-.62 41.55-.31a.91.9-11 01.82.55q4.53 10.83 13.24 18.98 11.97 11.22 26.37 17.8a1.25 1.24 18.6 001.74-.86q.05-.22-.17-.93a1.59 1.51 11.8 00-.54-.78q-4.18-3.2-4.64-3.73-8.5-9.76-10.39-12.84-4.08-6.66-8.7-17.4a.63.62 78.4 01.57-.87h31.67a.7.68-87.3 01.68.76q-1.11 11.91-6.52 23.76a2.22 2.22 0 001.48 3.08l2.32.58a3 3 0 003.49-1.74q4.85-11.48 6.47-22.9a1.01 1-79.2 011.22-.84l.19.07a1.74 1.71 47.3 001.01.05q4.22-1.08 5.05-.95 4.52.7 8.54-.63 1-.34 2.89.51a2.74 2.71 58.5 00.94.23q1.8.1 4.52-.91a2.31 2.29 40.8 011.31-.09q3.76.84 7.28-.64a1.39 1.34 43.3 011.02-.01q2.7 1.02 4.08.55 2.63-.89 3.25-.83 5.35.49 8.49-.32a.51.5-7.2 01.63.48v7.16a1.72 1.72 0 002.44 1.56c5.14-2.38 8.42-10.24 9.12-15.68q.87-6.69-.91-13.02a3.59 3.46-68.4 00-.35-.85q-2.88-5.09-7.48-8.36a1.73 1.73 0 00-2.73 1.47l.16 5.49a.85.84 84.1 01-.69.86q-2.29.43-5.25-.44-1.71-.5-4.46-.02a3.08 2.87 44.8 01-1.23-.04q-2.66-.63-5.82-.07a5.35 5.26-44 01-1.99-.02q-3.89-.75-7.1-.31a3.03 3 47.6 01-1.19-.06q-3.65-.89-7.37-.26a.5.39 38 01-.19 0l-6.2-1a1.93 1.9-54.5 00-1.25.22q-1.16.64-2.33.16c-1.82-.74-3-.58-4.79-.44a1.27 1.27 0 01-1.35-1.06q-1.98-12.28-7.23-23.82a2.2 2.19 80.7 00-1.77-1.28q-1.48-.17-3.99-.12a1.68 1.66 4.9 00-1.61 1.34q-.17.82.21 1.67 5.34 12.12 7.12 22.96a1.31 1.3 85.5 01-1.28 1.51h-41.35a2.27 2.26 71.1 01-1.79-.88q-4.21-5.48-5-6.3c-3.83-3.97-7.68-7.29-12.86-9.98-8.15-4.24-16.01-8.25-24.17-13.17q-7.97-4.81-16.74-13.1-3.43-3.23-5.58-7.21-3.52-6.48-4.1-8.15-2.4-6.76-4.1-11.38-.75-2.04-2.7-11.8c-.6-2.99-.45-5.95-1.29-8.79a4.12 4.04-54.7 01-.15-.94q-.27-8.78-.66-14.2c-1-14.06-.32-31.55-.53-41.82q-.42-20.08-.79-35.26-.53-21.39-.15-29.99.14-3.2 1.69-4.69 8.74-8.44 21.15-15.69a3 3 8.3 00.62-.46q1.53-1.4 3.12-2.38a.46.45 69.6 01.69.32q1.98 12.51 12.32 19.89c3.99 2.84 13.05 5.83 17.26 2.34a1.05 1.04 70 00.38-.83c-.04-1.69-.22-3.01 2.18-3.15q2.92-.15 6.59-3.33 5.53-4.81 5.51-11.39a3 3-17 011.34-2.5q6.18-4.07 9.06-10.98 3.11-7.47 2.23-15.14" vector-effect="non-scaling-stroke"/><path stroke="#7e8866" d="M546.31 240.01q-.55-.86-1.25-1.35a1.61 1.6 6.7 01-.59-.74q-.38-.96-.36-2.07a2.47 2.46 36.8 00-.12-.82q-.94-2.84-2.53-4.28" vector-effect="non-scaling-stroke"/><path stroke="#052c68" d="M541.46 230.75q-1.67-2.71-4.29-3.58-5.31-1.75-10.33 1.16a1.54 1.53 31.7 01-.91.21q-1.32-.09-1.98-1.26a.85.85 0 00-1.24-.27l-2.19 1.59a.83.83 0 01-1.14-.16l-2.37-3.06a1.84 1.76 85.4 00-.53-.47q-6.19-3.67-11.82-.42c-1.8 1.04-3.02 2.95-4.35 4.21a3.59 3.55-68.2 01-2.28.99q-7.76.4-10.41 7.21-1.49 3.87-.87 7.36.47 2.69 1.58 6.34a.8.8 0 01-.39.91l-25.06 12.92a.94.94 0 01-1.37-.81l-.81-26.5a2.13 2.06-31.1 01.31-1.16q1.18-1.96 2.64-3.32 9.96-9.32 21.61-18.38 1.92-1.5 9.89-6.93" vector-effect="non-scaling-stroke"/><path stroke="#7e8866" d="m495.15 207.33.24-.13" vector-effect="non-scaling-stroke"/><path stroke="#052c68" d="M495.39 207.2c3.06 2.55 6.41 5.86 9.66 7.43q5.35 2.59 11.63 1.64a1.72 1.71-4.3 001.46-1.69v-2.16a.62.61-86 01.7-.61l2.1.31a1.26 1.18 41 00.49-.02q3.04-.78 6.12-3.24a.51.5-34.6 01.74.13c3.53 5.76 6.19 9.18 13.08 10.65a2.24 2.09 65.4 01.68.28q1.86 1.2 3.41.4a1.66 1.63 83.5 00.83-1.06l.64-2.54a.56.56 0 01.85-.34l2.49 1.6a.74.73-31.9 00.48.11q6.39-.54 11.29-2.25 9.18-3.2 9.44-12.31a1.02 1 20 00-.4-.84q-.79-.58-.72-1.26a.88.87-7.2 01.56-.72q5.42-2.1 6.91-4.32 1.19-1.8 2.44-5.66.15-.47 1.1-6.06 1-5.85 4.54-11.57" vector-effect="non-scaling-stroke"/><path stroke="#7e8866" d="m585.91 173.1-2.02-1.49" vector-effect="non-scaling-stroke"/><path stroke="#052c68" d="M583.89 171.61q-3.45-1.47-2.18-4.18a1.7 1.68-34.5 00.16-.84q-.65-9.76-8.4-15.33" vector-effect="non-scaling-stroke"/><path stroke="#7e8866" d="m573.47 151.26-.54-2.37" vector-effect="non-scaling-stroke"/><path stroke="#052c68" d="M572.93 148.89q-9.27-3.94-18.37.63a1.21 1.2-26.1 01-1.62-.55q-2.36-4.89-7.28-7.77-2.01-1.18-5.65-1.07a.92.88-24.8 01-.61-.21q-.94-.76-.19-2.45" vector-effect="non-scaling-stroke"/><path stroke="#7e8866" d="M539.21 137.47q.22-.24-.19-1.96" vector-effect="non-scaling-stroke"/><path stroke="#052c68" d="M539.02 135.51q-4.5-1.03-9.27-.16-4.86.89-8.91 2.83-4.77 2.28-6.88 7.09a1.39 1.37-67.2 01-1.77.73q-1.34-.53-1.88-1.84-3.33-8.14-9.91-12.5c-2.63-1.74-5.55-2.75-7.95-3.98a.44.44 0 01.04-.81l7.18-2.78a1.55 1.55 0 00.92-1.9q-.66-2.18.41-2.62a1.7 1.52 26.4 01.4-.11q5.22-.77 7.09-5.29a1.29 1.28-88.4 01.77-.73c1.5-.52 3.09.87 4.44.95q5.07.28 8.53-.98 2.61-.95 1.69-3.71a.85.85 0 01.52-1.06q3.33-1.22 6.4-2.83 4.59-2.4 3.87-6.53" vector-effect="non-scaling-stroke"/><path stroke="#7e8866" d="M534.71 99.28q-.07-2.82.6-4.61" vector-effect="non-scaling-stroke"/><path stroke="#052c68" d="M535.31 94.67q1.78-2.24 1.33-5.16" vector-effect="non-scaling-stroke"/><path stroke="#7e8866" d="M536.64 89.51q.96-3.42 1.01-5.26c.18-5.63-5.29-9.17-10.85-9.36" vector-effect="non-scaling-stroke"/><path stroke="#052c68" d="M526.8 74.89q.51-9.17-5.01-15.66a1 1 0 00-1.02-.33q-1.57.39-2.09 2.36a.87.87 0 01-1.42.42c-3.91-3.5-8.76-5.81-13.78-3.32a.7.7 0 01-1.01-.59q-.24-5.26-2.22-9.72-1.18-2.65-3.44-3.25" vector-effect="non-scaling-stroke"/><path stroke="#7e8866" d="M496.81 44.8c-3.16-1.91-5.35-.41-8.05.98a1 1 0 01-1.3-.32c-1.44-2.03-3.3-4.31-5.78-4.76q-7.48-1.37-11.74 4.36a.3.3 0 01-.5-.04q-4.88-9.41-15.15-11.57c-6.89-1.44-12.54-2.1-18.51.36" vector-effect="non-scaling-stroke"/><path stroke="#836d18" d="M496.81 44.8c4.03 3.87 5.16 8.92 5.04 14.37a.82.82-28.2 001.5.45l.49-.75a1.18 1.14 8.8 01.72-.51q5.39-1.21 9.53 1.78 3.55 2.57 4.02 2.99a.63.63 0 001.04-.31l.61-2.44a1.09 1.08 32.7 011.9-.41q3.32 4.14 4.42 9.48.23 1.11-.5 4.82a.63.61 37.1 00.07.44q.39.67 1.15.18m9.84 14.62q-1.3 2.47-1.33 5.16m-.6 4.61c-1.42 6.04-6.97 7.52-12.17 9.2a.58.58 0 00-.14 1.03q1.51.98 1.14 2.06a1.04 1.03-2.1 01-.56.6q-6.88 3.08-13.21.38a1.25 1.25 0 00-1.65.69q-1.14 2.86-3.22 4.32c-1.33.93-3.89.82-5.28 1.89a.94.94 0 00-.3 1.09l.53 1.37a1.02 1.01-24.2 01-.49 1.27c-5.29 2.7-11.14 4.52-17.03 4.16q-5.03-.32-5.36-.25a1.6 1.6 0 01-1.08-.17q-2.87-1.58-5.46-3.54-1.85-1.41-3.83-.45-5.93 2.87-12.64 1.65-3.57-.65-5.25-.94-7.91-1.37-12.55-7.03a.52.51 39.3 00-.86.08q-3.21 6.04-9.53 8.61-6.94 2.82-14.39 4.35m-14.84-.96q-.13-1.88.81-3.6a.48.47-85.9 00-.58-.68l-.71.28a1.72 1.68-44.4 01-1.21 0c-5.28-2.06-11.68-5.67-11.24-11.98a2.31 2.29 15.4 00-1.27-2.22c-2.02-1.01-4.4-1.58-6.11-3.03-4.72-3.99-4.12-8.54-2-13.88a2.58 2.55-42.5 00.08-1.62c-2.48-8.8 1.28-18.93 11.42-19.79q2.3-.2 3.12-.44a.9.9 0 00.62-.68c.65-3.76 1.37-6.47 4.96-9.31q5.58-4.39 11.67-4.43a1.17 1.15 8.8 001.09-.79l1.22-3.62a1.86 1.86 0 012.35-1.17l2.39.81a1.54 1.54 0 001.83-.71q.88-1.6 1.58-3.17c1.57-3.54 5.23-5.8 9-6.46m2.17-.13q.83.25 1.41.06.51-.17.82-1.05 1.67-4.63 5.82-7.27" vector-effect="non-scaling-stroke"/><path stroke="#836d18" d="m539.02 135.51-6.14.17q-2.98.09-9.2 2.01-5.76 1.77-8.65 6.77c-1.17 2.05-2.06 2.76-4.24 1.76a1.55 1.51 87.1 01-.72-.67q-.59-1.11-1.58-3.48c-2.36-5.65-7.16-9.67-12.91-12.15q-4.01-1.74-4.34-1.82a8.47 8.29-37.8 00-1.91-.22l-13.49.01a1.92 1.91-28.5 01-1.03-.3l-5.22-3.35a2.41 2.39 51.3 00-2.11-.24l-4.83 1.74a2.32 2.24 33.9 01-.79.14h-7.21a2.57 2.37 53.7 01-.92-.18c-2.26-.91-4.5-.7-6.75-1.41q-6.66-2.12-10.73-6.5a.58.58 0 00-.94.12c-2.94 5.59-8.9 8.09-14.46 9.91q-.88.28-1.27 2.37-1.42 7.58 2.06 14.74 2.08 4.29 5.8 6.19a1 1 0 01.53.83c.06 1.95-1.24 3.78-1.1 5.91q.65 9.85 11.38 9.14a1.2 1.2 0 011.29 1.26q-.1 2.37 1.49 3.92 2.98 2.93 6.7 4.79c3.78 1.9 9.19 1.68 11.63 5.44" vector-effect="non-scaling-stroke"/><path stroke="#052c68" d="M459.36 182.41q-.81.36-1.26.16a.66.66 0 00-.87.85q.67 1.64.65 2.33-.43 15.19-.34 30.79a.75.75 0 001.07.67q2.01-.94 4.05-3.22a3.11 3.02.8 01.37-.35l14.7-10.67.06-.04 5.18-3.17a1.58 1.57-3.9 00.63-.72q.7-1.53 1.35-1.61a.43.43 0 00.11-.82q-.72-.3-5.82-.21a3.14 2.95-35.4 01-.95-.13q-9.02-2.73-13.41-10.23a.64.63 49.8 00-1.04-.09q-1.15 1.4-2.47 1.05" vector-effect="non-scaling-stroke"/><path stroke="#836d18" d="M461.37 187q1.86-1.4 2.45-3.3a.63.63 0 011.22.1q.16 1.27.73 2.24 4.32 7.39 12.89 9.6a1.9 1.82-36.6 00.47.06l11.21-.11a2.3 2.3 86.3 012.31 2.03c.8 7.05 5.38 11.79 11.28 15.45q5.74 3.55 12.32 2.61a1.25 1.23-4.3 001.06-1.22v-3.33a.48.48 0 01.8-.36q.76.68 1.61.66 5.21-.1 8.04-4.27a.47.47 0 01.84.11q3.64 10.77 16.06 12.43a1.13 1.13 0 001.28-1.12v-3.88a.39.39 0 01.7-.25q1.15 1.42 3.47 2.56a2.1 2.06 56 001.03.21c7.6-.38 17.12-2.57 19.28-10.73.56-2.09-.6-4.16-1.27-5.73a.82.82 74.7 01.64-1.13q6.75-.93 9.15-6.87.42-1.01 1.28-6.88 1.04-7.13 5.69-12.78" vector-effect="non-scaling-stroke"/><path stroke="#836d18" d="M495.39 207.2c-1.25-3.23-3.13-5.67-3.29-9.28a1.9 1.9 0 00-2.89-1.52q-16.21 10.2-31.09 22.22-.77.62-1.19.3a.4.4 0 01-.14-.29l-.15-36.39a2.1 2.1 0 00-1.44-1.97q-3.4-1.11-6.94-2.29-2.39-.79-6.71-4.21-2.39-1.89-2.52-4.81a1.33 1.32-2.2 00-1.37-1.26q-10.71.39-11.48-9.63c-.15-1.92.39-3.12 1.02-5.21a1.28 1.27-65.4 00-.54-1.46c-6.61-4.19-9.74-14.14-7.33-21.45a.63.63 0 00-.83-.79c-7.38 2.94-13.16 9.48-12.4 17.9a.55.55 0 01-.8.54l-1.51-.78a1.28 1.25 60.8 00-.51-.15q-6.85-.64-12.61 2.91a1 .99 51.2 01-1.22-.14l-1.58-1.58a1.23 1.23 0 00-1.81.07q-1.34 1.59-3.29.86-5.42-2.03-6.43-2.37c-7.23-2.48-14.41 1.79-20.43 6.23q-3.71 2.74-4.78 4.94a.92.9-67.1 01-1.11.46l-2.54-.85a1.05 1.03-56.4 00-1.04.22q-1.05.94-1.28 2.29a1.24 1.24 0 01-1.16 1.04c-5.54.26-10.27.59-15.64 3.08-3.41 1.58-5.33 4.96-6.89 9.24q-.8 2.2-3.53 6.8c-3.15 5.32-3.86 13.79-.42 19.58a1.27 1.22-5.1 00.66.53l1.29.43a.41.41-53.4 01.1.71l-2.86 2.08a1.03 1.02-38.2 00-.18 1.49c6.89 8.12 17.65 11.21 27.88 6.65a.6.6 0 01.82.34q.59 1.57 1.57 4.05 3.11 7.84 11.21 7.48c2.39-.11 4.95-1.33 6.94-1.53a5.49 5.4 45.5 011.14.02c.96.12 2.18.82 3.39 1.07 10.35 2.16 16.18-3.85 20.97-12.04a1.99 1.98 15.4 011.73-.98q2.46.02 5.01 1.12a.68.67-72.3 01.39.77l-.6 2.57m98.17-6.88q-6.38 2.92-13.02 8.3-12.6 10.2-20.43 17.82-1.68 1.63-1.68 3.58-.01 12.55 1.05 28.64a.3.3 0 00.42.24l26.69-13.75a.81.8 51.6 01.91.11q1.22 1.04 1.91 3.22a1.11 1.08 50.6 01-.07.84c-1.21 2.33-.62 4.61-1.51 6.87a1.55 1.52-6.1 01-.6.73c-5.76 3.65-27.28 16.98-27.44 23.05-.32 12.65-.16 20.14.31 35.95.58 19.74.38 32.12.57 57.15.08 10.27.89 21.39 1.62 29.61q1.45 16.26 8.11 32.58c3.16 7.76 5.72 12.28 11.6 17.46 11.27 9.95 23.37 16.73 37.85 23.83q11.83 5.79 18.64 16.92a.3.3-15.6 01-.25.43h-21.99a3.64 3.63-27.4 01-2.09-.66q-9.01-6.43-18.46-11.8c-5.34-3.04-12.67-6.09-19.21-6.17a.73.73 0 00-.7.97c1.84 5.23 4.2 10.15 5.71 15.65q1.78 6.5 3.33 15.48 1.66 9.62 3.56 15.04 2.92 8.37 6.62 16.74 1.35 3.06 4.07 6.18 5.39 6.2 7.76 8.61a.32.32 0 01-.26.55q-1.86-.2-3.65-1.27-7.19-4.35-12.39-9.33c-9.06-8.67-17.05-18.77-21.4-30.29q-4.44-11.77-7.37-21.96-2.67-9.25-11.65-19.47-1.1-1.25-3.02-2.31a1.6 1.6 0 00-1.85.25c-5.72 5.63-8.2 15.13-9.26 23.11a1.06 1.05-86.3 01-1.04.92h-17.93a.32.32 0 01-.32-.35c.44-4.97 1.06-10.71 2.87-14.7a.93.92 16.6 00-.71-1.3c-4.55-.68-8.7.96-13.81 2.43q-10.03 2.9-19.3 11.61-4.26 4-4.49 4.26-5.92 7.03-10.57 13.69-5.24 7.49-19.46 23.28c-8.35 9.28-16.18 15.35-28.13 17.62a.42.42 0 01-.32-.76q17.34-12.28 26.47-31.82 1.76-3.75 5.42-12.1 1.8-4.11 6.15-10.88c6.93-10.77 18.12-19.93 29.08-26.64 7.39-4.53 13.94-7.94 19.64-12.84q16.47-14.14 18.31-37.87l.18-2.41q.41-6.14.82-10.59.55-5.96.59-10.58.25-31.05.62-38.95.52-10.91.52-24.25c.01-8.73 1.44-23.29.94-34.56a5.4 5.38-64.1 00-1-2.9q-9.13-12.82-22.26-21.15a2.5 2.5 0 01-1.17-2.06q-.09-2.9-1.19-5.85a.8.8 0 01.18-.85l3.03-3.02a.83.82 38.9 011.03-.11l23.23 14.91a.4.39 16.4 00.61-.33l-.04-29.41" vector-effect="non-scaling-stroke"/><path stroke="#836d18" d="M435.49 237.54q.03-2.99-1.18-5.57c-4.26-9.1-11.47-15.9-20.07-21.49a.66.66 0 01.23-1.2q4.74-.95 8.63-3.78a2.5 2.5 0 013.05.1l11.91 9.93a.52.51-70.2 00.84-.4V191.6a1.05 1.04-7.1 01.79-1.01q9.15-2.31 14.47-9.23v-.07l-.24-.2a.25.24-47.7 00-.33.02q-9.25 9.58-23.01 10.02a1.28 1.27-84 00-1.2.98q-.73 2.95-1.43 5.98c-1.13 4.91-5.92 7.62-10.26 9.34q-6.8 2.7-16.32 4.65-1.01.2-3.69 2.2m141.53-76.81-1.55 2.2a.93.93 0 00.94 1.45c6.04-1.16 11.37 2.41 13.72 8.14a1.75 1.75 0 002.35.93q8.54-3.91 18.26-1.3m.54 2.37q-.86-.02-1.54.37a.2.2 0 00.07.37q2.29.39 4.19 2.47 5.92 6.47 4.72 14.57-.23 1.56.65 2.12.85.56 2.33.45" vector-effect="non-scaling-stroke"/><path stroke="#7e8866" d="m461.37 187-2.01-4.59" vector-effect="non-scaling-stroke"/><path stroke="#836d18" d="M541.46 230.75q-5.11-4.51-9.84-3.42-.88.2-5.75 2.27a1.04 1.03 60.1 01-1.24-.34l-.75-1.04a1.02 1.02 0 00-1.55-.12l-3.2 3.2a.29.29 0 01-.49-.21q.01-4.8-4.61-6.64-4.76-1.9-10.07 1.5a.39.18-64.9 00-.06.05l-3.26 3.38a2.36 2.32 16.7 01-1.29.68c-4.37.76-8.19 1.21-10.33 5.47-2.46 4.91-1.69 8.35-.24 13.9a6.27 6.11-69 00.74 1.72l1.8 2.88a2.62 2.61 38.1 01.27 2.18q-2.76 8.56.9 16.53c3.22 7.02 8.88 12.83 16.9 14.86q4.9 1.24 8.75-.27 1.32-.52.05-3.13a1 1 0 01.82-1.44l3.36-.23a1.71 1.68-58 00.54-.13q9.81-4.22 10.2-14.49a2.6 2.6 0 011.1-2.05c4.31-3.08 7.33-5.91 9.46-10.97q2.22-5.27 2.64-14.88" vector-effect="non-scaling-stroke"/><path stroke="#6d6f6f" d="m470.4 522.67-7.12-20.59a.8.8-9.7 00-.79-.55l-76.61 1.03a3.22 3.21-71.5 00-2.5 1.25l-14.67 19.04m-18.5.59 4.21-9.65a.6.6 0 00-.54-.83l-99.64-.45a.4.4-1.5 01-.4-.37v-.02a.4.4 0 01.42-.43l100.17.43a1.06 1.05 14.2 00.93-.55l3.4-6.24a1.48 1.44 81.1 01.22-.31q1.57-1.72 2.57-3.74m107.73 21.56-99.1.56" vector-effect="non-scaling-stroke"/><path stroke="#6d6f6f" d="M360.21 500.85q-38.23.84-76.45 1.6-5.83.12-10.53 1.28-11.87 2.95-22.73 8.12a.43.43 0 000 .77q11.88 5.74 23.74 8.79 4.39 1.12 12.64 1.28 30.72.6 61.41.74" vector-effect="non-scaling-stroke"/><path stroke="#836d18" d="M398.47 562.27q4.51-5.27 7.28-7.77c5.08-4.57 13.93-9.92 18.47-16.77q4.14-6.25 7.24-13.52a.4.4 0 00-.36-.55l-14.31.2a1.42 1.41-80.6 00-1.32.95c-3.71 10.55-7.84 16.08-16.04 29.86q-2 3.36-2.13 7.67" vector-effect="non-scaling-stroke"/><path stroke="#eba30e" d="M387.93 104.66c-.9-1.39-3.57-1.8-4.41-3.72-.74-1.69.09-4.45.8-5.75a.59.58 29.7 00-.22-.79c-1.97-1.15-3.4-1.88-2.85-4.67 1.03-5.33 6.79-10.44 12.33-10.63a1.16 1.15 4 001.1-.95v-.04a.8.79 6.7 00-.74-.93c-6.92-.39-11.24 4.23-14.17 9.82q-2.41 4.59 1.37 8.44a.89.87-64.7 01.24.7l-.37 3.94a1.6 1.56 36.8 00.13.83q1.74 3.98 6.16 4.71a.63.63 0 00.63-.96m92.7 10.64q-6.45.56-12.73-1.84a5.2 4.9-15.8 01-.96-.5q-2.92-1.95-4.84-1.86-11.66.52-13.88.2c-4.54-.66-10.04-1.75-12.7-5.34a1.37 1.37 0 00-2.08-.14q-2.04 2.1-3.36 3.6c-3.53 4.02-8.16 6.27-13.48 7.65a.55.54 7.8 01-.61-.8l1.14-1.97a.77.77 0 00-.91-1.12q-2.57.83-7.69.75c-7.58-.12-7.69-6.48-10.3-11.4a.53.53 0 00-.99.21q-.11 1.71.28 3.22c2.28 8.76 7.12 10.83 15.83 10.31a.48.48 0 01.3.87q-.71.48-.8.91a1.39 1.34 2.6 001.52 1.61q12.62-1.37 19.35-11.25a.76.76 0 011.16-.1c6.21 6.29 18.09 6.22 26.89 5.68a4.91 4.81 55.9 012.46.5q8.95 4.46 19.85 2.47 1.21-.23 1.63-1.16.39-.85-1.53-2.25a.57.57-32.4 01.23-1.01q5.84-1.12 12.15-2.8 2.99-.79 2.89-3.7a.6.6 0 01.59-.6q7.9.2 15.32-3.11c4.64-2.08 6.07-5.03 9.19-8.72a.58.58 0 00-.15-.88l-.33-.19a1.1 1.1 0 00-1.41.23l-4.42 5.02a2.65 2.41 2.7 01-.58.48c-7.03 4.29-15.7 6.06-23.54 3.29a.7.7 0 00-.78 1.1c1.2 1.54 2.8 1.94 3.37 4.05a.97.96 76.8 01-.74 1.2l-16.73 3.32a1.01 1.01 0 00-.45 1.76l2.03 1.7a.34.34 0 01-.19.61m-24.67 50.94c-3.19.49-5.23-1.47-7.43-3.91q-4.11-4.56-3.13-10.36.38-2.25.14-3.37-.2-.88.47-3.33.26-.99-.03-7.65a.7.7 0 00-.58-.64l-.03-.01a.54.54 0 00-.61.49l-.7 7.78a.6.6 0 01-.91.48c-1.53-.88-1.54-1.85-1.98-3.34q-2.3-7.83 1.31-14.56a1.12 1.08 2.5 01.58-.51l1.66-.64a.55.55 0 00.19-.9c-2.13-2.12-4.7 2.07-5.35 3.86-1.69 4.67-2.29 14.62 2.97 18.1a2.06 2.05-70.7 01.92 1.92l-.36 3.68a.8.8 0 01-1.25.61c-5.1-3.28-7.45-9.28-8.06-15.14q-.42-4.09 2.27-9.42a1.03 1.02-61 00-.38-1.34l-.06-.03a1.16 1.15 34.4 00-1.52.28q-1.96 2.52-2.31 5.7-1.45 13.28 8.53 21.38c.72.58 1.42.41 2.09.68a1.14 1.13 2.3 01.67.72c1.54 4.83 5.27 9.87 10.44 11.42q2.18.66 2.91-1.39a.42.42 0 00-.46-.56m71.61 23.91c-.01.88.44 1.83.42 2.88-.15 7.38-9.66 5.63-14 3.56a.91.91 0 00-1.15 1.33q.98 1.47.77 3.41a.8.79 11 01-1.01.68q-6.31-1.77-10.04-7.34-2.75-4.11-2.24-7.57a.53.53 0 00-.52-.61c-.92-.01-2.19.8-3.2.86q-14.57.78-23.57-8.97a.81.8 50.1 00-1.06-.1l-.25.17a.86.86 0 00-.16 1.23c6.17 7.75 16.68 11.1 26.27 9.56a.55.54-8.1 01.63.47l.26 2.07a1.16 1.04 32.3 00.1.35q3.06 7.24 9.41 10.54c2.18 1.14 8.6 2.95 8.18-1.54a.88.88 0 011.13-.92c3.69 1.09 7.81.78 10.6-1.76q.77-.69.98-.79a.8.79 60.6 01.99.28q5.66 8.49 16.72 9.77c6.72.78 13.23-1.65 13.54-9.46q.09-2.15-.97-4.01a1.09 1.06 81.3 00-.66-.5l-.48-.12a.72.71-89 00-.87.85c.97 4.57.37 9.41-5.22 10.45q-9.2 1.71-17.55-5.02a2.91 2.78-88.7 01-.63-.69l-5.98-9.18a.24.24 0 00-.44.12m-118.99-36.1q-6.64-2.93-13.15-1.69a13.05 13.05 0 00-10.54 10.98.93.84-88.4 00.9 1.06q.21-.02.6-.32a1.12 1.03 83.2 00.36-.5c1.89-5.19 4.27-8.77 10.26-9.23q7.38-.57 13.77 3.43a.98.98 0 001.39-1.28c-2.33-4.56.17-7.81 2.23-11.85a.82.79-68.5 00-.47-1.15q-.79-.22-1.2.43c-2.19 3.54-3.8 5.1-3.52 9.68a.45.45 0 01-.63.44m44.01 32.59a.27.27 0 00-.28-.27l-1.22.03a.3.3 0 00-.26.27l.82 39.55a.27.27 0 00.28.27l1.22-.03a.3.3 0 00.26-.27l-.82-39.55m-99.17 16.39q-.31 6.22 7.05 7.9 17.93 4.1 28.04-10.12a1 1 0 011.23-.31c4.93 2.46 10.68 4.26 16.43 2.6 6.06-1.75 11.95-4.88 14.68-10.24q1.08-2.12.33-3.97a.94.94 0 00-1.81.26c-.86 8-11.99 11.85-18.72 12.26a5.52 5.5 51 01-1.77-.19c-4.54-1.22-7.19-1.71-9.32-4.99a1.08 1.07-51 00-1.9.2q-2.22 5.72-7.23 9.29c-5.57 3.98-14.29 4.5-20.76 2.63-4.19-1.22-3.71-3.97-3.52-7.5a.91.9-1.4 00-1-.95q-2.61.27-6.04 1.23c-6.02 1.69-12.85 1.48-18.13-1.08-3.4-1.65-4.96-5.17-4.04-8.88q.54-2.15.75-3.77a.74.74 0 00-.56-.82q-.96-.25-1.37.96c-1.51 4.43-2.1 9.81 1.65 12.63q8.05 6.05 19.61 3.85 1-.19 5.79-1.48a.48.48 0 01.61.49m101.29 67.59a.47.47 0 00.46-.48l-.49-36.67a1.87 1.85-22.6 01.57-1.36c3.34-3.17 6.8-7.04 11.1-10.4 2.13-1.65 4.7-3.56 5.75-5.51a.6.6 0 00-.82-.81q-3.66 1.99-7.37 5.54-6.81 6.51-10.25 10.24a3.5 3.5 0 00-.93 2.48l1.11 36.43a.56.56 0 00.58.55l.29-.01m15.75.33a.31.31 0 00-.49-.29q-8.32 6.27-16.1 14.26a1.65 1.63-23.5 00-.47 1.17l.39 29.22a.6.6 0 00.63.61h.29a.74.74 0 00.73-.75l-.38-27.79a3 3 69.2 011.07-2.38q6.42-5.55 12.52-11.08 1.61-1.45 1.81-2.97m-12.08 54.97a1.04 1.03 40.3 00-1.36.11q-2.23 2.3-2.86 4.1-1.3 3.74-1.56 11.12-.22 6.37 1.43 26.45a1.04 1.04 0 00.84.94l.03.01a.68.68 0 00.81-.66q.08-7.41-1.01-18.18c-.75-7.47-1.15-18.47 3.83-22.64a.74.74 0 00-.03-1.16l-.12-.09m-1.12 87.15-.41-31.72a1.95.94-76.7 00-.03-.23q-.31-1.32-.71-1.9a.45.44-60.6 00-.81.23q-.93 15.25.35 30.25.1 1.14.67 3.08.38 1.28.37 3.5-.01 8.86 3.31 22.42c2.17 8.9 8.76 15.63 14.95 21.87q2 2.02 4.52 3.19a.52.51 17.5 00.72-.37q.21-1.13-.54-1.79-9.43-8.26-14.47-16.88-1.23-2.11-1.85-4.07-3.62-11.48-4.82-25.32-.05-.52-1.06-1.73a.84.83-65 01-.19-.53" vector-effect="non-scaling-stroke"/><path stroke="#eba30e" d="M473.8 471.08a.3.3 0 01-.41.12l-12.08-6.83a1.8 1.73-4.5 01-.5-.41c-2.93-3.4-4.59-5.62-8.74-7.22a1.45 1.45 0 00-1.67.47l-.08.1a.83.82 28.9 00.37 1.27c4.85 1.81 6.5 4.94 9.92 9.73q2.34 3.29 3.78 6.23 7.19 14.69 9.83 23 2.08 6.54 8.24 27.58a1.28 1.27-5.3 001.11.91l.03.01a.64.64 0 00.68-.79l-3.77-15.26q-1.78-7.19-4.19-13.69c-3.81-10.27-7.23-18.73-12.56-27a.29.29 0 01.39-.4c5.74 3.53 11.2 6.68 17.88 7.66a2.84 2.82-26.8 01.8.26l12.99 6.64.1.04q7.99 2.82 14.02 6.69a1.11 1.09 29.5 001.58-.42q.23-.45-.28-1.03-1.22-1.44-2.91-2.3c-5.82-3-12.74-5.64-18.59-9.24-4.31-2.66-9.44-4.59-13.06-7.67q-10.99-9.31-15.96-19.25-2.02-4.03-4.85-11.37-1.55-4.04-2.43-13.13a1.12 1.11 85.7 00-1.17-1.01h-.04a1.1 1.1 0 00-1.03 1.1c.15 17.1 10.14 33.55 22.64 44.58a.34.34 0 01.08.4l-.12.23m-51.06 15.09 1.52 1.27a.48.47-77.7 00.76-.49q-2.87-10.81 4.17-20.03 2.32-3.04 7.36-13.07a.77.77 0 00-.79-1.11l-.25.03a2.2 2.2 11.2 00-1.65 1.1l-6.14 10.63a2.18 2.17-78.9 01-1.57 1.06 51.4 51.4 0 00-23.13 9.86q-4.77 3.62-9.26 5.6a1.2 1.19 60.7 00-.49 1.78l.03.05a1.6 1.59-29.4 001.95.54q3.37-1.5 7.22-4.4 9.37-7.06 21.75-10.52a.89.89 0 011.01 1.31l-1.91 3.31a3.08 3.07 12.5 01-2.39 1.52c-9.5.85-16.81 4.97-25.38 10.22q-6.12 3.74-13.01 10.23c-7.27 6.85-14 13.71-18.23 21.85a.6.6 28.7 00.22.74l.24.13a1.3 1.3 0 001.68-.34c8.85-11.85 16.01-20.31 25.83-27.41q3.49-2.53 8.94-5.8 8.58-5.13 19.72-7.26a.54.53-10.1 01.63.43l1.22 7.1a.86.8-42.7 01-.03.38l-.2.38a.74.73-56.3 00.18.91" vector-effect="non-scaling-stroke"/><path stroke="#052c68" d="M430.35 192.2a.3.3 0 00-.27.24l-2.11 8.4-.07.13-2.26 2.71a.3.3 0 00.05.45l11.85 9.88a.32.32 0 00.52-.25l-.3-22.11a.32.32 0 00-.35-.32l-7.06.87" vector-effect="non-scaling-stroke"/><path stroke="#836d18" d="m371.9 245.95.59 2.96a.6.6 0 01-.65.7q-4.33-.54-9.79.52c-4.58.89-7.7 2.99-11.08 6.07a.75.75 0 00.1 1.19c3.41 2.17 1.18 5.63-.17 8.64a3.11 2.98 62.2 00-.24.84q-1.01 8.47 5.56 12.6a.82.82 0 01-.38 1.51q-1.57.09-2.32 1.3a.8.8 0 00.12.97q4.1 3.91 9.38 6.12c3.76 1.57 9.07.96 12.4.85a3.13 3.11 71.4 012.64 1.32c2.72 3.87 3.92 5.87 9.16 6.54 7.24.94 17.61-2.12 17.67-10.83q.02-2.95.05-3.09a3.8 3.77 72.7 01.91-1.75l1.59-1.72a1.04 1.01 72 00.27-.55q.84-4.84-1.19-8.87a.83.83 0 01.31-1.09c6.46-3.94 9.74-15.26 7.33-22.08-1.58-4.48-5-6.01-9.36-8.17a.72.54 0 01-.2-.15l-4.12-4.57a.77.57 2.9 00-.17-.14c-3.4-2.24-8.17-2.35-12.04-1.75q-10.24 1.59-12.03 11.93a.93.93 0 01-1.34.67l-1.77-.9a.86.86 0 00-1.23.93" vector-effect="non-scaling-stroke"/><path stroke="#6d6f6f" d="M578.79 474.98q.15 1.04.31 1.43 5.08 12.12 7.06 22.88 4.63 25.15-6.13 48.87a1.26 1.25-70.8 00.84 1.74l2.9.73a1.8 1.8 0 002.08-.99q4.77-10.35 6.59-24.38 1.27-9.73.88-13.51-.57-5.62-.83-8.34c-.9-9.45-3.61-18.5-7.41-27.85a2.18 2.17 78.1 00-2.07-1.35l-3.67.11a.59.57 85.5 00-.55.66" vector-effect="non-scaling-stroke"/><path stroke="#052c68" d="M450.23 479.06q-.75-.26-1.67-1.14a.9.9 0 00-1.2-.04q-2.73 2.36-4.12 5.43-3.67 8.18-5.15 17.05a.75.74-85.8 00.75.87l23.68-.72a.48.47-9.4 00.44-.61c-1.76-5.78-3.94-10.48-7.72-15.19l-4.17-5.07a1.89 1.86 79.2 00-.84-.58" vector-effect="non-scaling-stroke"/><path stroke="#6d6f6f" d="m511.79 501.66-26.53-.08a.35.35-5.4 00-.35.41l1.88 9.43a1.2 1.2 0 001.2.99h98.17a.57.57 86.4 00.56-.64l-1.18-9.68a.68.68 0 00-.88-.56l-.68.21a3.71 3.69-54.1 01-1.17.19l-67.05-.3" vector-effect="non-scaling-stroke"/><path stroke="#052c68" d="M515.76 501.63q-10.03-8.03-21.1-13.75a53 53 0 00-12.78-4.5q-1.63-.39-2.65.06a1.17 1.17 0 00-.59 1.57q3.44 7.3 5.58 15.22a.8.8 0 00.76.58h27.28a.35.35 0 01.35.37q-.03.51-.82.48" vector-effect="non-scaling-stroke"/><path stroke="#688abd" d="M515.76 501.63q-2.22.38-3.97.03" vector-effect="non-scaling-stroke"/><path stroke="#052c68" d="M386.53 501.57h30.31a.76.76 0 00.76-.73q.3-7.02 2.59-13.81a1.3 1.3 0 00-1.37-1.71q-9.02.94-17.48 4.74-8.64 3.89-15.03 11a.31.3-68.7 00.22.51" vector-effect="non-scaling-stroke"/><path stroke="#6d6f6f" d="M645.48 494.53a.59.59 0 00-.91.49v36.03a.66.66 0 001.02.55c7.69-4.91 10.13-14.7 8.97-23.36-.87-6.42-3.95-10.3-9.08-13.71m-50.89 17.36 4.63-9.05a1.35 1.35 0 00-1.07-1.96l-4.12-.4a.93.93 0 00-1.01 1.04l1.26 10.32a.16.16 0 00.31.05m13.04-10.21q-2.69-1.38-6.65-.76a1.1 1.1 0 00-.86.74q-1.59 5.22-5.28 10.87a2.36 2.31 64.6 00-.37 1.08l-.93 9.69a1.75 1.75 0 002.08 1.89l3.5-.69a.9.9 0 00.65-.57l7.32-21.77a.14.11-87.8 01.07-.08l.46-.21a.11.11-42.8 00.01-.19m1.71-.15a1.8 1.8 0 00-1.64 1.22l-6.56 19.52a1.8 1.8 0 001.75 2.36l3.82-.11a1.8 1.8 0 001.62-1.15l7.54-19.55a1.8 1.8 0 00-1.73-2.44l-4.8.15m7.46 1.32q-.41 2.15-.67 2.76-3.51 8.06-6.06 14.95a2.8 2.8 0 002.64 3.78H614a4.9 4.9 9.2 004.65-3.34l5.92-17.58a.84.84 0 00-.55-1.07q-3.09-.93-6.54-.2a.89.87 89.6 00-.68.7m9.57-.66a.8.8 0 00-.74.55l-6.72 19.99a.8.8 0 00.78 1.05l4.92-.15a.8.8 0 00.74-.55l6.72-19.98a.8.8 0 00-.78-1.06l-4.92.15m7.96.18a1.9 1.9 0 00-1.59 1.3l-5.79 17.23a1.92 1.92 0 002.05 2.52l3.92-.48a1.9 1.9 0 001.63-1.44l4.27-17.05a1.92 1.92 0 00-2.1-2.37l-2.39.29m9.36 1.38a.8.8 0 00-.81-.79l-2.24.07a.8.8 0 00-.75.6l-4.52 18.05a.8.8 0 00.79.98l6.76-.21a.8.8 0 00.77-.79v-17.91m-56.79 9.83a.34.34 0 00-.33-.37H487.8a.34.34 0 00-.33.41l1.71 8.57a.34.34 0 00.33.27h96.23a.34.34 0 00.34-.31l.82-8.57" vector-effect="non-scaling-stroke"/><path stroke="#836d18" d="M536.81 523.81q4.63 10.72 13.06 18.51 12.02 11.1 25.89 17.63a.74.74 0 001.05-.8q-.02-.13-.48-.5c-11.53-9.33-18.32-21.05-23.91-34.75a1.06 1.05-11.2 00-.98-.65h-14.25a.4.4-11.4 00-.38.56" vector-effect="non-scaling-stroke"/><path stroke="#eba30e" d="M516.56 275.55a.41.41 0 01.2-.71c5.89-1.07 12.33-6.19 12.15-12.77a1.86 1.84 77.9 011.12-1.75c5.89-2.53 8.23-8.63 8.08-14.79a1.18 1.17 3.9 00-.98-1.12l-.04-.01a.89.88-84.9 00-1.02.86c-.08 4.17-.35 6.18-3.1 10.23q-1.7 2.52-5.36 2.65a1.1 1.1 0 00-1.03 1.19q.81 7.73-6.1 11.75-3.09 1.8-6.7 1.01a1.01 1.01 0 00-1.17 1.33q.74 2.03 1.43 2.2a.77.76 41.6 01.09 1.46q-1.57.58-6.03-.34c-5.36-1.1-8.96-5.32-9.63-10.58a1.72 1.71 6.5 00-1.12-1.4l-.16-.06a.68.68 0 00-.91.71c1.11 10.48 9.43 15.44 19.5 13.76a1.18 1.17 13.1 00.75-.46q1.42-1.89.03-3.16m-153.22-18.1q-2.2.49-4 3.12c-3.74 5.47-1.35 13.17 4.19 16.53 1.57.95 1.81 1.58 2.01 3.29a1.46 1.42-75.1 00.56.99q4.19 3.26 9.9 4.8 6.53 1.77 10.15-3.07a.85.85 0 00-.18-1.2l-.02-.02a1.06 1.05 42.1 00-1.32.06q-3.51 3.12-7.71 2.18-3.9-.87-8.27-3.62a.81.8-40.3 01.12-1.42q1.09-.46 1.55-1.62a.8.8 0 00-.5-1.04c-3.14-.99-5.69-.24-7.83-3.59q-5.2-8.15 1.71-13.78.67-.54.2-1.33-.21-.36-.56-.28m31.97 30.81c-3.37 2.32-7.3 1.88-10.53-.58a.59.58 25.9 00-.93.31l-.05.21a1.3 1.3 0 00.45 1.38c3.72 3.07 8.29 2.95 12.16.28s5.61-6.91 4.06-11.47a1.3 1.3 0 00-1.13-.91l-.21-.03a.59.58 84.9 00-.63.76c1.16 3.89.18 7.72-3.19 10.05" vector-effect="non-scaling-stroke"/><path stroke="#6d6f6f" d="M465.38 512.25a.5.5 0 00-.48-.48l-87.08.16a.5.5 0 00-.48.48v.04a.5.5 0 00.48.48l87.08-.16a.5.5 0 00.48-.48v-.04" vector-effect="non-scaling-stroke"/></g><path fill="#fffeff" d="m3.33 0-.01 597H0V0z"/><path fill="#0047b6" d="M900 0v597H3.32L3.33 0zM435.78 33.81q-2.9.27-4.15 2.82-2.14 4.38-3.9 5.44l-2.17.13q-.39-.98-1.59-.57-6.64 2.23-9.03 9.12a1.74 1.74 0 01-2.69.82q-2.22-1.67-4.3.59c-.66.71-.85 2.54-1.48 3.61q-.34.6-2.66.97-5.96.95-10.98 5.35-2.51 2.2-3.09 4.93-.53 2.46-1.19 3.4a1.65 1.62 15.3 01-1.2.67q-11.99.9-14.38 12.7c-.5 2.44-.9 4.36-.06 6.12q1.21 2.5.43 4.28c-2.18 5-2.28 10.4 2.29 13.86q1.31.99 6.58 3.4a.89.88-79.6 01.52.76l.17 2.99a2.24 1.94-63.4 00.18.71q1.78 3.77 5.24 6.08 3.78 2.53 7.02 3.65a.6.59 9.5 01.39.54q.08 2.25.81 2.51 1.98 1.8 4.71 1.84 5.16.08 10.13-.88 1.48.82 1.31 1.24-.57 1.44-1.86 2.49-4.96 4.02-5.48 11.21a1.46 1.46 0 01-1.69 1.33q-6.02-.96-11.86 2.31a1.48 1.44 34.9 01-.99.16q-1.3-.25-2.44-1.08-1.07-.78-1.94-.18-2.12 1.44-4.08.72-5.72-2.09-9.34-2.86a3.24 3.23-41.5 00-1.01-.06c-6.35.56-11.27 3.47-16.62 7.19q-2.7 1.87-4.41 4.43a1.4 1.38-60.4 01-1.74.49q-3.33-1.56-4.64 2.05a1.45 1.45 0 01-1.38.96q-7.02-.02-13.54 2.37a12.5 12.5 0 00-7.27 6.45q-1.63 3.45-2.47 6.28a4.29 4.23-19 01-.65 1.31q-3.83 5.1-4.98 12.56-.47 3.1.65 6.31 1.36 3.89 2.38 5.16a.65.64 51.1 01-.09.9q-1.49 1.21-1.43 2.66a2 2 0 00.31.93q1.99 2.9 4.85 4.78 10.76 7.11 22.89 2.88a.79.78 71.2 011.01.5q1.38 4.18 4 7.18 2.87 3.29 8.16 3.55 3.3.15 6.93-1.22a2.7 2.7 0 011.53-.1l5.4 1.24a5.3 3.44 32.2 00.67.1c9.85.76 14.48-4.96 19.36-12.49a2.6 2.6 21.4 012.59-1.13q1.07.19 2.55 1.08a.74.73-67.6 01.34.82q-.41 1.59.58 2.04l.7.07q-.14.75 1.04.13 2-1.06 2.85-1.59a1.78 1.58-63.6 01.57-.23l10.75-2.37a.6.6 0 01.69.32l.14.28a.34.31 5.2 00.12.13c6.82 4.46 13.92 10.57 18.15 18.06q1.42 2.51 3.5 8.53l.04 15.13q-.8 2.58-.8 5.4-.01 10.52.04 22.19a.69.69 0 01-1.06.58l-21.5-13.8a.8.8 0 01-.26-1.07c4.19-7.27 6.3-20.09-2.83-24.54q-5.35-2.62-7.6-6.04a2.31 2.18 87.5 00-.67-.65c-4.12-2.63-7.47-2.63-12.12-2.18q-4.09.39-6.85 2.22-4.79 3.18-6.26 9.29a1.08 1.04 20.2 01-1.51.67q-1.08-.52-1.97-.26a.9.9 0 00-.66.79l-.23 2.47a1.2 1.2 0 01-1.33 1.07q-8.4-1.03-15.31 3.81l-4.1 2.88a1.19 1.18-35 00-.3 1.69l1.7 2.32a1.9 1.9 0 01.21 1.9l-2.18 5.03a1.04.75-35.8 00-.06.18q-1.33 7.15 4.23 12.51a.84.83 44.8 01.01 1.2q-.96.97-1.34 1.97a1.46 1.45-56.8 00.31 1.53c5.11 5.24 12.87 8.55 20.41 7.3q1.47-.24 3.06.5.96.45 2.11 2.17 2.29 3.39 5.47 4.33c7.89 2.31 19.56.03 21.52-9.43a1.24.69-55.6 00.02-.21l-.06-4a1.92 1.89 64.8 01.44-1.25l2.49-3a.8.8 0 01.99-.15q11.43 7.12 19.48 17.67 1.29 1.7 2 2.54 1.38 1.63 1.47 4.47.23 7.73-.48 17.74-.7 9.9-.63 35.06a3.57 3.45-38.8 01-.11.87q-.54 2.22-.55 3.99-.2 21.86-.56 38.82-.14 6.24-.54 9.99-.49 4.64-.71 10-.02.43-.16.97a2.59 2.44 53.6 00-.09.74q.11 2.43-.29 3.47a5 5-31.9 00-.25 1.07q-.54 5.28-1.39 9.52-.05.25-.34.26a.2.2 0 00-.13.12l-.79 3.76a2.75 2.29 69.5 01-.21.6q-2.48 4.95-2.59 5.2-1.48 3.32-2.66 4.9-7.7 10.28-15.18 14.73c-16 9.51-27.56 16.71-37.79 28.21q-1.13 1.27-5.49 6.49-.69-.37-1.34-.43.42-.16.9-.22c-3.01-.76-6.39.04-8.5 0q-17.36-.29-33.75.24c-11.61.38-25.45.16-35.47.64q-2.72.13-4.12.4c-3.47.66-6.43.88-10.19 2.03q-10.47 3.19-18.86 7.02a1.29 1.28 53.4 00-.31 2.14q.59.51 1.18.77c8.98 3.88 16.83 6.9 25.64 8.77q3.53.75 8.1.77c10.13.04 14.27 0 24.89.44q18.46.77 38.18.37.49-.01.51-.49.01-.12-.12-.3.79-.17 1.92.01.36.34.16.81-2.89 6.91-8.24 14.5c-3.38 4.79-8.65 9.31-12.31 13.41l-.02.02-6.97 4.99a.49.49 0 00.12.86q1.44.51 3.46 0 8.18-2.03 13.88-5.7 4.98-3.2 11.98-10.57 3.85-4.05 16.44-18.91.38.3 1.47.55 6.56 1.13 13.25.75l9.67-.56q8.44-.12 20.59-.07a.94.94 0 01.9 1.19q-1.6 5.74-4.75 11.14-1.72 2.94-10.7 18.03-.8 1.33-2.33 5.94-.48 1.44-.05 2.5a.4.4 0 00.53.2q.3-.14.01-.18.79.13 1.17-.07l.25.09a.61.59-59 00.61-.16c3.6-3.74 6.15-6.86 10.18-9.9q4.18-3.14 8.8-6.98c5.95-4.94 10.47-13.26 13.94-21.18a.95.92-77.7 01.85-.56l36.18-.14a.28.26 25.4 00.16-.05q.37-.29-.16-.55.49.12 1.12-.17 3.26 6.33 5.88 10.3c7.73 11.7 17.72 22.33 30.12 28.83q1.2.63 2.06.26a1.07 1.03 56.1 00.3-1.71c-5.51-5.7-9.86-10.13-12.82-17.2q-5-11.95-6.68-18.62a1.45 1.45 0 012.16-1.59q1.14.71 2.36.66 15.73-.62 41.55-.31a.91.9-11 01.82.55q4.53 10.83 13.24 18.98 11.97 11.22 26.37 17.8a1.25 1.24 18.6 001.74-.86q.05-.22-.17-.93a1.59 1.51 11.8 00-.54-.78q-4.18-3.2-4.64-3.73-8.5-9.76-10.39-12.84-4.08-6.66-8.7-17.4a.63.62 78.4 01.57-.87h31.67a.7.68-87.3 01.68.76q-1.11 11.91-6.52 23.76a2.22 2.22 0 001.48 3.08l2.32.58a3 3 0 003.49-1.74q4.85-11.48 6.47-22.9a1.01 1-79.2 011.22-.84l.19.07a1.74 1.71 47.3 001.01.05q4.22-1.08 5.05-.95 4.52.7 8.54-.63 1-.34 2.89.51a2.74 2.71 58.5 00.94.23q1.8.1 4.52-.91a2.31 2.29 40.8 011.31-.09q3.76.84 7.28-.64a1.39 1.34 43.3 011.02-.01q2.7 1.02 4.08.55 2.63-.89 3.25-.83 5.35.49 8.49-.32a.51.5-7.2 01.63.48v7.16a1.72 1.72 0 002.44 1.56c5.14-2.38 8.42-10.24 9.12-15.68q.87-6.69-.91-13.02a3.59 3.46-68.4 00-.35-.85q-2.88-5.09-7.48-8.36a1.73 1.73 0 00-2.73 1.47l.16 5.49a.85.84 84.1 01-.69.86q-2.29.43-5.25-.44-1.71-.5-4.46-.02a3.08 2.87 44.8 01-1.23-.04q-2.66-.63-5.82-.07a5.35 5.26-44 01-1.99-.02q-3.89-.75-7.1-.31a3.03 3 47.6 01-1.19-.06q-3.65-.89-7.37-.26a.5.39 38 01-.19 0l-6.2-1a1.93 1.9-54.5 00-1.25.22q-1.16.64-2.33.16c-1.82-.74-3-.58-4.79-.44a1.27 1.27 0 01-1.35-1.06q-1.98-12.28-7.23-23.82a2.2 2.19 80.7 00-1.77-1.28q-1.48-.17-3.99-.12a1.68 1.66 4.9 00-1.61 1.34q-.17.82.21 1.67 5.34 12.12 7.12 22.96a1.31 1.3 85.5 01-1.28 1.51h-41.35a2.27 2.26 71.1 01-1.79-.88q-4.21-5.48-5-6.3c-3.83-3.97-7.68-7.29-12.86-9.98-8.15-4.24-16.01-8.25-24.17-13.17q-7.97-4.81-16.74-13.1-3.43-3.23-5.58-7.21-3.52-6.48-4.1-8.15-2.4-6.76-4.1-11.38-.75-2.04-2.7-11.8c-.6-2.99-.45-5.95-1.29-8.79a4.12 4.04-54.7 01-.15-.94q-.27-8.78-.66-14.2c-1-14.06-.32-31.55-.53-41.82q-.42-20.08-.79-35.26-.53-21.39-.15-29.99.14-3.2 1.69-4.69 8.74-8.44 21.15-15.69a3 3 8.3 00.62-.46q1.53-1.4 3.12-2.38a.46.45 69.6 01.69.32q1.98 12.51 12.32 19.89c3.99 2.84 13.05 5.83 17.26 2.34a1.05 1.04 70 00.38-.83c-.04-1.69-.22-3.01 2.18-3.15q2.92-.15 6.59-3.33 5.53-4.81 5.51-11.39a3 3-17 011.34-2.5q6.18-4.07 9.06-10.98 3.11-7.47 2.23-15.14-.55-.86-1.25-1.35a1.61 1.6 6.7 01-.59-.74q-.38-.96-.36-2.07a2.47 2.46 36.8 00-.12-.82q-.94-2.84-2.53-4.28-1.67-2.71-4.29-3.58-5.31-1.75-10.33 1.16a1.54 1.53 31.7 01-.91.21q-1.32-.09-1.98-1.26a.85.85 0 00-1.24-.27l-2.19 1.59a.83.83 0 01-1.14-.16l-2.37-3.06a1.84 1.76 85.4 00-.53-.47q-6.19-3.67-11.82-.42c-1.8 1.04-3.02 2.95-4.35 4.21a3.59 3.55-68.2 01-2.28.99q-7.76.4-10.41 7.21-1.49 3.87-.87 7.36.47 2.69 1.58 6.34a.8.8 0 01-.39.91l-25.06 12.92a.94.94 0 01-1.37-.81l-.81-26.5a2.13 2.06-31.1 01.31-1.16q1.18-1.96 2.64-3.32 9.96-9.32 21.61-18.38 1.92-1.5 9.89-6.93l.24-.13c3.06 2.55 6.41 5.86 9.66 7.43q5.35 2.59 11.63 1.64a1.72 1.71-4.3 001.46-1.69v-2.16a.62.61-86 01.7-.61l2.1.31a1.26 1.18 41 00.49-.02q3.04-.78 6.12-3.24a.51.5-34.6 01.74.13c3.53 5.76 6.19 9.18 13.08 10.65a2.24 2.09 65.4 01.68.28q1.86 1.2 3.41.4a1.66 1.63 83.5 00.83-1.06l.64-2.54a.56.56 0 01.85-.34l2.49 1.6a.74.73-31.9 00.48.11q6.39-.54 11.29-2.25 9.18-3.2 9.44-12.31a1.02 1 20 00-.4-.84q-.79-.58-.72-1.26a.88.87-7.2 01.56-.72q5.42-2.1 6.91-4.32 1.19-1.8 2.44-5.66.15-.47 1.1-6.06 1-5.85 4.54-11.57l-2.02-1.49q-3.45-1.47-2.18-4.18a1.7 1.68-34.5 00.16-.84q-.65-9.76-8.4-15.33l-.54-2.37q-9.27-3.94-18.37.63a1.21 1.2-26.1 01-1.62-.55q-2.36-4.89-7.28-7.77-2.01-1.18-5.65-1.07a.92.88-24.8 01-.61-.21q-.94-.76-.19-2.45.22-.24-.19-1.96-4.5-1.03-9.27-.16-4.86.89-8.91 2.83-4.77 2.28-6.88 7.09a1.39 1.37-67.2 01-1.77.73q-1.34-.53-1.88-1.84-3.33-8.14-9.91-12.5c-2.63-1.74-5.55-2.75-7.95-3.98a.44.44 0 01.04-.81l7.18-2.78a1.55 1.55 0 00.92-1.9q-.66-2.18.41-2.62a1.7 1.52 26.4 01.4-.11q5.22-.77 7.09-5.29a1.29 1.28-88.4 01.77-.73c1.5-.52 3.09.87 4.44.95q5.07.28 8.53-.98 2.61-.95 1.69-3.71a.85.85 0 01.52-1.06q3.33-1.22 6.4-2.83 4.59-2.4 3.87-6.53-.07-2.82.6-4.61 1.78-2.24 1.33-5.16.96-3.42 1.01-5.26c.18-5.63-5.29-9.17-10.85-9.36q.51-9.17-5.01-15.66a1 1 0 00-1.02-.33q-1.57.39-2.09 2.36a.87.87 0 01-1.42.42c-3.91-3.5-8.76-5.81-13.78-3.32a.7.7 0 01-1.01-.59q-.24-5.26-2.22-9.72-1.18-2.65-3.44-3.25c-3.16-1.91-5.35-.41-8.05.98a1 1 0 01-1.3-.32c-1.44-2.03-3.3-4.31-5.78-4.76q-7.48-1.37-11.74 4.36a.3.3 0 01-.5-.04q-4.88-9.41-15.15-11.57c-6.89-1.44-12.54-2.1-18.51.36"/><path fill="#fcc916" d="M496.81 44.8c4.03 3.87 5.16 8.92 5.04 14.37a.82.82-28.2 001.5.45l.49-.75a1.18 1.14 8.8 01.72-.51q5.39-1.21 9.53 1.78 3.55 2.57 4.02 2.99a.63.63 0 001.04-.31l.61-2.44a1.09 1.08 32.7 011.9-.41q3.32 4.14 4.42 9.48.23 1.11-.5 4.82a.63.61 37.1 00.07.44q.39.67 1.15.18c5.56.19 11.03 3.73 10.85 9.36q-.05 1.84-1.01 5.26-1.3 2.47-1.33 5.16-.67 1.79-.6 4.61c-1.42 6.04-6.97 7.52-12.17 9.2a.58.58 0 00-.14 1.03q1.51.98 1.14 2.06a1.04 1.03-2.1 01-.56.6q-6.88 3.08-13.21.38a1.25 1.25 0 00-1.65.69q-1.14 2.86-3.22 4.32c-1.33.93-3.89.82-5.28 1.89a.94.94 0 00-.3 1.09l.53 1.37a1.02 1.01-24.2 01-.49 1.27c-5.29 2.7-11.14 4.52-17.03 4.16q-5.03-.32-5.36-.25a1.6 1.6 0 01-1.08-.17q-2.87-1.58-5.46-3.54-1.85-1.41-3.83-.45-5.93 2.87-12.64 1.65-3.57-.65-5.25-.94-7.91-1.37-12.55-7.03a.52.51 39.3 00-.86.08q-3.21 6.04-9.53 8.61-6.94 2.82-14.39 4.35-4.97.96-10.13.88-2.73-.04-4.71-1.84-.13-1.88.81-3.6a.48.47-85.9 00-.58-.68l-.71.28a1.72 1.68-44.4 01-1.21 0c-5.28-2.06-11.68-5.67-11.24-11.98a2.31 2.29 15.4 00-1.27-2.22c-2.02-1.01-4.4-1.58-6.11-3.03-4.72-3.99-4.12-8.54-2-13.88a2.58 2.55-42.5 00.08-1.62c-2.48-8.8 1.28-18.93 11.42-19.79q2.3-.2 3.12-.44a.9.9 0 00.62-.68c.65-3.76 1.37-6.47 4.96-9.31q5.58-4.39 11.67-4.43a1.17 1.15 8.8 001.09-.79l1.22-3.62a1.86 1.86 0 012.35-1.17l2.39.81a1.54 1.54 0 001.83-.71q.88-1.6 1.58-3.17c1.57-3.54 5.23-5.8 9-6.46l2.17-.13q.83.25 1.41.06.51-.17.82-1.05 1.67-4.63 5.82-7.27c5.97-2.46 11.62-1.8 18.51-.36q10.27 2.16 15.15 11.57a.3.3 0 00.5.04q4.26-5.73 11.74-4.36c2.48.45 4.34 2.73 5.78 4.76a1 1 0 001.3.32c2.7-1.39 4.89-2.89 8.05-.98m-108.88 59.86c-.9-1.39-3.57-1.8-4.41-3.72-.74-1.69.09-4.45.8-5.75a.59.58 29.7 00-.22-.79c-1.97-1.15-3.4-1.88-2.85-4.67 1.03-5.33 6.79-10.44 12.33-10.63a1.16 1.15 4 001.1-.95v-.04a.8.79 6.7 00-.74-.93c-6.92-.39-11.24 4.23-14.17 9.82q-2.41 4.59 1.37 8.44a.89.87-64.7 01.24.7l-.37 3.94a1.6 1.56 36.8 00.13.83q1.74 3.98 6.16 4.71a.63.63 0 00.63-.96m92.7 10.64q-6.45.56-12.73-1.84a5.2 4.9-15.8 01-.96-.5q-2.92-1.95-4.84-1.86-11.66.52-13.88.2c-4.54-.66-10.04-1.75-12.7-5.34a1.37 1.37 0 00-2.08-.14q-2.04 2.1-3.36 3.6c-3.53 4.02-8.16 6.27-13.48 7.65a.55.54 7.8 01-.61-.8l1.14-1.97a.77.77 0 00-.91-1.12q-2.57.83-7.69.75c-7.58-.12-7.69-6.48-10.3-11.4a.53.53 0 00-.99.21q-.11 1.71.28 3.22c2.28 8.76 7.12 10.83 15.83 10.31a.48.48 0 01.3.87q-.71.48-.8.91a1.39 1.34 2.6 001.52 1.61q12.62-1.37 19.35-11.25a.76.76 0 011.16-.1c6.21 6.29 18.09 6.22 26.89 5.68a4.91 4.81 55.9 012.46.5q8.95 4.46 19.85 2.47 1.21-.23 1.63-1.16.39-.85-1.53-2.25a.57.57-32.4 01.23-1.01q5.84-1.12 12.15-2.8 2.99-.79 2.89-3.7a.6.6 0 01.59-.6q7.9.2 15.32-3.11c4.64-2.08 6.07-5.03 9.19-8.72a.58.58 0 00-.15-.88l-.33-.19a1.1 1.1 0 00-1.41.23l-4.42 5.02a2.65 2.41 2.7 01-.58.48c-7.03 4.29-15.7 6.06-23.54 3.29a.7.7 0 00-.78 1.1c1.2 1.54 2.8 1.94 3.37 4.05a.97.96 76.8 01-.74 1.2l-16.73 3.32a1.01 1.01 0 00-.45 1.76l2.03 1.7a.34.34 0 01-.19.61"/><path fill="#09111a" d="M435.78 33.81q-4.15 2.64-5.82 7.27-.31.88-.82 1.05-.58.19-1.41-.06 1.76-1.06 3.9-5.44 1.25-2.55 4.15-2.82m-10.22 8.39c-3.77.66-7.43 2.92-9 6.46q-.7 1.57-1.58 3.17a1.54 1.54 0 01-1.83.71l-2.39-.81a1.86 1.86 0 00-2.35 1.17l-1.22 3.62a1.17 1.15 8.8 01-1.09.79q-6.09.04-11.67 4.43c-3.59 2.84-4.31 5.55-4.96 9.31a.9.9 0 01-.62.68q-.82.24-3.12.44c-10.14.86-13.9 10.99-11.42 19.79a2.58 2.55-42.5 01-.08 1.62c-2.12 5.34-2.72 9.89 2 13.88 1.71 1.45 4.09 2.02 6.11 3.03a2.31 2.29 15.4 011.27 2.22c-.44 6.31 5.96 9.92 11.24 11.98a1.72 1.68-44.4 001.21 0l.71-.28a.48.47-85.9 01.58.68q-.94 1.72-.81 3.6-.73-.26-.81-2.51a.6.59 9.5 00-.39-.54q-3.24-1.12-7.02-3.65-3.46-2.31-5.24-6.08a2.24 1.94-63.4 01-.18-.71l-.17-2.99a.89.88-79.6 00-.52-.76q-5.27-2.41-6.58-3.4c-4.57-3.46-4.47-8.86-2.29-13.86q.78-1.78-.43-4.28c-.84-1.76-.44-3.68.06-6.12q2.39-11.8 14.38-12.7a1.65 1.62 15.3 001.2-.67q.66-.94 1.19-3.4.58-2.73 3.09-4.93 5.02-4.4 10.98-5.35 2.32-.37 2.66-.97c.63-1.07.82-2.9 1.48-3.61q2.08-2.26 4.3-.59a1.74 1.74 0 002.69-.82q2.39-6.89 9.03-9.12 1.2-.41 1.59.57M526.8 74.89q-.76.49-1.15-.18a.63.61 37.1 01-.07-.44q.73-3.71.5-4.82-1.1-5.34-4.42-9.48a1.09 1.08 32.7 00-1.9.41l-.61 2.44a.63.63 0 01-1.04.31q-.47-.42-4.02-2.99-4.14-2.99-9.53-1.78a1.18 1.14 8.8 00-.72.51l-.49.75a.82.82-28.2 01-1.5-.45c.12-5.45-1.01-10.5-5.04-14.37q2.26.6 3.44 3.25 1.98 4.46 2.22 9.72a.7.7 0 001.01.59c5.02-2.49 9.87-.18 13.78 3.32a.87.87 0 001.42-.42q.52-1.97 2.09-2.36a1 1 0 011.02.33q5.52 6.49 5.01 15.66"/><path fill="#d97d05" d="M387.93 104.66a.63.63 0 01-.63.96q-4.42-.73-6.16-4.71a1.6 1.56 36.8 01-.13-.83l.37-3.94a.89.87-64.7 00-.24-.7q-3.78-3.85-1.37-8.44c2.93-5.59 7.25-10.21 14.17-9.82a.8.79 6.7 01.74.93v.04a1.16 1.15 4 01-1.1.95c-5.54.19-11.3 5.3-12.33 10.63-.55 2.79.88 3.52 2.85 4.67a.59.58 29.7 01.22.79c-.71 1.3-1.54 4.06-.8 5.75.84 1.92 3.51 2.33 4.41 3.72"/><path fill="#09111a" d="M535.31 94.67q.03-2.69 1.33-5.16.45 2.92-1.33 5.16"/><path fill="#d97d05" d="m480.82 114.69-2.03-1.7a1.01 1.01 0 01.45-1.76l16.73-3.32a.97.96 76.8 00.74-1.2c-.57-2.11-2.17-2.51-3.37-4.05a.7.7 0 01.78-1.1c7.84 2.77 16.51 1 23.54-3.29a2.65 2.41 2.7 00.58-.48l4.42-5.02a1.1 1.1 0 011.41-.23l.33.19a.58.58 0 01.15.88c-3.12 3.69-4.55 6.64-9.19 8.72q-7.42 3.31-15.32 3.11a.6.6 0 00-.59.6q.1 2.91-2.89 3.7-6.31 1.68-12.15 2.8a.57.57-32.4 00-.23 1.01q1.92 1.4 1.53 2.25-.42.93-1.63 1.16-10.9 1.99-19.85-2.47a4.91 4.81 55.9 00-2.46-.5c-8.8.54-20.68.61-26.89-5.68a.76.76 0 00-1.16.1q-6.73 9.88-19.35 11.25a1.39 1.34 2.6 01-1.52-1.61q.09-.43.8-.91a.48.48 0 00-.3-.87c-8.71.52-13.55-1.55-15.83-10.31q-.39-1.51-.28-3.22a.53.53 0 01.99-.21c2.61 4.92 2.72 11.28 10.3 11.4q5.12.08 7.69-.75a.77.77 0 01.91 1.12l-1.14 1.97a.55.54 7.8 00.61.8c5.32-1.38 9.95-3.63 13.48-7.65q1.32-1.5 3.36-3.6a1.37 1.37 0 012.08.14c2.66 3.59 8.16 4.68 12.7 5.34q2.22.32 13.88-.2 1.92-.09 4.84 1.86a5.2 4.9-15.8 00.96.5q6.28 2.4 12.73 1.84a.34.34 0 00.19-.61"/><path fill="#09111a" d="m539.02 135.51-6.14.17q-2.98.09-9.2 2.01-5.76 1.77-8.65 6.77c-1.17 2.05-2.06 2.76-4.24 1.76a1.55 1.51 87.1 01-.72-.67q-.59-1.11-1.58-3.48c-2.36-5.65-7.16-9.67-12.91-12.15q-4.01-1.74-4.34-1.82a8.47 8.29-37.8 00-1.91-.22l-13.49.01a1.92 1.91-28.5 01-1.03-.3l-5.22-3.35a2.41 2.39 51.3 00-2.11-.24l-4.83 1.74a2.32 2.24 33.9 01-.79.14h-7.21a2.57 2.37 53.7 01-.92-.18c-2.26-.91-4.5-.7-6.75-1.41q-6.66-2.12-10.73-6.5a.58.58 0 00-.94.12c-2.94 5.59-8.9 8.09-14.46 9.91q-.88.28-1.27 2.37-1.42 7.58 2.06 14.74 2.08 4.29 5.8 6.19a1 1 0 01.53.83c.06 1.95-1.24 3.78-1.1 5.91q.65 9.85 11.38 9.14a1.2 1.2 0 011.29 1.26q-.1 2.37 1.49 3.92 2.98 2.93 6.7 4.79c3.78 1.9 9.19 1.68 11.63 5.44q-.81.36-1.26.16a.66.66 0 00-.87.85q.67 1.64.65 2.33-.43 15.19-.34 30.79a.75.75 0 001.07.67q2.01-.94 4.05-3.22a3.11 3.02.8 01.37-.35l14.7-10.67.06-.04 5.18-3.17a1.58 1.57-3.9 00.63-.72q.7-1.53 1.35-1.61a.43.43 0 00.11-.82q-.72-.3-5.82-.21a3.14 2.95-35.4 01-.95-.13q-9.02-2.73-13.41-10.23a.64.63 49.8 00-1.04-.09q-1.15 1.4-2.47 1.05 1.86-1.4 2.45-3.3a.63.63 0 011.22.1q.16 1.27.73 2.24 4.32 7.39 12.89 9.6a1.9 1.82-36.6 00.47.06l11.21-.11a2.3 2.3 86.3 012.31 2.03c.8 7.05 5.38 11.79 11.28 15.45q5.74 3.55 12.32 2.61a1.25 1.23-4.3 001.06-1.22v-3.33a.48.48 0 01.8-.36q.76.68 1.61.66 5.21-.1 8.04-4.27a.47.47 0 01.84.11q3.64 10.77 16.06 12.43a1.13 1.13 0 001.28-1.12v-3.88a.39.39 0 01.7-.25q1.15 1.42 3.47 2.56a2.1 2.06 56 001.03.21c7.6-.38 17.12-2.57 19.28-10.73.56-2.09-.6-4.16-1.27-5.73a.82.82 74.7 01.64-1.13q6.75-.93 9.15-6.87.42-1.01 1.28-6.88 1.04-7.13 5.69-12.78-3.54 5.72-4.54 11.57-.95 5.59-1.1 6.06-1.25 3.86-2.44 5.66-1.49 2.22-6.91 4.32a.88.87-7.2 00-.56.72q-.07.68.72 1.26a1.02 1 20 01.4.84q-.26 9.11-9.44 12.31-4.9 1.71-11.29 2.25a.74.73-31.9 01-.48-.11l-2.49-1.6a.56.56 0 00-.85.34l-.64 2.54a1.66 1.63 83.5 01-.83 1.06q-1.55.8-3.41-.4a2.24 2.09 65.4 00-.68-.28c-6.89-1.47-9.55-4.89-13.08-10.65a.51.5-34.6 00-.74-.13q-3.08 2.46-6.12 3.24a1.26 1.18 41 01-.49.02l-2.1-.31a.62.61-86 00-.7.61v2.16a1.72 1.71-4.3 01-1.46 1.69q-6.28.95-11.63-1.64c-3.25-1.57-6.6-4.88-9.66-7.43-1.25-3.23-3.13-5.67-3.29-9.28a1.9 1.9 0 00-2.89-1.52q-16.21 10.2-31.09 22.22-.77.62-1.19.3a.4.4 0 01-.14-.29l-.15-36.39a2.1 2.1 0 00-1.44-1.97q-3.4-1.11-6.94-2.29-2.39-.79-6.71-4.21-2.39-1.89-2.52-4.81a1.33 1.32-2.2 00-1.37-1.26q-10.71.39-11.48-9.63c-.15-1.92.39-3.12 1.02-5.21a1.28 1.27-65.4 00-.54-1.46c-6.61-4.19-9.74-14.14-7.33-21.45a.63.63 0 00-.83-.79c-7.38 2.94-13.16 9.48-12.4 17.9a.55.55 0 01-.8.54l-1.51-.78a1.28 1.25 60.8 00-.51-.15q-6.85-.64-12.61 2.91a1 .99 51.2 01-1.22-.14l-1.58-1.58a1.23 1.23 0 00-1.81.07q-1.34 1.59-3.29.86-5.42-2.03-6.43-2.37c-7.23-2.48-14.41 1.79-20.43 6.23q-3.71 2.74-4.78 4.94a.92.9-67.1 01-1.11.46l-2.54-.85a1.05 1.03-56.4 00-1.04.22q-1.05.94-1.28 2.29a1.24 1.24 0 01-1.16 1.04c-5.54.26-10.27.59-15.64 3.08-3.41 1.58-5.33 4.96-6.89 9.24q-.8 2.2-3.53 6.8c-3.15 5.32-3.86 13.79-.42 19.58a1.27 1.22-5.1 00.66.53l1.29.43a.41.41-53.4 01.1.71l-2.86 2.08a1.03 1.02-38.2 00-.18 1.49c6.89 8.12 17.65 11.21 27.88 6.65a.6.6 0 01.82.34q.59 1.57 1.57 4.05 3.11 7.84 11.21 7.48c2.39-.11 4.95-1.33 6.94-1.53a5.49 5.4 45.5 011.14.02c.96.12 2.18.82 3.39 1.07 10.35 2.16 16.18-3.85 20.97-12.04a1.99 1.98 15.4 011.73-.98q2.46.02 5.01 1.12a.68.67-72.3 01.39.77l-.6 2.57q-.99-.45-.58-2.04a.74.73-67.6 00-.34-.82q-1.48-.89-2.55-1.08a2.6 2.6 21.4 00-2.59 1.13c-4.88 7.53-9.51 13.25-19.36 12.49a5.3 3.44 32.2 01-.67-.1l-5.4-1.24a2.7 2.7 0 00-1.53.1q-3.63 1.37-6.93 1.22-5.29-.26-8.16-3.55-2.62-3-4-7.18a.79.78 71.2 00-1.01-.5q-12.13 4.23-22.89-2.88-2.86-1.88-4.85-4.78a2 2 0 01-.31-.93q-.06-1.45 1.43-2.66a.65.64 51.1 00.09-.9q-1.02-1.27-2.38-5.16-1.12-3.21-.65-6.31 1.15-7.46 4.98-12.56a4.29 4.23-19 00.65-1.31q.84-2.83 2.47-6.28c1.43-3 3.89-5.22 7.27-6.45q6.52-2.39 13.54-2.37a1.45 1.45 0 001.38-.96q1.31-3.61 4.64-2.05a1.4 1.38-60.4 001.74-.49q1.71-2.56 4.41-4.43c5.35-3.72 10.27-6.63 16.62-7.19a3.24 3.23-41.5 011.01.06q3.62.77 9.34 2.86 1.96.72 4.08-.72.87-.6 1.94.18 1.14.83 2.44 1.08a1.48 1.44 34.9 00.99-.16q5.84-3.27 11.86-2.31a1.46 1.46 0 001.69-1.33q.52-7.19 5.48-11.21 1.29-1.05 1.86-2.49.17-.42-1.31-1.24 7.45-1.53 14.39-4.35 6.32-2.57 9.53-8.61a.52.51 39.3 01.86-.08q4.64 5.66 12.55 7.03 1.68.29 5.25.94 6.71 1.22 12.64-1.65 1.98-.96 3.83.45 2.59 1.96 5.46 3.54a1.6 1.6 0 001.08.17q.33-.07 5.36.25c5.89.36 11.74-1.46 17.03-4.16a1.02 1.01-24.2 00.49-1.27l-.53-1.37a.94.94 0 01.3-1.09c1.39-1.07 3.95-.96 5.28-1.89q2.08-1.46 3.22-4.32a1.25 1.25 0 011.65-.69q6.33 2.7 13.21-.38a1.04 1.03-2.1 00.56-.6q.37-1.08-1.14-2.06a.58.58 0 01.14-1.03c5.2-1.68 10.75-3.16 12.17-9.2q.72 4.13-3.87 6.53-3.07 1.61-6.4 2.83a.85.85 0 00-.52 1.06q.92 2.76-1.69 3.71-3.46 1.26-8.53.98c-1.35-.08-2.94-1.47-4.44-.95a1.29 1.28-88.4 00-.77.73q-1.87 4.52-7.09 5.29a1.7 1.52 26.4 00-.4.11q-1.07.44-.41 2.62a1.55 1.55 0 01-.92 1.9l-7.18 2.78a.44.44 0 00-.04.81c2.4 1.23 5.32 2.24 7.95 3.98q6.58 4.36 9.91 12.5.54 1.31 1.88 1.84a1.39 1.37-67.2 001.77-.73q2.11-4.81 6.88-7.09 4.05-1.94 8.91-2.83 4.77-.87 9.27.16"/><path fill="#fcc916" d="M539.02 135.51q.41 1.72.19 1.96l-1.55 2.2a.93.93 0 00.94 1.45c6.04-1.16 11.37 2.41 13.72 8.14a1.75 1.75 0 002.35.93q8.54-3.91 18.26-1.3l.54 2.37q-.86-.02-1.54.37a.2.2 0 00.07.37q2.29.39 4.19 2.47 5.92 6.47 4.72 14.57-.23 1.56.65 2.12.85.56 2.33.45l2.02 1.49q-4.65 5.65-5.69 12.78-.86 5.87-1.28 6.88-2.4 5.94-9.15 6.87a.82.82 74.7 00-.64 1.13c.67 1.57 1.83 3.64 1.27 5.73-2.16 8.16-11.68 10.35-19.28 10.73a2.1 2.06 56 01-1.03-.21q-2.32-1.14-3.47-2.56a.39.39 0 00-.7.25v3.88a1.13 1.13 0 01-1.28 1.12q-12.42-1.66-16.06-12.43a.47.47 0 00-.84-.11q-2.83 4.17-8.04 4.27-.85.02-1.61-.66a.48.48 0 00-.8.36v3.33a1.25 1.23-4.3 01-1.06 1.22q-6.58.94-12.32-2.61c-5.9-3.66-10.48-8.4-11.28-15.45a2.3 2.3 86.3 00-2.31-2.03l-11.21.11a1.9 1.82-36.6 01-.47-.06q-8.57-2.21-12.89-9.6-.57-.97-.73-2.24a.63.63 0 00-1.22-.1q-.59 1.9-2.45 3.3l-2.01-4.59c-2.44-3.76-7.85-3.54-11.63-5.44q-3.72-1.86-6.7-4.79-1.59-1.55-1.49-3.92a1.2 1.2 0 00-1.29-1.26q-10.73.71-11.38-9.14c-.14-2.13 1.16-3.96 1.1-5.91a1 1 0 00-.53-.83q-3.72-1.9-5.8-6.19-3.48-7.16-2.06-14.74.39-2.09 1.27-2.37c5.56-1.82 11.52-4.32 14.46-9.91a.58.58 0 01.94-.12q4.07 4.38 10.73 6.5c2.25.71 4.49.5 6.75 1.41a2.57 2.37 53.7 00.92.18h7.21a2.32 2.24 33.9 00.79-.14l4.83-1.74a2.41 2.39 51.3 012.11.24l5.22 3.35a1.92 1.91-28.5 001.03.3l13.49-.01a8.47 8.29-37.8 011.91.22q.33.08 4.34 1.82c5.75 2.48 10.55 6.5 12.91 12.15q.99 2.37 1.58 3.48a1.55 1.51 87.1 00.72.67c2.18 1 3.07.29 4.24-1.76q2.89-5 8.65-6.77 6.22-1.92 9.2-2.01zm-83.06 30.73c-3.19.49-5.23-1.47-7.43-3.91q-4.11-4.56-3.13-10.36.38-2.25.14-3.37-.2-.88.47-3.33.26-.99-.03-7.65a.7.7 0 00-.58-.64l-.03-.01a.54.54 0 00-.61.49l-.7 7.78a.6.6 0 01-.91.48c-1.53-.88-1.54-1.85-1.98-3.34q-2.3-7.83 1.31-14.56a1.12 1.08 2.5 01.58-.51l1.66-.64a.55.55 0 00.19-.9c-2.13-2.12-4.7 2.07-5.35 3.86-1.69 4.67-2.29 14.62 2.97 18.1a2.06 2.05-70.7 01.92 1.92l-.36 3.68a.8.8 0 01-1.25.61c-5.1-3.28-7.45-9.28-8.06-15.14q-.42-4.09 2.27-9.42a1.03 1.02-61 00-.38-1.34l-.06-.03a1.16 1.15 34.4 00-1.52.28q-1.96 2.52-2.31 5.7-1.45 13.28 8.53 21.38c.72.58 1.42.41 2.09.68a1.14 1.13 2.3 01.67.72c1.54 4.83 5.27 9.87 10.44 11.42q2.18.66 2.91-1.39a.42.42 0 00-.46-.56m71.61 23.91c-.01.88.44 1.83.42 2.88-.15 7.38-9.66 5.63-14 3.56a.91.91 0 00-1.15 1.33q.98 1.47.77 3.41a.8.79 11 01-1.01.68q-6.31-1.77-10.04-7.34-2.75-4.11-2.24-7.57a.53.53 0 00-.52-.61c-.92-.01-2.19.8-3.2.86q-14.57.78-23.57-8.97a.81.8 50.1 00-1.06-.1l-.25.17a.86.86 0 00-.16 1.23c6.17 7.75 16.68 11.1 26.27 9.56a.55.54-8.1 01.63.47l.26 2.07a1.16 1.04 32.3 00.1.35q3.06 7.24 9.41 10.54c2.18 1.14 8.6 2.95 8.18-1.54a.88.88 0 011.13-.92c3.69 1.09 7.81.78 10.6-1.76q.77-.69.98-.79a.8.79 60.6 01.99.28q5.66 8.49 16.72 9.77c6.72.78 13.23-1.65 13.54-9.46q.09-2.15-.97-4.01a1.09 1.06 81.3 00-.66-.5l-.48-.12a.72.71-89 00-.87.85c.97 4.57.37 9.41-5.22 10.45q-9.2 1.71-17.55-5.02a2.91 2.78-88.7 01-.63-.69l-5.98-9.18a.24.24 0 00-.44.12"/><path fill="#d97d05" d="M455.96 166.24a.42.42 0 01.46.56q-.73 2.05-2.91 1.39c-5.17-1.55-8.9-6.59-10.44-11.42a1.14 1.13 2.3 00-.67-.72c-.67-.27-1.37-.1-2.09-.68q-9.98-8.1-8.53-21.38.35-3.18 2.31-5.7a1.16 1.15 34.4 011.52-.28l.06.03a1.03 1.02-61 01.38 1.34q-2.69 5.33-2.27 9.42c.61 5.86 2.96 11.86 8.06 15.14a.8.8 0 001.25-.61l.36-3.68a2.06 2.05-70.7 00-.92-1.92c-5.26-3.48-4.66-13.43-2.97-18.1.65-1.79 3.22-5.98 5.35-3.86a.55.55 0 01-.19.9l-1.66.64a1.12 1.08 2.5 00-.58.51q-3.61 6.73-1.31 14.56c.44 1.49.45 2.46 1.98 3.34a.6.6 0 00.91-.48l.7-7.78a.54.54 0 01.61-.49l.03.01a.7.7 0 01.58.64q.29 6.66.03 7.65-.67 2.45-.47 3.33.24 1.12-.14 3.37-.98 5.8 3.13 10.36c2.2 2.44 4.24 4.4 7.43 3.91"/><path fill="#fcc916" d="m495.39 207.2-.24.13q-6.38 2.92-13.02 8.3-12.6 10.2-20.43 17.82-1.68 1.63-1.68 3.58-.01 12.55 1.05 28.64a.3.3 0 00.42.24l26.69-13.75a.81.8 51.6 01.91.11q1.22 1.04 1.91 3.22a1.11 1.08 50.6 01-.07.84c-1.21 2.33-.62 4.61-1.51 6.87a1.55 1.52-6.1 01-.6.73c-5.76 3.65-27.28 16.98-27.44 23.05-.32 12.65-.16 20.14.31 35.95.58 19.74.38 32.12.57 57.15.08 10.27.89 21.39 1.62 29.61q1.45 16.26 8.11 32.58c3.16 7.76 5.72 12.28 11.6 17.46 11.27 9.95 23.37 16.73 37.85 23.83q11.83 5.79 18.64 16.92a.3.3-15.6 01-.25.43h-21.99a3.64 3.63-27.4 01-2.09-.66q-9.01-6.43-18.46-11.8c-5.34-3.04-12.67-6.09-19.21-6.17a.73.73 0 00-.7.97c1.84 5.23 4.2 10.15 5.71 15.65q1.78 6.5 3.33 15.48 1.66 9.62 3.56 15.04 2.92 8.37 6.62 16.74 1.35 3.06 4.07 6.18 5.39 6.2 7.76 8.61a.32.32 0 01-.26.55q-1.86-.2-3.65-1.27-7.19-4.35-12.39-9.33c-9.06-8.67-17.05-18.77-21.4-30.29q-4.44-11.77-7.37-21.96-2.67-9.25-11.65-19.47-1.1-1.25-3.02-2.31a1.6 1.6 0 00-1.85.25c-5.72 5.63-8.2 15.13-9.26 23.11a1.06 1.05-86.3 01-1.04.92h-17.93a.32.32 0 01-.32-.35c.44-4.97 1.06-10.71 2.87-14.7a.93.92 16.6 00-.71-1.3c-4.55-.68-8.7.96-13.81 2.43q-10.03 2.9-19.3 11.61-4.26 4-4.49 4.26-5.92 7.03-10.57 13.69-5.24 7.49-19.46 23.28c-8.35 9.28-16.18 15.35-28.13 17.62a.42.42 0 01-.32-.76q17.34-12.28 26.47-31.82 1.76-3.75 5.42-12.1 1.8-4.11 6.15-10.88c6.93-10.77 18.12-19.93 29.08-26.64 7.39-4.53 13.94-7.94 19.64-12.84q16.47-14.14 18.31-37.87l.18-2.41q.41-6.14.82-10.59.55-5.96.59-10.58.25-31.05.62-38.95.52-10.91.52-24.25c.01-8.73 1.44-23.29.94-34.56a5.4 5.38-64.1 00-1-2.9q-9.13-12.82-22.26-21.15a2.5 2.5 0 01-1.17-2.06q-.09-2.9-1.19-5.85a.8.8 0 01.18-.85l3.03-3.02a.83.82 38.9 011.03-.11l23.23 14.91a.4.39 16.4 00.61-.33l-.04-29.41-.04-15.13q.03-2.99-1.18-5.57c-4.26-9.1-11.47-15.9-20.07-21.49a.66.66 0 01.23-1.2q4.74-.95 8.63-3.78a2.5 2.5 0 013.05.1l11.91 9.93a.52.51-70.2 00.84-.4V191.6a1.05 1.04-7.1 01.79-1.01q9.15-2.31 14.47-9.23v-.07l-.24-.2a.25.24-47.7 00-.33.02q-9.25 9.58-23.01 10.02a1.28 1.27-84 00-1.2.98q-.73 2.95-1.43 5.98c-1.13 4.91-5.92 7.62-10.26 9.34q-6.8 2.7-16.32 4.65-1.01.2-3.69 2.2l-.7-.07.6-2.57a.68.67-72.3 00-.39-.77q-2.55-1.1-5.01-1.12a1.99 1.98 15.4 00-1.73.98c-4.79 8.19-10.62 14.2-20.97 12.04-1.21-.25-2.43-.95-3.39-1.07a5.49 5.4 45.5 00-1.14-.02c-1.99.2-4.55 1.42-6.94 1.53q-8.1.36-11.21-7.48-.98-2.48-1.57-4.05a.6.6 0 00-.82-.34c-10.23 4.56-20.99 1.47-27.88-6.65a1.03 1.02-38.2 01.18-1.49l2.86-2.08a.41.41-53.4 00-.1-.71l-1.29-.43a1.27 1.22-5.1 01-.66-.53c-3.44-5.79-2.73-14.26.42-19.58q2.73-4.6 3.53-6.8c1.56-4.28 3.48-7.66 6.89-9.24 5.37-2.49 10.1-2.82 15.64-3.08a1.24 1.24 0 001.16-1.04q.23-1.35 1.28-2.29a1.05 1.03-56.4 011.04-.22l2.54.85a.92.9-67.1 001.11-.46q1.07-2.2 4.78-4.94c6.02-4.44 13.2-8.71 20.43-6.23q1.01.34 6.43 2.37 1.95.73 3.29-.86a1.23 1.23 0 011.81-.07l1.58 1.58a1 .99 51.2 001.22.14q5.76-3.55 12.61-2.91a1.28 1.25 60.8 01.51.15l1.51.78a.55.55 0 00.8-.54c-.76-8.42 5.02-14.96 12.4-17.9a.63.63 0 01.83.79c-2.41 7.31.72 17.26 7.33 21.45a1.28 1.27-65.4 01.54 1.46c-.63 2.09-1.17 3.29-1.02 5.21q.77 10.02 11.48 9.63a1.33 1.32-2.2 011.37 1.26q.13 2.92 2.52 4.81 4.32 3.42 6.71 4.21 3.54 1.18 6.94 2.29a2.1 2.1 0 011.44 1.97l.15 36.39a.4.4 0 00.14.29q.42.32 1.19-.3Q473 206.6 489.21 196.4a1.9 1.9 0 012.89 1.52c.16 3.61 2.04 6.05 3.29 9.28m-86.81-53.15q-6.64-2.93-13.15-1.69a13.05 13.05 0 00-10.54 10.98.93.84-88.4 00.9 1.06q.21-.02.6-.32a1.12 1.03 83.2 00.36-.5c1.89-5.19 4.27-8.77 10.26-9.23q7.38-.57 13.77 3.43a.98.98 0 001.39-1.28c-2.33-4.56.17-7.81 2.23-11.85a.82.79-68.5 00-.47-1.15q-.79-.22-1.2.43c-2.19 3.54-3.8 5.1-3.52 9.68a.45.45 0 01-.63.44m44 32.59a.27.27 0 00-.27-.27l-1.22.03a.3.3 0 00-.26.27l.82 39.55a.27.27 0 00.28.27l1.22-.03a.3.3 0 00.26-.27zm-99.16 16.39q-.31 6.22 7.05 7.9 17.93 4.1 28.04-10.12a1 1 0 011.23-.31c4.93 2.46 10.68 4.26 16.43 2.6 6.06-1.75 11.95-4.88 14.68-10.24q1.08-2.12.33-3.97a.94.94 0 00-1.81.26c-.86 8-11.99 11.85-18.72 12.26a5.52 5.5 51 01-1.77-.19c-4.54-1.22-7.19-1.71-9.32-4.99a1.08 1.07-51 00-1.9.2q-2.22 5.72-7.23 9.29c-5.57 3.98-14.29 4.5-20.76 2.63-4.19-1.22-3.71-3.97-3.52-7.5a.91.9-1.4 00-1-.95q-2.61.27-6.04 1.23c-6.02 1.69-12.85 1.48-18.13-1.08-3.4-1.65-4.96-5.17-4.04-8.88q.54-2.15.75-3.77a.74.74 0 00-.56-.82q-.96-.25-1.37.96c-1.51 4.43-2.1 9.81 1.65 12.63q8.05 6.05 19.61 3.85 1-.19 5.79-1.48a.48.48 0 01.61.49m101.29 67.59a.47.47 0 00.46-.48l-.49-36.67a1.87 1.85-22.6 01.57-1.36c3.34-3.17 6.8-7.04 11.1-10.4 2.13-1.65 4.7-3.56 5.75-5.51a.6.6 0 00-.82-.81q-3.66 1.99-7.37 5.54-6.81 6.51-10.25 10.24a3.5 3.5 0 00-.93 2.48l1.11 36.43a.56.56 0 00.58.55zm15.75.33a.31.31 0 00-.49-.29q-8.32 6.27-16.1 14.26a1.65 1.63-23.5 00-.47 1.17l.39 29.22a.6.6 0 00.63.61h.29a.74.74 0 00.73-.75l-.38-27.79a3 3 69.2 011.07-2.38q6.42-5.55 12.52-11.08 1.61-1.45 1.81-2.97m-12.08 54.97a1.04 1.03 40.3 00-1.36.11q-2.23 2.3-2.86 4.1-1.3 3.74-1.56 11.12-.22 6.37 1.43 26.45a1.04 1.04 0 00.84.94l.03.01a.68.68 0 00.81-.66q.08-7.41-1.01-18.18c-.75-7.47-1.15-18.47 3.83-22.64a.74.74 0 00-.03-1.16zm-1.12 87.15-.41-31.72a1.95.94-76.7 00-.03-.23q-.31-1.32-.71-1.9a.45.44-60.6 00-.81.23q-.93 15.25.35 30.25.1 1.14.67 3.08.38 1.28.37 3.5-.01 8.86 3.31 22.42c2.17 8.9 8.76 15.63 14.95 21.87q2 2.02 4.52 3.19a.52.51 17.5 00.72-.37q.21-1.13-.54-1.79-9.43-8.26-14.47-16.88-1.23-2.11-1.85-4.07-3.62-11.48-4.82-25.32-.05-.52-1.06-1.73a.84.83-65 01-.19-.53m16.54 58.01a.3.3 0 01-.41.12l-12.08-6.83a1.8 1.73-4.5 01-.5-.41c-2.93-3.4-4.59-5.62-8.74-7.22a1.45 1.45 0 00-1.67.47l-.08.1a.83.82 28.9 00.37 1.27c4.85 1.81 6.5 4.94 9.92 9.73q2.34 3.29 3.78 6.23 7.19 14.69 9.83 23 2.08 6.54 8.24 27.58a1.28 1.27-5.3 001.11.91l.03.01a.64.64 0 00.68-.79l-3.77-15.26q-1.78-7.19-4.19-13.69c-3.81-10.27-7.23-18.73-12.56-27a.29.29 0 01.39-.4c5.74 3.53 11.2 6.68 17.88 7.66a2.84 2.82-26.8 01.8.26l12.99 6.64.1.04q7.99 2.82 14.02 6.69a1.11 1.09 29.5 001.58-.42q.23-.45-.28-1.03-1.22-1.44-2.91-2.3c-5.82-3-12.74-5.64-18.59-9.24-4.31-2.66-9.44-4.59-13.06-7.67q-10.99-9.31-15.96-19.25-2.02-4.03-4.85-11.37-1.55-4.04-2.43-13.13a1.12 1.11 85.7 00-1.17-1.01h-.04a1.1 1.1 0 00-1.03 1.1c.15 17.1 10.14 33.55 22.64 44.58a.34.34 0 01.08.4zm-51.06 15.09 1.52 1.27a.48.47-77.7 00.76-.49q-2.87-10.81 4.17-20.03 2.32-3.04 7.36-13.07a.77.77 0 00-.79-1.11l-.25.03a2.2 2.2 11.2 00-1.65 1.1l-6.14 10.63a2.18 2.17-78.9 01-1.57 1.06 51.4 51.4 0 00-23.13 9.86q-4.77 3.62-9.26 5.6a1.2 1.19 60.7 00-.49 1.78l.03.05a1.6 1.59-29.4 001.95.54q3.37-1.5 7.22-4.4 9.37-7.06 21.75-10.52a.89.89 0 011.01 1.31l-1.91 3.31a3.08 3.07 12.5 01-2.39 1.52c-9.5.85-16.81 4.97-25.38 10.22q-6.12 3.74-13.01 10.23c-7.27 6.85-14 13.71-18.23 21.85a.6.6 28.7 00.22.74l.24.13a1.3 1.3 0 001.68-.34c8.85-11.85 16.01-20.31 25.83-27.41q3.49-2.53 8.94-5.8 8.58-5.13 19.72-7.26a.54.53-10.1 01.63.43l1.22 7.1a.86.8-42.7 01-.03.38l-.2.38a.74.73-56.3 00.18.91"/><path fill="#09111a" d="M539.21 137.47q-.75 1.69.19 2.45a.92.88-24.8 00.61.21q3.64-.11 5.65 1.07 4.92 2.88 7.28 7.77a1.21 1.2-26.1 001.62.55q9.1-4.57 18.37-.63-9.72-2.61-18.26 1.3a1.75 1.75 0 01-2.35-.93c-2.35-5.73-7.68-9.3-13.72-8.14a.93.93 0 01-.94-1.45z"/><path fill="#d97d05" d="M408.58 154.05a.45.45 0 00.63-.44c-.28-4.58 1.33-6.14 3.52-9.68q.41-.65 1.2-.43a.82.79-68.5 01.47 1.15c-2.06 4.04-4.56 7.29-2.23 11.85a.98.98 0 01-1.39 1.28q-6.39-4-13.77-3.43c-5.99.46-8.37 4.04-10.26 9.23a1.12 1.03 83.2 01-.36.5q-.39.3-.6.32a.93.84-88.4 01-.9-1.06 13.05 13.05 0 0110.54-10.98q6.51-1.24 13.15 1.69"/><path fill="#09111a" d="M573.47 151.26q7.75 5.57 8.4 15.33a1.7 1.68-34.5 01-.16.84q-1.27 2.71 2.18 4.18-1.48.11-2.33-.45-.88-.56-.65-2.12 1.2-8.1-4.72-14.57-1.9-2.08-4.19-2.47a.2.2 0 01-.07-.37q.68-.39 1.54-.37"/><path fill="#d97d05" d="M527.57 190.15a.24.24 0 01.44-.12l5.98 9.18a2.91 2.78-88.7 00.63.69q8.35 6.73 17.55 5.02c5.59-1.04 6.19-5.88 5.22-10.45a.72.71-89 01.87-.85l.48.12a1.09 1.06 81.3 01.66.5q1.06 1.86.97 4.01c-.31 7.81-6.82 10.24-13.54 9.46q-11.06-1.28-16.72-9.77a.8.79 60.6 00-.99-.28q-.21.1-.98.79c-2.79 2.54-6.91 2.85-10.6 1.76a.88.88 0 00-1.13.92c.42 4.49-6 2.68-8.18 1.54q-6.35-3.3-9.41-10.54a1.16 1.04 32.3 01-.1-.35l-.26-2.07a.55.54-8.1 00-.63-.47c-9.59 1.54-20.1-1.81-26.27-9.56a.86.86 0 01.16-1.23l.25-.17a.81.8 50.1 011.06.1q9 9.75 23.57 8.97c1.01-.06 2.28-.87 3.2-.86a.53.53 0 01.52.61q-.51 3.46 2.24 7.57 3.73 5.57 10.04 7.34a.8.79 11 001.01-.68q.21-1.94-.77-3.41a.91.91 0 011.15-1.33c4.34 2.07 13.85 3.82 14-3.56.02-1.05-.43-2-.42-2.88"/><path fill="#09111a" d="M435.49 237.54q-2.08-6.02-3.5-8.53c-4.23-7.49-11.33-13.6-18.15-18.06a.34.31 5.2 01-.12-.13l-.14-.28a.6.6 0 00-.69-.32l-10.75 2.37a1.78 1.58-63.6 00-.57.23q-.85.53-2.85 1.59-1.18.62-1.04-.13 2.68-2 3.69-2.2 9.52-1.95 16.32-4.65c4.34-1.72 9.13-4.43 10.26-9.34q.7-3.03 1.43-5.98a1.28 1.27-84 011.2-.98q13.76-.44 23.01-10.02a.25.24-47.7 01.33-.02l.24.2v.07q-5.32 6.92-14.47 9.23a1.05 1.04-7.1 00-.79 1.01v23.53a.52.51-70.2 01-.84.4l-11.91-9.93a2.5 2.5 0 00-3.05-.1q-3.89 2.83-8.63 3.78a.66.66 0 00-.23 1.2c8.6 5.59 15.81 12.39 20.07 21.49q1.21 2.58 1.18 5.57m-5.14-45.34a.3.3 0 00-.27.24l-2.11 8.4-.07.13-2.26 2.71a.3.3 0 00.05.45l11.85 9.88a.32.32 0 00.52-.25l-.3-22.11a.32.32 0 00-.35-.32z"/><path fill="#0047b6" d="m459.36 182.41 2.01 4.59q1.32.35 2.47-1.05a.64.63 49.8 011.04.09q4.39 7.5 13.41 10.23a3.14 2.95-35.4 00.95.13q5.1-.09 5.82.21a.43.43 0 01-.11.82q-.65.08-1.35 1.61a1.58 1.57-3.9 01-.63.72l-5.18 3.17-.06.04-14.7 10.67a3.11 3.02.8 00-.37.35q-2.04 2.28-4.05 3.22a.75.75 0 01-1.07-.67q-.09-15.6.34-30.79.02-.69-.65-2.33a.66.66 0 01.87-.85q.45.2 1.26-.16"/><rect width="1.76" height="40.1" x="-.88" y="-20.05" fill="#d97d05" rx=".27" transform="rotate(-1.2 10082 -21483.14)"/><path fill="#d97d05" d="M352.81 202.54q-4.79 1.29-5.79 1.48-11.56 2.2-19.61-3.85c-3.75-2.82-3.16-8.2-1.65-12.63q.41-1.21 1.37-.96a.74.74 0 01.56.82q-.21 1.62-.75 3.77c-.92 3.71.64 7.23 4.04 8.88 5.28 2.56 12.11 2.77 18.13 1.08q3.43-.96 6.04-1.23a.91.9-1.4 011 .95c-.19 3.53-.67 6.28 3.52 7.5 6.47 1.87 15.19 1.35 20.76-2.63q5.01-3.57 7.23-9.29a1.08 1.07-51 011.9-.2c2.13 3.28 4.78 3.77 9.32 4.99a5.52 5.5 51 001.77.19c6.73-.41 17.86-4.26 18.72-12.26a.94.94 0 011.81-.26q.75 1.85-.33 3.97c-2.73 5.36-8.62 8.49-14.68 10.24-5.75 1.66-11.5-.14-16.43-2.6a1 1 0 00-1.23.31q-10.11 14.22-28.04 10.12-7.36-1.68-7.05-7.9a.48.48 0 00-.61-.49"/><path fill="#0047b6" d="m430.35 192.2 7.06-.87a.32.32 0 01.35.32l.3 22.11a.32.32 0 01-.52.25l-11.85-9.88a.3.3 0 01-.05-.45l2.26-2.71.07-.13 2.11-8.4a.3.3 0 01.27-.24"/><path fill="#09111a" d="M495.15 207.33q-7.97 5.43-9.89 6.93-11.65 9.06-21.61 18.38-1.46 1.36-2.64 3.32a2.13 2.06-31.1 00-.31 1.16l.81 26.5a.94.94 0 001.37.81l25.06-12.92a.8.8 0 00.39-.91q-1.11-3.65-1.58-6.34-.62-3.49.87-7.36 2.65-6.81 10.41-7.21a3.59 3.55-68.2 002.28-.99c1.33-1.26 2.55-3.17 4.35-4.21q5.63-3.25 11.82.42a1.84 1.76 85.4 01.53.47l2.37 3.06a.83.83 0 001.14.16l2.19-1.59a.85.85 0 011.24.27q.66 1.17 1.98 1.26a1.54 1.53 31.7 00.91-.21q5.02-2.91 10.33-1.16 2.62.87 4.29 3.58-5.11-4.51-9.84-3.42-.88.2-5.75 2.27a1.04 1.03 60.1 01-1.24-.34l-.75-1.04a1.02 1.02 0 00-1.55-.12l-3.2 3.2a.29.29 0 01-.49-.21q.01-4.8-4.61-6.64-4.76-1.9-10.07 1.5a.39.18-64.9 00-.06.05l-3.26 3.38a2.36 2.32 16.7 01-1.29.68c-4.37.76-8.19 1.21-10.33 5.47-2.46 4.91-1.69 8.35-.24 13.9a6.27 6.11-69 00.74 1.72l1.8 2.88a2.62 2.61 38.1 01.27 2.18q-2.76 8.56.9 16.53c3.22 7.02 8.88 12.83 16.9 14.86q4.9 1.24 8.75-.27 1.32-.52.05-3.13a1 1 0 01.82-1.44l3.36-.23a1.71 1.68-58 00.54-.13q9.81-4.22 10.2-14.49a2.6 2.6 0 011.1-2.05c4.31-3.08 7.33-5.91 9.46-10.97q2.22-5.27 2.64-14.88.88 7.67-2.23 15.14-2.88 6.91-9.06 10.98a3 3-17 00-1.34 2.5q.02 6.58-5.51 11.39-3.67 3.18-6.59 3.33c-2.4.14-2.22 1.46-2.18 3.15a1.05 1.04 70 01-.38.83c-4.21 3.49-13.27.5-17.26-2.34q-10.34-7.38-12.32-19.89a.46.45 69.6 00-.69-.32q-1.59.98-3.12 2.38a3 3 8.3 01-.62.46q-12.41 7.25-21.15 15.69-1.55 1.49-1.69 4.69-.38 8.6.15 29.99.37 15.18.79 35.26c.21 10.27-.47 27.76.53 41.82q.39 5.42.66 14.2a4.12 4.04-54.7 00.15.94c.84 2.84.69 5.8 1.29 8.79q1.95 9.76 2.7 11.8 1.7 4.62 4.1 11.38.58 1.67 4.1 8.15 2.15 3.98 5.58 7.21 8.77 8.29 16.74 13.1c8.16 4.92 16.02 8.93 24.17 13.17 5.18 2.69 9.03 6.01 12.86 9.98q.79.82 5 6.3a2.27 2.26 71.1 001.79.88h41.35a1.31 1.3 85.5 001.28-1.51q-1.78-10.84-7.12-22.96-.38-.85-.21-1.67a1.68 1.66 4.9 011.61-1.34q2.51-.05 3.99.12a2.2 2.19 80.7 011.77 1.28q5.25 11.54 7.23 23.82a1.27 1.27 0 001.35 1.06c1.79-.14 2.97-.3 4.79.44q1.17.48 2.33-.16a1.93 1.9-54.5 011.25-.22l6.2 1a.5.39 38 00.19 0q3.72-.63 7.37.26a3.03 3 47.6 001.19.06q3.21-.44 7.1.31a5.35 5.26-44 001.99.02q3.16-.56 5.82.07a3.08 2.87 44.8 001.23.04q2.75-.48 4.46.02 2.96.87 5.25.44a.85.84 84.1 00.69-.86l-.16-5.49a1.73 1.73 0 012.73-1.47q4.6 3.27 7.48 8.36a3.59 3.46-68.4 01.35.85q1.78 6.33.91 13.02c-.7 5.44-3.98 13.3-9.12 15.68a1.72 1.72 0 01-2.44-1.56v-7.16a.51.5-7.2 00-.63-.48q-3.14.81-8.49.32-.62-.06-3.25.83-1.38.47-4.08-.55a1.39 1.34 43.3 00-1.02.01q-3.52 1.48-7.28.64a2.31 2.29 40.8 00-1.31.09q-2.72 1.01-4.52.91a2.74 2.71 58.5 01-.94-.23q-1.89-.85-2.89-.51-4.02 1.33-8.54.63-.83-.13-5.05.95a1.74 1.71 47.3 01-1.01-.05l-.19-.07a1.01 1-79.2 00-1.22.84q-1.62 11.42-6.47 22.9a3 3 0 01-3.49 1.74l-2.32-.58a2.22 2.22 0 01-1.48-3.08q5.41-11.85 6.52-23.76a.7.68-87.3 00-.68-.76h-31.67a.63.62 78.4 00-.57.87q4.62 10.74 8.7 17.4 1.89 3.08 10.39 12.84.46.53 4.64 3.73a1.59 1.51 11.8 01.54.78q.22.71.17.93a1.25 1.24 18.6 01-1.74.86q-14.4-6.58-26.37-17.8-8.71-8.15-13.24-18.98a.91.9-11 00-.82-.55q-25.82-.31-41.55.31-1.22.05-2.36-.66a1.45 1.45 0 00-2.16 1.59q1.68 6.67 6.68 18.62c2.96 7.07 7.31 11.5 12.82 17.2a1.07 1.03 56.1 01-.3 1.71q-.86.37-2.06-.26c-12.4-6.5-22.39-17.13-30.12-28.83q-2.62-3.97-5.88-10.3l-7.12-20.59a.8.8-9.7 00-.79-.55l-76.61 1.03a3.22 3.21-71.5 00-2.5 1.25l-14.67 19.04q-12.59 14.86-16.44 18.91-7 7.37-11.98 10.57-5.7 3.67-13.88 5.7-2.02.51-3.46 0a.49.49 0 01-.12-.86l6.97-4.99.02-.02c3.66-4.1 8.93-8.62 12.31-13.41q5.35-7.59 8.24-14.5.2-.47-.16-.81l4.21-9.65a.6.6 0 00-.54-.83l-99.64-.45a.4.4-1.5 01-.4-.37v-.02a.4.4 0 01.42-.43l100.17.43a1.06 1.05 14.2 00.93-.55l3.4-6.24a1.48 1.44 81.1 01.22-.31q1.57-1.72 2.57-3.74 4.36-5.22 5.49-6.49c10.23-11.5 21.79-18.7 37.79-28.21q7.48-4.45 15.18-14.73 1.18-1.58 2.66-4.9.11-.25 2.59-5.2a2.75 2.29 69.5 00.21-.6l.79-3.76a.2.2 0 01.13-.12q.29-.01.34-.26.85-4.24 1.39-9.52a5 5-31.9 01.25-1.07q.4-1.04.29-3.47a2.59 2.44 53.6 01.09-.74q.14-.54.16-.97.22-5.36.71-10 .4-3.75.54-9.99.36-16.96.56-38.82.01-1.77.55-3.99a3.57 3.45-38.8 00.11-.87q-.07-25.16.63-35.06.71-10.01.48-17.74-.09-2.84-1.47-4.47-.71-.84-2-2.54-8.05-10.55-19.48-17.67a.8.8 0 00-.99.15l-2.49 3a1.92 1.89 64.8 00-.44 1.25l.06 4a1.24.69-55.6 01-.02.21c-1.96 9.46-13.63 11.74-21.52 9.43q-3.18-.94-5.47-4.33-1.15-1.72-2.11-2.17-1.59-.74-3.06-.5c-7.54 1.25-15.3-2.06-20.41-7.3a1.46 1.45-56.8 01-.31-1.53q.38-1 1.34-1.97a.84.83 44.8 00-.01-1.2q-5.56-5.36-4.23-12.51a1.04.75-35.8 01.06-.18l2.18-5.03a1.9 1.9 0 00-.21-1.9l-1.7-2.32a1.19 1.18-35 01.3-1.69l4.1-2.88q6.91-4.84 15.31-3.81a1.2 1.2 0 001.33-1.07l.23-2.47a.9.9 0 01.66-.79q.89-.26 1.97.26a1.08 1.04 20.2 001.51-.67q1.47-6.11 6.26-9.29 2.76-1.83 6.85-2.22c4.65-.45 8-.45 12.12 2.18a2.31 2.18 87.5 01.67.65q2.25 3.42 7.6 6.04c9.13 4.45 7.02 17.27 2.83 24.54a.8.8 0 00.26 1.07l21.5 13.8a.69.69 0 001.06-.58q-.05-11.67-.04-22.19 0-2.82.8-5.4l.04 29.41a.4.39 16.4 01-.61.33l-23.23-14.91a.83.82 38.9 00-1.03.11l-3.03 3.02a.8.8 0 00-.18.85q1.1 2.95 1.19 5.85a2.5 2.5 0 001.17 2.06q13.13 8.33 22.26 21.15a5.4 5.38-64.1 011 2.9c.5 11.27-.93 25.83-.94 34.56q0 13.34-.52 24.25-.37 7.9-.62 38.95-.04 4.62-.59 10.58-.41 4.45-.82 10.59l-.18 2.41q-1.84 23.73-18.31 37.87c-5.7 4.9-12.25 8.31-19.64 12.84-10.96 6.71-22.15 15.87-29.08 26.64q-4.35 6.77-6.15 10.88-3.66 8.35-5.42 12.1-9.13 19.54-26.47 31.82a.42.42 0 00.32.76c11.95-2.27 19.78-8.34 28.13-17.62q14.22-15.79 19.46-23.28 4.65-6.66 10.57-13.69.23-.26 4.49-4.26 9.27-8.71 19.3-11.61c5.11-1.47 9.26-3.11 13.81-2.43a.93.92 16.6 01.71 1.3c-1.81 3.99-2.43 9.73-2.87 14.7a.32.32 0 00.32.35h17.93a1.06 1.05-86.3 001.04-.92c1.06-7.98 3.54-17.48 9.26-23.11a1.6 1.6 0 011.85-.25q1.92 1.06 3.02 2.31 8.98 10.22 11.65 19.47 2.93 10.19 7.37 21.96c4.35 11.52 12.34 21.62 21.4 30.29q5.2 4.98 12.39 9.33 1.79 1.07 3.65 1.27a.32.32 0 00.26-.55q-2.37-2.41-7.76-8.61-2.72-3.12-4.07-6.18-3.7-8.37-6.62-16.74-1.9-5.42-3.56-15.04-1.55-8.98-3.33-15.48c-1.51-5.5-3.87-10.42-5.71-15.65a.73.73 0 01.7-.97c6.54.08 13.87 3.13 19.21 6.17q9.45 5.37 18.46 11.8a3.64 3.63-27.4 002.09.66h21.99a.3.3-15.6 00.25-.43q-6.81-11.13-18.64-16.92c-14.48-7.1-26.58-13.88-37.85-23.83-5.88-5.18-8.44-9.7-11.6-17.46q-6.66-16.32-8.11-32.58a384 384 0 01-1.62-29.61c-.19-25.03.01-37.41-.57-57.15-.47-15.81-.63-23.3-.31-35.95.16-6.07 21.68-19.4 27.44-23.05a1.55 1.52-6.1 00.6-.73c.89-2.26.3-4.54 1.51-6.87a1.11 1.08 50.6 00.07-.84q-.69-2.18-1.91-3.22a.81.8 51.6 00-.91-.11l-26.69 13.75a.3.3 0 01-.42-.24q-1.06-16.09-1.05-28.64 0-1.95 1.68-3.58 7.83-7.62 20.43-17.82 6.64-5.38 13.02-8.3M371.9 245.95l.59 2.96a.6.6 0 01-.65.7q-4.33-.54-9.79.52c-4.58.89-7.7 2.99-11.08 6.07a.75.75 0 00.1 1.19c3.41 2.17 1.18 5.63-.17 8.64a3.11 2.98 62.2 00-.24.84q-1.01 8.47 5.56 12.6a.82.82 0 01-.38 1.51q-1.57.09-2.32 1.3a.8.8 0 00.12.97q4.1 3.91 9.38 6.12c3.76 1.57 9.07.96 12.4.85a3.13 3.11 71.4 012.64 1.32c2.72 3.87 3.92 5.87 9.16 6.54 7.24.94 17.61-2.12 17.67-10.83q.02-2.95.05-3.09a3.8 3.77 72.7 01.91-1.75l1.59-1.72a1.04 1.01 72 00.27-.55q.84-4.84-1.19-8.87a.83.83 0 01.31-1.09c6.46-3.94 9.74-15.26 7.33-22.08-1.58-4.48-5-6.01-9.36-8.17a.72.54 0 01-.2-.15l-4.12-4.57a.77.57 2.9 00-.17-.14c-3.4-2.24-8.17-2.35-12.04-1.75q-10.24 1.59-12.03 11.93a.93.93 0 01-1.34.67l-1.77-.9a.86.86 0 00-1.23.93m206.89 229.03q.15 1.04.31 1.43 5.08 12.12 7.06 22.88 4.63 25.15-6.13 48.87a1.26 1.25-70.8 00.84 1.74l2.9.73a1.8 1.8 0 002.08-.99q4.77-10.35 6.59-24.38 1.27-9.73.88-13.51-.57-5.62-.83-8.34c-.9-9.45-3.61-18.5-7.41-27.85a2.18 2.17 78.1 00-2.07-1.35l-3.67.11a.59.57 85.5 00-.55.66m-128.56 4.08q-.75-.26-1.67-1.14a.9.9 0 00-1.2-.04q-2.73 2.36-4.12 5.43-3.67 8.18-5.15 17.05a.75.74-85.8 00.75.87l23.68-.72a.48.47-9.4 00.44-.61c-1.76-5.78-3.94-10.48-7.72-15.19l-4.17-5.07a1.89 1.86 79.2 00-.84-.58m61.56 22.6-26.53-.08a.35.35-5.4 00-.35.41l1.88 9.43a1.2 1.2 0 001.2.99h98.17a.57.57 86.4 00.56-.64l-1.18-9.68a.68.68 0 00-.88-.56l-.68.21a3.71 3.69-54.1 01-1.17.19l-67.05-.3q-10.03-8.03-21.1-13.75a53 53 0 00-12.78-4.5q-1.63-.39-2.65.06a1.17 1.17 0 00-.59 1.57q3.44 7.3 5.58 15.22a.8.8 0 00.76.58h27.28a.35.35 0 01.35.37q-.03.51-.82.48m-125.26-.09h30.31a.76.76 0 00.76-.73q.3-7.02 2.59-13.81a1.3 1.3 0 00-1.37-1.71q-9.02.94-17.48 4.74-8.64 3.89-15.03 11a.31.3-68.7 00.22.51m258.95-7.04a.59.59 0 00-.91.49v36.03a.66.66 0 001.02.55c7.69-4.91 10.13-14.7 8.97-23.36-.87-6.42-3.95-10.3-9.08-13.71m-50.89 17.36 4.63-9.05a1.35 1.35 0 00-1.07-1.96l-4.12-.4a.93.93 0 00-1.01 1.04l1.26 10.32a.16.16 0 00.31.05m13.04-10.21q-2.69-1.38-6.65-.76a1.1 1.1 0 00-.86.74q-1.59 5.22-5.28 10.87a2.36 2.31 64.6 00-.37 1.08l-.93 9.69a1.75 1.75 0 002.08 1.89l3.5-.69a.9.9 0 00.65-.57l7.32-21.77a.14.11-87.8 01.07-.08l.46-.21a.11.11-42.8 00.01-.19m1.71-.15a1.8 1.8 0 00-1.64 1.22l-6.56 19.52a1.8 1.8 0 001.75 2.36l3.82-.11a1.8 1.8 0 001.62-1.15l7.54-19.55a1.8 1.8 0 00-1.73-2.44zm7.46 1.32q-.41 2.15-.67 2.76-3.51 8.06-6.06 14.95a2.8 2.8 0 002.64 3.78H614a4.9 4.9 9.2 004.65-3.34l5.92-17.58a.84.84 0 00-.55-1.07q-3.09-.93-6.54-.2a.89.87 89.6 00-.68.7m9.57-.66a.8.8 0 00-.74.55l-6.72 19.99a.8.8 0 00.78 1.05l4.92-.15a.8.8 0 00.74-.55l6.72-19.98a.8.8 0 00-.78-1.06zm7.96.18a1.9 1.9 0 00-1.59 1.3l-5.79 17.23a1.92 1.92 0 002.05 2.52l3.92-.48a1.9 1.9 0 001.63-1.44l4.27-17.05a1.92 1.92 0 00-2.1-2.37zm9.36 1.38a.8.8 0 00-.81-.79l-2.24.07a.8.8 0 00-.75.6l-4.52 18.05a.8.8 0 00.79.98l6.76-.21a.8.8 0 00.77-.79zm-56.79 9.83a.34.34 0 00-.33-.37H487.8a.34.34 0 00-.33.41l1.71 8.57a.34.34 0 00.33.27h96.23a.34.34 0 00.34-.31zm-50.09 10.23q4.63 10.72 13.06 18.51 12.02 11.1 25.89 17.63a.74.74 0 001.05-.8q-.02-.13-.48-.5c-11.53-9.33-18.32-21.05-23.91-34.75a1.06 1.05-11.2 00-.98-.65h-14.25a.4.4-11.4 00-.38.56"/><path fill="#d97d05" d="m454.71 270.62-.29.01a.56.56 0 01-.58-.55l-1.11-36.43a3.5 3.5 0 01.93-2.48q3.44-3.73 10.25-10.24 3.71-3.55 7.37-5.54a.6.6 0 01.82.81c-1.05 1.95-3.62 3.86-5.75 5.51-4.3 3.36-7.76 7.23-11.1 10.4a1.87 1.85-22.6 00-.57 1.36l.49 36.67a.47.47 0 01-.46.48"/><path fill="#fcc916" d="M541.46 230.75q1.59 1.44 2.53 4.28a2.47 2.46 36.8 01.12.82q-.02 1.11.36 2.07a1.61 1.6 6.7 00.59.74q.7.49 1.25 1.35-.42 9.61-2.64 14.88c-2.13 5.06-5.15 7.89-9.46 10.97a2.6 2.6 0 00-1.1 2.05q-.39 10.27-10.2 14.49a1.71 1.68-58 01-.54.13l-3.36.23a1 1 0 00-.82 1.44q1.27 2.61-.05 3.13-3.85 1.51-8.75.27c-8.02-2.03-13.68-7.84-16.9-14.86q-3.66-7.97-.9-16.53a2.62 2.61 38.1 00-.27-2.18l-1.8-2.88a6.27 6.11-69 01-.74-1.72c-1.45-5.55-2.22-8.99.24-13.9 2.14-4.26 5.96-4.71 10.33-5.47a2.36 2.32 16.7 001.29-.68l3.26-3.38a.39.18-64.9 01.06-.05q5.31-3.4 10.07-1.5 4.62 1.84 4.61 6.64a.29.29 0 00.49.21l3.2-3.2a1.02 1.02 0 011.55.12l.75 1.04a1.04 1.03 60.1 001.24.34q4.87-2.07 5.75-2.27 4.73-1.09 9.84 3.42m-24.9 44.8a.41.41 0 01.2-.71c5.89-1.07 12.33-6.19 12.15-12.77a1.86 1.84 77.9 011.12-1.75c5.89-2.53 8.23-8.63 8.08-14.79a1.18 1.17 3.9 00-.98-1.12l-.04-.01a.89.88-84.9 00-1.02.86c-.08 4.17-.35 6.18-3.1 10.23q-1.7 2.52-5.36 2.65a1.1 1.1 0 00-1.03 1.19q.81 7.73-6.1 11.75-3.09 1.8-6.7 1.01a1.01 1.01 0 00-1.17 1.33q.74 2.03 1.43 2.2a.77.76 41.6 01.09 1.46q-1.57.58-6.03-.34c-5.36-1.1-8.96-5.32-9.63-10.58a1.72 1.71 6.5 00-1.12-1.4l-.16-.06a.68.68 0 00-.91.71c1.11 10.48 9.43 15.44 19.5 13.76a1.18 1.17 13.1 00.75-.46q1.42-1.89.03-3.16m-144.66-29.6a.86.86 0 011.23-.93l1.77.9a.93.93 0 001.34-.67q1.79-10.34 12.03-11.93c3.87-.6 8.64-.49 12.04 1.75a.77.57 2.9 01.17.14l4.12 4.57a.72.54 0 00.2.15c4.36 2.16 7.78 3.69 9.36 8.17 2.41 6.82-.87 18.14-7.33 22.08a.83.83 0 00-.31 1.09q2.03 4.03 1.19 8.87a1.04 1.01 72 01-.27.55l-1.59 1.72a3.8 3.77 72.7 00-.91 1.75q-.03.14-.05 3.09c-.06 8.71-10.43 11.77-17.67 10.83-5.24-.67-6.44-2.67-9.16-6.54a3.13 3.11 71.4 00-2.64-1.32c-3.33.11-8.64.72-12.4-.85q-5.28-2.21-9.38-6.12a.8.8 0 01-.12-.97q.75-1.21 2.32-1.3a.82.82 0 00.38-1.51q-6.57-4.13-5.56-12.6a3.11 2.98 62.2 01.24-.84c1.35-3.01 3.58-6.47.17-8.64a.75.75 0 01-.1-1.19c3.38-3.08 6.5-5.18 11.08-6.07q5.46-1.06 9.79-.52a.6.6 0 00.65-.7zm-8.56 11.5q-2.2.49-4 3.12c-3.74 5.47-1.35 13.17 4.19 16.53 1.57.95 1.81 1.58 2.01 3.29a1.46 1.42-75.1 00.56.99q4.19 3.26 9.9 4.8 6.53 1.77 10.15-3.07a.85.85 0 00-.18-1.2l-.02-.02a1.06 1.05 42.1 00-1.32.06q-3.51 3.12-7.71 2.18-3.9-.87-8.27-3.62a.81.8-40.3 01.12-1.42q1.09-.46 1.55-1.62a.8.8 0 00-.5-1.04c-3.14-.99-5.69-.24-7.83-3.59q-5.2-8.15 1.71-13.78.67-.54.2-1.33-.21-.36-.56-.28m31.97 30.81c-3.37 2.32-7.3 1.88-10.53-.58a.59.58 25.9 00-.93.31l-.05.21a1.3 1.3 0 00.45 1.38c3.72 3.07 8.29 2.95 12.16.28s5.61-6.91 4.06-11.47a1.3 1.3 0 00-1.13-.91l-.21-.03a.59.58 84.9 00-.63.76c1.16 3.89.18 7.72-3.19 10.05"/><path fill="#d97d05" d="M516.56 275.55q1.39 1.27-.03 3.16a1.18 1.17 13.1 01-.75.46c-10.07 1.68-18.39-3.28-19.5-13.76a.68.68 0 01.91-.71l.16.06a1.72 1.71 6.5 011.12 1.4c.67 5.26 4.27 9.48 9.63 10.58q4.46.92 6.03.34a.77.76 41.6 00-.09-1.46q-.69-.17-1.43-2.2a1.01 1.01 0 011.17-1.33q3.61.79 6.7-1.01 6.91-4.02 6.1-11.75a1.1 1.1 0 011.03-1.19q3.66-.13 5.36-2.65c2.75-4.05 3.02-6.06 3.1-10.23a.89.88-84.9 011.02-.86l.04.01a1.18 1.17 3.9 01.98 1.12c.15 6.16-2.19 12.26-8.08 14.79a1.86 1.84 77.9 00-1.12 1.75c.18 6.58-6.26 11.7-12.15 12.77a.41.41 0 00-.2.71m-153.22-18.1q.35-.08.56.28.47.79-.2 1.33-6.91 5.63-1.71 13.78c2.14 3.35 4.69 2.6 7.83 3.59a.8.8 0 01.5 1.04q-.46 1.16-1.55 1.62a.81.8-40.3 00-.12 1.42q4.37 2.75 8.27 3.62 4.2.94 7.71-2.18a1.06 1.05 42.1 011.32-.06l.02.02a.85.85 0 01.18 1.2q-3.62 4.84-10.15 3.07-5.71-1.54-9.9-4.8a1.46 1.42-75.1 01-.56-.99c-.2-1.71-.44-2.34-2.01-3.29-5.54-3.36-7.93-11.06-4.19-16.53q1.8-2.63 4-3.12m107.12 13.5q-.2 1.52-1.81 2.97-6.1 5.53-12.52 11.08a3 3 69.2 00-1.07 2.38l.38 27.79a.74.74 0 01-.73.75h-.29a.6.6 0 01-.63-.61l-.39-29.22a1.65 1.63-23.5 01.47-1.17q7.78-7.99 16.1-14.26a.31.31 0 01.49.29m-74.05 18.91c-3.87 2.67-8.44 2.79-12.16-.28a1.3 1.3 0 01-.45-1.38l.05-.21a.59.58 25.9 01.93-.31c3.23 2.46 7.16 2.9 10.53.58 3.37-2.33 4.35-6.16 3.19-10.05a.59.58 84.9 01.63-.76l.21.03a1.3 1.3 0 011.13.91c1.55 4.56-.19 8.8-4.06 11.47m61.97 36.06.12.09a.74.74 0 01.03 1.16c-4.98 4.17-4.58 15.17-3.83 22.64q1.09 10.77 1.01 18.18a.68.68 0 01-.81.66l-.03-.01a1.04 1.04 0 01-.84-.94q-1.65-20.08-1.43-26.45.26-7.38 1.56-11.12.63-1.8 2.86-4.1a1.04 1.03 40.3 011.36-.11m-.93 87.68q1.01 1.21 1.06 1.73 1.2 13.84 4.82 25.32.62 1.96 1.85 4.07 5.04 8.62 14.47 16.88.75.66.54 1.79a.52.51 17.5 01-.72.37q-2.52-1.17-4.52-3.19c-6.19-6.24-12.78-12.97-14.95-21.87q-3.32-13.56-3.31-22.42.01-2.22-.37-3.5-.57-1.94-.67-3.08-1.28-15-.35-30.25a.45.44-60.6 01.81-.23q.4.58.71 1.9a1.95.94-76.7 01.03.23l.41 31.72a.84.83-65 00.19.53"/><path fill="#d97d05" d="M473.84 470.45c-12.5-11.03-22.49-27.48-22.64-44.58a1.1 1.1 0 011.03-1.1h.04a1.12 1.11 85.7 011.17 1.01q.88 9.09 2.43 13.13 2.83 7.34 4.85 11.37 4.97 9.94 15.96 19.25c3.62 3.08 8.75 5.01 13.06 7.67 5.85 3.6 12.77 6.24 18.59 9.24q1.69.86 2.91 2.3.51.58.28 1.03a1.11 1.09 29.5 01-1.58.42q-6.03-3.87-14.02-6.69l-.1-.04-12.99-6.64a2.84 2.82-26.8 00-.8-.26c-6.68-.98-12.14-4.13-17.88-7.66a.29.29 0 00-.39.4c5.33 8.27 8.75 16.73 12.56 27q2.41 6.5 4.19 13.69l3.77 15.26a.64.64 0 01-.68.79l-.03-.01a1.28 1.27-5.3 01-1.11-.91q-6.16-21.04-8.24-27.58-2.64-8.31-9.83-23-1.44-2.94-3.78-6.23c-3.42-4.79-5.07-7.92-9.92-9.73a.83.82 28.9 01-.37-1.27l.08-.1a1.45 1.45 0 011.67-.47c4.15 1.6 5.81 3.82 8.74 7.22a1.8 1.73-4.5 00.5.41l12.08 6.83a.3.3 0 00.41-.12l.12-.23a.34.34 0 00-.08-.4m-51.28 14.81.2-.38a.86.8-42.7 00.03-.38l-1.22-7.1a.54.53-10.1 00-.63-.43q-11.14 2.13-19.72 7.26-5.45 3.27-8.94 5.8c-9.82 7.1-16.98 15.56-25.83 27.41a1.3 1.3 0 01-1.68.34l-.24-.13a.6.6 28.7 01-.22-.74c4.23-8.14 10.96-15 18.23-21.85q6.89-6.49 13.01-10.23c8.57-5.25 15.88-9.37 25.38-10.22a3.08 3.07 12.5 002.39-1.52l1.91-3.31a.89.89 0 00-1.01-1.31q-12.38 3.46-21.75 10.52-3.85 2.9-7.22 4.4a1.6 1.59-29.4 01-1.95-.54l-.03-.05a1.2 1.19 60.7 01.49-1.78q4.49-1.98 9.26-5.6a51.4 51.4 0 0123.13-9.86 2.18 2.17-78.9 001.57-1.06l6.14-10.63a2.2 2.2 11.2 011.65-1.1l.25-.03a.77.77 0 01.79 1.11q-5.04 10.03-7.36 13.07-7.04 9.22-4.17 20.03a.48.47-77.7 01-.76.49l-1.52-1.27a.74.73-56.3 01-.18-.91"/><path fill="#d0ccc3" d="M578.79 474.98a.59.57 85.5 01.55-.66l3.67-.11a2.18 2.17 78.1 012.07 1.35c3.8 9.35 6.51 18.4 7.41 27.85q.26 2.72.83 8.34.39 3.78-.88 13.51-1.82 14.03-6.59 24.38a1.8 1.8 0 01-2.08.99l-2.9-.73a1.26 1.25-70.8 01-.84-1.74q10.76-23.72 6.13-48.87-1.98-10.76-7.06-22.88-.16-.39-.31-1.43"/><path fill="#0047b6" d="m451.07 479.64 4.17 5.07c3.78 4.71 5.96 9.41 7.72 15.19a.48.47-9.4 01-.44.61l-23.68.72a.75.74-85.8 01-.75-.87q1.48-8.87 5.15-17.05 1.39-3.07 4.12-5.43a.9.9 0 011.2.04q.92.88 1.67 1.14a1.89 1.86 79.2 01.84.58m64.69 21.99q-2.22.38-3.97.03.79.03.82-.48a.35.35 0 00-.35-.37h-27.28a.8.8 0 01-.76-.58q-2.14-7.92-5.58-15.22a1.17 1.17 0 01.59-1.57q1.02-.45 2.65-.06a53 53 0 0112.78 4.5q11.07 5.72 21.1 13.75m-129.23-.06a.31.3-68.7 01-.22-.51q6.39-7.11 15.03-11 8.46-3.8 17.48-4.74a1.3 1.3 0 011.37 1.71q-2.29 6.79-2.59 13.81a.76.76 0 01-.76.73z"/><path fill="#d0ccc3" d="M645.48 494.53c5.13 3.41 8.21 7.29 9.08 13.71 1.16 8.66-1.28 18.45-8.97 23.36a.66.66 0 01-1.02-.55v-36.03a.59.59 0 01.91-.49"/><path fill="#09111a" d="M360.21 500.85q-38.23.84-76.45 1.6-5.83.12-10.53 1.28-11.87 2.95-22.73 8.12a.43.43 0 000 .77q11.88 5.74 23.74 8.79 4.39 1.12 12.64 1.28 30.72.6 61.41.74.13.18.12.3-.02.48-.51.49-19.72.4-38.18-.37c-10.62-.44-14.76-.4-24.89-.44q-4.57-.02-8.1-.77c-8.81-1.87-16.66-4.89-25.64-8.77q-.59-.26-1.18-.77a1.29 1.28 53.4 01.31-2.14q8.39-3.83 18.86-7.02c3.76-1.15 6.72-1.37 10.19-2.03q1.4-.27 4.12-.4c10.02-.48 23.86-.26 35.47-.64q16.39-.53 33.75-.24c2.11.04 5.49-.76 8.5 0q-.48.06-.9.22"/><path fill="#d0ccc3" d="m594.28 511.84-1.26-10.32a.93.93 0 011.01-1.04l4.12.4a1.35 1.35 0 011.07 1.96l-4.63 9.05a.16.16 0 01-.31-.05m13.34-9.97-.46.21a.14.11-87.8 00-.07.08l-7.32 21.77a.9.9 0 01-.65.57l-3.5.69a1.75 1.75 0 01-2.08-1.89l.93-9.69a2.36 2.31 64.6 01.37-1.08q3.69-5.65 5.28-10.87a1.1 1.1 0 01.86-.74q3.96-.62 6.65.76a.11.11-42.8 01-.01.19m-247.41-1.02q.65.06 1.34.43-1 2.02-2.57 3.74a1.48 1.44 81.1 00-.22.31l-3.4 6.24a1.06 1.05 14.2 01-.93.55l-100.17-.43a.4.4 0 00-.42.43v.02a.4.4-1.5 00.4.37l99.64.45a.6.6 0 01.54.83l-4.21 9.65q-1.13-.18-1.92-.01-30.69-.14-61.41-.74-8.25-.16-12.64-1.28-11.86-3.05-23.74-8.79a.43.43 0 010-.77q10.86-5.17 22.73-8.12 4.7-1.16 10.53-1.28 38.22-.76 76.45-1.6m110.19 21.82q-.63.29-1.12.17l-99.1.56q-1.09-.25-1.47-.55l14.67-19.04a3.22 3.21-71.5 012.5-1.25l76.61-1.03a.8.8-9.7 01.79.55zm-5.02-10.42a.5.5 0 00-.48-.48l-87.08.16a.5.5 0 00-.48.48v.04a.5.5 0 00.48.48l87.08-.16a.5.5 0 00.48-.48zm143.96-10.72 4.8-.15a1.8 1.8 0 011.73 2.44l-7.54 19.55a1.8 1.8 0 01-1.62 1.15l-3.82.11a1.8 1.8 0 01-1.75-2.36l6.56-19.52a1.8 1.8 0 011.64-1.22m-97.55.13q1.75.35 3.97-.03l67.05.3a3.71 3.69-54.1 001.17-.19l.68-.21a.68.68 0 01.88.56l1.18 9.68a.57.57 86.4 01-.56.64h-98.17a1.2 1.2 0 01-1.2-.99l-1.88-9.43a.35.35-5.4 01.35-.41z"/><path fill="#d0ccc3" d="M617.48 502.15q3.45-.73 6.54.2a.84.84 0 01.55 1.07L618.65 521a4.9 4.9 9.2 01-4.65 3.34h-1.29a2.8 2.8 0 01-2.64-3.78q2.55-6.89 6.06-14.95.26-.61.67-2.76a.89.87 89.6 01.68-.7m8.89.04 4.92-.15a.8.8 0 01.78 1.06l-6.72 19.98a.8.8 0 01-.74.55l-4.92.15a.8.8 0 01-.78-1.05l6.72-19.99a.8.8 0 01.74-.55m7.96.18 2.39-.29a1.92 1.92 0 012.1 2.37l-4.27 17.05a1.9 1.9 0 01-1.63 1.44l-3.92.48a1.92 1.92 0 01-2.05-2.52l5.79-17.23a1.9 1.9 0 011.59-1.3m9.36 1.38v17.91a.8.8 0 01-.77.79l-6.76.21a.8.8 0 01-.79-.98l4.52-18.05a.8.8 0 01.75-.6l2.24-.07a.8.8 0 01.81.79"/><rect width="88.04" height="1" x="-44.02" y="-.5" fill="#09111a" rx=".48" transform="rotate(-.1 293765.53 -241165.26)"/><path fill="#d0ccc3" d="m586.9 513.58-.82 8.57a.34.34 0 01-.34.31h-96.23a.34.34 0 01-.33-.27l-1.71-8.57a.34.34 0 01.33-.41h98.77a.34.34 0 01.33.37"/><path fill="#09111a" d="M469.28 522.84q.53.26.16.55a.28.26 25.4 01-.16.05l-36.18.14a.95.92-77.7 00-.85.56c-3.47 7.92-7.99 16.24-13.94 21.18q-4.62 3.84-8.8 6.98c-4.03 3.04-6.58 6.16-10.18 9.9a.61.59-59 01-.61.16l-.25-.09q4.51-5.27 7.28-7.77c5.08-4.57 13.93-9.92 18.47-16.77q4.14-6.25 7.24-13.52a.4.4 0 00-.36-.55l-14.31.2a1.42 1.41-80.6 00-1.32.95c-3.71 10.55-7.84 16.08-16.04 29.86q-2 3.36-2.13 7.67.29.04-.01.18a.4.4 0 01-.53-.2q-.43-1.06.05-2.5 1.53-4.61 2.33-5.94 8.98-15.09 10.7-18.03 3.15-5.4 4.75-11.14a.94.94 0 00-.9-1.19q-12.15-.05-20.59.07l-9.67.56q-6.69.38-13.25-.75z"/><path fill="#fcc916" d="M536.81 523.81a.4.4-11.4 01.38-.56h14.25a1.06 1.05-11.2 01.98.65c5.59 13.7 12.38 25.42 23.91 34.75q.46.37.48.5a.74.74 0 01-1.05.8q-13.87-6.53-25.89-17.63-8.43-7.79-13.06-18.51m-138.34 38.46q-.38.2-1.17.07.13-4.31 2.13-7.67c8.2-13.78 12.33-19.31 16.04-29.86a1.42 1.41-80.6 011.32-.95l14.31-.2a.4.4 0 01.36.55q-3.1 7.27-7.24 13.52c-4.54 6.85-13.39 12.2-18.47 16.77q-2.77 2.5-7.28 7.77"/></svg>