<svg xmlns="http://www.w3.org/2000/svg" xml:space="preserve" id="svg2" fill-rule="evenodd" viewBox="0 0 49.74 33.16" xmlns:xlink="http://www.w3.org/1999/xlink"><defs id="defs4"><style id="style6" type="text/css">.str0{stroke:#2b2a29;stroke-width:.02}.fil3{fill:#00f}.fil10{fill:#1718a9}.fil1{fill:#4d4b4c}.fil6{fill:#81100d}.fil7{fill:#a7a5a3}.fil12{fill:#e6e6e6}.fil5{fill:#edcf05}.fil2{fill:#fefe00}.fil4{fill:#fefefe}.fil0{fill:red}.fil11{fill:#ff8000}</style></defs><g id="Слой_x0020_1" transform="translate(14.37 1.73)"><g id="__x0023_ff0000ff"><path id="_315032896" fill="red" d="M-14.37-1.73h49.74v15.27c-6.19.02-12.38-.02-18.57.02h-.47c-.32-.96-.66-1.94-1.2-2.82-.16-.3-.54-.14-.82-.18-.19-.02-.41 0-.5.2-.5.88-.89 1.84-1.21 2.8q-.36.03-.72 0c.08-.38.23-.75.28-1.14-.34-.02-.58-.25-.88-.37l.13-.54c-.25-.08-.52-.09-.77-.19-.33-.14-.4-.53-.65-.76-.53-.54-1.21-.9-1.87-1.27-.1-.05-.22-.13-.31-.03l-1.13.99c-.42.26-.32.87-.75 1.13-.28.26-.8-.01-.99.38-.11.25-.5.45-.33.76.14.34.3.69.36 1.05l-8.06.02-11.28-.01zM10.3 1.24l.06.34-.4-.06q-.02.18-.01.34l.42-.03c.06.35-.41.4-.42.71 0 .14.1.25.16.36q-.18 0-.36-.06c.03-.4-.48-.52-.7-.22a.4.4 0 00-.63.12c-.25-.13-.57 0-.55.31-.23.05-.37.27-.2.47-.2.1-.25.3-.1.46a.5.5 0 00-.1.34l.1.06h.04c-.08.2 0 .45.26.43-.04.1-.08.25.06.3.45.18.56.7.74 1.09 1.05.3 2.17.24 3.24.1.7.03.53-.93 1.1-1.19.12-.06.09-.2.05-.3.22 0 .36-.17.26-.38.14-.12.18-.3.04-.45.14-.16.1-.36-.1-.46.17-.2.03-.43-.2-.47.02-.3-.3-.43-.55-.3a.4.4 0 00-.64-.12c-.2-.32-.76-.19-.69.22l-.29.06.07-.14.02-.02h.04c.26-.44-.41-.53-.36-.92q.2 0 .4.03v-.34l-.4.06.04-.33zM-3.78 13.3c-.06.1.12 0 0 0" class="fil0"/><path id="_315034576" fill="red" d="M8.4 3.89c.08-.59.84-.68 1.29-.5q.1.57.13 1.15-.38.16-.7.42c-.57.05-.73-.62-.72-1.07" class="fil0"/><path id="_315034912" fill="red" d="M11.3 3.37c.45-.12 1.17-.1 1.29.47.05.45-.14 1.17-.7 1.12-.24-.15-.46-.32-.71-.42 0-.4.08-.78.12-1.17" class="fil0"/></g><g id="__x0023_4d4b4cff"><path id="_315035200" fill="#4d4b4c" d="M10.3 1.24h.4l-.03.34.4-.06v.34l-.4-.03c-.06.4.61.48.35.92h-.04c-.3-.08-.62-.05-.92-.03.19.3.66.27.9.05l-.07.14.3-.06c-.08-.4.48-.54.68-.22.2-.17.51-.13.64.11.25-.12.57 0 .55.31.23.04.37.27.2.47.2.1.24.3.1.46.14.15.1.33-.04.45.1.2-.04.38-.26.38.04.1.07.24-.05.3-.57.26-.4 1.22-1.1 1.2-1.07.13-2.2.19-3.24-.11-.18-.39-.3-.91-.74-1.1-.14-.04-.1-.2-.06-.3-.26.03-.34-.21-.26-.42.16.02.43-.05.33-.26-.17-.26-.6.01-.37.26l-.1-.06a.5.5 0 01.1-.34c-.15-.15-.1-.37.1-.46-.17-.2-.03-.42.2-.47-.02-.3.3-.44.55-.3.12-.25.43-.29.64-.13.21-.3.72-.18.69.22l.36.06c-.06-.11-.16-.22-.16-.36.01-.32.48-.36.41-.71q-.2 0-.41.03-.01-.16.02-.34.2.05.4.06zm.07.05.04.33q-.2 0-.4-.03v.22l.41-.04-.05.34.28-.01-.04-.33.4.04v-.22l-.4.03.03-.32zm.02.86-.01.3-.38.01v.19h.96c.1 0 .07-.13.04-.2h-.35l-.02-.3zm.31.03v.23h.28q-.08-.17-.28-.23m-.67.22h.3v-.2c-.14 0-.23.1-.3.2m-.75.11c-.4.14 0 .63.29.4.3-.16-.04-.54-.3-.4m2.13 0c-.37.16.01.61.29.4.31-.15-.04-.56-.3-.4m-2.75.08c-.36.13.01.59.28.38.29-.16-.02-.54-.28-.38m3.42-.01c-.38.09-.06.58.23.4.31-.1.04-.53-.23-.4m-3.98.18c-.35.15.04.57.28.36.26-.17-.06-.5-.28-.36m4.55 0c-.36.1-.04.56.23.38.29-.13.02-.52-.23-.38m-1.46.12-.05.23c.31-.04.62-.08.94-.04l-.23-.19c-.2.17-.45.11-.66 0m-2.3.2c.33-.06.67-.01 1 .03l-.02-.22c-.25 0-.5.23-.74 0zm1.06-.14q.07.89.22 1.76l.1-.03q-.07-.2.08-.37c-.13-.12-.14-.3.01-.42-.14-.11-.14-.29-.02-.42-.15-.13-.12-.41.11-.43.27-.08.46.26.23.43.13.12.14.3 0 .42.14.12.14.3 0 .41q.16.17.07.38l.14.03c.06-.59.16-1.17.2-1.76q-.57.1-1.14 0m-1.4.08a.5.5 0 01-.34.21.34.34 0 01-.21.35c.1.15.09.33-.08.42q.16.16.07.38.15.15.1.35c.2.05.35.22.18.39l.25-.03c-.22-.4-.47-.84-.35-1.3.06-.36.36-.61.7-.7zm3.59.06c.47.1.79.53.76 1q-.06.36-.2.7l.18-.04a.4.4 0 01.1-.36.3.3 0 01.08-.4l-.15-.06q0-.18.06-.34a.3.3 0 01-.21-.35.5.5 0 01-.35-.22zm-1.71 0c-.3.1-.02.49.2.33.24-.12 0-.44-.2-.33m-2.07.38c-.35.5-.1 1.17.23 1.62.19.09.42.1.62.17q.37-.4.89-.52c-.05-.52-.14-1.03-.18-1.55-.51-.13-1.2-.19-1.56.28m2.76-.28-.18 1.55q.51.13.89.51c.2-.06.4-.08.6-.15.35-.44.6-1.12.25-1.63-.38-.47-1.03-.38-1.56-.28m-3.34-.03c-.33.16.06.55.3.34.22-.18-.1-.45-.3-.34m5.19 0c-.34.1-.04.53.21.37.3-.1.03-.51-.21-.37m-2.57.36c-.29.14.05.48.25.3.24-.14-.06-.43-.25-.3m-2.76.1c-.3.18.13.52.32.3.18-.2-.14-.41-.32-.3m5.43 0c-.3.14.06.51.27.32.24-.16-.06-.45-.27-.32m-2.68.32c-.28.15.1.49.28.29.2-.17-.1-.4-.28-.3m2.72.12c-.3.12.02.48.24.31.23-.13-.04-.42-.24-.3m-2.72.3c-.3.21.17.44.34.23.08-.2-.18-.31-.34-.23m-2.6.08c-.28.05-.12.42.12.34.27-.04.1-.44-.13-.34m5.3 0c-.32.04-.1.45.13.32.24-.08.07-.4-.14-.32M9.2 5.3a1.6 1.6 0 00-1.02-.12l.3.4h.1l-.15-.31q.1-.01.17.03l.03-.07q.1.27-.09.48c.05.12.07.25.14.36a9 9 0 013.66 0l.13-.36c-.13-.13-.13-.3-.09-.48l.14.12-.07.23h.1l.3-.4a1.5 1.5 0 00-1.04.13 1.72 1.72 0 00-2.6-.01M8 4.8c-.29.07-.03.45.18.29.2-.12.01-.37-.17-.29m4.6.05c.15.04-.01-.14 0 0m.13-.04c-.25.17.12.44.28.24.14-.17-.13-.33-.28-.24m-.26.3h.15l-.01-.26zm-3.43.95c.95.16 1.95.16 2.9 0a10 10 0 00-2.9 0m-.35.08c.24.16.54.15.81.19.93.06 1.91.14 2.79-.19-.13-.07-.28-.02-.42 0-1.05.2-2.14.03-3.18 0" class="fil1"/><path id="_315039424" fill="#4d4b4c" d="m10.45 4.97.08-.06-.03.3q.21 0 .27.18l-.26-.04v.15l-.08.1v-.24h-.19l-.01-.08.18-.05zm0 .32q.02.03 0 0" class="fil1"/><path id="_315039784" fill="#4d4b4c" d="M9.52 5.07c.12.06.13.22.07.32a1 1 0 01-.07-.32" class="fil1"/><path id="_315040648" fill="#4d4b4c" d="m11.3 5.1.08.02q.01.13-.07.23z" class="fil1"/><path id="_315040984" fill="#4d4b4c" d="M11.08 5.29c.26 0 .3.27.25.47-.1-.08-.07-.22-.07-.33l-.18-.01z" class="fil1"/><path id="_315041320" fill="#4d4b4c" d="m9.62 5.43.19-.11.01.15z" class="fil1"/><path id="_315040312" fill="#4d4b4c" d="M11.33 5.35c.11-.02.25.01.26.14-.1-.03-.25-.01-.26-.14" class="fil1"/><path id="_315041992" fill="#4d4b4c" d="M8.68 5.62c.05-.15.25-.15.37-.2l.02.15z" class="fil1"/><path id="_315041656" fill="#4d4b4c" d="M9.33 5.47q.1-.11.23-.09c.02.14-.15.12-.23.09" class="fil1"/><path id="_315042664" fill="#4d4b4c" d="M12 5.42c.1.06.28.06.32.2h-.2l-.1-.1z" class="fil1"/><path id="_315043000" fill="#4d4b4c" d="m9.59 5.44.08.18q-.06.01-.1.04z" class="fil1"/><path id="_315043336" fill="#4d4b4c" d="M8.63 5.63c.15 0 .18.19.23.3l-.15-.04-.04.06z" class="fil1"/><path id="_315042328" fill="#4d4b4c" d="M12.27 5.64h.1q0 .15-.06.32l-.02-.13-.06.1q-.06 0-.1-.03z" class="fil1"/><path id="_315043480" fill="#4d4b4c" d="M7.8 9.26c.1-.1.23-.02.32.03.66.37 1.34.73 1.87 1.27.24.23.32.62.65.76.25.1.52.1.77.19l-.13.54c.3.12.54.35.88.37-.05.4-.2.76-.28 1.15h.72q.46-1.47 1.21-2.82c.09-.2.31-.21.5-.2.28.05.66-.1.82.2a13 13 0 011.2 2.82h.47c2.4.03 4.8 0 7.21 0v.05h-6.98v.03c2.35.01 4.72-.03 7.07.02-2.57.03-5.15 0-7.72.03a22 22 0 01.7 6.49c-.06 2.2-.38 4.4-.7 6.58q1.04.54 2.2.68.07 0 .17.04l.04.39.01.26v.26l-11.97.01H2.74q-.34 0-.67-.03c.26-.22.51-.64.91-.52l-.14-.13c.52-.31 1.2-.6 1.8-.28.76.2 1.44-.47 2.2-.33l.45.14a1 1 0 00-.57-.24h-.45l.31-.38c-.41-.27-.73-.66-.59-1.19l.28-.03c-.23-.83-.93-1.39-1.55-1.93-.27-.18-.09-.54-.07-.8q.59-.1 1.17-.11l.08-.01.01-.39c.02-.2.01-.43-.14-.59-.8-.96-1.45-2.04-2.26-3-.13-.15-.32-.3-.3-.53 0-.66-.03-1.33 0-2 .32-.08.62-.28.95-.3.38.28.72.7 1.26.52-.08-.87-.18-1.75-.42-2.6-2.94-.01-5.87.04-8.8-.02 2.5-.04 5 .01 7.5-.02-2.26-.07-4.53.03-6.8-.05 2.7-.03 5.38 0 8.07-.02a5 5 0 00-.36-1.05c-.17-.3.22-.51.33-.76.19-.4.7-.12 1-.38.42-.26.32-.87.74-1.13zm-1.29 1.32c-.1.65-.68 1.19-1.36 1.08q-.1.12-.18.26a19 19 0 012.69 3.5c.07.11-.08.15-.12.05a18 18 0 00-2.66-3.44q-.12.14-.22.32c.47 1.06.7 2.22.8 3.38.18 0 .28.16.39.27a7 7 0 011.69 2.53c-.09.02-.14-.05-.16-.12a8 8 0 00-1.9-2.6l.07.58c-.26 0-.51.05-.77.01-.24-.15-.44-.37-.68-.53-.27.1-.55.17-.8.32a9 9 0 012.24 2.62q1.02 1.62 2 3.24c-.05.02-.12.05-.14-.02-.93-1.41-1.73-2.92-2.74-4.28a6 6 0 00-1.36-1.38c.03.6-.03 1.23.04 1.82.9 1.07 1.65 2.24 2.51 3.34.32.3.11.77.14 1.14q-.62.08-1.26.1c.9 1.13 1.96 2.15 2.92 3.23l-.08.09c-.97-1.01-1.89-2.07-2.86-3.06-.01.12-.07.28.06.36.7.6 1.46 1.24 1.66 2.17l-.32.01c-.16.49.27.77.6 1.02.57-.2 1.13.06 1.64.29.11-.38.45-.69.86-.5.05-.3 0-.6.07-.89q.75-.52 1.51-1c.15-.62-.96-.66-.85-1.27.26-.5.6-.94.9-1.41a7 7 0 00-2.5 3.02l-.1-.03a7 7 0 012.52-3.09c.32-.09.4-.45.6-.68-.51-.03-1.04-.02-1.56-.05q.46-1.04.96-2.05c.18-.14.41-.25.5-.49l.97-2.55c.23-.48.16-1.02.2-1.53-.26-.1-.35.12-.38.32-.2.53-.26 1.13-.55 1.6a16 16 0 00-3.25 3.63c-.02.06-.09.02-.13.02a15 15 0 012.98-3.48c.15-.15.4-.25.44-.48q.24-.83.5-1.64c-.49-.08-.97-.1-1.45-.17.16-.86.48-1.7.66-2.56l-.33-.07a8 8 0 01-1.24 2.93c-.37.86-.8 1.72-1.48 2.37-.08.08-.15-.05-.06-.1a7 7 0 001.45-2.36 8 8 0 001.21-2.86q-.25-.09-.5-.13c-.33-1.07-1.5-1.57-2.41-2.04-.46.41-.97.79-1.38 1.24m7.42.2c-.56.95-.97 2-1.3 3.05.38.3.65.74 1.1.96v.1c-.5-.12-.74-.65-1.15-.91-.07.27-.1.66.04.9l.04.13q.3.1.63.12c0 .3-.05.59-.04.88.03.54-.32 1-.42 1.5.29.38.63.7.92 1.07l-.06.09c-.33-.3-.6-.7-.93-1-.36.69-.38 1.64-1.05 2.1-.1 1.32 1.58 1.65 1.96 2.76l-.1.02c-.41-.87-1.43-1.21-1.87-2.06q-.01.57.05 1.14.3.06.59.07c-.1.21-.26.4-.39.6-.3.34-.06.8-.08 1.2-.03.22.18.35.3.5l1.65 1.71c.09.06-.03.18-.1.09q-.88-.93-1.78-1.85.15 1.6.49 3.18.76-.06 1.52.1a1.7 1.7 0 00-1.1-.31c.08-.27.3-.5.6-.5.48 0 .85.33 1.24.56.47.08 1.1.07 1.33.58.08.25.34.36.58.3-.56-.52-1.17-1.07-2-1.02 0-.49.58-.47.92-.4.12-.8.27-1.6.34-2.4-.72.2-.92 1.05-1.35 1.58l-.1-.05c.42-.6.69-1.5 1.49-1.68.15-1.37.28-2.73.27-4.1-.74.47-1.17 1.29-1.63 2.02l-.1-.05a6 6 0 011.74-2.15q.02-1.5-.14-3c-.66.26-1.16.8-1.64 1.31-.03-.06-.06-.12 0-.17q.65-.8 1.54-1.26c.1-.04.05-.15.05-.23a18 18 0 00-.53-2.57c-.3.4-.59.86-1.08.99v-.1c.44-.24.8-.63 1.02-1.07q-.39-1.38-1.1-2.62c-.05-.15-.27-.34-.37-.12m.63-.13c.72 1.2 1.2 2.55 1.51 3.92.87 3.95.45 8.04-.18 12l.12.03a53 53 0 00.62-5.14c.21-3.41-.01-6.98-1.56-10.09-.15-.25-.23-.58-.5-.72m.26.01a16 16 0 011.91 6.69 40 40 0 01-.6 9.32l.12.04c.37-2.32.68-4.66.69-7.02.03-2.9-.36-5.9-1.72-8.51-.1-.2-.19-.42-.4-.52m-.49.02c1.36 2.41 1.9 5.2 1.95 7.96a41 41 0 01-.65 7.86l.12.01c.42-2.42.7-4.88.68-7.34a17.4 17.4 0 00-1.75-8.05c-.1-.16-.16-.36-.35-.44m-3.1 1.53c-.17.62-.37 1.23-.5 1.86h.23q.25-.91.47-1.84zm.3.19c-.12.57-.33 1.12-.42 1.7l.13-.02c.1-.56.3-1.1.4-1.65zm.25.06c-.13.56-.3 1.12-.4 1.68h.22c.13-.54.3-1.07.42-1.61zm.06 1.24q-.08.23-.12.48l.25.01.34.05-.02.03c.18-.13.19-.39.23-.59l-.01.03q-.21-.03-.42 0zm.78 1.47c.1 1.16-.54 2.17-.85 3.25-.15.4-.25.87-.67 1.06q-.35.7-.63 1.4h.19c.2-.41.34-.85.56-1.24.46-.2.52-.74.69-1.15.34-1.1.94-2.15.81-3.33zm.25.05c.08 1.17-.52 2.25-.85 3.35-.16.43-.26.96-.72 1.19q-.27.54-.5 1.13l.2-.02c.19-.38.34-.78.55-1.15.2-.12.4-.27.49-.5l.93-2.49c.23-.46.15-1 .18-1.5zm-1.48 3.2q-.15.39-.53.57c-.32.61-.58 1.26-.89 1.88l.36-.01q.32-.75.67-1.49c.4-.15.5-.61.64-.98.27-.95.81-1.85.85-2.85-.37.96-.7 1.93-1.1 2.88m-.26 2.46h.03l.4.03q-.1.22-.23.42h.26l-.01-.46v-.93c-.17.3-.29.63-.45.94m.04.67-1.1 1.65c-.1.15.04.28.17.35q.65-1.03 1.28-2.08c-.12 0-.28-.05-.35.08m.35.2-1.13 1.8c-.09.1.05.17.12.22.4-.68.85-1.33 1.23-2.02zm.35.05c-.41.7-.86 1.37-1.26 2.07.04.03.12.1.15.02l1.38-2.1zm-.98 2.13c-.07.08-.02.18.04.25q.05.13.17.18l.06.05q.06.12.19.17c.26.15.44.42.32.73l-1.43.94c-.1.12-.05.28-.06.43v.17l.04.03c-.04.06.07.17.14.12q.25.24.59.38c.26.12.58.1.84-.01q.26-.08.5-.18l-.01-.06q.02-.18-.07-.36v-.03q-.01-.3-.1-.57 0-.12-.04-.24 0-.23-.06-.43l-.04-.28q0-.23-.08-.44v-.03c.05-.06.04-.17-.01-.22h-.02q.01-.18-.04-.34c.05-.06.04-.2-.03-.22v-.03q-.01-.55-.1-1.09v-.1q-.41.58-.8 1.18m-1.5 1.63c.04.3-.24.83.17.93.05-.24-.09-.58.17-.72l1.27-.89v-.32l-.06-.03q-.76.53-1.56 1.03m1.73-1c.18.2.31.41.24.7-.45.34-.94.63-1.39.98-.06.17-.1.43.09.54q0-.29.03-.56c.49-.35 1-.66 1.5-1.01.09-.33-.27-.46-.47-.65m.04.24c-.3.51-.98.73-1.43 1.14.04.19-.16.55.08.63q0-.2.02-.39l1.4-1q.05-.2-.07-.38M8.6 26.72c.86-.06 1.07.98 1.73 1.32-.39 0-.89.03-1.16-.31-.37-.5-.94-.82-1.52-1.01-.37-.1-.85-.15-1.12.18.51-.05.98.26 1.3.63-.5-.06-.98-.4-1.51-.29-.62.2-1.33.55-1.96.22-.43-.1-.9.03-1.27.29q.3.14.58.32c-.46-.06-1.02-.29-1.32.21q8.18.02 16.34 0l-.02-.7a8 8 0 01-2.8-.9c-.33-.1-.87-.32-1.1.05.4.06.85.12 1.18.4.34.27.65.6 1.05.8-.29.02-.58.11-.87.06-.27-.1-.18-.47-.39-.63-.4-.32-1.02-.09-1.4-.47-.35-.25-.98-.57-1.3-.1.54.01 1.02.29 1.42.62-.6-.07-1.2-.2-1.8-.17-.46.04-.86.38-1.34.33-.84-.01-1.27-.92-2.06-1.06-.24-.09-.59-.1-.66.21m-.1.23q.2.16.43.31.1.15.24.25c.08.14.19.28.36.32q.13.07.28.06l.14.02c-.42-.37-.77-1.33-1.45-.96" class="fil1"/></g><g id="__x0023_fefe00ff"><path id="_315044320" fill="#fefe00" d="M10.37 1.29h.27l-.03.33.4-.03v.22l-.4-.04.04.33h-.28l.05-.33-.41.04v-.22l.4.03z" class="fil2"/><path id="_315047104" fill="#fefe00" d="M10.4 2.15h.23l.02.3H11c.03.07.06.2-.04.2H10v-.19h.37z" class="fil2"/><path id="_315047992" fill="#fefe00" d="M11.17 2.88c.2.11.46.17.66 0l.23.19c-.32-.04-.63 0-.94.04q0-.12.05-.23" class="fil2"/><path id="_315048328" fill="#fefe00" d="m8.87 3.07.24-.17c.24.22.5-.02.74 0l.02.21c-.33-.04-.67-.1-1-.04" class="fil2"/><path id="_315047464" fill="#fefe00" d="M9.93 2.93q.57.1 1.14 0c-.04.59-.14 1.17-.2 1.76l-.14-.03q.1-.2-.08-.38c.15-.1.15-.3 0-.4q.21-.21.01-.43c.23-.17.04-.51-.23-.43-.23.02-.26.3-.11.43-.12.13-.12.3.02.42-.15.11-.14.3-.01.42q-.14.16-.08.37l-.1.03q-.15-.87-.22-1.76" class="fil2"/><path id="_315048472" fill="#fefe00" d="m8.53 3.01.32.06c-.34.1-.64.35-.7.7-.12.47.13.92.35 1.31l-.25.03c.17-.17.01-.34-.17-.4a.4.4 0 00-.11-.34q.1-.21-.07-.38c.17-.09.18-.27.08-.42q.22-.1.21-.35a.5.5 0 00.34-.2" class="fil2"/><path id="_315048808" fill="#fefe00" d="m12.9 3.9.14.08a.3.3 0 00-.08.39q-.15.16-.1.36l-.18.04q.14-.34.2-.7z" class="fil2"/><path id="_315049672" fill="#fefe00" d="M12.62 4.85c-.02-.14.14.04 0 0" class="fil2"/><path id="_315049480" fill="#fefe00" d="M8.6 26.72c.06-.31.4-.3.65-.21.8.14 1.22 1.05 2.06 1.06.48.05.88-.3 1.34-.33.6-.04 1.2.1 1.8.17-.4-.33-.88-.6-1.41-.61.3-.48.94-.16 1.3.1.37.37.98.14 1.4.46.2.16.11.53.38.63.3.05.58-.04.87-.06-.4-.2-.71-.53-1.05-.8-.33-.28-.77-.34-1.18-.4.23-.37.77-.14 1.1-.06.9.42 1.81.82 2.8.9l.02.72H2.34c.3-.5.86-.28 1.32-.22q-.27-.18-.58-.32c.37-.26.84-.38 1.27-.3.63.34 1.34-.01 1.96-.2.53-.11 1 .22 1.52.28-.33-.37-.8-.68-1.31-.63.27-.33.75-.27 1.12-.18.58.2 1.15.5 1.52 1 .27.35.77.32 1.16.32-.66-.34-.87-1.38-1.73-1.32m.96.16c.3.42.7.8 1.21.97 1.63.52 3.35.14 5.02.19-.03-.58-.63-.72-1.1-.65-.14.15-.29.35-.53.29-.57-.11-1.17-.31-1.76-.14-.42.16-.86.35-1.32.25-.6-.1-1-.63-1.52-.91m-1.95.1c.24.13.54.33.4.64-.19.35-.6.08-.86-.02-.89-.43-1.75.5-2.65.17a1 1 0 00-.84-.02c.24.29.64.24.98.27q2.25.08 4.49.02c-.38-.5-.9-.9-1.52-1.06m8.8.22q.29.24.51.53c.33.52 1.02.25 1.53.31v-.24a8 8 0 01-2.04-.6" class="fil2"/></g><g id="__x0023_0000ffff"><path id="_315053296" fill="#00f" d="M10.7 2.18q.2.06.28.22h-.28z" class="fil3"/><path id="_315053656" fill="#00f" d="M10.03 2.4c.07-.1.16-.2.3-.2v.2z" class="fil3"/><path id="_315050320" fill="#00f" d="M10.06 2.72c.3-.02.62-.05.92.03l-.02.02c-.24.22-.71.26-.9-.05" class="fil3"/><path id="_315053992" fill="#00f" d="M9.05 6.05a10 10 0 012.9 0c-.95.16-1.95.16-2.9 0" class="fil3"/><path id="_315054328" fill="#00f" d="M16.8 13.56c6.2-.04 12.38 0 18.57-.02v17.9h-49.74V13.57q5.64-.01 11.28.01c2.26.08 4.53-.02 6.8.05-2.5.03-5.01-.02-7.51.02 2.93.06 5.86 0 8.8.03.24.84.34 1.72.42 2.6-.54.16-.88-.25-1.26-.53-.33.02-.63.22-.95.3-.03.67 0 1.34 0 2-.02.23.17.38.3.54.81.95 1.45 2.03 2.26 3 .15.15.16.38.14.58q0 .2-.1.4-.57.02-1.16.1c-.02.27-.2.63.07.81.62.54 1.32 1.1 1.55 1.93l-.28.03c-.14.53.18.92.6 1.19l-.32.37h.45l.13.1c-.77-.13-1.45.54-2.21.34-.6-.33-1.28-.03-1.8.28l.14.13c-.4-.12-.65.3-.91.52l-.04.04q.36.01.71-.01h.07q.45.02.92 0h.06q.46.02.93 0h.06q.99.03 1.98 0h.07q6 .02 11.99 0l-.02-.27-.01-.26-.01-.42-.2-.01a6 6 0 01-2.2-.68c.32-2.18.64-4.37.69-6.58q.04-.83 0-1.64a22 22 0 00-.69-4.85c2.57-.02 5.15 0 7.72-.03-2.35-.05-4.72 0-7.07-.02v-.04H24v-.03c-2.4-.01-4.8.02-7.2-.02" class="fil3"/><path id="_315054472" fill="#00f" d="M12.1 13.7q.21-.03.42 0-.08.27-.2.53l-.34-.05-.22-.07.12-.39z" class="fil3"/><path id="_315055336" fill="#00f" d="M11.14 20.89c.16-.3.28-.63.45-.93v.92z" class="fil3"/><path id="_315054808" fill="#00f" d="M10.9 23.93q.38-.6.8-1.19v.11q.03.55.1 1.09v.03q0 .11.03.22.05.16.04.34 0 .12.03.22v.03q.02.23.08.44l.04.28q0 .21.06.43l.04.24q.03.3.1.57v.03l.07.36v.06q-.23.1-.49.18-.42.11-.84 0a2 2 0 01-.6-.37l-.13-.12-.04-.03v-.17q.02-.22.06-.43.72-.45 1.43-.94c.12-.31-.06-.58-.32-.73l-.19-.17-.06-.05-.17-.18c-.06-.07-.11-.17-.04-.25" class="fil3"/><path id="_315055480" fill="#00f" d="M8.49 26.95c.68-.37 1.03.59 1.45.96l-.42-.08c-.17-.04-.28-.18-.36-.32a1 1 0 00-.24-.25z" class="fil3"/></g><g id="__x0023_fefefeff"><path id="_315643128" fill="#fefefe" d="M9.28 2.51c.25-.14.59.24.29.4-.28.23-.68-.26-.3-.4" class="fil4"/><path id="_315643344" fill="#fefefe" d="M11.4 2.51c.25-.16.6.25.29.4-.28.21-.66-.24-.3-.4" class="fil4"/><path id="_315643704" fill="#fefefe" d="M8.64 2.59c.26-.16.57.22.28.38-.27.2-.64-.25-.28-.38" class="fil4"/><path id="_315644040" fill="#fefefe" d="M12.06 2.58c.27-.13.54.3.23.4-.3.18-.6-.31-.23-.4" class="fil4"/><path id="_315644376" fill="#fefefe" d="M8.08 2.76c.22-.13.54.2.28.36-.24.21-.63-.21-.28-.36" class="fil4"/><path id="_315644712" fill="#fefefe" d="M12.63 2.76c.25-.14.52.25.23.38-.27.18-.59-.28-.23-.38" class="fil4"/><path id="_315645048" fill="#fefefe" d="M10.4 3.07c.21-.1.45.2.22.33-.23.16-.52-.23-.21-.33" class="fil4"/><path id="_315645384" fill="#fefefe" d="M7.76 3.14c.2-.11.52.16.3.34-.24.21-.63-.18-.3-.34" class="fil4"/><path id="_315645720" fill="#fefefe" d="M12.95 3.14c.24-.14.5.26.21.37-.25.16-.55-.28-.21-.37" class="fil4"/><path id="_315646056" fill="#fefefe" d="M10.38 3.5c.19-.13.49.16.25.3-.2.18-.54-.16-.25-.3" class="fil4"/><path id="_315646392" fill="#fefefe" d="M7.62 3.6c.18-.11.5.1.32.3-.19.22-.62-.12-.32-.3" class="fil4"/><path id="_315646728" fill="#fefefe" d="M13.05 3.6c.2-.13.5.16.27.32-.21.2-.57-.18-.27-.32" class="fil4"/><path id="_315647064" fill="#fefefe" d="M10.37 3.92c.19-.12.49.12.28.29-.19.2-.56-.14-.28-.3" class="fil4"/><path id="_315647400" fill="#fefefe" d="M7.57 4.38c-.23-.25.2-.52.37-.26.1.2-.17.28-.33.26z" class="fil4"/><path id="_315647736" fill="#fefefe" d="M13.1 4.03c.19-.11.46.18.23.31-.22.17-.53-.19-.24-.3" class="fil4"/><path id="_315648072" fill="#fefefe" d="M10.37 4.34c.16-.08.42.03.34.23-.17.21-.65-.02-.34-.23" class="fil4"/><path id="_315648408" fill="#fefefe" d="M7.76 4.42c.24-.1.4.3.13.34-.24.08-.4-.29-.13-.34" class="fil4"/><path id="_315648744" fill="#fefefe" d="M13.05 4.42c.21-.08.38.24.14.32-.24.13-.45-.28-.14-.32" class="fil4"/><path id="_315649080" fill="#fefefe" d="M9.2 5.3a1.7 1.7 0 012.6.01q.5-.25 1.03-.13l-.3.4h-.09l.07-.23-.14-.12c-.04.17-.04.35.1.48l-.14.36a9 9 0 00-3.66 0q-.1-.17-.14-.36.2-.21.1-.48l-.04.07a.3.3 0 00-.17-.03l.15.3h-.1l-.3-.4c.34-.1.7 0 1.02.13m1.21-.38v.3h-.24v.18l.08-.01v-.03h.15l.02.32h.14l-.04-.18v-.15l.26.04q-.06-.2-.27-.17l.03-.31-.08.06.02-.1zm-.88.15q0 .17.07.32c.06-.1.05-.26-.07-.32m1.78.04v.24q.09-.1.08-.23zm-.22.18v.13l.18.01c0 .11-.03.25.07.33.05-.2 0-.46-.25-.47m-1.46.14.2.04-.01-.15zm1.71-.08c0 .13.17.11.26.14-.01-.13-.15-.16-.26-.14m-2.65.27q.2 0 .4-.05l-.03-.16c-.12.06-.32.06-.37.2m.65-.14c.08.03.25.05.23-.09q-.13-.01-.23.09m2.62.06-.08.03.25.05h.2c-.04-.13-.21-.13-.32-.19-.07-.05-.13.1-.05.11M9.6 5.44l-.02.22.08.13.05-.18h-.03zm-.96.19q0 .15.04.32l.04-.06.15.04c-.05-.11-.08-.3-.23-.3m3.64 0-.14.27.1.04.06-.11.02.13q.06-.15.07-.32z" class="fil4"/><path id="_315649224" fill="#fefefe" d="M8 4.8c.2-.08.37.17.18.29-.2.16-.47-.22-.17-.29" class="fil4"/><path id="_315649752" fill="#fefefe" d="M12.74 4.81c.15-.09.42.07.28.24-.16.2-.53-.07-.28-.24" class="fil4"/><path id="_315650424" fill="#fefefe" d="M10.45 5.3q.02.01 0 0" class="fil4"/><path id="_315650760" fill="#fefefe" d="M8.7 6.13c1.04.03 2.13.2 3.18 0 .14-.02.29-.07.42 0-.88.33-1.86.25-2.79.19-.27-.04-.57-.03-.8-.19" class="fil4"/><path id="_315650232" fill="#fefefe" d="M6.52 10.58c.41-.45.92-.83 1.38-1.24.91.47 2.08.97 2.4 2.04q.26.05.51.13c-.2 1.02-.63 2-1.21 2.86-.36.86-.8 1.7-1.45 2.36-.09.05-.02.18.06.1a7 7 0 001.48-2.37 8 8 0 001.24-2.93l.33.07c-.18.86-.5 1.7-.66 2.56l1.44.17-.5 1.64c-.04.23-.28.33-.43.48a15 15 0 00-2.98 3.48c.04 0 .1.04.13-.02q1.34-2.07 3.25-3.63c.3-.47.35-1.07.55-1.6.03-.2.12-.42.37-.32-.03.51.04 1.05-.19 1.53l-.97 2.55c-.09.24-.32.35-.5.49q-.51 1.02-.96 2.05l1.57.05c-.2.23-.29.6-.61.68a7 7 0 00-2.53 3.1q.06 0 .1.02a7 7 0 012.52-3.02c-.3.47-.65.92-.91 1.41-.1.6 1 .65.85 1.28q-.76.47-1.51 1c-.07.28-.02.58-.07.87-.41-.18-.75.13-.86.5-.5-.22-1.07-.48-1.63-.28-.34-.25-.77-.53-.6-1.02l.31-.01c-.2-.93-.97-1.58-1.66-2.17-.13-.08-.07-.24-.06-.36.97 1 1.9 2.05 2.86 3.06l.08-.09c-.96-1.08-2.03-2.1-2.92-3.23q.64-.02 1.26-.1c-.03-.37.18-.84-.14-1.14-.86-1.1-1.61-2.27-2.51-3.34-.07-.6 0-1.21-.04-1.82.54.36.97.87 1.36 1.38 1.01 1.36 1.8 2.87 2.74 4.28.02.07.1.04.14.02l-2-3.24a9 9 0 00-2.24-2.62c.25-.15.53-.22.8-.32.24.16.44.38.68.53.26.04.51 0 .77-.01l-.07-.58c.76.76 1.48 1.6 1.9 2.6.02.07.07.14.16.12-.3-.98-1-1.79-1.7-2.53-.1-.11-.2-.27-.37-.27a11 11 0 00-.81-3.38q.1-.17.22-.32a17 17 0 012.66 3.44c.04.1.19.06.12-.04a19 19 0 00-2.69-3.5q.08-.15.18-.27c.68.11 1.26-.43 1.36-1.08" class="fil4"/><path id="_315650904" fill="#fefefe" d="M13.94 10.77c.1-.22.32-.03.38.12q.7 1.24 1.09 2.62a2.5 2.5 0 01-1.02 1.07v.1c.5-.13.79-.6 1.08-.99.26.84.4 1.7.53 2.57 0 .08.05.2-.05.23q-.9.46-1.54 1.26c-.06.05-.03.11 0 .17.48-.5.98-1.05 1.64-1.31q.15 1.5.14 3a6 6 0 00-1.74 2.15l.1.05c.46-.73.89-1.55 1.63-2.03 0 1.38-.12 2.74-.27 4.1-.8.19-1.07 1.1-1.5 1.7q.06 0 .11.04c.43-.53.63-1.37 1.35-1.58-.07.8-.22 1.6-.34 2.4-.34-.07-.91-.09-.92.4.83-.05 1.44.5 2 1.02-.24.06-.5-.05-.58-.3-.22-.51-.86-.5-1.33-.58-.39-.23-.76-.55-1.24-.56-.3 0-.52.23-.6.5.38-.01.78.07 1.1.3q-.75-.15-1.52-.1-.34-1.56-.49-3.17l1.79 1.85c.06.1.18-.03.09-.09L12.19 24c-.13-.14-.34-.27-.3-.5.01-.39-.23-.85.07-1.18q.21-.3.39-.61a4 4 0 01-.6-.07q-.04-.57-.04-1.14c.44.85 1.46 1.19 1.86 2.06l.1-.02c-.37-1.1-2.04-1.44-1.95-2.76.67-.46.69-1.41 1.05-2.1.34.3.6.7.93 1l.06-.09c-.29-.36-.63-.7-.92-1.06.1-.51.45-.97.42-1.5l.04-.89a4 4 0 01-.63-.12l-.04-.14c-.14-.23-.1-.62-.04-.9.41.27.65.8 1.15.92v-.1c-.45-.22-.72-.66-1.1-.96q.48-1.6 1.3-3.06" class="fil4"/><path id="_315651240" fill="#fefefe" d="M14.57 10.64c.28.14.36.47.51.72 1.55 3.1 1.77 6.68 1.56 10.09a53 53 0 01-.62 5.14l-.12-.03c.63-3.96 1.05-8.05.18-12a14 14 0 00-1.5-3.92" class="fil4"/><path id="_315651576" fill="#fefefe" d="M14.84 10.65c.21.1.3.33.4.52 1.36 2.6 1.75 5.6 1.72 8.51-.01 2.36-.32 4.7-.7 7.02l-.11-.04c.48-3.08.85-6.2.6-9.32a16 16 0 00-1.9-6.69" class="fil4"/><path id="_315651912" fill="#fefefe" d="M14.35 10.67c.19.08.25.28.35.44a17.4 17.4 0 011.75 8.05c.01 2.46-.26 4.92-.68 7.34l-.12-.01c.42-2.6.74-5.23.65-7.86a17 17 0 00-1.95-7.96" class="fil4"/><path id="_315652776" fill="#fefefe" d="m11.25 12.2.2.02q-.21.93-.47 1.84h-.23c.13-.63.33-1.24.5-1.86" class="fil4"/><path id="_315653112" fill="#fefefe" d="m11.54 12.39.12.03c-.1.55-.3 1.1-.4 1.65l-.13.01c.1-.57.3-1.12.41-1.7" class="fil4"/><path id="_315653448" fill="#fefefe" d="m11.8 12.45.23.07c-.12.54-.3 1.07-.42 1.61h-.23c.11-.56.28-1.12.41-1.68" class="fil4"/><path id="_315652248" fill="#fefefe" d="M12.63 15.17h.1c.13 1.18-.47 2.23-.81 3.32-.17.41-.23.95-.69 1.15-.22.39-.36.83-.56 1.23l-.2.01q.3-.7.64-1.4c.42-.19.52-.67.67-1.06.3-1.08.94-2.1.85-3.25" class="fil4"/><path id="_315653592" fill="#fefefe" d="m12.88 15.22.28.02c-.03.5.05 1.03-.18 1.5q-.45 1.24-.93 2.48c-.08.23-.28.38-.5.5-.2.37-.35.77-.54 1.15l-.2.02q.24-.59.5-1.13c.46-.23.56-.76.72-1.2.33-1.1.93-2.17.85-3.34" class="fil4"/><path id="_315653928" fill="#fefefe" d="M11.4 18.43c.4-.95.73-1.92 1.1-2.88-.04 1-.58 1.9-.85 2.85-.13.37-.23.83-.64.98q-.35.74-.67 1.49h-.36c.3-.61.57-1.26.9-1.87q.37-.18.52-.57" class="fil4"/><path id="_315654792" fill="#fefefe" d="M11.18 21.56c.07-.13.23-.07.35-.08q-.63 1.05-1.28 2.08c-.13-.07-.27-.2-.17-.35z" class="fil4"/><path id="_315655128" fill="#fefefe" d="M11.53 21.76h.22c-.38.69-.83 1.34-1.23 2.02-.07-.05-.2-.12-.12-.22z" class="fil4"/><path id="_315655464" fill="#fefefe" d="M11.88 21.8h.27l-1.38 2.1c-.03.08-.1 0-.15-.02.4-.7.85-1.38 1.26-2.07" class="fil4"/><path id="_315654264" fill="#fefefe" d="M9.4 25.56q.78-.5 1.55-1.03l.07.03v.33q-.65.43-1.28.88c-.26.14-.12.48-.17.72-.4-.1-.13-.63-.18-.93" class="fil4"/><path id="_315655608" fill="#fefefe" d="M11.12 24.56c.2.19.56.32.46.65l-1.5 1-.02.57c-.2-.1-.15-.37-.09-.54.45-.34.94-.64 1.39-.99.07-.28-.06-.49-.24-.69" class="fil4"/><path id="_315655944" fill="#fefefe" d="M11.16 24.8c.1.1.09.25.08.38l-1.41 1-.02.39c-.24-.08-.04-.44-.08-.63.45-.4 1.13-.63 1.43-1.14" class="fil4"/></g><g id="__x0023_edcf05ff"><path id="_315656760" fill="#edcf05" d="m12.12 3.07.27-.07q.12.19.35.22-.01.26.2.35-.04.16-.05.34l-.01.16a.95.95 0 00-.76-1" class="fil5"/><path id="_315658104" fill="#edcf05" d="m12.48 5.1.14-.25.02.26z" class="fil5"/></g><g id="__x0023_81100dff"><path id="_315658416" fill="#81100d" d="M8.34 3.45c.36-.47 1.05-.4 1.56-.28.04.52.13 1.03.18 1.55q-.52.12-.89.52c-.2-.06-.43-.08-.62-.17-.33-.45-.58-1.12-.23-1.62m.06.44c-.01.45.15 1.12.72 1.07q.32-.25.7-.42a10 10 0 00-.13-1.15c-.45-.18-1.2-.09-1.3.5" class="fil6"/><path id="_315659184" fill="#81100d" d="M11.1 3.17c.53-.1 1.18-.2 1.56.28.35.51.1 1.19-.25 1.63q-.3.09-.6.15a2 2 0 00-.9-.51zm.19.2c-.04.39-.12.78-.12 1.17.25.1.47.27.7.42.57.05.76-.67.7-1.12-.1-.57-.83-.59-1.28-.47" class="fil6"/></g><g id="__x0023_a7a5a3ff"><path id="_315660048" fill="#a7a5a3" d="m10.4 4.92.07-.05-.02.1-.04.26-.18.05v.11h-.06v-.17h.22z" class="fil7"/><path id="_315661392" fill="#a7a5a3" d="M10.39 5.36h.04v.23l.08-.1.04.2h-.14z" class="fil7"/><path id="_315662280" fill="#a7a5a3" d="m11.95 5.53.06-.02.11.1-.25-.05z" class="fil7"/><path id="_315662616" fill="#a7a5a3" d="m9.67 5.62.03-.01-.05.18-.08-.13z" class="fil7"/></g><g id="__x0023_d4d4d4ff"><path id="_315663600" fill="#d4d4d4" d="M11.95 5.53c-.08-.02-.02-.16.05-.1l.01.08z"/></g><g id="__x0023_cf0b17ff"><path id="_315664608" fill="#cf0b17" d="M-3.78 13.3c.11.01-.06.11 0 0"/></g><g id="__x0023_1718a9ff"><path id="_316109464" fill="#1718a9" d="M11.85 13.7h.25l-.22.02q-.08.2-.12.4l.22.06-.25-.01q.04-.25.12-.48" class="fil10"/><path id="_316109824" fill="#1718a9" d="M12.52 13.7v-.03c-.03.2-.04.46-.22.59l.02-.03q.12-.26.2-.53" class="fil10"/><path id="_316110496" fill="#1718a9" d="M11.17 20.89h.42q.02.22 0 .45h-.25q.14-.2.23-.42-.2 0-.4-.03" class="fil10"/><path id="_316110856" fill="#1718a9" d="M5.82 22.58a1 1 0 00.09-.4l-.01.39z" class="fil10"/><path id="_316111168" fill="#1718a9" d="M11.7 22.85q.09.54.1 1.09-.07-.54-.1-1.09" class="fil10"/><path id="_316111504" fill="#1718a9" d="M11.8 23.97c.07.01.08.16.03.22z" class="fil10"/><path id="_316111840" fill="#1718a9" d="M10.94 24.18q.08.1.17.18-.12-.05-.17-.18" class="fil10"/><path id="_316112176" fill="#1718a9" d="M11.17 24.41q.1.07.19.17-.13-.05-.19-.17" class="fil10"/><path id="_316112512" fill="#1718a9" d="M11.87 24.53h.02c.05.05.06.16 0 .22z" class="fil10"/><path id="_316112848" fill="#1718a9" d="M11.9 24.78q.08.22.08.44-.05-.21-.08-.44" class="fil10"/><path id="_316113184" fill="#1718a9" d="M12.02 25.5q.06.2.06.43a2 2 0 01-.06-.43" class="fil10"/><path id="_316113520" fill="#1718a9" d="M12.12 26.17q.09.28.1.57a4 4 0 01-.1-.57" class="fil10"/><path id="_316113856" fill="#1718a9" d="M10.19 26.68c0-.15-.04-.31.06-.43q-.04.2-.06.43" class="fil10"/><path id="_316114192" fill="#1718a9" d="M12.22 26.77q.08.18.07.36z" class="fil10"/><path id="_316114528" fill="#1718a9" d="M10.23 26.88q.09.04.14.12c-.07.05-.18-.06-.14-.12" class="fil10"/><path id="_316114888" fill="#1718a9" d="M6.72 27.02q.32.02.57.24l-.44-.14z" class="fil10"/><path id="_316115200" fill="#1718a9" d="M8.92 27.26q.15.1.24.25z" class="fil10"/><path id="_316115536" fill="#1718a9" d="M10.96 27.38q.42.1.84-.01c-.26.11-.58.13-.84 0" class="fil10"/><path id="_316115896" fill="#1718a9" d="m18.57 27.45.21.01v.42l-.03-.4z" class="fil10"/><path id="_316116568" fill="#1718a9" d="m18.8 28.14.02.28h-12l11.97-.02z" class="fil10"/><path id="_316116904" fill="#1718a9" d="m2.03 28.42.04-.04q.34.04.67.03z" class="fil10"/></g><g id="__x0023_ff8000ff"><path id="_316119448" fill="#ff8000" d="M9.55 26.88c.52.28.91.81 1.52.9.46.11.9-.08 1.32-.24.6-.17 1.19.03 1.76.14.24.06.39-.14.53-.3.47-.06 1.07.08 1.1.66-1.67-.05-3.4.33-5.02-.19-.5-.16-.9-.55-1.2-.97" class="fil11"/><path id="_316119808" fill="#ff8000" d="M7.6 26.98c.62.15 1.14.56 1.52 1.06q-2.25.06-4.5-.02c-.33-.03-.73.02-.97-.27a1 1 0 01.84.02c.9.33 1.76-.6 2.65-.17.26.1.67.37.86.02.14-.3-.16-.51-.4-.64" class="fil11"/><path id="_316120168" fill="#ff8000" d="M16.4 27.2c.65.27 1.33.5 2.03.6v.24c-.5-.06-1.19.2-1.52-.3q-.22-.3-.51-.54" class="fil11"/></g><path id="rect136" fill="#e6e6e6" stroke="#2b2a29" stroke-width=".02" d="M7.86 9.34h.04v17.33h-.04z" class="fil12 str0"/><path id="rect138" fill="#e6e6e6" stroke="#2b2a29" stroke-width=".02" d="M14.07 10.67h.04v15.94h-.04z" class="fil12 str0"/></g></svg>