<svg xmlns="http://www.w3.org/2000/svg" viewBox="0 0 200 133"><path fill="#fff" d="M23.93 0h55.71v133H23.93z"/><path fill="#007bc5" d="M0 0h45s5.54 8.75 5.54 14.3C49.52 24.47 39.61 31 40 41.06c-.3 8.18 10.96 17.64 9.75 27.48-1.24 10.04-7.31 14.34-9.93 25.8-1.77 7.78 11.6 20.65 10.36 28.62-1.65 10.64-4.2 10.04-4.2 10.04H0z"/><path fill="#de2921" d="M56.01.01H200v133l-141.99.06s2.9-3.67 1.81-11.81c1.12-11.38-9.15-12.07-9.56-26.94.16-11.18 10.4-12.4 9.69-27.4-.32-6.68-10.5-19.49-9.86-28 .64-8.4 9.9-12.97 9.9-24.05 0-9.93-3.98-14.86-3.98-14.86"/><path fill="#fff" d="M78 33.5h28v27.03H78zm34.75 44h28v27.03h-28zm34.63-44h28v27.03h-28z"/><path fill="#fff" d="M71 40h42v14H71z"/><path fill="#fff" d="M106 84h42v14h-42zm35.25-44h42v14h-42zM85 26h14v42H85z"/><path fill="#fff" d="M155 26h14v42h-14zm-35 44h14v42h-14z"/></svg>