<svg xmlns="http://www.w3.org/2000/svg" viewBox="0 0 1500 1000"><g fill="none" stroke-width="2"><path stroke="#80c6e9" d="M1.03 0Q.2.53.25.73" vector-effect="non-scaling-stroke"/><path stroke="#ffff80" d="M.25.73q-.12.7-.25.78" vector-effect="non-scaling-stroke"/><path stroke="#80c6e9" d="M1.36 0q1.29.39 2.52 0m334.37 0 1.24.42" vector-effect="non-scaling-stroke"/><path stroke="#80c669" d="m339.49.42 317.63 143.35a1 .99-63 01.45 1.41l-3.43 5.94a.77.76-72.9 01-.71.38q-2.1-.17-3.66-.53Q547.68 127.28 210 48.98 98.66 23.16 9.76 2.49 3.38 1.01.25.73" vector-effect="non-scaling-stroke"/><path stroke="#ffff80" d="m341.88 0-2.39.42M408.62 0q.38.24.91.29" vector-effect="non-scaling-stroke"/><path stroke="#80c669" d="m409.53.29 2.83 1.43q165.11 83.24 253.15 128.01c3.06 1.56 3.41.2 5.15-1.64q3.7-3.93 7.44-7.13a1.2 1.2 0 00-.03-1.86L529.04.28" vector-effect="non-scaling-stroke"/><path stroke="#ffff80" d="M529.04.28q.8.07 1.34-.28m40 0q.21.26.58.36" vector-effect="non-scaling-stroke"/><path stroke="#80c669" d="M570.96.36q1.22.43 2.15 1.29 20.86 19.09 41.87 38.13 7.31 6.62 14.67 13.32l61.71 56.17a1.29 1.28 50.1 001.54.14l4.71-2.89a.54.53 56.4 00.15-.78L620.05.21" vector-effect="non-scaling-stroke"/><path stroke="#ffff80" d="M620.05.21q.71.17 1.08-.21" vector-effect="non-scaling-stroke"/><path stroke="#80c669" d="m648.87 0 63.08 98.35a1.12 1.08 73 00.92.51q2.27.02 3.88-1.29a.89.88-31.2 00.26-1.02L677.52.31" vector-effect="non-scaling-stroke"/><path stroke="#ffff80" d="M677.52.31q.93.09.99-.31m21.99 0q.17.21.57.3" vector-effect="non-scaling-stroke"/><path stroke="#80c669" d="m701.07.3 31.58 92.72a.7.7 0 00.95.4q2.01-.98 4.44-1.06 2.4-.07 5.97-.59a.6.59-5.8 00.51-.62L739.32.29" vector-effect="non-scaling-stroke"/><path stroke="#ffff80" d="M739.32.29q.94.01 1.06-.29m20.11 0q.2.18.53.3" vector-effect="non-scaling-stroke"/><path stroke="#80c669" d="m761.02.3-.85 90.76a.2.2-87 00.18.21l13.56 1.52a.49.48-77.8 00.52-.34L802.53.22" vector-effect="non-scaling-stroke"/><path stroke="#ffff80" d="M802.53.22q.83.29.97-.22m21.64 0q.25.24.64.36" vector-effect="non-scaling-stroke"/><path stroke="#80c669" d="m825.78.36-35.69 95.51a.84.84 0 00.48 1.08l5.3 2.1a.7.69-62.9 00.84-.28L858.11.24" vector-effect="non-scaling-stroke"/><path stroke="#ffff80" d="M858.11.24q.4-.05.62-.24m27.77 0q.23.22.74.33" vector-effect="non-scaling-stroke"/><path stroke="#80c669" d="m887.24.33-75.86 105.48a.5.5 0 00.16.74l6.14 3.55a.65.63 37.9 00.76-.08L935.97 0" vector-effect="non-scaling-stroke"/><path stroke="#ffff80" d="M976.75 0q.52.37 1.23.34" vector-effect="non-scaling-stroke"/><path stroke="#80c669" d="M977.98.34 831.52 120.47a.3.29 48.2 00-.02.43l5.67 5.67a1.04 1.03-36.4 001.22.18q36.52-19.52 76.69-40.91 83.82-44.64 139.24-74.22c1.42-.76 2.69-1.8 3.89-2.41q6.69-3.42 14.49-7.71c.86-.47 2.03-.71 3.01-1.19" vector-effect="non-scaling-stroke"/><path stroke="#ffff80" d="M1075.71.31q.65-.04 1.02-.31M1155 0l1.77.61" vector-effect="non-scaling-stroke"/><path stroke="#80c669" d="m1156.77.61-31.82 14.63a1.56 1.46 30.9 01-.64.14q-1.09.03-1.63.59-.39.42-1.41.82-2.34.93-19.37 8.95a.46.34-71.6 00-.13.09c-.87.81-2.06.76-3.19 1.27q-40.35 18.31-75.49 34.29-.58.27-.61.26-.51-.18-.63.07-.19.41-.61.6-30.97 13.94-113.11 51.27-2.81 1.28-4.87 1.98-.35.12-3.04 1.43-7.27 3.52-14.75 6.93-28.73 13.1-34.62 15.52-.75.3-1.24.45a.85.85 0 00-.48 1.26l4.81 7.84a1.12 1.11-22.3 001.2.5q12.85-2.95 22.64-5.37c2.96-.73 5.78-1 8.48-2.17a2.43 2.37-56.4 01.98-.21q2.29-.01 6.41-1.26 2.45-.75 5.31-1.06 1.14-.12 1.7-.77a.92.9 22.8 01.76-.3q1.09.12 3.56-.45 38.26-8.69 148.2-34.33 22.93-5.35 26.63-6.16 8.15-1.79 20.14-4.56 85.09-19.71 363.32-84.05 2.85-.66 4.9-1.24c7.03-1.98 14.4-3.43 23.38-5.5Q1496.84.85 1500 .8" vector-effect="non-scaling-stroke"/><path stroke="#ffff80" d="M1500 60.46q-.56.27-.3.99" vector-effect="non-scaling-stroke"/><path stroke="#80c669" d="m1499.7 61.45-636.74 104.2a1 1 0 00-.76 1.41q2.37 5.39 3.31 11.29a.63.62-2.9 00.58.52l341.12 15.45" vector-effect="non-scaling-stroke"/><path stroke="#80cc1a" d="M1207.21 194.32q.69.2 1.5.07" vector-effect="non-scaling-stroke"/><path stroke="#80c669" d="m1208.71 194.39 74 3.41" vector-effect="non-scaling-stroke"/><path stroke="#80cc1a" d="M1282.71 197.8q.7.28 1.58.11" vector-effect="non-scaling-stroke"/><path stroke="#80c669" d="m1284.29 197.91 176.92 7.87" vector-effect="non-scaling-stroke"/><path stroke="#80cc1a" d="M1461.21 205.78q.41.26 1.09.18" vector-effect="non-scaling-stroke"/><path stroke="#80c669" d="m1462.3 205.96 37.4 1.56" vector-effect="non-scaling-stroke"/><path stroke="#ffff80" d="M1499.7 207.52q-.07.56.3.73m0 58.25q-.28.22-.3.8" vector-effect="non-scaling-stroke"/><path stroke="#80c669" d="m1499.7 267.3-630.24-70.16a.62.61 2.5 00-.68.62l.16 13.48a1.06 1.05-81.6 00.73.99l629.98 204.82" vector-effect="non-scaling-stroke"/><path stroke="#ffff80" d="M1499.65 417.05q.11.34.35.45m0 65.24q-.28.34-.34 1.02" vector-effect="non-scaling-stroke"/><path stroke="#80c669" d="M1499.66 483.76Q1214.61 369.85 929.58 255.9q-46.99-18.78-51.6-20.77-2.24-.96-7.01-2.63c-1.4-.49-2.56-1.42-4.19-1.48a.7.7 0 00-.71.51l-2.83 10.51a1.3 1.3 0 00.58 1.47l584.53 362.9" vector-effect="non-scaling-stroke"/><path stroke="#ffff80" d="M1448.35 606.41q-1.45 1.19-3.41.62-.59-.17-2.47.27a1.75 1.62 35.9 01-.41.05l-52.34.62a2.18 1.71 33.3 00-.35.03l-3.12.62a.69.61-48.6 01-.16.02l-44.46.47" vector-effect="non-scaling-stroke"/><path stroke="#80c669" d="M1341.63 609.11q-.26-.65-.75-1-480.41-343.77-480.6-343.87-1.27-.72-4.11-3.23a1.17 1.16 35.7 00-1.78.29l-5.3 9.17a1.04 1.02-52.9 00.16 1.24l335.33 336.54" vector-effect="non-scaling-stroke"/><path stroke="#ffff80" d="M1184.58 608.25q-.13 1.03-1.08 1.02l-18.37-.14c-5.84-.04-11.41-1.23-16.51-.56-6.85.9-13.49.64-22.26.91a1.39 1.38 23.7 00-.83.32l-.25.23a1.1 1.09-51.1 01-1.25.14q-1.59-.87-3.44.35a1.06 1.05-57.9 01-.72.17q-.64-.06-.7-.38" vector-effect="non-scaling-stroke"/><path stroke="#80c669" d="M1119.17 610.31 836.85 286.8a1 1 0 00-1.42-.1l-10.56 9.24a1.4 1.4 0 00-.28 1.78l271.07 461.24" vector-effect="non-scaling-stroke"/><path stroke="#ffff80" d="m1095.66 758.96-2.63 1.79a2.96 2.79 21.2 01-1.11.45q-1.81.31-2.53.94c-1.36 1.19-3.44.87-5.2 2.01-.92.6-2.37.4-3 .8q-2.17 1.38-4.92 1.49a3.84 3.72-58.2 00-1.51.38q-2.02.96-2.51.96-4.94.04-8.42 1.44a1.22 1.16-55.8 01-.37.08l-7.61.57a1.42 1.28 29.5 00-.49.11q-3.27 1.36-8.58 1.21-1.7-.05-3.23.93a1.24 1.22-54.4 01-.92.16l-1.88-.43" vector-effect="non-scaling-stroke"/><path stroke="#80c669" d="M1040.75 771.85 890.48 472.54" vector-effect="non-scaling-stroke"/><path stroke="#ffff80" d="M890.48 472.54q-2.89-6.34-8.56-20.9-.64-1.63-.57-2.86a.43.43 0 00-.48-.44q-1.3.16-1.87 1.22" vector-effect="non-scaling-stroke"/><path stroke="#80c669" d="m879 449.56-71.19-141.8a.56.56 0 00-.72-.26l-14.87 6.3a.55.55 0 00-.31.65q31.41 110.74 58.25 205.57.11.39.63.79" vector-effect="non-scaling-stroke"/><path stroke="#ffff80" d="m850.79 520.81-21.93 57.23a.6.59-88.7 01-.35.34q-.26.09-.39.03" vector-effect="non-scaling-stroke"/><path stroke="#80c669" d="m828.12 578.41-55.26-258.93a.72.71-8.2 00-.76-.56l-12.73.94a.96.95 86.9 00-.88.99c.64 16.57 1.58 34.63 2.15 52.74q.16 5.05.59 11.66.86 13.14 1.34 41.46" vector-effect="non-scaling-stroke"/><path stroke="#ffff80" d="m762.57 426.71-8.87-17.01a.44.44 0 00-.78.01q-5.34 10.87-11.16 22.04c-.77 1.48-1.02 3.01-1.99 4.44q-1.15 1.68-2.45 5.6-.29.87-1.5.48" vector-effect="non-scaling-stroke"/><path stroke="#80c669" d="m735.82 442.27 2.88-122.84a.7.7 0 00-.57-.69l-11.36-1.86a.5.5 0 00-.57.39l-53.75 251.57" vector-effect="non-scaling-stroke"/><path stroke="#ffff80" d="M672.45 568.84c-2.21-1.13-1.86-3.67-2.46-5.19q-2.14-5.34-4.07-9.35c-.41-.85-.09-1.6-.58-2.26q-.3-.42-.58-1.12-6.07-15.51-8.11-20.94-1.34-3.54-3.01-7.4c-1.72-3.97-3.28-6.85-3.31-9.59" vector-effect="non-scaling-stroke"/><path stroke="#80c669" d="m650.33 512.99 57.04-202.28a.5.5 0 00-.24-.6l-12.94-7.47a.78.77-61.7 00-1.08.33L457.36 771.56" vector-effect="non-scaling-stroke"/><path stroke="#ffff80" d="m457.36 771.56-13.7-1.87a1.53 1.48 46 00-.3-.01q-4.81.23-8.31-1.17a3.27 3.21-30.3 00-.83-.21l-6.13-.69a2.21 2.19-26.8 01-.86-.28q-1.76-1.01-4.7-1.12a2.36 2.31 61.4 01-1.17-.36q-1.93-1.2-4.25-1.2a1.47 1.45 71.5 01-1.17-.59l-.04-.06a2.43 2.41-18.2 00-1.8-.9q-2.5-.11-3.45-1.15a1.86 1.8 72.4 00-1.04-.56q-3.2-.55-4.54-2.84a1.08 1.02 87.1 00-.44-.42l-.65-.34" vector-effect="non-scaling-stroke"/><path stroke="#80c669" d="M403.98 757.79 677.7 291.36a1.12 1.11 37.6 00-.18-1.35l-9.44-9.44a.66.65 43 00-.96.03L379.88 609.75" vector-effect="non-scaling-stroke"/><path stroke="#80cc1a" d="M379.88 609.75q-.51-.16-1.1.11" vector-effect="non-scaling-stroke"/><path stroke="#ffff80" d="M378.78 609.86q-8.41-.72-16.87-.73c-1.76 0-3.08-.29-4.66-.62a8.51 8.3 50.1 00-1.47-.15q-8.54-.07-14.77.06-.32.01-1.11.45a1.86 1.8-59.3 01-.92.25l-23.55.13" vector-effect="non-scaling-stroke"/><path stroke="#80c669" d="m315.43 609.25 340.08-343.71a1.77 1.75 54.2 00.32-2.02l-4.03-8.08a.66.66 0 00-.98-.24L156.73 609.07" vector-effect="non-scaling-stroke"/><path stroke="#ffff80" d="M156.73 609.07q-13.45.14-26.93.06-5.55-.04-9.23-.33c-18.75-1.46-37.25-1.08-55.44-1.46a1.95 1.82-30.7 01-.79-.17q-2.3-1.01-4.09-.16c-2.15 1.02-4.26-.12-6.39-.39a1.67 1.66-53.3 00-.94.14q-1.95.88-3.21-.39" vector-effect="non-scaling-stroke"/><path stroke="#80c669" d="M49.71 606.37q.99-.48 3.57-2.09 508.61-315.54 509.2-316.03.89-.75 3.23-2.07 4.04-2.28 19.73-12.22.89-.57 1.11-.8a1.27.07-31.1 01.79-.54l56.64-34.78a1 1 0 00.45-1.08l-2.18-9.64a.35.35 0 00-.46-.25q-32.36 12.92-50.27 20.17-25.06 10.13-30.48 12.09-1.32.48-1.81.27a.44.44 0 00-.61.44q.06.94-.92.79a.86.78 36.5 00-.4.04q-33.65 13.39-67.44 26.89-84.77 33.84-168.11 67.19-5.97 2.39-7.73 2.96-.21-.03-.34.15-.14.2-.27.25-62 24.74-228.66 91.38-.73.29-1.1.3a.16.16 0 00-.12.27q.08.08 0 .04-.21-.11-58.95 23.44-11.83 4.74-23.32 8.94-.46.16-1.03-.02" vector-effect="non-scaling-stroke"/><path stroke="#ffff80" d="M.23 482.46q.03-.61-.23-.84" vector-effect="non-scaling-stroke"/><path stroke="#80c669" d="M0 416.68q8.45-2.51 16.8-5.23 365.07-119 543.26-176.91 18.7-6.07 47.47-15.32.05-.02.46-.32a.42.24-60.5 01.1-.06l31.09-9.9a1.66 1.65-9 001.15-1.57v-10.01a1.42 1.42 0 00-1.97-1.31q-1.05.44-1.6.46-6.35.21-14.78 1.46c-4.04.6-7.67.56-12.2 1.3q-5.5.91-9.52 1.04c-2.71.09-5.43.68-9.02 1.07q-53.77 5.9-184.73 20.65-60.13 6.77-390.01 43.46c-5.42.6-10.78 1.46-16.23 1.73" vector-effect="non-scaling-stroke"/><path stroke="#ffff80" d="M.27 267.22q.12-.91-.27-.92m0-58.03q.28-.21.28-.87" vector-effect="non-scaling-stroke"/><path stroke="#80c669" d="m.28 207.4 114.75-5.04" vector-effect="non-scaling-stroke"/><path stroke="#80cc1a" d="M115.03 202.36q.55.16 1.01-.07" vector-effect="non-scaling-stroke"/><path stroke="#80c669" d="m116.04 202.29 460-20.85" vector-effect="non-scaling-stroke"/><path stroke="#80cc1a" d="m576.04 181.44 1.93-.09" vector-effect="non-scaling-stroke"/><path stroke="#80c669" d="m577.97 181.35 65.06-2.88a.75.75 0 00.7-.56l2.61-9.69a.7.7 0 00-.56-.86l-498.14-81.6a.76.7 47.4 00-.12-.01c-3.21-.07-6.01-.97-9.61-1.54q-29.27-4.61-45.73-7.34-33.65-5.58-76.62-12.73-7.64-1.27-15.3-2.29" vector-effect="non-scaling-stroke"/><path stroke="#ffff80" d="M.26 61.85Q.23 61.24 0 61" vector-effect="non-scaling-stroke"/><path stroke="#80cc1a" d="M587.48 273.04a.13.13 0 00-.25-.04q-.05.2.02.22.22.03.23-.18" vector-effect="non-scaling-stroke"/><path stroke="#80c6e9" d="M411 0q-.49.39-1.47.29M528.5 0q.21.18.54.28M571.75 0q-.22.31-.79.36M619.75 0q.11.15.3.21M677.21 0l.31.31M701.24 0q-.07.19-.17.3M739.4 0l-.08.29M761.16 0q-.04.17-.14.3m41.46-.3.05.22m23.6-.22q-.07.21-.35.36M858 0l.11.24M887.63 0q-.14.18-.39.33M978.72 0q-.26.24-.74.34m96.77-.34q.4.26.96.31M1158.5 0l-1.73.61m339.6-.61 3.63.42m0 61.08-.3-.05M.26 61.85q-.09.02-.26.15m1500 145.23-.3.29" vector-effect="non-scaling-stroke"/><path stroke="#019383" d="M1462.3 205.96q-.33-.34-1.09-.18m-176.92-7.87-1.58-.11m-74-3.41q-.72-.27-1.5-.07m-629.24-12.97-1.93.09m-460 20.85-1.01.07" vector-effect="non-scaling-stroke"/><path stroke="#80c6e9" d="m.28 207.4-.28.12m0 60.23q.17-.23.27-.53m1499.43.08q.12.19.3.33m0 149.03q-.21.15-.35.39M49.71 606.37 0 604.41m0-121.66q.16-.11.23-.29m1499.43 1.3.34.24m0 120.27-51.65 2.14m-1132.92 2.84q-79.18 1.01-158.7-.18m1184.9.04q-77.57 1.12-155.13.16-.99-.02-1.92-1.02m-780.6 149.54q-.4.18-.72-.01-5.03-3.05-8.28-8.16c-4.91-7.73-2.63-18.02 1.54-25.68q5.5-10.08 14.72-20.32 3.82-4.24 9.93-8.77c14.03-10.42 45.61-35.48 38.26-55.2-2.97-7.95-11.56-13.7-19.22-16.87-18.9-7.83-39.99-10.73-60.34-12.66" vector-effect="non-scaling-stroke"/><path stroke="#019383" d="m379.87 610.12.01-.37" vector-effect="non-scaling-stroke"/><path stroke="#80c6e9" d="M1119.17 610.31q-22.26 1.84-43.62 7.31-11.45 2.93-21.02 8.13-4.95 2.69-8.86 6.86c-13.45 14.33 1.08 33.07 11.54 43.33q11.1 10.89 22.98 19.41 4.75 3.4 8.57 7.55 8.33 9.07 14.38 19.17 4.79 7.99 5.37 16.88c.56 8.56-5.46 15.88-12.85 20.01M650.33 512.99l-26-65.25a.4.4 0 00-.75 0l-53.71 136.22a.5.5 0 00.47.68h23.82a.43.43 0 01.39.61L514.2 752.03a.27.27 0 00.24.38l67.77.2" vector-effect="non-scaling-stroke"/><path stroke="#019383" d="M582.21 752.61q.09.22.09.42" vector-effect="non-scaling-stroke"/><path stroke="#80c669" d="m582.3 753.03-10.6 37.33" vector-effect="non-scaling-stroke"/><path stroke="#80c6e9" d="M571.7 790.36q-1.04-.01-1.7-.11-56.35-8.68-112.64-18.69m421.64-322-28.21 71.25m-114.97-78.54q-.18 1.88-.84 3.2-29.18 58.49-47.71 95.56a.3.29-76.7 00.26.43h32.21a.6.6 0 01.54.82l-42.29 99.78a.3.29 43.5 01-.54.01L663 612.16" vector-effect="non-scaling-stroke"/><path stroke="#80c669" d="m663 612.16 6.11-27.51" vector-effect="non-scaling-stroke"/><path stroke="#80c6e9" d="m669.11 584.65 8.37.02a.63.63 0 00.59-.86l-5.62-14.97m155.67 9.57-2.18 5.54a.5.5 0 00.45.67l3.06.05" vector-effect="non-scaling-stroke"/><path stroke="#80c669" d="m829.45 584.67 6.35 29.82" vector-effect="non-scaling-stroke"/><path stroke="#80c6e9" d="M835.8 614.49q.29 1.18-.09 1.95l-11.23 23.43a.5.5 0 01-.91-.02l-41.27-97.38a.72.72 0 01.66-1h35.85a.57.57 0 00.51-.83l-56.75-113.93" vector-effect="non-scaling-stroke"/><path stroke="#ffff80" d="M835.8 614.49q.76.44 1.06-.11 2.85-5.13 6.77-14.38a3.96 3.63 77.5 01.48-.83c1.53-2 2.04-4.59 3.38-6.95q1.55-2.75 1.5-3.1-.04-.29 1.06-1.74.61-.79.59-2.1a.59.58 0 00-.59-.58l-20.6-.03" vector-effect="non-scaling-stroke"/><path stroke="#80c6e9" d="m890.48 472.54 43.71 111.32a.58.57-10.5 01-.54.78h-27a.5.5 0 00-.45.72l80.18 166.48a.4.4 0 01-.35.56l-69.92.03" vector-effect="non-scaling-stroke"/><path stroke="#ffff80" d="m916.11 752.43-38.07-.16a1.75 1.69 26 00-1.02.33q-1.16.85-1.77.03c-1.27-1.68-3.03-.44-3.64.81a.57.53 48.3 00-.01.46l8.84 20.38a.14.11-83 00.03.05c1.26 1.08.84 2.38 1.37 3.55q.74 1.64.78 1.76a1.06 1.05 3.1 01-1.43 1.28q-1.29-.56-2.41-.34c-1.85.36-4.42.14-5.97-.18a1.23 1.22 32.3 00-.98.22l-.49.36" vector-effect="non-scaling-stroke"/><path stroke="#80c6e9" d="m871.34 780.98-93.67-.37" vector-effect="non-scaling-stroke"/><path stroke="#ffff80" d="m777.67 780.61-1.08-.26a1.13 1.1-54 00-.83.14c-.98.62-2.23-.05-3.41-.06q-22.49-.07-44.72.08" vector-effect="non-scaling-stroke"/><path stroke="#80c6e9" d="m727.63 780.51-100.45.09" vector-effect="non-scaling-stroke"/><path stroke="#ffff80" d="M627.18 780.6q-1.02-.34-2-.08-1.32.35-1.88.05-.96-.52-1.96.07a.87.87 0 01-1.3-.6c-.31-1.83.95-2.84 1.61-4.44q3.18-7.61 6.77-16.89a.45.12-75.1 01.04-.07l2.42-4.05a1.52 1.52 0 00-1.29-2.3q-16.23-.13-39.44-.03-1.13 0-1.31-.09-.72-.36-1.26.07-.61.48-1.75.26-1.65-.31-3.11.17" vector-effect="non-scaling-stroke"/><path stroke="#80cc9a" d="m582.72 752.67-.51-.06" vector-effect="non-scaling-stroke"/><path stroke="#ffff80" d="m669.11 584.65-19.06.34a.3.3 0 00-.26.44L663 612.16" vector-effect="non-scaling-stroke"/><path stroke="#80cc9a" d="M731.56 533.88a.48.48 0 01.44.67L631.27 772.21a.48.48 0 00.44.67h239.1a.48.48 0 00.44-.67L770.52 534.54a.48.48 0 01.44-.67h35.54a.48.48 0 00.43-.69l-53.1-106.46a.48.48 0 00-.86 0l-53.08 106.47a.48.48 0 00.43.69h31.24" vector-effect="non-scaling-stroke"/><path stroke="#80cc9a" d="M624.4 469.2a.49.49 0 00-.92 0l-42.29 107.26a.5.5 0 00.46.67h24.63a.5.5 0 01.44.7l-80.13 166.33a.5.5 0 00.44.7h112.65a.5.5 0 00.45-.3l36.37-85.84a.5.5 0 00-.01-.4l-38.76-80.49a.5.5 0 01.44-.7h28.06a.5.5 0 00.46-.67L624.4 469.2m298.02 107.84a.5.5 0 00.46-.67L880.63 469.2a.49.49 0 00-.92 0l-42.28 107.24a.5.5 0 00.46.67h24.62a.5.5 0 01.44.7l-37.79 78.45a.5.5 0 00-.01.4l37.24 87.9a.5.5 0 00.45.3h110.8a.5.5 0 00.44-.7l-80.16-166.42a.5.5 0 01.44-.7h28.06" vector-effect="non-scaling-stroke"/><path stroke="#80c6e9" d="M1040.75 771.85q-.68.22-1.26.32-54.15 9.62-108.49 18.05-2.57.4-4.13.58" vector-effect="non-scaling-stroke"/><path stroke="#80c669" d="m926.87 790.8-10.76-38.37" vector-effect="non-scaling-stroke"/><path stroke="#80cc9a" d="M1500 707.98c-4 .07-8.34.51-11.99.57q-40.76.76-102.76 2.27-52.98 1.29-98.5 3.8-25.61 1.42-49.43 4.31-11.66 1.42-18.98 3.46c-2.75.77-7.01 1.94-8.46 4.23a2.77 2.19 37.1 00.83 3.18c2.21 1.86 5.25 2.76 7.88 4.59 25.48 17.71 82.33 61.01 44.01 95.46q-5.24 4.71-6.82 5.72-15.44 9.8-32.75 15.71c-23.81 8.12-48.59 13.34-73.65 17.11q-28.39 4.27-58.21 6.82a1.05 1.04 86.8 00-.96 1.08c.39 10.68-.4 21.58-9.02 29.13q-4.51 3.95-9.6 6.17-8.46 3.7-14.35 4.94-19.3 4.09-40.75 4.49-27.9.52-57.36-1.81a.87.86 2.2 00-.93.86c.09 17.77-46.03 26.09-59.2 28.31q-6.57 1.11-15.6 1.1-261.66-.05-271.9.02-2.48.02-4-.23c-14.82-2.46-29.57-5.32-43.47-10.34-6.7-2.42-13.02-5.62-18.06-10.66q-3.17-3.18-3.71-8.75a.4.4 0 00-.43-.35q-17.94 1.54-39.83 2.26-18.56.61-32.99.01-15.75-.66-28.51-3.66c-12.53-2.95-21.52-9.4-24.94-22.32q-1.65-6.2-4.57-18.98a1.6 1.6 0 00-1.41-1.23c-30.82-2.79-62.18-6.76-91.64-12.95q-17.01-3.58-33.12-8.65c-28.43-8.94-74.32-28.62-54.96-67.55q5.03-10.12 14.79-20.44c11.18-11.81 23.87-21.86 37.39-31.22q2.26-1.57 2.94-1.8c1.84-.65 4.88-2.26 5.85-3.97a2.3 2.3 0 00-.76-3.05q-3.17-2.04-7.51-3.19-7.78-2.06-17.04-3.22-20.07-2.52-36.27-3.59-32.16-2.14-66.25-3.33c-51.75-1.81-108.62-2.79-163-4.08m378.78-98.35q.48.21 1.09.26" vector-effect="non-scaling-stroke"/><path stroke="#ffff80" d="m571.7 790.36.71.32a2.55 2.48-32.4 001.01.21q3.03-.01 6.1 1.19a1.59 1.52-30.3 00.46.11l8.23.59a1.1 1.09 68.6 01.66.29l.28.26a1.44 1.42-21.2 00.85.37l10.22.87a1.69 1.5 55.4 01.49.12l1.43.57a.63.17 30.1 00.11.03l11.5 1.04a1.99 1.96 59.5 01.67.18q.62.31 1.36.41 3.44.47 7.8.5" vector-effect="non-scaling-stroke"/><path stroke="#80c6e9" d="M623.58 797.42q.46.4 1.03.47 35.05 4.41 71.32 6.95c9.24.64 20.32.85 30.32 1.43q.75.05 1.06-.74" vector-effect="non-scaling-stroke"/><path stroke="#ffff80" d="m727.31 805.53.61.9a.96.95-17.5 00.81.42q7.78-.25 15.57.08c9.35.41 15.97-.13 24.82-.24 2.32-.02 5.35-1.23 8.49-.53q.28.06 1.11-.39" vector-effect="non-scaling-stroke"/><path stroke="#80c6e9" d="M778.72 805.77q-.12.18.26.17 30.56-1.02 60.99-4.02 17.43-1.71 35-4" vector-effect="non-scaling-stroke"/><path stroke="#ffff80" d="M874.97 797.92q1.56-.4 7.79-.55.81-.02 4.49-1.19a7.15 6.93-53.2 012.06-.33q6.63-.07 7.71-.38 5.03-1.45 9.23-1.39 1.94.02 5.89-1.05 2.54-.69 6.4-.66a1.61 1.04-38.7 00.29-.03l8.04-1.54" vector-effect="non-scaling-stroke"/><path stroke="#80cc9a" d="m1500 998.88-.48 1.12" vector-effect="non-scaling-stroke"/><path stroke="#80c669" d="m874.97 797.92-3.63-16.94m-244.16-.38-3.6 16.82" vector-effect="non-scaling-stroke"/><path stroke="#80cc1a" d="M582.3 753.03q.23-.12.42-.36" vector-effect="non-scaling-stroke"/><path stroke="#80c669" d="m777.67 780.61 1.05 25.16m-51.41-.24.32-25.02" vector-effect="non-scaling-stroke"/></g><path fill="#fff" d="M1.03 0Q.2.53.25.73q-.12.7-.25.78V0z"/><path fill="#008dd2" d="M1.36 0q1.29.39 2.52 0h334.37l1.24.42 317.63 143.35a1 .99-63 01.45 1.41l-3.43 5.94a.77.76-72.9 01-.71.38q-2.1-.17-3.66-.53Q547.68 127.28 210 48.98 98.66 23.16 9.76 2.49 3.38 1.01.25.73.2.53 1.03 0z"/><path fill="#fff" d="M3.88 0Q2.65.39 1.36 0zm338 0-2.39.42-1.24-.42z"/><path fill="#ff0" d="M408.62 0q.38.24.91.29l2.83 1.43q165.11 83.24 253.15 128.01c3.06 1.56 3.41.2 5.15-1.64q3.7-3.93 7.44-7.13a1.2 1.2 0 00-.03-1.86L529.04.28q.8.07 1.34-.28h40q.21.26.58.36 1.22.43 2.15 1.29 20.86 19.09 41.87 38.13 7.31 6.62 14.67 13.32l61.71 56.17a1.29 1.28 50.1 001.54.14l4.71-2.89a.54.53 56.4 00.15-.78L620.05.21q.71.17 1.08-.21h27.74l63.08 98.35a1.12 1.08 73 00.92.51q2.27.02 3.88-1.29a.89.88-31.2 00.26-1.02L677.52.31q.93.09.99-.31h21.99q.17.21.57.3l31.58 92.72a.7.7 0 00.95.4q2.01-.98 4.44-1.06 2.4-.07 5.97-.59a.6.59-5.8 00.51-.62L739.32.29q.94.01 1.06-.29h20.11q.2.18.53.3l-.85 90.76a.2.2-87 00.18.21l13.56 1.52a.49.48-77.8 00.52-.34L802.53.22q.83.29.97-.22h21.64q.25.24.64.36l-35.69 95.51a.84.84 0 00.48 1.08l5.3 2.1a.7.69-62.9 00.84-.28L858.11.24q.4-.05.62-.24h27.77q.23.22.74.33l-75.86 105.48a.5.5 0 00.16.74l6.14 3.55a.65.63 37.9 00.76-.08L935.97 0h40.78q.52.37 1.23.34L831.52 120.47a.3.29 48.2 00-.02.43l5.67 5.67a1.04 1.03-36.4 001.22.18q36.52-19.52 76.69-40.91 83.82-44.64 139.24-74.22c1.42-.76 2.69-1.8 3.89-2.41q6.69-3.42 14.49-7.71c.86-.47 2.03-.71 3.01-1.19q.65-.04 1.02-.31H1155l1.77.61-31.82 14.63a1.56 1.46 30.9 01-.64.14q-1.09.03-1.63.59-.39.42-1.41.82-2.34.93-19.37 8.95a.46.34-71.6 00-.13.09c-.87.81-2.06.76-3.19 1.27q-40.35 18.31-75.49 34.29-.58.27-.61.26-.51-.18-.63.07-.19.41-.61.6-30.97 13.94-113.11 51.27-2.81 1.28-4.87 1.98-.35.12-3.04 1.43-7.27 3.52-14.75 6.93-28.73 13.1-34.62 15.52-.75.3-1.24.45a.85.85 0 00-.48 1.26l4.81 7.84a1.12 1.11-22.3 001.2.5q12.85-2.95 22.64-5.37c2.96-.73 5.78-1 8.48-2.17a2.43 2.37-56.4 01.98-.21q2.29-.01 6.41-1.26 2.45-.75 5.31-1.06 1.14-.12 1.7-.77a.92.9 22.8 01.76-.3q1.09.12 3.56-.45 38.26-8.69 148.2-34.33 22.93-5.35 26.63-6.16 8.15-1.79 20.14-4.56 85.09-19.71 363.32-84.05 2.85-.66 4.9-1.24c7.03-1.98 14.4-3.43 23.38-5.5Q1496.84.85 1500 .8v59.66q-.56.27-.3.99l-636.74 104.2a1 1 0 00-.76 1.41q2.37 5.39 3.31 11.29a.63.62-2.9 00.58.52l341.12 15.45q.69.2 1.5.07l74 3.41q.7.28 1.58.11l176.92 7.87q.41.26 1.09.18l37.4 1.56q-.07.56.3.73v58.25q-.28.22-.3.8l-630.24-70.16a.62.61 2.5 00-.68.62l.16 13.48a1.06 1.05-81.6 00.73.99l629.98 204.82q.11.34.35.45v65.24q-.28.34-.34 1.02-285.05-113.91-570.08-227.86-46.99-18.78-51.6-20.77-2.24-.96-7.01-2.63c-1.4-.49-2.56-1.42-4.19-1.48a.7.7 0 00-.71.51l-2.83 10.51a1.3 1.3 0 00.58 1.47l584.53 362.9q-1.45 1.19-3.41.62-.59-.17-2.47.27a1.75 1.62 35.9 01-.41.05l-52.34.62a2.18 1.71 33.3 00-.35.03l-3.12.62a.69.61-48.6 01-.16.02l-44.46.47q-.26-.65-.75-1-480.41-343.77-480.6-343.87-1.27-.72-4.11-3.23a1.17 1.16 35.7 00-1.78.29l-5.3 9.17a1.04 1.02-52.9 00.16 1.24l335.33 336.54q-.13 1.03-1.08 1.02l-18.37-.14c-5.84-.04-11.41-1.23-16.51-.56-6.85.9-13.49.64-22.26.91a1.39 1.38 23.7 00-.83.32l-.25.23a1.1 1.09-51.1 01-1.25.14q-1.59-.87-3.44.35a1.06 1.05-57.9 01-.72.17q-.64-.06-.7-.38L836.85 286.8a1 1 0 00-1.42-.1l-10.56 9.24a1.4 1.4 0 00-.28 1.78l271.07 461.24-2.63 1.79a2.96 2.79 21.2 01-1.11.45q-1.81.31-2.53.94c-1.36 1.19-3.44.87-5.2 2.01-.92.6-2.37.4-3 .8q-2.17 1.38-4.92 1.49a3.84 3.72-58.2 00-1.51.38q-2.02.96-2.51.96-4.94.04-8.42 1.44a1.22 1.16-55.8 01-.37.08l-7.61.57a1.42 1.28 29.5 00-.49.11q-3.27 1.36-8.58 1.21-1.7-.05-3.23.93a1.24 1.22-54.4 01-.92.16l-1.88-.43-150.27-299.31q-2.89-6.34-8.56-20.9-.64-1.63-.57-2.86a.43.43 0 00-.48-.44q-1.3.16-1.87 1.22l-71.19-141.8a.56.56 0 00-.72-.26l-14.87 6.3a.55.55 0 00-.31.65q31.41 110.74 58.25 205.57.11.39.63.79l-21.93 57.23a.6.59-88.7 01-.35.34q-.26.09-.39.03l-55.26-258.93a.72.71-8.2 00-.76-.56l-12.73.94a.96.95 86.9 00-.88.99c.64 16.57 1.58 34.63 2.15 52.74q.16 5.05.59 11.66.86 13.14 1.34 41.46l-8.87-17.01a.44.44 0 00-.78.01q-5.34 10.87-11.16 22.04c-.77 1.48-1.02 3.01-1.99 4.44q-1.15 1.68-2.45 5.6-.29.87-1.5.48l2.88-122.84a.7.7 0 00-.57-.69l-11.36-1.86a.5.5 0 00-.57.39l-53.75 251.57c-2.21-1.13-1.86-3.67-2.46-5.19q-2.14-5.34-4.07-9.35c-.41-.85-.09-1.6-.58-2.26q-.3-.42-.58-1.12-6.07-15.51-8.11-20.94-1.34-3.54-3.01-7.4c-1.72-3.97-3.28-6.85-3.31-9.59l57.04-202.28a.5.5 0 00-.24-.6l-12.94-7.47a.78.77-61.7 00-1.08.33L457.36 771.56l-13.7-1.87a1.53 1.48 46 00-.3-.01q-4.81.23-8.31-1.17a3.27 3.21-30.3 00-.83-.21l-6.13-.69a2.21 2.19-26.8 01-.86-.28q-1.76-1.01-4.7-1.12a2.36 2.31 61.4 01-1.17-.36q-1.93-1.2-4.25-1.2a1.47 1.45 71.5 01-1.17-.59l-.04-.06a2.43 2.41-18.2 00-1.8-.9q-2.5-.11-3.45-1.15a1.86 1.8 72.4 00-1.04-.56q-3.2-.55-4.54-2.84a1.08 1.02 87.1 00-.44-.42l-.65-.34L677.7 291.36a1.12 1.11 37.6 00-.18-1.35l-9.44-9.44a.66.65 43 00-.96.03L379.88 609.75q-.51-.16-1.1.11-8.41-.72-16.87-.73c-1.76 0-3.08-.29-4.66-.62a8.51 8.3 50.1 00-1.47-.15q-8.54-.07-14.77.06-.32.01-1.11.45a1.86 1.8-59.3 01-.92.25l-23.55.13 340.08-343.71a1.77 1.75 54.2 00.32-2.02l-4.03-8.08a.66.66 0 00-.98-.24L156.73 609.07q-13.45.14-26.93.06-5.55-.04-9.23-.33c-18.75-1.46-37.25-1.08-55.44-1.46a1.95 1.82-30.7 01-.79-.17q-2.3-1.01-4.09-.16c-2.15 1.02-4.26-.12-6.39-.39a1.67 1.66-53.3 00-.94.14q-1.95.88-3.21-.39.99-.48 3.57-2.09 508.61-315.54 509.2-316.03.89-.75 3.23-2.07 4.04-2.28 19.73-12.22.89-.57 1.11-.8a1.27.07-31.1 01.79-.54l56.64-34.78a1 1 0 00.45-1.08l-2.18-9.64a.35.35 0 00-.46-.25q-32.36 12.92-50.27 20.17-25.06 10.13-30.48 12.09-1.32.48-1.81.27a.44.44 0 00-.61.44q.06.94-.92.79a.86.78 36.5 00-.4.04q-33.65 13.39-67.44 26.89-84.77 33.84-168.11 67.19-5.97 2.39-7.73 2.96-.21-.03-.34.15-.14.2-.27.25-62 24.74-228.66 91.38-.73.29-1.1.3a.16.16 0 00-.12.27q.08.08 0 .04-.21-.11-58.95 23.44-11.83 4.74-23.32 8.94-.46.16-1.03-.02.03-.61-.23-.84v-64.94q8.45-2.51 16.8-5.23 365.07-119 543.26-176.91 18.7-6.07 47.47-15.32.05-.02.46-.32a.42.24-60.5 01.1-.06l31.09-9.9a1.66 1.65-9 001.15-1.57v-10.01a1.42 1.42 0 00-1.97-1.31q-1.05.44-1.6.46-6.35.21-14.78 1.46c-4.04.6-7.67.56-12.2 1.3q-5.5.91-9.52 1.04c-2.71.09-5.43.68-9.02 1.07q-53.77 5.9-184.73 20.65-60.13 6.77-390.01 43.46c-5.42.6-10.78 1.46-16.23 1.73q.12-.91-.27-.92v-58.03q.28-.21.28-.87l114.75-5.04q.55.16 1.01-.07l460-20.85 1.93-.09 65.06-2.88a.75.75 0 00.7-.56l2.61-9.69a.7.7 0 00-.56-.86l-498.14-81.6a.76.7 47.4 00-.12-.01c-3.21-.07-6.01-.97-9.61-1.54q-29.27-4.61-45.73-7.34-33.65-5.58-76.62-12.73-7.64-1.27-15.3-2.29Q.23 61.24 0 61V1.51q.13-.08.25-.78 3.13.28 9.51 1.76Q98.66 23.16 210 48.98q337.68 78.3 439.77 101.99 1.56.36 3.66.53a.77.76-72.9 00.71-.38l3.43-5.94a1 .99-63 00-.45-1.41L339.49.42l2.39-.42zm178.86 273.04a.13.13 0 00-.25-.04q-.05.2.02.22.22.03.23-.18"/><path fill="#fff" d="M411 0q-.49.39-1.47.29-.53-.05-.91-.29z"/><path fill="#008dd2" d="M528.5 0q.21.18.54.28L678.07 119.1a1.2 1.2 0 01.03 1.86q-3.74 3.2-7.44 7.13c-1.74 1.84-2.09 3.2-5.15 1.64Q577.47 84.96 412.36 1.72L409.53.29q.98.1 1.47-.29z"/><path fill="#fff" d="M530.38 0q-.54.35-1.34.28-.33-.1-.54-.28zm41.37 0q-.22.31-.79.36-.37-.1-.58-.36z"/><path fill="#008dd2" d="M619.75 0q.11.15.3.21l77.71 105.53a.54.53 56.4 01-.15.78l-4.71 2.89a1.29 1.28 50.1 01-1.54-.14L629.65 53.1q-7.36-6.7-14.67-13.32-21.01-19.04-41.87-38.13-.93-.86-2.15-1.29.57-.05.79-.36z"/><path fill="#fff" d="M621.13 0q-.37.38-1.08.21-.19-.06-.3-.21z"/><path fill="#008dd2" d="m677.21 0 .31.31 39.49 96.24a.89.88-31.2 01-.26 1.02q-1.61 1.31-3.88 1.29a1.12 1.08 73 01-.92-.51L648.87 0z"/><path fill="#fff" d="M678.51 0q-.06.4-.99.31l-.31-.31zm22.73 0q-.07.19-.17.3-.4-.09-.57-.3z"/><path fill="#008dd2" d="m739.4 0-.08.29 5.2 90.86a.6.59-5.8 01-.51.62q-3.57.52-5.97.59-2.43.08-4.44 1.06a.7.7 0 01-.95-.4L701.07.3q.1-.11.17-.3z"/><path fill="#fff" d="M740.38 0q-.12.3-1.06.29l.08-.29zm20.78 0q-.04.17-.14.3-.33-.12-.53-.3z"/><path fill="#008dd2" d="m802.48 0 .05.22-28.1 92.23a.49.48-77.8 01-.52.34l-13.56-1.52a.2.2-87 01-.18-.21L761.02.3q.1-.13.14-.3z"/><path fill="#fff" d="M803.5 0q-.14.51-.97.22l-.05-.22zm22.63 0q-.07.21-.35.36-.39-.12-.64-.36z"/><path fill="#008dd2" d="m858 0 .11.24-61.4 98.53a.7.69-62.9 01-.84.28l-5.3-2.1a.84.84 0 01-.48-1.08L825.78.36q.28-.15.35-.36z"/><path fill="#fff" d="M858.73 0q-.22.19-.62.24L858 0zm28.9 0q-.14.18-.39.33-.51-.11-.74-.33z"/><path fill="#008dd2" d="M935.97 0 818.44 110.02a.65.63 37.9 01-.76.08l-6.14-3.55a.5.5 0 01-.16-.74L887.24.33q.25-.15.39-.33z"/><path fill="#fff" d="M978.72 0q-.26.24-.74.34-.71.03-1.23-.34z"/><path fill="#008dd2" d="M1074.75 0q.4.26.96.31c-.98.48-2.15.72-3.01 1.19q-7.8 4.29-14.49 7.71c-1.2.61-2.47 1.65-3.89 2.41Q998.9 41.2 915.08 85.84q-40.17 21.39-76.69 40.91a1.04 1.03-36.4 01-1.22-.18l-5.67-5.67a.3.29 48.2 01.02-.43L977.98.34q.48-.1.74-.34z"/><path fill="#fff" d="M1076.73 0q-.37.27-1.02.31-.56-.05-.96-.31zm81.77 0-1.73.61L1155 0z"/><path fill="#008dd2" d="m1496.37 0 3.63.42V.8q-3.16.05-8.45 1.27c-8.98 2.07-16.35 3.52-23.38 5.5q-2.05.58-4.9 1.24-278.23 64.34-363.32 84.05-11.99 2.77-20.14 4.56-3.7.81-26.63 6.16-109.94 25.64-148.2 34.33-2.47.57-3.56.45a.92.9 22.8 00-.76.3q-.56.65-1.7.77-2.86.31-5.31 1.06-4.12 1.25-6.41 1.26a2.43 2.37-56.4 00-.98.21c-2.7 1.17-5.52 1.44-8.48 2.17q-9.79 2.42-22.64 5.37a1.12 1.11-22.3 01-1.2-.5l-4.81-7.84a.85.85 0 01.48-1.26q.49-.15 1.24-.45 5.89-2.42 34.62-15.52 7.48-3.41 14.75-6.93 2.69-1.31 3.04-1.43 2.06-.7 4.87-1.98 82.14-37.33 113.11-51.27.42-.19.61-.6.12-.25.63-.07.03.01.61-.26 35.14-15.98 75.49-34.29c1.13-.51 2.32-.46 3.19-1.27a.46.34-71.6 01.13-.09q17.03-8.02 19.37-8.95 1.02-.4 1.41-.82.54-.56 1.63-.59a1.56 1.46 30.9 00.64-.14L1156.77.61l1.73-.61z"/><path fill="#fff" d="M1500 0v.42l-3.63-.42zm0 60.46v1.04l-.3-.05q-.26-.72.3-.99M.26 61.85q-.09.02-.26.15v-1q.23.24.26.85"/><path fill="#008dd2" d="m1499.7 61.45.3.05v145.73l-.3.29-37.4-1.56q-.33-.34-1.09-.18l-176.92-7.87-1.58-.11-74-3.41q-.72-.27-1.5-.07l-341.12-15.45a.63.62-2.9 01-.58-.52q-.94-5.9-3.31-11.29a1 1 0 01.76-1.41zm-921.73 119.9-1.93.09-460 20.85-1.01.07L.28 207.4l-.28.12V62q.17-.13.26-.15 7.66 1.02 15.3 2.29 42.97 7.15 76.62 12.73 16.46 2.73 45.73 7.34c3.6.57 6.4 1.47 9.61 1.54a.76.7 47.4 01.12.01l498.14 81.6a.7.7 0 01.56.86l-2.61 9.69a.75.75 0 01-.7.56z"/><path fill="#019934" d="m577.97 181.35-1.93.09zm630.74 13.04q-.81.13-1.5-.07.78-.2 1.5.07"/><path fill="#008dd2" d="M0 416.68V267.75q.17-.23.27-.53c5.45-.27 10.81-1.13 16.23-1.73q329.88-36.69 390.01-43.46 130.96-14.75 184.73-20.65c3.59-.39 6.31-.98 9.02-1.07q4.02-.13 9.52-1.04c4.53-.74 8.16-.7 12.2-1.3q8.43-1.25 14.78-1.46.55-.02 1.6-.46a1.42 1.42 0 011.97 1.31v10.01a1.66 1.65-9 01-1.15 1.57l-31.09 9.9a.42.24-60.5 00-.1.06q-.41.3-.46.32-28.77 9.25-47.47 15.32Q381.87 292.45 16.8 411.45q-8.35 2.72-16.8 5.23M1499.7 267.3q.12.19.3.33v149.03q-.21.15-.35.39L869.67 212.23a1.06 1.05-81.6 01-.73-.99l-.16-13.48a.62.61 2.5 01.68-.62z"/><path fill="#019934" d="M1284.29 197.91q-.88.17-1.58-.11zm-1168.25 4.38q-.46.23-1.01.07zm1346.26 3.67q-.68.08-1.09-.18.76-.16 1.09.18"/><path fill="#fff" d="M1500 207.23v1.02q-.37-.17-.3-.73zM.28 207.4q0 .66-.28.87v-.75z"/><path fill="#008dd2" d="M49.71 606.37 0 604.41V482.75q.16-.11.23-.29.57.18 1.03.02 11.49-4.2 23.32-8.94 58.74-23.55 58.95-23.44.08.04 0-.04a.16.16 0 01.12-.27q.37-.01 1.1-.3 166.66-66.64 228.66-91.38.13-.05.27-.25.13-.18.34-.15 1.76-.57 7.73-2.96 83.34-33.35 168.11-67.19 33.79-13.5 67.44-26.89a.86.78 36.5 01.4-.04q.98.15.92-.79a.44.44 0 01.61-.44q.49.21 1.81-.27 5.42-1.96 30.48-12.09 17.91-7.25 50.27-20.17a.35.35 0 01.46.25l2.18 9.64a1 1 0 01-.45 1.08l-56.64 34.78a1.27.07-31.1 00-.79.54q-.22.23-1.11.8-15.69 9.94-19.73 12.22-2.34 1.32-3.23 2.07-.59.49-509.2 316.03-2.58 1.61-3.57 2.09m1449.95-122.61.34.24v120.27l-51.65 2.14-584.53-362.9a1.3 1.3 0 01-.58-1.47l2.83-10.51a.7.7 0 01.71-.51c1.63.06 2.79.99 4.19 1.48q4.77 1.67 7.01 2.63 4.61 1.99 51.6 20.77 285.03 113.95 570.08 227.86M315.43 609.25q-79.18 1.01-158.7-.18L650.82 255.2a.66.66 0 01.98.24l4.03 8.08a1.77 1.75 54.2 01-.32 2.02zm1026.2-.14q-77.57 1.12-155.13.16-.99-.02-1.92-1.02L849.25 271.71a1.04 1.02-52.9 01-.16-1.24l5.3-9.17a1.17 1.16 35.7 011.78-.29q2.84 2.51 4.11 3.23.19.1 480.6 343.87.49.35.75 1"/><path fill="#fff" d="M.27 267.22q-.1.3-.27.53v-1.45q.39.01.27.92M1500 266.5v1.13q-.18-.14-.3-.33.02-.58.3-.8"/><path fill="#019934" d="M587.48 273.04q-.01.21-.23.18-.07-.02-.02-.22a.13.13 0 01.25.04"/><path fill="#008dd2" d="M403.98 757.79q-.4.18-.72-.01-5.03-3.05-8.28-8.16c-4.91-7.73-2.63-18.02 1.54-25.68q5.5-10.08 14.72-20.32 3.82-4.24 9.93-8.77c14.03-10.42 45.61-35.48 38.26-55.2-2.97-7.95-11.56-13.7-19.22-16.87-18.9-7.83-39.99-10.73-60.34-12.66l.01-.37L667.12 280.6a.66.65 43 01.96-.03l9.44 9.44a1.12 1.11 37.6 01.18 1.35zm715.19-147.48q-22.26 1.84-43.62 7.31-11.45 2.93-21.02 8.13-4.95 2.69-8.86 6.86c-13.45 14.33 1.08 33.07 11.54 43.33q11.1 10.89 22.98 19.41 4.75 3.4 8.57 7.55 8.33 9.07 14.38 19.17 4.79 7.99 5.37 16.88c.56 8.56-5.46 15.88-12.85 20.01L824.59 297.72a1.4 1.4 0 01.28-1.78l10.56-9.24a1 1 0 011.42.1zm-468.84-97.32-26-65.25a.4.4 0 00-.75 0l-53.71 136.22a.5.5 0 00.47.68h23.82a.43.43 0 01.39.61L514.2 752.03a.27.27 0 00.24.38l67.77.2q.09.22.09.42l-10.6 37.33q-1.04-.01-1.7-.11-56.35-8.68-112.64-18.69l235.75-468.59a.78.77-61.7 011.08-.33l12.94 7.47a.5.5 0 01.24.6zM879 449.56l-28.21 71.25q-.52-.4-.63-.79-26.84-94.83-58.25-205.57a.55.55 0 01.31-.65l14.87-6.3a.56.56 0 01.72.26zm-143.18-7.29q-.18 1.88-.84 3.2-29.18 58.49-47.71 95.56a.3.29-76.7 00.26.43h32.21a.6.6 0 01.54.82l-42.29 99.78a.3.29 43.5 01-.54.01L663 612.16l6.11-27.51 8.37.02a.63.63 0 00.59-.86l-5.62-14.97 53.75-251.57a.5.5 0 01.57-.39l11.36 1.86a.7.7 0 01.57.69zm92.3 136.14-2.18 5.54a.5.5 0 00.45.67l3.06.05 6.35 29.82q.29 1.18-.09 1.95l-11.23 23.43a.5.5 0 01-.91-.02l-41.27-97.38a.72.72 0 01.66-1h35.85a.57.57 0 00.51-.83l-56.75-113.93q-.48-28.32-1.34-41.46-.43-6.61-.59-11.66c-.57-18.11-1.51-36.17-2.15-52.74a.96.95 86.9 01.88-.99l12.73-.94a.72.71-8.2 01.76.56z"/><path fill="#fff" d="m762.57 426.71 56.75 113.93a.57.57 0 01-.51.83h-35.85a.72.72 0 00-.66 1l41.27 97.38a.5.5 0 00.91.02l11.23-23.43q.38-.77.09-1.95.76.44 1.06-.11 2.85-5.13 6.77-14.38a3.96 3.63 77.5 01.48-.83c1.53-2 2.04-4.59 3.38-6.95q1.55-2.75 1.5-3.1-.04-.29 1.06-1.74.61-.79.59-2.1a.59.58 0 00-.59-.58l-20.6-.03-3.06-.05a.5.5 0 01-.45-.67l2.18-5.54q.13.06.39-.03a.6.59-88.7 00.35-.34l21.93-57.23L879 449.56q.57-1.06 1.87-1.22a.43.43 0 01.48.44q-.07 1.23.57 2.86 5.67 14.56 8.56 20.9l43.71 111.32a.58.57-10.5 01-.54.78h-27a.5.5 0 00-.45.72l80.18 166.48a.4.4 0 01-.35.56l-69.92.03-38.07-.16a1.75 1.69 26 00-1.02.33q-1.16.85-1.77.03c-1.27-1.68-3.03-.44-3.64.81a.57.53 48.3 00-.01.46l8.84 20.38a.14.11-83 00.03.05c1.26 1.08.84 2.38 1.37 3.55q.74 1.64.78 1.76a1.06 1.05 3.1 01-1.43 1.28q-1.29-.56-2.41-.34c-1.85.36-4.42.14-5.97-.18a1.23 1.22 32.3 00-.98.22l-.49.36-93.67-.37-1.08-.26a1.13 1.1-54 00-.83.14c-.98.62-2.23-.05-3.41-.06q-22.49-.07-44.72.08l-100.45.09q-1.02-.34-2-.08-1.32.35-1.88.05-.96-.52-1.96.07a.87.87 0 01-1.3-.6c-.31-1.83.95-2.84 1.61-4.44q3.18-7.61 6.77-16.89a.45.12-75.1 01.04-.07l2.42-4.05a1.52 1.52 0 00-1.29-2.3q-16.23-.13-39.44-.03-1.13 0-1.31-.09-.72-.36-1.26.07-.61.48-1.75.26-1.65-.31-3.11.17l-.51-.06-67.77-.2a.27.27 0 01-.24-.38l80.35-166.78a.43.43 0 00-.39-.61h-23.82a.5.5 0 01-.47-.68l53.71-136.22a.4.4 0 01.75 0l26 65.25c.03 2.74 1.59 5.62 3.31 9.59q1.67 3.86 3.01 7.4 2.04 5.43 8.11 20.94.28.7.58 1.12c.49.66.17 1.41.58 2.26q1.93 4.01 4.07 9.35c.6 1.52.25 4.06 2.46 5.19l5.62 14.97a.63.63 0 01-.59.86l-8.37-.02-19.06.34a.3.3 0 00-.26.44L663 612.16l14.45 29.91a.3.29 43.5 00.54-.01l42.29-99.78a.6.6 0 00-.54-.82h-32.21a.3.29-76.7 01-.26-.43q18.53-37.07 47.71-95.56.66-1.32.84-3.2 1.21.39 1.5-.48 1.3-3.92 2.45-5.6c.97-1.43 1.22-2.96 1.99-4.44q5.82-11.17 11.16-22.04a.44.44 0 01.78-.01zm-31.01 107.17a.48.48 0 01.44.67L631.27 772.21a.48.48 0 00.44.67h239.1a.48.48 0 00.44-.67L770.52 534.54a.48.48 0 01.44-.67h35.54a.48.48 0 00.43-.69l-53.1-106.46a.48.48 0 00-.86 0l-53.08 106.47a.48.48 0 00.43.69zM624.4 469.2a.49.49 0 00-.92 0l-42.29 107.26a.5.5 0 00.46.67h24.63a.5.5 0 01.44.7l-80.13 166.33a.5.5 0 00.44.7h112.65a.5.5 0 00.45-.3l36.37-85.84a.5.5 0 00-.01-.4l-38.76-80.49a.5.5 0 01.44-.7h28.06a.5.5 0 00.46-.67zm298.02 107.84a.5.5 0 00.46-.67L880.63 469.2a.49.49 0 00-.92 0l-42.28 107.24a.5.5 0 00.46.67h24.62a.5.5 0 01.44.7l-37.79 78.45a.5.5 0 00-.01.4l37.24 87.9a.5.5 0 00.45.3h110.8a.5.5 0 00.44-.7l-80.16-166.42a.5.5 0 01.44-.7zM1500 416.66v.84q-.24-.11-.35-.45.14-.24.35-.39"/><path fill="#019934" d="M731.56 533.88h-31.24a.48.48 0 01-.43-.69l53.08-106.47a.48.48 0 01.86 0l53.1 106.46a.48.48 0 01-.43.69h-35.54a.48.48 0 00-.44.67l100.73 237.67a.48.48 0 01-.44.67h-239.1a.48.48 0 01-.44-.67L732 534.55a.48.48 0 00-.44-.67"/><path fill="#019934" d="m624.4 469.2 42.29 107.26a.5.5 0 01-.46.67h-28.06a.5.5 0 00-.44.7l38.76 80.49a.5.5 0 01.01.4l-36.37 85.84a.5.5 0 01-.45.3H527.03a.5.5 0 01-.44-.7l80.13-166.33a.5.5 0 00-.44-.7h-24.63a.5.5 0 01-.46-.67l42.29-107.26a.49.49 0 01.92 0m298.02 107.84h-28.06a.5.5 0 00-.44.7l80.16 166.42a.5.5 0 01-.44.7h-110.8a.5.5 0 01-.45-.3l-37.24-87.9a.5.5 0 01.01-.4l37.79-78.45a.5.5 0 00-.44-.7h-24.62a.5.5 0 01-.46-.67l42.28-107.24a.49.49 0 01.92 0l42.25 107.17a.5.5 0 01-.46.67"/><path fill="#008dd2" d="M1040.75 771.85q-.68.22-1.26.32-54.15 9.62-108.49 18.05-2.57.4-4.13.58l-10.76-38.37 69.92-.03a.4.4 0 00.35-.56L906.2 585.36a.5.5 0 01.45-.72h27a.58.57-10.5 00.54-.78l-43.71-111.32z"/><path fill="#fff" d="M.23 482.46q-.07.18-.23.29v-1.13q.26.23.23.84m1499.77.28V484l-.34-.24q.06-.68.34-1.02"/><path fill="#ff0" d="M669.11 584.65 663 612.16l-13.21-26.73a.3.3 0 01.26-.44zm166.69 29.84-6.35-29.82 20.6.03a.59.58 0 01.59.58q.02 1.31-.59 2.1-1.1 1.45-1.06 1.74.05.35-1.5 3.1c-1.34 2.36-1.85 4.95-3.38 6.95a3.96 3.63 77.5 00-.48.83q-3.92 9.25-6.77 14.38-.3.55-1.06.11"/><path fill="#fff" d="M1500 604.27v103.71c-4 .07-8.34.51-11.99.57q-40.76.76-102.76 2.27-52.98 1.29-98.5 3.8-25.61 1.42-49.43 4.31-11.66 1.42-18.98 3.46c-2.75.77-7.01 1.94-8.46 4.23a2.77 2.19 37.1 00.83 3.18c2.21 1.86 5.25 2.76 7.88 4.59 25.48 17.71 82.33 61.01 44.01 95.46q-5.24 4.71-6.82 5.72-15.44 9.8-32.75 15.71c-23.81 8.12-48.59 13.34-73.65 17.11q-28.39 4.27-58.21 6.82a1.05 1.04 86.8 00-.96 1.08c.39 10.68-.4 21.58-9.02 29.13q-4.51 3.95-9.6 6.17-8.46 3.7-14.35 4.94-19.3 4.09-40.75 4.49-27.9.52-57.36-1.81a.87.86 2.2 00-.93.86c.09 17.77-46.03 26.09-59.2 28.31q-6.57 1.11-15.6 1.1-261.66-.05-271.9.02-2.48.02-4-.23c-14.82-2.46-29.57-5.32-43.47-10.34-6.7-2.42-13.02-5.62-18.06-10.66q-3.17-3.18-3.71-8.75a.4.4 0 00-.43-.35q-17.94 1.54-39.83 2.26-18.56.61-32.99.01-15.75-.66-28.51-3.66c-12.53-2.95-21.52-9.4-24.94-22.32q-1.65-6.2-4.57-18.98a1.6 1.6 0 00-1.41-1.23c-30.82-2.79-62.18-6.76-91.64-12.95q-17.01-3.58-33.12-8.65c-28.43-8.94-74.32-28.62-54.96-67.55q5.03-10.12 14.79-20.44c11.18-11.81 23.87-21.86 37.39-31.22q2.26-1.57 2.94-1.8c1.84-.65 4.88-2.26 5.85-3.97a2.3 2.3 0 00-.76-3.05q-3.17-2.04-7.51-3.19-7.78-2.06-17.04-3.22-20.07-2.52-36.27-3.59-32.16-2.14-66.25-3.33c-51.75-1.81-108.62-2.79-163-4.08v-103.8l49.71 1.96q1.26 1.27 3.21.39a1.67 1.66-53.3 01.94-.14c2.13.27 4.24 1.41 6.39.39q1.79-.85 4.09.16a1.95 1.82-30.7 00.79.17c18.19.38 36.69 0 55.44 1.46q3.68.29 9.23.33 13.48.08 26.93-.06 79.52 1.19 158.7.18l23.55-.13a1.86 1.8-59.3 00.92-.25q.79-.44 1.11-.45 6.23-.13 14.77-.06a8.51 8.3 50.1 011.47.15c1.58.33 2.9.62 4.66.62q8.46.01 16.87.73.48.21 1.09.26c20.35 1.93 41.44 4.83 60.34 12.66 7.66 3.17 16.25 8.92 19.22 16.87 7.35 19.72-24.23 44.78-38.26 55.2q-6.11 4.53-9.93 8.77-9.22 10.24-14.72 20.32c-4.17 7.66-6.45 17.95-1.54 25.68q3.25 5.11 8.28 8.16.32.19.72.01l.65.34a1.08 1.02 87.1 01.44.42q1.34 2.29 4.54 2.84a1.86 1.8 72.4 011.04.56q.95 1.04 3.45 1.15a2.43 2.41-18.2 011.8.9l.04.06a1.47 1.45 71.5 001.17.59q2.32 0 4.25 1.2a2.36 2.31 61.4 001.17.36q2.94.11 4.7 1.12a2.21 2.19-26.8 00.86.28l6.13.69a3.27 3.21-30.3 01.83.21q3.5 1.4 8.31 1.17a1.53 1.48 46 01.3.01l13.7 1.87q56.29 10.01 112.64 18.69.66.1 1.7.11l.71.32a2.55 2.48-32.4 001.01.21q3.03-.01 6.1 1.19a1.59 1.52-30.3 00.46.11l8.23.59a1.1 1.09 68.6 01.66.29l.28.26a1.44 1.42-21.2 00.85.37l10.22.87a1.69 1.5 55.4 01.49.12l1.43.57a.63.17 30.1 00.11.03l11.5 1.04a1.99 1.96 59.5 01.67.18q.62.31 1.36.41 3.44.47 7.8.5.46.4 1.03.47 35.05 4.41 71.32 6.95c9.24.64 20.32.85 30.32 1.43q.75.05 1.06-.74l.61.9a.96.95-17.5 00.81.42q7.78-.25 15.57.08c9.35.41 15.97-.13 24.82-.24 2.32-.02 5.35-1.23 8.49-.53q.28.06 1.11-.39-.12.18.26.17 30.56-1.02 60.99-4.02 17.43-1.71 35-4 1.56-.4 7.79-.55.81-.02 4.49-1.19a7.15 6.93-53.2 012.06-.33q6.63-.07 7.71-.38 5.03-1.45 9.23-1.39 1.94.02 5.89-1.05 2.54-.69 6.4-.66a1.61 1.04-38.7 00.29-.03l8.04-1.54q1.56-.18 4.13-.58 54.34-8.43 108.49-18.05.58-.1 1.26-.32l1.88.43a1.24 1.22-54.4 00.92-.16q1.53-.98 3.23-.93 5.31.15 8.58-1.21a1.42 1.28 29.5 01.49-.11l7.61-.57a1.22 1.16-55.8 00.37-.08q3.48-1.4 8.42-1.44.49 0 2.51-.96a3.84 3.72-58.2 011.51-.38q2.75-.11 4.92-1.49c.63-.4 2.08-.2 3-.8 1.76-1.14 3.84-.82 5.2-2.01q.72-.63 2.53-.94a2.96 2.79 21.2 001.11-.45l2.63-1.79c7.39-4.13 13.41-11.45 12.85-20.01q-.58-8.89-5.37-16.88-6.05-10.1-14.38-19.17-3.82-4.15-8.57-7.55-11.88-8.52-22.98-19.41c-10.46-10.26-24.99-29-11.54-43.33q3.91-4.17 8.86-6.86 9.57-5.2 21.02-8.13 21.36-5.47 43.62-7.31.06.32.7.38a1.06 1.05-57.9 00.72-.17q1.85-1.22 3.44-.35a1.1 1.09-51.1 001.25-.14l.25-.23a1.39 1.38 23.7 01.83-.32c8.77-.27 15.41-.01 22.26-.91 5.1-.67 10.67.52 16.51.56l18.37.14q.95.01 1.08-1.02.93 1 1.92 1.02 77.56.96 155.13-.16l44.46-.47a.69.61-48.6 00.16-.02l3.12-.62a2.18 1.71 33.3 01.35-.03l52.34-.62a1.75 1.62 35.9 00.41-.05q1.88-.44 2.47-.27 1.96.57 3.41-.62z"/><path fill="#019934" d="m379.88 609.75-.01.37q-.61-.05-1.09-.26.59-.27 1.1-.11M1500 707.98v290.9l-.48 1.12H0V708.21c54.38 1.29 111.25 2.27 163 4.08q34.09 1.19 66.25 3.33 16.2 1.07 36.27 3.59 9.26 1.16 17.04 3.22 4.34 1.15 7.51 3.19a2.3 2.3 0 01.76 3.05c-.97 1.71-4.01 3.32-5.85 3.97q-.68.23-2.94 1.8c-13.52 9.36-26.21 19.41-37.39 31.22q-9.76 10.32-14.79 20.44c-19.36 38.93 26.53 58.61 54.96 67.55q16.11 5.07 33.12 8.65c29.46 6.19 60.82 10.16 91.64 12.95a1.6 1.6 0 011.41 1.23q2.92 12.78 4.57 18.98c3.42 12.92 12.41 19.37 24.94 22.32q12.76 3 28.51 3.66 14.43.6 32.99-.01 21.89-.72 39.83-2.26a.4.4 0 01.43.35q.54 5.57 3.71 8.75c5.04 5.04 11.36 8.24 18.06 10.66 13.9 5.02 28.65 7.88 43.47 10.34q1.52.25 4 .23 10.24-.07 271.9-.02 9.03.01 15.6-1.1c13.17-2.22 59.29-10.54 59.2-28.31a.87.86 2.2 01.93-.86q29.46 2.33 57.36 1.81 21.45-.4 40.75-4.49 5.89-1.24 14.35-4.94 5.09-2.22 9.6-6.17c8.62-7.55 9.41-18.45 9.02-29.13a1.05 1.04 86.8 01.96-1.08q29.82-2.55 58.21-6.82c25.06-3.77 49.84-8.99 73.65-17.11q17.31-5.91 32.75-15.71 1.58-1.01 6.82-5.72c38.32-34.45-18.53-77.75-44.01-95.46-2.63-1.83-5.67-2.73-7.88-4.59a2.77 2.19 37.1 01-.83-3.18c1.45-2.29 5.71-3.46 8.46-4.23q7.32-2.04 18.98-3.46 23.82-2.89 49.43-4.31 45.52-2.51 98.5-3.8 62-1.51 102.76-2.27c3.65-.06 7.99-.5 11.99-.57"/><path fill="#ff0" d="m916.11 752.43 10.76 38.37-8.04 1.54a1.61 1.04-38.7 01-.29.03q-3.86-.03-6.4.66-3.95 1.07-5.89 1.05-4.2-.06-9.23 1.39-1.08.31-7.71.38a7.15 6.93-53.2 00-2.06.33q-3.68 1.17-4.49 1.19-6.23.15-7.79.55l-3.63-16.94.49-.36a1.23 1.22 32.3 01.98-.22c1.55.32 4.12.54 5.97.18q1.12-.22 2.41.34a1.06 1.05 3.1 001.43-1.28q-.04-.12-.78-1.76c-.53-1.17-.11-2.47-1.37-3.55a.14.11-83 01-.03-.05l-8.84-20.38a.57.53 48.3 01.01-.46c.61-1.25 2.37-2.49 3.64-.81q.61.82 1.77-.03a1.75 1.69 26 011.02-.33zM627.18 780.6l-3.6 16.82q-4.36-.03-7.8-.5-.74-.1-1.36-.41a1.99 1.96 59.5 00-.67-.18l-11.5-1.04a.63.17 30.1 01-.11-.03l-1.43-.57a1.69 1.5 55.4 00-.49-.12L590 793.7a1.44 1.42-21.2 01-.85-.37l-.28-.26a1.1 1.09 68.6 00-.66-.29l-8.23-.59a1.59 1.52-30.3 01-.46-.11q-3.07-1.2-6.1-1.19a2.55 2.48-32.4 01-1.01-.21l-.71-.32 10.6-37.33q.23-.12.42-.36 1.46-.48 3.11-.17 1.14.22 1.75-.26.54-.43 1.26-.07.18.09 1.31.09 23.21-.1 39.44.03a1.52 1.52 0 011.29 2.3l-2.42 4.05a.45.12-75.1 00-.04.07q-3.59 9.28-6.77 16.89c-.66 1.6-1.92 2.61-1.61 4.44a.87.87 0 001.3.6q1-.59 1.96-.07.56.3 1.88-.05.98-.26 2 .08"/><path fill="#019934" d="M582.72 752.67q-.19.24-.42.36 0-.2-.09-.42z"/><path fill="#ff0" d="m777.67 780.61 1.05 25.16q-.83.45-1.11.39c-3.14-.7-6.17.51-8.49.53-8.85.11-15.47.65-24.82.24q-7.79-.33-15.57-.08a.96.95-17.5 01-.81-.42l-.61-.9.32-25.02q22.23-.15 44.72-.08c1.18.01 2.43.68 3.41.06a1.13 1.1-54 01.83-.14z"/><path fill="#008dd2" d="m727.63 780.51-.32 25.02q-.31.79-1.06.74c-10-.58-21.08-.79-30.32-1.43q-36.27-2.54-71.32-6.95-.57-.07-1.03-.47l3.6-16.82zm143.71.47 3.63 16.94q-17.57 2.29-35 4-30.43 3-60.99 4.02-.38.01-.26-.17l-1.05-25.16z"/><path fill="#fff" d="M1500 998.88v1.12h-.48z"/></svg>