<svg xmlns="http://www.w3.org/2000/svg" viewBox="0 0 285 190"><g fill="none" stroke-width="2"><path stroke="#3b919c" d="m285 78.97-82.54.07" vector-effect="non-scaling-stroke"/><path stroke="#3c5b81" d="M202.46 79.04q-.46.21-.82-.44-7.13-12.71-14.29-25.42" vector-effect="non-scaling-stroke"/><path stroke="#3b919c" d="m187.35 53.18-5.81-10.53a1.01 1-28.7 00-1.37-.39l-37.58 21" vector-effect="non-scaling-stroke"/><path stroke="#bad6ff" d="m142.59 63.26-.07-.45" vector-effect="non-scaling-stroke"/><path stroke="#3b919c" d="M142.52 62.81q.33.01.36-.4a.33.32 32.3 00-.06-.24l-9.97-14.57a.55.55 0 00-.73-.15l-14.14 8.49" vector-effect="non-scaling-stroke"/><path stroke="#3c5b81" d="M117.98 55.94 81.02 78.03q-2.38 1.42-4.84 1.05" vector-effect="non-scaling-stroke"/><path stroke="#3b919c" d="M76.18 79.08 0 79.03" vector-effect="non-scaling-stroke"/><path stroke="#bad6ff" d="M133.53 46.56v-9.54a5.43 5.39 60.5 01.76-2.75l2.03-3.48c4.18-6.75-.57-17.95-4.89-23.6a.7.7 0 00-1.26.41q-.07 6.37-1.03 11.73-.14.83-2.17 4.12c-4.71 7.62-.14 18.24 5.99 23.37a.35.35 20.1 00.57-.26m14.79.01v-9.54a5.43 5.39 60.4 01.75-2.75l2.03-3.48c4.18-6.75-.58-17.95-4.9-23.59a.7.7 0 00-1.26.41q-.07 6.37-1.02 11.73-.14.83-2.17 4.12c-4.71 7.62-.13 18.23 6 23.36a.35.35 20 00.57-.26m14.82.02-.02-9.55a5.43 5.4 60.3 01.74-2.76l2.03-3.48c4.17-6.77-.61-17.98-4.95-23.62a.71.7 26.6 00-1.26.42q-.06 6.37-1 11.74-.14.83-2.16 4.13c-4.71 7.64-.1 18.26 6.05 23.38a.35.35 19.9 00.57-.26" vector-effect="non-scaling-stroke"/><path stroke="#ff8080" d="m131.58 43.02.5-7.5a2.13 2.07-32.1 01.18-.74l2.88-6.31a1.34 1.15-33.5 00.12-.42q.81-8.64-2.77-16.39a.32.31 36.3 00-.59.09l-1.17 9.45a1.32 1.25-28 01-.17.5q-6.42 10.37.31 21.49a.38.38 0 00.71-.17m14.81.06.49-7.54a2.14 2.09-32.2 01.18-.75l2.88-6.35a1.35 1.16-33.6 00.12-.43q.8-8.69-2.82-16.48a.32.31 36.2 00-.6.09l-1.15 9.51a1.33 1.26-28.2 01-.17.51q-6.44 10.45.36 21.62a.39.38-59.1 00.71-.18m14.8.02.48-7.55a2.14 2.09-32.3 01.18-.75l2.88-6.36a1.35 1.16-33.7 00.12-.43q.79-8.7-2.85-16.5a.32.31 36.1 00-.6.1l-1.14 9.52a1.33 1.26-28.2 01-.17.51q-6.43 10.47.39 21.64a.39.38-59.1 00.71-.18" vector-effect="non-scaling-stroke"/><path stroke="#01401e" d="M187.35 53.18q-.02.46-.16.68" vector-effect="non-scaling-stroke"/><path stroke="#80ba9c" d="m187.19 53.86-6-10.49a.75.74 60.3 00-1.01-.28l-42.62 23.65" vector-effect="non-scaling-stroke"/><path stroke="#01401e" d="m137.56 66.74-.32-.31" vector-effect="non-scaling-stroke"/><path stroke="#80ba9c" d="m137.24 66.43 5.35-3.17" vector-effect="non-scaling-stroke"/><path stroke="#818581" d="m187.19 53.86 18.82 33.36a.48.47 75.2 01-.41.71H100.79a.36.36 0 01-.18-.68l36.95-20.51" vector-effect="non-scaling-stroke"/><path stroke="#80ba9c" d="m142.52 62.81-9.78-14.06a.9.9 0 00-1.22-.27l-12.93 7.64" vector-effect="non-scaling-stroke"/><path stroke="#01401e" d="m118.59 56.12-.61-.18" vector-effect="non-scaling-stroke"/><path stroke="#818581" d="m137.24 66.43-30.2 16.84a4.17 4.06 29.7 01-2.01.52l-31.93-.04" vector-effect="non-scaling-stroke"/><path stroke="#80ba9c" d="M73.1 83.75q.92-1.31 2.4-1.93" vector-effect="non-scaling-stroke"/><path stroke="#818581" d="m75.5 81.82 43.09-25.7" vector-effect="non-scaling-stroke"/><path stroke="#01401e" d="m202.46 79.04 4.06 7.79a1.2 1.19 76.2 01-1.05 1.75H98.89a.47.47 0 01-.27-.86l4.19-2.87a.21.21 0 00-.12-.39h-30.7a.37.37 0 01-.32-.57q.75-1.21 1.43-.14m2.4-1.93q.07-.69.6-1.25a1 1-29.6 00.23-.81l-.15-.68m50.07 96.38q.26.95-.01 1.92a1.48 1.48 0 001.43 1.88h28.64a1.26 1.26 0 001.26-1.26v-9.91a.67.66 90 00-.66-.67h-9.2a1.87 1.87 0 01-1.87-1.87l.01-15.67a.54.54 0 01.91-.39l23.52 22.74a1.4 1.4 44 001.94-.03l2.1-2.18a1.89 1.88-46 00-.04-2.67l-26.72-25.82a1.13 1.13 0 010-1.62l23.14-22.41a2.46 2.46 0 013.1-.27q.98.67 2.27 2.2c4.94 5.86 8.49 12.36 11.83 19.14a.24.24 0 00.45-.11c-.39-10.13-4.37-17.5-10.08-25.61a.87.86-59.3 01-.15-.6l.37-3.08a1.02 1.01 26.7 00-.28-.83c-1.51-1.6-3.32-4.07-4.95-2.34a1.15 1.1-42.4 01-1.72-.04q-1.36-1.76-2.41-3.81a1.33 1.33 0 00-2.11-.35l-4.55 4.41a1.22 1.22 0 00.24 1.93l3.31 1.91a1.67 1.67 0 01.33 2.65l-19.81 19.19a.43.42 68.1 01-.72-.31v-26.49a1.47 1.47 0 00-1.47-1.47h-4.1a1.72 1.71-90 00-1.71 1.72v26.51a.42.42 0 01-.72.3l-19.94-19.27a1.75 1.75 0 01.22-2.71l3.21-2.2a1.15 1.15 0 00.15-1.78l-4.64-4.49a1.2 1.2 0 00-1.87.27l-2.21 3.81a.96.96 0 01-1.23.4l-1.69-.76a.99.98-52.9 00-1.05.15q-1.89 1.63-2.99 2.94-.7.84-.33 1.54a3.35 2.23 54.4 01.11 3.09c-5.71 7.8-9.43 15.34-9.87 25.28a.24.24-30.7 00.45.11q4.08-7.95 5.24-9.9 2.61-4.38 7.46-10.28 1.49-1.81 3.65-1.25a1.7 1.66-15.2 01.7.39l23.56 22.56a.84.84 0 01.01 1.21l-27.24 26.39a1.5 1.5 0 00-.04 2.1l2.37 2.44a1.37 1.36 45.7 001.94.03l24.05-23.3a.41.41 0 01.7.3v17.15a.8.8 0 01-.76.78l-9.71.2a1.43.88-31.7 01-.23 0l-.93-.05a1 1 0 00-.83 1q.22 6.31.19 6.4a1.28 1.25-44.2 00-.02.76" vector-effect="non-scaling-stroke"/><path stroke="#818581" d="m120.94 106.56-4.56-4.32a.27.27 0 00-.38.01l-.39.4a5.27 2.07-46.5 00-2.12 5.25l1.94 1.84a5.27 2.07-46.5 005.13-2.39l.39-.41a.27.27 0 00-.01-.38m46.77-4.4-4.68 4.48a.23.23 0 000 .33l.07.08a5.78 2.23 46.2 005.61 2.63l1.79-1.72a5.78 2.23 46.2 00-2.39-5.71l-.07-.08a.23.23 0 00-.33-.01m-22.66 2.92a.54.54 0 00-.54-.54h-4.44a.54.54 0 00-.54.54v61.78a.54.54 0 00.54.54h4.44a.54.54 0 00.54-.54v-61.78m-34.88 1.25a2.69.87-44 00-2.54 1.24 2.69.87-44 00-1.33 2.5 2.69.87-44 002.53-1.24 2.69.87-44 001.34-2.5" vector-effect="non-scaling-stroke"/><path stroke="#818581" d="M173.91 106.33a2.64.86-136 001.3 2.45 2.64.86-136 002.5 1.21 2.64.86-136 00-1.3-2.45 2.64.86-136 00-2.5-1.21m-67.21 5.26q0 .41.16.54 2.14 1.67 4.21 3.91.04.05.23.1.13.03.26.03.11 0 .24-.03.19-.05.23-.1 2.07-2.24 4.21-3.92.15-.12.15-.54 0-.4-.16-.52-2.13-1.68-4.2-3.92-.04-.05-.24-.1-.13-.03-.26-.03-.1 0-.23.03-.2.05-.24.1-2.06 2.25-4.2 3.92-.16.13-.16.53" vector-effect="non-scaling-stroke"/><path stroke="#818581" d="M177.35 111.63q0-.41-.16-.54-2.12-1.68-4.18-3.92-.04-.05-.23-.1-.13-.03-.26-.03-.11 0-.24.03-.19.05-.23.1-2.07 2.23-4.21 3.9-.15.12-.15.53-.01.4.15.53 2.13 1.67 4.19 3.91.03.05.23.1.13.03.26.03.1.01.23-.03.19-.04.23-.09 2.07-2.23 4.21-3.9.16-.12.16-.52m-64.05 3.89a.53.53 0 000 .76l24.56 23.74a.53.53 0 00.9-.38v-5.16a.5.5 0 00-.16-.38l-21.9-21.16a.53.53 0 00-.74 0l-2.66 2.58m54.66-2.68a.37.37 0 00-.52 0l-21.62 20.94a.4.4 0 00-.11.27v5.58a.37.37 0 00.63.26l24.5-23.73a.37.37 0 000-.54l-2.88-2.78m19.01 22.2a.24.24 0 00.45-.15q-1.83-11.65-9.69-21.41a.88.87-42.3 00-1.31-.06l-1.95 2.02a.8.79-44.2 00-.02 1.07c5.97 6.64 8.67 11.36 12.52 18.53m-89.84-.11c3.84-7.13 6.53-11.82 12.48-18.42a.79.78 44.2 00-.02-1.07l-1.94-2.01a.87.87 0 00-1.3.06q-7.83 9.7-9.67 21.29a.24.24 0 00.45.15m15.37 36.64a.47.47 0 00.67.01l25.42-24.63a.5.5 0 00.14-.34v-4.93a.47.47 0 00-.8-.34l-27.88 27.02a.47.47 0 00-.01.67l2.46 2.54m61.56-2.6a.4.4 0 00-.01-.59l-27.61-26.69a.42.42 0 00-.71.3v5.07a.4.4 0 00.13.3l25.07 24.25a.4.4 0 00.59-.01l2.54-2.63m-17.13-.52a.57.57 0 00-.57-.57h-28.64a.57.57 0 00-.57.57v9.32a.57.57 0 00.57.57h28.64a.57.57 0 00.57-.57v-9.32" vector-effect="non-scaling-stroke"/></g><path fill="#75acff" d="M285 0v78.97l-82.54.07q-.46.21-.82-.44-7.13-12.71-14.29-25.42l-5.81-10.53a1.01 1-28.7 00-1.37-.39l-37.58 21-.07-.45q.33.01.36-.4a.33.32 32.3 00-.06-.24l-9.97-14.57a.55.55 0 00-.73-.15l-14.14 8.49-36.96 22.09q-2.38 1.42-4.84 1.05L0 79.03V0zM133.53 46.56v-9.54a5.43 5.39 60.5 01.76-2.75l2.03-3.48c4.18-6.75-.57-17.95-4.89-23.6a.7.7 0 00-1.26.41q-.07 6.37-1.03 11.73-.14.83-2.17 4.12c-4.71 7.62-.14 18.24 5.99 23.37a.35.35 20.1 00.57-.26m14.79.01v-9.54a5.43 5.39 60.4 01.75-2.75l2.03-3.48c4.18-6.75-.58-17.95-4.9-23.59a.7.7 0 00-1.26.41q-.07 6.37-1.02 11.73-.14.83-2.17 4.12c-4.71 7.62-.13 18.23 6 23.36a.35.35 20 00.57-.26m14.82.02-.02-9.55a5.43 5.4 60.3 01.74-2.76l2.03-3.48c4.17-6.77-.61-17.98-4.95-23.62a.71.7 26.6 00-1.26.42q-.06 6.37-1 11.74-.14.83-2.16 4.13c-4.71 7.64-.1 18.26 6.05 23.38a.35.35 19.9 00.57-.26"/><path fill="#fff" d="M133.53 46.56a.35.35 20.1 01-.57.26c-6.13-5.13-10.7-15.75-5.99-23.37q2.03-3.29 2.17-4.12.96-5.36 1.03-11.73a.7.7 0 011.26-.41c4.32 5.65 9.07 16.85 4.89 23.6l-2.03 3.48a5.43 5.39 60.5 00-.76 2.75zm-1.95-3.54.5-7.5a2.13 2.07-32.1 01.18-.74l2.88-6.31a1.34 1.15-33.5 00.12-.42q.81-8.64-2.77-16.39a.32.31 36.3 00-.59.09l-1.17 9.45a1.32 1.25-28 01-.17.5q-6.42 10.37.31 21.49a.38.38 0 00.71-.17m16.74 3.55a.35.35 20 01-.57.26c-6.13-5.13-10.71-15.74-6-23.36q2.03-3.29 2.17-4.12.95-5.36 1.02-11.73a.7.7 0 011.26-.41c4.32 5.64 9.08 16.84 4.9 23.59l-2.03 3.48a5.43 5.39 60.4 00-.75 2.75zm-1.93-3.49.49-7.54a2.14 2.09-32.2 01.18-.75l2.88-6.35a1.35 1.16-33.6 00.12-.43q.8-8.69-2.82-16.48a.32.31 36.2 00-.6.09l-1.15 9.51a1.33 1.26-28.2 01-.17.51q-6.44 10.45.36 21.62a.39.38-59.1 00.71-.18m16.75 3.51a.35.35 19.9 01-.57.26c-6.15-5.12-10.76-15.74-6.05-23.38q2.02-3.3 2.16-4.13.94-5.37 1-11.74a.71.7 26.6 011.26-.42c4.34 5.64 9.12 16.85 4.95 23.62l-2.03 3.48a5.43 5.4 60.3 00-.74 2.76zm-1.95-3.49.48-7.55a2.14 2.09-32.3 01.18-.75l2.88-6.36a1.35 1.16-33.7 00.12-.43q.79-8.7-2.85-16.5a.32.31 36.1 00-.6.1l-1.14 9.52a1.33 1.26-28.2 01-.17.51q-6.43 10.47.39 21.64a.39.38-59.1 00.71-.18"/><path fill="red" d="M146.39 43.08a.39.38-59.1 01-.71.18q-6.8-11.17-.36-21.62a1.33 1.26-28.2 00.17-.51l1.15-9.51a.32.31 36.2 01.6-.09q3.62 7.79 2.82 16.48a1.35 1.16-33.6 01-.12.43l-2.88 6.35a2.14 2.09-32.2 00-.18.75zm14.8.02a.39.38-59.1 01-.71.18q-6.82-11.17-.39-21.64a1.33 1.26-28.2 00.17-.51l1.14-9.52a.32.31 36.1 01.6-.1q3.64 7.8 2.85 16.5a1.35 1.16-33.7 01-.12.43l-2.88 6.36a2.14 2.09-32.3 00-.18.75zm-29.61-.08a.38.38 0 01-.71.17q-6.73-11.12-.31-21.49a1.32 1.25-28 00.17-.5l1.17-9.45a.32.31 36.3 01.59-.09q3.58 7.75 2.77 16.39a1.34 1.15-33.5 01-.12.42l-2.88 6.31a2.13 2.07-32.1 00-.18.74z"/><path fill="#007539" d="M187.35 53.18q-.02.46-.16.68l-6-10.49a.75.74 60.3 00-1.01-.28l-42.62 23.65-.32-.31 5.35-3.17 37.58-21a1.01 1-28.7 011.37.39z"/><path fill="#fff" d="m187.19 53.86 18.82 33.36a.48.47 75.2 01-.41.71H100.79a.36.36 0 01-.18-.68l36.95-20.51 42.62-23.65a.75.74 60.3 011.01.28z"/><path fill="#007539" d="m142.52 62.81-9.78-14.06a.9.9 0 00-1.22-.27l-12.93 7.64-.61-.18 14.14-8.49a.55.55 0 01.73.15l9.97 14.57a.33.32 32.3 01.06.24q-.03.41-.36.4"/><path fill="#fff" d="m142.52 62.81.07.45-5.35 3.17-30.2 16.84a4.17 4.06 29.7 01-2.01.52l-31.93-.04q.92-1.31 2.4-1.93l43.09-25.7 12.93-7.64a.9.9 0 011.22.27z"/><path fill="#020a03" d="m202.46 79.04 4.06 7.79a1.2 1.19 76.2 01-1.05 1.75H98.89a.47.47 0 01-.27-.86l4.19-2.87a.21.21 0 00-.12-.39h-30.7a.37.37 0 01-.32-.57q.75-1.21 1.43-.14l31.93.04a4.17 4.06 29.7 002.01-.52l30.2-16.84.32.31-36.95 20.51a.36.36 0 00.18.68H205.6a.48.47 75.2 00.41-.71l-18.82-33.36q.14-.22.16-.68 7.16 12.71 14.29 25.42.36.65.82.44m-84.48-23.1.61.18-43.09 25.7q.07-.69.6-1.25a1 1-29.6 00.23-.81l-.15-.68q2.46.37 4.84-1.05z"/><path fill="#007539" d="M285 78.97V190H0V79.03l76.18.05.15.68a1 1-29.6 01-.23.81q-.53.56-.6 1.25-1.48.62-2.4 1.93-.68-1.07-1.43.14a.37.37 0 00.32.57h30.7a.21.21 0 01.12.39l-4.19 2.87a.47.47 0 00.27.86h106.58a1.2 1.19 76.2 001.05-1.75l-4.06-7.79zm-158.75 96.49q.26.95-.01 1.92a1.48 1.48 0 001.43 1.88h28.64a1.26 1.26 0 001.26-1.26v-9.91a.67.66 90 00-.66-.67h-9.2a1.87 1.87 0 01-1.87-1.87l.01-15.67a.54.54 0 01.91-.39l23.52 22.74a1.4 1.4 44 001.94-.03l2.1-2.18a1.89 1.88-46 00-.04-2.67l-26.72-25.82a1.13 1.13 0 010-1.62l23.14-22.41a2.46 2.46 0 013.1-.27q.98.67 2.27 2.2c4.94 5.86 8.49 12.36 11.83 19.14a.24.24 0 00.45-.11c-.39-10.13-4.37-17.5-10.08-25.61a.87.86-59.3 01-.15-.6l.37-3.08a1.02 1.01 26.7 00-.28-.83c-1.51-1.6-3.32-4.07-4.95-2.34a1.15 1.1-42.4 01-1.72-.04q-1.36-1.76-2.41-3.81a1.33 1.33 0 00-2.11-.35l-4.55 4.41a1.22 1.22 0 00.24 1.93l3.31 1.91a1.67 1.67 0 01.33 2.65l-19.81 19.19a.43.42 68.1 01-.72-.31v-26.49a1.47 1.47 0 00-1.47-1.47h-4.1a1.72 1.71-90 00-1.71 1.72v26.51a.42.42 0 01-.72.3l-19.94-19.27a1.75 1.75 0 01.22-2.71l3.21-2.2a1.15 1.15 0 00.15-1.78l-4.64-4.49a1.2 1.2 0 00-1.87.27l-2.21 3.81a.96.96 0 01-1.23.4l-1.69-.76a.99.98-52.9 00-1.05.15q-1.89 1.63-2.99 2.94-.7.84-.33 1.54a3.35 2.23 54.4 01.11 3.09c-5.71 7.8-9.43 15.34-9.87 25.28a.24.24-30.7 00.45.11q4.08-7.95 5.24-9.9 2.61-4.38 7.46-10.28 1.49-1.81 3.65-1.25a1.7 1.66-15.2 01.7.39l23.56 22.56a.84.84 0 01.01 1.21l-27.24 26.39a1.5 1.5 0 00-.04 2.1l2.37 2.44a1.37 1.36 45.7 001.94.03l24.05-23.3a.41.41 0 01.7.3v17.15a.8.8 0 01-.76.78l-9.71.2a1.43.88-31.7 01-.23 0l-.93-.05a1 1 0 00-.83 1q.22 6.31.19 6.4a1.28 1.25-44.2 00-.02.76"/><path fill="#020a03" d="M126.27 174.7q.03-.09-.19-6.4a1 1 0 01.83-1l.93.05a1.43.88-31.7 00.23 0l9.71-.2a.8.8 0 00.76-.78v-17.15a.41.41 0 00-.7-.3l-24.05 23.3a1.37 1.36 45.7 01-1.94-.03l-2.37-2.44a1.5 1.5 0 01.04-2.1l27.24-26.39a.84.84 0 00-.01-1.21l-23.56-22.56a1.7 1.66-15.2 00-.7-.39q-2.16-.56-3.65 1.25-4.85 5.9-7.46 10.28-1.16 1.95-5.24 9.9a.24.24-30.7 01-.45-.11c.44-9.94 4.16-17.48 9.87-25.28a3.35 2.23 54.4 00-.11-3.09q-.37-.7.33-1.54 1.1-1.31 2.99-2.94a.99.98-52.9 011.05-.15l1.69.76a.96.96 0 001.23-.4l2.21-3.81a1.2 1.2 0 011.87-.27l4.64 4.49a1.15 1.15 0 01-.15 1.78l-3.21 2.2a1.75 1.75 0 00-.22 2.71l19.94 19.27a.42.42 0 00.72-.3v-26.51a1.72 1.71-90 011.71-1.72h4.1a1.47 1.47 0 011.47 1.47v26.49a.43.42 68.1 00.72.31l19.81-19.19a1.67 1.67 0 00-.33-2.65l-3.31-1.91a1.22 1.22 0 01-.24-1.93l4.55-4.41a1.33 1.33 0 012.11.35q1.05 2.05 2.41 3.81a1.15 1.1-42.4 001.72.04c1.63-1.73 3.44.74 4.95 2.34a1.02 1.01 26.7 01.28.83l-.37 3.08a.87.86-59.3 00.15.6c5.71 8.11 9.69 15.48 10.08 25.61a.24.24 0 01-.45.11c-3.34-6.78-6.89-13.28-11.83-19.14q-1.29-1.53-2.27-2.2a2.46 2.46 0 00-3.1.27l-23.14 22.41a1.13 1.13 0 000 1.62l26.72 25.82a1.89 1.88-46 01.04 2.67l-2.1 2.18a1.4 1.4 44 01-1.94.03l-23.52-22.74a.54.54 0 00-.91.39l-.01 15.67a1.87 1.87 0 001.87 1.87h9.2a.67.66-90 01.66.67V178a1.26 1.26 0 01-1.26 1.26h-28.64a1.48 1.48 0 01-1.43-1.88q.27-.97.01-1.92a1.28 1.25-44.2 01.02-.76m-5.33-68.14-4.56-4.32a.27.27 0 00-.38.01l-.39.4a5.27 2.07-46.5 00-2.12 5.25l1.94 1.84a5.27 2.07-46.5 005.13-2.39l.39-.41a.27.27 0 00-.01-.38m46.77-4.4-4.68 4.48a.23.23 0 000 .33l.07.08a5.78 2.23 46.2 005.61 2.63l1.79-1.72a5.78 2.23 46.2 00-2.39-5.71l-.07-.08a.23.23 0 00-.33-.01m-22.66 2.92a.54.54 0 00-.54-.54h-4.44a.54.54 0 00-.54.54v61.78a.54.54 0 00.54.54h4.44a.54.54 0 00.54-.54zm-34.89 1.25a2.69.87-44 00-2.53 1.24 2.69.87-44 00-1.33 2.5 2.69.87-44 002.53-1.24 2.69.87-44 001.34-2.5m63.75 0a2.64.86-136 001.3 2.45 2.64.86-136 002.5 1.21 2.64.86-136 00-1.3-2.45 2.64.86-136 00-2.5-1.21m-67.21 5.26q0 .41.16.54 2.14 1.67 4.21 3.91.04.05.23.1.13.03.26.03.11 0 .24-.03.19-.05.23-.1 2.07-2.24 4.21-3.92.15-.12.15-.54 0-.4-.16-.52-2.13-1.68-4.2-3.92-.04-.05-.24-.1-.13-.03-.26-.03-.1 0-.23.03-.2.05-.24.1-2.06 2.25-4.2 3.92-.16.13-.16.53m70.65.04q0-.41-.16-.54-2.12-1.68-4.18-3.92-.04-.05-.23-.1-.13-.03-.26-.03-.11 0-.24.03-.19.05-.23.1-2.07 2.23-4.21 3.9-.15.12-.15.53-.01.4.15.53 2.13 1.67 4.19 3.91.03.05.23.1.13.03.26.03.1.01.23-.03.19-.04.23-.09 2.07-2.23 4.21-3.9.16-.12.16-.52m-64.05 3.89a.53.53 0 000 .76l24.56 23.74a.53.53 0 00.9-.38v-5.16a.5.5 0 00-.16-.38l-21.9-21.16a.53.53 0 00-.74 0zm54.66-2.68a.37.37 0 00-.52 0l-21.62 20.94a.4.4 0 00-.11.27v5.58a.37.37 0 00.63.26l24.5-23.73a.37.37 0 000-.54zm19.01 22.2a.24.24 0 00.45-.15q-1.83-11.65-9.69-21.41a.88.87-42.3 00-1.31-.06l-1.95 2.02a.8.79-44.2 00-.02 1.07c5.97 6.64 8.67 11.36 12.52 18.53m-89.84-.11c3.84-7.13 6.53-11.82 12.48-18.42a.79.78 44.2 00-.02-1.07l-1.94-2.01a.87.87 0 00-1.3.06q-7.83 9.7-9.67 21.29a.24.24 0 00.45.15m15.37 36.64a.47.47 0 00.67.01l25.42-24.63a.5.5 0 00.14-.34v-4.93a.47.47 0 00-.8-.34l-27.88 27.02a.47.47 0 00-.01.67zm61.56-2.6a.4.4 0 00-.01-.59l-27.61-26.69a.42.42 0 00-.71.3v5.07a.4.4 0 00.13.3l25.07 24.25a.4.4 0 00.59-.01zm-17.13-.52a.57.57 0 00-.57-.57h-28.64a.57.57 0 00-.57.57v9.32a.57.57 0 00.57.57h28.64a.57.57 0 00.57-.57z"/><path fill="#fff" d="M120.94 106.56a.27.27 0 01.01.38l-.39.41a5.27 2.07-46.5 01-5.13 2.39l-1.94-1.84a5.27 2.07-46.5 012.12-5.25l.39-.4a.27.27 0 01.38-.01zm46.77-4.4a.23.23 0 01.33.01l.07.08a5.78 2.23 46.2 012.39 5.71l-1.79 1.72a5.78 2.23 46.2 01-5.61-2.63l-.07-.08a.23.23 0 010-.33z"/><rect width="5.52" height="62.86" x="139.53" y="104.54" fill="#fff" rx=".54"/><ellipse fill="#fff" rx="2.69" ry=".87" transform="rotate(-44 188.02 -79.84)"/><ellipse fill="#fff" rx="2.64" ry=".86" transform="rotate(224 109.75 18.56)"/><path fill="#fff" d="M111.53 107.01q.13 0 .26.03.2.05.24.1 2.07 2.24 4.2 3.92.16.12.16.52 0 .42-.15.54-2.14 1.68-4.21 3.92-.04.05-.23.1-.13.03-.24.03-.13 0-.26-.03-.19-.05-.23-.1-2.07-2.24-4.21-3.91-.16-.13-.16-.54 0-.4.16-.53 2.14-1.67 4.2-3.92.04-.05.24-.1.13-.03.23-.03m65.82 4.62q0 .4-.16.52-2.14 1.67-4.21 3.9-.04.05-.23.09-.13.04-.23.03-.13 0-.26-.03-.2-.05-.23-.1-2.06-2.24-4.19-3.91-.16-.13-.15-.53 0-.41.15-.53 2.14-1.67 4.21-3.9.04-.05.23-.1.13-.03.24-.03.13 0 .26.03.19.05.23.1 2.06 2.24 4.18 3.92.16.13.16.54m-64.05 3.89 2.66-2.58a.53.53 0 01.74 0l21.9 21.16a.5.5 0 01.16.38v5.16a.53.53 0 01-.9.38l-24.56-23.74a.53.53 0 010-.76m54.66-2.68 2.88 2.78a.37.37 0 010 .54l-24.5 23.73a.37.37 0 01-.63-.26v-5.58a.4.4 0 01.11-.27l21.62-20.94a.37.37 0 01.52 0m19.01 22.2c-3.85-7.17-6.55-11.89-12.52-18.53a.8.79-44.2 01.02-1.07l1.95-2.02a.88.87-42.3 011.31.06q7.86 9.76 9.69 21.41a.24.24 0 01-.45.15m-89.84-.11a.24.24 0 01-.45-.15q1.84-11.59 9.67-21.29a.87.87 0 011.3-.06l1.94 2.01a.79.78 44.2 01.02 1.07c-5.95 6.6-8.64 11.29-12.48 18.42m15.37 36.64-2.46-2.54a.47.47 0 01.01-.67l27.88-27.02a.47.47 0 01.8.34v4.93a.5.5 0 01-.14.34l-25.42 24.63a.47.47 0 01-.67-.01m61.56-2.6-2.54 2.63a.4.4 0 01-.59.01l-25.07-24.25a.4.4 0 01-.13-.3v-5.07a.42.42 0 01.71-.3l27.61 26.69a.4.4 0 01.01.59"/><rect width="29.78" height="10.46" x="127.15" y="167.88" fill="#fff" rx=".57"/></svg>